<?xml version="1.0" encoding="utf-8"?>
<!-- Generator: Adobe Illustrator 24.0.1, SVG Export Plug-In . SVG Version: 6.00 Build 0)  -->
<svg version="1.1" id="Capa_1" xmlns="http://www.w3.org/2000/svg" xmlns:xlink="http://www.w3.org/1999/xlink" x="0px" y="0px"
	 viewBox="0 0 2492 1404" style="enable-background:new 0 0 2492 1404;" xml:space="preserve">
<style type="text/css">
	.st0{fill:#FFFFFF;}
	.st1{font-family:'ArialMT';}
	.st2{font-size:16.5px;}
	.st3{fill:none;stroke:#000000;stroke-width:1.3613;stroke-miterlimit:10;stroke-dasharray:12.5655,5.4451;}
	.st4{fill:#FFFFFF;stroke:#000000;stroke-width:2.777;stroke-miterlimit:10;}
	.st5{font-size:11px;}
	.st6{fill:#FFFFFF;stroke:#000000;stroke-width:2.6136;stroke-miterlimit:10;}
	.st7{fill:#FFFFFF;stroke:#000000;stroke-width:1.3613;stroke-miterlimit:10;}
	.st8{font-family:'Arial-ItalicMT';}
	.st9{font-family:'Arial-BoldMT';}
	.st10{fill:none;stroke:#000000;stroke-width:1.3613;stroke-miterlimit:10;}
	.st11{fill:none;stroke:#000000;stroke-width:1.3613;stroke-miterlimit:10;stroke-dasharray:6.5341;}
	.st12{fill:none;stroke:#000000;stroke-width:2.6136;stroke-miterlimit:10;}
</style>
<g>
	<g>
		<rect class="st0" width="2492" height="1404"/>
	</g>
	<g>
		<text transform="matrix(1 0 0 1 1106.6198 24.5028)" class="st1 st2">Diagrama para la simulación</text>
	</g>
	<g>
		<path class="st3" d="M23.6,128.8v1275.3"/>
		<path class="st3" d="M146.9,128.8v1275.3"/>
		<path class="st3" d="M372.5,128.8v1275.3"/>
		<path class="st3" d="M633.8,319.4v419.8"/>
		<path class="st3" d="M1062.9,128.8v1275.3"/>
		<path class="st3" d="M1595.4,128.8v1275.3"/>
		<path class="st3" d="M1945.8,128.8v1275.3"/>
		<path class="st3" d="M2167.4,128.8v1275.3"/>
		<path class="st3" d="M2328.8,128.8v1275.3"/>
		<path class="st3" d="M2438.8,128.8v1275.3"/>
	</g>
	<g>
		<g>
			<path class="st4" d="M33,59.7c0,5.1-4.2,9.3-9.3,9.3s-9.3-4.2-9.3-9.3s4.2-9.3,9.3-9.3C28.8,50.4,33,54.6,33,59.7 M23.6,69v19.9
				 M11.9,76.2h23.5 M23.6,88.9l-11.8,18.6 M23.6,88.9l11.8,18.6"/>
		</g>
		<g>
			<text transform="matrix(1 0 0 1 8.1676 123.9025)" class="st1 st5">User</text>
		</g>
		<path d="M0,0"/>
		<g>
			<path class="st6" d="M55.5,84.7h182.9v44.1H55.5V84.7z"/>
		</g>
		<g>
			<text transform="matrix(1 0 0 1 73.1785 112.4679)" class="st1 st5">MainWindowController</text>
		</g>
		<path d="M0,0"/>
		<g>
			<path class="st6" d="M265.5,84.7h213.9v44.1H265.5V84.7z"/>
		</g>
		<g>
			<text transform="matrix(1 0 0 1 283.2339 112.4679)" class="st1 st5">ProblemMenuConfiguration</text>
		</g>
		<path d="M0,0"/>
		<g>
			<path class="st6" d="M771.8,84.7H1354v44.1H771.8V84.7z"/>
		</g>
		<g>
			<text transform="matrix(1 0 0 1 789.5112 112.4679)" class="st1 st5">SingleObjectiveRunningWindowController / MultiObjectiveRunningWindowController</text>
		</g>
		<path d="M0,0"/>
		<g>
			<path class="st6" d="M1370.3,84.9h450.2v43.9h-450.2V84.9z"/>
		</g>
		<g>
			<text transform="matrix(1 0 0 1 1388.0366 112.4679)" class="st1 st5">SingleObjectiveExperimentTask / MultiObjectiveExperimentTask</text>
		</g>
		<path d="M0,0"/>
		<g>
			<path class="st6" d="M1836.8,84.7H2006v44.1h-169.2V84.7z"/>
		</g>
		<g>
			<text transform="matrix(1 0 0 1 1854.5363 112.4679)" class="st1 st5">ResultPlotWindowController</text>
		</g>
		<path d="M0,0"/>
		<g>
			<path class="st6" d="M2071.1,84.7h146.1v44.1h-146.1V84.7z"/>
		</g>
		<g>
			<text transform="matrix(1 0 0 1 2088.8242 112.4679)" class="st1 st5">ResultWindowController</text>
		</g>
		<path d="M0,0"/>
		<g>
			<path class="st6" d="M2280.1,84.7h81.1v44.1h-81.1V84.7z"/>
		</g>
		<g>
			<text transform="matrix(1 0 0 1 2297.8508 112.4679)" class="st1 st5">Algorithm</text>
		</g>
		<path d="M0,0"/>
		<g>
			<path class="st6" d="M2393.8,84.7h71.8v44.1h-71.8V84.7z"/>
		</g>
		<g>
			<text transform="matrix(1 0 0 1 2411.5518 112.4679)" class="st1 st5">Problem</text>
		</g>
	</g>
	<g>
		<path class="st7" d="M364.3,248.1h16.3v149.8h-16.3V248.1"/>
		<path class="st7" d="M625.7,319.4H642l0,0H625.7L625.7,319.4"/>
		<path class="st7" d="M625.7,397.8H642v62.1h-16.3V397.8"/>
		<path class="st7" d="M625.7,554.7H642v156.8h-16.3V554.7"/>
		<path class="st7" d="M633.8,638h16.3V700h-16.3V638"/>
		<path class="st7" d="M138.7,700h16.3v460.7h-16.3V700"/>
		<path class="st7" d="M1054.7,883h16.3v194.4h-16.3V883"/>
		<path class="st7" d="M1587.2,928.7h16.3v11.4h-16.3V928.7"/>
		<path class="st7" d="M1937.6,974.5h16.3v11.4h-16.3V974.5"/>
		<path class="st7" d="M1937.6,1020.2h16.3v45.7h-16.3V1020.2"/>
		<path class="st7" d="M1054.7,1160.7h16.3v186.2h-16.3V1160.7"/>
		<path class="st7" d="M1587.2,1346.9h16.3v40.8h-16.3V1346.9"/>
		<g>
			<g>
				<rect x="105.1" y="161.5" class="st0" width="119.8" height="21.2"/>
			</g>
			<g>
				<rect x="117.4" y="177.8" class="st0" width="121.4" height="21.2"/>
			</g>
			<g>
				<rect x="117.4" y="194.1" class="st0" width="106" height="21.2"/>
			</g>
			<g>
				<rect x="117.4" y="210.5" class="st0" width="108.4" height="21.2"/>
			</g>
			<g>
				<rect x="117.4" y="226.8" class="st0" width="165.4" height="21.2"/>
			</g>
			<text transform="matrix(1 0 0 1 119.8256 176.1752)" class="st8 st5">Elegir problema</text>
			<g>
				<text transform="matrix(1 0 0 1 107.5994 176.1752)" class="st9 st5">1 </text>
			</g>
			<text transform="matrix(1 0 0 1 119.8256 192.5104)" class="st8 st5">desde un menu y </text>
			<text transform="matrix(1 0 0 1 119.8256 208.8456)" class="st8 st5">disparar evento</text>
			<text transform="matrix(1 0 0 1 119.8256 225.1808)" class="st8 st5">para abrir la red</text>
			<text transform="matrix(1 0 0 1 119.8256 241.516)" class="st1 st5">menuItemEventHander()</text>
		</g>
		<g>
			<path class="st10" d="M23.6,248.1h337.9"/>
			<g transform="translate(364.2967631051745,248.0500621105) translate(-364.2967631051745,-248.0500621105)">
				<path d="M350.7,241.2l13.6,6.8l-13.6,6.8V241.2z"/>
			</g>
		</g>
		<path d="M0,0"/>
		<g>
			<path class="st6" d="M512.2,273.9h243.2V318H512.2V273.9z"/>
		</g>
		<g>
			<text transform="matrix(1 0 0 1 529.955 301.7112)" class="st1 st5">DynamicConfigurationController</text>
		</g>
		<g>
			<g>
				<rect x="404" y="274.8" class="st0" width="84.8" height="21.2"/>
			</g>
			<text transform="matrix(1 0 0 1 418.7222 289.4598)" class="st1 st5">&lt;&lt;crear&gt;&gt;</text>
			<g>
				<text transform="matrix(1 0 0 1 406.496 289.4598)" class="st9 st5">2 </text>
			</g>
		</g>
		<g>
			<path class="st10" d="M380.6,296h128.9"/>
			<g transform="translate(512.2312344560859,295.993883796) translate(-512.2312344560859,-295.993883796)">
				<path d="M498.6,289.2l13.6,6.8l-13.6,6.8V289.2z"/>
			</g>
		</g>
		<g>
			<g>
				<rect x="410.2" y="343.9" class="st0" width="185.8" height="21.2"/>
			</g>
			<g>
				<rect x="422.5" y="360.3" class="st0" width="133.7" height="21.2"/>
			</g>
			<g>
				<rect x="422.5" y="376.6" class="st0" width="154" height="21.2"/>
			</g>
			<text transform="matrix(1 0 0 1 424.9212 358.6394)" class="st8 st5">Solicita al controlador que</text>
			<g>
				<text transform="matrix(1 0 0 1 412.695 358.6394)" class="st9 st5">3 </text>
			</g>
			<text transform="matrix(1 0 0 1 424.9212 374.9746)" class="st8 st5"> muestra la ventana</text>
			<text transform="matrix(1 0 0 1 424.9212 391.3098)" class="st1 st5">showDinamicWindow()</text>
		</g>
		<g>
			<path class="st10" d="M380.6,397.8H623"/>
			<g transform="translate(625.6741844656874,397.84387637149996) translate(-625.6741844656874,-397.84387637149996)">
				<path d="M612.1,391l13.6,6.8l-13.6,6.8V391z"/>
			</g>
		</g>
		<g>
			<g>
				<rect x="233.4" y="422.3" class="st0" width="182.6" height="21.2"/>
			</g>
			<g>
				<rect x="245.6" y="438.7" class="st0" width="85.6" height="21.2"/>
			</g>
			<text transform="matrix(1 0 0 1 248.0412 437.0483)" class="st1 st5">Ventana de configuración</text>
			<g>
				<text transform="matrix(1 0 0 1 235.815 437.0483)" class="st9 st5">4 </text>
			</g>
			<text transform="matrix(1 0 0 1 248.0412 453.3835)" class="st1 st5">de algoritmo</text>
		</g>
		<g>
			<path class="st11" d="M625.7,459.9H26.4"/>
			<g transform="translate(23.64361483359375,459.91764891149995) translate(-23.64361483359375,-459.91764891149995)">
				<path d="M37.3,453.1l-13.6,6.8l13.6,6.8V453.1z"/>
			</g>
		</g>
		<g>
			<g>
				<rect x="206.1" y="484.4" class="st0" width="195.6" height="21.2"/>
			</g>
			<g>
				<rect x="218.3" y="500.8" class="st0" width="188.2" height="21.2"/>
			</g>
			<g>
				<rect x="218.3" y="517.1" class="st0" width="224.9" height="21.2"/>
			</g>
			<g>
				<rect x="218.3" y="533.4" class="st0" width="132" height="21.2"/>
			</g>
			<text transform="matrix(1 0 0 1 220.7614 499.1221)" class="st1 st5">Ingresa las configuraciones</text>
			<g>
				<text transform="matrix(1 0 0 1 208.5352 499.1221)" class="st9 st5">5 </text>
			</g>
			<text transform="matrix(1 0 0 1 220.7614 515.4573)" class="st1 st5">y disparar evento para crear</text>
			<text transform="matrix(1 0 0 1 220.7614 531.7925)" class="st1 st5">la instancia de la clase registrable</text>
			<text transform="matrix(1 0 0 1 220.7614 548.1277)" class="st1 st5">onRunButtonClick()</text>
		</g>
		<g>
			<path class="st10" d="M23.6,554.7H623"/>
			<g transform="translate(625.6741844656874,554.6618280514999) translate(-625.6741844656874,-554.6618280514999)">
				<path d="M612.1,547.9l13.6,6.8l-13.6,6.8V547.9z"/>
			</g>
		</g>
		<g>
			<g>
				<rect x="669.5" y="579.2" class="st0" width="119.8" height="21.2"/>
			</g>
			<g>
				<rect x="681.7" y="595.5" class="st0" width="99.4" height="21.2"/>
			</g>
			<text transform="matrix(1 0 0 1 684.1835 593.8663)" class="st1 st5">Crear instancia </text>
			<g>
				<text transform="matrix(1 0 0 1 671.9573 593.8663)" class="st9 st5">6 </text>
			</g>
			<text transform="matrix(1 0 0 1 684.1835 610.2015)" class="st1 st5">de Registrable</text>
		</g>
		<g>
			<path class="st10" d="M642,616.7h73.5V638h-62.6"/>
			<g transform="translate(650.1769894156874,637.9713648814999) translate(-650.1769894156874,-637.9713648814999)">
				<path d="M663.8,631.2l-13.6,6.8l13.6,6.8V631.2z"/>
			</g>
		</g>
		<g>
			<g>
				<rect x="245.3" y="662.5" class="st0" width="138.5" height="21.2"/>
			</g>
			<g>
				<rect x="257.6" y="678.8" class="st0" width="286" height="21.2"/>
			</g>
			<text transform="matrix(1 0 0 1 260.0189 677.1758)" class="st8 st5">Ejecuta el callback</text>
			<g>
				<text transform="matrix(1 0 0 1 247.7927 677.1758)" class="st9 st5">7 </text>
			</g>
			<text transform="matrix(1 0 0 1 260.0189 693.511)" class="st1 st5">runSingleObjectiveExperiment(Registrable)</text>
		</g>
		<g>
			<path class="st10" d="M633.8,700h-476"/>
			<g transform="translate(155.07909973909375,700.0451374214999) translate(-155.07909973909375,-700.0451374214999)">
				<path d="M168.7,693.2l-13.6,6.8l13.6,6.8V693.2z"/>
			</g>
		</g>
		<g>
			<path class="st12" d="M619.1,724.5l29.4,29.4 M648.5,724.5L619.1,754"/>
		</g>
		<g>
			<g>
				<rect x="174.4" y="778.5" class="st0" width="184.2" height="21.2"/>
			</g>
			<g>
				<rect x="186.6" y="794.8" class="st0" width="123.9" height="21.2"/>
			</g>
			<text transform="matrix(1 0 0 1 189.0856 793.1558)" class="st8 st5">Construye el experimento</text>
			<g>
				<text transform="matrix(1 0 0 1 176.8594 793.1558)" class="st9 st5">8 </text>
			</g>
			<text transform="matrix(1 0 0 1 189.0856 809.491)" class="st1 st5">Registrable.build()</text>
		</g>
		<g>
			<path class="st10" d="M155.1,816h65.3v21.2h-62.6"/>
			<g transform="translate(155.07909973909375,837.2608451414999) translate(-155.07909973909375,-837.2608451414999)">
				<path d="M168.7,830.5l-13.6,6.8l13.6,6.8V830.5z"/>
			</g>
		</g>
		<g>
			<g>
				<rect x="562.5" y="861.8" class="st0" width="84.8" height="21.2"/>
			</g>
			<text transform="matrix(1 0 0 1 577.1877 876.4653)" class="st1 st5">&lt;&lt;crear&gt;&gt;</text>
			<g>
				<text transform="matrix(1 0 0 1 564.9615 876.4653)" class="st9 st5">9 </text>
			</g>
		</g>
		<g>
			<path class="st10" d="M155.1,883H1052"/>
			<g transform="translate(1054.7150339315701,882.9994143814998) translate(-1054.7150339315701,-882.9994143814998)">
				<path d="M1041.1,876.2l13.6,6.8l-13.6,6.8V876.2z"/>
			</g>
		</g>
		<g>
			<g>
				<rect x="1287" y="907.5" class="st0" width="84.4" height="21.2"/>
			</g>
			<text transform="matrix(1 0 0 1 1309.7867 922.2039)" class="st1 st5">&lt;&lt;crear&gt;</text>
			<g>
				<text transform="matrix(1 0 0 1 1289.4073 922.2039)" class="st9 st5">10 </text>
			</g>
		</g>
		<g>
			<path class="st10" d="M1071.1,928.7h513.5"/>
			<g transform="translate(1587.227547826164,928.7379836214998) translate(-1587.227547826164,-928.7379836214998)">
				<path d="M1573.6,921.9l13.6,6.8l-13.6,6.8V921.9z"/>
			</g>
		</g>
		<g>
			<g>
				<rect x="1458.3" y="953.2" class="st0" width="92.1" height="21.2"/>
			</g>
			<text transform="matrix(1 0 0 1 1480.2986 967.9424)" class="st1 st5">&lt;&lt;crear&gt;&gt;</text>
			<g>
				<text transform="matrix(1 0 0 1 1460.728 967.9424)" class="st9 st5">11 </text>
			</g>
		</g>
		<g>
			<path class="st10" d="M1071.1,974.5h863.8"/>
			<g transform="translate(1937.6213101948788,974.4765528614997) translate(-1937.6213101948788,-974.4765528614997)">
				<path d="M1924,967.7l13.6,6.8l-13.6,6.8V967.7z"/>
			</g>
		</g>
		<g>
			<g>
				<rect x="1459.1" y="999" class="st0" width="90.5" height="21.2"/>
			</g>
			<text transform="matrix(1 0 0 1 1481.9307 1013.681)" class="st1 st5">getNode()</text>
			<g>
				<text transform="matrix(1 0 0 1 1461.5513 1013.681)" class="st9 st5">12 </text>
			</g>
		</g>
		<g>
			<path class="st10" d="M1071.1,1020.2h863.8"/>
			<g transform="translate(1937.6213101948788,1020.2151221014997) translate(-1937.6213101948788,-1020.2151221014997)">
				<path d="M1924,1013.4l13.6,6.8l-13.6,6.8V1013.4z"/>
			</g>
		</g>
		<g>
			<g>
				<rect x="1389.8" y="1044.7" class="st0" width="229" height="21.2"/>
			</g>
			<text transform="matrix(1 0 0 1 1412.6608 1059.4196)" class="st1 st5">Regresa el componente grafico</text>
			<g>
				<text transform="matrix(1 0 0 1 1392.2814 1059.4196)" class="st9 st5">13 </text>
			</g>
		</g>
		<g>
			<path class="st11" d="M1937.6,1066h-863.8"/>
			<g transform="translate(1071.0502372315702,1065.9536913414997) translate(-1071.0502372315702,-1065.9536913414997)">
				<path d="M1084.7,1059.1l-13.6,6.8l13.6,6.8V1059.1z"/>
			</g>
		</g>
		<g>
			<g>
				<rect x="486.7" y="1090.5" class="st0" width="174.4" height="21.2"/>
			</g>
			<g>
				<rect x="507.1" y="1106.8" class="st0" width="133.7" height="21.2"/>
			</g>
			<g>
				<rect x="507.1" y="1123.1" class="st0" width="80.7" height="21.2"/>
			</g>
			<g>
				<rect x="507.1" y="1139.5" class="st0" width="215.9" height="21.2"/>
			</g>
			<text transform="matrix(1 0 0 1 509.575 1105.1582)" class="st8 st5">Muestra la ventana de </text>
			<g>
				<text transform="matrix(1 0 0 1 489.1956 1105.1582)" class="st9 st5">14 </text>
			</g>
			<text transform="matrix(1 0 0 1 509.575 1121.4934)" class="st8 st5">ejecución y ejecuta </text>
			<text transform="matrix(1 0 0 1 509.575 1137.8286)" class="st8 st5">el algoritmo</text>
			<text transform="matrix(1 0 0 1 509.575 1154.1638)" class="st1 st5">showWindowAndRunAlgorithm()</text>
		</g>
		<g>
			<path class="st10" d="M155.1,1160.7H1052"/>
			<g transform="translate(1054.7150339315701,1160.6978704814996) translate(-1054.7150339315701,-1160.6978704814996)">
				<path d="M1041.1,1153.9l13.6,6.8l-13.6,6.8V1153.9z"/>
			</g>
		</g>
		<path class="st7" d="M1513,1185.2h150l14.7,14.7v39.2H1513V1185.2 M1663.1,1185.2v14.7h14.7"/>
		<g>
			<text transform="matrix(1 0 0 1 1535.8998 1208.0699)" class="st1 st5">Se ejecuta en otro</text>
			<text transform="matrix(1 0 0 1 1535.8998 1224.4052)" class="st1 st5">hilo</text>
		</g>
		<g>
			<g>
				<rect x="422.2" y="1263.6" class="st0" width="233.9" height="21.2"/>
			</g>
			<text transform="matrix(1 0 0 1 445.0527 1278.3113)" class="st1 st5">Muestra la ventana de feedback</text>
			<g>
				<text transform="matrix(1 0 0 1 424.6733 1278.3113)" class="st9 st5">15 </text>
			</g>
		</g>
		<g>
			<path class="st11" d="M1054.7,1284.8H26.4"/>
			<g transform="translate(23.64361483359375,1284.8454155614997) translate(-23.64361483359375,-1284.8454155614997)">
				<path d="M37.3,1278l-13.6,6.8l13.6,6.8V1278z"/>
			</g>
		</g>
		<g>
			<g>
				<rect x="1210.6" y="1309.3" class="st0" width="237.2" height="21.2"/>
			</g>
			<g>
				<rect x="1230.9" y="1325.7" class="st0" width="35.9" height="21.2"/>
			</g>
			<text transform="matrix(1 0 0 1 1233.3838 1324.0499)" class="st8 st5">Iniciar la ejecución un nuevo hilo</text>
			<g>
				<text transform="matrix(1 0 0 1 1213.0044 1324.0499)" class="st9 st5">16 </text>
			</g>
			<text transform="matrix(1 0 0 1 1233.3838 1340.3851)" class="st1 st5">run()</text>
		</g>
		<g>
			<path class="st10" d="M1071.1,1346.9h513.5"/>
			<g transform="translate(1587.227547826164,1346.9191881014997) translate(-1587.227547826164,-1346.9191881014997)">
				<path d="M1573.6,1340.1l13.6,6.8l-13.6,6.8V1340.1z"/>
			</g>
		</g>
	</g>
</g>
</svg>
