<?xml version="1.0" encoding="utf-8"?>
<!-- Generator: Adobe Illustrator 24.0.1, SVG Export Plug-In . SVG Version: 6.00 Build 0)  -->
<svg version="1.1" id="Capa_1" xmlns="http://www.w3.org/2000/svg" xmlns:xlink="http://www.w3.org/1999/xlink" x="0px" y="0px"
	 viewBox="0 0 516 364" style="enable-background:new 0 0 516 364;" xml:space="preserve">
<style type="text/css">
	.st0{opacity:0.2;fill:#C0C0C0;enable-background:new    ;}
	.st1{fill:#FFFFFF;}
	.st2{fill:none;stroke:#000000;stroke-miterlimit:10;}
	.st3{font-family:'Arial-BoldMT';}
	.st4{font-size:13px;}
	.st5{fill:none;stroke:#000000;stroke-miterlimit:10;stroke-dasharray:3;}
</style>
<g transform="translate(-430,-390) scale(1,1)">
	<rect x="675.5" y="587.5" class="st0" width="105.6" height="15"/>
</g>
<g transform="translate(-430,-390) scale(1,1)">
	<rect x="675.5" y="601.5" class="st0" width="264" height="146"/>
</g>
<g transform="translate(-430,-390) scale(1,1)">
	<rect x="668.5" y="595.5" class="st1" width="264" height="145"/>
</g>
<g transform="translate(-430,-390) scale(1,1)">
	<path class="st2" d="M668.5,595.5h264v145h-264V595.5z"/>
</g>
<g transform="translate(-430,-390) scale(1,1)">
	<rect x="668.5" y="580.5" class="st1" width="105.6" height="15"/>
</g>
<g transform="translate(-430,-390) scale(1,1)">
	<path class="st2" d="M668.5,580.5h105.6v15H668.5V580.5z"/>
</g>
<g transform="translate(-430,-390) scale(1,1)">
	<rect x="668.5" y="594.5" class="st1" width="264" height="146"/>
</g>
<g transform="translate(-430,-390) scale(1,1)">
	<path class="st2" d="M668.5,594.5h264v146h-264V594.5z"/>
</g>
<text transform="matrix(1 0 0 1 352.7964 225)" class="st3 st4">Model</text>
<g transform="translate(-430,-390) scale(1,1)">
	<rect x="587.5" y="403.5" class="st0" width="51.2" height="15"/>
</g>
<g transform="translate(-430,-390) scale(1,1)">
	<rect x="587.5" y="417.5" class="st0" width="128" height="98"/>
</g>
<g transform="translate(-430,-390) scale(1,1)">
	<rect x="580.5" y="411.5" class="st1" width="128" height="97"/>
</g>
<g transform="translate(-430,-390) scale(1,1)">
	<path class="st2" d="M580.5,411.5h128v97h-128V411.5z"/>
</g>
<g transform="translate(-430,-390) scale(1,1)">
	<rect x="580.5" y="396.5" class="st1" width="51.2" height="15"/>
</g>
<g transform="translate(-430,-390) scale(1,1)">
	<path class="st2" d="M580.5,396.5h51.2v15h-51.2V396.5z"/>
</g>
<g transform="translate(-430,-390) scale(1,1)">
	<rect x="580.5" y="410.5" class="st1" width="128" height="98"/>
</g>
<g transform="translate(-430,-390) scale(1,1)">
	<path class="st2" d="M580.5,410.5h128v98h-128V410.5z"/>
</g>
<text transform="matrix(1 0 0 1 200.5288 41)" class="st3 st4">View</text>
<g transform="translate(-430,-390) scale(1,1)">
	<rect x="443.5" y="603.5" class="st0" width="73.6" height="15"/>
</g>
<g transform="translate(-430,-390) scale(1,1)">
	<rect x="443.5" y="617.5" class="st0" width="184" height="98"/>
</g>
<g transform="translate(-430,-390) scale(1,1)">
	<rect x="436.5" y="611.5" class="st1" width="184" height="97"/>
</g>
<g transform="translate(-430,-390) scale(1,1)">
	<path class="st2" d="M436.5,611.5h184v97h-184V611.5z"/>
</g>
<g transform="translate(-430,-390) scale(1,1)">
	<rect x="436.5" y="596.5" class="st1" width="73.6" height="15"/>
</g>
<g transform="translate(-430,-390) scale(1,1)">
	<path class="st2" d="M436.5,596.5h73.6v15h-73.6V596.5z"/>
</g>
<g transform="translate(-430,-390) scale(1,1)">
	<rect x="436.5" y="610.5" class="st1" width="184" height="98"/>
</g>
<g transform="translate(-430,-390) scale(1,1)">
	<path class="st2" d="M436.5,610.5h184v98h-184V610.5z"/>
</g>
<text transform="matrix(1 0 0 1 70.3228 241)" class="st3 st4">Controller</text>
<g transform="translate(-430,-390) scale(1,1)">
	<path class="st5" d="M626.5,484.5l-89,159"/>
</g>
<g transform="translate(-430,-390) scale(1,1)">
	<path class="st2" d="M538.8,632.6l-1.3,10.9l8.6-6.8"/>
</g>
<g transform="translate(-430,-390) scale(1,1)">
	<rect x="827.5" y="659.5" class="st0" width="40.3" height="15"/>
</g>
<g transform="translate(-430,-390) scale(1,1)">
	<rect x="827.5" y="673.5" class="st0" width="100.8" height="25"/>
</g>
<g transform="translate(-430,-390) scale(1,1)">
	<rect x="820.5" y="667.5" class="st1" width="100.8" height="24"/>
</g>
<g transform="translate(-430,-390) scale(1,1)">
	<path class="st2" d="M820.5,667.5h100.8v24H820.5V667.5z"/>
</g>
<g transform="translate(-430,-390) scale(1,1)">
	<rect x="820.5" y="652.5" class="st1" width="40.3" height="15"/>
</g>
<g transform="translate(-430,-390) scale(1,1)">
	<path class="st2" d="M820.5,652.5h40.3v15h-40.3V652.5z"/>
</g>
<g transform="translate(-430,-390) scale(1,1)">
	<rect x="820.5" y="666.5" class="st1" width="100.8" height="25"/>
</g>
<g transform="translate(-430,-390) scale(1,1)">
	<path class="st2" d="M820.5,666.5h100.8v25H820.5V666.5z"/>
</g>
<text transform="matrix(1 0 0 1 398.9768 297)" class="st3 st4">metaheuristics</text>
<g transform="translate(-430,-390) scale(1,1)">
	<rect x="499.5" y="651.5" class="st0" width="27.6" height="15"/>
</g>
<g transform="translate(-430,-390) scale(1,1)">
	<rect x="499.5" y="665.5" class="st0" width="69" height="25"/>
</g>
<g transform="translate(-430,-390) scale(1,1)">
	<rect x="492.5" y="659.5" class="st1" width="69" height="24"/>
</g>
<g transform="translate(-430,-390) scale(1,1)">
	<path class="st2" d="M492.5,659.5h69v24h-69V659.5z"/>
</g>
<g transform="translate(-430,-390) scale(1,1)">
	<rect x="492.5" y="644.5" class="st1" width="27.6" height="15"/>
</g>
<g transform="translate(-430,-390) scale(1,1)">
	<path class="st2" d="M492.5,644.5h27.6v15h-27.6V644.5z"/>
</g>
<g transform="translate(-430,-390) scale(1,1)">
	<rect x="492.5" y="658.5" class="st1" width="69" height="25"/>
</g>
<g transform="translate(-430,-390) scale(1,1)">
	<path class="st2" d="M492.5,658.5h69v25h-69V658.5z"/>
</g>
<text transform="matrix(1 0 0 1 70.2627 289)" class="st3 st4">controller</text>
<g transform="translate(-430,-390) scale(1,1)">
	<path class="st5" d="M562.5,663.5l105-2"/>
</g>
<g transform="translate(-430,-390) scale(1,1)">
	<path class="st2" d="M657.4,665.9l10.1-4.4l-10.2-4"/>
</g>
<g transform="translate(-430,-390) scale(1,1)">
	<rect x="611.5" y="451.5" class="st0" width="27.6" height="15"/>
</g>
<g transform="translate(-430,-390) scale(1,1)">
	<rect x="611.5" y="465.5" class="st0" width="69" height="25"/>
</g>
<g transform="translate(-430,-390) scale(1,1)">
	<rect x="604.5" y="459.5" class="st1" width="69" height="24"/>
</g>
<g transform="translate(-430,-390) scale(1,1)">
	<path class="st2" d="M604.5,459.5h69v24h-69V459.5z"/>
</g>
<g transform="translate(-430,-390) scale(1,1)">
	<rect x="604.5" y="444.5" class="st1" width="27.6" height="15"/>
</g>
<g transform="translate(-430,-390) scale(1,1)">
	<path class="st2" d="M604.5,444.5h27.6v15h-27.6V444.5z"/>
</g>
<g transform="translate(-430,-390) scale(1,1)">
	<rect x="604.5" y="458.5" class="st1" width="69" height="25"/>
</g>
<g transform="translate(-430,-390) scale(1,1)">
	<path class="st2" d="M604.5,458.5h69v25h-69V458.5z"/>
</g>
<text transform="matrix(1 0 0 1 203.9368 89)" class="st3 st4">ui</text>
<g transform="translate(-430,-390) scale(1,1)">
	<rect x="699.5" y="659.5" class="st0" width="27.6" height="15"/>
</g>
<g transform="translate(-430,-390) scale(1,1)">
	<rect x="699.5" y="673.5" class="st0" width="69" height="25"/>
</g>
<g transform="translate(-430,-390) scale(1,1)">
	<rect x="692.5" y="667.5" class="st1" width="69" height="24"/>
</g>
<g transform="translate(-430,-390) scale(1,1)">
	<path class="st2" d="M692.5,667.5h69v24h-69V667.5z"/>
</g>
<g transform="translate(-430,-390) scale(1,1)">
	<rect x="692.5" y="652.5" class="st1" width="27.6" height="15"/>
</g>
<g transform="translate(-430,-390) scale(1,1)">
	<path class="st2" d="M692.5,652.5h27.6v15h-27.6V652.5z"/>
</g>
<g transform="translate(-430,-390) scale(1,1)">
	<rect x="692.5" y="666.5" class="st1" width="69" height="25"/>
</g>
<g transform="translate(-430,-390) scale(1,1)">
	<path class="st2" d="M692.5,666.5h69v25h-69V666.5z"/>
</g>
<text transform="matrix(1 0 0 1 277.115 297)" class="st3 st4">epanet</text>
<g transform="translate(-430,-390) scale(1,1)">
	<path class="st5" d="M819.5,671.5h-57"/>
</g>
<g transform="translate(-430,-390) scale(1,1)">
	<path class="st2" d="M772.7,667.3l-10.2,4.2l10.2,4.2"/>
</g>
<g transform="translate(-430,-390) scale(1,1)">
	<path class="st5" d="M537.5,643.5l89-159"/>
</g>
<g transform="translate(-430,-390) scale(1,1)">
	<path class="st2" d="M625.2,495.4l1.3-10.9l-8.6,6.8"/>
</g>
<g transform="translate(-430,-390) scale(1,1)">
	<path class="st5" d="M655.5,484.5l78,95"/>
</g>
<g transform="translate(-430,-390) scale(1,1)">
	<path class="st2" d="M723.8,574.3l9.7,5.2l-3.2-10.5"/>
</g>
</svg>
