<svg version="1.1" xmlns="http://www.w3.org/2000/svg" xmlns:xlink="http://www.w3.org/1999/xlink" width="916" height="444"><defs/><g><g transform="translate(-254,-310) scale(1,1)"><rect fill="#C0C0C0" stroke="none" x="807" y="591" width="144" height="15" opacity="0.2"/></g><g transform="translate(-254,-310) scale(1,1)"><rect fill="#C0C0C0" stroke="none" x="807" y="605" width="360" height="146" opacity="0.2"/></g><g transform="translate(-254,-310) scale(1,1)"><rect fill="#ffffff" stroke="none" x="800" y="599" width="360" height="145"/></g><g transform="translate(-254,-310) scale(1,1)"><path fill="none" stroke="#000000" d="M 800 599 L 1160 599 L 1160 744 L 800 744 L 800 599 Z Z" stroke-miterlimit="10"/></g><g transform="translate(-254,-310) scale(1,1)"><rect fill="#ffffff" stroke="none" x="800" y="584" width="144" height="15"/></g><g transform="translate(-254,-310) scale(1,1)"><path fill="none" stroke="#000000" d="M 800 584 L 944 584 L 944 599 L 800 599 L 800 584 Z Z" stroke-miterlimit="10"/></g><g transform="translate(-254,-310) scale(1,1)"><rect fill="#ffffff" stroke="none" x="800" y="598" width="360" height="146"/></g><g transform="translate(-254,-310) scale(1,1)"><path fill="none" stroke="#000000" d="M 800 598 L 1160 598 L 1160 744 L 800 744 L 800 598 Z Z" stroke-miterlimit="10"/></g><g transform="translate(-254,-310) scale(1,1)"><g><path fill="none" stroke="none"/><text fill="#000000" stroke="none" font-family="Arial" font-size="13px" font-style="normal" font-weight="bold" text-decoration="none" x="962.29638671875" y="618.5">Model</text></g></g><g transform="translate(-254,-310) scale(1,1)"><rect fill="#C0C0C0" stroke="none" x="527" y="327" width="144" height="15" opacity="0.2"/></g><g transform="translate(-254,-310) scale(1,1)"><rect fill="#C0C0C0" stroke="none" x="527" y="341" width="360" height="98" opacity="0.2"/></g><g transform="translate(-254,-310) scale(1,1)"><rect fill="#ffffff" stroke="none" x="520" y="335" width="360" height="97"/></g><g transform="translate(-254,-310) scale(1,1)"><path fill="none" stroke="#000000" d="M 520 335 L 880 335 L 880 432 L 520 432 L 520 335 Z Z" stroke-miterlimit="10"/></g><g transform="translate(-254,-310) scale(1,1)"><rect fill="#ffffff" stroke="none" x="520" y="320" width="144" height="15"/></g><g transform="translate(-254,-310) scale(1,1)"><path fill="none" stroke="#000000" d="M 520 320 L 664 320 L 664 335 L 520 335 L 520 320 Z Z" stroke-miterlimit="10"/></g><g transform="translate(-254,-310) scale(1,1)"><rect fill="#ffffff" stroke="none" x="520" y="334" width="360" height="98"/></g><g transform="translate(-254,-310) scale(1,1)"><path fill="none" stroke="#000000" d="M 520 334 L 880 334 L 880 432 L 520 432 L 520 334 Z Z" stroke-miterlimit="10"/></g><g transform="translate(-254,-310) scale(1,1)"><g><path fill="none" stroke="none"/><text fill="#000000" stroke="none" font-family="Arial" font-size="13px" font-style="normal" font-weight="bold" text-decoration="none" x="686.02880859375" y="354.5">View</text></g></g><g transform="translate(-254,-310) scale(1,1)"><rect fill="#C0C0C0" stroke="none" x="271" y="607" width="144" height="15" opacity="0.2"/></g><g transform="translate(-254,-310) scale(1,1)"><rect fill="#C0C0C0" stroke="none" x="271" y="621" width="360" height="98" opacity="0.2"/></g><g transform="translate(-254,-310) scale(1,1)"><rect fill="#ffffff" stroke="none" x="264" y="615" width="360" height="97"/></g><g transform="translate(-254,-310) scale(1,1)"><path fill="none" stroke="#000000" d="M 264 615 L 624 615 L 624 712 L 264 712 L 264 615 Z Z" stroke-miterlimit="10"/></g><g transform="translate(-254,-310) scale(1,1)"><rect fill="#ffffff" stroke="none" x="264" y="600" width="144" height="15"/></g><g transform="translate(-254,-310) scale(1,1)"><path fill="none" stroke="#000000" d="M 264 600 L 408 600 L 408 615 L 264 615 L 264 600 Z Z" stroke-miterlimit="10"/></g><g transform="translate(-254,-310) scale(1,1)"><rect fill="#ffffff" stroke="none" x="264" y="614" width="360" height="98"/></g><g transform="translate(-254,-310) scale(1,1)"><path fill="none" stroke="#000000" d="M 264 614 L 624 614 L 624 712 L 264 712 L 264 614 Z Z" stroke-miterlimit="10"/></g><g transform="translate(-254,-310) scale(1,1)"><g><path fill="none" stroke="none"/><text fill="#000000" stroke="none" font-family="Arial" font-size="13px" font-style="normal" font-weight="bold" text-decoration="none" x="415.82275390625" y="634.5">Controller</text></g></g><g transform="translate(-254,-310) scale(1,1)"><path fill="none" stroke="#000000" d="M 671 408 L 452 647" stroke-miterlimit="10" stroke-dasharray="3"/></g><g transform="translate(-254,-310) scale(1,1)"><path fill="none" stroke="#000000" d="M 455.7621475073745 636.6633542126687 L 452 647 L 461.969352345234 642.3511276833432" stroke-miterlimit="10"/></g><g transform="translate(-254,-310) scale(1,1)"><rect fill="#C0C0C0" stroke="none" x="1015" y="663" width="40.3046875" height="15" opacity="0.2"/></g><g transform="translate(-254,-310) scale(1,1)"><rect fill="#C0C0C0" stroke="none" x="1015" y="677" width="100.76171875" height="25" opacity="0.2"/></g><g transform="translate(-254,-310) scale(1,1)"><rect fill="#ffffff" stroke="none" x="1008" y="671" width="100.76171875" height="24"/></g><g transform="translate(-254,-310) scale(1,1)"><path fill="none" stroke="#000000" d="M 1008 671 L 1108.76171875 671 L 1108.76171875 695 L 1008 695 L 1008 671 Z Z" stroke-miterlimit="10"/></g><g transform="translate(-254,-310) scale(1,1)"><rect fill="#ffffff" stroke="none" x="1008" y="656" width="40.3046875" height="15"/></g><g transform="translate(-254,-310) scale(1,1)"><path fill="none" stroke="#000000" d="M 1008 656 L 1048.3046875 656 L 1048.3046875 671 L 1008 671 L 1008 656 Z Z" stroke-miterlimit="10"/></g><g transform="translate(-254,-310) scale(1,1)"><rect fill="#ffffff" stroke="none" x="1008" y="670" width="100.76171875" height="25"/></g><g transform="translate(-254,-310) scale(1,1)"><path fill="none" stroke="#000000" d="M 1008 670 L 1108.76171875 670 L 1108.76171875 695 L 1008 695 L 1008 670 Z Z" stroke-miterlimit="10"/></g><g transform="translate(-254,-310) scale(1,1)"><g><path fill="none" stroke="none"/><text fill="#000000" stroke="none" font-family="Arial" font-size="13px" font-style="normal" font-weight="bold" text-decoration="none" x="1016.476806640625" y="690.5">metaheuristics</text></g></g><g transform="translate(-254,-310) scale(1,1)"><rect fill="#C0C0C0" stroke="none" x="407" y="655" width="27.5966796875" height="15" opacity="0.2"/></g><g transform="translate(-254,-310) scale(1,1)"><rect fill="#C0C0C0" stroke="none" x="407" y="669" width="68.99169921875" height="25" opacity="0.2"/></g><g transform="translate(-254,-310) scale(1,1)"><rect fill="#ffffff" stroke="none" x="400" y="663" width="68.99169921875" height="24"/></g><g transform="translate(-254,-310) scale(1,1)"><path fill="none" stroke="#000000" d="M 400 663 L 468.99169921875 663 L 468.99169921875 687 L 400 687 L 400 663 Z Z" stroke-miterlimit="10"/></g><g transform="translate(-254,-310) scale(1,1)"><rect fill="#ffffff" stroke="none" x="400" y="648" width="27.5966796875" height="15"/></g><g transform="translate(-254,-310) scale(1,1)"><path fill="none" stroke="#000000" d="M 400 648 L 427.5966796875 648 L 427.5966796875 663 L 400 663 L 400 648 Z Z" stroke-miterlimit="10"/></g><g transform="translate(-254,-310) scale(1,1)"><rect fill="#ffffff" stroke="none" x="400" y="662" width="68.99169921875" height="25"/></g><g transform="translate(-254,-310) scale(1,1)"><path fill="none" stroke="#000000" d="M 400 662 L 468.99169921875 662 L 468.99169921875 687 L 400 687 L 400 662 Z Z" stroke-miterlimit="10"/></g><g transform="translate(-254,-310) scale(1,1)"><g><path fill="none" stroke="none"/><text fill="#000000" stroke="none" font-family="Arial" font-size="13px" font-style="normal" font-weight="bold" text-decoration="none" x="407.7626953125" y="682.5">controller</text></g></g><g transform="translate(-254,-310) scale(1,1)"><path fill="none" stroke="#000000" d="M 470 667 L 799 665" stroke-miterlimit="10" stroke-dasharray="3"/></g><g transform="translate(-254,-310) scale(1,1)"><path fill="none" stroke="#000000" d="M 788.8631022166059 669.2712180146907 L 799 665 L 788.8119236150532 660.852338059281" stroke-miterlimit="10"/></g><g transform="translate(-254,-310) scale(1,1)"><rect fill="#C0C0C0" stroke="none" x="663" y="375" width="27.5966796875" height="15" opacity="0.2"/></g><g transform="translate(-254,-310) scale(1,1)"><rect fill="#C0C0C0" stroke="none" x="663" y="389" width="68.99169921875" height="25" opacity="0.2"/></g><g transform="translate(-254,-310) scale(1,1)"><rect fill="#ffffff" stroke="none" x="656" y="383" width="68.99169921875" height="24"/></g><g transform="translate(-254,-310) scale(1,1)"><path fill="none" stroke="#000000" d="M 656 383 L 724.99169921875 383 L 724.99169921875 407 L 656 407 L 656 383 Z Z" stroke-miterlimit="10"/></g><g transform="translate(-254,-310) scale(1,1)"><rect fill="#ffffff" stroke="none" x="656" y="368" width="27.5966796875" height="15"/></g><g transform="translate(-254,-310) scale(1,1)"><path fill="none" stroke="#000000" d="M 656 368 L 683.5966796875 368 L 683.5966796875 383 L 656 383 L 656 368 Z Z" stroke-miterlimit="10"/></g><g transform="translate(-254,-310) scale(1,1)"><rect fill="#ffffff" stroke="none" x="656" y="382" width="68.99169921875" height="25"/></g><g transform="translate(-254,-310) scale(1,1)"><path fill="none" stroke="#000000" d="M 656 382 L 724.99169921875 382 L 724.99169921875 407 L 656 407 L 656 382 Z Z" stroke-miterlimit="10"/></g><g transform="translate(-254,-310) scale(1,1)"><g><path fill="none" stroke="none"/><text fill="#000000" stroke="none" font-family="Arial" font-size="13px" font-style="normal" font-weight="bold" text-decoration="none" x="685.436767578125" y="402.5">ui</text></g></g><g transform="translate(-254,-310) scale(1,1)"><rect fill="#C0C0C0" stroke="none" x="863" y="663" width="27.5966796875" height="15" opacity="0.2"/></g><g transform="translate(-254,-310) scale(1,1)"><rect fill="#C0C0C0" stroke="none" x="863" y="677" width="68.99169921875" height="25" opacity="0.2"/></g><g transform="translate(-254,-310) scale(1,1)"><rect fill="#ffffff" stroke="none" x="856" y="671" width="68.99169921875" height="24"/></g><g transform="translate(-254,-310) scale(1,1)"><path fill="none" stroke="#000000" d="M 856 671 L 924.99169921875 671 L 924.99169921875 695 L 856 695 L 856 671 Z Z" stroke-miterlimit="10"/></g><g transform="translate(-254,-310) scale(1,1)"><rect fill="#ffffff" stroke="none" x="856" y="656" width="27.5966796875" height="15"/></g><g transform="translate(-254,-310) scale(1,1)"><path fill="none" stroke="#000000" d="M 856 656 L 883.5966796875 656 L 883.5966796875 671 L 856 671 L 856 656 Z Z" stroke-miterlimit="10"/></g><g transform="translate(-254,-310) scale(1,1)"><rect fill="#ffffff" stroke="none" x="856" y="670" width="68.99169921875" height="25"/></g><g transform="translate(-254,-310) scale(1,1)"><path fill="none" stroke="#000000" d="M 856 670 L 924.99169921875 670 L 924.99169921875 695 L 856 695 L 856 670 Z Z" stroke-miterlimit="10"/></g><g transform="translate(-254,-310) scale(1,1)"><g><path fill="none" stroke="none"/><text fill="#000000" stroke="none" font-family="Arial" font-size="13px" font-style="normal" font-weight="bold" text-decoration="none" x="870.614990234375" y="690.5">epanet</text></g></g><g transform="translate(-254,-310) scale(1,1)"><path fill="none" stroke="#000000" d="M 1007 675 L 926 675" stroke-miterlimit="10" stroke-dasharray="3"/></g><g transform="translate(-254,-310) scale(1,1)"><path fill="none" stroke="#000000" d="M 936.1626748576241 670.790482243984 L 926 675 L 936.1626748576241 679.209517756016" stroke-miterlimit="10"/></g><g transform="translate(-254,-310) scale(1,1)"><path fill="none" stroke="#000000" d="M 452 647 L 671 408" stroke-miterlimit="10" stroke-dasharray="3"/></g><g transform="translate(-254,-310) scale(1,1)"><path fill="none" stroke="#000000" d="M 667.2378524926255 418.3366457873314 L 671 408 L 661.0306476547661 412.6488723166568" stroke-miterlimit="10"/></g><g transform="translate(-254,-310) scale(1,1)"><path fill="none" stroke="#000000" d="M 712 408 L 895 583" stroke-miterlimit="10" stroke-dasharray="3"/></g><g transform="translate(-254,-310) scale(1,1)"><path fill="none" stroke="#000000" d="M 884.7458176521905 579.0185750819749 L 895 583 L 890.5644906846611 572.9339055680198" stroke-miterlimit="10"/></g></g></svg>