<svg version="1.1" xmlns="http://www.w3.org/2000/svg" xmlns:xlink="http://www.w3.org/1999/xlink" width="1030" height="438"><defs/><g><g transform="translate(-86,-142) scale(1,1)"><path fill="#ffffff" stroke="none" d="M 116.02116672585228 353.68 C 116.02116672585228 348.886167936 119.90700905079774 345 124.700439453125 345 C 129.49386985545226 345 133.37971218039772 348.886167936 133.37971218039772 353.68 C 133.37971218039772 358.473832064 129.49386985545226 362.36 124.700439453125 362.36 C 119.90700905079774 362.36 116.02116672585228 358.473832064 116.02116672585228 353.68 Z"/></g><g transform="translate(-86,-142) scale(1,1)"><path fill="none" stroke="#000000" d="M 116.02116672585228 353.68 C 116.02116672585228 348.886167936 119.90700905079774 345 124.700439453125 345 C 129.49386985545226 345 133.37971218039772 348.886167936 133.37971218039772 353.68 C 133.37971218039772 358.473832064 129.49386985545226 362.36 124.700439453125 362.36 C 119.90700905079774 362.36 116.02116672585228 358.473832064 116.02116672585228 353.68 Z" stroke-miterlimit="10"/></g><g transform="translate(-86,-142) scale(1,1)"><path fill="none" stroke="#000000" d="M 124.700439453125 362.36 L 124.700439453125 379.64" stroke-miterlimit="10"/></g><g transform="translate(-86,-142) scale(1,1)"><path fill="none" stroke="#000000" d="M 115.51062127130683 368.84 L 133.89025763494317 368.84" stroke-miterlimit="10"/></g><g transform="translate(-86,-142) scale(1,1)"><path fill="none" stroke="#000000" d="M 124.700439453125 379.64 L 111.93680308948865 397" stroke-miterlimit="10"/></g><g transform="translate(-86,-142) scale(1,1)"><path fill="none" stroke="#000000" d="M 124.700439453125 379.64 L 137.46407581676135 397" stroke-miterlimit="10"/></g><g transform="translate(-86,-142) scale(1,1)"><g><path fill="none" stroke="none"/><text fill="#000000" stroke="none" font-family="Arial" font-size="13px" font-style="normal" font-weight="bold" text-decoration="none" x="102.302734375" y="417.5">Usuario</text></g></g><g transform="translate(-86,-142) scale(1,1)"><path fill="#C0C0C0" stroke="none" d="M 335 176 C 335 166.6111584 358.7289056 159 388 159 C 417.2710944 159 441 166.6111584 441 176 C 441 185.3888416 417.2710944 193 388 193 C 358.7289056 193 335 185.3888416 335 176 Z" opacity="0.2"/></g><g transform="translate(-86,-142) scale(1,1)"><path fill="#ffffff" stroke="none" d="M 328 169 C 328 159.6111584 351.7289056 152 381 152 C 410.2710944 152 434 159.6111584 434 169 C 434 178.3888416 410.2710944 186 381 186 C 351.7289056 186 328 178.3888416 328 169 Z"/></g><g transform="translate(-86,-142) scale(1,1)"><path fill="none" stroke="#000000" d="M 328 169 C 328 159.6111584 351.7289056 152 381 152 C 410.2710944 152 434 159.6111584 434 169 C 434 178.3888416 410.2710944 186 381 186 C 351.7289056 186 328 178.3888416 328 169 Z" stroke-miterlimit="10"/></g><g transform="translate(-86,-142) scale(1,1)"><g><path fill="none" stroke="none"/><text fill="#000000" stroke="none" font-family="Arial" font-size="13px" font-style="normal" font-weight="bold" text-decoration="none" x="349.931396484375" y="176">Cargar red</text></g></g><g transform="translate(-86,-142) scale(1,1)"><path fill="none" stroke="#000000" d="M 154 358 L 359 187" stroke-miterlimit="10"/></g><g transform="translate(-86,-142) scale(1,1)"><path fill="#C0C0C0" stroke="none" d="M 375 328 C 375 318.6111584 441.4857072 311 523.5 311 C 605.5142928 311 672 318.6111584 672 328 C 672 337.3888416 605.5142928 345 523.5 345 C 441.4857072 345 375 337.3888416 375 328 Z" opacity="0.2"/></g><g transform="translate(-86,-142) scale(1,1)"><path fill="#ffffff" stroke="none" d="M 368 321 C 368 311.6111584 434.4857072 304 516.5 304 C 598.5142928 304 665 311.6111584 665 321 C 665 330.3888416 598.5142928 338 516.5 338 C 434.4857072 338 368 330.3888416 368 321 Z"/></g><g transform="translate(-86,-142) scale(1,1)"><path fill="none" stroke="#000000" d="M 368 321 C 368 311.6111584 434.4857072 304 516.5 304 C 598.5142928 304 665 311.6111584 665 321 C 665 330.3888416 598.5142928 338 516.5 338 C 434.4857072 338 368 330.3888416 368 321 Z" stroke-miterlimit="10"/></g><g transform="translate(-86,-142) scale(1,1)"><g><path fill="none" stroke="none"/><text fill="#000000" stroke="none" font-family="Arial" font-size="13px" font-style="normal" font-weight="bold" text-decoration="none" x="423.65283203125" y="328">Realizar la simulacion hidráulica</text></g></g><g transform="translate(-86,-142) scale(1,1)"><path fill="#C0C0C0" stroke="none" d="M 391 496 C 391 486.6111584 434.8760896 479 489 479 C 543.1239104 479 587 486.6111584 587 496 C 587 505.3888416 543.1239104 513 489 513 C 434.8760896 513 391 505.3888416 391 496 Z" opacity="0.2"/></g><g transform="translate(-86,-142) scale(1,1)"><path fill="#ffffff" stroke="none" d="M 384 489 C 384 479.6111584 427.8760896 472 482 472 C 536.1239104 472 580 479.6111584 580 489 C 580 498.3888416 536.1239104 506 482 506 C 427.8760896 506 384 498.3888416 384 489 Z"/></g><g transform="translate(-86,-142) scale(1,1)"><path fill="none" stroke="#000000" d="M 384 489 C 384 479.6111584 427.8760896 472 482 472 C 536.1239104 472 580 479.6111584 580 489 C 580 498.3888416 536.1239104 506 482 506 C 427.8760896 506 384 498.3888416 384 489 Z" stroke-miterlimit="10"/></g><g transform="translate(-86,-142) scale(1,1)"><g><path fill="none" stroke="none"/><text fill="#000000" stroke="none" font-family="Arial" font-size="13px" font-style="normal" font-weight="bold" text-decoration="none" x="422.144775390625" y="496">Visualizar resultados</text></g></g><g transform="translate(-86,-142) scale(1,1)"><path fill="#C0C0C0" stroke="none" d="M 711 424 C 711 414.6111584 783.75372 407 873.5 407 C 963.24628 407 1036 414.6111584 1036 424 C 1036 433.3888416 963.24628 441 873.5 441 C 783.75372 441 711 433.3888416 711 424 Z" opacity="0.2"/></g><g transform="translate(-86,-142) scale(1,1)"><path fill="#ffffff" stroke="none" d="M 704 417 C 704 407.6111584 776.75372 400 866.5 400 C 956.24628 400 1029 407.6111584 1029 417 C 1029 426.3888416 956.24628 434 866.5 434 C 776.75372 434 704 426.3888416 704 417 Z"/></g><g transform="translate(-86,-142) scale(1,1)"><path fill="none" stroke="#000000" d="M 704 417 C 704 407.6111584 776.75372 400 866.5 400 C 956.24628 400 1029 407.6111584 1029 417 C 1029 426.3888416 956.24628 434 866.5 434 C 776.75372 434 704 426.3888416 704 417 Z" stroke-miterlimit="10"/></g><g transform="translate(-86,-142) scale(1,1)"><g><path fill="none" stroke="none"/><text fill="#000000" stroke="none" font-family="Arial" font-size="13px" font-style="normal" font-weight="bold" text-decoration="none" x="763.89013671875" y="424">Opciones de resultados a visualizar</text></g></g><g transform="translate(-86,-142) scale(1,1)"><path fill="#C0C0C0" stroke="none" d="M 743 560 C 743 550.6111584 765.6096176 543 793.5 543 C 821.3903824 543 844 550.6111584 844 560 C 844 569.3888416 821.3903824 577 793.5 577 C 765.6096176 577 743 569.3888416 743 560 Z" opacity="0.2"/></g><g transform="translate(-86,-142) scale(1,1)"><path fill="#ffffff" stroke="none" d="M 736 553 C 736 543.6111584 758.6096176 536 786.5 536 C 814.3903824 536 837 543.6111584 837 553 C 837 562.3888416 814.3903824 570 786.5 570 C 758.6096176 570 736 562.3888416 736 553 Z"/></g><g transform="translate(-86,-142) scale(1,1)"><path fill="none" stroke="#000000" d="M 736 553 C 736 543.6111584 758.6096176 536 786.5 536 C 814.3903824 536 837 543.6111584 837 553 C 837 562.3888416 814.3903824 570 786.5 570 C 758.6096176 570 736 562.3888416 736 553 Z" stroke-miterlimit="10"/></g><g transform="translate(-86,-142) scale(1,1)"><g><path fill="none" stroke="none"/><text fill="#000000" stroke="none" font-family="Arial" font-size="13px" font-style="normal" font-weight="bold" text-decoration="none" x="758.440185546875" y="560">Visualizar</text></g></g><g transform="translate(-86,-142) scale(1,1)"><path fill="none" stroke="#000000" d="M 578 471 L 770 435" stroke-miterlimit="10" stroke-dasharray="3"/></g><g transform="translate(-86,-142) scale(1,1)"><path fill="none" stroke="#000000" d="M 760.7871553981084 441.0102823844972 L 770 435 L 759.2356236770605 432.7354465389086" stroke-miterlimit="10"/></g><g transform="translate(-86,-142) scale(1,1)"><g><path fill="none" stroke="none"/><text fill="#000000" stroke="none" font-family="Arial" font-size="13px" font-style="normal" font-weight="normal" text-decoration="none" x="640.5" y="429.5">«include»</text></g></g><g transform="translate(-86,-142) scale(1,1)"><path fill="none" stroke="#000000" d="M 568 507 L 735 542" stroke-miterlimit="10" stroke-dasharray="3"/></g><g transform="translate(-86,-142) scale(1,1)"><path fill="none" stroke="#000000" d="M 724.1899505907184 544.0353947452251 L 735 542 L 725.9168993309952 535.7953821844754" stroke-miterlimit="10"/></g><g transform="translate(-86,-142) scale(1,1)"><g><path fill="none" stroke="none"/><text fill="#000000" stroke="none" font-family="Arial" font-size="13px" font-style="normal" font-weight="normal" text-decoration="none" x="629.5" y="500.5">«include»</text></g></g><g transform="translate(-86,-142) scale(1,1)"><path fill="#C0C0C0" stroke="none" d="M 703 176 C 703 166.6111584 751.129384 159 810.5 159 C 869.870616 159 918 166.6111584 918 176 C 918 185.3888416 869.870616 193 810.5 193 C 751.129384 193 703 185.3888416 703 176 Z" opacity="0.2"/></g><g transform="translate(-86,-142) scale(1,1)"><path fill="#ffffff" stroke="none" d="M 696 169 C 696 159.6111584 744.129384 152 803.5 152 C 862.870616 152 911 159.6111584 911 169 C 911 178.3888416 862.870616 186 803.5 186 C 744.129384 186 696 178.3888416 696 169 Z"/></g><g transform="translate(-86,-142) scale(1,1)"><path fill="none" stroke="#000000" d="M 696 169 C 696 159.6111584 744.129384 152 803.5 152 C 862.870616 152 911 159.6111584 911 169 C 911 178.3888416 862.870616 186 803.5 186 C 744.129384 186 696 178.3888416 696 169 Z" stroke-miterlimit="10"/></g><g transform="translate(-86,-142) scale(1,1)"><g><path fill="none" stroke="none"/><text fill="#000000" stroke="none" font-family="Arial" font-size="13px" font-style="normal" font-weight="bold" text-decoration="none" x="736.649658203125" y="176">Simular usando epanet</text></g></g><g transform="translate(-86,-142) scale(1,1)"><path fill="#C0C0C0" stroke="none" d="M 847 248 C 847 238.6111584 906.5461216 231 980 231 C 1053.4538784000001 231 1113 238.6111584 1113 248 C 1113 257.3888416 1053.4538784000001 265 980 265 C 906.5461216 265 847 257.3888416 847 248 Z" opacity="0.2"/></g><g transform="translate(-86,-142) scale(1,1)"><path fill="#ffffff" stroke="none" d="M 840 241 C 840 231.6111584 899.5461216 224 973 224 C 1046.4538784000001 224 1106 231.6111584 1106 241 C 1106 250.3888416 1046.4538784000001 258 973 258 C 899.5461216 258 840 250.3888416 840 241 Z"/></g><g transform="translate(-86,-142) scale(1,1)"><path fill="none" stroke="#000000" d="M 840 241 C 840 231.6111584 899.5461216 224 973 224 C 1046.4538784000001 224 1106 231.6111584 1106 241 C 1106 250.3888416 1046.4538784000001 258 973 258 C 899.5461216 258 840 250.3888416 840 241 Z" stroke-miterlimit="10"/></g><g transform="translate(-86,-142) scale(1,1)"><g><path fill="none" stroke="none"/><text fill="#000000" stroke="none" font-family="Arial" font-size="13px" font-style="normal" font-weight="bold" text-decoration="none" x="889.169677734375" y="248">Recuperar resultados epanet</text></g></g><g transform="translate(-86,-142) scale(1,1)"><path fill="none" stroke="#000000" d="M 550 303 L 769 187" stroke-miterlimit="10" stroke-dasharray="3"/></g><g transform="translate(-86,-142) scale(1,1)"><path fill="none" stroke="#000000" d="M 761.9897104973298 195.47678247265745 L 769 187 L 758.0489863855217 188.03696712364038" stroke-miterlimit="10"/></g><g transform="translate(-86,-142) scale(1,1)"><g><path fill="none" stroke="none"/><text fill="#000000" stroke="none" font-family="Arial" font-size="13px" font-style="normal" font-weight="normal" text-decoration="none" x="617.5" y="224.5">«include»</text></g></g><g transform="translate(-86,-142) scale(1,1)"><path fill="none" stroke="#000000" d="M 619 303 L 870 259" stroke-miterlimit="10" stroke-dasharray="3"/></g><g transform="translate(-86,-142) scale(1,1)"><path fill="none" stroke="#000000" d="M 860.7168040915285 264.90104005451064 L 870 259 L 859.2631237834387 256.60845466063455" stroke-miterlimit="10"/></g><g transform="translate(-86,-142) scale(1,1)"><g><path fill="none" stroke="none"/><text fill="#000000" stroke="none" font-family="Arial" font-size="13px" font-style="normal" font-weight="normal" text-decoration="none" x="710.5" y="257.5">«include»</text></g></g><g transform="translate(-86,-142) scale(1,1)"><path fill="none" stroke="#000000" d="M 154 378 L 402 339" stroke-miterlimit="10"/></g><g transform="translate(-86,-142) scale(1,1)"><path fill="none" stroke="#000000" d="M 154 392 L 421 471" stroke-miterlimit="10"/></g></g></svg>