<svg version="1.1" xmlns="http://www.w3.org/2000/svg" xmlns:xlink="http://www.w3.org/1999/xlink" width="1033" height="454"><defs/><g><g transform="translate(-22,-174) scale(1,1)"><path fill="#ffffff" stroke="none" d="M 52.02116672585227 313.68 C 52.02116672585227 308.886167936 55.907009050797726 305 60.700439453125 305 C 65.49386985545227 305 69.37971218039773 308.886167936 69.37971218039773 313.68 C 69.37971218039773 318.473832064 65.49386985545227 322.36 60.700439453125 322.36 C 55.907009050797726 322.36 52.02116672585227 318.473832064 52.02116672585227 313.68 Z"/></g><g transform="translate(-22,-174) scale(1,1)"><path fill="none" stroke="#000000" d="M 52.02116672585227 313.68 C 52.02116672585227 308.886167936 55.907009050797726 305 60.700439453125 305 C 65.49386985545227 305 69.37971218039773 308.886167936 69.37971218039773 313.68 C 69.37971218039773 318.473832064 65.49386985545227 322.36 60.700439453125 322.36 C 55.907009050797726 322.36 52.02116672585227 318.473832064 52.02116672585227 313.68 Z" stroke-miterlimit="10"/></g><g transform="translate(-22,-174) scale(1,1)"><path fill="none" stroke="#000000" d="M 60.700439453125 322.36 L 60.700439453125 339.64" stroke-miterlimit="10"/></g><g transform="translate(-22,-174) scale(1,1)"><path fill="none" stroke="#000000" d="M 51.51062127130682 328.84 L 69.89025763494318 328.84" stroke-miterlimit="10"/></g><g transform="translate(-22,-174) scale(1,1)"><path fill="none" stroke="#000000" d="M 60.700439453125 339.64 L 47.936803089488635 357" stroke-miterlimit="10"/></g><g transform="translate(-22,-174) scale(1,1)"><path fill="none" stroke="#000000" d="M 60.700439453125 339.64 L 73.46407581676137 357" stroke-miterlimit="10"/></g><g transform="translate(-22,-174) scale(1,1)"><g><path fill="none" stroke="none"/><text fill="#000000" stroke="none" font-family="Arial" font-size="13px" font-style="normal" font-weight="bold" text-decoration="none" x="38.302734375" y="377.5">Usuario</text></g></g><g transform="translate(-22,-174) scale(1,1)"><path fill="#C0C0C0" stroke="none" d="M 199 411 C 199 395.5360256 265.2618496 383 347 383 C 428.7381504 383 495 395.5360256 495 411 C 495 426.4639744 428.7381504 439 347 439 C 265.2618496 439 199 426.4639744 199 411 Z" opacity="0.2"/></g><g transform="translate(-22,-174) scale(1,1)"><path fill="#ffffff" stroke="none" d="M 192 404 C 192 388.5360256 258.2618496 376 340 376 C 421.7381504 376 488 388.5360256 488 404 C 488 419.4639744 421.7381504 432 340 432 C 258.2618496 432 192 419.4639744 192 404 Z"/></g><g transform="translate(-22,-174) scale(1,1)"><path fill="none" stroke="#000000" d="M 192 404 C 192 388.5360256 258.2618496 376 340 376 C 421.7381504 376 488 388.5360256 488 404 C 488 419.4639744 421.7381504 432 340 432 C 258.2618496 432 192 419.4639744 192 404 Z" stroke-miterlimit="10"/></g><g transform="translate(-22,-174) scale(1,1)"><g><path fill="none" stroke="none"/><text fill="#000000" stroke="none" font-family="Arial" font-size="13px" font-style="normal" font-weight="bold" text-decoration="none" x="246.787841796875" y="411">Seleccionar problema a resolver</text></g></g><g transform="translate(-22,-174) scale(1,1)"><path fill="#C0C0C0" stroke="none" d="M 583 320 C 583 310.6111584 634.0395328 303 697 303 C 759.9604672 303 811 310.6111584 811 320 C 811 329.3888416 759.9604672 337 697 337 C 634.0395328 337 583 329.3888416 583 320 Z" opacity="0.2"/></g><g transform="translate(-22,-174) scale(1,1)"><path fill="#ffffff" stroke="none" d="M 576 313 C 576 303.6111584 627.0395328 296 690 296 C 752.9604672 296 804 303.6111584 804 313 C 804 322.3888416 752.9604672 330 690 330 C 627.0395328 330 576 322.3888416 576 313 Z"/></g><g transform="translate(-22,-174) scale(1,1)"><path fill="none" stroke="#000000" d="M 576 313 C 576 303.6111584 627.0395328 296 690 296 C 752.9604672 296 804 303.6111584 804 313 C 804 322.3888416 752.9604672 330 690 330 C 627.0395328 330 576 322.3888416 576 313 Z" stroke-miterlimit="10"/></g><g transform="translate(-22,-174) scale(1,1)"><g><path fill="none" stroke="none"/><text fill="#000000" stroke="none" font-family="Arial" font-size="13px" font-style="normal" font-weight="bold" text-decoration="none" x="618.820556640625" y="320">Elegir operador de cruza</text></g></g><g transform="translate(-22,-174) scale(1,1)"><path fill="#C0C0C0" stroke="none" d="M 503 256 C 503 246.6111584 561.6506912 239 634 239 C 706.3493088 239 765 246.6111584 765 256 C 765 265.3888416 706.3493088 273 634 273 C 561.6506912 273 503 265.3888416 503 256 Z" opacity="0.2"/></g><g transform="translate(-22,-174) scale(1,1)"><path fill="#ffffff" stroke="none" d="M 496 249 C 496 239.6111584 554.6506912 232 627 232 C 699.3493088 232 758 239.6111584 758 249 C 758 258.3888416 699.3493088 266 627 266 C 554.6506912 266 496 258.3888416 496 249 Z"/></g><g transform="translate(-22,-174) scale(1,1)"><path fill="none" stroke="#000000" d="M 496 249 C 496 239.6111584 554.6506912 232 627 232 C 699.3493088 232 758 239.6111584 758 249 C 758 258.3888416 699.3493088 266 627 266 C 554.6506912 266 496 258.3888416 496 249 Z" stroke-miterlimit="10"/></g><g transform="translate(-22,-174) scale(1,1)"><g><path fill="none" stroke="none"/><text fill="#000000" stroke="none" font-family="Arial" font-size="13px" font-style="normal" font-weight="bold" text-decoration="none" x="545.340576171875" y="256">Elegir operador de mutación</text></g></g><g transform="translate(-22,-174) scale(1,1)"><path fill="#C0C0C0" stroke="none" d="M 231 228 C 231 207.5654624 277.5623808 191 335 191 C 392.4376192 191 439 207.5654624 439 228 C 439 248.4345376 392.4376192 265 335 265 C 277.5623808 265 231 248.4345376 231 228 Z" opacity="0.2"/></g><g transform="translate(-22,-174) scale(1,1)"><path fill="#ffffff" stroke="none" d="M 224 221 C 224 200.5654624 270.5623808 184 328 184 C 385.4376192 184 432 200.5654624 432 221 C 432 241.4345376 385.4376192 258 328 258 C 270.5623808 258 224 241.4345376 224 221 Z"/></g><g transform="translate(-22,-174) scale(1,1)"><path fill="none" stroke="#000000" d="M 224 221 C 224 200.5654624 270.5623808 184 328 184 C 385.4376192 184 432 200.5654624 432 221 C 432 241.4345376 385.4376192 258 328 258 C 270.5623808 258 224 241.4345376 224 221 Z" stroke-miterlimit="10"/></g><g transform="translate(-22,-174) scale(1,1)"><g><path fill="none" stroke="none"/><text fill="#000000" stroke="none" font-family="Arial" font-size="13px" font-style="normal" font-weight="bold" text-decoration="none" x="296.931396484375" y="228">Cargar red</text></g></g><g transform="translate(-22,-174) scale(1,1)"><path fill="none" stroke="#000000" d="M 90 329 L 245 259" stroke-miterlimit="10"/></g><g transform="translate(-22,-174) scale(1,1)"><path fill="none" stroke="#000000" d="M 90 350 L 207 375" stroke-miterlimit="10"/></g><g transform="translate(-22,-174) scale(1,1)"><path fill="#C0C0C0" stroke="none" d="M 511 608 C 511 598.6111584 548.6080768 591 595 591 C 641.3919232 591 679 598.6111584 679 608 C 679 617.3888416 641.3919232 625 595 625 C 548.6080768 625 511 617.3888416 511 608 Z" opacity="0.2"/></g><g transform="translate(-22,-174) scale(1,1)"><path fill="#ffffff" stroke="none" d="M 504 601 C 504 591.6111584 541.6080768 584 588 584 C 634.3919232 584 672 591.6111584 672 601 C 672 610.3888416 634.3919232 618 588 618 C 541.6080768 618 504 610.3888416 504 601 Z"/></g><g transform="translate(-22,-174) scale(1,1)"><path fill="none" stroke="#000000" d="M 504 601 C 504 591.6111584 541.6080768 584 588 584 C 634.3919232 584 672 591.6111584 672 601 C 672 610.3888416 634.3919232 618 588 618 C 541.6080768 618 504 610.3888416 504 601 Z" stroke-miterlimit="10"/></g><g transform="translate(-22,-174) scale(1,1)"><g><path fill="none" stroke="none"/><text fill="#000000" stroke="none" font-family="Arial" font-size="13px" font-style="normal" font-weight="bold" text-decoration="none" x="537.425048828125" y="608">Mostrar resultado</text></g></g><g transform="translate(-22,-174) scale(1,1)"><path fill="#C0C0C0" stroke="none" d="M 519 504 C 519 494.6111584 557.9512224 487 606 487 C 654.0487776 487 693 494.6111584 693 504 C 693 513.3888416 654.0487776 521 606 521 C 557.9512224 521 519 513.3888416 519 504 Z" opacity="0.2"/></g><g transform="translate(-22,-174) scale(1,1)"><path fill="#ffffff" stroke="none" d="M 512 497 C 512 487.6111584 550.9512224 480 599 480 C 647.0487776 480 686 487.6111584 686 497 C 686 506.3888416 647.0487776 514 599 514 C 550.9512224 514 512 506.3888416 512 497 Z"/></g><g transform="translate(-22,-174) scale(1,1)"><path fill="none" stroke="#000000" d="M 512 497 C 512 487.6111584 550.9512224 480 599 480 C 647.0487776 480 686 487.6111584 686 497 C 686 506.3888416 647.0487776 514 599 514 C 550.9512224 514 512 506.3888416 512 497 Z" stroke-miterlimit="10"/></g><g transform="translate(-22,-174) scale(1,1)"><g><path fill="none" stroke="none"/><text fill="#000000" stroke="none" font-family="Arial" font-size="13px" font-style="normal" font-weight="bold" text-decoration="none" x="546.615966796875" y="504">Ejecutar algoritmo</text></g></g><g transform="translate(-22,-174) scale(1,1)"><path fill="none" stroke="#000000" d="M 421 433 L 549 479" stroke-miterlimit="10" stroke-dasharray="3"/></g><g transform="translate(-22,-174) scale(1,1)"><path fill="none" stroke="#000000" d="M 538.0125100988689 479.5244670366599 L 549 479 L 540.8598171845605 471.60152558082257" stroke-miterlimit="10"/></g><g transform="translate(-22,-174) scale(1,1)"><g><path fill="none" stroke="none"/><text fill="#000000" stroke="none" font-family="Arial" font-size="13px" font-style="normal" font-weight="normal" text-decoration="none" x="467.5" y="433.5">«include»</text></g></g><g transform="translate(-22,-174) scale(1,1)"><path fill="none" stroke="#000000" d="M 597 515 L 590 583" stroke-miterlimit="10" stroke-dasharray="3"/></g><g transform="translate(-22,-174) scale(1,1)"><path fill="none" stroke="#000000" d="M 586.853268788202 572.459692476939 L 590 583 L 595.2280479469142 573.3218020962182" stroke-miterlimit="10"/></g><g transform="translate(-22,-174) scale(1,1)"><g><path fill="none" stroke="none"/><text fill="#000000" stroke="none" font-family="Arial" font-size="13px" font-style="normal" font-weight="normal" text-decoration="none" x="594.5" y="557.5">«include»</text></g></g><g transform="translate(-22,-174) scale(1,1)"><path fill="#C0C0C0" stroke="none" d="M 255 608 C 255 598.6111584 294.8466528 591 344 591 C 393.1533472 591 433 598.6111584 433 608 C 433 617.3888416 393.1533472 625 344 625 C 294.8466528 625 255 617.3888416 255 608 Z" opacity="0.2"/></g><g transform="translate(-22,-174) scale(1,1)"><path fill="#ffffff" stroke="none" d="M 248 601 C 248 591.6111584 287.8466528 584 337 584 C 386.1533472 584 426 591.6111584 426 601 C 426 610.3888416 386.1533472 618 337 618 C 287.8466528 618 248 610.3888416 248 601 Z"/></g><g transform="translate(-22,-174) scale(1,1)"><path fill="none" stroke="#000000" d="M 248 601 C 248 591.6111584 287.8466528 584 337 584 C 386.1533472 584 426 591.6111584 426 601 C 426 610.3888416 386.1533472 618 337 618 C 287.8466528 618 248 610.3888416 248 601 Z" stroke-miterlimit="10"/></g><g transform="translate(-22,-174) scale(1,1)"><g><path fill="none" stroke="none"/><text fill="#000000" stroke="none" font-family="Arial" font-size="13px" font-style="normal" font-weight="bold" text-decoration="none" x="282.080078125" y="608">Guardar Resultado</text></g></g><g transform="translate(-22,-174) scale(1,1)"><path fill="none" stroke="#000000" d="M 90 371 L 318 583" stroke-miterlimit="10"/></g><g transform="translate(-22,-174) scale(1,1)"><path fill="#C0C0C0" stroke="none" d="M 767 544 C 767 534.6111584 830.799416 527 909.5 527 C 988.200584 527 1052 534.6111584 1052 544 C 1052 553.3888416 988.200584 561 909.5 561 C 830.799416 561 767 553.3888416 767 544 Z" opacity="0.2"/></g><g transform="translate(-22,-174) scale(1,1)"><path fill="#ffffff" stroke="none" d="M 760 537 C 760 527.6111584 823.799416 520 902.5 520 C 981.200584 520 1045 527.6111584 1045 537 C 1045 546.3888416 981.200584 554 902.5 554 C 823.799416 554 760 546.3888416 760 537 Z"/></g><g transform="translate(-22,-174) scale(1,1)"><path fill="none" stroke="#000000" d="M 760 537 C 760 527.6111584 823.799416 520 902.5 520 C 981.200584 520 1045 527.6111584 1045 537 C 1045 546.3888416 981.200584 554 902.5 554 C 823.799416 554 760 546.3888416 760 537 Z" stroke-miterlimit="10"/></g><g transform="translate(-22,-174) scale(1,1)"><g><path fill="none" stroke="none"/><text fill="#000000" stroke="none" font-family="Arial" font-size="13px" font-style="normal" font-weight="bold" text-decoration="none" x="813.248779296875" y="544">Evaluar factibilidad con Epanet</text></g></g><g transform="translate(-22,-174) scale(1,1)"><path fill="none" stroke="#000000" d="M 687 509 L 766 519" stroke-miterlimit="10" stroke-dasharray="3"/></g><g transform="translate(-22,-174) scale(1,1)"><path fill="none" stroke="#000000" d="M 755.3891462109318 521.899962390621 L 766 519 L 756.4464102599768 513.547576403165" stroke-miterlimit="10"/></g><g transform="translate(-22,-174) scale(1,1)"><g><path fill="none" stroke="none"/><text fill="#000000" stroke="none" font-family="Arial" font-size="13px" font-style="normal" font-weight="normal" text-decoration="none" x="701.5" y="490.5">«include»</text></g></g><g transform="translate(-22,-174) scale(1,1)"><path fill="none" stroke="#000000" d="M 394 375 L 594 267" stroke-miterlimit="10" stroke-dasharray="3"/></g><g transform="translate(-22,-174) scale(1,1)"><path fill="none" stroke="#000000" d="M 587.0579553314697 275.53276132445586 L 594 267 L 583.0576597448132 268.12480653435136" stroke-miterlimit="10"/></g><g transform="translate(-22,-174) scale(1,1)"><g><path fill="none" stroke="none"/><text fill="#000000" stroke="none" font-family="Arial" font-size="13px" font-style="normal" font-weight="normal" text-decoration="none" x="451.5" y="300.5">«include»</text></g></g><g transform="translate(-22,-174) scale(1,1)"><path fill="none" stroke="#000000" d="M 452 375 L 621 331" stroke-miterlimit="10" stroke-dasharray="3"/></g><g transform="translate(-22,-174) scale(1,1)"><path fill="none" stroke="#000000" d="M 612.2257972519317 337.63425701460164 L 621 331 L 610.104573614176 329.48682986049454" stroke-miterlimit="10"/></g><g transform="translate(-22,-174) scale(1,1)"><g><path fill="none" stroke="none"/><text fill="#000000" stroke="none" font-family="Arial" font-size="13px" font-style="normal" font-weight="normal" text-decoration="none" x="500.5" y="329.5">«include»</text></g></g><g transform="translate(-22,-174) scale(1,1)"><path fill="#C0C0C0" stroke="none" d="M 599 400 C 599 390.6111584 641.7568016 383 694.5 383 C 747.2431984 383 790 390.6111584 790 400 C 790 409.3888416 747.2431984 417 694.5 417 C 641.7568016 417 599 409.3888416 599 400 Z" opacity="0.2"/></g><g transform="translate(-22,-174) scale(1,1)"><path fill="#ffffff" stroke="none" d="M 592 393 C 592 383.6111584 634.7568016 376 687.5 376 C 740.2431984 376 783 383.6111584 783 393 C 783 402.3888416 740.2431984 410 687.5 410 C 634.7568016 410 592 402.3888416 592 393 Z"/></g><g transform="translate(-22,-174) scale(1,1)"><path fill="none" stroke="#000000" d="M 592 393 C 592 383.6111584 634.7568016 376 687.5 376 C 740.2431984 376 783 383.6111584 783 393 C 783 402.3888416 740.2431984 410 687.5 410 C 634.7568016 410 592 402.3888416 592 393 Z" stroke-miterlimit="10"/></g><g transform="translate(-22,-174) scale(1,1)"><g><path fill="none" stroke="none"/><text fill="#000000" stroke="none" font-family="Arial" font-size="13px" font-style="normal" font-weight="bold" text-decoration="none" x="629.333251953125" y="400">Configurar variables</text></g></g><g transform="translate(-22,-174) scale(1,1)"><path fill="none" stroke="#000000" d="M 489 399 L 591 396" stroke-miterlimit="10" stroke-dasharray="3"/></g><g transform="translate(-22,-174) scale(1,1)"><path fill="none" stroke="#000000" d="M 580.9654737429415 400.5064712133113 L 591 396 L 580.7179620834851 392.0910747917938" stroke-miterlimit="10"/></g><g transform="translate(-22,-174) scale(1,1)"><g><path fill="none" stroke="none"/><text fill="#000000" stroke="none" font-family="Arial" font-size="13px" font-style="normal" font-weight="normal" text-decoration="none" x="511.5" y="373.5">«include»</text></g></g></g></svg>