<svg version="1.1" xmlns="http://www.w3.org/2000/svg" xmlns:xlink="http://www.w3.org/1999/xlink" width="426" height="278"><defs/><g><g transform="translate(-14,-238) scale(1,1)"><path fill="#ffffff" stroke="none" d="M 44.02116672585227 321.68 C 44.02116672585227 316.886167936 47.907009050797726 313 52.700439453125 313 C 57.493869855452274 313 61.37971218039773 316.886167936 61.37971218039773 321.68 C 61.37971218039773 326.473832064 57.493869855452274 330.36 52.700439453125 330.36 C 47.907009050797726 330.36 44.02116672585227 326.473832064 44.02116672585227 321.68 Z"/></g><g transform="translate(-14,-238) scale(1,1)"><path fill="none" stroke="#000000" d="M 44.02116672585227 321.68 C 44.02116672585227 316.886167936 47.907009050797726 313 52.700439453125 313 C 57.493869855452274 313 61.37971218039773 316.886167936 61.37971218039773 321.68 C 61.37971218039773 326.473832064 57.493869855452274 330.36 52.700439453125 330.36 C 47.907009050797726 330.36 44.02116672585227 326.473832064 44.02116672585227 321.68 Z" stroke-miterlimit="10"/></g><g transform="translate(-14,-238) scale(1,1)"><path fill="none" stroke="#000000" d="M 52.700439453125 330.36 L 52.700439453125 347.64" stroke-miterlimit="10"/></g><g transform="translate(-14,-238) scale(1,1)"><path fill="none" stroke="#000000" d="M 43.51062127130682 336.84 L 61.89025763494318 336.84" stroke-miterlimit="10"/></g><g transform="translate(-14,-238) scale(1,1)"><path fill="none" stroke="#000000" d="M 52.700439453125 347.64 L 39.936803089488635 365" stroke-miterlimit="10"/></g><g transform="translate(-14,-238) scale(1,1)"><path fill="none" stroke="#000000" d="M 52.700439453125 347.64 L 65.46407581676137 365" stroke-miterlimit="10"/></g><g transform="translate(-14,-238) scale(1,1)"><g><path fill="none" stroke="none"/><text fill="#000000" stroke="none" font-family="Arial" font-size="13px" font-style="normal" font-weight="bold" text-decoration="none" x="30.302734375" y="385.5">Usuario</text></g></g><g transform="translate(-14,-238) scale(1,1)"><path fill="#C0C0C0" stroke="none" d="M 135 360 C 135 350.6111584 158.7289056 343 188 343 C 217.2710944 343 241 350.6111584 241 360 C 241 369.3888416 217.2710944 377 188 377 C 158.7289056 377 135 369.3888416 135 360 Z" opacity="0.2"/></g><g transform="translate(-14,-238) scale(1,1)"><path fill="#ffffff" stroke="none" d="M 128 353 C 128 343.6111584 151.7289056 336 181 336 C 210.2710944 336 234 343.6111584 234 353 C 234 362.3888416 210.2710944 370 181 370 C 151.7289056 370 128 362.3888416 128 353 Z"/></g><g transform="translate(-14,-238) scale(1,1)"><path fill="none" stroke="#000000" d="M 128 353 C 128 343.6111584 151.7289056 336 181 336 C 210.2710944 336 234 343.6111584 234 353 C 234 362.3888416 210.2710944 370 181 370 C 151.7289056 370 128 362.3888416 128 353 Z" stroke-miterlimit="10"/></g><g transform="translate(-14,-238) scale(1,1)"><g><path fill="none" stroke="none"/><text fill="#000000" stroke="none" font-family="Arial" font-size="13px" font-style="normal" font-weight="bold" text-decoration="none" x="149.931396484375" y="360">Cargar red</text></g></g><g transform="translate(-14,-238) scale(1,1)"><path fill="none" stroke="#000000" d="M 82 351 L 127 352" stroke-miterlimit="10"/></g><g transform="translate(-14,-238) scale(1,1)"><path fill="#C0C0C0" stroke="none" d="M 263 272 C 263 262.6111584 301.9512224 255 350 255 C 398.0487776 255 437 262.6111584 437 272 C 437 281.3888416 398.0487776 289 350 289 C 301.9512224 289 263 281.3888416 263 272 Z" opacity="0.2"/></g><g transform="translate(-14,-238) scale(1,1)"><path fill="#ffffff" stroke="none" d="M 256 265 C 256 255.6111584 294.9512224 248 343 248 C 391.0487776 248 430 255.6111584 430 265 C 430 274.3888416 391.0487776 282 343 282 C 294.9512224 282 256 274.3888416 256 265 Z"/></g><g transform="translate(-14,-238) scale(1,1)"><path fill="none" stroke="#000000" d="M 256 265 C 256 255.6111584 294.9512224 248 343 248 C 391.0487776 248 430 255.6111584 430 265 C 430 274.3888416 391.0487776 282 343 282 C 294.9512224 282 256 274.3888416 256 265 Z" stroke-miterlimit="10"/></g><g transform="translate(-14,-238) scale(1,1)"><g><path fill="none" stroke="none"/><text fill="#000000" stroke="none" font-family="Arial" font-size="13px" font-style="normal" font-weight="bold" text-decoration="none" x="289.530517578125" y="272">Elegir red a cargar</text></g></g><g transform="translate(-14,-238) scale(1,1)"><path fill="#C0C0C0" stroke="none" d="M 319 368 C 319 358.6111584 344.5197664 351 376 351 C 407.4802336 351 433 358.6111584 433 368 C 433 377.3888416 407.4802336 385 376 385 C 344.5197664 385 319 377.3888416 319 368 Z" opacity="0.2"/></g><g transform="translate(-14,-238) scale(1,1)"><path fill="#ffffff" stroke="none" d="M 312 361 C 312 351.6111584 337.5197664 344 369 344 C 400.4802336 344 426 351.6111584 426 361 C 426 370.3888416 400.4802336 378 369 378 C 337.5197664 378 312 370.3888416 312 361 Z"/></g><g transform="translate(-14,-238) scale(1,1)"><path fill="none" stroke="#000000" d="M 312 361 C 312 351.6111584 337.5197664 344 369 344 C 400.4802336 344 426 351.6111584 426 361 C 426 370.3888416 400.4802336 378 369 378 C 337.5197664 378 312 370.3888416 312 361 Z" stroke-miterlimit="10"/></g><g transform="translate(-14,-238) scale(1,1)"><g><path fill="none" stroke="none"/><text fill="#000000" stroke="none" font-family="Arial" font-size="13px" font-style="normal" font-weight="bold" text-decoration="none" x="335.0400390625" y="368">Parsear red</text></g></g><g transform="translate(-14,-238) scale(1,1)"><path fill="none" stroke="#000000" d="M 214 335 L 310 283" stroke-miterlimit="10" stroke-dasharray="3"/></g><g transform="translate(-14,-238) scale(1,1)"><path fill="none" stroke="#000000" d="M 303.0689640098393 291.54170592464396 L 310 283 L 299.05911926849234 284.1389156329264" stroke-miterlimit="10"/></g><g transform="translate(-14,-238) scale(1,1)"><g><path fill="none" stroke="none"/><text fill="#000000" stroke="none" font-family="Arial" font-size="13px" font-style="normal" font-weight="normal" text-decoration="none" x="219.5" y="288.5">«include»</text></g></g><g transform="translate(-14,-238) scale(1,1)"><path fill="none" stroke="#000000" d="M 235 355 L 311 359" stroke-miterlimit="10" stroke-dasharray="3"/></g><g transform="translate(-14,-238) scale(1,1)"><path fill="none" stroke="#000000" d="M 300.63012435220156 362.66956115212656 L 311 359 L 301.07261903473307 354.2621621840279" stroke-miterlimit="10"/></g><g transform="translate(-14,-238) scale(1,1)"><g><path fill="none" stroke="none"/><text fill="#000000" stroke="none" font-family="Arial" font-size="13px" font-style="normal" font-weight="normal" text-decoration="none" x="246.5" y="333.5">«include»</text></g></g><g transform="translate(-14,-238) scale(1,1)"><path fill="#C0C0C0" stroke="none" d="M 255 496 C 255 486.6111584 284.5492032 479 321 479 C 357.4507968 479 387 486.6111584 387 496 C 387 505.3888416 357.4507968 513 321 513 C 284.5492032 513 255 505.3888416 255 496 Z" opacity="0.2"/></g><g transform="translate(-14,-238) scale(1,1)"><path fill="#ffffff" stroke="none" d="M 248 489 C 248 479.6111584 277.5492032 472 314 472 C 350.4507968 472 380 479.6111584 380 489 C 380 498.3888416 350.4507968 506 314 506 C 277.5492032 506 248 498.3888416 248 489 Z"/></g><g transform="translate(-14,-238) scale(1,1)"><path fill="none" stroke="#000000" d="M 248 489 C 248 479.6111584 277.5492032 472 314 472 C 350.4507968 472 380 479.6111584 380 489 C 380 498.3888416 350.4507968 506 314 506 C 277.5492032 506 248 498.3888416 248 489 Z" stroke-miterlimit="10"/></g><g transform="translate(-14,-238) scale(1,1)"><g><path fill="none" stroke="none"/><text fill="#000000" stroke="none" font-family="Arial" font-size="13px" font-style="normal" font-weight="bold" text-decoration="none" x="274.73974609375" y="496">Visualizar red</text></g></g><g transform="translate(-14,-238) scale(1,1)"><path fill="none" stroke="#000000" d="M 199 371 L 296 471" stroke-miterlimit="10" stroke-dasharray="3"/></g><g transform="translate(-14,-238) scale(1,1)"><path fill="none" stroke="#000000" d="M 285.9026002244125 466.63622665896077 L 296 471 L 291.94571386734043 460.7744064253206" stroke-miterlimit="10"/></g><g transform="translate(-14,-238) scale(1,1)"><g><path fill="none" stroke="none"/><text fill="#000000" stroke="none" font-family="Arial" font-size="13px" font-style="normal" font-weight="normal" text-decoration="none" x="240.5" y="406.5">«include»</text></g></g></g></svg>