<svg version="1.1" xmlns="http://www.w3.org/2000/svg" xmlns:xlink="http://www.w3.org/1999/xlink" width="567.5751953125" height="317"><defs/><g><g transform="translate(-694,-158) scale(1,1)"><rect fill="#C0C0C0" stroke="none" x="847" y="193" width="275.04150390625" height="72" opacity="0.2"/></g><g transform="translate(-694,-158) scale(1,1)"><rect fill="#C0C0C0" stroke="none" x="1085.193359375" y="175" width="45.84814453125" height="22" opacity="0.2"/></g><g transform="translate(-694,-158) scale(1,1)"><rect fill="#ffffff" stroke="none" x="840" y="186" width="275.04150390625" height="72"/></g><g transform="translate(-694,-158) scale(1,1)"><path fill="none" stroke="#000000" d="M 840 186 L 1115.04150390625 186 L 1115.04150390625 258 L 840 258 L 840 186 Z Z" stroke-miterlimit="10"/></g><g transform="translate(-694,-158) scale(1,1)"><path fill="none" stroke="#000000" d="M 840 211 L 1115.04150390625 211" stroke-miterlimit="10"/></g><g transform="translate(-694,-158) scale(1,1)"><path fill="none" stroke="#000000" d="M 840 221 L 1115.04150390625 221" stroke-miterlimit="10"/></g><g transform="translate(-694,-158) scale(1,1)"><g><path fill="none" stroke="none"/><text fill="#000000" stroke="none" font-family="Arial" font-size="13px" font-style="normal" font-weight="bold" text-decoration="none" x="944.64306640625" y="205.5">Registrable</text></g></g><g transform="translate(-694,-158) scale(1,1)"><g><path fill="none" stroke="none"/><text fill="#000000" stroke="none" font-family="Arial" font-size="13px" font-style="normal" font-weight="normal" text-decoration="none" x="845" y="238.5">+build(pathToINP: String): Result</text></g></g><g transform="translate(-694,-158) scale(1,1)"><g><path fill="none" stroke="none"/><text fill="#000000" stroke="none" font-family="Arial" font-size="13px" font-style="normal" font-weight="normal" text-decoration="none" x="845" y="253.5">+getParameters(): Map&lt;String; String&gt;</text></g></g><g transform="translate(-694,-158) scale(1,1)"><rect fill="#ffffff" stroke="none" x="1078.193359375" y="168" width="45.84814453125" height="22"/></g><g transform="translate(-694,-158) scale(1,1)"><path fill="none" stroke="#000000" d="M 1078.193359375 168 L 1124.04150390625 168 L 1124.04150390625 190 L 1078.193359375 190 L 1078.193359375 168 Z Z" stroke-miterlimit="10" stroke-dasharray="3"/></g><g transform="translate(-694,-158) scale(1,1)"><g><path fill="none" stroke="none"/><text fill="#000000" stroke="none" font-family="Arial" font-size="13px" font-style="normal" font-weight="normal" text-decoration="none" x="1083.193359375" y="185.5">Result</text></g></g><g transform="translate(-694,-158) scale(1,1)"><rect fill="#C0C0C0" stroke="none" x="711" y="415" width="227.5751953125" height="57" opacity="0.2"/></g><g transform="translate(-694,-158) scale(1,1)"><rect fill="#ffffff" stroke="none" x="704" y="408" width="227.5751953125" height="57"/></g><g transform="translate(-694,-158) scale(1,1)"><path fill="none" stroke="#000000" d="M 704 408 L 931.5751953125 408 L 931.5751953125 465 L 704 465 L 704 408 Z Z" stroke-miterlimit="10"/></g><g transform="translate(-694,-158) scale(1,1)"><path fill="none" stroke="#000000" d="M 704 433 L 931.5751953125 433" stroke-miterlimit="10"/></g><g transform="translate(-694,-158) scale(1,1)"><path fill="none" stroke="#000000" d="M 704 443 L 931.5751953125 443" stroke-miterlimit="10"/></g><g transform="translate(-694,-158) scale(1,1)"><g><path fill="none" stroke="none"/><text fill="#000000" stroke="none" font-family="Arial" font-size="13px" font-style="italic" font-weight="bold" text-decoration="none" x="739.746337890625" y="427.5">SingleObjectiveRegistrable</text></g></g><g transform="translate(-694,-158) scale(1,1)"><g><path fill="none" stroke="none"/><text fill="#000000" stroke="none" font-family="Arial" font-size="13px" font-style="normal" font-weight="normal" text-decoration="none" x="709" y="460.5">+build(pathToINP: String): Experiment</text></g></g><g transform="translate(-694,-158) scale(1,1)"><path fill="none" stroke="#000000" d="M 838 407 L 948 259" stroke-miterlimit="10"/></g><g transform="translate(-694,-158) scale(1,1)"><path fill="#FFFFFF" stroke="none" d="M 942.6325276656464 280.3351878534019 L 948 259 L 929.1183679055181 270.29087992357677"/></g><g transform="translate(-694,-158) scale(1,1)"><path fill="none" stroke="#000000" d="M 942.6325276656464 280.3351878534019 L 948 259 L 929.1183679055181 270.29087992357677 L 942.6325276656464 280.3351878534019" stroke-miterlimit="10"/></g><g transform="translate(-694,-158) scale(1,1)"><rect fill="#C0C0C0" stroke="none" x="1031" y="415" width="227.5751953125" height="57" opacity="0.2"/></g><g transform="translate(-694,-158) scale(1,1)"><rect fill="#ffffff" stroke="none" x="1024" y="408" width="227.5751953125" height="57"/></g><g transform="translate(-694,-158) scale(1,1)"><path fill="none" stroke="#000000" d="M 1024 408 L 1251.5751953125 408 L 1251.5751953125 465 L 1024 465 L 1024 408 Z Z" stroke-miterlimit="10"/></g><g transform="translate(-694,-158) scale(1,1)"><path fill="none" stroke="#000000" d="M 1024 433 L 1251.5751953125 433" stroke-miterlimit="10"/></g><g transform="translate(-694,-158) scale(1,1)"><path fill="none" stroke="#000000" d="M 1024 443 L 1251.5751953125 443" stroke-miterlimit="10"/></g><g transform="translate(-694,-158) scale(1,1)"><g><path fill="none" stroke="none"/><text fill="#000000" stroke="none" font-family="Arial" font-size="13px" font-style="italic" font-weight="bold" text-decoration="none" x="1064.09130859375" y="427.5">MultiObjectiveRegistrable</text></g></g><g transform="translate(-694,-158) scale(1,1)"><g><path fill="none" stroke="none"/><text fill="#000000" stroke="none" font-family="Arial" font-size="13px" font-style="normal" font-weight="normal" text-decoration="none" x="1029" y="460.5">+build(pathToINP: String): Experiment</text></g></g><g transform="translate(-694,-158) scale(1,1)"><path fill="none" stroke="#000000" d="M 1117 407 L 1014 259" stroke-miterlimit="10"/></g><g transform="translate(-694,-158) scale(1,1)"><path fill="#FFFFFF" stroke="none" d="M 1032.5206661395837 270.873707329477 L 1014 259 L 1018.7001096488941 280.49206758988936"/></g><g transform="translate(-694,-158) scale(1,1)"><path fill="none" stroke="#000000" d="M 1032.5206661395837 270.873707329477 L 1014 259 L 1018.7001096488941 280.49206758988936 L 1032.5206661395837 270.873707329477" stroke-miterlimit="10"/></g></g></svg>