<?xml version="1.0" encoding="utf-8"?>
<!-- Generator: Adobe Illustrator 24.0.1, SVG Export Plug-In . SVG Version: 6.00 Build 0)  -->
<svg version="1.1" id="Capa_1" xmlns="http://www.w3.org/2000/svg" xmlns:xlink="http://www.w3.org/1999/xlink" x="0px" y="0px"
	 viewBox="0 0 3687.9 3198.3" style="enable-background:new 0 0 3687.9 3198.3;" xml:space="preserve">
<style type="text/css">
	.st0{opacity:0.2;fill:#C0C0C0;enable-background:new    ;}
	.st1{fill:#FFFFFF;}
	.st2{fill:none;stroke:#000000;stroke-miterlimit:10;}
	.st3{font-family:'Arial-BoldMT';}
	.st4{font-size:13px;}
	.st5{font-family:'ArialMT';}
	.st6{font-family:'Arial-BoldItalicMT';}
	.st7{font-family:'Arial-ItalicMT';}
</style>
<g transform="translate(-1078,-54) scale(1,1)">
	<rect x="3023.1" y="548.2" class="st0" width="306.4" height="852"/>
</g>
<g transform="translate(-1078,-54) scale(1,1)">
	<rect x="3016.1" y="541.2" class="st1" width="306.4" height="852"/>
</g>
<g transform="translate(-1078,-54) scale(1,1)">
	<path class="st2" d="M3016.1,541.2h306.4v852h-306.4V541.2z"/>
</g>
<g transform="translate(-1078,-54) scale(1,1)">
	<path class="st2" d="M3016.1,596.2h306.4"/>
</g>
<g transform="translate(-1078,-54) scale(1,1)">
	<path class="st2" d="M3016.1,606.2h306.4"/>
</g>
<text transform="matrix(1 0 0 1 2067.4395 506.7116)" class="st3 st4">Network</text>
<text transform="matrix(1 0 0 1 2049.0186 521.7115)" class="st5 st4">(from element)</text>
<text transform="matrix(1 0 0 1 2209.8125 536.7115)" class="st5 st4">{leaf}</text>
<text transform="matrix(1 0 0 1 1943.1 569.7115)" class="st5 st4">«constructor»+Network()</text>
<text transform="matrix(1 0 0 1 1943.1 584.7115)" class="st5 st4">«constructor»+Network(network: Network)</text>
<text transform="matrix(1 0 0 1 1943.1 599.7115)" class="st5 st4">+isEmpty(): boolean</text>
<text transform="matrix(1 0 0 1 1943.1 614.7115)" class="st5 st4">+getTitle(): String</text>
<text transform="matrix(1 0 0 1 1943.1 629.7115)" class="st5 st4">+addLineToTitle(text: String): void</text>
<text transform="matrix(1 0 0 1 1943.1 644.7115)" class="st5 st4">+addLink(id: String, link): void</text>
<text transform="matrix(1 0 0 1 1943.1 659.7115)" class="st5 st4">+addNode(id: String, node): void</text>
<text transform="matrix(1 0 0 1 1943.1 674.7115)" class="st5 st4">+getNode(id: String): null</text>
<text transform="matrix(1 0 0 1 1943.1 689.7115)" class="st5 st4">+getLink(id: String): null</text>
<text transform="matrix(1 0 0 1 1943.1 704.7115)" class="st5 st4">+getJunction(id: String): null</text>
<text transform="matrix(1 0 0 1 1943.1 719.7115)" class="st5 st4">+getReservoir(id: String): null</text>
<text transform="matrix(1 0 0 1 1943.1 734.7115)" class="st5 st4">+getTank(id: String): null</text>
<text transform="matrix(1 0 0 1 1943.1 749.7115)" class="st5 st4">+getPipe(id: String): null</text>
<text transform="matrix(1 0 0 1 1943.1 764.7115)" class="st5 st4">+getPump(id: String): null</text>
<text transform="matrix(1 0 0 1 1943.1 779.7115)" class="st5 st4">+getValve(id: String): null</text>
<text transform="matrix(1 0 0 1 1943.1 794.7115)" class="st5 st4">+getLinks(): null[*]</text>
<text transform="matrix(1 0 0 1 1943.1 809.7115)" class="st5 st4">+getNodes(): null[*]</text>
<text transform="matrix(1 0 0 1 1943.1 824.7115)" class="st5 st4">+getJunctions(): null[*]</text>
<text transform="matrix(1 0 0 1 1943.1 839.7115)" class="st5 st4">+getReservoirs(): null[*]</text>
<text transform="matrix(1 0 0 1 1943.1 854.7115)" class="st5 st4">+getTanks(): null[*]</text>
<text transform="matrix(1 0 0 1 1943.1 869.7115)" class="st5 st4">+getPipes(): null[*]</text>
<text transform="matrix(1 0 0 1 1943.1 884.7115)" class="st5 st4">+getPumps(): null[*]</text>
<text transform="matrix(1 0 0 1 1943.1 899.7115)" class="st5 st4">+getValves(): null[*]</text>
<text transform="matrix(1 0 0 1 1943.1 914.7115)" class="st5 st4">+getCurve(id: String): null</text>
<text transform="matrix(1 0 0 1 1943.1 929.7115)" class="st5 st4">+addCurve(id: String, curve): void</text>
<text transform="matrix(1 0 0 1 1943.1 944.7115)" class="st5 st4">+getCurves(): null[*]</text>
<text transform="matrix(1 0 0 1 1943.1 959.7115)" class="st5 st4">+getPattern(id: String): null</text>
<text transform="matrix(1 0 0 1 1943.1 974.7115)" class="st5 st4">+addPattern(id: String, pattern): void</text>
<text transform="matrix(1 0 0 1 1943.1 989.7115)" class="st5 st4">+getPatterns(): null[*]</text>
<text transform="matrix(1 0 0 1 1943.1 1004.7115)" class="st5 st4">+getControl(): null</text>
<text transform="matrix(1 0 0 1 1943.1 1019.7115)" class="st5 st4">+setControl(control): void</text>
<text transform="matrix(1 0 0 1 1943.1 1034.7115)" class="st5 st4">+getEnergyOption(): null</text>
<text transform="matrix(1 0 0 1 1943.1 1049.7115)" class="st5 st4">+setEnergyOption(energy): void</text>
<text transform="matrix(1 0 0 1 1943.1 1064.7115)" class="st5 st4">+getRule(): null</text>
<text transform="matrix(1 0 0 1 1943.1 1079.7115)" class="st5 st4">+setRule(rule): void</text>
<text transform="matrix(1 0 0 1 1943.1 1094.7115)" class="st5 st4">+getReactionOption(): null</text>
<text transform="matrix(1 0 0 1 1943.1 1109.7115)" class="st5 st4">+setReactionOption(reaction): void</text>
<text transform="matrix(1 0 0 1 1943.1 1124.7115)" class="st5 st4">+getOption(): null</text>
<text transform="matrix(1 0 0 1 1943.1 1139.7115)" class="st5 st4">+setOption(option): void</text>
<text transform="matrix(1 0 0 1 1943.1 1154.7115)" class="st5 st4">+getQualityOption(): null</text>
<text transform="matrix(1 0 0 1 1943.1 1169.7115)" class="st5 st4">+setQualityOption(option): void</text>
<text transform="matrix(1 0 0 1 1943.1 1184.7115)" class="st5 st4">+getTime(): null</text>
<text transform="matrix(1 0 0 1 1943.1 1199.7115)" class="st5 st4">+setTime(time): void</text>
<text transform="matrix(1 0 0 1 1943.1 1214.7115)" class="st5 st4">+getReport(): null</text>
<text transform="matrix(1 0 0 1 1943.1 1229.7115)" class="st5 st4">+setReport(report): void</text>
<text transform="matrix(1 0 0 1 1943.1 1244.7115)" class="st5 st4">+getBackdrop(): null</text>
<text transform="matrix(1 0 0 1 1943.1 1259.7115)" class="st5 st4">+setBackdrop(backdrop): void</text>
<text transform="matrix(1 0 0 1 1943.1 1274.7115)" class="st5 st4">+getLabels(): null[*]</text>
<text transform="matrix(1 0 0 1 1943.1 1289.7115)" class="st5 st4">+addLabel(label): void</text>
<text transform="matrix(1 0 0 1 1943.1 1304.7115)" class="st5 st4">+toString(): String</text>
<text transform="matrix(1 0 0 1 1943.1 1319.7115)" class="st5 st4">+copy(): Network</text>
<g transform="translate(-1078,-54) scale(1,1)">
	<rect x="2351.1" y="1852.2" class="st0" width="242.7" height="162"/>
</g>
<g transform="translate(-1078,-54) scale(1,1)">
	<rect x="2344.1" y="1845.2" class="st1" width="242.7" height="162"/>
</g>
<g transform="translate(-1078,-54) scale(1,1)">
	<path class="st2" d="M2344.1,1845.2h242.7v162h-242.7V1845.2z"/>
</g>
<g transform="translate(-1078,-54) scale(1,1)">
	<path class="st2" d="M2344.1,1885.2h242.7"/>
</g>
<g transform="translate(-1078,-54) scale(1,1)">
	<path class="st2" d="M2344.1,1895.2h242.7"/>
</g>
<text transform="matrix(1 0 0 1 1353.8654 1810.7115)" class="st6 st4">Component</text>
<text transform="matrix(1 0 0 1 1313.4149 1825.7115)" class="st5 st4">(from networkcomponent)</text>
<text transform="matrix(1 0 0 1 1271.1 1858.7115)" class="st5 st4">+getId(): String</text>
<text transform="matrix(1 0 0 1 1271.1 1873.7115)" class="st5 st4">+setId(id: String): void</text>
<text transform="matrix(1 0 0 1 1271.1 1888.7115)" class="st5 st4">+getDescription(): String</text>
<text transform="matrix(1 0 0 1 1271.1 1903.7115)" class="st5 st4">+setDescription(description: String): void</text>
<text transform="matrix(1 0 0 1 1271.1 1918.7115)" class="st5 st4">+getTag(): null</text>
<text transform="matrix(1 0 0 1 1271.1 1933.7115)" class="st5 st4">+setTag(tag): void</text>
<text transform="matrix(1 0 0 1 1271.1 1948.7115)" class="st5 st4">+toString(): String</text>
<g transform="translate(-1078,-54) scale(1,1)">
	<rect x="2687.1" y="2044.2" class="st0" width="283.2" height="177"/>
</g>
<g transform="translate(-1078,-54) scale(1,1)">
	<rect x="2680.1" y="2037.2" class="st1" width="283.2" height="177"/>
</g>
<g transform="translate(-1078,-54) scale(1,1)">
	<path class="st2" d="M2680.1,2037.2h283.2v177h-283.2V2037.2z"/>
</g>
<g transform="translate(-1078,-54) scale(1,1)">
	<path class="st2" d="M2680.1,2077.2h283.2"/>
</g>
<g transform="translate(-1078,-54) scale(1,1)">
	<path class="st2" d="M2680.1,2087.2h283.2"/>
</g>
<text transform="matrix(1 0 0 1 1728.1639 2002.7115)" class="st6 st4">Node</text>
<text transform="matrix(1 0 0 1 1669.6481 2017.7115)" class="st5 st4">(from networkcomponent)</text>
<text transform="matrix(1 0 0 1 1607.1 2050.7117)" class="st5 st4">+getPosition(): null</text>
<text transform="matrix(1 0 0 1 1607.1 2065.7117)" class="st5 st4">+setPosition(position): void</text>
<text transform="matrix(1 0 0 1 1607.1 2080.7117)" class="st5 st4">+getInitialQuality(): null</text>
<text transform="matrix(1 0 0 1 1607.1 2095.7117)" class="st5 st4">+setInitialQuality(initialQuality): void</text>
<text transform="matrix(1 0 0 1 1607.1 2110.7117)" class="st5 st4">+getSourceQuality(): null</text>
<text transform="matrix(1 0 0 1 1607.1 2125.7117)" class="st5 st4">+setSourceQuality(sourceQuality): void</text>
<text transform="matrix(1 0 0 1 1607.1 2140.7117)" class="st5 st4">+toString(): String</text>
<text transform="matrix(1 0 0 1 1607.1 2155.7117)" class="st7 st4">+copy(): Node</text>
<g transform="translate(-1078,-54) scale(1,1)">
	<path class="st2" d="M2679.1,2046.2l-91-51"/>
</g>
<g transform="translate(-1078,-54) scale(1,1)">
	<path class="st1" d="M2609.9,1997.8l-21.8-2.6l13.6,17.3"/>
</g>
<g transform="translate(-1078,-54) scale(1,1)">
	<path class="st2" d="M2609.9,1997.8l-21.8-2.6l13.6,17.3L2609.9,1997.8"/>
</g>
<g transform="translate(-1078,-54) scale(1,1)">
	<rect x="3711.1" y="2292.2" class="st0" width="313" height="295"/>
</g>
<g transform="translate(-1078,-54) scale(1,1)">
	<rect x="3704.1" y="2285.2" class="st1" width="313" height="295"/>
</g>
<g transform="translate(-1078,-54) scale(1,1)">
	<path class="st2" d="M3704.1,2285.2h313v295h-313V2285.2z"/>
</g>
<g transform="translate(-1078,-54) scale(1,1)">
	<path class="st2" d="M3704.1,2340.2h313"/>
</g>
<g transform="translate(-1078,-54) scale(1,1)">
	<path class="st2" d="M3704.1,2378.2h313"/>
</g>
<text transform="matrix(1 0 0 1 2758.3752 2250.7117)" class="st3 st4">Junction</text>
<text transform="matrix(1 0 0 1 2708.5303 2265.7117)" class="st5 st4">(from networkcomponent)</text>
<text transform="matrix(1 0 0 1 2904.4268 2280.7117)" class="st5 st4">{leaf}</text>
<text transform="matrix(1 0 0 1 2631.1001 2303.7117)" class="st5 st4">+DEFAULT_ELEVATION: double = 0 {readOnly}</text>
<path class="st2" d="M2631.1,2303.7h276.8"/>
<text transform="matrix(1 0 0 1 2631.1001 2318.7117)" class="st5 st4">+DEFAULT_BASE_DEMAND: double = 0 {readOnly}</text>
<path class="st2" d="M2631.1,2318.7h304"/>
<text transform="matrix(1 0 0 1 2631.1001 2341.7117)" class="st5 st4">«constructor»+Junction()</text>
<text transform="matrix(1 0 0 1 2631.1001 2356.7117)" class="st5 st4">«constructor»+Junction(junction: Junction)</text>
<text transform="matrix(1 0 0 1 2631.1001 2371.7117)" class="st5 st4">+getElevation(): double</text>
<text transform="matrix(1 0 0 1 2631.1001 2386.7117)" class="st5 st4">+setElevation(elev: double): void</text>
<text transform="matrix(1 0 0 1 2631.1001 2401.7117)" class="st5 st4">+getBaseDemand(): double</text>
<text transform="matrix(1 0 0 1 2631.1001 2416.7117)" class="st5 st4">+setBaseDemand(demand: double): void</text>
<text transform="matrix(1 0 0 1 2631.1001 2431.7117)" class="st5 st4">+getDemandPattern(): String</text>
<text transform="matrix(1 0 0 1 2631.1001 2446.7117)" class="st5 st4">+setDemandPattern(pattern: String): void</text>
<text transform="matrix(1 0 0 1 2631.1001 2461.7117)" class="st5 st4">+getDemandCategories(): null[*]</text>
<text transform="matrix(1 0 0 1 2631.1001 2476.7117)" class="st5 st4">+getEmitter(): Emitter</text>
<text transform="matrix(1 0 0 1 2631.1001 2491.7117)" class="st5 st4">+setEmitter(emitter: Emitter): void</text>
<text transform="matrix(1 0 0 1 2631.1001 2506.7117)" class="st5 st4">+toString(): String</text>
<text transform="matrix(1 0 0 1 2631.1001 2521.7117)" class="st5 st4">+copy(): Junction</text>
<g transform="translate(-1078,-54) scale(1,1)">
	<path class="st2" d="M3703.1,2386.2l-739-219"/>
</g>
<g transform="translate(-1078,-54) scale(1,1)">
	<path class="st1" d="M2986,2164.9l-21.9,2.3l17.1,13.8"/>
</g>
<g transform="translate(-1078,-54) scale(1,1)">
	<path class="st2" d="M2986,2164.9l-21.9,2.3l17.1,13.8L2986,2164.9"/>
</g>
<g transform="translate(-1078,-54) scale(1,1)">
	<rect x="1927.1" y="1996.2" class="st0" width="186.4" height="162"/>
</g>
<g transform="translate(-1078,-54) scale(1,1)">
	<rect x="1920.1" y="1989.2" class="st1" width="186.4" height="162"/>
</g>
<g transform="translate(-1078,-54) scale(1,1)">
	<path class="st2" d="M1920.1,1989.2h186.4v162h-186.4V1989.2z"/>
</g>
<g transform="translate(-1078,-54) scale(1,1)">
	<path class="st2" d="M1920.1,2029.2h186.4"/>
</g>
<g transform="translate(-1078,-54) scale(1,1)">
	<path class="st2" d="M1920.1,2039.2h186.4"/>
</g>
<text transform="matrix(1 0 0 1 923.3876 1954.7115)" class="st6 st4">Link</text>
<text transform="matrix(1 0 0 1 861.2567 1969.7115)" class="st5 st4">(from networkcomponent)</text>
<text transform="matrix(1 0 0 1 847.1 2002.7115)" class="st5 st4">+getVertices(): null[*]</text>
<text transform="matrix(1 0 0 1 847.1 2017.7115)" class="st5 st4">+getNode1(): Node</text>
<text transform="matrix(1 0 0 1 847.1 2032.7115)" class="st5 st4">+setNode1(node1: Node): void</text>
<text transform="matrix(1 0 0 1 847.1 2047.7115)" class="st5 st4">+getNode2(): Node</text>
<text transform="matrix(1 0 0 1 847.1 2062.7117)" class="st5 st4">+setNode2(node2: Node): void</text>
<text transform="matrix(1 0 0 1 847.1 2077.7117)" class="st5 st4">+toString(): String</text>
<text transform="matrix(1 0 0 1 847.1 2092.7117)" class="st7 st4">+copy(): Link</text>
<g transform="translate(-1078,-54) scale(1,1)">
	<path class="st2" d="M2107.1,2040.2l236-75"/>
</g>
<g transform="translate(-1078,-54) scale(1,1)">
	<path class="st1" d="M2326.3,1979.4l16.8-14.2l-21.9-1.9"/>
</g>
<g transform="translate(-1078,-54) scale(1,1)">
	<path class="st2" d="M2326.3,1979.4l16.8-14.2l-21.9-1.9L2326.3,1979.4"/>
</g>
<g transform="translate(-1078,-54) scale(1,1)">
	<rect x="1375.1" y="2412.2" class="st0" width="341.9" height="310"/>
</g>
<g transform="translate(-1078,-54) scale(1,1)">
	<rect x="1368.1" y="2405.2" class="st1" width="341.9" height="310"/>
</g>
<g transform="translate(-1078,-54) scale(1,1)">
	<path class="st2" d="M1368.1,2405.2H1710v310h-341.9V2405.2z"/>
</g>
<g transform="translate(-1078,-54) scale(1,1)">
	<path class="st2" d="M1368.1,2460.2H1710"/>
</g>
<g transform="translate(-1078,-54) scale(1,1)">
	<path class="st2" d="M1368.1,2498.2H1710"/>
</g>
<text transform="matrix(1 0 0 1 445.2521 2370.7117)" class="st3 st4">Valve</text>
<text transform="matrix(1 0 0 1 386.9743 2385.7117)" class="st5 st4">(from networkcomponent)</text>
<text transform="matrix(1 0 0 1 597.3148 2400.7117)" class="st5 st4">{leaf}</text>
<text transform="matrix(1 0 0 1 295.1 2423.7117)" class="st5 st4">+DEFAULT_DIAMETER: double = 12 {readOnly}</text>
<path class="st2" d="M295.1,2423.7h280.1"/>
<text transform="matrix(1 0 0 1 295.1 2438.7117)" class="st5 st4">+DEFAULT_LOSS_COEFFICIENT: double = 0 {readOnly}</text>
<path class="st2" d="M295.1,2438.7H628"/>
<text transform="matrix(1 0 0 1 295.1 2461.7117)" class="st5 st4">«constructor»+Valve()</text>
<text transform="matrix(1 0 0 1 295.1 2476.7117)" class="st5 st4">«constructor»+Valve(valve: Valve)</text>
<text transform="matrix(1 0 0 1 295.1 2491.7117)" class="st5 st4">+getDiameter(): double</text>
<text transform="matrix(1 0 0 1 295.1 2506.7117)" class="st5 st4">+setDiameter(diameter: double): void</text>
<text transform="matrix(1 0 0 1 295.1 2521.7117)" class="st5 st4">+getType(): ValveType</text>
<text transform="matrix(1 0 0 1 295.1 2536.7117)" class="st5 st4">+setType(type: ValveType): void</text>
<text transform="matrix(1 0 0 1 295.1 2551.7117)" class="st5 st4">+getSetting(): String</text>
<text transform="matrix(1 0 0 1 295.1 2566.7117)" class="st5 st4">+setSetting(setting: String): void</text>
<text transform="matrix(1 0 0 1 295.1 2581.7117)" class="st5 st4">+getLossCoefficient(): double</text>
<text transform="matrix(1 0 0 1 295.1 2596.7117)" class="st5 st4">+setLossCoefficient(minorLoss: double): void</text>
<text transform="matrix(1 0 0 1 295.1 2611.7117)" class="st5 st4">+getFixedStatus(): ValveStatus</text>
<text transform="matrix(1 0 0 1 295.1 2626.7117)" class="st5 st4">+setFixedStatus(fixedStatus: ValveStatus): void</text>
<text transform="matrix(1 0 0 1 295.1 2641.7117)" class="st5 st4">+toString(): String</text>
<text transform="matrix(1 0 0 1 295.1 2656.7117)" class="st5 st4">+copy(): Valve</text>
<g transform="translate(-1078,-54) scale(1,1)">
	<path class="st2" d="M1689.1,2404.2l245-252"/>
</g>
<g transform="translate(-1078,-54) scale(1,1)">
	<path class="st1" d="M1926,2172.6l8.1-20.4l-20.2,8.7"/>
</g>
<g transform="translate(-1078,-54) scale(1,1)">
	<path class="st2" d="M1926,2172.6l8.1-20.4l-20.2,8.7L1926,2172.6"/>
</g>
<g transform="translate(-1078,-54) scale(1,1)">
	<rect x="3151.1" y="2492.2" class="st0" width="342" height="475"/>
</g>
<g transform="translate(-1078,-54) scale(1,1)">
	<rect x="3144.1" y="2485.2" class="st1" width="342" height="475"/>
</g>
<g transform="translate(-1078,-54) scale(1,1)">
	<path class="st2" d="M3144.1,2485.2h342v475h-342V2485.2z"/>
</g>
<g transform="translate(-1078,-54) scale(1,1)">
	<path class="st2" d="M3144.1,2540.2h342"/>
</g>
<g transform="translate(-1078,-54) scale(1,1)">
	<path class="st2" d="M3144.1,2638.2h342"/>
</g>
<text transform="matrix(1 0 0 1 2223.3755 2450.7117)" class="st3 st4">Tank</text>
<text transform="matrix(1 0 0 1 2163.0505 2465.7117)" class="st5 st4">(from networkcomponent)</text>
<text transform="matrix(1 0 0 1 2373.4673 2480.7117)" class="st5 st4">{leaf}</text>
<text transform="matrix(1 0 0 1 2071.1001 2503.7117)" class="st5 st4">+DEFAULT_ELEVATION: double = 0 {readOnly}</text>
<path class="st2" d="M2071.1,2503.7h276.8"/>
<text transform="matrix(1 0 0 1 2071.1001 2518.7117)" class="st5 st4">+DEFAULT_INITIAL_LEVEL: double = 10 {readOnly}</text>
<path class="st2" d="M2071.1,2518.7h304.7"/>
<text transform="matrix(1 0 0 1 2071.1001 2533.7117)" class="st5 st4">+DEFAULT_MINIMUM_LEVEL: double = 0 {readOnly}</text>
<path class="st2" d="M2071.1,2533.7H2383"/>
<text transform="matrix(1 0 0 1 2071.1001 2548.7117)" class="st5 st4">+DEFAULT_MAXIMUM_LEVEL: double = 20 {readOnly}</text>
<path class="st2" d="M2071.1,2548.7h323.5"/>
<text transform="matrix(1 0 0 1 2071.1001 2563.7117)" class="st5 st4">+DEFAULT_DIAMETER: double = 50 {readOnly}</text>
<path class="st2" d="M2071.1,2563.7h280.1"/>
<text transform="matrix(1 0 0 1 2071.1001 2578.7117)" class="st5 st4">+DEFAULT_MINIMUM_VOLUME: double = 0 {readOnly}</text>
<path class="st2" d="M2071.1,2578.7h326.3"/>
<text transform="matrix(1 0 0 1 2071.1001 2601.7117)" class="st5 st4">«constructor»+Tank()</text>
<text transform="matrix(1 0 0 1 2071.1001 2616.7117)" class="st5 st4">«constructor»+Tank(tank: Tank)</text>
<text transform="matrix(1 0 0 1 2071.1001 2631.7117)" class="st5 st4">+getElevation(): double</text>
<text transform="matrix(1 0 0 1 2071.1001 2646.7117)" class="st5 st4">+setElevation(elev: double): void</text>
<text transform="matrix(1 0 0 1 2071.1001 2661.7117)" class="st5 st4">+getInitialLevel(): double</text>
<text transform="matrix(1 0 0 1 2071.1001 2676.7117)" class="st5 st4">+setInitialLevel(initLvl: double): void</text>
<text transform="matrix(1 0 0 1 2071.1001 2691.7117)" class="st5 st4">+getMinimumLevel(): double</text>
<text transform="matrix(1 0 0 1 2071.1001 2706.7117)" class="st5 st4">+setMinimumLevel(minLvl: double): void</text>
<text transform="matrix(1 0 0 1 2071.1001 2721.7117)" class="st5 st4">+getMaximumLevel(): double</text>
<text transform="matrix(1 0 0 1 2071.1001 2736.7117)" class="st5 st4">+setMaximumLevel(maxLvl: double): void</text>
<text transform="matrix(1 0 0 1 2071.1001 2751.7117)" class="st5 st4">+getDiameter(): double</text>
<text transform="matrix(1 0 0 1 2071.1001 2766.7117)" class="st5 st4">+setDiameter(diam: double): void</text>
<text transform="matrix(1 0 0 1 2071.1001 2781.7117)" class="st5 st4">+getMinimumVolume(): double</text>
<text transform="matrix(1 0 0 1 2071.1001 2796.7117)" class="st5 st4">+setMinimumVolume(minVol: double): void</text>
<text transform="matrix(1 0 0 1 2071.1001 2811.7117)" class="st5 st4">+getVolumeCurve(): String</text>
<text transform="matrix(1 0 0 1 2071.1001 2826.7117)" class="st5 st4">+setVolumeCurve(volCurve: String): void</text>
<text transform="matrix(1 0 0 1 2071.1001 2841.7117)" class="st5 st4">+getMixing(): null</text>
<text transform="matrix(1 0 0 1 2071.1001 2856.7117)" class="st5 st4">+getReactionCoefficient(): Double</text>
<text transform="matrix(1 0 0 1 2071.1001 2871.7117)" class="st5 st4">+setReactionCoefficient(reactionCoefficient: Double): void</text>
<text transform="matrix(1 0 0 1 2071.1001 2886.7117)" class="st5 st4">+toString(): String</text>
<text transform="matrix(1 0 0 1 2071.1001 2901.7117)" class="st5 st4">+copy(): Tank</text>
<g transform="translate(-1078,-54) scale(1,1)">
	<path class="st2" d="M3143.1,2514.2l-248-299"/>
</g>
<g transform="translate(-1078,-54) scale(1,1)">
	<path class="st1" d="M2914.6,2225.5l-19.5-10.3l6.5,21"/>
</g>
<g transform="translate(-1078,-54) scale(1,1)">
	<path class="st2" d="M2914.6,2225.5l-19.5-10.3l6.5,21L2914.6,2225.5"/>
</g>
<g transform="translate(-1078,-54) scale(1,1)">
	<rect x="1751.1" y="2484.2" class="st0" width="341.9" height="400"/>
</g>
<g transform="translate(-1078,-54) scale(1,1)">
	<rect x="1744.1" y="2477.2" class="st1" width="341.9" height="400"/>
</g>
<g transform="translate(-1078,-54) scale(1,1)">
	<path class="st2" d="M1744.1,2477.2H2086v400h-341.9V2477.2z"/>
</g>
<g transform="translate(-1078,-54) scale(1,1)">
	<path class="st2" d="M1744.1,2532.2H2086"/>
</g>
<g transform="translate(-1078,-54) scale(1,1)">
	<path class="st2" d="M1744.1,2600.2H2086"/>
</g>
<text transform="matrix(1 0 0 1 824.0197 2442.7117)" class="st3 st4">Pipe</text>
<text transform="matrix(1 0 0 1 762.9742 2457.7117)" class="st5 st4">(from networkcomponent)</text>
<text transform="matrix(1 0 0 1 973.3148 2472.7117)" class="st5 st4">{leaf}</text>
<text transform="matrix(1 0 0 1 671.1 2495.7117)" class="st5 st4">+DEFAULT_LENGTH: double = 1000 {readOnly}</text>
<path class="st2" d="M671.1,2495.7h280.1"/>
<text transform="matrix(1 0 0 1 671.1 2510.7117)" class="st5 st4">+DEFAULT_DIAMETER: double = 12 {readOnly}</text>
<path class="st2" d="M671.1,2510.7h280.1"/>
<text transform="matrix(1 0 0 1 671.1 2525.7117)" class="st5 st4">+DEFAULT_ROUGHNESS: double = 100 {readOnly}</text>
<path class="st2" d="M671.1,2525.7h304"/>
<text transform="matrix(1 0 0 1 671.1 2540.7117)" class="st5 st4">+DEFAULT_LOSS_COEFFICIENT: double = 0 {readOnly}</text>
<path class="st2" d="M671.1,2540.7H1004"/>
<text transform="matrix(1 0 0 1 671.1 2563.7117)" class="st5 st4">«constructor»+Pipe()</text>
<text transform="matrix(1 0 0 1 671.1 2578.7117)" class="st5 st4">«constructor»+Pipe(pipe: Pipe)</text>
<text transform="matrix(1 0 0 1 671.1 2593.7117)" class="st5 st4">+getLength(): double</text>
<text transform="matrix(1 0 0 1 671.1 2608.7117)" class="st5 st4">+setLength(length: double): void</text>
<text transform="matrix(1 0 0 1 671.1 2623.7117)" class="st5 st4">+getDiameter(): double</text>
<text transform="matrix(1 0 0 1 671.1 2638.7117)" class="st5 st4">+setDiameter(diam: double): void</text>
<text transform="matrix(1 0 0 1 671.1 2653.7117)" class="st5 st4">+getRoughness(): double</text>
<text transform="matrix(1 0 0 1 671.1 2668.7117)" class="st5 st4">+setRoughness(roughness: double): void</text>
<text transform="matrix(1 0 0 1 671.1 2683.7117)" class="st5 st4">+getLossCoefficient(): double</text>
<text transform="matrix(1 0 0 1 671.1 2698.7117)" class="st5 st4">+setLossCoefficient(mloss: double): void</text>
<text transform="matrix(1 0 0 1 671.1 2713.7117)" class="st5 st4">+getStatus(): PipeStatus</text>
<text transform="matrix(1 0 0 1 671.1 2728.7117)" class="st5 st4">+setStatus(status: PipeStatus): void</text>
<text transform="matrix(1 0 0 1 671.1 2743.7117)" class="st5 st4">+getBulkCoefficient(): Double</text>
<text transform="matrix(1 0 0 1 671.1 2758.7117)" class="st5 st4">+setBulkCoefficient(bulkCoefficient: Double): void</text>
<text transform="matrix(1 0 0 1 671.1 2773.7117)" class="st5 st4">+getWallCoefficient(): Double</text>
<text transform="matrix(1 0 0 1 671.1 2788.7117)" class="st5 st4">+setWallCoefficient(wallCoefficient: Double): void</text>
<text transform="matrix(1 0 0 1 671.1 2803.7117)" class="st5 st4">+toString(): String</text>
<text transform="matrix(1 0 0 1 671.1 2818.7117)" class="st5 st4">+copy(): Pipe</text>
<g transform="translate(-1078,-54) scale(1,1)">
	<path class="st2" d="M1947.1,2476.2l53-324"/>
</g>
<g transform="translate(-1078,-54) scale(1,1)">
	<path class="st1" d="M2005.1,2173.6l-5-21.4l-11.6,18.7"/>
</g>
<g transform="translate(-1078,-54) scale(1,1)">
	<path class="st2" d="M2005.1,2173.6l-5-21.4l-11.6,18.7L2005.1,2173.6"/>
</g>
<g transform="translate(-1078,-54) scale(1,1)">
	<rect x="3511.1" y="2028.2" class="st0" width="298.8" height="205"/>
</g>
<g transform="translate(-1078,-54) scale(1,1)">
	<rect x="3504.1" y="2021.2" class="st1" width="298.8" height="205"/>
</g>
<g transform="translate(-1078,-54) scale(1,1)">
	<path class="st2" d="M3504.1,2021.2h298.8v205h-298.8V2021.2z"/>
</g>
<g transform="translate(-1078,-54) scale(1,1)">
	<path class="st2" d="M3504.1,2076.2h298.8"/>
</g>
<g transform="translate(-1078,-54) scale(1,1)">
	<path class="st2" d="M3504.1,2099.2h298.8"/>
</g>
<text transform="matrix(1 0 0 1 2547.6699 1986.7115)" class="st3 st4">Reservoir</text>
<text transform="matrix(1 0 0 1 2501.4272 2001.7115)" class="st5 st4">(from networkcomponent)</text>
<text transform="matrix(1 0 0 1 2690.2207 2016.7115)" class="st5 st4">{leaf}</text>
<text transform="matrix(1 0 0 1 2431.1001 2039.7115)" class="st5 st4">+DEFAULT_TOTAL_HEAD: double = 0 {readOnly}</text>
<path class="st2" d="M2431.1,2039.7h289.8"/>
<text transform="matrix(1 0 0 1 2431.1001 2062.7117)" class="st5 st4">«constructor»+Reservoir()</text>
<text transform="matrix(1 0 0 1 2431.1001 2077.7117)" class="st5 st4">«constructor»+Reservoir(reservoir: Reservoir)</text>
<text transform="matrix(1 0 0 1 2431.1001 2092.7117)" class="st5 st4">+getTotalHead(): double</text>
<text transform="matrix(1 0 0 1 2431.1001 2107.7117)" class="st5 st4">+setTotalHead(head: double): void</text>
<text transform="matrix(1 0 0 1 2431.1001 2122.7117)" class="st5 st4">+getHeadPattern(): String</text>
<text transform="matrix(1 0 0 1 2431.1001 2137.7117)" class="st5 st4">+setHeadPattern(pattern: String): void</text>
<text transform="matrix(1 0 0 1 2431.1001 2152.7117)" class="st5 st4">+toString(): String</text>
<text transform="matrix(1 0 0 1 2431.1001 2167.7117)" class="st5 st4">+copy(): Reservoir</text>
<g transform="translate(-1078,-54) scale(1,1)">
	<path class="st2" d="M3503.1,2123.2l-539,2"/>
</g>
<g transform="translate(-1078,-54) scale(1,1)">
	<path class="st1" d="M2984.4,2116.7l-20.3,8.5l20.4,8.3"/>
</g>
<g transform="translate(-1078,-54) scale(1,1)">
	<path class="st2" d="M2984.4,2116.7l-20.3,8.5l20.4,8.3L2984.4,2116.7"/>
</g>
<g transform="translate(-1078,-54) scale(1,1)">
	<rect x="1271.1" y="2076.2" class="st0" width="315.5" height="297"/>
</g>
<g transform="translate(-1078,-54) scale(1,1)">
	<rect x="1264.1" y="2069.2" class="st1" width="315.5" height="297"/>
</g>
<g transform="translate(-1078,-54) scale(1,1)">
	<path class="st2" d="M1264.1,2069.2h315.5v297h-315.5V2069.2z"/>
</g>
<g transform="translate(-1078,-54) scale(1,1)">
	<path class="st2" d="M1264.1,2124.2h315.5"/>
</g>
<g transform="translate(-1078,-54) scale(1,1)">
	<path class="st2" d="M1264.1,2134.2h315.5"/>
</g>
<text transform="matrix(1 0 0 1 326.8556 2034.7115)" class="st3 st4">Pump</text>
<text transform="matrix(1 0 0 1 269.7807 2049.7117)" class="st5 st4">(from networkcomponent)</text>
<text transform="matrix(1 0 0 1 466.9276 2064.7117)" class="st5 st4">{leaf}</text>
<text transform="matrix(1 0 0 1 191.1 2097.7117)" class="st5 st4">«constructor»+Pump()</text>
<text transform="matrix(1 0 0 1 191.1 2112.7117)" class="st5 st4">«constructor»+Pump(pump: Pump)</text>
<text transform="matrix(1 0 0 1 191.1 2127.7117)" class="st5 st4">+getProperty(key: PumpProperty): null</text>
<text transform="matrix(1 0 0 1 191.1 2142.7117)" class="st5 st4">+setProperty(key: PumpProperty, value): void</text>
<text transform="matrix(1 0 0 1 191.1 2157.7117)" class="st5 st4">+getPropertyKeys(): null[*]</text>
<text transform="matrix(1 0 0 1 191.1 2172.7117)" class="st5 st4">+getStatus(): PumpStatus</text>
<text transform="matrix(1 0 0 1 191.1 2187.7117)" class="st5 st4">+setStatus(status: PumpStatus): void</text>
<text transform="matrix(1 0 0 1 191.1 2202.7117)" class="st5 st4">+getEfficiencyCurve(): String</text>
<text transform="matrix(1 0 0 1 191.1 2217.7117)" class="st5 st4">+setEfficiencyCurve(efficiencyCurve: String): void</text>
<text transform="matrix(1 0 0 1 191.1 2232.7117)" class="st5 st4">+getEnergyPrice(): Double</text>
<text transform="matrix(1 0 0 1 191.1 2247.7117)" class="st5 st4">+setEnergyPrice(energyPrice: Double): void</text>
<text transform="matrix(1 0 0 1 191.1 2262.7117)" class="st5 st4">+getPricePattern(): String</text>
<text transform="matrix(1 0 0 1 191.1 2277.7117)" class="st5 st4">+setPricePattern(pricePattern: String): void</text>
<text transform="matrix(1 0 0 1 191.1 2292.7117)" class="st5 st4">+toString(): String</text>
<text transform="matrix(1 0 0 1 191.1 2307.7117)" class="st5 st4">+copy(): Pump</text>
<g transform="translate(-1078,-54) scale(1,1)">
	<path class="st2" d="M1580.1,2177.2l339-84"/>
</g>
<g transform="translate(-1078,-54) scale(1,1)">
	<path class="st1" d="M1901.4,2106.3l17.7-13.1l-21.8-3.3"/>
</g>
<g transform="translate(-1078,-54) scale(1,1)">
	<path class="st2" d="M1901.4,2106.3l17.7-13.1l-21.8-3.3L1901.4,2106.3"/>
</g>
<g transform="translate(-1078,-54) scale(1,1)">
	<rect x="3583.1" y="2748.2" class="st0" width="239.4" height="162"/>
</g>
<g transform="translate(-1078,-54) scale(1,1)">
	<rect x="3576.1" y="2741.2" class="st1" width="239.4" height="162"/>
</g>
<g transform="translate(-1078,-54) scale(1,1)">
	<path class="st2" d="M3576.1,2741.2h239.4v162h-239.4V2741.2z"/>
</g>
<g transform="translate(-1078,-54) scale(1,1)">
	<path class="st2" d="M3576.1,2796.2h239.4"/>
</g>
<g transform="translate(-1078,-54) scale(1,1)">
	<path class="st2" d="M3576.1,2806.2h239.4"/>
</g>
<text transform="matrix(1 0 0 1 2597.2183 2706.7117)" class="st3 st4">Emitter</text>
<text transform="matrix(1 0 0 1 2543.7488 2721.7117)" class="st5 st4">(from networkcomponent)</text>
<text transform="matrix(1 0 0 1 2702.8638 2736.7117)" class="st5 st4">{leaf}</text>
<text transform="matrix(1 0 0 1 2503.1001 2769.7117)" class="st5 st4">«constructor»+Emitter()</text>
<text transform="matrix(1 0 0 1 2503.1001 2784.7117)" class="st5 st4">«constructor»+Emitter(emitter: Emitter)</text>
<text transform="matrix(1 0 0 1 2503.1001 2799.7117)" class="st5 st4">+getCoefficient(): double</text>
<text transform="matrix(1 0 0 1 2503.1001 2814.7117)" class="st5 st4">+setCoefficient(coefficient: double): void</text>
<text transform="matrix(1 0 0 1 2503.1001 2829.7117)" class="st5 st4">+toString(): String</text>
<text transform="matrix(1 0 0 1 2503.1001 2844.7117)" class="st5 st4">+copy(): Emitter</text>
<g transform="translate(-1078,-54) scale(1,1)">
	<path class="st2" d="M3730.1,2740.2l67-159"/>
</g>
<g transform="translate(-1078,-54) scale(1,1)">
	<path d="M3797,2592.2l0.1-11l-7.8,7.7l-0.7,12.5"/>
</g>
<g transform="translate(-1078,-54) scale(1,1)">
	<path class="st2" d="M3797,2592.2l0.1-11l-7.8,7.7l-0.7,12.5L3797,2592.2"/>
</g>
<text transform="matrix(1 0 0 1 2660.6001 2676.7117)" class="st5 st4">0..1</text>
<g transform="translate(-1078,-54) scale(1,1)">
	<path class="st2" d="M2848.1,2036.2l193-642"/>
</g>
<g transform="translate(-1078,-54) scale(1,1)">
	<path d="M3042.2,1405.1l-1.1-10.9l-7,8.5l0.6,12.5"/>
</g>
<g transform="translate(-1078,-54) scale(1,1)">
	<path class="st2" d="M3042.2,1405.1l-1.1-10.9l-7,8.5l0.6,12.5L3042.2,1405.1"/>
</g>
<text transform="matrix(1 0 0 1 1785.3204 1970.7115)" class="st5 st4">*</text>
<g transform="translate(-1078,-54) scale(1,1)">
	<path class="st2" d="M2099.1,1988.2l916-874"/>
</g>
<g transform="translate(-1078,-54) scale(1,1)">
	<path d="M3010.7,1124.3l4.4-10.1l-10.3,4l-5.7,11.2"/>
</g>
<g transform="translate(-1078,-54) scale(1,1)">
	<path class="st2" d="M3010.7,1124.3l4.4-10.1l-10.3,4l-5.7,11.2L3010.7,1124.3"/>
</g>
<text transform="matrix(1 0 0 1 1042.3204 1934.7115)" class="st5 st4">*</text>
<g transform="translate(-1078,-54) scale(1,1)">
	<rect x="3831.1" y="76.2" class="st0" width="625" height="312"/>
</g>
<g transform="translate(-1078,-54) scale(1,1)">
	<rect x="3824.1" y="69.2" class="st1" width="625" height="312"/>
</g>
<g transform="translate(-1078,-54) scale(1,1)">
	<path class="st2" d="M3824.1,69.2h625v312h-625V69.2z"/>
</g>
<g transform="translate(-1078,-54) scale(1,1)">
	<path class="st2" d="M3824.1,124.2h625"/>
</g>
<g transform="translate(-1078,-54) scale(1,1)">
	<path class="st2" d="M3824.1,134.2h625"/>
</g>
<text transform="matrix(1 0 0 1 3031.1602 34.7116)" class="st3 st4">Backdrop</text>
<text transform="matrix(1 0 0 1 2997.5715 49.7116)" class="st5 st4">(from networkdesign)</text>
<text transform="matrix(1 0 0 1 3336.4966 64.7116)" class="st5 st4">{leaf}</text>
<text transform="matrix(1 0 0 1 2751.1001 97.7116)" class="st5 st4">«constructor»+Backdrop()</text>
<text transform="matrix(1 0 0 1 2751.1001 112.7116)" class="st5 st4">«constructor»+Backdrop(backdrop: Backdrop)</text>
<text transform="matrix(1 0 0 1 2751.1001 127.7116)" class="st5 st4">+getXBottomLeft(): double</text>
<text transform="matrix(1 0 0 1 2751.1001 142.7116)" class="st5 st4">+getYBottomLeft(): double</text>
<text transform="matrix(1 0 0 1 2751.1001 157.7116)" class="st5 st4">+getXUpperRight(): double</text>
<text transform="matrix(1 0 0 1 2751.1001 172.7116)" class="st5 st4">+getYUpperRight(): double</text>
<text transform="matrix(1 0 0 1 2751.1001 187.7116)" class="st5 st4">+setDimension(xBottomLeft: double, yBottomLeft: double, xUpperRight: double, yUpperRight: double): void</text>
<text transform="matrix(1 0 0 1 2751.1001 202.7116)" class="st5 st4">+getUnit(): Unit</text>
<text transform="matrix(1 0 0 1 2751.1001 217.7116)" class="st5 st4">+setUnit(unit: Unit): void</text>
<text transform="matrix(1 0 0 1 2751.1001 232.7116)" class="st5 st4">+getFile(): String</text>
<text transform="matrix(1 0 0 1 2751.1001 247.7116)" class="st5 st4">+setFile(file: String): void</text>
<text transform="matrix(1 0 0 1 2751.1001 262.7116)" class="st5 st4">+getXOffset(): double</text>
<text transform="matrix(1 0 0 1 2751.1001 277.7116)" class="st5 st4">+getYOffset(): double</text>
<text transform="matrix(1 0 0 1 2751.1001 292.7116)" class="st5 st4">+setOffset(x: double, y: double): void</text>
<text transform="matrix(1 0 0 1 2751.1001 307.7116)" class="st5 st4">+toString(): String</text>
<text transform="matrix(1 0 0 1 2751.1001 322.7116)" class="st5 st4">+copy(): Backdrop</text>
<g transform="translate(-1078,-54) scale(1,1)">
	<rect x="4271.1" y="428.2" class="st0" width="257.9" height="222"/>
</g>
<g transform="translate(-1078,-54) scale(1,1)">
	<rect x="4264.1" y="421.2" class="st1" width="257.9" height="222"/>
</g>
<g transform="translate(-1078,-54) scale(1,1)">
	<path class="st2" d="M4264.1,421.2H4522v222h-257.9V421.2z"/>
</g>
<g transform="translate(-1078,-54) scale(1,1)">
	<path class="st2" d="M4264.1,476.2H4522"/>
</g>
<g transform="translate(-1078,-54) scale(1,1)">
	<path class="st2" d="M4264.1,486.2H4522"/>
</g>
<text transform="matrix(1 0 0 1 3299.1675 386.7116)" class="st3 st4">Label</text>
<text transform="matrix(1 0 0 1 3254.0229 401.7116)" class="st5 st4">(from networkdesign)</text>
<text transform="matrix(1 0 0 1 3409.3989 416.7116)" class="st5 st4">{leaf}</text>
<text transform="matrix(1 0 0 1 3191.1001 449.7116)" class="st5 st4">«constructor»+Label()</text>
<text transform="matrix(1 0 0 1 3191.1001 464.7116)" class="st5 st4">«constructor»+Label(label: Label)</text>
<text transform="matrix(1 0 0 1 3191.1001 479.7116)" class="st5 st4">+getPosition(): null</text>
<text transform="matrix(1 0 0 1 3191.1001 494.7116)" class="st5 st4">+setPosition(point): void</text>
<text transform="matrix(1 0 0 1 3191.1001 509.7116)" class="st5 st4">+getLabel(): String</text>
<text transform="matrix(1 0 0 1 3191.1001 524.7115)" class="st5 st4">+setLabel(text: String): void</text>
<text transform="matrix(1 0 0 1 3191.1001 539.7115)" class="st5 st4">+getAnchorNode(): String</text>
<text transform="matrix(1 0 0 1 3191.1001 554.7115)" class="st5 st4">+setAnchorNode(anchorNode: String): void</text>
<text transform="matrix(1 0 0 1 3191.1001 569.7115)" class="st5 st4">+toString(): String</text>
<text transform="matrix(1 0 0 1 3191.1001 584.7115)" class="st5 st4">+copy(): Label</text>
<g transform="translate(-1078,-54) scale(1,1)">
	<rect x="2383.1" y="2180.2" class="st0" width="182.8" height="192"/>
</g>
<g transform="translate(-1078,-54) scale(1,1)">
	<rect x="2376.1" y="2173.2" class="st1" width="182.8" height="192"/>
</g>
<g transform="translate(-1078,-54) scale(1,1)">
	<path class="st2" d="M2376.1,2173.2h182.8v192h-182.8V2173.2z"/>
</g>
<g transform="translate(-1078,-54) scale(1,1)">
	<path class="st2" d="M2376.1,2228.2h182.8"/>
</g>
<g transform="translate(-1078,-54) scale(1,1)">
	<path class="st2" d="M2376.1,2238.2h182.8"/>
</g>
<text transform="matrix(1 0 0 1 1379.0131 2138.7117)" class="st3 st4">Tag</text>
<text transform="matrix(1 0 0 1 1328.4445 2153.7117)" class="st5 st4">(from networkdesign)</text>
<text transform="matrix(1 0 0 1 1446.2426 2168.7117)" class="st5 st4">{leaf}</text>
<text transform="matrix(1 0 0 1 1303.1 2201.7117)" class="st5 st4">«constructor»+Tag()</text>
<text transform="matrix(1 0 0 1 1303.1 2216.7117)" class="st5 st4">«constructor»+Tag(tag: Tag)</text>
<text transform="matrix(1 0 0 1 1303.1 2231.7117)" class="st5 st4">+getType(): TagType</text>
<text transform="matrix(1 0 0 1 1303.1 2246.7117)" class="st5 st4">+setType(type: TagType): void</text>
<text transform="matrix(1 0 0 1 1303.1 2261.7117)" class="st5 st4">+getLabel(): String</text>
<text transform="matrix(1 0 0 1 1303.1 2276.7117)" class="st5 st4">+setLabel(label: String): void</text>
<text transform="matrix(1 0 0 1 1303.1 2291.7117)" class="st5 st4">+toString(): String</text>
<text transform="matrix(1 0 0 1 1303.1 2306.7117)" class="st5 st4">+copy(): Tag</text>
<g transform="translate(-1078,-54) scale(1,1)">
	<path class="st2" d="M2466.1,2172.2l-1-164"/>
</g>
<g transform="translate(-1078,-54) scale(1,1)">
	<path d="M2469.4,2018.3l-4.3-10.1l-4.1,10.2l4.3,11.8"/>
</g>
<g transform="translate(-1078,-54) scale(1,1)">
	<path class="st2" d="M2469.4,2018.3l-4.3-10.1l-4.1,10.2l4.3,11.8L2469.4,2018.3"/>
</g>
<text transform="matrix(1 0 0 1 1389.6 2102.7117)" class="st5 st4">0..1</text>
<g transform="translate(-1078,-54) scale(1,1)">
	<path class="st2" d="M4263.1,578.2l-940,334"/>
</g>
<g transform="translate(-1078,-54) scale(1,1)">
	<path d="M3331.3,904.8l-8.2,7.4l11,0.6l9.7-7.9"/>
</g>
<g transform="translate(-1078,-54) scale(1,1)">
	<path class="st2" d="M3331.3,904.8l-8.2,7.4l11,0.6l9.7-7.9L3331.3,904.8"/>
</g>
<text transform="matrix(1 0 0 1 3157.3208 525.7115)" class="st5 st4">*</text>
<g transform="translate(-1078,-54) scale(1,1)">
	<path class="st2" d="M3931.1,382.2l-608,467"/>
</g>
<g transform="translate(-1078,-54) scale(1,1)">
	<path d="M3328.6,839.7l-5.5,9.5l10.6-2.9l6.8-10.5"/>
</g>
<g transform="translate(-1078,-54) scale(1,1)">
	<path class="st2" d="M3328.6,839.7l-5.5,9.5l10.6-2.9l6.8-10.5L3328.6,839.7"/>
</g>
<text transform="matrix(1 0 0 1 2824.6001 337.7116)" class="st5 st4">1</text>
<g transform="translate(-1078,-54) scale(1,1)">
	<rect x="4351.1" y="716.2" class="st0" width="384.3" height="582"/>
</g>
<g transform="translate(-1078,-54) scale(1,1)">
	<rect x="4344.1" y="709.2" class="st1" width="384.3" height="582"/>
</g>
<g transform="translate(-1078,-54) scale(1,1)">
	<path class="st2" d="M4344.1,709.2h384.3v582h-384.3V709.2z"/>
</g>
<g transform="translate(-1078,-54) scale(1,1)">
	<path class="st2" d="M4344.1,764.2h384.3"/>
</g>
<g transform="translate(-1078,-54) scale(1,1)">
	<path class="st2" d="M4344.1,774.2h384.3"/>
</g>
<text transform="matrix(1 0 0 1 3439.124 674.7115)" class="st3 st4">Option</text>
<text transform="matrix(1 0 0 1 3401.1997 689.7115)" class="st5 st4">(from optionsreport)</text>
<text transform="matrix(1 0 0 1 3615.8062 704.7115)" class="st5 st4">{leaf}</text>
<text transform="matrix(1 0 0 1 3271.1001 737.7115)" class="st5 st4">«constructor»+Option()</text>
<text transform="matrix(1 0 0 1 3271.1001 752.7115)" class="st5 st4">«constructor»+Option(option: Option)</text>
<text transform="matrix(1 0 0 1 3271.1001 767.7115)" class="st5 st4">+getFlowUnit(): FlowUnit</text>
<text transform="matrix(1 0 0 1 3271.1001 782.7115)" class="st5 st4">+setFlowUnit(flowUnit: FlowUnit): void</text>
<text transform="matrix(1 0 0 1 3271.1001 797.7115)" class="st5 st4">+getHeadlossFormule(): HeadlossFormule</text>
<text transform="matrix(1 0 0 1 3271.1001 812.7115)" class="st5 st4">+setHeadlossFormule(headlossFormule: HeadlossFormule): void</text>
<text transform="matrix(1 0 0 1 3271.1001 827.7115)" class="st5 st4">+getHydraulic(): String</text>
<text transform="matrix(1 0 0 1 3271.1001 842.7115)" class="st5 st4">+setHydraulic(hydraulic: String): void</text>
<text transform="matrix(1 0 0 1 3271.1001 857.7115)" class="st5 st4">+getViscosity(): double</text>
<text transform="matrix(1 0 0 1 3271.1001 872.7115)" class="st5 st4">+setViscosity(viscosity: double): void</text>
<text transform="matrix(1 0 0 1 3271.1001 887.7115)" class="st5 st4">+getSpecificGravity(): double</text>
<text transform="matrix(1 0 0 1 3271.1001 902.7115)" class="st5 st4">+setSpecificGravity(specificGravity: double): void</text>
<text transform="matrix(1 0 0 1 3271.1001 917.7115)" class="st5 st4">+getTrials(): double</text>
<text transform="matrix(1 0 0 1 3271.1001 932.7115)" class="st5 st4">+setTrials(trials: double): void</text>
<text transform="matrix(1 0 0 1 3271.1001 947.7115)" class="st5 st4">+getAccuracy(): double</text>
<text transform="matrix(1 0 0 1 3271.1001 962.7115)" class="st5 st4">+setAccuracy(accuracy: double): void</text>
<text transform="matrix(1 0 0 1 3271.1001 977.7115)" class="st5 st4">+getUnbalanced(): String</text>
<text transform="matrix(1 0 0 1 3271.1001 992.7115)" class="st5 st4">+setUnbalanced(unbalanced: String): void</text>
<text transform="matrix(1 0 0 1 3271.1001 1007.7115)" class="st5 st4">+getPattern(): String</text>
<text transform="matrix(1 0 0 1 3271.1001 1022.7115)" class="st5 st4">+setPattern(patternID: String): void</text>
<text transform="matrix(1 0 0 1 3271.1001 1037.7115)" class="st5 st4">+getDemandMultiplier(): double</text>
<text transform="matrix(1 0 0 1 3271.1001 1052.7115)" class="st5 st4">+setDemandMultiplier(demandMultiplier: double): void</text>
<text transform="matrix(1 0 0 1 3271.1001 1067.7115)" class="st5 st4">+getEmitterExponent(): double</text>
<text transform="matrix(1 0 0 1 3271.1001 1082.7115)" class="st5 st4">+setEmitterExponent(emitterExponent: double): void</text>
<text transform="matrix(1 0 0 1 3271.1001 1097.7115)" class="st5 st4">+getMap(): String</text>
<text transform="matrix(1 0 0 1 3271.1001 1112.7115)" class="st5 st4">+setMap(filepath: String): void</text>
<text transform="matrix(1 0 0 1 3271.1001 1127.7115)" class="st5 st4">+getCheckfreq(): double</text>
<text transform="matrix(1 0 0 1 3271.1001 1142.7115)" class="st5 st4">+setCheckfreq(checkfreq: double): void</text>
<text transform="matrix(1 0 0 1 3271.1001 1157.7115)" class="st5 st4">+getMaxcheck(): double</text>
<text transform="matrix(1 0 0 1 3271.1001 1172.7115)" class="st5 st4">+setMaxcheck(maxcheck: double): void</text>
<text transform="matrix(1 0 0 1 3271.1001 1187.7115)" class="st5 st4">+getDamplimit(): double</text>
<text transform="matrix(1 0 0 1 3271.1001 1202.7115)" class="st5 st4">+setDamplimit(damplimit: double): void</text>
<text transform="matrix(1 0 0 1 3271.1001 1217.7115)" class="st5 st4">+toString(): String</text>
<text transform="matrix(1 0 0 1 3271.1001 1232.7115)" class="st5 st4">+copy(): Option</text>
<g transform="translate(-1078,-54) scale(1,1)">
	<rect x="4391.1" y="1436.2" class="st0" width="344.6" height="282"/>
</g>
<g transform="translate(-1078,-54) scale(1,1)">
	<rect x="4384.1" y="1429.2" class="st1" width="344.6" height="282"/>
</g>
<g transform="translate(-1078,-54) scale(1,1)">
	<path class="st2" d="M4384.1,1429.2h344.6v282h-344.6V1429.2z"/>
</g>
<g transform="translate(-1078,-54) scale(1,1)">
	<path class="st2" d="M4384.1,1484.2h344.6"/>
</g>
<g transform="translate(-1078,-54) scale(1,1)">
	<path class="st2" d="M4384.1,1494.2h344.6"/>
</g>
<text transform="matrix(1 0 0 1 3439.0386 1394.7115)" class="st3 st4">QualityOption</text>
<text transform="matrix(1 0 0 1 3421.3442 1409.7115)" class="st5 st4">(from optionsreport)</text>
<text transform="matrix(1 0 0 1 3616.0952 1424.7115)" class="st5 st4">{leaf}</text>
<text transform="matrix(1 0 0 1 3311.1001 1457.7115)" class="st5 st4">«constructor»+QualityOption()</text>
<text transform="matrix(1 0 0 1 3311.1001 1472.7115)" class="st5 st4">«constructor»+QualityOption(qualityOption: QualityOption)</text>
<text transform="matrix(1 0 0 1 3311.1001 1487.7115)" class="st5 st4">+getParameter(): String</text>
<text transform="matrix(1 0 0 1 3311.1001 1502.7115)" class="st5 st4">+setParameter(parameter: String): void</text>
<text transform="matrix(1 0 0 1 3311.1001 1517.7115)" class="st5 st4">+getMassUnit(): MassUnit</text>
<text transform="matrix(1 0 0 1 3311.1001 1532.7115)" class="st5 st4">+setMassUnit(massUnit: MassUnit): void</text>
<text transform="matrix(1 0 0 1 3311.1001 1547.7115)" class="st5 st4">+getRelativeDiffusivity(): double</text>
<text transform="matrix(1 0 0 1 3311.1001 1562.7115)" class="st5 st4">+setRelativeDiffusivity(relativeDiffusivity: double): void</text>
<text transform="matrix(1 0 0 1 3311.1001 1577.7115)" class="st5 st4">+getTraceNodeID(): String</text>
<text transform="matrix(1 0 0 1 3311.1001 1592.7115)" class="st5 st4">+setTraceNodeID(NodeID: String): void</text>
<text transform="matrix(1 0 0 1 3311.1001 1607.7115)" class="st5 st4">+getQualityTolerance(): double</text>
<text transform="matrix(1 0 0 1 3311.1001 1622.7115)" class="st5 st4">+setQualityTolerance(qualityTolerance: double): void</text>
<text transform="matrix(1 0 0 1 3311.1001 1637.7115)" class="st5 st4">+toString(): String</text>
<text transform="matrix(1 0 0 1 3311.1001 1652.7115)" class="st5 st4">+copy(): QualityOption</text>
<g transform="translate(-1078,-54) scale(1,1)">
	<rect x="4439.1" y="1828.2" class="st0" width="223.2" height="162"/>
</g>
<g transform="translate(-1078,-54) scale(1,1)">
	<rect x="4432.1" y="1821.2" class="st1" width="223.2" height="162"/>
</g>
<g transform="translate(-1078,-54) scale(1,1)">
	<path class="st2" d="M4432.1,1821.2h223.2v162h-223.2V1821.2z"/>
</g>
<g transform="translate(-1078,-54) scale(1,1)">
	<path class="st2" d="M4432.1,1876.2h223.2"/>
</g>
<g transform="translate(-1078,-54) scale(1,1)">
	<path class="st2" d="M4432.1,1886.2h223.2"/>
</g>
<text transform="matrix(1 0 0 1 3446.2075 1786.7115)" class="st3 st4">Report</text>
<text transform="matrix(1 0 0 1 3408.6421 1801.7115)" class="st5 st4">(from optionsreport)</text>
<text transform="matrix(1 0 0 1 3542.6899 1816.7115)" class="st5 st4">{leaf}</text>
<text transform="matrix(1 0 0 1 3359.1001 1849.7115)" class="st5 st4">«constructor»+Report()</text>
<text transform="matrix(1 0 0 1 3359.1001 1864.7115)" class="st5 st4">«constructor»+Report(report: Report)</text>
<text transform="matrix(1 0 0 1 3359.1001 1879.7115)" class="st5 st4">+getCode(): String</text>
<text transform="matrix(1 0 0 1 3359.1001 1894.7115)" class="st5 st4">+setCode(reportCode: String): void</text>
<text transform="matrix(1 0 0 1 3359.1001 1909.7115)" class="st5 st4">+toString(): String</text>
<text transform="matrix(1 0 0 1 3359.1001 1924.7115)" class="st5 st4">+copy(): Report</text>
<g transform="translate(-1078,-54) scale(1,1)">
	<rect x="4199.1" y="2044.2" class="st0" width="327" height="415"/>
</g>
<g transform="translate(-1078,-54) scale(1,1)">
	<rect x="4192.1" y="2037.2" class="st1" width="327" height="415"/>
</g>
<g transform="translate(-1078,-54) scale(1,1)">
	<path class="st2" d="M4192.1,2037.2h327v415h-327V2037.2z"/>
</g>
<g transform="translate(-1078,-54) scale(1,1)">
	<path class="st2" d="M4192.1,2092.2h327"/>
</g>
<g transform="translate(-1078,-54) scale(1,1)">
	<path class="st2" d="M4192.1,2115.2h327"/>
</g>
<text transform="matrix(1 0 0 1 3263.4028 2002.7115)" class="st3 st4">Time</text>
<text transform="matrix(1 0 0 1 3220.5308 2017.7115)" class="st5 st4">(from optionsreport)</text>
<text transform="matrix(1 0 0 1 3406.4678 2032.7115)" class="st5 st4">{leaf}</text>
<text transform="matrix(1 0 0 1 3119.1001 2055.7117)" class="st5 st4">+DEFAULT_DURATION: String = &quot;0&quot; {readOnly}</text>
<path class="st2" d="M3119.1,2055.7h276.8"/>
<text transform="matrix(1 0 0 1 3119.1001 2078.7117)" class="st5 st4">«constructor»+Time()</text>
<text transform="matrix(1 0 0 1 3119.1001 2093.7117)" class="st5 st4">«constructor»+Time(time: Time)</text>
<text transform="matrix(1 0 0 1 3119.1001 2108.7117)" class="st5 st4">+getDuration(): String</text>
<text transform="matrix(1 0 0 1 3119.1001 2123.7117)" class="st5 st4">+setDuration(duration: String): void</text>
<text transform="matrix(1 0 0 1 3119.1001 2138.7117)" class="st5 st4">+getHydraulicTimestep(): String</text>
<text transform="matrix(1 0 0 1 3119.1001 2153.7117)" class="st5 st4">+setHydraulicTimestep(hydraulicTimestep: String): void</text>
<text transform="matrix(1 0 0 1 3119.1001 2168.7117)" class="st5 st4">+getQualityTimestep(): String</text>
<text transform="matrix(1 0 0 1 3119.1001 2183.7117)" class="st5 st4">+setQualityTimestep(qualityTimestep: String): void</text>
<text transform="matrix(1 0 0 1 3119.1001 2198.7117)" class="st5 st4">+getPatternTimestep(): String</text>
<text transform="matrix(1 0 0 1 3119.1001 2213.7117)" class="st5 st4">+setPatternTimestep(patternTimestep: String): void</text>
<text transform="matrix(1 0 0 1 3119.1001 2228.7117)" class="st5 st4">+getPatternStart(): String</text>
<text transform="matrix(1 0 0 1 3119.1001 2243.7117)" class="st5 st4">+setPatternStart(patternStart: String): void</text>
<text transform="matrix(1 0 0 1 3119.1001 2258.7117)" class="st5 st4">+getReportTimestep(): String</text>
<text transform="matrix(1 0 0 1 3119.1001 2273.7117)" class="st5 st4">+setReportTimestep(reportTimestep: String): void</text>
<text transform="matrix(1 0 0 1 3119.1001 2288.7117)" class="st5 st4">+getReportStart(): String</text>
<text transform="matrix(1 0 0 1 3119.1001 2303.7117)" class="st5 st4">+setReportStart(reportStart: String): void</text>
<text transform="matrix(1 0 0 1 3119.1001 2318.7117)" class="st5 st4">+getStartClockTime(): String</text>
<text transform="matrix(1 0 0 1 3119.1001 2333.7117)" class="st5 st4">+setStartClockTime(startClockTime: String): void</text>
<text transform="matrix(1 0 0 1 3119.1001 2348.7117)" class="st5 st4">+getStatistic(): Statistic</text>
<text transform="matrix(1 0 0 1 3119.1001 2363.7117)" class="st5 st4">+setStatistic(statistic: Statistic): void</text>
<text transform="matrix(1 0 0 1 3119.1001 2378.7117)" class="st5 st4">+toString(): String</text>
<text transform="matrix(1 0 0 1 3119.1001 2393.7117)" class="st5 st4">+copy(): Time</text>
<g transform="translate(-1078,-54) scale(1,1)">
	<path class="st2" d="M4191.1,2067.2l-868-934"/>
</g>
<g transform="translate(-1078,-54) scale(1,1)">
	<path d="M3333.1,1137.8l-10-4.6l3.8,10.3l11.1,5.8"/>
</g>
<g transform="translate(-1078,-54) scale(1,1)">
	<path class="st2" d="M3333.1,1137.8l-10-4.6l3.8,10.3l11.1,5.8L3333.1,1137.8"/>
</g>
<g transform="translate(-1078,-54) scale(1,1)">
	<path class="st2" d="M4431.1,1826.2l-1108-754"/>
</g>
<g transform="translate(-1078,-54) scale(1,1)">
	<path d="M3333.9,1074.4l-10.8-2.2l6,9.2l12.2,3.2"/>
</g>
<g transform="translate(-1078,-54) scale(1,1)">
	<path class="st2" d="M3333.9,1074.4l-10.8-2.2l6,9.2l12.2,3.2L3333.9,1074.4"/>
</g>
<g transform="translate(-1078,-54) scale(1,1)">
	<path class="st2" d="M4383.1,1495.2l-1060-461"/>
</g>
<g transform="translate(-1078,-54) scale(1,1)">
	<path d="M3334.1,1034.4l-11-0.2l7.6,7.9l12.5,0.9"/>
</g>
<g transform="translate(-1078,-54) scale(1,1)">
	<path class="st2" d="M3334.1,1034.4l-11-0.2l7.6,7.9l12.5,0.9L3334.1,1034.4"/>
</g>
<g transform="translate(-1078,-54) scale(1,1)">
	<path class="st2" d="M4343.1,995.2l-1020-24"/>
</g>
<g transform="translate(-1078,-54) scale(1,1)">
	<path d="M3333.4,967.2l-10.3,4l10.1,4.4l11.9-3.9"/>
</g>
<g transform="translate(-1078,-54) scale(1,1)">
	<path class="st2" d="M3333.4,967.2l-10.3,4l10.1,4.4l11.9-3.9L3333.4,967.2"/>
</g>
<g transform="translate(-1078,-54) scale(1,1)">
	<rect x="1199.1" y="1508.2" class="st0" width="251.4" height="207"/>
</g>
<g transform="translate(-1078,-54) scale(1,1)">
	<rect x="1192.1" y="1501.2" class="st1" width="251.4" height="207"/>
</g>
<g transform="translate(-1078,-54) scale(1,1)">
	<path class="st2" d="M1192.1,1501.2h251.4v207h-251.4V1501.2z"/>
</g>
<g transform="translate(-1078,-54) scale(1,1)">
	<path class="st2" d="M1192.1,1556.2h251.4"/>
</g>
<g transform="translate(-1078,-54) scale(1,1)">
	<path class="st2" d="M1192.1,1566.2h251.4"/>
</g>
<text transform="matrix(1 0 0 1 218.839 1466.7115)" class="st3 st4">Pattern</text>
<text transform="matrix(1 0 0 1 172.9709 1481.7115)" class="st5 st4">(from systemoperation)</text>
<text transform="matrix(1 0 0 1 330.8481 1496.7115)" class="st5 st4">{leaf}</text>
<text transform="matrix(1 0 0 1 119.1 1529.7115)" class="st5 st4">«constructor»+Pattern()</text>
<text transform="matrix(1 0 0 1 119.1 1544.7115)" class="st5 st4">«constructor»+Pattern(pattern: Pattern)</text>
<text transform="matrix(1 0 0 1 119.1 1559.7115)" class="st5 st4">+getId(): String</text>
<text transform="matrix(1 0 0 1 119.1 1574.7115)" class="st5 st4">+setId(id: String): void</text>
<text transform="matrix(1 0 0 1 119.1 1589.7115)" class="st5 st4">+getMultipliers(): Double[*]</text>
<text transform="matrix(1 0 0 1 119.1 1604.7115)" class="st5 st4">+setMultipliers(multipliers: Double[*]): void</text>
<text transform="matrix(1 0 0 1 119.1 1619.7115)" class="st5 st4">+addMultipliers(multiplier: double): void</text>
<text transform="matrix(1 0 0 1 119.1 1634.7115)" class="st5 st4">+toString(): String</text>
<text transform="matrix(1 0 0 1 119.1 1649.7115)" class="st5 st4">+copy(): Pattern</text>
<g transform="translate(-1078,-54) scale(1,1)">
	<rect x="1263.1" y="1764.2" class="st0" width="268.8" height="267"/>
</g>
<g transform="translate(-1078,-54) scale(1,1)">
	<rect x="1256.1" y="1757.2" class="st1" width="268.8" height="267"/>
</g>
<g transform="translate(-1078,-54) scale(1,1)">
	<path class="st2" d="M1256.1,1757.2h268.8v267h-268.8V1757.2z"/>
</g>
<g transform="translate(-1078,-54) scale(1,1)">
	<path class="st2" d="M1256.1,1812.2h268.8"/>
</g>
<g transform="translate(-1078,-54) scale(1,1)">
	<path class="st2" d="M1256.1,1822.2h268.8"/>
</g>
<text transform="matrix(1 0 0 1 295.1598 1722.7115)" class="st3 st4">Curve</text>
<text transform="matrix(1 0 0 1 245.6735 1737.7115)" class="st5 st4">(from systemoperation)</text>
<text transform="matrix(1 0 0 1 412.2533 1752.7115)" class="st5 st4">{leaf}</text>
<text transform="matrix(1 0 0 1 183.1 1785.7115)" class="st5 st4">«constructor»+Curve()</text>
<text transform="matrix(1 0 0 1 183.1 1800.7115)" class="st5 st4">«constructor»+Curve(curve: Curve)</text>
<text transform="matrix(1 0 0 1 183.1 1815.7115)" class="st5 st4">+getId(): String</text>
<text transform="matrix(1 0 0 1 183.1 1830.7115)" class="st5 st4">+setId(id: String): void</text>
<text transform="matrix(1 0 0 1 183.1 1845.7115)" class="st5 st4">+getType(): Type</text>
<text transform="matrix(1 0 0 1 183.1 1860.7115)" class="st5 st4">+setType(type: Type): void</text>
<text transform="matrix(1 0 0 1 183.1 1875.7115)" class="st5 st4">+addPointToCurve(x: double, y: double): void</text>
<text transform="matrix(1 0 0 1 183.1 1890.7115)" class="st5 st4">+getPoint(index: int): null</text>
<text transform="matrix(1 0 0 1 183.1 1905.7115)" class="st5 st4">+getNumberOfPoint(): int</text>
<text transform="matrix(1 0 0 1 183.1 1920.7115)" class="st5 st4">+getDescription(): String</text>
<text transform="matrix(1 0 0 1 183.1 1935.7115)" class="st5 st4">+setDescription(description: String): void</text>
<text transform="matrix(1 0 0 1 183.1 1950.7115)" class="st5 st4">+toString(): String</text>
<text transform="matrix(1 0 0 1 183.1 1965.7115)" class="st5 st4">+copy(): Curve</text>
<g transform="translate(-1078,-54) scale(1,1)">
	<rect x="1223.1" y="740.2" class="st0" width="234.1" height="162"/>
</g>
<g transform="translate(-1078,-54) scale(1,1)">
	<rect x="1216.1" y="733.2" class="st1" width="234.1" height="162"/>
</g>
<g transform="translate(-1078,-54) scale(1,1)">
	<path class="st2" d="M1216.1,733.2h234.1v162h-234.1V733.2z"/>
</g>
<g transform="translate(-1078,-54) scale(1,1)">
	<path class="st2" d="M1216.1,788.2h234.1"/>
</g>
<g transform="translate(-1078,-54) scale(1,1)">
	<path class="st2" d="M1216.1,798.2h234.1"/>
</g>
<text transform="matrix(1 0 0 1 234.1808 698.7115)" class="st3 st4">Control</text>
<text transform="matrix(1 0 0 1 188.3095 713.7115)" class="st5 st4">(from systemoperation)</text>
<text transform="matrix(1 0 0 1 337.5253 728.7115)" class="st5 st4">{leaf}</text>
<text transform="matrix(1 0 0 1 143.1 761.7115)" class="st5 st4">«constructor»+Control()</text>
<text transform="matrix(1 0 0 1 143.1 776.7115)" class="st5 st4">«constructor»+Control(control: Control)</text>
<text transform="matrix(1 0 0 1 143.1 791.7115)" class="st5 st4">+getCode(): String</text>
<text transform="matrix(1 0 0 1 143.1 806.7115)" class="st5 st4">+setCode(code: String): void</text>
<text transform="matrix(1 0 0 1 143.1 821.7115)" class="st5 st4">+toString(): String</text>
<text transform="matrix(1 0 0 1 143.1 836.7115)" class="st5 st4">+copy(): Control</text>
<g transform="translate(-1078,-54) scale(1,1)">
	<rect x="3975.1" y="2684.2" class="st0" width="316.5" height="222"/>
</g>
<g transform="translate(-1078,-54) scale(1,1)">
	<rect x="3968.1" y="2677.2" class="st1" width="316.5" height="222"/>
</g>
<g transform="translate(-1078,-54) scale(1,1)">
	<path class="st2" d="M3968.1,2677.2h316.5v222h-316.5V2677.2z"/>
</g>
<g transform="translate(-1078,-54) scale(1,1)">
	<path class="st2" d="M3968.1,2732.2h316.5"/>
</g>
<g transform="translate(-1078,-54) scale(1,1)">
	<path class="st2" d="M3968.1,2742.2h316.5"/>
</g>
<text transform="matrix(1 0 0 1 3023.7622 2642.7117)" class="st3 st4">Demand</text>
<text transform="matrix(1 0 0 1 2981.5059 2657.7117)" class="st5 st4">(from systemoperation)</text>
<text transform="matrix(1 0 0 1 3171.918 2672.7117)" class="st5 st4">{leaf}</text>
<text transform="matrix(1 0 0 1 2895.1001 2705.7117)" class="st5 st4">«constructor»+Demand()</text>
<text transform="matrix(1 0 0 1 2895.1001 2720.7117)" class="st5 st4">«constructor»+Demand(demand: Demand)</text>
<text transform="matrix(1 0 0 1 2895.1001 2735.7117)" class="st5 st4">+getDemand(): double</text>
<text transform="matrix(1 0 0 1 2895.1001 2750.7117)" class="st5 st4">+setDemand(demand: double): void</text>
<text transform="matrix(1 0 0 1 2895.1001 2765.7117)" class="st5 st4">+getDemandPattern(): String</text>
<text transform="matrix(1 0 0 1 2895.1001 2780.7117)" class="st5 st4">+setDemandPattern(demandPattern: String): void</text>
<text transform="matrix(1 0 0 1 2895.1001 2795.7117)" class="st5 st4">+getDemandCategory(): String</text>
<text transform="matrix(1 0 0 1 2895.1001 2810.7117)" class="st5 st4">+setDemandCategory(demandCategory: String): void</text>
<text transform="matrix(1 0 0 1 2895.1001 2825.7117)" class="st5 st4">+toString(): String</text>
<text transform="matrix(1 0 0 1 2895.1001 2840.7117)" class="st5 st4">+copy(): Demand</text>
<g transform="translate(-1078,-54) scale(1,1)">
	<rect x="1111.1" y="1140.2" class="st0" width="357.8" height="310"/>
</g>
<g transform="translate(-1078,-54) scale(1,1)">
	<rect x="1104.1" y="1133.2" class="st1" width="357.8" height="310"/>
</g>
<g transform="translate(-1078,-54) scale(1,1)">
	<path class="st2" d="M1104.1,1133.2h357.8v310h-357.8V1133.2z"/>
</g>
<g transform="translate(-1078,-54) scale(1,1)">
	<path class="st2" d="M1104.1,1188.2h357.8"/>
</g>
<g transform="translate(-1078,-54) scale(1,1)">
	<path class="st2" d="M1104.1,1256.2h357.8"/>
</g>
<text transform="matrix(1 0 0 1 165.2401 1098.7115)" class="st3 st4">EnergyOption</text>
<text transform="matrix(1 0 0 1 138.161 1113.7115)" class="st5 st4">(from systemoperation)</text>
<text transform="matrix(1 0 0 1 349.2284 1128.7115)" class="st5 st4">{leaf}</text>
<text transform="matrix(1 0 0 1 31.1 1151.7115)" class="st5 st4">+DEFAULT_GLOBAL_EFFICIENCY: double = 75 {readOnly}</text>
<path class="st2" d="M31.1,1151.7h348.8"/>
<text transform="matrix(1 0 0 1 31.1 1166.7115)" class="st5 st4">+DEFAULT_GLOBAL_PRICE: double = 0 {readOnly}</text>
<path class="st2" d="M31.1,1166.7h304.7"/>
<text transform="matrix(1 0 0 1 31.1 1181.7115)" class="st5 st4">+DEFAULT_GLOBAL_PATTERN: String = &quot;&quot; {readOnly}</text>
<path class="st2" d="M31.1,1181.7h320.6"/>
<text transform="matrix(1 0 0 1 31.1 1196.7115)" class="st5 st4">+DEFAULT_DEMAND_CHARGE: double = 0 {readOnly}</text>
<path class="st2" d="M31.1,1196.7H356"/>
<text transform="matrix(1 0 0 1 31.1 1219.7115)" class="st5 st4">«constructor»+EnergyOption()</text>
<text transform="matrix(1 0 0 1 31.1 1234.7115)" class="st5 st4">«constructor»+EnergyOption(energy: EnergyOption)</text>
<text transform="matrix(1 0 0 1 31.1 1249.7115)" class="st5 st4">+getGlobalEfficiency(): double</text>
<text transform="matrix(1 0 0 1 31.1 1264.7115)" class="st5 st4">+setGlobalEfficiency(globalEfficiency: double): void</text>
<text transform="matrix(1 0 0 1 31.1 1279.7115)" class="st5 st4">+getGlobalPrice(): double</text>
<text transform="matrix(1 0 0 1 31.1 1294.7115)" class="st5 st4">+setGlobalPrice(globalPrice: double): void</text>
<text transform="matrix(1 0 0 1 31.1 1309.7115)" class="st5 st4">+getGlobalPattern(): String</text>
<text transform="matrix(1 0 0 1 31.1 1324.7115)" class="st5 st4">+setGlobalPattern(globalPattern: String): void</text>
<text transform="matrix(1 0 0 1 31.1 1339.7115)" class="st5 st4">+getDemandCharge(): double</text>
<text transform="matrix(1 0 0 1 31.1 1354.7115)" class="st5 st4">+setDemandCharge(demandCharge: double): void</text>
<text transform="matrix(1 0 0 1 31.1 1369.7115)" class="st5 st4">+toString(): String</text>
<text transform="matrix(1 0 0 1 31.1 1384.7115)" class="st5 st4">+copy(): EnergyOption</text>
<g transform="translate(-1078,-54) scale(1,1)">
	<rect x="1223.1" y="924.2" class="st0" width="198.7" height="162"/>
</g>
<g transform="translate(-1078,-54) scale(1,1)">
	<rect x="1216.1" y="917.2" class="st1" width="198.7" height="162"/>
</g>
<g transform="translate(-1078,-54) scale(1,1)">
	<path class="st2" d="M1216.1,917.2h198.7v162h-198.7V917.2z"/>
</g>
<g transform="translate(-1078,-54) scale(1,1)">
	<path class="st2" d="M1216.1,972.2h198.7"/>
</g>
<g transform="translate(-1078,-54) scale(1,1)">
	<path class="st2" d="M1216.1,982.2h198.7"/>
</g>
<text transform="matrix(1 0 0 1 224.0722 882.7115)" class="st3 st4">Rule</text>
<text transform="matrix(1 0 0 1 170.6154 897.7115)" class="st5 st4">(from systemoperation)</text>
<text transform="matrix(1 0 0 1 302.1371 912.7115)" class="st5 st4">{leaf}</text>
<text transform="matrix(1 0 0 1 143.1 945.7115)" class="st5 st4">«constructor»+Rule()</text>
<text transform="matrix(1 0 0 1 143.1 960.7115)" class="st5 st4">«constructor»+Rule(rule: Rule)</text>
<text transform="matrix(1 0 0 1 143.1 975.7115)" class="st5 st4">+getCode(): String</text>
<text transform="matrix(1 0 0 1 143.1 990.7115)" class="st5 st4">+setCode(ruleCode: String): void</text>
<text transform="matrix(1 0 0 1 143.1 1005.7115)" class="st5 st4">+toString(): String</text>
<text transform="matrix(1 0 0 1 143.1 1020.7115)" class="st5 st4">+copy(): Rule</text>
<g transform="translate(-1078,-54) scale(1,1)">
	<path class="st2" d="M1451.1,824.2l1564,130"/>
</g>
<g transform="translate(-1078,-54) scale(1,1)">
	<path d="M3004.6,957.6l10.5-3.4l-9.8-5l-12.1,3.2"/>
</g>
<g transform="translate(-1078,-54) scale(1,1)">
	<path class="st2" d="M3004.6,957.6l10.5-3.4l-9.8-5l-12.1,3.2L3004.6,957.6"/>
</g>
<g transform="translate(-1078,-54) scale(1,1)">
	<path class="st2" d="M1416.1,996.2l1599-26"/>
</g>
<g transform="translate(-1078,-54) scale(1,1)">
	<path d="M3005,974.6l10.1-4.4l-10.2-4l-11.8,4.4"/>
</g>
<g transform="translate(-1078,-54) scale(1,1)">
	<path class="st2" d="M3005,974.6l10.1-4.4l-10.2-4l-11.8,4.4L3005,974.6"/>
</g>
<g transform="translate(-1078,-54) scale(1,1)">
	<path class="st2" d="M1463.1,1257.2l1552-264"/>
</g>
<g transform="translate(-1078,-54) scale(1,1)">
	<path d="M3005.8,999.1l9.3-5.9l-10.7-2.4l-11,6.1"/>
</g>
<g transform="translate(-1078,-54) scale(1,1)">
	<path class="st2" d="M3005.8,999.1l9.3-5.9l-10.7-2.4l-11,6.1L3005.8,999.1"/>
</g>
<g transform="translate(-1078,-54) scale(1,1)">
	<path class="st2" d="M1444.1,1560.2l1571-540"/>
</g>
<g transform="translate(-1078,-54) scale(1,1)">
	<path d="M3006.9,1027.5l8.2-7.3l-11-0.7l-9.8,7.8"/>
</g>
<g transform="translate(-1078,-54) scale(1,1)">
	<path class="st2" d="M3006.9,1027.5l8.2-7.3l-11-0.7l-9.8,7.8L3006.9,1027.5"/>
</g>
<g transform="translate(-1078,-54) scale(1,1)">
	<path class="st2" d="M1526.1,1820.2l1489-773"/>
</g>
<g transform="translate(-1078,-54) scale(1,1)">
	<path d="M3008,1055.6l7.1-8.4l-11,0.9l-8.6,9.2"/>
</g>
<g transform="translate(-1078,-54) scale(1,1)">
	<path class="st2" d="M3008,1055.6l7.1-8.4l-11,0.9l-8.6,9.2L3008,1055.6"/>
</g>
<g transform="translate(-1078,-54) scale(1,1)">
	<path class="st2" d="M4042.1,2676.2l-71-95"/>
</g>
<g transform="translate(-1078,-54) scale(1,1)">
	<path d="M3980.6,2586.8l-9.5-5.6l2.7,10.7l10.5,7"/>
</g>
<g transform="translate(-1078,-54) scale(1,1)">
	<path class="st2" d="M3980.6,2586.8l-9.5-5.6l2.7,10.7l10.5,7L3980.6,2586.8"/>
</g>
<text transform="matrix(1 0 0 1 2951.6001 2603.7117)" class="st5 st4">1..*</text>
<g transform="translate(-1078,-54) scale(1,1)">
	<rect x="1312.1" y="271.2" class="st0" width="398.7" height="445"/>
</g>
<g transform="translate(-1078,-54) scale(1,1)">
	<rect x="1305.1" y="264.2" class="st1" width="398.7" height="445"/>
</g>
<g transform="translate(-1078,-54) scale(1,1)">
	<path class="st2" d="M1305.1,264.2h398.7v445h-398.7V264.2z"/>
</g>
<g transform="translate(-1078,-54) scale(1,1)">
	<path class="st2" d="M1305.1,319.2h398.7"/>
</g>
<g transform="translate(-1078,-54) scale(1,1)">
	<path class="st2" d="M1305.1,432.2h398.7"/>
</g>
<text transform="matrix(1 0 0 1 381.6332 229.7116)" class="st3 st4">ReactionOption</text>
<text transform="matrix(1 0 0 1 372.6195 244.7116)" class="st5 st4">(from waterquality)</text>
<text transform="matrix(1 0 0 1 591.1327 259.7116)" class="st5 st4">{leaf}</text>
<text transform="matrix(1 0 0 1 232.1 282.7116)" class="st5 st4">+DEFAULT_ORDER_BULK: double = 1 {readOnly}</text>
<path class="st2" d="M232.1,282.7H526"/>
<text transform="matrix(1 0 0 1 232.1 297.7116)" class="st5 st4">+DEFAULT_ORDER_TANK: double = 1 {readOnly}</text>
<path class="st2" d="M232.1,297.7h293.6"/>
<text transform="matrix(1 0 0 1 232.1 312.7116)" class="st5 st4">+DEFAULT_ORDER_WALL: int = 1 {readOnly}</text>
<path class="st2" d="M232.1,312.7h269.5"/>
<text transform="matrix(1 0 0 1 232.1 327.7116)" class="st5 st4">+DEFAULT_GLOBAL_BULK: double = 0 {readOnly}</text>
<path class="st2" d="M232.1,327.7H531"/>
<text transform="matrix(1 0 0 1 232.1 342.7116)" class="st5 st4">+DEFAULT_GLOBAL_WALL: double = 0 {readOnly}</text>
<path class="st2" d="M232.1,342.7H532"/>
<text transform="matrix(1 0 0 1 232.1 357.7116)" class="st5 st4">+DEFAULT_LIMITING_POTENTIAL: double = 0 {readOnly}</text>
<path class="st2" d="M232.1,357.7h341.5"/>
<text transform="matrix(1 0 0 1 232.1 372.7116)" class="st5 st4">+DEFAULT_ROUGHNESS_CORRELATION: double = 0 {readOnly}</text>
<path class="st2" d="M232.1,372.7h389.7"/>
<text transform="matrix(1 0 0 1 232.1 395.7116)" class="st5 st4">«constructor»+ReactionOption()</text>
<text transform="matrix(1 0 0 1 232.1 410.7116)" class="st5 st4">«constructor»+ReactionOption(reaction: ReactionOption)</text>
<text transform="matrix(1 0 0 1 232.1 425.7116)" class="st5 st4">+getOrderBulk(): double</text>
<text transform="matrix(1 0 0 1 232.1 440.7116)" class="st5 st4">+setOrderBulk(orderBulk: double): void</text>
<text transform="matrix(1 0 0 1 232.1 455.7116)" class="st5 st4">+getOrderTank(): double</text>
<text transform="matrix(1 0 0 1 232.1 470.7116)" class="st5 st4">+setOrderTank(orderTank: double): void</text>
<text transform="matrix(1 0 0 1 232.1 485.7116)" class="st5 st4">+getOrderWall(): int</text>
<text transform="matrix(1 0 0 1 232.1 500.7116)" class="st5 st4">+setOrderWall(orderWall: int): void</text>
<text transform="matrix(1 0 0 1 232.1 515.7115)" class="st5 st4">+getGlobalBulk(): double</text>
<text transform="matrix(1 0 0 1 232.1 530.7115)" class="st5 st4">+setGlobalBulk(globalBulk: double): void</text>
<text transform="matrix(1 0 0 1 232.1 545.7115)" class="st5 st4">+getGlobalWall(): double</text>
<text transform="matrix(1 0 0 1 232.1 560.7115)" class="st5 st4">+setGlobalWall(globalWall: double): void</text>
<text transform="matrix(1 0 0 1 232.1 575.7115)" class="st5 st4">+getLimitingPotential(): double</text>
<text transform="matrix(1 0 0 1 232.1 590.7115)" class="st5 st4">+setLimitingPotential(limitingPotential: double): void</text>
<text transform="matrix(1 0 0 1 232.1 605.7115)" class="st5 st4">+getRoughnessCorrelation(): double</text>
<text transform="matrix(1 0 0 1 232.1 620.7115)" class="st5 st4">+setRoughnessCorrelation(roughnessCorrelation: double): void</text>
<text transform="matrix(1 0 0 1 232.1 635.7115)" class="st5 st4">+toString(): String</text>
<text transform="matrix(1 0 0 1 232.1 650.7115)" class="st5 st4">+copy(): ReactionOption</text>
<g transform="translate(-1078,-54) scale(1,1)">
	<path class="st2" d="M1705.1,544.2l1310,379"/>
</g>
<g transform="translate(-1078,-54) scale(1,1)">
	<path d="M3004.2,924.4l10.9-1.2l-8.6-6.9l-12.5,0.8"/>
</g>
<g transform="translate(-1078,-54) scale(1,1)">
	<path class="st2" d="M3004.2,924.4l10.9-1.2l-8.6-6.9l-12.5,0.8L3004.2,924.4"/>
</g>
<g transform="translate(-1078,-54) scale(1,1)">
	<rect x="3311.1" y="3044.2" class="st0" width="291.1" height="192"/>
</g>
<g transform="translate(-1078,-54) scale(1,1)">
	<rect x="3304.1" y="3037.2" class="st1" width="291.1" height="192"/>
</g>
<g transform="translate(-1078,-54) scale(1,1)">
	<path class="st2" d="M3304.1,3037.2h291.1v192h-291.1V3037.2z"/>
</g>
<g transform="translate(-1078,-54) scale(1,1)">
	<path class="st2" d="M3304.1,3092.2h291.1"/>
</g>
<g transform="translate(-1078,-54) scale(1,1)">
	<path class="st2" d="M3304.1,3102.2h291.1"/>
</g>
<text transform="matrix(1 0 0 1 2352.8845 3002.7117)" class="st3 st4">Mixing</text>
<text transform="matrix(1 0 0 1 2317.8486 3017.7117)" class="st5 st4">(from waterquality)</text>
<text transform="matrix(1 0 0 1 2482.5908 3032.7117)" class="st5 st4">{leaf}</text>
<text transform="matrix(1 0 0 1 2231.1001 3065.7117)" class="st5 st4">«constructor»+Mixing()</text>
<text transform="matrix(1 0 0 1 2231.1001 3080.7117)" class="st5 st4">«constructor»+Mixing(mixing: Mixing)</text>
<text transform="matrix(1 0 0 1 2231.1001 3095.7117)" class="st5 st4">+getModel(): MixingModel</text>
<text transform="matrix(1 0 0 1 2231.1001 3110.7117)" class="st5 st4">+setModel(model: MixingModel): void</text>
<text transform="matrix(1 0 0 1 2231.1001 3125.7117)" class="st5 st4">+getMixingFraction(): Double</text>
<text transform="matrix(1 0 0 1 2231.1001 3140.7117)" class="st5 st4">+setMixingFraction(mixingFraction: Double): void</text>
<text transform="matrix(1 0 0 1 2231.1001 3155.7117)" class="st5 st4">+toString(): String</text>
<text transform="matrix(1 0 0 1 2231.1001 3170.7117)" class="st5 st4">+copy(): Mixing</text>
<g transform="translate(-1078,-54) scale(1,1)">
	<rect x="2759.1" y="2556.2" class="st0" width="260.8" height="162"/>
</g>
<g transform="translate(-1078,-54) scale(1,1)">
	<rect x="2752.1" y="2549.2" class="st1" width="260.8" height="162"/>
</g>
<g transform="translate(-1078,-54) scale(1,1)">
	<path class="st2" d="M2752.1,2549.2h260.8v162h-260.8V2549.2z"/>
</g>
<g transform="translate(-1078,-54) scale(1,1)">
	<path class="st2" d="M2752.1,2604.2h260.8"/>
</g>
<g transform="translate(-1078,-54) scale(1,1)">
	<path class="st2" d="M2752.1,2614.2h260.8"/>
</g>
<text transform="matrix(1 0 0 1 1784.2789 2514.7117)" class="st3 st4">Quality</text>
<text transform="matrix(1 0 0 1 1750.6903 2529.7117)" class="st5 st4">(from waterquality)</text>
<text transform="matrix(1 0 0 1 1900.2743 2544.7117)" class="st5 st4">{leaf}</text>
<text transform="matrix(1 0 0 1 1679.1 2577.7117)" class="st5 st4">«constructor»+Quality()</text>
<text transform="matrix(1 0 0 1 1679.1 2592.7117)" class="st5 st4">«constructor»+Quality(quality: Quality)</text>
<text transform="matrix(1 0 0 1 1679.1 2607.7117)" class="st5 st4">+getInitialQuality(): double</text>
<text transform="matrix(1 0 0 1 1679.1 2622.7117)" class="st5 st4">+setInitialQuality(initialQuality: double): void</text>
<text transform="matrix(1 0 0 1 1679.1 2637.7117)" class="st5 st4">+toString(): String</text>
<text transform="matrix(1 0 0 1 1679.1 2652.7117)" class="st5 st4">+copy(): Quality</text>
<g transform="translate(-1078,-54) scale(1,1)">
	<rect x="2367.1" y="2476.2" class="st0" width="286.8" height="222"/>
</g>
<g transform="translate(-1078,-54) scale(1,1)">
	<rect x="2360.1" y="2469.2" class="st1" width="286.8" height="222"/>
</g>
<g transform="translate(-1078,-54) scale(1,1)">
	<path class="st2" d="M2360.1,2469.2h286.8v222h-286.8V2469.2z"/>
</g>
<g transform="translate(-1078,-54) scale(1,1)">
	<path class="st2" d="M2360.1,2524.2h286.8"/>
</g>
<g transform="translate(-1078,-54) scale(1,1)">
	<path class="st2" d="M2360.1,2534.2h286.8"/>
</g>
<text transform="matrix(1 0 0 1 1404.9235 2434.7117)" class="st3 st4">Source</text>
<text transform="matrix(1 0 0 1 1371.6998 2449.7117)" class="st5 st4">(from waterquality)</text>
<text transform="matrix(1 0 0 1 1534.2933 2464.7117)" class="st5 st4">{leaf}</text>
<text transform="matrix(1 0 0 1 1287.1 2497.7117)" class="st5 st4">«constructor»+Source()</text>
<text transform="matrix(1 0 0 1 1287.1 2512.7117)" class="st5 st4">«constructor»+Source(source: Source)</text>
<text transform="matrix(1 0 0 1 1287.1 2527.7117)" class="st5 st4">+getSourceType(): SourceType</text>
<text transform="matrix(1 0 0 1 1287.1 2542.7117)" class="st5 st4">+setSourceType(sourceType: SourceType): void</text>
<text transform="matrix(1 0 0 1 1287.1 2557.7117)" class="st5 st4">+getSourceQuality(): double</text>
<text transform="matrix(1 0 0 1 1287.1 2572.7117)" class="st5 st4">+setSourceQuality(sourceQuality: double): void</text>
<text transform="matrix(1 0 0 1 1287.1 2587.7117)" class="st5 st4">+getTimePattern(): String</text>
<text transform="matrix(1 0 0 1 1287.1 2602.7117)" class="st5 st4">+setTimePattern(timePattern: String): void</text>
<text transform="matrix(1 0 0 1 1287.1 2617.7117)" class="st5 st4">+toString(): String</text>
<text transform="matrix(1 0 0 1 1287.1 2632.7117)" class="st5 st4">+copy(): Source</text>
<g transform="translate(-1078,-54) scale(1,1)">
	<path class="st2" d="M3417.1,3036.2l-24-75"/>
</g>
<g transform="translate(-1078,-54) scale(1,1)">
	<path d="M3400.2,2969.6l-7.1-8.4l-0.9,11l7.6,10"/>
</g>
<g transform="translate(-1078,-54) scale(1,1)">
	<path class="st2" d="M3400.2,2969.6l-7.1-8.4l-0.9,11l7.6,10L3400.2,2969.6"/>
</g>
<text transform="matrix(1 0 0 1 2333.6001 2963.7117)" class="st5 st4">0..1</text>
<g transform="translate(-1078,-54) scale(1,1)">
	<path class="st2" d="M2581.1,2468.2l177-253"/>
</g>
<g transform="translate(-1078,-54) scale(1,1)">
	<path d="M2755.7,2225.9l2.4-10.7l-9.3,5.9l-3.3,12.1"/>
</g>
<g transform="translate(-1078,-54) scale(1,1)">
	<path class="st2" d="M2755.7,2225.9l2.4-10.7l-9.3,5.9l-3.3,12.1L2755.7,2225.9"/>
</g>
<text transform="matrix(1 0 0 1 1514.6 2409.7117)" class="st5 st4">0..1</text>
<g transform="translate(-1078,-54) scale(1,1)">
	<path class="st2" d="M2872.1,2548.2l-40-333"/>
</g>
<g transform="translate(-1078,-54) scale(1,1)">
	<path d="M2837.5,2224.8l-5.4-9.6l-3,10.6l5.6,11.3"/>
</g>
<g transform="translate(-1078,-54) scale(1,1)">
	<path class="st2" d="M2837.5,2224.8l-5.4-9.6l-3,10.6l5.6,11.3L2837.5,2224.8"/>
</g>
<text transform="matrix(1 0 0 1 1792.6 2477.7117)" class="st5 st4">0..1</text>
<g transform="translate(-1078,-54) scale(1,1)">
	<path class="st0" d="M2731.2,332.7c0-6.4,5.1-11.5,11.5-11.5s11.5,5.1,11.5,11.5s-5.1,11.5-11.5,11.5S2731.2,339.1,2731.2,332.7z"
		/>
</g>
<g transform="translate(-1078,-54) scale(1,1)">
	<path class="st1" d="M2724.2,325.7c0-6.4,5.1-11.5,11.5-11.5s11.5,5.1,11.5,11.5s-5.1,11.5-11.5,11.5S2724.2,332.1,2724.2,325.7z"
		/>
</g>
<g transform="translate(-1078,-54) scale(1,1)">
	<path class="st2" d="M2724.2,325.7c0-6.4,5.1-11.5,11.5-11.5s11.5,5.1,11.5,11.5s-5.1,11.5-11.5,11.5S2724.2,332.1,2724.2,325.7z"
		/>
</g>
<text transform="matrix(1 0 0 1 1624.12 302.7116)" class="st3 st4">InputParser</text>
<text transform="matrix(1 0 0 1 1633.5272 317.7116)" class="st5 st4">(from io)</text>
<g transform="translate(-1078,-54) scale(1,1)">
	<path class="st0" d="M3040.1,295.7c0-6.4,5.1-11.5,11.5-11.5s11.5,5.1,11.5,11.5s-5.1,11.5-11.5,11.5S3040.1,302.1,3040.1,295.7z"
		/>
</g>
<g transform="translate(-1078,-54) scale(1,1)">
	<path class="st1" d="M3033.1,288.7c0-6.4,5.1-11.5,11.5-11.5s11.5,5.1,11.5,11.5s-5.1,11.5-11.5,11.5S3033.1,295.1,3033.1,288.7z"
		/>
</g>
<g transform="translate(-1078,-54) scale(1,1)">
	<path class="st2" d="M3033.1,288.7c0-6.4,5.1-11.5,11.5-11.5s11.5,5.1,11.5,11.5s-5.1,11.5-11.5,11.5S3033.1,295.1,3033.1,288.7z"
		/>
</g>
<text transform="matrix(1 0 0 1 1929.8341 265.7116)" class="st3 st4">OutputWriter</text>
<text transform="matrix(1 0 0 1 1942.3644 280.7116)" class="st5 st4">(from io)</text>
<g transform="translate(-1078,-54) scale(1,1)">
	<path class="st2" d="M2758.1,378.2l257,368"/>
</g>
<g transform="translate(-1078,-54) scale(1,1)">
	<path class="st2" d="M3005.8,740.3l9.3,5.9l-2.4-10.7"/>
</g>
<text transform="matrix(1 0 0 1 1798.6 505.7116)" class="st5 st4">+Carga</text>
<g transform="translate(-1078,-54) scale(1,1)">
	<path class="st2" d="M3050.1,341.2l38,199"/>
</g>
<g transform="translate(-1078,-54) scale(1,1)">
	<path class="st2" d="M3082.1,531l6,9.2l2.2-10.8"/>
</g>
<text transform="matrix(1 0 0 1 1992.6 389.7116)" class="st5 st4">+Guarda</text>
</svg>
