<svg version="1.1" xmlns="http://www.w3.org/2000/svg" xmlns:xlink="http://www.w3.org/1999/xlink" width="1493" height="1500"><defs/><g><g transform="translate(-614,-94) scale(1,1)"><path fill="#C0C0C0" stroke="none" d="M 1239 120.5 C 1239 115.2532944 1243.2532944 111 1248.5 111 C 1253.7467056 111 1258 115.2532944 1258 120.5 C 1258 125.7467056 1253.7467056 130 1248.5 130 C 1243.2532944 130 1239 125.7467056 1239 120.5 Z" opacity="0.2"/></g><g transform="translate(-614,-94) scale(1,1)"><path fill="#000000" stroke="none" d="M 1232 113.5 C 1232 108.2532944 1236.2532944 104 1241.5 104 C 1246.7467056 104 1251 108.2532944 1251 113.5 C 1251 118.7467056 1246.7467056 123 1241.5 123 C 1236.2532944 123 1232 118.7467056 1232 113.5 Z"/></g><g transform="translate(-614,-94) scale(1,1)"><path fill="#C0C0C0" stroke="none" d="M 1217 167 L 1271.7490234375 167 Q 1281.7490234375 167 1281.7490234375 177 L 1281.7490234375 197 Q 1281.7490234375 207 1271.7490234375 207 L 1217 207 Q 1207 207 1207 197 L 1207 177 Q 1207 167 1217 167 Z" opacity="0.2"/></g><g transform="translate(-614,-94) scale(1,1)"><path fill="#ffffff" stroke="none" d="M 1210 160 L 1264.7490234375 160 Q 1274.7490234375 160 1274.7490234375 170 L 1274.7490234375 190 Q 1274.7490234375 200 1264.7490234375 200 L 1210 200 Q 1200 200 1200 190 L 1200 170 Q 1200 160 1210 160 Z"/></g><g transform="translate(-614,-94) scale(1,1)"><path fill="none" stroke="#000000" d="M 1210 160 L 1264.7490234375 160 Q 1274.7490234375 160 1274.7490234375 170 L 1274.7490234375 190 Q 1274.7490234375 200 1264.7490234375 200 L 1210 200 Q 1200 200 1200 190 L 1200 170 Q 1200 160 1210 160 Z" stroke-miterlimit="10"/></g><g transform="translate(-614,-94) scale(1,1)"><g><path fill="none" stroke="none"/><text fill="#000000" stroke="none" font-family="Arial" font-size="13px" font-style="normal" font-weight="bold" text-decoration="none" x="1206.305908203125" y="179.5">Cargar red</text></g></g><g transform="translate(-614,-94) scale(1,1)"><path fill="#C0C0C0" stroke="none" d="M 1231 288.5 L 1242.5 279 L 1253 288.5 L 1242.5 297 L 1231 288.5" opacity="0.2"/></g><g transform="translate(-614,-94) scale(1,1)"><path fill="#ffffff" stroke="none" d="M 1224 281 L 1235 272 L 1246 281 L 1235 290 L 1224 281"/></g><g transform="translate(-614,-94) scale(1,1)"><path fill="none" stroke="#000000" d="M 1224 281 L 1235 272 L 1246 281 L 1235 290 L 1224 281 L 1224 281" stroke-miterlimit="10"/></g><g transform="translate(-614,-94) scale(1,1)"><path fill="#C0C0C0" stroke="none" d="M 1177 631 L 1352.39892578125 631 Q 1362.39892578125 631 1362.39892578125 641 L 1362.39892578125 661 Q 1362.39892578125 671 1352.39892578125 671 L 1177 671 Q 1167 671 1167 661 L 1167 641 Q 1167 631 1177 631 Z" opacity="0.2"/></g><g transform="translate(-614,-94) scale(1,1)"><path fill="#ffffff" stroke="none" d="M 1170 624 L 1345.39892578125 624 Q 1355.39892578125 624 1355.39892578125 634 L 1355.39892578125 654 Q 1355.39892578125 664 1345.39892578125 664 L 1170 664 Q 1160 664 1160 654 L 1160 634 Q 1160 624 1170 624 Z"/></g><g transform="translate(-614,-94) scale(1,1)"><path fill="none" stroke="#000000" d="M 1170 624 L 1345.39892578125 624 Q 1355.39892578125 624 1355.39892578125 634 L 1355.39892578125 654 Q 1355.39892578125 664 1345.39892578125 664 L 1170 664 Q 1160 664 1160 654 L 1160 634 Q 1160 624 1170 624 Z" stroke-miterlimit="10"/></g><g transform="translate(-614,-94) scale(1,1)"><g><path fill="none" stroke="none"/><text fill="#000000" stroke="none" font-family="Arial" font-size="13px" font-style="normal" font-weight="bold" text-decoration="none" x="1171.71728515625" y="643.5">Realizar simulación hidráulica</text></g></g><g transform="translate(-614,-94) scale(1,1)"><path fill="#C0C0C0" stroke="none" d="M 1401 631 L 1613.93896484375 631 Q 1623.93896484375 631 1623.93896484375 641 L 1623.93896484375 661 Q 1623.93896484375 671 1613.93896484375 671 L 1401 671 Q 1391 671 1391 661 L 1391 641 Q 1391 631 1401 631 Z" opacity="0.2"/></g><g transform="translate(-614,-94) scale(1,1)"><path fill="#ffffff" stroke="none" d="M 1394 624 L 1606.93896484375 624 Q 1616.93896484375 624 1616.93896484375 634 L 1616.93896484375 654 Q 1616.93896484375 664 1606.93896484375 664 L 1394 664 Q 1384 664 1384 654 L 1384 634 Q 1384 624 1394 624 Z"/></g><g transform="translate(-614,-94) scale(1,1)"><path fill="none" stroke="#000000" d="M 1394 624 L 1606.93896484375 624 Q 1616.93896484375 624 1616.93896484375 634 L 1616.93896484375 654 Q 1616.93896484375 664 1606.93896484375 664 L 1394 664 Q 1384 664 1384 654 L 1384 634 Q 1384 624 1394 624 Z" stroke-miterlimit="10"/></g><g transform="translate(-614,-94) scale(1,1)"><g><path fill="none" stroke="none"/><text fill="#000000" stroke="none" font-family="Arial" font-size="13px" font-style="normal" font-weight="bold" text-decoration="none" x="1397.1328125" y="643.5">Seleccionar problema monoobjetivo</text></g></g><g transform="translate(-614,-94) scale(1,1)"><path fill="#C0C0C0" stroke="none" d="M 1689 623 L 1897.60986328125 623 Q 1907.60986328125 623 1907.60986328125 633 L 1907.60986328125 653 Q 1907.60986328125 663 1897.60986328125 663 L 1689 663 Q 1679 663 1679 653 L 1679 633 Q 1679 623 1689 623 Z" opacity="0.2"/></g><g transform="translate(-614,-94) scale(1,1)"><path fill="#ffffff" stroke="none" d="M 1682 616 L 1890.60986328125 616 Q 1900.60986328125 616 1900.60986328125 626 L 1900.60986328125 646 Q 1900.60986328125 656 1890.60986328125 656 L 1682 656 Q 1672 656 1672 646 L 1672 626 Q 1672 616 1682 616 Z"/></g><g transform="translate(-614,-94) scale(1,1)"><path fill="none" stroke="#000000" d="M 1682 616 L 1890.60986328125 616 Q 1900.60986328125 616 1900.60986328125 626 L 1900.60986328125 646 Q 1900.60986328125 656 1890.60986328125 656 L 1682 656 Q 1672 656 1672 646 L 1672 626 Q 1672 616 1682 616 Z" stroke-miterlimit="10"/></g><g transform="translate(-614,-94) scale(1,1)"><g><path fill="none" stroke="none"/><text fill="#000000" stroke="none" font-family="Arial" font-size="13px" font-style="normal" font-weight="bold" text-decoration="none" x="1685.504150390625" y="635.5">Seleccionar problema multiobjetivo</text></g></g><g transform="translate(-614,-94) scale(1,1)"><path fill="none" stroke="#000000" d="M 1240 124 L 1238 159" stroke-miterlimit="10"/></g><g transform="translate(-614,-94) scale(1,1)"><path fill="none" stroke="#000000" d="M 1234.3771166125834 148.61372463482792 L 1238 159 L 1242.7824403312936 149.09402884732563" stroke-miterlimit="10"/></g><g transform="translate(-614,-94) scale(1,1)"><path fill="none" stroke="#000000" d="M 1237 201 L 1235 271" stroke-miterlimit="10"/></g><g transform="translate(-614,-94) scale(1,1)"><path fill="none" stroke="#000000" d="M 1231.0824430594123 260.7212477597107 L 1235 271 L 1239.498044332871 260.96169351038094" stroke-miterlimit="10"/></g><g transform="translate(-614,-94) scale(1,1)"><path fill="none" stroke="#000000" d="M 1224 272 L 1112 272 L 1112 184 L 1200 184" stroke-miterlimit="10"/></g><g transform="translate(-614,-94) scale(1,1)"><path fill="none" stroke="#000000" d="M 1189.837325142376 188.209517756016 L 1200 184 L 1189.837325142376 179.790482243984" stroke-miterlimit="10"/></g><g transform="translate(-614,-94) scale(1,1)"><g><path fill="none" stroke="none"/><text fill="#000000" stroke="none" font-family="Arial" font-size="13px" font-style="normal" font-weight="normal" text-decoration="none" x="1005.5" y="233.5">Red no cargada</text></g></g><g transform="translate(-614,-94) scale(1,1)"><path fill="#C0C0C0" stroke="none" d="M 1201 343 L 1288.7568359375 343 Q 1298.7568359375 343 1298.7568359375 353 L 1298.7568359375 373 Q 1298.7568359375 383 1288.7568359375 383 L 1201 383 Q 1191 383 1191 373 L 1191 353 Q 1191 343 1201 343 Z" opacity="0.2"/></g><g transform="translate(-614,-94) scale(1,1)"><path fill="#ffffff" stroke="none" d="M 1194 336 L 1281.7568359375 336 Q 1291.7568359375 336 1291.7568359375 346 L 1291.7568359375 366 Q 1291.7568359375 376 1281.7568359375 376 L 1194 376 Q 1184 376 1184 366 L 1184 346 Q 1184 336 1194 336 Z"/></g><g transform="translate(-614,-94) scale(1,1)"><path fill="none" stroke="#000000" d="M 1194 336 L 1281.7568359375 336 Q 1291.7568359375 336 1291.7568359375 346 L 1291.7568359375 366 Q 1291.7568359375 376 1281.7568359375 376 L 1194 376 Q 1184 376 1184 366 L 1184 346 Q 1184 336 1194 336 Z" stroke-miterlimit="10"/></g><g transform="translate(-614,-94) scale(1,1)"><g><path fill="none" stroke="none"/><text fill="#000000" stroke="none" font-family="Arial" font-size="13px" font-style="normal" font-weight="bold" text-decoration="none" x="1191.753173828125" y="355.5">Visualizar la red</text></g></g><g transform="translate(-614,-94) scale(1,1)"><path fill="#C0C0C0" stroke="none" d="M 1161 439 L 1330.603515625 439 Q 1340.603515625 439 1340.603515625 449 L 1340.603515625 469 Q 1340.603515625 479 1330.603515625 479 L 1161 479 Q 1151 479 1151 469 L 1151 449 Q 1151 439 1161 439 Z" opacity="0.2"/></g><g transform="translate(-614,-94) scale(1,1)"><path fill="#ffffff" stroke="none" d="M 1154 432 L 1323.603515625 432 Q 1333.603515625 432 1333.603515625 442 L 1333.603515625 462 Q 1333.603515625 472 1323.603515625 472 L 1154 472 Q 1144 472 1144 462 L 1144 442 Q 1144 432 1154 432 Z"/></g><g transform="translate(-614,-94) scale(1,1)"><path fill="none" stroke="#000000" d="M 1154 432 L 1323.603515625 432 Q 1333.603515625 432 1333.603515625 442 L 1333.603515625 462 Q 1333.603515625 472 1323.603515625 472 L 1154 472 Q 1144 472 1144 462 L 1144 442 Q 1144 432 1154 432 Z" stroke-miterlimit="10"/></g><g transform="translate(-614,-94) scale(1,1)"><g><path fill="none" stroke="none"/><text fill="#000000" stroke="none" font-family="Arial" font-size="13px" font-style="normal" font-weight="bold" text-decoration="none" x="1154.974609375" y="451.5">Listar componentes de la red</text></g></g><g transform="translate(-614,-94) scale(1,1)"><path fill="none" stroke="#000000" d="M 1235 291 L 1236 335" stroke-miterlimit="10"/></g><g transform="translate(-614,-94) scale(1,1)"><path fill="none" stroke="#000000" d="M 1231.5606587369277 324.93559494306874 L 1236 335 L 1239.9775207532446 324.7443026245161" stroke-miterlimit="10"/></g><g transform="translate(-614,-94) scale(1,1)"><g><path fill="none" stroke="none"/><text fill="#000000" stroke="none" font-family="Arial" font-size="13px" font-style="normal" font-weight="normal" text-decoration="none" x="1240.5" y="314.5">Red cargada</text></g></g><g transform="translate(-614,-94) scale(1,1)"><path fill="none" stroke="#000000" d="M 1237 377 L 1238 431" stroke-miterlimit="10"/></g><g transform="translate(-614,-94) scale(1,1)"><path fill="none" stroke="#000000" d="M 1233.603038433977 420.9170079347985 L 1238 431 L 1242.0206307240026 420.76112659609436" stroke-miterlimit="10"/></g><g transform="translate(-614,-94) scale(1,1)"><path fill="#C0C0C0" stroke="none" d="M 833 615 L 1021 615 Q 1031 615 1031 625 L 1031 658 Q 1031 668 1021 668 L 833 668 Q 823 668 823 658 L 823 625 Q 823 615 833 615 Z" opacity="0.2"/></g><g transform="translate(-614,-94) scale(1,1)"><path fill="#ffffff" stroke="none" d="M 826 608 L 1014 608 Q 1024 608 1024 618 L 1024 651 Q 1024 661 1014 661 L 826 661 Q 816 661 816 651 L 816 618 Q 816 608 826 608 Z"/></g><g transform="translate(-614,-94) scale(1,1)"><path fill="none" stroke="#000000" d="M 826 608 L 1014 608 Q 1024 608 1024 618 L 1024 651 Q 1024 661 1014 661 L 826 661 Q 816 661 816 651 L 816 618 Q 816 608 826 608 Z" stroke-miterlimit="10"/></g><g transform="translate(-614,-94) scale(1,1)"><g><path fill="none" stroke="none"/><text fill="#000000" stroke="none" font-family="Arial" font-size="13px" font-style="normal" font-weight="bold" text-decoration="none" x="832.5546875" y="627.5">Seleccionar componente de la</text><text fill="#000000" stroke="none" font-family="Arial" font-size="13px" font-style="normal" font-weight="bold" text-decoration="none" x="910.60546875" y="640.5">red</text></g></g><g transform="translate(-614,-94) scale(1,1)"><path fill="#C0C0C0" stroke="none" d="M 857 735 L 1005 735 Q 1015 735 1015 745 L 1015 778 Q 1015 788 1005 788 L 857 788 Q 847 788 847 778 L 847 745 Q 847 735 857 735 Z" opacity="0.2"/></g><g transform="translate(-614,-94) scale(1,1)"><path fill="#ffffff" stroke="none" d="M 850 728 L 998 728 Q 1008 728 1008 738 L 1008 771 Q 1008 781 998 781 L 850 781 Q 840 781 840 771 L 840 738 Q 840 728 850 728 Z"/></g><g transform="translate(-614,-94) scale(1,1)"><path fill="none" stroke="#000000" d="M 850 728 L 998 728 Q 1008 728 1008 738 L 1008 771 Q 1008 781 998 781 L 850 781 Q 840 781 840 771 L 840 738 Q 840 728 850 728 Z" stroke-miterlimit="10"/></g><g transform="translate(-614,-94) scale(1,1)"><g><path fill="none" stroke="none"/><text fill="#000000" stroke="none" font-family="Arial" font-size="13px" font-style="normal" font-weight="bold" text-decoration="none" x="854.635986328125" y="747.5">Mostrar la configuración</text><text fill="#000000" stroke="none" font-family="Arial" font-size="13px" font-style="normal" font-weight="bold" text-decoration="none" x="877.74462890625" y="760.5">del componente</text></g></g><g transform="translate(-614,-94) scale(1,1)"><path fill="#C0C0C0" stroke="none" d="M 1193 727 L 1333 727 Q 1343 727 1343 737 L 1343 783 Q 1343 793 1333 793 L 1193 793 Q 1183 793 1183 783 L 1183 737 Q 1183 727 1193 727 Z" opacity="0.2"/></g><g transform="translate(-614,-94) scale(1,1)"><path fill="#ffffff" stroke="none" d="M 1186 720 L 1326 720 Q 1336 720 1336 730 L 1336 776 Q 1336 786 1326 786 L 1186 786 Q 1176 786 1176 776 L 1176 730 Q 1176 720 1186 720 Z"/></g><g transform="translate(-614,-94) scale(1,1)"><path fill="none" stroke="#000000" d="M 1186 720 L 1326 720 Q 1336 720 1336 730 L 1336 776 Q 1336 786 1326 786 L 1186 786 Q 1176 786 1176 776 L 1176 730 Q 1176 720 1186 720 Z" stroke-miterlimit="10"/></g><g transform="translate(-614,-94) scale(1,1)"><g><path fill="none" stroke="none"/><text fill="#000000" stroke="none" font-family="Arial" font-size="13px" font-style="normal" font-weight="bold" text-decoration="none" x="1193.13916015625" y="739.5">Mostrar resultados de</text><text fill="#000000" stroke="none" font-family="Arial" font-size="13px" font-style="normal" font-weight="bold" text-decoration="none" x="1188.800537109375" y="752.5">la simulación hidráulica</text></g></g><g transform="translate(-614,-94) scale(1,1)"><path fill="#C0C0C0" stroke="none" d="M 1753 799 L 1869 799 Q 1879 799 1879 809 L 1879 842 Q 1879 852 1869 852 L 1753 852 Q 1743 852 1743 842 L 1743 809 Q 1743 799 1753 799 Z" opacity="0.2"/></g><g transform="translate(-614,-94) scale(1,1)"><path fill="#ffffff" stroke="none" d="M 1746 792 L 1862 792 Q 1872 792 1872 802 L 1872 835 Q 1872 845 1862 845 L 1746 845 Q 1736 845 1736 835 L 1736 802 Q 1736 792 1746 792 Z"/></g><g transform="translate(-614,-94) scale(1,1)"><path fill="none" stroke="#000000" d="M 1746 792 L 1862 792 Q 1872 792 1872 802 L 1872 835 Q 1872 845 1862 845 L 1746 845 Q 1736 845 1736 835 L 1736 802 Q 1736 792 1746 792 Z" stroke-miterlimit="10"/></g><g transform="translate(-614,-94) scale(1,1)"><g><path fill="none" stroke="none"/><text fill="#000000" stroke="none" font-family="Arial" font-size="13px" font-style="normal" font-weight="bold" text-decoration="none" x="1773.65185546875" y="811.5">Configurar</text><text fill="#000000" stroke="none" font-family="Arial" font-size="13px" font-style="normal" font-weight="bold" text-decoration="none" x="1768.23095703125" y="824.5">experimento</text></g></g><g transform="translate(-614,-94) scale(1,1)"><path fill="#C0C0C0" stroke="none" d="M 1607 731.5 L 1631.5 711 L 1655 731.5 L 1631.5 751 L 1607 731.5" opacity="0.2"/></g><g transform="translate(-614,-94) scale(1,1)"><path fill="#ffffff" stroke="none" d="M 1600 724 L 1624 704 L 1648 724 L 1624 744 L 1600 724"/></g><g transform="translate(-614,-94) scale(1,1)"><path fill="none" stroke="#000000" d="M 1600 724 L 1624 704 L 1648 724 L 1624 744 L 1600 724 L 1600 724" stroke-miterlimit="10"/></g><g transform="translate(-614,-94) scale(1,1)"><path fill="#C0C0C0" stroke="none" d="M 1409 895 L 1565 895 Q 1575 895 1575 905 L 1575 933 Q 1575 943 1565 943 L 1409 943 Q 1399 943 1399 933 L 1399 905 Q 1399 895 1409 895 Z" opacity="0.2"/></g><g transform="translate(-614,-94) scale(1,1)"><path fill="#ffffff" stroke="none" d="M 1402 888 L 1558 888 Q 1568 888 1568 898 L 1568 926 Q 1568 936 1558 936 L 1402 936 Q 1392 936 1392 926 L 1392 898 Q 1392 888 1402 888 Z"/></g><g transform="translate(-614,-94) scale(1,1)"><path fill="none" stroke="#000000" d="M 1402 888 L 1558 888 Q 1568 888 1568 898 L 1568 926 Q 1568 936 1558 936 L 1402 936 Q 1392 936 1392 926 L 1392 898 Q 1392 888 1402 888 Z" stroke-miterlimit="10"/></g><g transform="translate(-614,-94) scale(1,1)"><g><path fill="none" stroke="none"/><text fill="#000000" stroke="none" font-family="Arial" font-size="13px" font-style="normal" font-weight="bold" text-decoration="none" x="1418.580078125" y="907.5">Ejecutar experimento</text></g></g><g transform="translate(-614,-94) scale(1,1)"><path fill="none" stroke="#000000" d="M 1257 665 L 1256 719" stroke-miterlimit="10"/></g><g transform="translate(-614,-94) scale(1,1)"><path fill="none" stroke="#000000" d="M 1251.9793692759974 708.7611265960943 L 1256 719 L 1260.396961566023 708.9170079347986" stroke-miterlimit="10"/></g><g transform="translate(-614,-94) scale(1,1)"><path fill="none" stroke="#000000" d="M 921 662 L 923 727" stroke-miterlimit="10"/></g><g transform="translate(-614,-94) scale(1,1)"><path fill="none" stroke="#000000" d="M 918.4799237309375 716.9715948166292 L 923 727 L 926.8949767283133 716.7126701090177" stroke-miterlimit="10"/></g><g transform="translate(-614,-94) scale(1,1)"><path fill="none" stroke="#000000" d="M 1533 665 L 1599 708" stroke-miterlimit="10"/></g><g transform="translate(-614,-94) scale(1,1)"><path fill="none" stroke="#000000" d="M 1588.1871766013462 705.9793936183597 L 1599 708 L 1592.782963725606 698.9253947764727" stroke-miterlimit="10"/></g><g transform="translate(-614,-94) scale(1,1)"><path fill="none" stroke="#000000" d="M 1747 657 L 1649 710" stroke-miterlimit="10"/></g><g transform="translate(-614,-94) scale(1,1)"><path fill="none" stroke="#000000" d="M 1655.9366521854133 701.4628543143156 L 1649 710 L 1659.9416274053633 708.8682801927134" stroke-miterlimit="10"/></g><g transform="translate(-614,-94) scale(1,1)"><path fill="none" stroke="#000000" d="M 1649 737 L 1752 791" stroke-miterlimit="10"/></g><g transform="translate(-614,-94) scale(1,1)"><path fill="none" stroke="#000000" d="M 1741.044695029108 790.0093976606386 L 1752 791 L 1744.9538911967372 782.5529679334938" stroke-miterlimit="10"/></g><g transform="translate(-614,-94) scale(1,1)"><g><path fill="none" stroke="none"/><text fill="#000000" stroke="none" font-family="Arial" font-size="13px" font-style="normal" font-weight="normal" text-decoration="none" x="1699.2099609375" y="748.5">Hay parametros a</text><text fill="#000000" stroke="none" font-family="Arial" font-size="13px" font-style="normal" font-weight="normal" text-decoration="none" x="1721.96630859375" y="761.5">configurar</text></g></g><g transform="translate(-614,-94) scale(1,1)"><path fill="none" stroke="#000000" d="M 1608 745 L 1499 887" stroke-miterlimit="10"/></g><g transform="translate(-614,-94) scale(1,1)"><path fill="none" stroke="#000000" d="M 1501.8488726711764 876.3753153221649 L 1499 887 L 1508.527243768192 881.5016706008598" stroke-miterlimit="10"/></g><g transform="translate(-614,-94) scale(1,1)"><g><path fill="none" stroke="none"/><text fill="#000000" stroke="none" font-family="Arial" font-size="13px" font-style="normal" font-weight="normal" text-decoration="none" x="1422.224609375" y="822.5">No hay parametros</text><text fill="#000000" stroke="none" font-family="Arial" font-size="13px" font-style="normal" font-weight="normal" text-decoration="none" x="1443.175048828125" y="835.5">a configurar</text></g></g><g transform="translate(-614,-94) scale(1,1)"><path fill="#C0C0C0" stroke="none" d="M 1471 1040.5 L 1490.5 1023 L 1509 1040.5 L 1490.5 1057 L 1471 1040.5" opacity="0.2"/></g><g transform="translate(-614,-94) scale(1,1)"><path fill="#ffffff" stroke="none" d="M 1464 1033 L 1483 1016 L 1502 1033 L 1483 1050 L 1464 1033"/></g><g transform="translate(-614,-94) scale(1,1)"><path fill="none" stroke="#000000" d="M 1464 1033 L 1483 1016 L 1502 1033 L 1483 1050 L 1464 1033 L 1464 1033" stroke-miterlimit="10"/></g><g transform="translate(-614,-94) scale(1,1)"><path fill="#C0C0C0" stroke="none" d="M 1569 1111 L 1625.1962890625 1111 Q 1635.1962890625 1111 1635.1962890625 1121 L 1635.1962890625 1141 Q 1635.1962890625 1151 1625.1962890625 1151 L 1569 1151 Q 1559 1151 1559 1141 L 1559 1121 Q 1559 1111 1569 1111 Z" opacity="0.2"/></g><g transform="translate(-614,-94) scale(1,1)"><path fill="#ffffff" stroke="none" d="M 1562 1104 L 1618.1962890625 1104 Q 1628.1962890625 1104 1628.1962890625 1114 L 1628.1962890625 1134 Q 1628.1962890625 1144 1618.1962890625 1144 L 1562 1144 Q 1552 1144 1552 1134 L 1552 1114 Q 1552 1104 1562 1104 Z"/></g><g transform="translate(-614,-94) scale(1,1)"><path fill="none" stroke="#000000" d="M 1562 1104 L 1618.1962890625 1104 Q 1628.1962890625 1104 1628.1962890625 1114 L 1628.1962890625 1134 Q 1628.1962890625 1144 1618.1962890625 1144 L 1562 1144 Q 1552 1144 1552 1134 L 1552 1114 Q 1552 1104 1562 1104 Z" stroke-miterlimit="10"/></g><g transform="translate(-614,-94) scale(1,1)"><g><path fill="none" stroke="none"/><text fill="#000000" stroke="none" font-family="Arial" font-size="13px" font-style="normal" font-weight="bold" text-decoration="none" x="1559.0263671875" y="1123.5">Ver gráfico</text></g></g><g transform="translate(-614,-94) scale(1,1)"><path fill="#C0C0C0" stroke="none" d="M 1257 1271 L 1365.1962890625 1271 Q 1375.1962890625 1271 1375.1962890625 1281 L 1375.1962890625 1301 Q 1375.1962890625 1311 1365.1962890625 1311 L 1257 1311 Q 1247 1311 1247 1301 L 1247 1281 Q 1247 1271 1257 1271 Z" opacity="0.2"/></g><g transform="translate(-614,-94) scale(1,1)"><path fill="#ffffff" stroke="none" d="M 1250 1264 L 1358.1962890625 1264 Q 1368.1962890625 1264 1368.1962890625 1274 L 1368.1962890625 1294 Q 1368.1962890625 1304 1358.1962890625 1304 L 1250 1304 Q 1240 1304 1240 1294 L 1240 1274 Q 1240 1264 1250 1264 Z"/></g><g transform="translate(-614,-94) scale(1,1)"><path fill="none" stroke="#000000" d="M 1250 1264 L 1358.1962890625 1264 Q 1368.1962890625 1264 1368.1962890625 1274 L 1368.1962890625 1294 Q 1368.1962890625 1304 1358.1962890625 1304 L 1250 1304 Q 1240 1304 1240 1294 L 1240 1274 Q 1240 1264 1250 1264 Z" stroke-miterlimit="10"/></g><g transform="translate(-614,-94) scale(1,1)"><g><path fill="none" stroke="none"/><text fill="#000000" stroke="none" font-family="Arial" font-size="13px" font-style="normal" font-weight="bold" text-decoration="none" x="1249.549560546875" y="1283.5">Mostrar soluciones</text></g></g><g transform="translate(-614,-94) scale(1,1)"><path fill="none" stroke="#000000" d="M 1481 937 L 1483 1015" stroke-miterlimit="10"/></g><g transform="translate(-614,-94) scale(1,1)"><path fill="none" stroke="#000000" d="M 1478.5313695737946 1004.9485651713802 L 1483 1015 L 1486.9476388509854 1004.732763395042" stroke-miterlimit="10"/></g><g transform="translate(-614,-94) scale(1,1)"><path fill="none" stroke="#000000" d="M 1503 1050 L 1565 1103" stroke-miterlimit="10"/></g><g transform="translate(-614,-94) scale(1,1)"><path fill="none" stroke="#000000" d="M 1554.539868639914 1099.5962297478025 L 1565 1103 L 1560.010399210111 1093.1967411562512" stroke-miterlimit="10"/></g><g transform="translate(-614,-94) scale(1,1)"><g><path fill="none" stroke="none"/><text fill="#000000" stroke="none" font-family="Arial" font-size="13px" font-style="normal" font-weight="normal" text-decoration="none" x="1529.8154296875" y="1055.5">Se quiere ver el</text><text fill="#000000" stroke="none" font-family="Arial" font-size="13px" font-style="normal" font-weight="normal" text-decoration="none" x="1555.831298828125" y="1068.5">gráfico</text></g></g><g transform="translate(-614,-94) scale(1,1)"><path fill="none" stroke="#000000" d="M 1470 1051 L 1319 1263" stroke-miterlimit="10"/></g><g transform="translate(-614,-94) scale(1,1)"><path fill="none" stroke="#000000" d="M 1321.4671482805093 1252.280243502673 L 1319 1263 L 1328.3245497912692 1257.1645247674126" stroke-miterlimit="10"/></g><g transform="translate(-614,-94) scale(1,1)"><g><path fill="none" stroke="none"/><text fill="#000000" stroke="none" font-family="Arial" font-size="13px" font-style="normal" font-weight="normal" text-decoration="none" x="1310.31005859375" y="1120.5">No se quiere ver</text><text fill="#000000" stroke="none" font-family="Arial" font-size="13px" font-style="normal" font-weight="normal" text-decoration="none" x="1331.62548828125" y="1133.5">el grafico</text></g></g><g transform="translate(-614,-94) scale(1,1)"><path fill="#C0C0C0" stroke="none" d="M 1697 1255 L 1781 1255 Q 1791 1255 1791 1265 L 1791 1311 Q 1791 1321 1781 1321 L 1697 1321 Q 1687 1321 1687 1311 L 1687 1265 Q 1687 1255 1697 1255 Z" opacity="0.2"/></g><g transform="translate(-614,-94) scale(1,1)"><path fill="#ffffff" stroke="none" d="M 1690 1248 L 1774 1248 Q 1784 1248 1784 1258 L 1784 1304 Q 1784 1314 1774 1314 L 1690 1314 Q 1680 1314 1680 1304 L 1680 1258 Q 1680 1248 1690 1248 Z"/></g><g transform="translate(-614,-94) scale(1,1)"><path fill="none" stroke="#000000" d="M 1690 1248 L 1774 1248 Q 1784 1248 1784 1258 L 1784 1304 Q 1784 1314 1774 1314 L 1690 1314 Q 1680 1314 1680 1304 L 1680 1258 Q 1680 1248 1690 1248 Z" stroke-miterlimit="10"/></g><g transform="translate(-614,-94) scale(1,1)"><g><path fill="none" stroke="none"/><text fill="#000000" stroke="none" font-family="Arial" font-size="13px" font-style="normal" font-weight="bold" text-decoration="none" x="1708.155029296875" y="1267.5">Guardar</text><text fill="#000000" stroke="none" font-family="Arial" font-size="13px" font-style="normal" font-weight="bold" text-decoration="none" x="1700.201416015625" y="1280.5">imagen del</text><text fill="#000000" stroke="none" font-family="Arial" font-size="13px" font-style="normal" font-weight="bold" text-decoration="none" x="1712.490478515625" y="1293.5">gráfico</text></g></g><g transform="translate(-614,-94) scale(1,1)"><path fill="#C0C0C0" stroke="none" d="M 1575 1199.5 L 1591.5 1183 L 1607 1199.5 L 1591.5 1215 L 1575 1199.5" opacity="0.2"/></g><g transform="translate(-614,-94) scale(1,1)"><path fill="#ffffff" stroke="none" d="M 1568 1192 L 1584 1176 L 1600 1192 L 1584 1208 L 1568 1192"/></g><g transform="translate(-614,-94) scale(1,1)"><path fill="none" stroke="#000000" d="M 1568 1192 L 1584 1176 L 1600 1192 L 1584 1208 L 1568 1192 L 1568 1192" stroke-miterlimit="10"/></g><g transform="translate(-614,-94) scale(1,1)"><path fill="none" stroke="#000000" d="M 1588 1145 L 1586 1175" stroke-miterlimit="10"/></g><g transform="translate(-614,-94) scale(1,1)"><path fill="none" stroke="#000000" d="M 1582.4758167371174 1164.5798209070276 L 1586 1175 L 1590.8762054144906 1165.1398468188524" stroke-miterlimit="10"/></g><g transform="translate(-614,-94) scale(1,1)"><path fill="none" stroke="#000000" d="M 1601 1202 L 1679 1249" stroke-miterlimit="10"/></g><g transform="translate(-614,-94) scale(1,1)"><path fill="none" stroke="#000000" d="M 1668.122867478235 1247.3604915053704 L 1679 1249 L 1672.4680134083608 1240.1493982596296" stroke-miterlimit="10"/></g><g transform="translate(-614,-94) scale(1,1)"><g><path fill="none" stroke="none"/><text fill="#000000" stroke="none" font-family="Arial" font-size="13px" font-style="normal" font-weight="normal" text-decoration="none" x="1671.675048828125" y="1193.5">Se quiere</text><text fill="#000000" stroke="none" font-family="Arial" font-size="13px" font-style="normal" font-weight="normal" text-decoration="none" x="1670.23095703125" y="1206.5">guardar el</text><text fill="#000000" stroke="none" font-family="Arial" font-size="13px" font-style="normal" font-weight="normal" text-decoration="none" x="1679.990478515625" y="1219.5">gráfico</text></g></g><g transform="translate(-614,-94) scale(1,1)"><path fill="none" stroke="#000000" d="M 1567 1198 L 1368 1263" stroke-miterlimit="10"/></g><g transform="translate(-614,-94) scale(1,1)"><path fill="none" stroke="#000000" d="M 1376.353389169968 1255.8431229313994 L 1368 1263 L 1378.9674144353007 1263.8460618206486" stroke-miterlimit="10"/></g><g transform="translate(-614,-94) scale(1,1)"><g><path fill="none" stroke="none"/><text fill="#000000" stroke="none" font-family="Arial" font-size="13px" font-style="normal" font-weight="normal" text-decoration="none" x="1424.6455078125" y="1202.5">No se quiere</text><text fill="#000000" stroke="none" font-family="Arial" font-size="13px" font-style="normal" font-weight="normal" text-decoration="none" x="1432.23095703125" y="1215.5">guardar el</text><text fill="#000000" stroke="none" font-family="Arial" font-size="13px" font-style="normal" font-weight="normal" text-decoration="none" x="1441.990478515625" y="1228.5">gráfico</text></g></g><g transform="translate(-614,-94) scale(1,1)"><path fill="#C0C0C0" stroke="none" d="M 1121 1455 L 1201.04443359375 1455 Q 1211.04443359375 1455 1211.04443359375 1465 L 1211.04443359375 1485 Q 1211.04443359375 1495 1201.04443359375 1495 L 1121 1495 Q 1111 1495 1111 1485 L 1111 1465 Q 1111 1455 1121 1455 Z" opacity="0.2"/></g><g transform="translate(-614,-94) scale(1,1)"><path fill="#ffffff" stroke="none" d="M 1114 1448 L 1194.04443359375 1448 Q 1204.04443359375 1448 1204.04443359375 1458 L 1204.04443359375 1478 Q 1204.04443359375 1488 1194.04443359375 1488 L 1114 1488 Q 1104 1488 1104 1478 L 1104 1458 Q 1104 1448 1114 1448 Z"/></g><g transform="translate(-614,-94) scale(1,1)"><path fill="none" stroke="#000000" d="M 1114 1448 L 1194.04443359375 1448 Q 1204.04443359375 1448 1204.04443359375 1458 L 1204.04443359375 1478 Q 1204.04443359375 1488 1194.04443359375 1488 L 1114 1488 Q 1104 1488 1104 1478 L 1104 1458 Q 1104 1448 1114 1448 Z" stroke-miterlimit="10"/></g><g transform="translate(-614,-94) scale(1,1)"><g><path fill="none" stroke="none"/><text fill="#000000" stroke="none" font-family="Arial" font-size="13px" font-style="normal" font-weight="bold" text-decoration="none" x="1111.75634765625" y="1467.5">Exportar Excel</text></g></g><g transform="translate(-614,-94) scale(1,1)"><path fill="#C0C0C0" stroke="none" d="M 1265 1455 L 1336.3544921875 1455 Q 1346.3544921875 1455 1346.3544921875 1465 L 1346.3544921875 1485 Q 1346.3544921875 1495 1336.3544921875 1495 L 1265 1495 Q 1255 1495 1255 1485 L 1255 1465 Q 1255 1455 1265 1455 Z" opacity="0.2"/></g><g transform="translate(-614,-94) scale(1,1)"><path fill="#ffffff" stroke="none" d="M 1258 1448 L 1329.3544921875 1448 Q 1339.3544921875 1448 1339.3544921875 1458 L 1339.3544921875 1478 Q 1339.3544921875 1488 1329.3544921875 1488 L 1258 1488 Q 1248 1488 1248 1478 L 1248 1458 Q 1248 1448 1258 1448 Z"/></g><g transform="translate(-614,-94) scale(1,1)"><path fill="none" stroke="#000000" d="M 1258 1448 L 1329.3544921875 1448 Q 1339.3544921875 1448 1339.3544921875 1458 L 1339.3544921875 1478 Q 1339.3544921875 1488 1329.3544921875 1488 L 1258 1488 Q 1248 1488 1248 1478 L 1248 1458 Q 1248 1448 1258 1448 Z" stroke-miterlimit="10"/></g><g transform="translate(-614,-94) scale(1,1)"><g><path fill="none" stroke="none"/><text fill="#000000" stroke="none" font-family="Arial" font-size="13px" font-style="normal" font-weight="bold" text-decoration="none" x="1254.66455078125" y="1467.5">Exportar TSV</text></g></g><g transform="translate(-614,-94) scale(1,1)"><path fill="#C0C0C0" stroke="none" d="M 1489 1543 L 1556.74267578125 1543 Q 1566.74267578125 1543 1566.74267578125 1553 L 1566.74267578125 1573 Q 1566.74267578125 1583 1556.74267578125 1583 L 1489 1583 Q 1479 1583 1479 1573 L 1479 1553 Q 1479 1543 1489 1543 Z" opacity="0.2"/></g><g transform="translate(-614,-94) scale(1,1)"><path fill="#ffffff" stroke="none" d="M 1482 1536 L 1549.74267578125 1536 Q 1559.74267578125 1536 1559.74267578125 1546 L 1559.74267578125 1566 Q 1559.74267578125 1576 1549.74267578125 1576 L 1482 1576 Q 1472 1576 1472 1566 L 1472 1546 Q 1472 1536 1482 1536 Z"/></g><g transform="translate(-614,-94) scale(1,1)"><path fill="none" stroke="#000000" d="M 1482 1536 L 1549.74267578125 1536 Q 1559.74267578125 1536 1559.74267578125 1546 L 1559.74267578125 1566 Q 1559.74267578125 1576 1549.74267578125 1576 L 1482 1576 Q 1472 1576 1472 1566 L 1472 1546 Q 1472 1536 1482 1536 Z" stroke-miterlimit="10"/></g><g transform="translate(-614,-94) scale(1,1)"><g><path fill="none" stroke="none"/><text fill="#000000" stroke="none" font-family="Arial" font-size="13px" font-style="normal" font-weight="bold" text-decoration="none" x="1478.66455078125" y="1555.5">Exportar INP</text></g></g><g transform="translate(-614,-94) scale(1,1)"><path fill="#C0C0C0" stroke="none" d="M 1295 1371.5 L 1311.5 1359 L 1327 1371.5 L 1311.5 1383 L 1295 1371.5" opacity="0.2"/></g><g transform="translate(-614,-94) scale(1,1)"><path fill="#ffffff" stroke="none" d="M 1288 1364 L 1304 1352 L 1320 1364 L 1304 1376 L 1288 1364"/></g><g transform="translate(-614,-94) scale(1,1)"><path fill="none" stroke="#000000" d="M 1288 1364 L 1304 1352 L 1320 1364 L 1304 1376 L 1288 1364 L 1288 1364" stroke-miterlimit="10"/></g><g transform="translate(-614,-94) scale(1,1)"><path fill="#C0C0C0" stroke="none" d="M 1215 531.5 L 1239.5 511 L 1263 531.5 L 1239.5 551 L 1215 531.5" opacity="0.2"/></g><g transform="translate(-614,-94) scale(1,1)"><path fill="#ffffff" stroke="none" d="M 1208 524 L 1232 504 L 1256 524 L 1232 544 L 1208 524"/></g><g transform="translate(-614,-94) scale(1,1)"><path fill="none" stroke="#000000" d="M 1208 524 L 1232 504 L 1256 524 L 1232 544 L 1208 524 L 1208 524" stroke-miterlimit="10"/></g><g transform="translate(-614,-94) scale(1,1)"><path fill="none" stroke="#000000" d="M 1236 473 L 1234 503" stroke-miterlimit="10"/></g><g transform="translate(-614,-94) scale(1,1)"><path fill="none" stroke="#000000" d="M 1230.4758167371174 492.5798209070276 L 1234 503 L 1238.8762054144906 493.13984681885256" stroke-miterlimit="10"/></g><g transform="translate(-614,-94) scale(1,1)"><path fill="none" stroke="#000000" d="M 1232 544 L 1232 576 L 928 576 L 928 608" stroke-miterlimit="10"/></g><g transform="translate(-614,-94) scale(1,1)"><path fill="none" stroke="#000000" d="M 923.790482243984 597.8373251423759 L 928 608 L 932.209517756016 597.8373251423759" stroke-miterlimit="10"/></g><g transform="translate(-614,-94) scale(1,1)"><path fill="none" stroke="#000000" d="M 1232 544 L 1232 624" stroke-miterlimit="10"/></g><g transform="translate(-614,-94) scale(1,1)"><path fill="none" stroke="#000000" d="M 1227.7904822439841 613.8373251423759 L 1232 624 L 1236.2095177560159 613.8373251423759" stroke-miterlimit="10"/></g><g transform="translate(-614,-94) scale(1,1)"><path fill="none" stroke="#000000" d="M 1232 544 L 1232 576 L 1496 576 L 1496 624" stroke-miterlimit="10"/></g><g transform="translate(-614,-94) scale(1,1)"><path fill="none" stroke="#000000" d="M 1491.7904822439841 613.8373251423759 L 1496 624 L 1500.2095177560159 613.8373251423759" stroke-miterlimit="10"/></g><g transform="translate(-614,-94) scale(1,1)"><path fill="none" stroke="#000000" d="M 1232 544 L 1232 576 L 1816 576 L 1816 616" stroke-miterlimit="10"/></g><g transform="translate(-614,-94) scale(1,1)"><path fill="none" stroke="#000000" d="M 1811.7904822439841 605.8373251423759 L 1816 616 L 1820.2095177560159 605.8373251423759" stroke-miterlimit="10"/></g><g transform="translate(-614,-94) scale(1,1)"><path fill="none" stroke="#000000" d="M 1304 1305 L 1304 1351" stroke-miterlimit="10"/></g><g transform="translate(-614,-94) scale(1,1)"><path fill="none" stroke="#000000" d="M 1299.7904822439841 1340.837325142376 L 1304 1351 L 1308.2095177560159 1340.837325142376" stroke-miterlimit="10"/></g><g transform="translate(-614,-94) scale(1,1)"><path fill="none" stroke="#000000" d="M 1287 1376 L 1184 1447" stroke-miterlimit="10"/></g><g transform="translate(-614,-94) scale(1,1)"><path fill="none" stroke="#000000" d="M 1189.9782573029363 1437.7663420238841 L 1184 1447 L 1194.7564484486531 1444.6980841085156" stroke-miterlimit="10"/></g><g transform="translate(-614,-94) scale(1,1)"><path fill="none" stroke="#000000" d="M 1303 1377 L 1295 1447" stroke-miterlimit="10"/></g><g transform="translate(-614,-94) scale(1,1)"><path fill="none" stroke="#000000" d="M 1291.971643660429 1436.4250740957405 L 1295 1447 L 1300.3362305138874 1437.3810268789928" stroke-miterlimit="10"/></g><g transform="translate(-614,-94) scale(1,1)"><path fill="none" stroke="#000000" d="M 1321 1371 L 1503 1449" stroke-miterlimit="10"/></g><g transform="translate(-614,-94) scale(1,1)"><path fill="none" stroke="#000000" d="M 1492.000817631119 1448.8658835726114 L 1503 1449 L 1495.3172381947315 1441.1275689241818" stroke-miterlimit="10"/></g><g transform="translate(-614,-94) scale(1,1)"><path fill="none" stroke="#000000" d="M 1679 1281 L 1369 1284" stroke-miterlimit="10"/></g><g transform="translate(-614,-94) scale(1,1)"><path fill="none" stroke="#000000" d="M 1379.121463650203 1279.6923354845553 L 1369 1284 L 1379.2029343725392 1288.110976792644" stroke-miterlimit="10"/></g><g transform="translate(-614,-94) scale(1,1)"><path fill="none" stroke="#000000" d="M 840 754 L 784 754 L 784 520 L 1208 520" stroke-miterlimit="10"/></g><g transform="translate(-614,-94) scale(1,1)"><path fill="none" stroke="#000000" d="M 1197.837325142376 524.209517756016 L 1208 520 L 1197.837325142376 515.790482243984" stroke-miterlimit="10"/></g><g transform="translate(-614,-94) scale(1,1)"><path fill="none" stroke="#000000" d="M 1256 786 L 1256 840 L 736 840 L 736 520 L 1208 520" stroke-miterlimit="10"/></g><g transform="translate(-614,-94) scale(1,1)"><path fill="none" stroke="#000000" d="M 1197.837325142376 524.209517756016 L 1208 520 L 1197.837325142376 515.790482243984" stroke-miterlimit="10"/></g><g transform="translate(-614,-94) scale(1,1)"><path fill="none" stroke="#000000" d="M 1830 913 L 2096 913 L 2096 520 L 1256 520" stroke-miterlimit="10"/></g><g transform="translate(-614,-94) scale(1,1)"><path fill="none" stroke="#000000" d="M 1266.162674857624 515.790482243984 L 1256 520 L 1266.162674857624 524.209517756016" stroke-miterlimit="10"/></g><g transform="translate(-614,-94) scale(1,1)"><g><path fill="none" stroke="none"/><text fill="#000000" stroke="none" font-family="Arial" font-size="13px" font-style="normal" font-weight="normal" text-decoration="none" x="1933.904052734375" y="931.5">Experimento no</text><text fill="#000000" stroke="none" font-family="Arial" font-size="13px" font-style="normal" font-weight="normal" text-decoration="none" x="1945.4599609375" y="944.5">configurado</text></g></g><g transform="translate(-614,-94) scale(1,1)"><path fill="#C0C0C0" stroke="none" d="M 1791 916.5 L 1814.5 895 L 1837 916.5 L 1814.5 937 L 1791 916.5" opacity="0.2"/></g><g transform="translate(-614,-94) scale(1,1)"><path fill="#ffffff" stroke="none" d="M 1784 909 L 1807 888 L 1830 909 L 1807 930 L 1784 909"/></g><g transform="translate(-614,-94) scale(1,1)"><path fill="none" stroke="#000000" d="M 1784 909 L 1807 888 L 1830 909 L 1807 930 L 1784 909 L 1784 909" stroke-miterlimit="10"/></g><g transform="translate(-614,-94) scale(1,1)"><path fill="none" stroke="#000000" d="M 1805 846 L 1806 887" stroke-miterlimit="10"/></g><g transform="translate(-614,-94) scale(1,1)"><path fill="none" stroke="#000000" d="M 1801.543937348628 876.9429872403856 L 1806 887 L 1809.9604698026258 876.7377059610197" stroke-miterlimit="10"/></g><g transform="translate(-614,-94) scale(1,1)"><path fill="none" stroke="#000000" d="M 1783 909 L 1569 911" stroke-miterlimit="10"/></g><g transform="translate(-614,-94) scale(1,1)"><path fill="none" stroke="#000000" d="M 1579.122891493564 906.6956919476497 L 1569 911 L 1579.2015706324476 915.114359808182" stroke-miterlimit="10"/></g><g transform="translate(-614,-94) scale(1,1)"><g><path fill="none" stroke="none"/><text fill="#000000" stroke="none" font-family="Arial" font-size="13px" font-style="normal" font-weight="normal" text-decoration="none" x="1617.275390625" y="934.5">Experimento</text><text fill="#000000" stroke="none" font-family="Arial" font-size="13px" font-style="normal" font-weight="normal" text-decoration="none" x="1619.79541015625" y="947.5">configurado</text></g></g><g transform="translate(-614,-94) scale(1,1)"><path fill="#C0C0C0" stroke="none" d="M 1999 635.5 C 1999 628.59644 2004.59644 623 2011.5 623 C 2018.40356 623 2024 628.59644 2024 635.5 C 2024 642.40356 2018.40356 648 2011.5 648 C 2004.59644 648 1999 642.40356 1999 635.5 Z" opacity="0.2"/></g><g transform="translate(-614,-94) scale(1,1)"><path fill="none" stroke="#000000" d="M 1992 628.5 C 1992 621.59644 1997.59644 616 2004.5 616 C 2011.40356 616 2017 621.59644 2017 628.5 C 2017 635.40356 2011.40356 641 2004.5 641 C 1997.59644 641 1992 635.40356 1992 628.5 Z" stroke-miterlimit="10"/></g><g transform="translate(-614,-94) scale(1,1)"><path fill="#000000" stroke="none" d="M 1997 628.5 C 1997 624.357864 2000.357864 621 2004.5 621 C 2008.642136 621 2012 624.357864 2012 628.5 C 2012 632.642136 2008.642136 636 2004.5 636 C 2000.357864 636 1997 632.642136 1997 628.5 Z"/></g><g transform="translate(-614,-94) scale(1,1)"><path fill="none" stroke="#000000" d="M 1232 544 L 1232 576 L 2008 576 L 2008 616" stroke-miterlimit="10"/></g><g transform="translate(-614,-94) scale(1,1)"><path fill="none" stroke="#000000" d="M 2003.7904822439841 605.8373251423759 L 2008 616 L 2012.2095177560159 605.8373251423759" stroke-miterlimit="10"/></g><g transform="translate(-614,-94) scale(1,1)"><path fill="none" stroke="#000000" d="M 1288 1361 L 624 1361 L 624 520 L 1208 520" stroke-miterlimit="10"/></g><g transform="translate(-614,-94) scale(1,1)"><path fill="none" stroke="#000000" d="M 1197.837325142376 524.209517756016 L 1208 520 L 1197.837325142376 515.790482243984" stroke-miterlimit="10"/></g><g transform="translate(-614,-94) scale(1,1)"><path fill="#C0C0C0" stroke="none" d="M 1279 1567.5 L 1307.5 1543 L 1335 1567.5 L 1307.5 1591 L 1279 1567.5" opacity="0.2"/></g><g transform="translate(-614,-94) scale(1,1)"><path fill="#ffffff" stroke="none" d="M 1272 1560 L 1300 1536 L 1328 1560 L 1300 1584 L 1272 1560"/></g><g transform="translate(-614,-94) scale(1,1)"><path fill="none" stroke="#000000" d="M 1272 1560 L 1300 1536 L 1328 1560 L 1300 1584 L 1272 1560 L 1272 1560" stroke-miterlimit="10"/></g><g transform="translate(-614,-94) scale(1,1)"><path fill="none" stroke="#000000" d="M 1187 1489 L 1271 1542" stroke-miterlimit="10"/></g><g transform="translate(-614,-94) scale(1,1)"><path fill="none" stroke="#000000" d="M 1260.1588825103684 1540.137160346138 L 1271 1542 L 1264.6513988589504 1533.0169457559323" stroke-miterlimit="10"/></g><g transform="translate(-614,-94) scale(1,1)"><path fill="none" stroke="#000000" d="M 1295 1489 L 1298 1535" stroke-miterlimit="10"/></g><g transform="translate(-614,-94) scale(1,1)"><path fill="none" stroke="#000000" d="M 1293.138027862704 1525.1328207203803 L 1298 1535 L 1301.5392159115802 1524.5849171519753" stroke-miterlimit="10"/></g><g transform="translate(-614,-94) scale(1,1)"><path fill="none" stroke="#000000" d="M 1471 1557 L 1329 1559" stroke-miterlimit="10"/></g><g transform="translate(-614,-94) scale(1,1)"><path fill="none" stroke="#000000" d="M 1339.1023839030222 1554.6477776394172 L 1329 1559 L 1339.2209501083767 1563.0659782195771" stroke-miterlimit="10"/></g><g transform="translate(-614,-94) scale(1,1)"><path fill="none" stroke="#000000" d="M 1272 1561 L 624 1561 L 624 520 L 1208 520" stroke-miterlimit="10"/></g><g transform="translate(-614,-94) scale(1,1)"><path fill="none" stroke="#000000" d="M 1197.837325142376 524.209517756016 L 1208 520 L 1197.837325142376 515.790482243984" stroke-miterlimit="10"/></g><g transform="translate(-614,-94) scale(1,1)"><path fill="#C0C0C0" stroke="none" d="M 1511 1463.5 L 1527.5 1447 L 1543 1463.5 L 1527.5 1479 L 1511 1463.5" opacity="0.2"/></g><g transform="translate(-614,-94) scale(1,1)"><path fill="#ffffff" stroke="none" d="M 1504 1456 L 1520 1440 L 1536 1456 L 1520 1472 L 1504 1456"/></g><g transform="translate(-614,-94) scale(1,1)"><path fill="none" stroke="#000000" d="M 1504 1456 L 1520 1440 L 1536 1456 L 1520 1472 L 1504 1456 L 1504 1456" stroke-miterlimit="10"/></g><g transform="translate(-614,-94) scale(1,1)"><path fill="none" stroke="#000000" d="M 1519 1473 L 1516 1535" stroke-miterlimit="10"/></g><g transform="translate(-614,-94) scale(1,1)"><path fill="none" stroke="#000000" d="M 1512.2865691827315 1524.6457529696572 L 1516 1535 L 1520.6957661768784 1525.0526495984063" stroke-miterlimit="10"/></g><g transform="translate(-614,-94) scale(1,1)"><g><path fill="none" stroke="none"/><text fill="#000000" stroke="none" font-family="Arial" font-size="13px" font-style="normal" font-weight="normal" text-decoration="none" x="1558.2490234375" y="1509.5">Solución</text><text fill="#000000" stroke="none" font-family="Arial" font-size="13px" font-style="normal" font-weight="normal" text-decoration="none" x="1545.239501953125" y="1522.5">seleccionada</text></g></g><g transform="translate(-614,-94) scale(1,1)"><path fill="none" stroke="#000000" d="M 1503 1464 L 1329 1546" stroke-miterlimit="10"/></g><g transform="translate(-614,-94) scale(1,1)"><path fill="none" stroke="#000000" d="M 1336.3984744191775 1537.8598171845604 L 1329 1546 L 1339.987489901131 1545.4755329633401" stroke-miterlimit="10"/></g><g transform="translate(-614,-94) scale(1,1)"><g><path fill="none" stroke="none"/><text fill="#000000" stroke="none" font-family="Arial" font-size="13px" font-style="normal" font-weight="normal" text-decoration="none" x="1398.030517578125" y="1469.5">Solución no</text><text fill="#000000" stroke="none" font-family="Arial" font-size="13px" font-style="normal" font-weight="normal" text-decoration="none" x="1394.056884765625" y="1482.5">seleccionada</text></g></g></g></svg>