<svg version="1.1" xmlns="http://www.w3.org/2000/svg" xmlns:xlink="http://www.w3.org/1999/xlink" width="960.822265625" height="545"><defs/><g><g transform="translate(-214,-390) scale(1,1)"><rect fill="#C0C0C0" stroke="none" x="479" y="425" width="266.4150390625" height="132" opacity="0.2"/></g><g transform="translate(-214,-390) scale(1,1)"><rect fill="#C0C0C0" stroke="none" x="708.56689453125" y="407" width="45.84814453125" height="22" opacity="0.2"/></g><g transform="translate(-214,-390) scale(1,1)"><rect fill="#ffffff" stroke="none" x="472" y="418" width="266.4150390625" height="132"/></g><g transform="translate(-214,-390) scale(1,1)"><path fill="none" stroke="#000000" d="M 472 418 L 738.4150390625 418 L 738.4150390625 550 L 472 550 L 472 418 Z Z" stroke-miterlimit="10"/></g><g transform="translate(-214,-390) scale(1,1)"><path fill="none" stroke="#000000" d="M 472 443 L 738.4150390625 443" stroke-miterlimit="10"/></g><g transform="translate(-214,-390) scale(1,1)"><path fill="none" stroke="#000000" d="M 472 453 L 738.4150390625 453" stroke-miterlimit="10"/></g><g transform="translate(-214,-390) scale(1,1)"><g><path fill="none" stroke="none"/><text fill="#000000" stroke="none" font-family="Arial" font-size="13px" font-style="normal" font-weight="bold" text-decoration="none" x="577.75390625" y="437.5">Algorithm</text></g></g><g transform="translate(-214,-390) scale(1,1)"><g><path fill="none" stroke="none"/><text fill="#000000" stroke="none" font-family="Arial" font-size="13px" font-style="normal" font-weight="normal" text-decoration="none" x="477" y="470.5">+runSingleStep()</text></g></g><g transform="translate(-214,-390) scale(1,1)"><g><path fill="none" stroke="none"/><text fill="#000000" stroke="none" font-family="Arial" font-size="13px" font-style="normal" font-weight="normal" text-decoration="none" x="477" y="485.5">+isStoppingConditionReached(): boolean</text></g></g><g transform="translate(-214,-390) scale(1,1)"><g><path fill="none" stroke="none"/><text fill="#000000" stroke="none" font-family="Arial" font-size="13px" font-style="normal" font-weight="normal" text-decoration="none" x="477" y="500.5">+getStatusOfExecution(): String</text></g></g><g transform="translate(-214,-390) scale(1,1)"><g><path fill="none" stroke="none"/><text fill="#000000" stroke="none" font-family="Arial" font-size="13px" font-style="normal" font-weight="normal" text-decoration="none" x="477" y="515.5">+getResult(): List&lt;Result&gt;</text></g></g><g transform="translate(-214,-390) scale(1,1)"><g><path fill="none" stroke="none"/><text fill="#000000" stroke="none" font-family="Arial" font-size="13px" font-style="normal" font-weight="normal" text-decoration="none" x="477" y="530.5">+getName(): String</text></g></g><g transform="translate(-214,-390) scale(1,1)"><rect fill="#ffffff" stroke="none" x="701.56689453125" y="400" width="45.84814453125" height="22"/></g><g transform="translate(-214,-390) scale(1,1)"><path fill="none" stroke="#000000" d="M 701.56689453125 400 L 747.4150390625 400 L 747.4150390625 422 L 701.56689453125 422 L 701.56689453125 400 Z Z" stroke-miterlimit="10" stroke-dasharray="3"/></g><g transform="translate(-214,-390) scale(1,1)"><g><path fill="none" stroke="none"/><text fill="#000000" stroke="none" font-family="Arial" font-size="13px" font-style="normal" font-weight="normal" text-decoration="none" x="706.56689453125" y="417.5">Result</text></g></g><g transform="translate(-214,-390) scale(1,1)"><rect fill="#C0C0C0" stroke="none" x="231" y="593" width="286" height="222" opacity="0.2"/></g><g transform="translate(-214,-390) scale(1,1)"><rect fill="#C0C0C0" stroke="none" x="488.81640625" y="575" width="37.18359375" height="22" opacity="0.2"/></g><g transform="translate(-214,-390) scale(1,1)"><rect fill="#ffffff" stroke="none" x="224" y="586" width="286" height="222"/></g><g transform="translate(-214,-390) scale(1,1)"><path fill="none" stroke="#000000" d="M 224 586 L 510 586 L 510 808 L 224 808 L 224 586 Z Z" stroke-miterlimit="10"/></g><g transform="translate(-214,-390) scale(1,1)"><path fill="none" stroke="#000000" d="M 224 611 L 510 611" stroke-miterlimit="10"/></g><g transform="translate(-214,-390) scale(1,1)"><path fill="none" stroke="#000000" d="M 224 621 L 510 621" stroke-miterlimit="10"/></g><g transform="translate(-214,-390) scale(1,1)"><g><path fill="none" stroke="none"/><text fill="#000000" stroke="none" font-family="Arial" font-size="13px" font-style="normal" font-weight="bold" text-decoration="none" x="343.510498046875" y="605.5">Solution</text></g></g><g transform="translate(-214,-390) scale(1,1)"><g><path fill="none" stroke="none"/><text fill="#000000" stroke="none" font-family="Arial" font-size="13px" font-style="normal" font-weight="normal" text-decoration="none" x="229" y="638.5">+getVariable(index: int): Type</text></g></g><g transform="translate(-214,-390) scale(1,1)"><g><path fill="none" stroke="none"/><text fill="#000000" stroke="none" font-family="Arial" font-size="13px" font-style="normal" font-weight="normal" text-decoration="none" x="229" y="653.5">+getVariableAsString(index: int): String</text></g></g><g transform="translate(-214,-390) scale(1,1)"><g><path fill="none" stroke="none"/><text fill="#000000" stroke="none" font-family="Arial" font-size="13px" font-style="normal" font-weight="normal" text-decoration="none" x="229" y="668.5">+setVariable(index: int, value: Type)</text></g></g><g transform="translate(-214,-390) scale(1,1)"><g><path fill="none" stroke="none"/><text fill="#000000" stroke="none" font-family="Arial" font-size="13px" font-style="normal" font-weight="normal" text-decoration="none" x="229" y="683.5">+getVariables(): List&lt;Type&gt;</text></g></g><g transform="translate(-214,-390) scale(1,1)"><g><path fill="none" stroke="none"/><text fill="#000000" stroke="none" font-family="Arial" font-size="13px" font-style="normal" font-weight="normal" text-decoration="none" x="229" y="698.5">+getObjetive(index: int): double</text></g></g><g transform="translate(-214,-390) scale(1,1)"><g><path fill="none" stroke="none"/><text fill="#000000" stroke="none" font-family="Arial" font-size="13px" font-style="normal" font-weight="normal" text-decoration="none" x="229" y="713.5">+setObjetive(index: int, value: double)</text></g></g><g transform="translate(-214,-390) scale(1,1)"><g><path fill="none" stroke="none"/><text fill="#000000" stroke="none" font-family="Arial" font-size="13px" font-style="normal" font-weight="normal" text-decoration="none" x="229" y="728.5">+getObjetives(): double[*]</text></g></g><g transform="translate(-214,-390) scale(1,1)"><g><path fill="none" stroke="none"/><text fill="#000000" stroke="none" font-family="Arial" font-size="13px" font-style="normal" font-weight="normal" text-decoration="none" x="229" y="743.5">+getAttribute(id: Object): Object</text></g></g><g transform="translate(-214,-390) scale(1,1)"><g><path fill="none" stroke="none"/><text fill="#000000" stroke="none" font-family="Arial" font-size="13px" font-style="normal" font-weight="normal" text-decoration="none" x="229" y="758.5">+setAttribute(id: Object, value: Object)</text></g></g><g transform="translate(-214,-390) scale(1,1)"><g><path fill="none" stroke="none"/><text fill="#000000" stroke="none" font-family="Arial" font-size="13px" font-style="normal" font-weight="normal" text-decoration="none" x="229" y="773.5">+getAttributes(): Map</text></g></g><g transform="translate(-214,-390) scale(1,1)"><g><path fill="none" stroke="none"/><text fill="#000000" stroke="none" font-family="Arial" font-size="13px" font-style="normal" font-weight="normal" text-decoration="none" x="229" y="788.5">+getNumberOfVariables()</text></g></g><g transform="translate(-214,-390) scale(1,1)"><g><path fill="none" stroke="none"/><text fill="#000000" stroke="none" font-family="Arial" font-size="13px" font-style="normal" font-weight="normal" text-decoration="none" x="229" y="803.5">+copy(): Solution&lt;Result&gt;</text></g></g><g transform="translate(-214,-390) scale(1,1)"><rect fill="#ffffff" stroke="none" x="481.81640625" y="568" width="37.18359375" height="22"/></g><g transform="translate(-214,-390) scale(1,1)"><path fill="none" stroke="#000000" d="M 481.81640625 568 L 519 568 L 519 590 L 481.81640625 590 L 481.81640625 568 Z Z" stroke-miterlimit="10" stroke-dasharray="3"/></g><g transform="translate(-214,-390) scale(1,1)"><g><path fill="none" stroke="none"/><text fill="#000000" stroke="none" font-family="Arial" font-size="13px" font-style="normal" font-weight="normal" text-decoration="none" x="486.81640625" y="585.5">Type</text></g></g><g transform="translate(-214,-390) scale(1,1)"><rect fill="#C0C0C0" stroke="none" x="743" y="617" width="418.822265625" height="192" opacity="0.2"/></g><g transform="translate(-214,-390) scale(1,1)"><rect fill="#C0C0C0" stroke="none" x="1114.84326171875" y="599" width="55.97900390625" height="22" opacity="0.2"/></g><g transform="translate(-214,-390) scale(1,1)"><rect fill="#ffffff" stroke="none" x="736" y="610" width="418.822265625" height="192"/></g><g transform="translate(-214,-390) scale(1,1)"><path fill="none" stroke="#000000" d="M 736 610 L 1154.822265625 610 L 1154.822265625 802 L 736 802 L 736 610 Z Z" stroke-miterlimit="10"/></g><g transform="translate(-214,-390) scale(1,1)"><path fill="none" stroke="#000000" d="M 736 635 L 1154.822265625 635" stroke-miterlimit="10"/></g><g transform="translate(-214,-390) scale(1,1)"><path fill="none" stroke="#000000" d="M 736 645 L 1154.822265625 645" stroke-miterlimit="10"/></g><g transform="translate(-214,-390) scale(1,1)"><g><path fill="none" stroke="none"/><text fill="#000000" stroke="none" font-family="Arial" font-size="13px" font-style="normal" font-weight="bold" text-decoration="none" x="921.20751953125" y="629.5">Problem</text></g></g><g transform="translate(-214,-390) scale(1,1)"><g><path fill="none" stroke="none"/><text fill="#000000" stroke="none" font-family="Arial" font-size="13px" font-style="normal" font-weight="normal" text-decoration="none" x="741" y="662.5">+getNumberOfVariables(): int</text></g></g><g transform="translate(-214,-390) scale(1,1)"><g><path fill="none" stroke="none"/><text fill="#000000" stroke="none" font-family="Arial" font-size="13px" font-style="normal" font-weight="normal" text-decoration="none" x="741" y="677.5">+getNumberOfObjetives(): int</text></g></g><g transform="translate(-214,-390) scale(1,1)"><g><path fill="none" stroke="none"/><text fill="#000000" stroke="none" font-family="Arial" font-size="13px" font-style="normal" font-weight="normal" text-decoration="none" x="741" y="692.5">+getNumberOfConstrains(): int</text></g></g><g transform="translate(-214,-390) scale(1,1)"><g><path fill="none" stroke="none"/><text fill="#000000" stroke="none" font-family="Arial" font-size="13px" font-style="normal" font-weight="normal" text-decoration="none" x="741" y="707.5">+evaluate(solution: Solution)</text></g></g><g transform="translate(-214,-390) scale(1,1)"><g><path fill="none" stroke="none"/><text fill="#000000" stroke="none" font-family="Arial" font-size="13px" font-style="normal" font-weight="normal" text-decoration="none" x="741" y="722.5">+createSolution(): Solution</text></g></g><g transform="translate(-214,-390) scale(1,1)"><g><path fill="none" stroke="none"/><text fill="#000000" stroke="none" font-family="Arial" font-size="13px" font-style="normal" font-weight="normal" text-decoration="none" x="741" y="737.5">+getLowerBound(index: int): double</text></g></g><g transform="translate(-214,-390) scale(1,1)"><g><path fill="none" stroke="none"/><text fill="#000000" stroke="none" font-family="Arial" font-size="13px" font-style="normal" font-weight="normal" text-decoration="none" x="741" y="752.5">+getUpperBound(index: int): double</text></g></g><g transform="translate(-214,-390) scale(1,1)"><g><path fill="none" stroke="none"/><text fill="#000000" stroke="none" font-family="Arial" font-size="13px" font-style="normal" font-weight="normal" text-decoration="none" x="741" y="767.5">+applySolutionToNetwork(net: Network, solution: Solution): Network</text></g></g><g transform="translate(-214,-390) scale(1,1)"><g><path fill="none" stroke="none"/><text fill="#000000" stroke="none" font-family="Arial" font-size="13px" font-style="normal" font-weight="normal" text-decoration="none" x="741" y="782.5">+getName(): String</text></g></g><g transform="translate(-214,-390) scale(1,1)"><g><path fill="none" stroke="none"/><text fill="#000000" stroke="none" font-family="Arial" font-size="13px" font-style="normal" font-weight="normal" text-decoration="none" x="741" y="797.5">+closeResources()</text></g></g><g transform="translate(-214,-390) scale(1,1)"><rect fill="#ffffff" stroke="none" x="1107.84326171875" y="592" width="55.97900390625" height="22"/></g><g transform="translate(-214,-390) scale(1,1)"><path fill="none" stroke="#000000" d="M 1107.84326171875 592 L 1163.822265625 592 L 1163.822265625 614 L 1107.84326171875 614 L 1107.84326171875 592 Z Z" stroke-miterlimit="10" stroke-dasharray="3"/></g><g transform="translate(-214,-390) scale(1,1)"><g><path fill="none" stroke="none"/><text fill="#000000" stroke="none" font-family="Arial" font-size="13px" font-style="normal" font-weight="normal" text-decoration="none" x="1112.84326171875" y="609.5">Solution</text></g></g><g transform="translate(-214,-390) scale(1,1)"><rect fill="#C0C0C0" stroke="none" x="527" y="816" width="163.76708984375" height="57" opacity="0.2"/></g><g transform="translate(-214,-390) scale(1,1)"><rect fill="#C0C0C0" stroke="none" x="653.9189453125" y="783" width="45.84814453125" height="37" opacity="0.2"/></g><g transform="translate(-214,-390) scale(1,1)"><rect fill="#ffffff" stroke="none" x="520" y="809" width="163.76708984375" height="57"/></g><g transform="translate(-214,-390) scale(1,1)"><path fill="none" stroke="#000000" d="M 520 809 L 683.76708984375 809 L 683.76708984375 866 L 520 866 L 520 809 Z Z" stroke-miterlimit="10"/></g><g transform="translate(-214,-390) scale(1,1)"><path fill="none" stroke="#000000" d="M 520 834 L 683.76708984375 834" stroke-miterlimit="10"/></g><g transform="translate(-214,-390) scale(1,1)"><path fill="none" stroke="#000000" d="M 520 844 L 683.76708984375 844" stroke-miterlimit="10"/></g><g transform="translate(-214,-390) scale(1,1)"><g><path fill="none" stroke="none"/><text fill="#000000" stroke="none" font-family="Arial" font-size="13px" font-style="normal" font-weight="bold" text-decoration="none" x="576.232666015625" y="828.5">Operator</text></g></g><g transform="translate(-214,-390) scale(1,1)"><g><path fill="none" stroke="none"/><text fill="#000000" stroke="none" font-family="Arial" font-size="13px" font-style="normal" font-weight="normal" text-decoration="none" x="525" y="861.5">+execute(Input): Result</text></g></g><g transform="translate(-214,-390) scale(1,1)"><rect fill="#ffffff" stroke="none" x="646.9189453125" y="776" width="45.84814453125" height="37"/></g><g transform="translate(-214,-390) scale(1,1)"><path fill="none" stroke="#000000" d="M 646.9189453125 776 L 692.76708984375 776 L 692.76708984375 813 L 646.9189453125 813 L 646.9189453125 776 Z Z" stroke-miterlimit="10" stroke-dasharray="3"/></g><g transform="translate(-214,-390) scale(1,1)"><g><path fill="none" stroke="none"/><text fill="#000000" stroke="none" font-family="Arial" font-size="13px" font-style="normal" font-weight="normal" text-decoration="none" x="651.9189453125" y="793.5">Input</text></g></g><g transform="translate(-214,-390) scale(1,1)"><g><path fill="none" stroke="none"/><text fill="#000000" stroke="none" font-family="Arial" font-size="13px" font-style="normal" font-weight="normal" text-decoration="none" x="651.9189453125" y="808.5">Result</text></g></g><g transform="translate(-214,-390) scale(1,1)"><path fill="none" stroke="#000000" d="M 609 551 L 607 775" stroke-miterlimit="10"/></g><g transform="translate(-214,-390) scale(1,1)"><path fill="none" stroke="#000000" d="M 602.881384575834 764.8001467173384 L 607 775 L 611.3000845277505 764.8753136811948" stroke-miterlimit="10"/></g><g transform="translate(-214,-390) scale(1,1)"><g><path fill="none" stroke="none"/><text fill="#000000" stroke="none" font-family="Arial" font-size="13px" font-style="normal" font-weight="normal" text-decoration="none" x="603.5" y="669.5">+Uses</text></g></g><g transform="translate(-214,-390) scale(1,1)"><g><path fill="none" stroke="none"/><text fill="#000000" stroke="none" font-family="Arial" font-size="13px" font-style="normal" font-weight="normal" text-decoration="none" x="591.470458984375" y="759.5">*</text></g></g><g transform="translate(-214,-390) scale(1,1)"><path fill="none" stroke="#000000" d="M 520 829 L 343 829 L 343 808" stroke-miterlimit="10"/></g><g transform="translate(-214,-390) scale(1,1)"><path fill="none" stroke="#000000" d="M 347.209517756016 818.1626748576241 L 343 808 L 338.790482243984 818.1626748576241" stroke-miterlimit="10"/></g><g transform="translate(-214,-390) scale(1,1)"><g><path fill="none" stroke="none"/><text fill="#000000" stroke="none" font-family="Arial" font-size="13px" font-style="normal" font-weight="normal" text-decoration="none" x="367.5" y="843.5">+Manipulates</text></g></g><g transform="translate(-214,-390) scale(1,1)"><path fill="none" stroke="#000000" d="M 472 464 L 343 464 L 343 568" stroke-miterlimit="10"/></g><g transform="translate(-214,-390) scale(1,1)"><path fill="none" stroke="#000000" d="M 338.790482243984 557.8373251423759 L 343 568 L 347.209517756016 557.8373251423759" stroke-miterlimit="10"/></g><g transform="translate(-214,-390) scale(1,1)"><g><path fill="none" stroke="none"/><text fill="#000000" stroke="none" font-family="Arial" font-size="13px" font-style="normal" font-weight="normal" text-decoration="none" x="379.5" y="452.5">+Manages</text></g></g><g transform="translate(-214,-390) scale(1,1)"><g><path fill="none" stroke="none"/><text fill="#000000" stroke="none" font-family="Arial" font-size="13px" font-style="normal" font-weight="normal" text-decoration="none" x="327.470458984375" y="552.5">*</text></g></g><g transform="translate(-214,-390) scale(1,1)"><path fill="none" stroke="#000000" d="M 748 464 L 888 464 L 888 592" stroke-miterlimit="10"/></g><g transform="translate(-214,-390) scale(1,1)"><path fill="none" stroke="#000000" d="M 883.790482243984 581.8373251423759 L 888 592 L 892.209517756016 581.8373251423759" stroke-miterlimit="10"/></g><g transform="translate(-214,-390) scale(1,1)"><g><path fill="none" stroke="none"/><text fill="#000000" stroke="none" font-family="Arial" font-size="13px" font-style="normal" font-weight="normal" text-decoration="none" x="765.5" y="500.5">+Solves</text></g></g><g transform="translate(-214,-390) scale(1,1)"><path fill="#ffffff" stroke="none" d="M 600 888 L 813 888 L 823 898 L 823 924 L 600 924 L 600 888"/></g><g transform="translate(-214,-390) scale(1,1)"><path fill="none" stroke="#000000" d="M 600 888 L 813 888 L 823 898 L 823 924 L 600 924 L 600 888 L 600 888" stroke-miterlimit="10"/></g><g transform="translate(-214,-390) scale(1,1)"><path fill="none" stroke="#000000" d="M 813 888 L 813 898 L 823 898 L 813 888" stroke-miterlimit="10"/></g><g transform="translate(-214,-390) scale(1,1)"><g><path fill="none" stroke="none"/><text fill="#000000" stroke="none" font-family="Arial" font-size="13px" font-style="normal" font-weight="normal" text-decoration="none" x="605" y="906">All class in this diagram are</text><text fill="#000000" stroke="none" font-family="Arial" font-size="13px" font-style="normal" font-weight="normal" text-decoration="none" x="605" y="919">interfaces</text></g></g></g></svg>