<svg version="1.1" xmlns="http://www.w3.org/2000/svg" xmlns:xlink="http://www.w3.org/1999/xlink" width="629.2744140625" height="398"><defs/><g><g transform="translate(-358,-710) scale(1,1)"><rect fill="#C0C0C0" stroke="none" x="521" y="727" width="98.44091796875" height="44" opacity="0.2"/></g><g transform="translate(-358,-710) scale(1,1)"><rect fill="#ffffff" stroke="none" x="514" y="720" width="98.44091796875" height="44"/></g><g transform="translate(-358,-710) scale(1,1)"><path fill="none" stroke="#000000" d="M 514 720 L 612.44091796875 720 L 612.44091796875 764 L 514 764 L 514 720 Z Z" stroke-miterlimit="10"/></g><g transform="translate(-358,-710) scale(1,1)"><rect fill="#ffffff" stroke="none" x="504" y="727" width="20" height="10"/></g><g transform="translate(-358,-710) scale(1,1)"><path fill="none" stroke="#000000" d="M 504 727 L 524 727 L 524 737 L 504 737 L 504 727 Z Z" stroke-miterlimit="10"/></g><g transform="translate(-358,-710) scale(1,1)"><rect fill="#ffffff" stroke="none" x="504" y="747" width="20" height="10"/></g><g transform="translate(-358,-710) scale(1,1)"><path fill="none" stroke="#000000" d="M 504 747 L 524 747 L 524 757 L 504 757 L 504 747 Z Z" stroke-miterlimit="10"/></g><g transform="translate(-358,-710) scale(1,1)"><g><path fill="none" stroke="none"/><text fill="#000000" stroke="none" font-family="Arial" font-size="13px" font-style="normal" font-weight="bold" text-decoration="none" x="556.66455078125" y="739.5">GUI</text></g></g><g transform="translate(-358,-710) scale(1,1)"><rect fill="#C0C0C0" stroke="none" x="521" y="855" width="98.44091796875" height="44" opacity="0.2"/></g><g transform="translate(-358,-710) scale(1,1)"><rect fill="#ffffff" stroke="none" x="514" y="848" width="98.44091796875" height="44"/></g><g transform="translate(-358,-710) scale(1,1)"><path fill="none" stroke="#000000" d="M 514 848 L 612.44091796875 848 L 612.44091796875 892 L 514 892 L 514 848 Z Z" stroke-miterlimit="10"/></g><g transform="translate(-358,-710) scale(1,1)"><rect fill="#ffffff" stroke="none" x="504" y="855" width="20" height="10"/></g><g transform="translate(-358,-710) scale(1,1)"><path fill="none" stroke="#000000" d="M 504 855 L 524 855 L 524 865 L 504 865 L 504 855 Z Z" stroke-miterlimit="10"/></g><g transform="translate(-358,-710) scale(1,1)"><rect fill="#ffffff" stroke="none" x="504" y="875" width="20" height="10"/></g><g transform="translate(-358,-710) scale(1,1)"><path fill="none" stroke="#000000" d="M 504 875 L 524 875 L 524 885 L 504 885 L 504 875 Z Z" stroke-miterlimit="10"/></g><g transform="translate(-358,-710) scale(1,1)"><g><path fill="none" stroke="none"/><text fill="#000000" stroke="none" font-family="Arial" font-size="13px" font-style="normal" font-weight="bold" text-decoration="none" x="540.043212890625" y="867.5">Controller</text></g></g><g transform="translate(-358,-710) scale(1,1)"><rect fill="#C0C0C0" stroke="none" x="697" y="1047" width="110.03173828125" height="44" opacity="0.2"/></g><g transform="translate(-358,-710) scale(1,1)"><rect fill="#ffffff" stroke="none" x="690" y="1040" width="110.03173828125" height="44"/></g><g transform="translate(-358,-710) scale(1,1)"><path fill="none" stroke="#000000" d="M 690 1040 L 800.03173828125 1040 L 800.03173828125 1084 L 690 1084 L 690 1040 Z Z" stroke-miterlimit="10"/></g><g transform="translate(-358,-710) scale(1,1)"><rect fill="#ffffff" stroke="none" x="680" y="1047" width="20" height="10"/></g><g transform="translate(-358,-710) scale(1,1)"><path fill="none" stroke="#000000" d="M 680 1047 L 700 1047 L 700 1057 L 680 1057 L 680 1047 Z Z" stroke-miterlimit="10"/></g><g transform="translate(-358,-710) scale(1,1)"><rect fill="#ffffff" stroke="none" x="680" y="1067" width="20" height="10"/></g><g transform="translate(-358,-710) scale(1,1)"><path fill="none" stroke="#000000" d="M 680 1067 L 700 1067 L 700 1077 L 680 1077 L 680 1067 Z Z" stroke-miterlimit="10"/></g><g transform="translate(-358,-710) scale(1,1)"><g><path fill="none" stroke="none"/><text fill="#000000" stroke="none" font-family="Arial" font-size="13px" font-style="normal" font-weight="bold" text-decoration="none" x="708.11181640625" y="1059.5">Metaheuristics</text></g></g><g transform="translate(-358,-710) scale(1,1)"><path fill="#C0C0C0" stroke="none" d="M 646.7099609375 970.5 C 646.7099609375 964.1487248 651.8586857375 959 658.2099609375 959 C 664.5612361375 959 669.7099609375 964.1487248 669.7099609375 970.5 C 669.7099609375 976.8512752 664.5612361375 982 658.2099609375 982 C 651.8586857375 982 646.7099609375 976.8512752 646.7099609375 970.5 Z" opacity="0.2"/></g><g transform="translate(-358,-710) scale(1,1)"><path fill="none" stroke="#000000" d="M 645.4932004971735 973.0957990885154 A 11.5 11.5 0 0 1 656.5067995028265 952.9042009114846" stroke-miterlimit="10"/></g><g transform="translate(-358,-710) scale(1,1)"><path fill="#ffffff" stroke="none" d="M 642.7099609375 963.5 C 642.7099609375 958.8055792 646.5155401375 955 651.2099609375 955 C 655.9043817375 955 659.7099609375 958.8055792 659.7099609375 963.5 C 659.7099609375 968.1944208 655.9043817375 972 651.2099609375 972 C 646.5155401375 972 642.7099609375 968.1944208 642.7099609375 963.5 Z"/></g><g transform="translate(-358,-710) scale(1,1)"><path fill="none" stroke="#000000" d="M 642.7099609375 963.5 C 642.7099609375 958.8055792 646.5155401375 955 651.2099609375 955 C 655.9043817375 955 659.7099609375 958.8055792 659.7099609375 963.5 C 659.7099609375 968.1944208 655.9043817375 972 651.2099609375 972 C 646.5155401375 972 642.7099609375 968.1944208 642.7099609375 963.5 Z" stroke-miterlimit="10"/></g><g transform="translate(-358,-710) scale(1,1)"><g><path fill="none" stroke="none"/><text fill="#000000" stroke="none" font-family="Arial" font-size="13px" font-style="normal" font-weight="bold" text-decoration="none" x="629.53271484375" y="994.5">Interfaz</text></g></g><g transform="translate(-358,-710) scale(1,1)"><path fill="none" stroke="#000000" d="M 716 1039 L 659.2105263157895 975" stroke-miterlimit="10"/></g><g transform="translate(-358,-710) scale(1,1)"><rect fill="#C0C0C0" stroke="none" x="385" y="1047" width="98.44091796875" height="44" opacity="0.2"/></g><g transform="translate(-358,-710) scale(1,1)"><rect fill="#ffffff" stroke="none" x="378" y="1040" width="98.44091796875" height="44"/></g><g transform="translate(-358,-710) scale(1,1)"><path fill="none" stroke="#000000" d="M 378 1040 L 476.44091796875 1040 L 476.44091796875 1084 L 378 1084 L 378 1040 Z Z" stroke-miterlimit="10"/></g><g transform="translate(-358,-710) scale(1,1)"><rect fill="#ffffff" stroke="none" x="368" y="1047" width="20" height="10"/></g><g transform="translate(-358,-710) scale(1,1)"><path fill="none" stroke="#000000" d="M 368 1047 L 388 1047 L 388 1057 L 368 1057 L 368 1047 Z Z" stroke-miterlimit="10"/></g><g transform="translate(-358,-710) scale(1,1)"><rect fill="#ffffff" stroke="none" x="368" y="1067" width="20" height="10"/></g><g transform="translate(-358,-710) scale(1,1)"><path fill="none" stroke="#000000" d="M 368 1067 L 388 1067 L 388 1077 L 368 1077 L 368 1067 Z Z" stroke-miterlimit="10"/></g><g transform="translate(-358,-710) scale(1,1)"><g><path fill="none" stroke="none"/><text fill="#000000" stroke="none" font-family="Arial" font-size="13px" font-style="normal" font-weight="bold" text-decoration="none" x="411.619140625" y="1059.5">Epanet</text></g></g><g transform="translate(-358,-710) scale(1,1)"><path fill="none" stroke="#000000" d="M 558 765 L 558 847" stroke-miterlimit="10" stroke-dasharray="3"/></g><g transform="translate(-358,-710) scale(1,1)"><path fill="none" stroke="#000000" d="M 553.790482243984 836.8373251423759 L 558 847 L 562.209517756016 836.8373251423759" stroke-miterlimit="10"/></g><g transform="translate(-358,-710) scale(1,1)"><path fill="none" stroke="#000000" d="M 578 893 L 639.7099609375 956.841796875" stroke-miterlimit="10"/></g><g transform="translate(-358,-710) scale(1,1)"><path fill="#C0C0C0" stroke="none" d="M 924.03720703125 1031 L 951.47720703125 1031 L 963.23720703125 1042.76 L 963.23720703125 1080 L 924.03720703125 1080" opacity="0.2"/></g><g transform="translate(-358,-710) scale(1,1)"><path fill="#ffffff" stroke="none" d="M 917.03720703125 1024 L 944.47720703125 1024 L 956.23720703125 1035.76 L 956.23720703125 1073 L 917.03720703125 1073"/></g><g transform="translate(-358,-710) scale(1,1)"><path fill="none" stroke="#000000" d="M 917.03720703125 1024 L 944.47720703125 1024 L 956.23720703125 1035.76 L 956.23720703125 1073 L 917.03720703125 1073 L 917.03720703125 1024" stroke-miterlimit="10"/></g><g transform="translate(-358,-710) scale(1,1)"><path fill="none" stroke="#000000" d="M 944.47720703125 1024 L 944.47720703125 1035.76 L 956.23720703125 1035.76 L 944.47720703125 1024" stroke-miterlimit="10"/></g><g transform="translate(-358,-710) scale(1,1)"><g><path fill="none" stroke="none"/><text fill="#000000" stroke="none" font-family="Arial" font-size="13px" font-style="normal" font-weight="bold" text-decoration="none" x="904.838623046875" y="1092.5">epajava.jar</text></g></g><g transform="translate(-358,-710) scale(1,1)"><path fill="none" stroke="#000000" d="M 801 1062 L 895 1061" stroke-miterlimit="10" stroke-dasharray="3"/></g><g transform="translate(-358,-710) scale(1,1)"><path fill="none" stroke="#000000" d="M 884.8826797356397 1065.3173870185988 L 895 1061 L 884.7931205957768 1056.8988278714926" stroke-miterlimit="10"/></g><g transform="translate(-358,-710) scale(1,1)"><path fill="none" stroke="#000000" d="M 542 893 L 438 1039" stroke-miterlimit="10" stroke-dasharray="3"/></g><g transform="translate(-358,-710) scale(1,1)"><path fill="none" stroke="#000000" d="M 440.4676078014116 1028.280349271622 L 438 1039 L 447.3247999316743 1033.1649244876996" stroke-miterlimit="10"/></g><g transform="translate(-358,-710) scale(1,1)"><path fill="none" stroke="#000000" d="M 679 1062 L 477 1062" stroke-miterlimit="10" stroke-dasharray="3"/></g><g transform="translate(-358,-710) scale(1,1)"><path fill="none" stroke="#000000" d="M 487.16267485762415 1057.7904822439841 L 477 1062 L 487.16267485762415 1066.2095177560159" stroke-miterlimit="10"/></g></g></svg>