<svg version="1.1" xmlns="http://www.w3.org/2000/svg" xmlns:xlink="http://www.w3.org/1999/xlink" width="783.19384765625" height="902"><defs/><g><g transform="translate(-328,-110) scale(1,1)"><path fill="#C0C0C0" stroke="none" d="M 380.986328125 145.5 C 380.986328125 139.1487248 386.135052925 134 392.486328125 134 C 398.837603325 134 403.986328125 139.1487248 403.986328125 145.5 C 403.986328125 151.8512752 398.837603325 157 392.486328125 157 C 386.135052925 157 380.986328125 151.8512752 380.986328125 145.5 Z" opacity="0.2"/></g><g transform="translate(-328,-110) scale(1,1)"><path fill="#ffffff" stroke="none" d="M 373.986328125 138.5 C 373.986328125 132.1487248 379.135052925 127 385.486328125 127 C 391.837603325 127 396.986328125 132.1487248 396.986328125 138.5 C 396.986328125 144.8512752 391.837603325 150 385.486328125 150 C 379.135052925 150 373.986328125 144.8512752 373.986328125 138.5 Z"/></g><g transform="translate(-328,-110) scale(1,1)"><path fill="none" stroke="#000000" d="M 373.986328125 138.5 C 373.986328125 132.1487248 379.135052925 127 385.486328125 127 C 391.837603325 127 396.986328125 132.1487248 396.986328125 138.5 C 396.986328125 144.8512752 391.837603325 150 385.486328125 150 C 379.135052925 150 373.986328125 144.8512752 373.986328125 138.5 Z" stroke-miterlimit="10"/></g><g transform="translate(-328,-110) scale(1,1)"><g><path fill="none" stroke="none"/><text fill="#000000" stroke="none" font-family="Arial" font-size="13px" font-style="normal" font-weight="bold" text-decoration="none" x="344.655029296875" y="169.5">IEpanetNative</text></g></g><g transform="translate(-328,-110) scale(1,1)"><rect fill="#C0C0C0" stroke="none" x="567" y="127" width="541.19384765625" height="882" opacity="0.2"/></g><g transform="translate(-328,-110) scale(1,1)"><rect fill="#ffffff" stroke="none" x="560" y="120" width="541.19384765625" height="882"/></g><g transform="translate(-328,-110) scale(1,1)"><path fill="none" stroke="#000000" d="M 560 120 L 1101.19384765625 120 L 1101.19384765625 1002 L 560 1002 L 560 120 Z Z" stroke-miterlimit="10"/></g><g transform="translate(-328,-110) scale(1,1)"><path fill="none" stroke="#000000" d="M 560 145 L 1101.19384765625 145" stroke-miterlimit="10"/></g><g transform="translate(-328,-110) scale(1,1)"><path fill="none" stroke="#000000" d="M 560 155 L 1101.19384765625 155" stroke-miterlimit="10"/></g><g transform="translate(-328,-110) scale(1,1)"><g><path fill="none" stroke="none"/><text fill="#000000" stroke="none" font-family="Arial" font-size="13px" font-style="normal" font-weight="bold" text-decoration="none" x="798.071533203125" y="139.5">EpanetDLL</text></g></g><g transform="translate(-328,-110) scale(1,1)"><g><path fill="none" stroke="none"/><text fill="#000000" stroke="none" font-family="Arial" font-size="13px" font-style="normal" font-weight="normal" text-decoration="none" x="565" y="172.5">«constructor»+EpanetDLL(lib: String, libPath: String)</text></g></g><g transform="translate(-328,-110) scale(1,1)"><g><path fill="none" stroke="none"/><text fill="#000000" stroke="none" font-family="Arial" font-size="13px" font-style="normal" font-weight="normal" text-decoration="none" x="565" y="187.5">+ENopen(inputFile: String, reportFile: String, binaryOutputFile: String): void</text></g></g><g transform="translate(-328,-110) scale(1,1)"><g><path fill="none" stroke="none"/><text fill="#000000" stroke="none" font-family="Arial" font-size="13px" font-style="normal" font-weight="normal" text-decoration="none" x="565" y="202.5">+ENsaveinpfile(fname: String): void</text></g></g><g transform="translate(-328,-110) scale(1,1)"><g><path fill="none" stroke="none"/><text fill="#000000" stroke="none" font-family="Arial" font-size="13px" font-style="normal" font-weight="normal" text-decoration="none" x="565" y="217.5">+ENclose(): void</text></g></g><g transform="translate(-328,-110) scale(1,1)"><g><path fill="none" stroke="none"/><text fill="#000000" stroke="none" font-family="Arial" font-size="13px" font-style="normal" font-weight="normal" text-decoration="none" x="565" y="232.5">+ENsolveH(): void</text></g></g><g transform="translate(-328,-110) scale(1,1)"><g><path fill="none" stroke="none"/><text fill="#000000" stroke="none" font-family="Arial" font-size="13px" font-style="normal" font-weight="normal" text-decoration="none" x="565" y="247.5">+ENsaveH(): void</text></g></g><g transform="translate(-328,-110) scale(1,1)"><g><path fill="none" stroke="none"/><text fill="#000000" stroke="none" font-family="Arial" font-size="13px" font-style="normal" font-weight="normal" text-decoration="none" x="565" y="262.5">+ENopenH(): void</text></g></g><g transform="translate(-328,-110) scale(1,1)"><g><path fill="none" stroke="none"/><text fill="#000000" stroke="none" font-family="Arial" font-size="13px" font-style="normal" font-weight="normal" text-decoration="none" x="565" y="277.5">+ENinitH(saveFlag: int): void</text></g></g><g transform="translate(-328,-110) scale(1,1)"><g><path fill="none" stroke="none"/><text fill="#000000" stroke="none" font-family="Arial" font-size="13px" font-style="normal" font-weight="normal" text-decoration="none" x="565" y="292.5">+ENrunH(t: long[*]): void</text></g></g><g transform="translate(-328,-110) scale(1,1)"><g><path fill="none" stroke="none"/><text fill="#000000" stroke="none" font-family="Arial" font-size="13px" font-style="normal" font-weight="normal" text-decoration="none" x="565" y="307.5">+ENnextH(tstep: long[*]): void</text></g></g><g transform="translate(-328,-110) scale(1,1)"><g><path fill="none" stroke="none"/><text fill="#000000" stroke="none" font-family="Arial" font-size="13px" font-style="normal" font-weight="normal" text-decoration="none" x="565" y="322.5">+ENcloseH(): void</text></g></g><g transform="translate(-328,-110) scale(1,1)"><g><path fill="none" stroke="none"/><text fill="#000000" stroke="none" font-family="Arial" font-size="13px" font-style="normal" font-weight="normal" text-decoration="none" x="565" y="337.5">+ENsavehydfile(fname: String): void</text></g></g><g transform="translate(-328,-110) scale(1,1)"><g><path fill="none" stroke="none"/><text fill="#000000" stroke="none" font-family="Arial" font-size="13px" font-style="normal" font-weight="normal" text-decoration="none" x="565" y="352.5">+ENusehydfile(fname: String): void</text></g></g><g transform="translate(-328,-110) scale(1,1)"><g><path fill="none" stroke="none"/><text fill="#000000" stroke="none" font-family="Arial" font-size="13px" font-style="normal" font-weight="normal" text-decoration="none" x="565" y="367.5">+ENsolveQ(): void</text></g></g><g transform="translate(-328,-110) scale(1,1)"><g><path fill="none" stroke="none"/><text fill="#000000" stroke="none" font-family="Arial" font-size="13px" font-style="normal" font-weight="normal" text-decoration="none" x="565" y="382.5">+ENopenQ(): void</text></g></g><g transform="translate(-328,-110) scale(1,1)"><g><path fill="none" stroke="none"/><text fill="#000000" stroke="none" font-family="Arial" font-size="13px" font-style="normal" font-weight="normal" text-decoration="none" x="565" y="397.5">+ENinitQ(saveflag: int): void</text></g></g><g transform="translate(-328,-110) scale(1,1)"><g><path fill="none" stroke="none"/><text fill="#000000" stroke="none" font-family="Arial" font-size="13px" font-style="normal" font-weight="normal" text-decoration="none" x="565" y="412.5">+ENrunQ(t: Long): void</text></g></g><g transform="translate(-328,-110) scale(1,1)"><g><path fill="none" stroke="none"/><text fill="#000000" stroke="none" font-family="Arial" font-size="13px" font-style="normal" font-weight="normal" text-decoration="none" x="565" y="427.5">+ENnextQ(tstep: Long): void</text></g></g><g transform="translate(-328,-110) scale(1,1)"><g><path fill="none" stroke="none"/><text fill="#000000" stroke="none" font-family="Arial" font-size="13px" font-style="normal" font-weight="normal" text-decoration="none" x="565" y="442.5">+ENstepQ(tleft: Long): void</text></g></g><g transform="translate(-328,-110) scale(1,1)"><g><path fill="none" stroke="none"/><text fill="#000000" stroke="none" font-family="Arial" font-size="13px" font-style="normal" font-weight="normal" text-decoration="none" x="565" y="457.5">+ENcloseQ(): void</text></g></g><g transform="translate(-328,-110) scale(1,1)"><g><path fill="none" stroke="none"/><text fill="#000000" stroke="none" font-family="Arial" font-size="13px" font-style="normal" font-weight="normal" text-decoration="none" x="565" y="472.5">+ENwriteline(line: String): void</text></g></g><g transform="translate(-328,-110) scale(1,1)"><g><path fill="none" stroke="none"/><text fill="#000000" stroke="none" font-family="Arial" font-size="13px" font-style="normal" font-weight="normal" text-decoration="none" x="565" y="487.5">+ENreport(): void</text></g></g><g transform="translate(-328,-110) scale(1,1)"><g><path fill="none" stroke="none"/><text fill="#000000" stroke="none" font-family="Arial" font-size="13px" font-style="normal" font-weight="normal" text-decoration="none" x="565" y="502.5">+ENresetreport(): void</text></g></g><g transform="translate(-328,-110) scale(1,1)"><g><path fill="none" stroke="none"/><text fill="#000000" stroke="none" font-family="Arial" font-size="13px" font-style="normal" font-weight="normal" text-decoration="none" x="565" y="517.5">+ENsetreport(command: String): void</text></g></g><g transform="translate(-328,-110) scale(1,1)"><g><path fill="none" stroke="none"/><text fill="#000000" stroke="none" font-family="Arial" font-size="13px" font-style="normal" font-weight="normal" text-decoration="none" x="565" y="532.5">+ENgetcontrol(cindex: int): null</text></g></g><g transform="translate(-328,-110) scale(1,1)"><g><path fill="none" stroke="none"/><text fill="#000000" stroke="none" font-family="Arial" font-size="13px" font-style="normal" font-weight="normal" text-decoration="none" x="565" y="547.5">+ENgetcount(countcode): int</text></g></g><g transform="translate(-328,-110) scale(1,1)"><g><path fill="none" stroke="none"/><text fill="#000000" stroke="none" font-family="Arial" font-size="13px" font-style="normal" font-weight="normal" text-decoration="none" x="565" y="562.5">+ENgetoption(option): float</text></g></g><g transform="translate(-328,-110) scale(1,1)"><g><path fill="none" stroke="none"/><text fill="#000000" stroke="none" font-family="Arial" font-size="13px" font-style="normal" font-weight="normal" text-decoration="none" x="565" y="577.5">+ENgettimeparam(parameter): long</text></g></g><g transform="translate(-328,-110) scale(1,1)"><g><path fill="none" stroke="none"/><text fill="#000000" stroke="none" font-family="Arial" font-size="13px" font-style="normal" font-weight="normal" text-decoration="none" x="565" y="592.5">+ENgetflowunits(): null</text></g></g><g transform="translate(-328,-110) scale(1,1)"><g><path fill="none" stroke="none"/><text fill="#000000" stroke="none" font-family="Arial" font-size="13px" font-style="normal" font-weight="normal" text-decoration="none" x="565" y="607.5">+ENgetpatternindex(id: String): int</text></g></g><g transform="translate(-328,-110) scale(1,1)"><g><path fill="none" stroke="none"/><text fill="#000000" stroke="none" font-family="Arial" font-size="13px" font-style="normal" font-weight="normal" text-decoration="none" x="565" y="622.5">+ENgetpatternid(index: int): String</text></g></g><g transform="translate(-328,-110) scale(1,1)"><g><path fill="none" stroke="none"/><text fill="#000000" stroke="none" font-family="Arial" font-size="13px" font-style="normal" font-weight="normal" text-decoration="none" x="565" y="637.5">+ENgetpatternlen(index: int): int</text></g></g><g transform="translate(-328,-110) scale(1,1)"><g><path fill="none" stroke="none"/><text fill="#000000" stroke="none" font-family="Arial" font-size="13px" font-style="normal" font-weight="normal" text-decoration="none" x="565" y="652.5">+ENgetpatternvalue(index: int, period: int): float</text></g></g><g transform="translate(-328,-110) scale(1,1)"><g><path fill="none" stroke="none"/><text fill="#000000" stroke="none" font-family="Arial" font-size="13px" font-style="normal" font-weight="normal" text-decoration="none" x="565" y="667.5">+ENgetqualtype(): int[*]</text></g></g><g transform="translate(-328,-110) scale(1,1)"><g><path fill="none" stroke="none"/><text fill="#000000" stroke="none" font-family="Arial" font-size="13px" font-style="normal" font-weight="normal" text-decoration="none" x="565" y="682.5">+ENgeterror(errcode: int, nchar: int): String</text></g></g><g transform="translate(-328,-110) scale(1,1)"><g><path fill="none" stroke="none"/><text fill="#000000" stroke="none" font-family="Arial" font-size="13px" font-style="normal" font-weight="normal" text-decoration="none" x="565" y="697.5">+ENgetnodeindex(id: String): int</text></g></g><g transform="translate(-328,-110) scale(1,1)"><g><path fill="none" stroke="none"/><text fill="#000000" stroke="none" font-family="Arial" font-size="13px" font-style="normal" font-weight="normal" text-decoration="none" x="565" y="712.5">+ENgetnodeid(index: int): String</text></g></g><g transform="translate(-328,-110) scale(1,1)"><g><path fill="none" stroke="none"/><text fill="#000000" stroke="none" font-family="Arial" font-size="13px" font-style="normal" font-weight="normal" text-decoration="none" x="565" y="727.5">+ENgetnodetype(index: int): null</text></g></g><g transform="translate(-328,-110) scale(1,1)"><g><path fill="none" stroke="none"/><text fill="#000000" stroke="none" font-family="Arial" font-size="13px" font-style="normal" font-weight="normal" text-decoration="none" x="565" y="742.5">+ENgetnodevalue(index: int, param): float</text></g></g><g transform="translate(-328,-110) scale(1,1)"><g><path fill="none" stroke="none"/><text fill="#000000" stroke="none" font-family="Arial" font-size="13px" font-style="normal" font-weight="normal" text-decoration="none" x="565" y="757.5">+ENgetlinkindex(id: String): int</text></g></g><g transform="translate(-328,-110) scale(1,1)"><g><path fill="none" stroke="none"/><text fill="#000000" stroke="none" font-family="Arial" font-size="13px" font-style="normal" font-weight="normal" text-decoration="none" x="565" y="772.5">+ENgetlinkid(index: int): String</text></g></g><g transform="translate(-328,-110) scale(1,1)"><g><path fill="none" stroke="none"/><text fill="#000000" stroke="none" font-family="Arial" font-size="13px" font-style="normal" font-weight="normal" text-decoration="none" x="565" y="787.5">+ENgetlinktype(index: int): null</text></g></g><g transform="translate(-328,-110) scale(1,1)"><g><path fill="none" stroke="none"/><text fill="#000000" stroke="none" font-family="Arial" font-size="13px" font-style="normal" font-weight="normal" text-decoration="none" x="565" y="802.5">+ENgetlinknodes(index: int): int[*]</text></g></g><g transform="translate(-328,-110) scale(1,1)"><g><path fill="none" stroke="none"/><text fill="#000000" stroke="none" font-family="Arial" font-size="13px" font-style="normal" font-weight="normal" text-decoration="none" x="565" y="817.5">+ENgetlinkvalue(index: int, paramcode: int): float[*]</text></g></g><g transform="translate(-328,-110) scale(1,1)"><g><path fill="none" stroke="none"/><text fill="#000000" stroke="none" font-family="Arial" font-size="13px" font-style="normal" font-weight="normal" text-decoration="none" x="565" y="832.5">+ENgetversion(): int</text></g></g><g transform="translate(-328,-110) scale(1,1)"><g><path fill="none" stroke="none"/><text fill="#000000" stroke="none" font-family="Arial" font-size="13px" font-style="normal" font-weight="normal" text-decoration="none" x="565" y="847.5">+ENsetcontrol(cindex: int, ctype: int, lindex: int, setting: float, nindex: int, level: float): void</text></g></g><g transform="translate(-328,-110) scale(1,1)"><g><path fill="none" stroke="none"/><text fill="#000000" stroke="none" font-family="Arial" font-size="13px" font-style="normal" font-weight="normal" text-decoration="none" x="565" y="862.5">+ENsetnodevalue(index: int, param, value: float): void</text></g></g><g transform="translate(-328,-110) scale(1,1)"><g><path fill="none" stroke="none"/><text fill="#000000" stroke="none" font-family="Arial" font-size="13px" font-style="normal" font-weight="normal" text-decoration="none" x="565" y="877.5">+ENsetlinkvalue(index: int, param, value: float): void</text></g></g><g transform="translate(-328,-110) scale(1,1)"><g><path fill="none" stroke="none"/><text fill="#000000" stroke="none" font-family="Arial" font-size="13px" font-style="normal" font-weight="normal" text-decoration="none" x="565" y="892.5">+ENaddpattern(id: String): void</text></g></g><g transform="translate(-328,-110) scale(1,1)"><g><path fill="none" stroke="none"/><text fill="#000000" stroke="none" font-family="Arial" font-size="13px" font-style="normal" font-weight="normal" text-decoration="none" x="565" y="907.5">+ENsetpattern(index: int, factors: float[*], nfactors: int): void</text></g></g><g transform="translate(-328,-110) scale(1,1)"><g><path fill="none" stroke="none"/><text fill="#000000" stroke="none" font-family="Arial" font-size="13px" font-style="normal" font-weight="normal" text-decoration="none" x="565" y="922.5">+ENsetpatternvalue(index: int, period: int, value: float): void</text></g></g><g transform="translate(-328,-110) scale(1,1)"><g><path fill="none" stroke="none"/><text fill="#000000" stroke="none" font-family="Arial" font-size="13px" font-style="normal" font-weight="normal" text-decoration="none" x="565" y="937.5">+ENsettimeparam(param, timevalue: Long): void</text></g></g><g transform="translate(-328,-110) scale(1,1)"><g><path fill="none" stroke="none"/><text fill="#000000" stroke="none" font-family="Arial" font-size="13px" font-style="normal" font-weight="normal" text-decoration="none" x="565" y="952.5">+ENsetoption(option, value: float): void</text></g></g><g transform="translate(-328,-110) scale(1,1)"><g><path fill="none" stroke="none"/><text fill="#000000" stroke="none" font-family="Arial" font-size="13px" font-style="normal" font-weight="normal" text-decoration="none" x="565" y="967.5">+ENsetstatusreport(statuslevel: int): void</text></g></g><g transform="translate(-328,-110) scale(1,1)"><g><path fill="none" stroke="none"/><text fill="#000000" stroke="none" font-family="Arial" font-size="13px" font-style="normal" font-weight="normal" text-decoration="none" x="565" y="982.5">+ENsetqualtype(qualcode: int, chemname: String, chemunits: String, tracenode: String): void</text></g></g><g transform="translate(-328,-110) scale(1,1)"><g><path fill="none" stroke="none"/><text fill="#000000" stroke="none" font-family="Arial" font-size="13px" font-style="normal" font-weight="normal" text-decoration="none" x="565" y="997.5">+main(args: String[*]): void</text><path fill="none" stroke="#000000" d="M 565 997.5 L 719.25439453125 997.5" stroke-miterlimit="10"/></g></g></g></svg>