<?xml version="1.0" encoding="utf-8"?>
<!-- Generator: Adobe Illustrator 24.0.1, SVG Export Plug-In . SVG Version: 6.00 Build 0)  -->
<svg version="1.1" id="Capa_1" xmlns="http://www.w3.org/2000/svg" xmlns:xlink="http://www.w3.org/1999/xlink" x="0px" y="0px"
	 viewBox="0 0 1740 1423" style="enable-background:new 0 0 1740 1423;" xml:space="preserve">
<style type="text/css">
	.st0{opacity:0.2;fill:#C0C0C0;enable-background:new    ;}
	.st1{fill:#FFFFFF;}
	.st2{fill:none;stroke:#000000;stroke-miterlimit:10;}
	.st3{font-family:'Arial-BoldMT';}
	.st4{font-size:13px;}
	.st5{font-family:'ArialMT';}
	.st6{fill:none;stroke:#000000;stroke-miterlimit:10;stroke-dasharray:3;}
</style>
<g transform="translate(-310,-402) scale(1,1)">
	<rect x="575.5" y="614" class="st0" width="489.6" height="15"/>
</g>
<g transform="translate(-310,-402) scale(1,1)">
	<rect x="575.5" y="628" class="st0" width="1224" height="330"/>
</g>
<g transform="translate(-310,-402) scale(1,1)">
	<rect x="568.5" y="622" class="st1" width="1224" height="329"/>
</g>
<g transform="translate(-310,-402) scale(1,1)">
	<path class="st2" d="M568.5,622h1224v329h-1224V622z"/>
</g>
<g transform="translate(-310,-402) scale(1,1)">
	<rect x="568.5" y="607" class="st1" width="489.6" height="15"/>
</g>
<g transform="translate(-310,-402) scale(1,1)">
	<path class="st2" d="M568.5,607h489.6v15H568.5V607z"/>
</g>
<g transform="translate(-310,-402) scale(1,1)">
	<rect x="568.5" y="621" class="st1" width="1224" height="330"/>
</g>
<g transform="translate(-310,-402) scale(1,1)">
	<path class="st2" d="M568.5,621h1224v330h-1224V621z"/>
</g>
<text transform="matrix(1 0 0 1 842.3228 239.5)" class="st3 st4">Controller</text>
<g transform="translate(-310,-402) scale(1,1)">
	<rect x="935.5" y="678" class="st0" width="150.4" height="44"/>
</g>
<g transform="translate(-310,-402) scale(1,1)">
	<rect x="928.5" y="671" class="st1" width="150.4" height="44"/>
</g>
<g transform="translate(-310,-402) scale(1,1)">
	<path class="st2" d="M928.5,671h150.4v44H928.5V671z"/>
</g>
<g transform="translate(-310,-402) scale(1,1)">
	<path class="st2" d="M928.5,696h150.4"/>
</g>
<g transform="translate(-310,-402) scale(1,1)">
	<path class="st2" d="M928.5,706h150.4"/>
</g>
<text transform="matrix(1 0 0 1 628.3289 288.5)" class="st3 st4">MainWindowController</text>
<g transform="translate(-310,-402) scale(1,1)">
	<rect x="927.5" y="798" class="st0" width="180.2" height="44"/>
</g>
<g transform="translate(-310,-402) scale(1,1)">
	<rect x="920.5" y="791" class="st1" width="180.2" height="44"/>
</g>
<g transform="translate(-310,-402) scale(1,1)">
	<path class="st2" d="M920.5,791h180.2v44H920.5V791z"/>
</g>
<g transform="translate(-310,-402) scale(1,1)">
	<path class="st2" d="M920.5,816h180.2"/>
</g>
<g transform="translate(-310,-402) scale(1,1)">
	<path class="st2" d="M920.5,826h180.2"/>
</g>
<text transform="matrix(1 0 0 1 621.4524 408.5)" class="st3 st4">ProblemMenuConfiguration</text>
<g transform="translate(-310,-402) scale(1,1)">
	<path class="st2" d="M984.5,715v76"/>
</g>
<g transform="translate(-310,-402) scale(1,1)">
	<path class="st2" d="M980.3,780.8l4.2,10.2l4.2-10.2"/>
</g>
<text transform="matrix(1 0 0 1 680 357.5)" class="st5 st4">+usa</text>
<g transform="translate(-310,-402) scale(1,1)">
	<path class="st0" d="M1131.3,881.5c0-6.4,5.1-11.5,11.5-11.5s11.5,5.1,11.5,11.5s-5.1,11.5-11.5,11.5S1131.3,887.9,1131.3,881.5z"
		/>
</g>
<g transform="translate(-310,-402) scale(1,1)">
	<path class="st1" d="M1124.3,874.5c0-6.4,5.1-11.5,11.5-11.5s11.5,5.1,11.5,11.5s-5.1,11.5-11.5,11.5S1124.3,880.9,1124.3,874.5z"
		/>
</g>
<g transform="translate(-310,-402) scale(1,1)">
	<path class="st2" d="M1124.3,874.5c0-6.4,5.1-11.5,11.5-11.5s11.5,5.1,11.5,11.5s-5.1,11.5-11.5,11.5S1124.3,880.9,1124.3,874.5z"
		/>
</g>
<g transform="translate(-310,-402) scale(1,1)">
	<path class="st2" d="M1024.5,911H1247"/>
</g>
<g transform="translate(-310,-402) scale(1,1)">
	<path class="st2" d="M1024.5,934H1247"/>
</g>
<text transform="matrix(1 0 0 1 792.8899 503.5)" class="st3 st4">Registrable</text>
<text transform="matrix(1 0 0 1 719.5 526.5)" class="st5 st4">+build(inpPath: String): Algorithm&lt;?&gt;</text>
<g transform="translate(-310,-402) scale(1,1)">
	<rect x="655.5" y="886" class="st0" width="260.2" height="44"/>
</g>
<g transform="translate(-310,-402) scale(1,1)">
	<rect x="648.5" y="879" class="st1" width="260.2" height="44"/>
</g>
<g transform="translate(-310,-402) scale(1,1)">
	<path class="st2" d="M648.5,879h260.2v44H648.5V879z"/>
</g>
<g transform="translate(-310,-402) scale(1,1)">
	<path class="st2" d="M648.5,904h260.2"/>
</g>
<g transform="translate(-310,-402) scale(1,1)">
	<path class="st2" d="M648.5,914h260.2"/>
</g>
<text transform="matrix(1 0 0 1 353.3625 496.5)" class="st3 st4">DynamicConfigurationWindowController</text>
<g transform="translate(-310,-402) scale(1,1)">
	<path class="st2" d="M920.5,807h-176v72"/>
</g>
<g transform="translate(-310,-402) scale(1,1)">
	<path class="st2" d="M740.3,868.8l4.2,10.2l4.2-10.2"/>
</g>
<text transform="matrix(1 0 0 1 500 392.5)" class="st5 st4">+usa</text>
<g transform="translate(-310,-402) scale(1,1)">
	<path class="st2" d="M909.5,902h114"/>
</g>
<g transform="translate(-310,-402) scale(1,1)">
	<path class="st2" d="M1013.3,906.2l10.2-4.2l-10.2-4.2"/>
</g>
<text transform="matrix(1 0 0 1 625 491.5)" class="st5 st4">+configura y crea</text>
<g transform="translate(-310,-402) scale(1,1)">
	<path class="st1" d="M728.5,623h165l10,10v125h-175V623"/>
</g>
<g transform="translate(-310,-402) scale(1,1)">
	<path class="st2" d="M728.5,623h165l10,10v125h-175V623L728.5,623"/>
</g>
<g transform="translate(-310,-402) scale(1,1)">
	<path class="st2" d="M893.5,623v10h10L893.5,623"/>
</g>
<text transform="matrix(1 0 0 1 423.5 239)" class="st5 st4">+ Guarda la referencia a los</text>
<text transform="matrix(1 0 0 1 423.5 252)" class="st5 st4">objetos Class que heredan</text>
<text transform="matrix(1 0 0 1 423.5 265)" class="st5 st4">de Registrable.</text>
<text transform="matrix(1 0 0 1 423.5 282)" class="st5 st4">+ Valida el formado de las</text>
<text transform="matrix(1 0 0 1 423.5 295)" class="st5 st4">clases que heredan</text>
<text transform="matrix(1 0 0 1 423.5 308)" class="st5 st4">Registrable.</text>
<text transform="matrix(1 0 0 1 423.5 325)" class="st5 st4">+ Agrega los MenuItem a la</text>
<text transform="matrix(1 0 0 1 423.5 338)" class="st5 st4">GUI.</text>
<g transform="translate(-310,-402) scale(1,1)">
	<path class="st6" d="M973.5,790l-68-43"/>
</g>
<g transform="translate(-310,-402) scale(1,1)">
	<rect x="1087.5" y="422" class="st0" width="27.6" height="15"/>
</g>
<g transform="translate(-310,-402) scale(1,1)">
	<rect x="1087.5" y="436" class="st0" width="69" height="25"/>
</g>
<g transform="translate(-310,-402) scale(1,1)">
	<rect x="1080.5" y="430" class="st1" width="69" height="24"/>
</g>
<g transform="translate(-310,-402) scale(1,1)">
	<path class="st2" d="M1080.5,430h69v24h-69V430z"/>
</g>
<g transform="translate(-310,-402) scale(1,1)">
	<rect x="1080.5" y="415" class="st1" width="27.6" height="15"/>
</g>
<g transform="translate(-310,-402) scale(1,1)">
	<path class="st2" d="M1080.5,415h27.6v15h-27.6V415z"/>
</g>
<g transform="translate(-310,-402) scale(1,1)">
	<rect x="1080.5" y="429" class="st1" width="69" height="25"/>
</g>
<g transform="translate(-310,-402) scale(1,1)">
	<path class="st2" d="M1080.5,429h69v25h-69V429z"/>
</g>
<text transform="matrix(1 0 0 1 791.0247 47.5)" class="st3 st4">View</text>
<g transform="translate(-310,-402) scale(1,1)">
	<path class="st6" d="M1097.5,455l-65,80l43,71"/>
</g>
<g transform="translate(-310,-402) scale(1,1)">
	<path class="st2" d="M1066.6,599.5l8.9,6.5l-1.7-10.9"/>
</g>
<text transform="matrix(1 0 0 1 655.4646 122.5)" class="st5 st4">+genera</text>
<text transform="matrix(1 0 0 1 647.6981 135.5)" class="st5 st4">eventos de</text>
<text transform="matrix(1 0 0 1 658.1814 148.5)" class="st5 st4">usuario</text>
<g transform="translate(-310,-402) scale(1,1)">
	<path class="st6" d="M1183.5,606l1-77l-55-74"/>
</g>
<g transform="translate(-310,-402) scale(1,1)">
	<path class="st2" d="M1138.9,460.6l-9.4-5.6l2.7,10.7"/>
</g>
<text transform="matrix(1 0 0 1 888.6914 119.5)" class="st5 st4">+modifica view</text>
<g transform="translate(-310,-402) scale(1,1)">
	<path class="st1" d="M320.5,687h197l10,10v173h-207V687"/>
</g>
<g transform="translate(-310,-402) scale(1,1)">
	<path class="st2" d="M320.5,687h197l10,10v173h-207V687L320.5,687"/>
</g>
<g transform="translate(-310,-402) scale(1,1)">
	<path class="st2" d="M517.5,687v10h10L517.5,687"/>
</g>
<text transform="matrix(1 0 0 1 15.5 303)" class="st5 st4">+ Crea una GUI leyendo las</text>
<text transform="matrix(1 0 0 1 15.5 316)" class="st5 st4">anotaciones de la clase que</text>
<text transform="matrix(1 0 0 1 15.5 329)" class="st5 st4">hereda de Registrable. La lectura</text>
<text transform="matrix(1 0 0 1 15.5 342)" class="st5 st4">de las anotaciones se realiza a</text>
<text transform="matrix(1 0 0 1 15.5 355)" class="st5 st4">traves de la API de reflexiones de</text>
<text transform="matrix(1 0 0 1 15.5 368)" class="st5 st4">java. Esta GUI permite configurar</text>
<text transform="matrix(1 0 0 1 15.5 381)" class="st5 st4">los parametros del algoritmo.</text>
<text transform="matrix(1 0 0 1 15.5 398)" class="st5 st4">+ Cuando se terminan de</text>
<text transform="matrix(1 0 0 1 15.5 411)" class="st5 st4">configurar los parametros en la</text>
<text transform="matrix(1 0 0 1 15.5 424)" class="st5 st4">GUI crea un objeto de la clase</text>
<text transform="matrix(1 0 0 1 15.5 437)" class="st5 st4">Registrable injectando en su</text>
<text transform="matrix(1 0 0 1 15.5 450)" class="st5 st4">constructor los parametros.</text>
<g transform="translate(-310,-402) scale(1,1)">
	<path class="st6" d="M529.5,815l182,63"/>
</g>
<g transform="translate(-310,-402) scale(1,1)">
	<rect x="1223.5" y="670" class="st0" width="271.1" height="44"/>
</g>
<g transform="translate(-310,-402) scale(1,1)">
	<rect x="1216.5" y="663" class="st1" width="271.1" height="44"/>
</g>
<g transform="translate(-310,-402) scale(1,1)">
	<path class="st2" d="M1216.5,663h271.1v44h-271.1V663z"/>
</g>
<g transform="translate(-310,-402) scale(1,1)">
	<path class="st2" d="M1216.5,688h271.1"/>
</g>
<g transform="translate(-310,-402) scale(1,1)">
	<path class="st2" d="M1216.5,698h271.1"/>
</g>
<text transform="matrix(1 0 0 1 921.353 280.5)" class="st3 st4">SingleObjectiveRunningWindowController</text>
<g transform="translate(-310,-402) scale(1,1)">
	<path class="st2" d="M1079.5,691l136-3"/>
</g>
<g transform="translate(-310,-402) scale(1,1)">
	<path class="st2" d="M1205.4,692.4l10.1-4.4l-10.3-4"/>
</g>
<text transform="matrix(1 0 0 1 822 278.5)" class="st5 st4">+usa</text>
<g transform="translate(-310,-402) scale(1,1)">
	<path class="st2" d="M1351.5,708l1,26"/>
</g>
<g transform="translate(-310,-402) scale(1,1)">
	<path class="st2" d="M1347.9,724l4.6,10l3.8-10.3"/>
</g>
<text transform="matrix(1 0 0 1 1049 323.5)" class="st5 st4">+crea</text>
<g transform="translate(-310,-402) scale(1,1)">
	<rect x="1279.5" y="742" class="st0" width="160.5" height="44"/>
</g>
<g transform="translate(-310,-402) scale(1,1)">
	<rect x="1272.5" y="735" class="st1" width="160.5" height="44"/>
</g>
<g transform="translate(-310,-402) scale(1,1)">
	<path class="st2" d="M1272.5,735H1433v44h-160.5V735z"/>
</g>
<g transform="translate(-310,-402) scale(1,1)">
	<path class="st2" d="M1272.5,760H1433"/>
</g>
<g transform="translate(-310,-402) scale(1,1)">
	<path class="st2" d="M1272.5,770H1433"/>
</g>
<text transform="matrix(1 0 0 1 996.1707 352.5)" class="st3 st4">ResultController</text>
<g transform="translate(-310,-402) scale(1,1)">
	<rect x="1631.5" y="734" class="st0" width="135.4" height="44"/>
</g>
<g transform="translate(-310,-402) scale(1,1)">
	<rect x="1624.5" y="727" class="st1" width="135.4" height="44"/>
</g>
<g transform="translate(-310,-402) scale(1,1)">
	<path class="st2" d="M1624.5,727h135.4v44h-135.4V727z"/>
</g>
<g transform="translate(-310,-402) scale(1,1)">
	<path class="st2" d="M1624.5,752h135.4"/>
</g>
<g transform="translate(-310,-402) scale(1,1)">
	<path class="st2" d="M1624.5,762h135.4"/>
</g>
<text transform="matrix(1 0 0 1 1324.3955 344.5)" class="st3 st4">ResultPlotController</text>
<g transform="translate(-310,-402) scale(1,1)">
	<path class="st2" d="M1473.5,708l150,28"/>
</g>
<g transform="translate(-310,-402) scale(1,1)">
	<path class="st2" d="M1612.7,738.3l10.8-2.3l-9.2-6"/>
</g>
<text transform="matrix(1 0 0 1 1260 296.5)" class="st5 st4">+crea</text>
<g transform="translate(-310,-402) scale(1,1)">
	<rect x="1223.5" y="838" class="st0" width="266.7" height="44"/>
</g>
<g transform="translate(-310,-402) scale(1,1)">
	<rect x="1216.5" y="831" class="st1" width="266.7" height="44"/>
</g>
<g transform="translate(-310,-402) scale(1,1)">
	<path class="st2" d="M1216.5,831h266.7v44h-266.7V831z"/>
</g>
<g transform="translate(-310,-402) scale(1,1)">
	<path class="st2" d="M1216.5,856h266.7"/>
</g>
<g transform="translate(-310,-402) scale(1,1)">
	<path class="st2" d="M1216.5,866h266.7"/>
</g>
<text transform="matrix(1 0 0 1 920.9849 448.5)" class="st3 st4">MonoObjectiveRunningWindowController</text>
<g transform="translate(-310,-402) scale(1,1)">
	<path class="st2" d="M1053.5,716l246,114"/>
</g>
<g transform="translate(-310,-402) scale(1,1)">
	<path class="st2" d="M1288.5,829.5l11,0.5l-7.5-8.1"/>
</g>
<text transform="matrix(1 0 0 1 824 377.5)" class="st5 st4">+usa</text>
<g transform="translate(-310,-402) scale(1,1)">
	<path class="st2" d="M1350.5,830l1-50"/>
</g>
<g transform="translate(-310,-402) scale(1,1)">
	<path class="st2" d="M1355.5,790.2l-4-10.2l-4.4,10.1"/>
</g>
<text transform="matrix(1 0 0 1 1048 412.5)" class="st5 st4">+crea</text>
<g transform="translate(-310,-402) scale(1,1)">
	<path class="st2" d="M1425.5,830l198-60"/>
</g>
<g transform="translate(-310,-402) scale(1,1)">
	<path class="st2" d="M1615,777l8.5-7l-10.9-1.1"/>
</g>
<text transform="matrix(1 0 0 1 1225 416.5)" class="st5 st4">+crea</text>
<g transform="translate(-310,-402) scale(1,1)">
	<rect x="343.5" y="1130" class="st0" width="656" height="15"/>
</g>
<g transform="translate(-310,-402) scale(1,1)">
	<rect x="343.5" y="1144" class="st0" width="1640" height="666"/>
</g>
<g transform="translate(-310,-402) scale(1,1)">
	<rect x="336.5" y="1138" class="st1" width="1640" height="665"/>
</g>
<g transform="translate(-310,-402) scale(1,1)">
	<path class="st2" d="M336.5,1138h1640v665h-1640V1138z"/>
</g>
<g transform="translate(-310,-402) scale(1,1)">
	<rect x="336.5" y="1123" class="st1" width="656" height="15"/>
</g>
<g transform="translate(-310,-402) scale(1,1)">
	<path class="st2" d="M336.5,1123h656v15h-656V1123z"/>
</g>
<g transform="translate(-310,-402) scale(1,1)">
	<rect x="336.5" y="1137" class="st1" width="1640" height="666"/>
</g>
<g transform="translate(-310,-402) scale(1,1)">
	<path class="st2" d="M336.5,1137h1640v666h-1640V1137z"/>
</g>
<text transform="matrix(1 0 0 1 828.7964 755.5)" class="st3 st4">Model</text>
<g transform="translate(-310,-402) scale(1,1)">
	<rect x="399.5" y="1218" class="st0" width="307.2" height="15"/>
</g>
<g transform="translate(-310,-402) scale(1,1)">
	<rect x="399.5" y="1232" class="st0" width="768" height="538"/>
</g>
<g transform="translate(-310,-402) scale(1,1)">
	<rect x="392.5" y="1226" class="st1" width="768" height="537"/>
</g>
<g transform="translate(-310,-402) scale(1,1)">
	<path class="st2" d="M392.5,1226h768v537h-768V1226z"/>
</g>
<g transform="translate(-310,-402) scale(1,1)">
	<rect x="392.5" y="1211" class="st1" width="307.2" height="15"/>
</g>
<g transform="translate(-310,-402) scale(1,1)">
	<path class="st2" d="M392.5,1211h307.2v15H392.5V1211z"/>
</g>
<g transform="translate(-310,-402) scale(1,1)">
	<rect x="392.5" y="1225" class="st1" width="768" height="538"/>
</g>
<g transform="translate(-310,-402) scale(1,1)">
	<path class="st2" d="M392.5,1225h768v538h-768V1225z"/>
</g>
<text transform="matrix(1 0 0 1 424.5959 843.5)" class="st3 st4">Metaheuristics</text>
<g transform="translate(-310,-402) scale(1,1)">
	<rect x="1487.5" y="1418" class="st0" width="121.6" height="15"/>
</g>
<g transform="translate(-310,-402) scale(1,1)">
	<rect x="1487.5" y="1432" class="st0" width="304" height="338"/>
</g>
<g transform="translate(-310,-402) scale(1,1)">
	<rect x="1480.5" y="1426" class="st1" width="304" height="337"/>
</g>
<g transform="translate(-310,-402) scale(1,1)">
	<path class="st2" d="M1480.5,1426h304v337h-304V1426z"/>
</g>
<g transform="translate(-310,-402) scale(1,1)">
	<rect x="1480.5" y="1411" class="st1" width="121.6" height="15"/>
</g>
<g transform="translate(-310,-402) scale(1,1)">
	<path class="st2" d="M1480.5,1411h121.6v15h-121.6V1411z"/>
</g>
<g transform="translate(-310,-402) scale(1,1)">
	<rect x="1480.5" y="1425" class="st1" width="304" height="338"/>
</g>
<g transform="translate(-310,-402) scale(1,1)">
	<path class="st2" d="M1480.5,1425h304v338h-304V1425z"/>
</g>
<text transform="matrix(1 0 0 1 1301.8987 1043.5)" class="st3 st4">Epanet</text>
<g transform="translate(-310,-402) scale(1,1)">
	<path class="st1" d="M1872.5,1347h157l10,10v156h-167V1347"/>
</g>
<g transform="translate(-310,-402) scale(1,1)">
	<path class="st2" d="M1872.5,1347h157l10,10v156h-167V1347L1872.5,1347"/>
</g>
<g transform="translate(-310,-402) scale(1,1)">
	<path class="st2" d="M2029.5,1347v10h10L2029.5,1347"/>
</g>
<text transform="matrix(1 0 0 1 1567.5 963)" class="st5 st4">Esta clase es tambien la</text>
<text transform="matrix(1 0 0 1 1567.5 976)" class="st5 st4">que es creada y leida para</text>
<text transform="matrix(1 0 0 1 1567.5 989)" class="st5 st4">mostrar la red en la</text>
<text transform="matrix(1 0 0 1 1567.5 1002)" class="st5 st4">interfaz. El unico fin de</text>
<text transform="matrix(1 0 0 1 1567.5 1015)" class="st5 st4">modificar un objeto</text>
<text transform="matrix(1 0 0 1 1567.5 1028)" class="st5 st4">Network es para poder</text>
<text transform="matrix(1 0 0 1 1567.5 1041)" class="st5 st4">posteriormente guardar las</text>
<text transform="matrix(1 0 0 1 1567.5 1054)" class="st5 st4">configuraciones en un</text>
<text transform="matrix(1 0 0 1 1567.5 1067)" class="st5 st4">inp.La simulación a traves</text>
<text transform="matrix(1 0 0 1 1567.5 1080)" class="st5 st4">de la EpanetToolkit no</text>
<text transform="matrix(1 0 0 1 1567.5 1093)" class="st5 st4">ocupa esta red, ocupa el</text>
<text transform="matrix(1 0 0 1 1567.5 1106)" class="st5 st4">inp.</text>
<g transform="translate(-310,-402) scale(1,1)">
	<path class="st2" d="M1645.5,1539l-37,31"/>
</g>
<g transform="translate(-310,-402) scale(1,1)">
	<path class="st2" d="M1613.6,1560.2l-5.1,9.8l10.5-3.3"/>
</g>
<text transform="matrix(1 0 0 1 1305 1169.5)" class="st5 st4">+carga</text>
<g transform="translate(-310,-402) scale(1,1)">
	<path class="st2" d="M1642.5,1666l-37-35"/>
</g>
<g transform="translate(-310,-402) scale(1,1)">
	<path class="st2" d="M1615.8,1634.9l-10.3-3.9l4.5,10"/>
</g>
<text transform="matrix(1 0 0 1 1278 1262.5)" class="st5 st4">+guarda</text>
<g transform="translate(-310,-402) scale(1,1)">
	<rect x="1535.5" y="1578" class="st0" width="88.5" height="59"/>
</g>
<g transform="translate(-310,-402) scale(1,1)">
	<rect x="1528.5" y="1571" class="st1" width="88.5" height="59"/>
</g>
<g transform="translate(-310,-402) scale(1,1)">
	<path class="st2" d="M1528.5,1571h88.5v59h-88.5V1571z"/>
</g>
<g transform="translate(-310,-402) scale(1,1)">
	<path class="st2" d="M1528.5,1611h88.5"/>
</g>
<g transform="translate(-310,-402) scale(1,1)">
	<path class="st2" d="M1528.5,1621h88.5"/>
</g>
<text transform="matrix(1 0 0 1 1238.8977 1188.5)" class="st3 st4">Network</text>
<text transform="matrix(1 0 0 1 1223 1203.5)" class="st5 st4">(from Epanet)</text>
<g transform="translate(-310,-402) scale(1,1)">
	<rect x="679.5" y="1482" class="st0" width="131.1" height="59"/>
</g>
<g transform="translate(-310,-402) scale(1,1)">
	<rect x="672.5" y="1475" class="st1" width="131.1" height="59"/>
</g>
<g transform="translate(-310,-402) scale(1,1)">
	<path class="st2" d="M672.5,1475h131.1v59H672.5V1475z"/>
</g>
<g transform="translate(-310,-402) scale(1,1)">
	<path class="st2" d="M672.5,1515h131.1"/>
</g>
<g transform="translate(-310,-402) scale(1,1)">
	<path class="st2" d="M672.5,1525h131.1"/>
</g>
<text transform="matrix(1 0 0 1 400.5854 1092.5)" class="st3 st4">Algorithm</text>
<text transform="matrix(1 0 0 1 367 1107.5)" class="st5 st4">(from Metaheuristics)</text>
<g transform="translate(-310,-402) scale(1,1)">
	<rect x="439.5" y="1580" class="st0" width="151.1" height="59"/>
</g>
<g transform="translate(-310,-402) scale(1,1)">
	<rect x="562.4" y="1562" class="st0" width="37.2" height="22"/>
</g>
<g transform="translate(-310,-402) scale(1,1)">
	<rect x="432.5" y="1573" class="st1" width="151.1" height="59"/>
</g>
<g transform="translate(-310,-402) scale(1,1)">
	<path class="st2" d="M432.5,1573h151.1v59H432.5V1573z"/>
</g>
<g transform="translate(-310,-402) scale(1,1)">
	<path class="st2" d="M432.5,1613h151.1"/>
</g>
<g transform="translate(-310,-402) scale(1,1)">
	<path class="st2" d="M432.5,1623h151.1"/>
</g>
<text transform="matrix(1 0 0 1 174.5496 1190.5)" class="st3 st4">Solution</text>
<text transform="matrix(1 0 0 1 137 1205.5)" class="st5 st4">(from Metaheuristics)</text>
<g transform="translate(-310,-402) scale(1,1)">
	<rect x="555.4" y="1555" class="st1" width="37.2" height="22"/>
</g>
<g transform="translate(-310,-402) scale(1,1)">
	<path class="st6" d="M555.4,1555h37.2v22h-37.2V1555z"/>
</g>
<text transform="matrix(1 0 0 1 250.3945 1170.5)" class="st5 st4">Type</text>
<g transform="translate(-310,-402) scale(1,1)">
	<path class="st2" d="M1082.5,1601l445-1"/>
</g>
<g transform="translate(-310,-402) scale(1,1)">
	<path class="st2" d="M1517.3,1604.2l10.2-4.2l-10.2-4.2"/>
</g>
<text transform="matrix(1 0 0 1 967 1189.5)" class="st5 st4">+Modifica</text>
<g transform="translate(-310,-402) scale(1,1)">
	<rect x="927.5" y="1588" class="st0" width="151.1" height="59"/>
</g>
<g transform="translate(-310,-402) scale(1,1)">
	<rect x="1031.6" y="1570" class="st0" width="56" height="22"/>
</g>
<g transform="translate(-310,-402) scale(1,1)">
	<rect x="920.5" y="1581" class="st1" width="151.1" height="59"/>
</g>
<g transform="translate(-310,-402) scale(1,1)">
	<path class="st2" d="M920.5,1581h151.1v59H920.5V1581z"/>
</g>
<g transform="translate(-310,-402) scale(1,1)">
	<path class="st2" d="M920.5,1621h151.1"/>
</g>
<g transform="translate(-310,-402) scale(1,1)">
	<path class="st2" d="M920.5,1631h151.1"/>
</g>
<text transform="matrix(1 0 0 1 661.8353 1198.5)" class="st3 st4">Problem</text>
<text transform="matrix(1 0 0 1 625 1213.5)" class="st5 st4">(from Metaheuristics)</text>
<g transform="translate(-310,-402) scale(1,1)">
	<rect x="1024.6" y="1563" class="st1" width="56" height="22"/>
</g>
<g transform="translate(-310,-402) scale(1,1)">
	<path class="st6" d="M1024.6,1563h56v22h-56V1563z"/>
</g>
<text transform="matrix(1 0 0 1 719.5991 1178.5)" class="st5 st4">Solution</text>
<g transform="translate(-310,-402) scale(1,1)">
	<path class="st2" d="M656.5,1715h-136v-83"/>
</g>
<g transform="translate(-310,-402) scale(1,1)">
	<path class="st2" d="M524.7,1642.2l-4.2-10.2l-4.2,10.2"/>
</g>
<text transform="matrix(1 0 0 1 233 1332.5)" class="st5 st4">+manipula</text>
<g transform="translate(-310,-402) scale(1,1)">
	<path class="st2" d="M737.5,1535l-1,123"/>
</g>
<g transform="translate(-310,-402) scale(1,1)">
	<path class="st2" d="M732.4,1647.8l4.1,10.2l4.3-10.1"/>
</g>
<text transform="matrix(1 0 0 1 426 1199.5)" class="st5 st4">+usa</text>
<g transform="translate(-310,-402) scale(1,1)">
	<rect x="663.5" y="1699" class="st0" width="151.1" height="59"/>
</g>
<g transform="translate(-310,-402) scale(1,1)">
	<rect x="777.7" y="1666" class="st0" width="45.8" height="37"/>
</g>
<g transform="translate(-310,-402) scale(1,1)">
	<rect x="656.5" y="1692" class="st1" width="151.1" height="59"/>
</g>
<g transform="translate(-310,-402) scale(1,1)">
	<path class="st2" d="M656.5,1692h151.1v59H656.5V1692z"/>
</g>
<g transform="translate(-310,-402) scale(1,1)">
	<path class="st2" d="M656.5,1732h151.1"/>
</g>
<g transform="translate(-310,-402) scale(1,1)">
	<path class="st2" d="M656.5,1742h151.1"/>
</g>
<text transform="matrix(1 0 0 1 396.3882 1309.5)" class="st3 st4">Operator</text>
<text transform="matrix(1 0 0 1 361 1324.5)" class="st5 st4">(from Metaheuristics)</text>
<g transform="translate(-310,-402) scale(1,1)">
	<rect x="770.7" y="1659" class="st1" width="45.8" height="37"/>
</g>
<g transform="translate(-310,-402) scale(1,1)">
	<path class="st6" d="M770.7,1659h45.8v37h-45.8V1659z"/>
</g>
<text transform="matrix(1 0 0 1 465.73 1274.5)" class="st5 st4">Input</text>
<text transform="matrix(1 0 0 1 465.73 1289.5)" class="st5 st4">Result</text>
<g transform="translate(-310,-402) scale(1,1)">
	<rect x="887.5" y="1268" class="st0" width="238" height="74"/>
</g>
<g transform="translate(-310,-402) scale(1,1)">
	<rect x="1040.2" y="1250" class="st0" width="94.3" height="22"/>
</g>
<g transform="translate(-310,-402) scale(1,1)">
	<rect x="880.5" y="1261" class="st1" width="238" height="74"/>
</g>
<g transform="translate(-310,-402) scale(1,1)">
	<path class="st2" d="M880.5,1261h238v74h-238V1261z"/>
</g>
<g transform="translate(-310,-402) scale(1,1)">
	<path class="st2" d="M880.5,1301h238"/>
</g>
<g transform="translate(-310,-402) scale(1,1)">
	<path class="st2" d="M880.5,1311h238"/>
</g>
<text transform="matrix(1 0 0 1 656.6255 878.5)" class="st3 st4">Experiment</text>
<text transform="matrix(1 0 0 1 637.4905 893.5)" class="st5 st4">(from Experiment)</text>
<g transform="translate(-310,-402) scale(1,1)">
	<rect x="1033.2" y="1243" class="st1" width="94.3" height="22"/>
</g>
<g transform="translate(-310,-402) scale(1,1)">
	<path class="st6" d="M1033.2,1243h94.3v22h-94.3V1243z"/>
</g>
<text transform="matrix(1 0 0 1 728.2129 858.5)" class="st5 st4">S: Solution&lt;?&gt;</text>
<g transform="translate(-310,-402) scale(1,1)">
	<rect x="663.5" y="1284" class="st0" width="161.2" height="59"/>
</g>
<g transform="translate(-310,-402) scale(1,1)">
	<rect x="739.4" y="1266" class="st0" width="94.3" height="22"/>
</g>
<g transform="translate(-310,-402) scale(1,1)">
	<rect x="656.5" y="1277" class="st1" width="161.2" height="59"/>
</g>
<g transform="translate(-310,-402) scale(1,1)">
	<path class="st2" d="M656.5,1277h161.2v59H656.5V1277z"/>
</g>
<g transform="translate(-310,-402) scale(1,1)">
	<path class="st2" d="M656.5,1317h161.2"/>
</g>
<g transform="translate(-310,-402) scale(1,1)">
	<path class="st2" d="M656.5,1327h161.2"/>
</g>
<text transform="matrix(1 0 0 1 366.7637 894.5)" class="st3 st4">ExperimentAlgorithm</text>
<text transform="matrix(1 0 0 1 375.0823 909.5)" class="st5 st4">(from Experiment)</text>
<g transform="translate(-310,-402) scale(1,1)">
	<rect x="732.4" y="1259" class="st1" width="94.3" height="22"/>
</g>
<g transform="translate(-310,-402) scale(1,1)">
	<path class="st6" d="M732.4,1259h94.3v22h-94.3V1259z"/>
</g>
<text transform="matrix(1 0 0 1 427.3965 874.5)" class="st5 st4">S: Solution&lt;?&gt;</text>
<g transform="translate(-310,-402) scale(1,1)">
	<path class="st2" d="M828.5,1294l51-1"/>
</g>
<g transform="translate(-310,-402) scale(1,1)">
	<path d="M869.4,1297.4l10.1-4.4l-10.2-4l-11.8,4.4"/>
</g>
<g transform="translate(-310,-402) scale(1,1)">
	<path class="st2" d="M869.4,1297.4l10.1-4.4l-10.2-4l-11.8,4.4L869.4,1297.4"/>
</g>
<text transform="matrix(1 0 0 1 536.7205 910.5)" class="st5 st4">*</text>
<g transform="translate(-310,-402) scale(1,1)">
	<path class="st2" d="M1000.5,1410l3-74"/>
</g>
<g transform="translate(-310,-402) scale(1,1)">
	<path d="M1007.3,1346.3l-3.8-10.3l-4.6,10l3.7,12"/>
</g>
<g transform="translate(-310,-402) scale(1,1)">
	<path class="st2" d="M1007.3,1346.3l-3.8-10.3l-4.6,10l3.7,12L1007.3,1346.3"/>
</g>
<text transform="matrix(1 0 0 1 700 992.5)" class="st5 st4">1</text>
<g transform="translate(-310,-402) scale(1,1)">
	<rect x="911.5" y="1436" class="st0" width="180" height="60"/>
</g>
<g transform="translate(-310,-402) scale(1,1)">
	<rect x="1006.2" y="1418" class="st0" width="94.3" height="22"/>
</g>
<g transform="translate(-310,-402) scale(1,1)">
	<rect x="904.5" y="1429" class="st1" width="180" height="60"/>
</g>
<g transform="translate(-310,-402) scale(1,1)">
	<path class="st2" d="M904.5,1429h180v60h-180V1429z"/>
</g>
<g transform="translate(-310,-402) scale(1,1)">
	<path class="st2" d="M904.5,1469h180"/>
</g>
<g transform="translate(-310,-402) scale(1,1)">
	<path class="st2" d="M904.5,1479h180"/>
</g>
<text transform="matrix(1 0 0 1 627.4219 1046.5)" class="st3 st4">ExperimentProblem</text>
<text transform="matrix(1 0 0 1 623.4608 1061.5)" class="st5 st4">(from Metaheuristics)</text>
<g transform="translate(-310,-402) scale(1,1)">
	<rect x="999.2" y="1411" class="st1" width="94.3" height="22"/>
</g>
<g transform="translate(-310,-402) scale(1,1)">
	<path class="st6" d="M999.2,1411h94.3v22h-94.3V1411z"/>
</g>
<text transform="matrix(1 0 0 1 694.2129 1026.5)" class="st5 st4">S: Solution&lt;?&gt;</text>
<g transform="translate(-310,-402) scale(1,1)">
	<path class="st2" d="M738.5,1474l2-137"/>
</g>
<g transform="translate(-310,-402) scale(1,1)">
	<path d="M744.6,1347.2l-4.1-10.2l-4.4,10.1l4,11.9"/>
</g>
<g transform="translate(-310,-402) scale(1,1)">
	<path class="st2" d="M744.6,1347.2l-4.1-10.2l-4.4,10.1l4,11.9L744.6,1347.2"/>
</g>
<text transform="matrix(1 0 0 1 357 1007.5)" class="st5 st4">+contiene</text>
<text transform="matrix(1 0 0 1 437.7205 1056.5)" class="st5 st4">*</text>
<g transform="translate(-310,-402) scale(1,1)">
	<path class="st2" d="M1000.5,1562l-1-72"/>
</g>
<g transform="translate(-310,-402) scale(1,1)">
	<path d="M1003.9,1500.1l-4.4-10.1l-4.1,10.2l4.4,11.8"/>
</g>
<g transform="translate(-310,-402) scale(1,1)">
	<path class="st2" d="M1003.9,1500.1l-4.4-10.1l-4.1,10.2l4.4,11.8L1003.9,1500.1"/>
</g>
<g transform="translate(-310,-402) scale(1,1)">
	<path class="st6" d="M1616.5,1616h320v-102"/>
</g>
<g transform="translate(-310,-402) scale(1,1)">
	<path class="st0" d="M1680.2,1493.5c0-6.4,5.1-11.5,11.5-11.5s11.5,5.1,11.5,11.5s-5.1,11.5-11.5,11.5S1680.2,1499.9,1680.2,1493.5
		z"/>
</g>
<g transform="translate(-310,-402) scale(1,1)">
	<path class="st1" d="M1673.2,1486.5c0-6.4,5.1-11.5,11.5-11.5s11.5,5.1,11.5,11.5s-5.1,11.5-11.5,11.5S1673.2,1492.9,1673.2,1486.5
		z"/>
</g>
<g transform="translate(-310,-402) scale(1,1)">
	<path class="st2" d="M1673.2,1486.5c0-6.4,5.1-11.5,11.5-11.5s11.5,5.1,11.5,11.5s-5.1,11.5-11.5,11.5S1673.2,1492.9,1673.2,1486.5
		z"/>
</g>
<text transform="matrix(1 0 0 1 1341.135 1115.5)" class="st3 st4">InputParser</text>
<text transform="matrix(1 0 0 1 1335 1130.5)" class="st5 st4">(from Epanet)</text>
<g transform="translate(-310,-402) scale(1,1)">
	<path class="st0" d="M1672.5,1685.5c0-6.4,5.1-11.5,11.5-11.5s11.5,5.1,11.5,11.5s-5.1,11.5-11.5,11.5S1672.5,1691.9,1672.5,1685.5
		z"/>
</g>
<g transform="translate(-310,-402) scale(1,1)">
	<path class="st1" d="M1665.5,1678.5c0-6.4,5.1-11.5,11.5-11.5s11.5,5.1,11.5,11.5s-5.1,11.5-11.5,11.5S1665.5,1684.9,1665.5,1678.5
		z"/>
</g>
<g transform="translate(-310,-402) scale(1,1)">
	<path class="st2" d="M1665.5,1678.5c0-6.4,5.1-11.5,11.5-11.5s11.5,5.1,11.5,11.5s-5.1,11.5-11.5,11.5S1665.5,1684.9,1665.5,1678.5
		z"/>
</g>
<text transform="matrix(1 0 0 1 1330.2341 1307.5)" class="st3 st4">OutputWriter</text>
<text transform="matrix(1 0 0 1 1327.2222 1322.5)" class="st5 st4">(from Epanet)</text>
<g transform="translate(-310,-402) scale(1,1)">
	<path class="st2" d="M1128.5,944v67h-136v232"/>
</g>
<g transform="translate(-310,-402) scale(1,1)">
	<path class="st2" d="M988.3,1232.8l4.2,10.2l4.2-10.2"/>
</g>
<text transform="matrix(1 0 0 1 718 630.5)" class="st5 st4">+construye</text>
<g transform="translate(-310,-402) scale(1,1)">
	<path class="st2" d="M672.5,1504h-152v51"/>
</g>
<g transform="translate(-310,-402) scale(1,1)">
	<path class="st2" d="M516.3,1544.8l4.2,10.2l4.2-10.2"/>
</g>
<text transform="matrix(1 0 0 1 225 1090.5)" class="st5 st4">+genera</text>
<g transform="translate(-310,-402) scale(1,1)">
	<path class="st2" d="M803.5,1534h149v29"/>
</g>
<g transform="translate(-310,-402) scale(1,1)">
	<path class="st2" d="M948.3,1552.8l4.2,10.2l4.2-10.2"/>
</g>
<text transform="matrix(1 0 0 1 521 1116.5)" class="st5 st4">+resuelve</text>
</svg>
