<?xml version="1.0" encoding="utf-8"?>
<!-- Generator: Adobe Illustrator 24.0.1, SVG Export Plug-In . SVG Version: 6.00 Build 0)  -->
<svg version="1.1" id="Capa_1" xmlns="http://www.w3.org/2000/svg" xmlns:xlink="http://www.w3.org/1999/xlink" x="0px" y="0px"
	 viewBox="0 0 1124 1212" style="enable-background:new 0 0 1124 1212;" xml:space="preserve">
<style type="text/css">
	.st0{opacity:0.2;fill:#C0C0C0;enable-background:new    ;}
	.st1{fill:#FFFFFF;}
	.st2{fill:none;stroke:#000000;stroke-miterlimit:10;}
	.st3{font-family:'Arial-BoldMT';}
	.st4{font-size:13px;}
	.st5{font-family:'ArialMT';}
	.st6{font-size:15px;}
	.st7{fill:none;stroke:#000000;stroke-miterlimit:10;stroke-dasharray:3;}
</style>
<g transform="translate(-606,-454) scale(1,1)">
	<rect x="747.5" y="607.5" class="st0" width="390.4" height="15"/>
</g>
<g transform="translate(-606,-454) scale(1,1)">
	<rect x="747.5" y="621.5" class="st0" width="976" height="330"/>
</g>
<g transform="translate(-606,-454) scale(1,1)">
	<rect x="740.5" y="615.5" class="st1" width="976" height="329"/>
</g>
<g transform="translate(-606,-454) scale(1,1)">
	<path class="st2" d="M740.5,615.5h976v329h-976V615.5z"/>
</g>
<g transform="translate(-606,-454) scale(1,1)">
	<rect x="740.5" y="600.5" class="st1" width="390.4" height="15"/>
</g>
<g transform="translate(-606,-454) scale(1,1)">
	<path class="st2" d="M740.5,600.5h390.4v15H740.5V600.5z"/>
</g>
<g transform="translate(-606,-454) scale(1,1)">
	<rect x="740.5" y="614.5" class="st1" width="976" height="330"/>
</g>
<g transform="translate(-606,-454) scale(1,1)">
	<path class="st2" d="M740.5,614.5h976v330h-976V614.5z"/>
</g>
<text transform="matrix(1 0 0 1 594.3228 181)" class="st3 st4">Controller</text>
<g transform="translate(-606,-454) scale(1,1)">
	<rect x="931.5" y="671.5" class="st0" width="150.4" height="44"/>
</g>
<g transform="translate(-606,-454) scale(1,1)">
	<rect x="924.5" y="664.5" class="st1" width="150.4" height="44"/>
</g>
<g transform="translate(-606,-454) scale(1,1)">
	<path class="st2" d="M924.5,664.5h150.4v44H924.5V664.5z"/>
</g>
<g transform="translate(-606,-454) scale(1,1)">
	<path class="st2" d="M924.5,689.5h150.4"/>
</g>
<g transform="translate(-606,-454) scale(1,1)">
	<path class="st2" d="M924.5,699.5h150.4"/>
</g>
<text transform="matrix(1 0 0 1 328.3289 230)" class="st3 st4">MainWindowController</text>
<g transform="translate(-606,-454) scale(1,1)">
	<rect x="923.5" y="791.5" class="st0" width="180.2" height="44"/>
</g>
<g transform="translate(-606,-454) scale(1,1)">
	<rect x="916.5" y="784.5" class="st1" width="180.2" height="44"/>
</g>
<g transform="translate(-606,-454) scale(1,1)">
	<path class="st2" d="M916.5,784.5h180.2v44H916.5V784.5z"/>
</g>
<g transform="translate(-606,-454) scale(1,1)">
	<path class="st2" d="M916.5,809.5h180.2"/>
</g>
<g transform="translate(-606,-454) scale(1,1)">
	<path class="st2" d="M916.5,819.5h180.2"/>
</g>
<text transform="matrix(1 0 0 1 321.4524 350)" class="st3 st4">ProblemMenuConfiguration</text>
<g transform="translate(-606,-454) scale(1,1)">
	<path class="st2" d="M980.5,708.5v76"/>
</g>
<g transform="translate(-606,-454) scale(1,1)">
	<path class="st2" d="M976.3,774.3l4.2,10.2l4.2-10.2"/>
</g>
<text transform="matrix(1 0 0 1 380 299)" class="st5 st4">+usa</text>
<g transform="translate(-606,-454) scale(1,1)">
	<path class="st0" d="M1207.3,875c0-6.4,5.1-11.5,11.5-11.5s11.5,5.1,11.5,11.5s-5.1,11.5-11.5,11.5S1207.3,881.4,1207.3,875z"/>
</g>
<g transform="translate(-606,-454) scale(1,1)">
	<path class="st1" d="M1200.3,868c0-6.4,5.1-11.5,11.5-11.5s11.5,5.1,11.5,11.5s-5.1,11.5-11.5,11.5S1200.3,874.4,1200.3,868z"/>
</g>
<g transform="translate(-606,-454) scale(1,1)">
	<path class="st2" d="M1200.3,868c0-6.4,5.1-11.5,11.5-11.5s11.5,5.1,11.5,11.5s-5.1,11.5-11.5,11.5S1200.3,874.4,1200.3,868z"/>
</g>
<g transform="translate(-606,-454) scale(1,1)">
	<path class="st2" d="M1100.5,904.5H1323"/>
</g>
<g transform="translate(-606,-454) scale(1,1)">
	<path class="st2" d="M1100.5,927.5H1323"/>
</g>
<text transform="matrix(1 0 0 1 572.8899 445)" class="st3 st4">Registrable</text>
<text transform="matrix(1 0 0 1 499.5 468)" class="st5 st4">+build(inpPath: String): Algorithm&lt;?&gt;</text>
<g transform="translate(-606,-454) scale(1,1)">
	<rect x="763.5" y="875.5" class="st0" width="272" height="44"/>
</g>
<g transform="translate(-606,-454) scale(1,1)">
	<rect x="756.5" y="868.5" class="st1" width="272" height="44"/>
</g>
<g transform="translate(-606,-454) scale(1,1)">
	<path class="st2" d="M756.5,868.5h272v44h-272V868.5z"/>
</g>
<g transform="translate(-606,-454) scale(1,1)">
	<path class="st2" d="M756.5,893.5h272"/>
</g>
<g transform="translate(-606,-454) scale(1,1)">
	<path class="st2" d="M756.5,903.5h272"/>
</g>
<text transform="matrix(1 0 0 1 171.2583 434)" class="st3 st4">DynamicConfigurationWindowController</text>
<g transform="translate(-606,-454) scale(1,1)">
	<path class="st2" d="M916.5,800.5h-22v68"/>
</g>
<g transform="translate(-606,-454) scale(1,1)">
	<path class="st2" d="M890.3,858.3l4.2,10.2l4.2-10.2"/>
</g>
<text transform="matrix(1 0 0 1 242 387)" class="st5 st4">+usa</text>
<g transform="translate(-606,-454) scale(1,1)">
	<path class="st2" d="M1029.5,893.5l70,1"/>
</g>
<g transform="translate(-606,-454) scale(1,1)">
	<path class="st2" d="M1089.3,898.6l10.2-4.1l-10.1-4.4"/>
</g>
<text transform="matrix(1 0 0 1 432.4087 418)" class="st5 st4">+configura y</text>
<text transform="matrix(1 0 0 1 455.3555 431)" class="st5 st4">crea</text>
<g transform="translate(-606,-454) scale(1,1)">
	<path class="st1" d="M740.5,580.5h165l10,10v143h-175V580.5"/>
</g>
<g transform="translate(-606,-454) scale(1,1)">
	<path class="st2" d="M740.5,580.5h165l10,10v143h-175V580.5L740.5,580.5"/>
</g>
<g transform="translate(-606,-454) scale(1,1)">
	<path class="st2" d="M905.5,580.5v10h10L905.5,580.5"/>
</g>
<text transform="matrix(1 0 0 1 139.5 146.5)" class="st5 st6">+ Guarda la referencia a</text>
<text transform="matrix(1 0 0 1 139.5 161.5)" class="st5 st6">los objetos Class que</text>
<text transform="matrix(1 0 0 1 139.5 176.5)" class="st5 st6">heredan de Registrable.</text>
<text transform="matrix(1 0 0 1 139.5 195.5)" class="st5 st6">+ Valida el formado de</text>
<text transform="matrix(1 0 0 1 139.5 210.5)" class="st5 st6">las clases que heredan</text>
<text transform="matrix(1 0 0 1 139.5 225.5)" class="st5 st6">Registrable.</text>
<text transform="matrix(1 0 0 1 139.5 244.5)" class="st5 st6">+ Agrega los MenuItem</text>
<text transform="matrix(1 0 0 1 139.5 259.5)" class="st5 st6">a la GUI.</text>
<g transform="translate(-606,-454) scale(1,1)">
	<path class="st7" d="M979.5,783.5l-62-51"/>
</g>
<g transform="translate(-606,-454) scale(1,1)">
	<rect x="1155.5" y="467.5" class="st0" width="27.6" height="15"/>
</g>
<g transform="translate(-606,-454) scale(1,1)">
	<rect x="1155.5" y="481.5" class="st0" width="69" height="25"/>
</g>
<g transform="translate(-606,-454) scale(1,1)">
	<rect x="1148.5" y="475.5" class="st1" width="69" height="24"/>
</g>
<g transform="translate(-606,-454) scale(1,1)">
	<path class="st2" d="M1148.5,475.5h69v24h-69V475.5z"/>
</g>
<g transform="translate(-606,-454) scale(1,1)">
	<rect x="1148.5" y="460.5" class="st1" width="27.6" height="15"/>
</g>
<g transform="translate(-606,-454) scale(1,1)">
	<path class="st2" d="M1148.5,460.5h27.6v15h-27.6V460.5z"/>
</g>
<g transform="translate(-606,-454) scale(1,1)">
	<rect x="1148.5" y="474.5" class="st1" width="69" height="25"/>
</g>
<g transform="translate(-606,-454) scale(1,1)">
	<path class="st2" d="M1148.5,474.5h69v25h-69V474.5z"/>
</g>
<text transform="matrix(1 0 0 1 563.0247 41)" class="st3 st4">View</text>
<g transform="translate(-606,-454) scale(1,1)">
	<path class="st7" d="M1153.5,500.5l-45,32l34,67"/>
</g>
<g transform="translate(-606,-454) scale(1,1)">
	<path class="st2" d="M1134.1,592.3l8.4,7.2l-0.8-11"/>
</g>
<text transform="matrix(1 0 0 1 435.4646 64)" class="st5 st4">+genera</text>
<text transform="matrix(1 0 0 1 427.6982 77)" class="st5 st4">eventos de</text>
<text transform="matrix(1 0 0 1 438.1814 90)" class="st5 st4">usuario</text>
<g transform="translate(-606,-454) scale(1,1)">
	<path class="st7" d="M1284.5,599.5l16-51l-82-48"/>
</g>
<g transform="translate(-606,-454) scale(1,1)">
	<path class="st2" d="M1229.4,502l-10.9-1.5l6.6,8.8"/>
</g>
<text transform="matrix(1 0 0 1 698.6914 65)" class="st5 st4">+modifica view</text>
<g transform="translate(-606,-454) scale(1,1)">
	<path class="st7" d="M888.5,955.5l2-42"/>
</g>
<g transform="translate(-606,-454) scale(1,1)">
	<rect x="1275.5" y="663.5" class="st0" width="271.1" height="44"/>
</g>
<g transform="translate(-606,-454) scale(1,1)">
	<rect x="1268.5" y="656.5" class="st1" width="271.1" height="44"/>
</g>
<g transform="translate(-606,-454) scale(1,1)">
	<path class="st2" d="M1268.5,656.5h271.1v44h-271.1V656.5z"/>
</g>
<g transform="translate(-606,-454) scale(1,1)">
	<path class="st2" d="M1268.5,681.5h271.1"/>
</g>
<g transform="translate(-606,-454) scale(1,1)">
	<path class="st2" d="M1268.5,691.5h271.1"/>
</g>
<text transform="matrix(1 0 0 1 677.353 222)" class="st3 st4">SingleObjectiveRunningWindowController</text>
<g transform="translate(-606,-454) scale(1,1)">
	<path class="st2" d="M1075.5,684.5l192-3"/>
</g>
<g transform="translate(-606,-454) scale(1,1)">
	<path class="st2" d="M1257.4,685.9l10.1-4.4l-10.2-4.1"/>
</g>
<text transform="matrix(1 0 0 1 550 220)" class="st5 st4">+usa</text>
<g transform="translate(-606,-454) scale(1,1)">
	<path class="st2" d="M1403.5,701.5l1,26"/>
</g>
<g transform="translate(-606,-454) scale(1,1)">
	<path class="st2" d="M1399.9,717.5l4.6,10l3.8-10.3"/>
</g>
<text transform="matrix(1 0 0 1 805 265)" class="st5 st4">+crea</text>
<g transform="translate(-606,-454) scale(1,1)">
	<rect x="1331.5" y="735.5" class="st0" width="160.5" height="44"/>
</g>
<g transform="translate(-606,-454) scale(1,1)">
	<rect x="1324.5" y="728.5" class="st1" width="160.5" height="44"/>
</g>
<g transform="translate(-606,-454) scale(1,1)">
	<path class="st2" d="M1324.5,728.5H1485v44h-160.5V728.5z"/>
</g>
<g transform="translate(-606,-454) scale(1,1)">
	<path class="st2" d="M1324.5,753.5H1485"/>
</g>
<g transform="translate(-606,-454) scale(1,1)">
	<path class="st2" d="M1324.5,763.5H1485"/>
</g>
<text transform="matrix(1 0 0 1 752.1707 294)" class="st3 st4">ResultController</text>
<g transform="translate(-606,-454) scale(1,1)">
	<rect x="1539.5" y="739.5" class="st0" width="135.4" height="44"/>
</g>
<g transform="translate(-606,-454) scale(1,1)">
	<rect x="1532.5" y="732.5" class="st1" width="135.4" height="44"/>
</g>
<g transform="translate(-606,-454) scale(1,1)">
	<path class="st2" d="M1532.5,732.5h135.4v44h-135.4V732.5z"/>
</g>
<g transform="translate(-606,-454) scale(1,1)">
	<path class="st2" d="M1532.5,757.5h135.4"/>
</g>
<g transform="translate(-606,-454) scale(1,1)">
	<path class="st2" d="M1532.5,767.5h135.4"/>
</g>
<text transform="matrix(1 0 0 1 936.3955 298)" class="st3 st4">ResultPlotController</text>
<g transform="translate(-606,-454) scale(1,1)">
	<path class="st2" d="M1462.5,701.5l78,30"/>
</g>
<g transform="translate(-606,-454) scale(1,1)">
	<path class="st2" d="M1529.5,731.8l11-0.3l-8-7.6"/>
</g>
<text transform="matrix(1 0 0 1 917 267)" class="st5 st4">+crea</text>
<g transform="translate(-606,-454) scale(1,1)">
	<rect x="1275.5" y="827.5" class="st0" width="266.7" height="44"/>
</g>
<g transform="translate(-606,-454) scale(1,1)">
	<rect x="1268.5" y="820.5" class="st1" width="266.7" height="44"/>
</g>
<g transform="translate(-606,-454) scale(1,1)">
	<path class="st2" d="M1268.5,820.5h266.7v44h-266.7V820.5z"/>
</g>
<g transform="translate(-606,-454) scale(1,1)">
	<path class="st2" d="M1268.5,845.5h266.7"/>
</g>
<g transform="translate(-606,-454) scale(1,1)">
	<path class="st2" d="M1268.5,855.5h266.7"/>
</g>
<text transform="matrix(1 0 0 1 676.9849 386)" class="st3 st4">MonoObjectiveRunningWindowController</text>
<g transform="translate(-606,-454) scale(1,1)">
	<path class="st2" d="M1058.5,709.5l284,110"/>
</g>
<g transform="translate(-606,-454) scale(1,1)">
	<path class="st2" d="M1331.5,819.8l11-0.3l-8-7.6"/>
</g>
<text transform="matrix(1 0 0 1 552 319)" class="st5 st4">+usa</text>
<g transform="translate(-606,-454) scale(1,1)">
	<path class="st2" d="M1402.5,819.5l1-46"/>
</g>
<g transform="translate(-606,-454) scale(1,1)">
	<path class="st2" d="M1407.5,783.8l-4-10.3l-4.4,10.1"/>
</g>
<text transform="matrix(1 0 0 1 804 353)" class="st5 st4">+crea</text>
<g transform="translate(-606,-454) scale(1,1)">
	<path class="st2" d="M1453.5,819.5l94-42"/>
</g>
<g transform="translate(-606,-454) scale(1,1)">
	<path class="st2" d="M1539.9,785.5l7.6-8l-11,0.3"/>
</g>
<text transform="matrix(1 0 0 1 906 360)" class="st5 st4">+crea</text>
<g transform="translate(-606,-454) scale(1,1)">
	<rect x="675.5" y="1083.5" class="st0" width="419.2" height="15"/>
</g>
<g transform="translate(-606,-454) scale(1,1)">
	<rect x="675.5" y="1097.5" class="st0" width="1048" height="562"/>
</g>
<g transform="translate(-606,-454) scale(1,1)">
	<rect x="668.5" y="1091.5" class="st1" width="1048" height="561"/>
</g>
<g transform="translate(-606,-454) scale(1,1)">
	<path class="st2" d="M668.5,1091.5h1048v561h-1048V1091.5z"/>
</g>
<g transform="translate(-606,-454) scale(1,1)">
	<rect x="668.5" y="1076.5" class="st1" width="419.2" height="15"/>
</g>
<g transform="translate(-606,-454) scale(1,1)">
	<path class="st2" d="M668.5,1076.5h419.2v15H668.5V1076.5z"/>
</g>
<g transform="translate(-606,-454) scale(1,1)">
	<rect x="668.5" y="1090.5" class="st1" width="1048" height="562"/>
</g>
<g transform="translate(-606,-454) scale(1,1)">
	<path class="st2" d="M668.5,1090.5h1048v562h-1048V1090.5z"/>
</g>
<text transform="matrix(1 0 0 1 568.7964 657)" class="st3 st4">Model</text>
<g transform="translate(-606,-454) scale(1,1)">
	<rect x="715.5" y="1123.5" class="st0" width="259.2" height="15"/>
</g>
<g transform="translate(-606,-454) scale(1,1)">
	<rect x="715.5" y="1137.5" class="st0" width="648" height="490"/>
</g>
<g transform="translate(-606,-454) scale(1,1)">
	<rect x="708.5" y="1131.5" class="st1" width="648" height="489"/>
</g>
<g transform="translate(-606,-454) scale(1,1)">
	<path class="st2" d="M708.5,1131.5h648v489h-648V1131.5z"/>
</g>
<g transform="translate(-606,-454) scale(1,1)">
	<rect x="708.5" y="1116.5" class="st1" width="259.2" height="15"/>
</g>
<g transform="translate(-606,-454) scale(1,1)">
	<path class="st2" d="M708.5,1116.5h259.2v15H708.5V1116.5z"/>
</g>
<g transform="translate(-606,-454) scale(1,1)">
	<rect x="708.5" y="1130.5" class="st1" width="648" height="490"/>
</g>
<g transform="translate(-606,-454) scale(1,1)">
	<path class="st2" d="M708.5,1130.5h648v490h-648V1130.5z"/>
</g>
<text transform="matrix(1 0 0 1 384.5959 697)" class="st3 st4">Metaheuristics</text>
<g transform="translate(-606,-454) scale(1,1)">
	<rect x="1451.5" y="1355.5" class="st0" width="96" height="15"/>
</g>
<g transform="translate(-606,-454) scale(1,1)">
	<rect x="1451.5" y="1369.5" class="st0" width="240" height="242"/>
</g>
<g transform="translate(-606,-454) scale(1,1)">
	<rect x="1444.5" y="1363.5" class="st1" width="240" height="241"/>
</g>
<g transform="translate(-606,-454) scale(1,1)">
	<path class="st2" d="M1444.5,1363.5h240v241h-240V1363.5z"/>
</g>
<g transform="translate(-606,-454) scale(1,1)">
	<rect x="1444.5" y="1348.5" class="st1" width="96" height="15"/>
</g>
<g transform="translate(-606,-454) scale(1,1)">
	<path class="st2" d="M1444.5,1348.5h96v15h-96V1348.5z"/>
</g>
<g transform="translate(-606,-454) scale(1,1)">
	<rect x="1444.5" y="1362.5" class="st1" width="240" height="242"/>
</g>
<g transform="translate(-606,-454) scale(1,1)">
	<path class="st2" d="M1444.5,1362.5h240v242h-240V1362.5z"/>
</g>
<text transform="matrix(1 0 0 1 937.8987 929)" class="st3 st4">Epanet</text>
<g transform="translate(-606,-454) scale(1,1)">
	<path class="st1" d="M1436.5,1100.5h181l10,10v181h-191V1100.5"/>
</g>
<g transform="translate(-606,-454) scale(1,1)">
	<path class="st2" d="M1436.5,1100.5h181l10,10v181h-191V1100.5L1436.5,1100.5"/>
</g>
<g transform="translate(-606,-454) scale(1,1)">
	<path class="st2" d="M1617.5,1100.5v10h10L1617.5,1100.5"/>
</g>
<text transform="matrix(1 0 0 1 835.5 666.5)" class="st5 st6">Esta clase es tambien la</text>
<text transform="matrix(1 0 0 1 835.5 681.5)" class="st5 st6">que es creada y leida para</text>
<text transform="matrix(1 0 0 1 835.5 696.5)" class="st5 st6">mostrar la red en la</text>
<text transform="matrix(1 0 0 1 835.5 711.5)" class="st5 st6">interfaz. El unico fin de</text>
<text transform="matrix(1 0 0 1 835.5 726.5)" class="st5 st6">modificar un objeto</text>
<text transform="matrix(1 0 0 1 835.5 741.5)" class="st5 st6">Network es para poder</text>
<text transform="matrix(1 0 0 1 835.5 756.5)" class="st5 st6">posteriormente guardar las</text>
<text transform="matrix(1 0 0 1 835.5 771.5)" class="st5 st6">configuraciones en un</text>
<text transform="matrix(1 0 0 1 835.5 786.5)" class="st5 st6">inp.La simulación a traves</text>
<text transform="matrix(1 0 0 1 835.5 801.5)" class="st5 st6">de la EpanetToolkit no</text>
<text transform="matrix(1 0 0 1 835.5 816.5)" class="st5 st6">ocupa esta red, ocupa el</text>
<text transform="matrix(1 0 0 1 835.5 831.5)" class="st5 st6">inp.</text>
<g transform="translate(-606,-454) scale(1,1)">
	<path class="st2" d="M1585.5,1444.5l-37,31"/>
</g>
<g transform="translate(-606,-454) scale(1,1)">
	<path class="st2" d="M1553.6,1465.7l-5.1,9.8l10.5-3.3"/>
</g>
<text transform="matrix(1 0 0 1 964 1019)" class="st5 st4">+carga</text>
<g transform="translate(-606,-454) scale(1,1)">
	<path class="st2" d="M1587.5,1541.5l-30-14"/>
</g>
<g transform="translate(-606,-454) scale(1,1)">
	<path class="st2" d="M1568.5,1528l-11-0.5l7.4,8.1"/>
</g>
<text transform="matrix(1 0 0 1 925 1107)" class="st5 st4">+guarda</text>
<g transform="translate(-606,-454) scale(1,1)">
	<rect x="1475.5" y="1483.5" class="st0" width="88.5" height="59"/>
</g>
<g transform="translate(-606,-454) scale(1,1)">
	<rect x="1468.5" y="1476.5" class="st1" width="88.5" height="59"/>
</g>
<g transform="translate(-606,-454) scale(1,1)">
	<path class="st2" d="M1468.5,1476.5h88.5v59h-88.5V1476.5z"/>
</g>
<g transform="translate(-606,-454) scale(1,1)">
	<path class="st2" d="M1468.5,1516.5h88.5"/>
</g>
<g transform="translate(-606,-454) scale(1,1)">
	<path class="st2" d="M1468.5,1526.5h88.5"/>
</g>
<text transform="matrix(1 0 0 1 882.8977 1042)" class="st3 st4">Network</text>
<text transform="matrix(1 0 0 1 867 1057)" class="st5 st4">(from Epanet)</text>
<g transform="translate(-606,-454) scale(1,1)">
	<rect x="899.5" y="1387.5" class="st0" width="131.1" height="59"/>
</g>
<g transform="translate(-606,-454) scale(1,1)">
	<rect x="892.5" y="1380.5" class="st1" width="131.1" height="59"/>
</g>
<g transform="translate(-606,-454) scale(1,1)">
	<path class="st2" d="M892.5,1380.5h131.1v59H892.5V1380.5z"/>
</g>
<g transform="translate(-606,-454) scale(1,1)">
	<path class="st2" d="M892.5,1420.5h131.1"/>
</g>
<g transform="translate(-606,-454) scale(1,1)">
	<path class="st2" d="M892.5,1430.5h131.1"/>
</g>
<text transform="matrix(1 0 0 1 324.5854 946)" class="st3 st4">Algorithm</text>
<text transform="matrix(1 0 0 1 291 961)" class="st5 st4">(from Metaheuristics)</text>
<g transform="translate(-606,-454) scale(1,1)">
	<rect x="731.5" y="1469.5" class="st0" width="151.1" height="59"/>
</g>
<g transform="translate(-606,-454) scale(1,1)">
	<rect x="854.4" y="1451.5" class="st0" width="37.2" height="22"/>
</g>
<g transform="translate(-606,-454) scale(1,1)">
	<rect x="724.5" y="1462.5" class="st1" width="151.1" height="59"/>
</g>
<g transform="translate(-606,-454) scale(1,1)">
	<path class="st2" d="M724.5,1462.5h151.1v59H724.5V1462.5z"/>
</g>
<g transform="translate(-606,-454) scale(1,1)">
	<path class="st2" d="M724.5,1502.5h151.1"/>
</g>
<g transform="translate(-606,-454) scale(1,1)">
	<path class="st2" d="M724.5,1512.5h151.1"/>
</g>
<text transform="matrix(1 0 0 1 170.5496 1028)" class="st3 st4">Solution</text>
<text transform="matrix(1 0 0 1 133 1043)" class="st5 st4">(from Metaheuristics)</text>
<g transform="translate(-606,-454) scale(1,1)">
	<rect x="847.4" y="1444.5" class="st1" width="37.2" height="22"/>
</g>
<g transform="translate(-606,-454) scale(1,1)">
	<path class="st7" d="M847.4,1444.5h37.2v22h-37.2V1444.5z"/>
</g>
<text transform="matrix(1 0 0 1 246.3945 1008)" class="st5 st4">Type</text>
<g transform="translate(-606,-454) scale(1,1)">
	<path class="st2" d="M1294.5,1506.5l173-1"/>
</g>
<g transform="translate(-606,-454) scale(1,1)">
	<path class="st2" d="M1457.4,1509.8l10.1-4.3l-10.2-4.2"/>
</g>
<text transform="matrix(1 0 0 1 766 1043)" class="st5 st4">+Modifica</text>
<g transform="translate(-606,-454) scale(1,1)">
	<rect x="1139.5" y="1493.5" class="st0" width="151.1" height="59"/>
</g>
<g transform="translate(-606,-454) scale(1,1)">
	<rect x="1243.6" y="1475.5" class="st0" width="56" height="22"/>
</g>
<g transform="translate(-606,-454) scale(1,1)">
	<rect x="1132.5" y="1486.5" class="st1" width="151.1" height="59"/>
</g>
<g transform="translate(-606,-454) scale(1,1)">
	<path class="st2" d="M1132.5,1486.5h151.1v59h-151.1V1486.5z"/>
</g>
<g transform="translate(-606,-454) scale(1,1)">
	<path class="st2" d="M1132.5,1526.5h151.1"/>
</g>
<g transform="translate(-606,-454) scale(1,1)">
	<path class="st2" d="M1132.5,1536.5h151.1"/>
</g>
<text transform="matrix(1 0 0 1 577.8354 1052)" class="st3 st4">Problem</text>
<text transform="matrix(1 0 0 1 541 1067)" class="st5 st4">(from Metaheuristics)</text>
<g transform="translate(-606,-454) scale(1,1)">
	<rect x="1236.6" y="1468.5" class="st1" width="56" height="22"/>
</g>
<g transform="translate(-606,-454) scale(1,1)">
	<path class="st7" d="M1236.6,1468.5h56v22h-56V1468.5z"/>
</g>
<text transform="matrix(1 0 0 1 635.5991 1032)" class="st5 st4">Solution</text>
<g transform="translate(-606,-454) scale(1,1)">
	<path class="st2" d="M876.5,1570.5h-64v-49"/>
</g>
<g transform="translate(-606,-454) scale(1,1)">
	<path class="st2" d="M816.7,1531.7l-4.2-10.2l-4.2,10.2"/>
</g>
<text transform="matrix(1 0 0 1 189 1135)" class="st5 st4">+manipula</text>
<g transform="translate(-606,-454) scale(1,1)">
	<path class="st2" d="M957.5,1440.5l-1,67"/>
</g>
<g transform="translate(-606,-454) scale(1,1)">
	<path class="st2" d="M952.4,1497.3l4.1,10.2l4.4-10.1"/>
</g>
<text transform="matrix(1 0 0 1 350 1025)" class="st5 st4">+usa</text>
<g transform="translate(-606,-454) scale(1,1)">
	<rect x="883.5" y="1548.5" class="st0" width="151.1" height="59"/>
</g>
<g transform="translate(-606,-454) scale(1,1)">
	<rect x="997.7" y="1515.5" class="st0" width="45.8" height="37"/>
</g>
<g transform="translate(-606,-454) scale(1,1)">
	<rect x="876.5" y="1541.5" class="st1" width="151.1" height="59"/>
</g>
<g transform="translate(-606,-454) scale(1,1)">
	<path class="st2" d="M876.5,1541.5h151.1v59H876.5V1541.5z"/>
</g>
<g transform="translate(-606,-454) scale(1,1)">
	<path class="st2" d="M876.5,1581.5h151.1"/>
</g>
<g transform="translate(-606,-454) scale(1,1)">
	<path class="st2" d="M876.5,1591.5h151.1"/>
</g>
<text transform="matrix(1 0 0 1 320.3882 1107)" class="st3 st4">Operator</text>
<text transform="matrix(1 0 0 1 285 1122)" class="st5 st4">(from Metaheuristics)</text>
<g transform="translate(-606,-454) scale(1,1)">
	<rect x="990.7" y="1508.5" class="st1" width="45.8" height="37"/>
</g>
<g transform="translate(-606,-454) scale(1,1)">
	<path class="st7" d="M990.7,1508.5h45.8v37h-45.8V1508.5z"/>
</g>
<text transform="matrix(1 0 0 1 389.73 1072)" class="st5 st4">Input</text>
<text transform="matrix(1 0 0 1 389.73 1087)" class="st5 st4">Result</text>
<g transform="translate(-606,-454) scale(1,1)">
	<rect x="1099.5" y="1213.5" class="st0" width="238" height="74"/>
</g>
<g transform="translate(-606,-454) scale(1,1)">
	<rect x="1252.2" y="1195.5" class="st0" width="94.3" height="22"/>
</g>
<g transform="translate(-606,-454) scale(1,1)">
	<rect x="1092.5" y="1206.5" class="st1" width="238" height="74"/>
</g>
<g transform="translate(-606,-454) scale(1,1)">
	<path class="st2" d="M1092.5,1206.5h238v74h-238V1206.5z"/>
</g>
<g transform="translate(-606,-454) scale(1,1)">
	<path class="st2" d="M1092.5,1246.5h238"/>
</g>
<g transform="translate(-606,-454) scale(1,1)">
	<path class="st2" d="M1092.5,1256.5h238"/>
</g>
<text transform="matrix(1 0 0 1 572.6255 772)" class="st3 st4">Experiment</text>
<text transform="matrix(1 0 0 1 553.4905 787)" class="st5 st4">(from Experiment)</text>
<g transform="translate(-606,-454) scale(1,1)">
	<rect x="1245.2" y="1188.5" class="st1" width="94.3" height="22"/>
</g>
<g transform="translate(-606,-454) scale(1,1)">
	<path class="st7" d="M1245.2,1188.5h94.3v22h-94.3V1188.5z"/>
</g>
<text transform="matrix(1 0 0 1 644.2129 752)" class="st5 st4">S: Solution&lt;?&gt;</text>
<g transform="translate(-606,-454) scale(1,1)">
	<rect x="875.5" y="1229.5" class="st0" width="161.2" height="59"/>
</g>
<g transform="translate(-606,-454) scale(1,1)">
	<rect x="951.4" y="1211.5" class="st0" width="94.3" height="22"/>
</g>
<g transform="translate(-606,-454) scale(1,1)">
	<rect x="868.5" y="1222.5" class="st1" width="161.2" height="59"/>
</g>
<g transform="translate(-606,-454) scale(1,1)">
	<path class="st2" d="M868.5,1222.5h161.2v59H868.5V1222.5z"/>
</g>
<g transform="translate(-606,-454) scale(1,1)">
	<path class="st2" d="M868.5,1262.5h161.2"/>
</g>
<g transform="translate(-606,-454) scale(1,1)">
	<path class="st2" d="M868.5,1272.5h161.2"/>
</g>
<text transform="matrix(1 0 0 1 282.7637 788)" class="st3 st4">ExperimentAlgorithm</text>
<text transform="matrix(1 0 0 1 291.0823 803)" class="st5 st4">(from Experiment)</text>
<g transform="translate(-606,-454) scale(1,1)">
	<rect x="944.4" y="1204.5" class="st1" width="94.3" height="22"/>
</g>
<g transform="translate(-606,-454) scale(1,1)">
	<path class="st7" d="M944.4,1204.5h94.3v22h-94.3V1204.5z"/>
</g>
<text transform="matrix(1 0 0 1 343.3965 768)" class="st5 st4">S: Solution&lt;?&gt;</text>
<g transform="translate(-606,-454) scale(1,1)">
	<path class="st2" d="M1040.5,1239.5l51-1"/>
</g>
<g transform="translate(-606,-454) scale(1,1)">
	<path d="M1081.4,1242.9l10.1-4.4l-10.2-4l-11.8,4.4"/>
</g>
<g transform="translate(-606,-454) scale(1,1)">
	<path class="st2" d="M1081.4,1242.9l10.1-4.4l-10.2-4l-11.8,4.4L1081.4,1242.9"/>
</g>
<text transform="matrix(1 0 0 1 452.7205 804)" class="st5 st4">*</text>
<g transform="translate(-606,-454) scale(1,1)">
	<path class="st2" d="M1218.5,1315.5l-1-34"/>
</g>
<g transform="translate(-606,-454) scale(1,1)">
	<path d="M1222,1291.5l-4.5-10l-3.9,10.3l4.6,11.7"/>
</g>
<g transform="translate(-606,-454) scale(1,1)">
	<path class="st2" d="M1222,1291.5l-4.5-10l-3.9,10.3l4.6,11.7L1222,1291.5"/>
</g>
<text transform="matrix(1 0 0 1 620 845)" class="st5 st4">1</text>
<g transform="translate(-606,-454) scale(1,1)">
	<rect x="1131.5" y="1341.5" class="st0" width="180" height="60"/>
</g>
<g transform="translate(-606,-454) scale(1,1)">
	<rect x="1226.2" y="1323.5" class="st0" width="94.3" height="22"/>
</g>
<g transform="translate(-606,-454) scale(1,1)">
	<rect x="1124.5" y="1334.5" class="st1" width="180" height="60"/>
</g>
<g transform="translate(-606,-454) scale(1,1)">
	<path class="st2" d="M1124.5,1334.5h180v60h-180V1334.5z"/>
</g>
<g transform="translate(-606,-454) scale(1,1)">
	<path class="st2" d="M1124.5,1374.5h180"/>
</g>
<g transform="translate(-606,-454) scale(1,1)">
	<path class="st2" d="M1124.5,1384.5h180"/>
</g>
<text transform="matrix(1 0 0 1 551.4219 900)" class="st3 st4">ExperimentProblem</text>
<text transform="matrix(1 0 0 1 547.4609 915)" class="st5 st4">(from Metaheuristics)</text>
<g transform="translate(-606,-454) scale(1,1)">
	<rect x="1219.2" y="1316.5" class="st1" width="94.3" height="22"/>
</g>
<g transform="translate(-606,-454) scale(1,1)">
	<path class="st7" d="M1219.2,1316.5h94.3v22h-94.3V1316.5z"/>
</g>
<text transform="matrix(1 0 0 1 618.2129 880)" class="st5 st4">S: Solution&lt;?&gt;</text>
<g transform="translate(-606,-454) scale(1,1)">
	<path class="st2" d="M956.5,1379.5l-2-97"/>
</g>
<g transform="translate(-606,-454) scale(1,1)">
	<path d="M958.9,1292.6l-4.4-10.1l-4,10.2l4.5,11.7"/>
</g>
<g transform="translate(-606,-454) scale(1,1)">
	<path class="st2" d="M958.9,1292.6l-4.4-10.1l-4,10.2l4.5,11.7L958.9,1292.6"/>
</g>
<text transform="matrix(1 0 0 1 277 883)" class="st5 st4">+contiene</text>
<text transform="matrix(1 0 0 1 359.7205 910)" class="st5 st4">*</text>
<g transform="translate(-606,-454) scale(1,1)">
	<path class="st2" d="M1214.5,1467.5l3-72"/>
</g>
<g transform="translate(-606,-454) scale(1,1)">
	<path d="M1221.3,1405.8l-3.8-10.3l-4.6,10l3.7,12"/>
</g>
<g transform="translate(-606,-454) scale(1,1)">
	<path class="st2" d="M1221.3,1405.8l-3.8-10.3l-4.6,10l3.7,12L1221.3,1405.8"/>
</g>
<g transform="translate(-606,-454) scale(1,1)">
	<path class="st7" d="M1524.5,1476.5v-184"/>
</g>
<g transform="translate(-606,-454) scale(1,1)">
	<path class="st0" d="M1620.2,1399c0-6.4,5.1-11.5,11.5-11.5s11.5,5.1,11.5,11.5s-5.1,11.5-11.5,11.5S1620.2,1405.4,1620.2,1399z"/>
</g>
<g transform="translate(-606,-454) scale(1,1)">
	<path class="st1" d="M1613.2,1392c0-6.4,5.1-11.5,11.5-11.5s11.5,5.1,11.5,11.5s-5.1,11.5-11.5,11.5S1613.2,1398.4,1613.2,1392z"/>
</g>
<g transform="translate(-606,-454) scale(1,1)">
	<path class="st2" d="M1613.2,1392c0-6.4,5.1-11.5,11.5-11.5s11.5,5.1,11.5,11.5s-5.1,11.5-11.5,11.5S1613.2,1398.4,1613.2,1392z"/>
</g>
<text transform="matrix(1 0 0 1 985.135 969)" class="st3 st4">InputParser</text>
<text transform="matrix(1 0 0 1 979 984)" class="st5 st4">(from Epanet)</text>
<g transform="translate(-606,-454) scale(1,1)">
	<path class="st0" d="M1628.5,1551c0-6.4,5.1-11.5,11.5-11.5s11.5,5.1,11.5,11.5s-5.1,11.5-11.5,11.5S1628.5,1557.4,1628.5,1551z"/>
</g>
<g transform="translate(-606,-454) scale(1,1)">
	<path class="st1" d="M1621.5,1544c0-6.4,5.1-11.5,11.5-11.5s11.5,5.1,11.5,11.5s-5.1,11.5-11.5,11.5S1621.5,1550.4,1621.5,1544z"/>
</g>
<g transform="translate(-606,-454) scale(1,1)">
	<path class="st2" d="M1621.5,1544c0-6.4,5.1-11.5,11.5-11.5s11.5,5.1,11.5,11.5s-5.1,11.5-11.5,11.5S1621.5,1550.4,1621.5,1544z"/>
</g>
<text transform="matrix(1 0 0 1 990.2341 1121)" class="st3 st4">OutputWriter</text>
<text transform="matrix(1 0 0 1 987.2222 1136)" class="st5 st4">(from Epanet)</text>
<g transform="translate(-606,-454) scale(1,1)">
	<path class="st2" d="M1220.5,937.5v251"/>
</g>
<g transform="translate(-606,-454) scale(1,1)">
	<path class="st2" d="M1216.3,1178.3l4.2,10.2l4.2-10.2"/>
</g>
<text transform="matrix(1 0 0 1 646 587)" class="st5 st4">+construye</text>
<g transform="translate(-606,-454) scale(1,1)">
	<path class="st2" d="M892.5,1409.5h-88v35"/>
</g>
<g transform="translate(-606,-454) scale(1,1)">
	<path class="st2" d="M800.3,1434.3l4.2,10.2l4.2-10.2"/>
</g>
<text transform="matrix(1 0 0 1 213 944)" class="st5 st4">+genera</text>
<g transform="translate(-606,-454) scale(1,1)">
	<path class="st2" d="M1023.5,1439.5h125v29"/>
</g>
<g transform="translate(-606,-454) scale(1,1)">
	<path class="st2" d="M1144.3,1458.3l4.2,10.2l4.2-10.2"/>
</g>
<text transform="matrix(1 0 0 1 421 970)" class="st5 st4">+resuelve</text>
<g transform="translate(-606,-454) scale(1,1)">
	<path class="st1" d="M612.5,956.5h533l10,10v94h-543V956.5"/>
</g>
<g transform="translate(-606,-454) scale(1,1)">
	<path class="st2" d="M612.5,956.5h533l10,10v94h-543V956.5L612.5,956.5"/>
</g>
<g transform="translate(-606,-454) scale(1,1)">
	<path class="st2" d="M1145.5,956.5v10h10L1145.5,956.5"/>
</g>
<text transform="matrix(1 0 0 1 11.5 522.5)" class="st5 st6">+ Crea una GUI leyendo las anotaciones de la clase que hereda de Registrable.</text>
<text transform="matrix(1 0 0 1 11.5 537.5)" class="st5 st6">La lectura de las anotaciones se realiza a través de la API de reflexiones de</text>
<text transform="matrix(1 0 0 1 11.5 552.5)" class="st5 st6">java. Esta GUI permite configurar los parámetros del algoritmo.</text>
<text transform="matrix(1 0 0 1 11.5 571.5)" class="st5 st6">+ Cuando se terminan de configurar los parámetros en la GUI, se crea un</text>
<text transform="matrix(1 0 0 1 11.5 586.5)" class="st5 st6">objeto de la clase Registrable, a través de Reflection, injectando en su</text>
<text transform="matrix(1 0 0 1 11.5 601.5)" class="st5 st6">constructor los parametros.</text>
</svg>
