<svg version="1.1" xmlns="http://www.w3.org/2000/svg" xmlns:xlink="http://www.w3.org/1999/xlink" width="1750.94970703125" height="575"><defs/><g><g transform="translate(-190,-366) scale(1,1)"><rect fill="#C0C0C0" stroke="none" x="255" y="383" width="388.22802734375" height="162" opacity="0.2"/></g><g transform="translate(-190,-366) scale(1,1)"><rect fill="#ffffff" stroke="none" x="248" y="376" width="388.22802734375" height="162"/></g><g transform="translate(-190,-366) scale(1,1)"><path fill="none" stroke="#000000" d="M 248 376 L 636.22802734375 376 L 636.22802734375 538 L 248 538 L 248 376 Z Z" stroke-miterlimit="10"/></g><g transform="translate(-190,-366) scale(1,1)"><path fill="none" stroke="#000000" d="M 248 431 L 636.22802734375 431" stroke-miterlimit="10"/></g><g transform="translate(-190,-366) scale(1,1)"><path fill="none" stroke="#000000" d="M 248 441 L 636.22802734375 441" stroke-miterlimit="10"/></g><g transform="translate(-190,-366) scale(1,1)"><g><path fill="none" stroke="none"/><text fill="#000000" stroke="none" font-family="Arial" font-size="13px" font-style="normal" font-weight="bold" text-decoration="none" x="384.674072265625" y="395.5">HydraulicSimulation</text></g></g><g transform="translate(-190,-366) scale(1,1)"><g><path fill="none" stroke="none"/><text fill="#000000" stroke="none" font-family="Arial" font-size="13px" font-style="normal" font-weight="normal" text-decoration="none" x="367.70361328125" y="410.5">(from hydraulicsimulation)</text></g></g><g transform="translate(-190,-366) scale(1,1)"><g><path fill="none" stroke="none"/><text fill="#000000" stroke="none" font-family="Arial" font-size="13px" font-style="normal" font-weight="normal" text-decoration="none" x="601.58447265625" y="425.5">{leaf}</text></g></g><g transform="translate(-190,-366) scale(1,1)"><g><path fill="none" stroke="none"/><text fill="#000000" stroke="none" font-family="Arial" font-size="13px" font-style="normal" font-weight="normal" text-decoration="none" x="253" y="458.5">+run(inpPath: String): HydraulicSimulation</text><path fill="none" stroke="#000000" d="M 253 458.5 L 495.4169921875 458.5" stroke-miterlimit="10"/></g></g><g transform="translate(-190,-366) scale(1,1)"><g><path fill="none" stroke="none"/><text fill="#000000" stroke="none" font-family="Arial" font-size="13px" font-style="normal" font-weight="normal" text-decoration="none" x="253" y="473.5">+getNodeResultInTime(time: String): NodeSimulationResult[*]</text></g></g><g transform="translate(-190,-366) scale(1,1)"><g><path fill="none" stroke="none"/><text fill="#000000" stroke="none" font-family="Arial" font-size="13px" font-style="normal" font-weight="normal" text-decoration="none" x="253" y="488.5">+getLinkResultInTime(time: String): LinkSimulationResult[*]</text></g></g><g transform="translate(-190,-366) scale(1,1)"><g><path fill="none" stroke="none"/><text fill="#000000" stroke="none" font-family="Arial" font-size="13px" font-style="normal" font-weight="normal" text-decoration="none" x="253" y="503.5">+getTimes(): String[*]</text></g></g><g transform="translate(-190,-366) scale(1,1)"><g><path fill="none" stroke="none"/><text fill="#000000" stroke="none" font-family="Arial" font-size="13px" font-style="normal" font-weight="normal" text-decoration="none" x="253" y="518.5">+getTimeSeriesForNode(nodeId: String): NodeSimulationResult[*]</text></g></g><g transform="translate(-190,-366) scale(1,1)"><g><path fill="none" stroke="none"/><text fill="#000000" stroke="none" font-family="Arial" font-size="13px" font-style="normal" font-weight="normal" text-decoration="none" x="253" y="533.5">+getTimeSeriesForLink(linkId: String): LinkSimulationResult[*]</text></g></g><g transform="translate(-190,-366) scale(1,1)"><rect fill="#C0C0C0" stroke="none" x="207" y="791" width="789.787109375" height="147" opacity="0.2"/></g><g transform="translate(-190,-366) scale(1,1)"><rect fill="#ffffff" stroke="none" x="200" y="784" width="789.787109375" height="147"/></g><g transform="translate(-190,-366) scale(1,1)"><path fill="none" stroke="#000000" d="M 200 784 L 989.787109375 784 L 989.787109375 931 L 200 931 L 200 784 Z Z" stroke-miterlimit="10"/></g><g transform="translate(-190,-366) scale(1,1)"><path fill="none" stroke="#000000" d="M 200 839 L 989.787109375 839" stroke-miterlimit="10"/></g><g transform="translate(-190,-366) scale(1,1)"><path fill="none" stroke="#000000" d="M 200 849 L 989.787109375 849" stroke-miterlimit="10"/></g><g transform="translate(-190,-366) scale(1,1)"><g><path fill="none" stroke="none"/><text fill="#000000" stroke="none" font-family="Arial" font-size="13px" font-style="normal" font-weight="bold" text-decoration="none" x="534.197265625" y="803.5">LinkSimulationResult</text></g></g><g transform="translate(-190,-366) scale(1,1)"><g><path fill="none" stroke="none"/><text fill="#000000" stroke="none" font-family="Arial" font-size="13px" font-style="normal" font-weight="normal" text-decoration="none" x="520.483154296875" y="818.5">(from hydraulicsimulation)</text></g></g><g transform="translate(-190,-366) scale(1,1)"><g><path fill="none" stroke="none"/><text fill="#000000" stroke="none" font-family="Arial" font-size="13px" font-style="normal" font-weight="normal" text-decoration="none" x="955.1435546875" y="833.5">{leaf}</text></g></g><g transform="translate(-190,-366) scale(1,1)"><g><path fill="none" stroke="none"/><text fill="#000000" stroke="none" font-family="Arial" font-size="13px" font-style="normal" font-weight="normal" text-decoration="none" x="205" y="866.5">«constructor»+LinkSimulationResult(id: String, timeInSeconds: long, flow: double, velocity: double, unitHeadloss: double, status: Status)</text></g></g><g transform="translate(-190,-366) scale(1,1)"><g><path fill="none" stroke="none"/><text fill="#000000" stroke="none" font-family="Arial" font-size="13px" font-style="normal" font-weight="normal" text-decoration="none" x="205" y="881.5">+getFlow(): double</text></g></g><g transform="translate(-190,-366) scale(1,1)"><g><path fill="none" stroke="none"/><text fill="#000000" stroke="none" font-family="Arial" font-size="13px" font-style="normal" font-weight="normal" text-decoration="none" x="205" y="896.5">+getVelocity(): double</text></g></g><g transform="translate(-190,-366) scale(1,1)"><g><path fill="none" stroke="none"/><text fill="#000000" stroke="none" font-family="Arial" font-size="13px" font-style="normal" font-weight="normal" text-decoration="none" x="205" y="911.5">+getHeadloss(): double</text></g></g><g transform="translate(-190,-366) scale(1,1)"><g><path fill="none" stroke="none"/><text fill="#000000" stroke="none" font-family="Arial" font-size="13px" font-style="normal" font-weight="normal" text-decoration="none" x="205" y="926.5">+getStatus(): Status</text></g></g><g transform="translate(-190,-366) scale(1,1)"><rect fill="#C0C0C0" stroke="none" x="1151" y="775" width="786.94970703125" height="147" opacity="0.2"/></g><g transform="translate(-190,-366) scale(1,1)"><rect fill="#ffffff" stroke="none" x="1144" y="768" width="786.94970703125" height="147"/></g><g transform="translate(-190,-366) scale(1,1)"><path fill="none" stroke="#000000" d="M 1144 768 L 1930.94970703125 768 L 1930.94970703125 915 L 1144 915 L 1144 768 Z Z" stroke-miterlimit="10"/></g><g transform="translate(-190,-366) scale(1,1)"><path fill="none" stroke="#000000" d="M 1144 823 L 1930.94970703125 823" stroke-miterlimit="10"/></g><g transform="translate(-190,-366) scale(1,1)"><path fill="none" stroke="#000000" d="M 1144 833 L 1930.94970703125 833" stroke-miterlimit="10"/></g><g transform="translate(-190,-366) scale(1,1)"><g><path fill="none" stroke="none"/><text fill="#000000" stroke="none" font-family="Arial" font-size="13px" font-style="normal" font-weight="bold" text-decoration="none" x="1473.16357421875" y="787.5">NodeSimulationResult</text></g></g><g transform="translate(-190,-366) scale(1,1)"><g><path fill="none" stroke="none"/><text fill="#000000" stroke="none" font-family="Arial" font-size="13px" font-style="normal" font-weight="normal" text-decoration="none" x="1463.064453125" y="802.5">(from hydraulicsimulation)</text></g></g><g transform="translate(-190,-366) scale(1,1)"><g><path fill="none" stroke="none"/><text fill="#000000" stroke="none" font-family="Arial" font-size="13px" font-style="normal" font-weight="normal" text-decoration="none" x="1896.30615234375" y="817.5">{leaf}</text></g></g><g transform="translate(-190,-366) scale(1,1)"><g><path fill="none" stroke="none"/><text fill="#000000" stroke="none" font-family="Arial" font-size="13px" font-style="normal" font-weight="normal" text-decoration="none" x="1149" y="850.5">«constructor»+NodeSimulationResult(id: String, timeInSeconds: long, demand: double, head: double, pressure: double, quality: double)</text></g></g><g transform="translate(-190,-366) scale(1,1)"><g><path fill="none" stroke="none"/><text fill="#000000" stroke="none" font-family="Arial" font-size="13px" font-style="normal" font-weight="normal" text-decoration="none" x="1149" y="865.5">+getDemand(): double</text></g></g><g transform="translate(-190,-366) scale(1,1)"><g><path fill="none" stroke="none"/><text fill="#000000" stroke="none" font-family="Arial" font-size="13px" font-style="normal" font-weight="normal" text-decoration="none" x="1149" y="880.5">+getHead(): double</text></g></g><g transform="translate(-190,-366) scale(1,1)"><g><path fill="none" stroke="none"/><text fill="#000000" stroke="none" font-family="Arial" font-size="13px" font-style="normal" font-weight="normal" text-decoration="none" x="1149" y="895.5">+getPressure(): double</text></g></g><g transform="translate(-190,-366) scale(1,1)"><g><path fill="none" stroke="none"/><text fill="#000000" stroke="none" font-family="Arial" font-size="13px" font-style="normal" font-weight="normal" text-decoration="none" x="1149" y="910.5">+getQuality(): double</text></g></g><g transform="translate(-190,-366) scale(1,1)"><rect fill="#C0C0C0" stroke="none" x="951" y="415" width="164.9619140625" height="102" opacity="0.2"/></g><g transform="translate(-190,-366) scale(1,1)"><rect fill="#ffffff" stroke="none" x="944" y="408" width="164.9619140625" height="102"/></g><g transform="translate(-190,-366) scale(1,1)"><path fill="none" stroke="#000000" d="M 944 408 L 1108.9619140625 408 L 1108.9619140625 510 L 944 510 L 944 408 Z Z" stroke-miterlimit="10"/></g><g transform="translate(-190,-366) scale(1,1)"><path fill="none" stroke="#000000" d="M 944 448 L 1108.9619140625 448" stroke-miterlimit="10"/></g><g transform="translate(-190,-366) scale(1,1)"><path fill="none" stroke="#000000" d="M 944 458 L 1108.9619140625 458" stroke-miterlimit="10"/></g><g transform="translate(-190,-366) scale(1,1)"><g><path fill="none" stroke="none"/><text fill="#000000" stroke="none" font-family="Arial" font-size="13px" font-style="italic" font-weight="bold" text-decoration="none" x="977.708740234375" y="427.5">ResultSimulation</text></g></g><g transform="translate(-190,-366) scale(1,1)"><g><path fill="none" stroke="none"/><text fill="#000000" stroke="none" font-family="Arial" font-size="13px" font-style="normal" font-weight="normal" text-decoration="none" x="952.070556640625" y="442.5">(from hydraulicsimulation)</text></g></g><g transform="translate(-190,-366) scale(1,1)"><g><path fill="none" stroke="none"/><text fill="#000000" stroke="none" font-family="Arial" font-size="13px" font-style="normal" font-weight="normal" text-decoration="none" x="949" y="475.5">+getId(): String</text></g></g><g transform="translate(-190,-366) scale(1,1)"><g><path fill="none" stroke="none"/><text fill="#000000" stroke="none" font-family="Arial" font-size="13px" font-style="normal" font-weight="normal" text-decoration="none" x="949" y="490.5">+getTimeInSeconds(): long</text></g></g><g transform="translate(-190,-366) scale(1,1)"><g><path fill="none" stroke="none"/><text fill="#000000" stroke="none" font-family="Arial" font-size="13px" font-style="normal" font-weight="normal" text-decoration="none" x="949" y="505.5">+getTimeString(): String</text></g></g><g transform="translate(-190,-366) scale(1,1)"><path fill="none" stroke="#000000" d="M 674 783 L 970 511" stroke-miterlimit="10"/></g><g transform="translate(-190,-366) scale(1,1)"><path fill="#FFFFFF" stroke="none" d="M 960.7304179750008 530.9518131777994 L 970 511 L 949.337353296369 518.5534780863472"/></g><g transform="translate(-190,-366) scale(1,1)"><path fill="none" stroke="#000000" d="M 960.7304179750008 530.9518131777994 L 970 511 L 949.337353296369 518.5534780863472 L 960.7304179750008 530.9518131777994" stroke-miterlimit="10"/></g><g transform="translate(-190,-366) scale(1,1)"><path fill="none" stroke="#000000" d="M 1438 767 L 1096 511" stroke-miterlimit="10"/></g><g transform="translate(-190,-366) scale(1,1)"><path fill="#FFFFFF" stroke="none" d="M 1117.3168040772123 516.4400242585621 L 1096 511 L 1107.2265786731732 529.9199347592704"/></g><g transform="translate(-190,-366) scale(1,1)"><path fill="none" stroke="#000000" d="M 1117.3168040772123 516.4400242585621 L 1096 511 L 1107.2265786731732 529.9199347592704 L 1117.3168040772123 516.4400242585621" stroke-miterlimit="10"/></g><g transform="translate(-190,-366) scale(1,1)"><path fill="none" stroke="#000000" d="M 943 459 L 637 458" stroke-miterlimit="10"/></g><g transform="translate(-190,-366) scale(1,1)"><path fill="#000000" stroke="none" d="M 647.1763771116543 453.8237159003011 L 637 458 L 647.148864070621 462.2427064565037 L 658.9998825247566 458.0718950409306"/></g><g transform="translate(-190,-366) scale(1,1)"><path fill="none" stroke="#000000" d="M 647.1763771116543 453.8237159003011 L 637 458 L 647.148864070621 462.2427064565037 L 658.9998825247566 458.0718950409306 L 647.1763771116543 453.8237159003011" stroke-miterlimit="10"/></g><g transform="translate(-190,-366) scale(1,1)"><g><path fill="none" stroke="none"/><text fill="#000000" stroke="none" font-family="Arial" font-size="13px" font-style="normal" font-weight="normal" text-decoration="none" x="918.5" y="452.5">*</text></g></g></g></svg>