<?xml version="1.0" encoding="utf-8"?>
<!-- Generator: Adobe Illustrator 24.0.1, SVG Export Plug-In . SVG Version: 6.00 Build 0)  -->
<svg version="1.1" id="Capa_1" xmlns="http://www.w3.org/2000/svg" xmlns:xlink="http://www.w3.org/1999/xlink" x="0px" y="0px"
	 viewBox="0 0 1750.9 575" style="enable-background:new 0 0 1750.9 575;" xml:space="preserve">
<style type="text/css">
	.st0{opacity:0.2;fill:#C0C0C0;enable-background:new    ;}
	.st1{fill:#FFFFFF;}
	.st2{fill:none;stroke:#000000;stroke-miterlimit:10;}
	.st3{font-family:'Arial-BoldMT';}
	.st4{font-size:13px;}
	.st5{font-family:'ArialMT';}
	.st6{font-family:'Arial-BoldItalicMT';}
</style>
<g transform="translate(-190,-366) scale(1,1)">
	<rect x="251.5" y="379.5" class="st0" width="388.2" height="162"/>
</g>
<g transform="translate(-190,-366) scale(1,1)">
	<rect x="244.5" y="372.5" class="st1" width="388.2" height="162"/>
</g>
<g transform="translate(-190,-366) scale(1,1)">
	<path class="st2" d="M244.5,372.5h388.2v162H244.5V372.5z"/>
</g>
<g transform="translate(-190,-366) scale(1,1)">
	<path class="st2" d="M244.5,427.5h388.2"/>
</g>
<g transform="translate(-190,-366) scale(1,1)">
	<path class="st2" d="M244.5,437.5h388.2"/>
</g>
<text transform="matrix(1 0 0 1 191.1741 26)" class="st3 st4">HydraulicSimulation</text>
<text transform="matrix(1 0 0 1 174.2036 41)" class="st5 st4">(from hydraulicsimulation)</text>
<text transform="matrix(1 0 0 1 408.0845 56)" class="st5 st4">{leaf}</text>
<text transform="matrix(1 0 0 1 59.5 89)" class="st5 st4">+run(inpPath: String): HydraulicSimulation</text>
<path class="st2" d="M59.5,89h242.4"/>
<text transform="matrix(1 0 0 1 59.5 104)" class="st5 st4">+getNodeResultInTime(time: String): NodeSimulationResult[*]</text>
<text transform="matrix(1 0 0 1 59.5 119)" class="st5 st4">+getLinkResultInTime(time: String): LinkSimulationResult[*]</text>
<text transform="matrix(1 0 0 1 59.5 134)" class="st5 st4">+getTimes(): String[*]</text>
<text transform="matrix(1 0 0 1 59.5 149)" class="st5 st4">+getTimeSeriesForNode(nodeId: String): NodeSimulationResult[*]</text>
<text transform="matrix(1 0 0 1 59.5 164)" class="st5 st4">+getTimeSeriesForLink(linkId: String): LinkSimulationResult[*]</text>
<g transform="translate(-190,-366) scale(1,1)">
	<rect x="203.5" y="787.5" class="st0" width="789.8" height="147"/>
</g>
<g transform="translate(-190,-366) scale(1,1)">
	<rect x="196.5" y="780.5" class="st1" width="789.8" height="147"/>
</g>
<g transform="translate(-190,-366) scale(1,1)">
	<path class="st2" d="M196.5,780.5h789.8v147H196.5V780.5z"/>
</g>
<g transform="translate(-190,-366) scale(1,1)">
	<path class="st2" d="M196.5,835.5h789.8"/>
</g>
<g transform="translate(-190,-366) scale(1,1)">
	<path class="st2" d="M196.5,845.5h789.8"/>
</g>
<text transform="matrix(1 0 0 1 340.6973 434)" class="st3 st4">LinkSimulationResult</text>
<text transform="matrix(1 0 0 1 326.9832 449)" class="st5 st4">(from hydraulicsimulation)</text>
<text transform="matrix(1 0 0 1 761.6436 464)" class="st5 st4">{leaf}</text>
<text transform="matrix(1 0 0 1 11.5 497)" class="st5 st4">«constructor»+LinkSimulationResult(id: String, timeInSeconds: long, flow: double, velocity: double, unitHeadloss: double, status: Status)</text>
<text transform="matrix(1 0 0 1 11.5 512)" class="st5 st4">+getFlow(): double</text>
<text transform="matrix(1 0 0 1 11.5 527)" class="st5 st4">+getVelocity(): double</text>
<text transform="matrix(1 0 0 1 11.5 542)" class="st5 st4">+getHeadloss(): double</text>
<text transform="matrix(1 0 0 1 11.5 557)" class="st5 st4">+getStatus(): Status</text>
<g transform="translate(-190,-366) scale(1,1)">
	<rect x="1147.5" y="771.5" class="st0" width="786.9" height="147"/>
</g>
<g transform="translate(-190,-366) scale(1,1)">
	<rect x="1140.5" y="764.5" class="st1" width="786.9" height="147"/>
</g>
<g transform="translate(-190,-366) scale(1,1)">
	<path class="st2" d="M1140.5,764.5h786.9v147h-786.9V764.5z"/>
</g>
<g transform="translate(-190,-366) scale(1,1)">
	<path class="st2" d="M1140.5,819.5h786.9"/>
</g>
<g transform="translate(-190,-366) scale(1,1)">
	<path class="st2" d="M1140.5,829.5h786.9"/>
</g>
<text transform="matrix(1 0 0 1 1279.6636 418)" class="st3 st4">NodeSimulationResult</text>
<text transform="matrix(1 0 0 1 1269.5645 433)" class="st5 st4">(from hydraulicsimulation)</text>
<text transform="matrix(1 0 0 1 1702.8062 448)" class="st5 st4">{leaf}</text>
<text transform="matrix(1 0 0 1 955.5 481)" class="st5 st4">«constructor»+NodeSimulationResult(id: String, timeInSeconds: long, demand: double, head: double, pressure: double, quality: double)</text>
<text transform="matrix(1 0 0 1 955.5 496)" class="st5 st4">+getDemand(): double</text>
<text transform="matrix(1 0 0 1 955.5 511)" class="st5 st4">+getHead(): double</text>
<text transform="matrix(1 0 0 1 955.5 526)" class="st5 st4">+getPressure(): double</text>
<text transform="matrix(1 0 0 1 955.5 541)" class="st5 st4">+getQuality(): double</text>
<g transform="translate(-190,-366) scale(1,1)">
	<rect x="947.5" y="411.5" class="st0" width="165" height="102"/>
</g>
<g transform="translate(-190,-366) scale(1,1)">
	<rect x="940.5" y="404.5" class="st1" width="165" height="102"/>
</g>
<g transform="translate(-190,-366) scale(1,1)">
	<path class="st2" d="M940.5,404.5h165v102h-165V404.5z"/>
</g>
<g transform="translate(-190,-366) scale(1,1)">
	<path class="st2" d="M940.5,444.5h165"/>
</g>
<g transform="translate(-190,-366) scale(1,1)">
	<path class="st2" d="M940.5,454.5h165"/>
</g>
<text transform="matrix(1 0 0 1 784.2087 58)" class="st6 st4">ResultSimulation</text>
<text transform="matrix(1 0 0 1 758.5706 73)" class="st5 st4">(from hydraulicsimulation)</text>
<text transform="matrix(1 0 0 1 755.5 106)" class="st5 st4">+getId(): String</text>
<text transform="matrix(1 0 0 1 755.5 121)" class="st5 st4">+getTimeInSeconds(): long</text>
<text transform="matrix(1 0 0 1 755.5 136)" class="st5 st4">+getTimeString(): String</text>
<g transform="translate(-190,-366) scale(1,1)">
	<path class="st2" d="M670.5,779.5l296-272"/>
</g>
<g transform="translate(-190,-366) scale(1,1)">
	<path class="st1" d="M957.2,527.5l9.3-20l-20.7,7.6"/>
</g>
<g transform="translate(-190,-366) scale(1,1)">
	<path class="st2" d="M957.2,527.5l9.3-20l-20.7,7.6L957.2,527.5"/>
</g>
<g transform="translate(-190,-366) scale(1,1)">
	<path class="st2" d="M1434.5,763.5l-342-256"/>
</g>
<g transform="translate(-190,-366) scale(1,1)">
	<path class="st1" d="M1113.8,512.9l-21.3-5.4l11.2,18.9"/>
</g>
<g transform="translate(-190,-366) scale(1,1)">
	<path class="st2" d="M1113.8,512.9l-21.3-5.4l11.2,18.9L1113.8,512.9"/>
</g>
<g transform="translate(-190,-366) scale(1,1)">
	<path class="st2" d="M939.5,455.5l-306-1"/>
</g>
<g transform="translate(-190,-366) scale(1,1)">
	<path d="M643.7,450.3l-10.2,4.2l10.1,4.2l11.9-4.2"/>
</g>
<g transform="translate(-190,-366) scale(1,1)">
	<path class="st2" d="M643.7,450.3l-10.2,4.2l10.1,4.2l11.9-4.2L643.7,450.3"/>
</g>
<text transform="matrix(1 0 0 1 725 83)" class="st5 st4">*</text>
</svg>
