<svg version="1.1" xmlns="http://www.w3.org/2000/svg" xmlns:xlink="http://www.w3.org/1999/xlink" width="476" height="677"><defs/><g><g transform="translate(-422,-190) scale(1,1)"><path fill="#C0C0C0" stroke="none" d="M 671 216.5 C 671 211.2532944 675.2532944 207 680.5 207 C 685.7467056 207 690 211.2532944 690 216.5 C 690 221.7467056 685.7467056 226 680.5 226 C 675.2532944 226 671 221.7467056 671 216.5 Z" opacity="0.2"/></g><g transform="translate(-422,-190) scale(1,1)"><path fill="#000000" stroke="none" d="M 664 209.5 C 664 204.2532944 668.2532944 200 673.5 200 C 678.7467056 200 683 204.2532944 683 209.5 C 683 214.7467056 678.7467056 219 673.5 219 C 668.2532944 219 664 214.7467056 664 209.5 Z"/></g><g transform="translate(-422,-190) scale(1,1)"><path fill="#C0C0C0" stroke="none" d="M 655 851.5 C 655 844.59644 660.59644 839 667.5 839 C 674.40356 839 680 844.59644 680 851.5 C 680 858.40356 674.40356 864 667.5 864 C 660.59644 864 655 858.40356 655 851.5 Z" opacity="0.2"/></g><g transform="translate(-422,-190) scale(1,1)"><path fill="none" stroke="#000000" d="M 648 844.5 C 648 837.59644 653.59644 832 660.5 832 C 667.40356 832 673 837.59644 673 844.5 C 673 851.40356 667.40356 857 660.5 857 C 653.59644 857 648 851.40356 648 844.5 Z" stroke-miterlimit="10"/></g><g transform="translate(-422,-190) scale(1,1)"><path fill="#000000" stroke="none" d="M 653 844.5 C 653 840.357864 656.357864 837 660.5 837 C 664.642136 837 668 840.357864 668 844.5 C 668 848.642136 664.642136 852 660.5 852 C 656.357864 852 653 848.642136 653 844.5 Z"/></g><g transform="translate(-422,-190) scale(1,1)"><path fill="#C0C0C0" stroke="none" d="M 529 247 L 829 247 Q 839 247 839 257 L 839 290 Q 839 300 829 300 L 529 300 Q 519 300 519 290 L 519 257 Q 519 247 529 247 Z" opacity="0.2"/></g><g transform="translate(-422,-190) scale(1,1)"><path fill="#ffffff" stroke="none" d="M 522 240 L 822 240 Q 832 240 832 250 L 832 283 Q 832 293 822 293 L 522 293 Q 512 293 512 283 L 512 250 Q 512 240 522 240 Z"/></g><g transform="translate(-422,-190) scale(1,1)"><path fill="none" stroke="#000000" d="M 522 240 L 822 240 Q 832 240 832 250 L 832 283 Q 832 293 822 293 L 522 293 Q 512 293 512 283 L 512 250 Q 512 240 522 240 Z" stroke-miterlimit="10"/></g><g transform="translate(-422,-190) scale(1,1)"><g><path fill="none" stroke="none"/><text fill="#000000" stroke="none" font-family="Arial" font-size="13px" font-style="normal" font-weight="bold" text-decoration="none" x="526.03564453125" y="259.5">Crear clase que herede de Problem e implementar</text><text fill="#000000" stroke="none" font-family="Arial" font-size="13px" font-style="normal" font-weight="bold" text-decoration="none" x="636.95458984375" y="272.5">los metodos</text></g></g><g transform="translate(-422,-190) scale(1,1)"><path fill="#C0C0C0" stroke="none" d="M 553 343 L 805 343 Q 815 343 815 353 L 815 412 Q 815 422 805 422 L 553 422 Q 543 422 543 412 L 543 353 Q 543 343 553 343 Z" opacity="0.2"/></g><g transform="translate(-422,-190) scale(1,1)"><path fill="#ffffff" stroke="none" d="M 546 336 L 798 336 Q 808 336 808 346 L 808 405 Q 808 415 798 415 L 546 415 Q 536 415 536 405 L 536 346 Q 536 336 546 336 Z"/></g><g transform="translate(-422,-190) scale(1,1)"><path fill="none" stroke="#000000" d="M 546 336 L 798 336 Q 808 336 808 346 L 808 405 Q 808 415 798 415 L 546 415 Q 536 415 536 405 L 536 346 Q 536 336 546 336 Z" stroke-miterlimit="10"/></g><g transform="translate(-422,-190) scale(1,1)"><g><path fill="none" stroke="none"/><text fill="#000000" stroke="none" font-family="Arial" font-size="13px" font-style="normal" font-weight="bold" text-decoration="none" x="595.755126953125" y="355.5">Clear clase que herede de</text><text fill="#000000" stroke="none" font-family="Arial" font-size="13px" font-style="normal" font-weight="bold" text-decoration="none" x="588.537841796875" y="368.5">SingleObjectiveRegistrable o</text><text fill="#000000" stroke="none" font-family="Arial" font-size="13px" font-style="normal" font-weight="bold" text-decoration="none" x="574.08740234375" y="381.5">MonoObjectiveRegistrable para el</text><text fill="#000000" stroke="none" font-family="Arial" font-size="13px" font-style="normal" font-weight="bold" text-decoration="none" x="614.19189453125" y="394.5">problema especifico</text></g></g><g transform="translate(-422,-190) scale(1,1)"><path fill="#C0C0C0" stroke="none" d="M 473 703 L 856.5068359375 703 Q 866.5068359375 703 866.5068359375 713 L 866.5068359375 733 Q 866.5068359375 743 856.5068359375 743 L 473 743 Q 463 743 463 733 L 463 713 Q 463 703 473 703 Z" opacity="0.2"/></g><g transform="translate(-422,-190) scale(1,1)"><path fill="#ffffff" stroke="none" d="M 466 696 L 849.5068359375 696 Q 859.5068359375 696 859.5068359375 706 L 859.5068359375 726 Q 859.5068359375 736 849.5068359375 736 L 466 736 Q 456 736 456 726 L 456 706 Q 456 696 466 696 Z"/></g><g transform="translate(-422,-190) scale(1,1)"><path fill="none" stroke="#000000" d="M 466 696 L 849.5068359375 696 Q 859.5068359375 696 859.5068359375 706 L 859.5068359375 726 Q 859.5068359375 736 849.5068359375 736 L 466 736 Q 456 736 456 726 L 456 706 Q 456 696 466 696 Z" stroke-miterlimit="10"/></g><g transform="translate(-422,-190) scale(1,1)"><g><path fill="none" stroke="none"/><text fill="#000000" stroke="none" font-family="Arial" font-size="13px" font-style="normal" font-weight="bold" text-decoration="none" x="472.398681640625" y="715.5">Agregar la clase que hereda Registrable a ProblemRegister.java</text></g></g><g transform="translate(-422,-190) scale(1,1)"><path fill="#C0C0C0" stroke="none" d="M 537 471 L 805 471 Q 815 471 815 481 L 815 553 Q 815 563 805 563 L 537 563 Q 527 563 527 553 L 527 481 Q 527 471 537 471 Z" opacity="0.2"/></g><g transform="translate(-422,-190) scale(1,1)"><path fill="#ffffff" stroke="none" d="M 530 464 L 798 464 Q 808 464 808 474 L 808 546 Q 808 556 798 556 L 530 556 Q 520 556 520 546 L 520 474 Q 520 464 530 464 Z"/></g><g transform="translate(-422,-190) scale(1,1)"><path fill="none" stroke="#000000" d="M 530 464 L 798 464 Q 808 464 808 474 L 808 546 Q 808 556 798 556 L 530 556 Q 520 556 520 546 L 520 474 Q 520 464 530 464 Z" stroke-miterlimit="10"/></g><g transform="translate(-422,-190) scale(1,1)"><g><path fill="none" stroke="none"/><text fill="#000000" stroke="none" font-family="Arial" font-size="13px" font-style="normal" font-weight="bold" text-decoration="none" x="547.29833984375" y="483.5">Configurar el constructor de la clase que</text><text fill="#000000" stroke="none" font-family="Arial" font-size="13px" font-style="normal" font-weight="bold" text-decoration="none" x="550.53564453125" y="496.5">hereda de Registrable configurando los</text><text fill="#000000" stroke="none" font-family="Arial" font-size="13px" font-style="normal" font-weight="bold" text-decoration="none" x="541.874267578125" y="509.5">parametros e indicando las alternativas de</text><text fill="#000000" stroke="none" font-family="Arial" font-size="13px" font-style="normal" font-weight="bold" text-decoration="none" x="631.115966796875" y="522.5">operadores</text></g></g><g transform="translate(-422,-190) scale(1,1)"><path fill="#C0C0C0" stroke="none" d="M 609 775 L 720.09716796875 775 Q 730.09716796875 775 730.09716796875 785 L 730.09716796875 805 Q 730.09716796875 815 720.09716796875 815 L 609 815 Q 599 815 599 805 L 599 785 Q 599 775 609 775 Z" opacity="0.2"/></g><g transform="translate(-422,-190) scale(1,1)"><path fill="#ffffff" stroke="none" d="M 602 768 L 713.09716796875 768 Q 723.09716796875 768 723.09716796875 778 L 723.09716796875 798 Q 723.09716796875 808 713.09716796875 808 L 602 808 Q 592 808 592 798 L 592 778 Q 592 768 602 768 Z"/></g><g transform="translate(-422,-190) scale(1,1)"><path fill="none" stroke="#000000" d="M 602 768 L 713.09716796875 768 Q 723.09716796875 768 723.09716796875 778 L 723.09716796875 798 Q 723.09716796875 808 713.09716796875 808 L 602 808 Q 592 808 592 798 L 592 778 Q 592 768 602 768 Z" stroke-miterlimit="10"/></g><g transform="translate(-422,-190) scale(1,1)"><g><path fill="none" stroke="none"/><text fill="#000000" stroke="none" font-family="Arial" font-size="13px" font-style="normal" font-weight="bold" text-decoration="none" x="600.83544921875" y="787.5">Compilar y Ejecutar</text></g></g><g transform="translate(-422,-190) scale(1,1)"><path fill="#C0C0C0" stroke="none" d="M 449 607 L 885 607 Q 895 607 895 617 L 895 650 Q 895 660 885 660 L 449 660 Q 439 660 439 650 L 439 617 Q 439 607 449 607 Z" opacity="0.2"/></g><g transform="translate(-422,-190) scale(1,1)"><path fill="#ffffff" stroke="none" d="M 442 600 L 878 600 Q 888 600 888 610 L 888 643 Q 888 653 878 653 L 442 653 Q 432 653 432 643 L 432 610 Q 432 600 442 600 Z"/></g><g transform="translate(-422,-190) scale(1,1)"><path fill="none" stroke="#000000" d="M 442 600 L 878 600 Q 888 600 888 610 L 888 643 Q 888 653 878 653 L 442 653 Q 432 653 432 643 L 432 610 Q 432 600 442 600 Z" stroke-miterlimit="10"/></g><g transform="translate(-422,-190) scale(1,1)"><g><path fill="none" stroke="none"/><text fill="#000000" stroke="none" font-family="Arial" font-size="13px" font-style="normal" font-weight="bold" text-decoration="none" x="455.14208984375" y="619.5">Implementar el metodo build que construye el algoritmo y establece los</text><text fill="#000000" stroke="none" font-family="Arial" font-size="13px" font-style="normal" font-weight="bold" text-decoration="none" x="513.6484375" y="632.5">operadores que seran usados durante la ejecución</text></g></g><g transform="translate(-422,-190) scale(1,1)"><path fill="none" stroke="#000000" d="M 673 220 L 672 239" stroke-miterlimit="10"/></g><g transform="translate(-422,-190) scale(1,1)"><path fill="none" stroke="#000000" d="M 668.3304388478734 228.63012435220153 L 672 239 L 676.7378378159722 229.07261903473304" stroke-miterlimit="10"/></g><g transform="translate(-422,-190) scale(1,1)"><path fill="none" stroke="#000000" d="M 672 294 L 672 335" stroke-miterlimit="10"/></g><g transform="translate(-422,-190) scale(1,1)"><path fill="none" stroke="#000000" d="M 667.790482243984 324.83732514237585 L 672 335 L 676.209517756016 324.83732514237585" stroke-miterlimit="10"/></g><g transform="translate(-422,-190) scale(1,1)"><path fill="none" stroke="#000000" d="M 670 416 L 667 463" stroke-miterlimit="10"/></g><g transform="translate(-422,-190) scale(1,1)"><path fill="none" stroke="#000000" d="M 663.4463953815032 452.58981776262306 L 667 463 L 671.8483325300421 453.1261116231681" stroke-miterlimit="10"/></g><g transform="translate(-422,-190) scale(1,1)"><path fill="none" stroke="#000000" d="M 662 557 L 661 599" stroke-miterlimit="10"/></g><g transform="translate(-422,-190) scale(1,1)"><path fill="none" stroke="#000000" d="M 657.0335748038652 588.7400062785854 L 661 599 L 665.4502249820875 588.9404027114002" stroke-miterlimit="10"/></g><g transform="translate(-422,-190) scale(1,1)"><path fill="none" stroke="#000000" d="M 659 654 L 658 695" stroke-miterlimit="10"/></g><g transform="translate(-422,-190) scale(1,1)"><path fill="none" stroke="#000000" d="M 654.0395301973742 684.7377059610197 L 658 695 L 662.456062651372 684.9429872403856" stroke-miterlimit="10"/></g><g transform="translate(-422,-190) scale(1,1)"><path fill="none" stroke="#000000" d="M 657 737 L 657 767" stroke-miterlimit="10"/></g><g transform="translate(-422,-190) scale(1,1)"><path fill="none" stroke="#000000" d="M 652.790482243984 756.8373251423759 L 657 767 L 661.209517756016 756.8373251423759" stroke-miterlimit="10"/></g><g transform="translate(-422,-190) scale(1,1)"><path fill="none" stroke="#000000" d="M 658 809 L 659 831" stroke-miterlimit="10"/></g><g transform="translate(-422,-190) scale(1,1)"><path fill="none" stroke="#000000" d="M 654.3333608983219 821.0389518877435 L 659 831 L 662.7437125137551 820.656663177951" stroke-miterlimit="10"/></g></g></svg>