<?xml version="1.0" encoding="iso-8859-1"?>
<!-- Generator: Adobe Illustrator 19.0.0, SVG Export Plug-In . SVG Version: 6.00 Build 0)  -->
<svg xmlns="http://www.w3.org/2000/svg" xmlns:xlink="http://www.w3.org/1999/xlink" version="1.1" id="Layer_1" x="0px" y="0px" viewBox="0 0 512 512" style="enable-background:new 0 0 512 512;" xml:space="preserve" width="512" height="512">
<g>
	<rect x="166" y="31" style="fill:#C68776;" width="75" height="30"/>
	<rect x="271" y="31" style="fill:#99503D;" width="76" height="30"/>
	<rect x="226" style="fill:#FF9100;" width="60" height="151"/>
	<rect x="256" style="fill:#FF641A;" width="30" height="151"/>
	<path style="fill:#EFE2DD;" d="M512,271v30h-90v-30c0-16.5-13.5-30-30-30h-45l-30,30H196l-30-30H61v-90h105l30-30h121l30,30h45   C458.301,151,512,204.699,512,271z"/>
	<path style="fill:#CDBFBA;" d="M512,271v30h-90v-30c0-16.5-13.5-30-30-30h-45l-30,30h-61V121h61l30,30h45   C458.301,151,512,204.699,512,271z"/>
	<path style="fill:#FF641A;" d="M377,91c-24.814,0-45-20.186-45-45s20.186-46,45-46s45,21.186,45,46S401.814,91,377,91z"/>
	<path style="fill:#FF9100;" d="M136,91c-24.814,0-45-20.186-45-45s20.186-46,45-46s45,21.186,45,46S160.814,91,136,91z"/>
	<path style="fill:#9BFCFF;" d="M467,512c-24.814,0-45-20.186-45-45c0-17.168,23.32-83.002,45-135.985V331   c21.68,52.998,45,118.832,45,136C512,491.814,491.814,512,467,512z"/>
	<polygon style="fill:#CDBFBA;" points="15,89.228 15,302.772 91,265.272 91,126.728  "/>
	<rect y="61" style="fill:#537983;" width="30" height="270"/>
</g>















</svg>
