<?xml version="1.0" encoding="iso-8859-1"?>
<!-- Generator: Adobe Illustrator 16.0.0, SVG Export Plug-In . SVG Version: 6.00 Build 0)  -->
<!DOCTYPE svg PUBLIC "-//W3C//DTD SVG 1.1//EN" "http://www.w3.org/Graphics/SVG/1.1/DTD/svg11.dtd">
<svg version="1.1" id="Capa_1" xmlns="http://www.w3.org/2000/svg" xmlns:xlink="http://www.w3.org/1999/xlink" x="0px" y="0px"
	 width="33.668px" height="33.668px" viewBox="0 0 33.668 33.668" style="enable-background:new 0 0 33.668 33.668;"
	 xml:space="preserve">
<g>
	<path d="M33.668,16.834c0,1.934-1.566,3.5-3.5,3.5h-9.834v9.834c0,1.934-1.566,3.5-3.5,3.5c-1.933,0-3.5-1.566-3.5-3.5v-9.834H3.5
		c-1.933,0-3.5-1.566-3.5-3.5c0-1.933,1.567-3.5,3.5-3.5h9.834V3.5c0-1.933,1.567-3.5,3.5-3.5c1.934,0,3.5,1.567,3.5,3.5v9.834
		h9.834C32.102,13.334,33.668,14.9,33.668,16.834z"/>
</g>
<g>
</g>
<g>
</g>
<g>
</g>
<g>
</g>
<g>
</g>
<g>
</g>
<g>
</g>
<g>
</g>
<g>
</g>
<g>
</g>
<g>
</g>
<g>
</g>
<g>
</g>
<g>
</g>
<g>
</g>
</svg>
