<svg version="1.1" xmlns="http://www.w3.org/2000/svg" xmlns:xlink="http://www.w3.org/1999/xlink" width="304.55908203125" height="340"><defs/><g><g transform="translate(-502,-382) scale(1,1)"><rect fill="#C0C0C0" stroke="none" x="535" y="432" width="245.43603515625" height="72" opacity="0.2"/></g><g transform="translate(-502,-382) scale(1,1)"><rect fill="#C0C0C0" stroke="none" x="771.0478515625" y="399" width="18.38818359375" height="37" opacity="0.2"/></g><g transform="translate(-502,-382) scale(1,1)"><rect fill="#ffffff" stroke="none" x="528" y="425" width="245.43603515625" height="72"/></g><g transform="translate(-502,-382) scale(1,1)"><path fill="none" stroke="#000000" d="M 528 425 L 773.43603515625 425 L 773.43603515625 497 L 528 497 L 528 425 Z Z" stroke-miterlimit="10"/></g><g transform="translate(-502,-382) scale(1,1)"><path fill="none" stroke="#000000" d="M 528 450 L 773.43603515625 450" stroke-miterlimit="10"/></g><g transform="translate(-502,-382) scale(1,1)"><path fill="none" stroke="#000000" d="M 528 460 L 773.43603515625 460" stroke-miterlimit="10"/></g><g transform="translate(-502,-382) scale(1,1)"><g><path fill="none" stroke="none"/><text fill="#000000" stroke="none" font-family="Arial" font-size="13px" font-style="normal" font-weight="bold" text-decoration="none" x="605.5576171875" y="444.5">QualityIndicator</text></g></g><g transform="translate(-502,-382) scale(1,1)"><g><path fill="none" stroke="none"/><text fill="#000000" stroke="none" font-family="Arial" font-size="13px" font-style="normal" font-weight="normal" text-decoration="none" x="533" y="477.5">+evaluate(evaluate: T): R</text></g></g><g transform="translate(-502,-382) scale(1,1)"><g><path fill="none" stroke="none"/><text fill="#000000" stroke="none" font-family="Arial" font-size="13px" font-style="normal" font-weight="normal" text-decoration="none" x="533" y="492.5">+getName(): String</text></g></g><g transform="translate(-502,-382) scale(1,1)"><rect fill="#ffffff" stroke="none" x="764.0478515625" y="392" width="18.38818359375" height="37"/></g><g transform="translate(-502,-382) scale(1,1)"><path fill="none" stroke="#000000" d="M 764.0478515625 392 L 782.43603515625 392 L 782.43603515625 429 L 764.0478515625 429 L 764.0478515625 392 Z Z" stroke-miterlimit="10" stroke-dasharray="3"/></g><g transform="translate(-502,-382) scale(1,1)"><g><path fill="none" stroke="none"/><text fill="#000000" stroke="none" font-family="Arial" font-size="13px" font-style="normal" font-weight="normal" text-decoration="none" x="769.0478515625" y="409.5">T</text></g></g><g transform="translate(-502,-382) scale(1,1)"><g><path fill="none" stroke="none"/><text fill="#000000" stroke="none" font-family="Arial" font-size="13px" font-style="normal" font-weight="normal" text-decoration="none" x="769.0478515625" y="424.5">R</text></g></g><g transform="translate(-502,-382) scale(1,1)"><rect fill="#C0C0C0" stroke="none" x="519" y="617" width="274.55908203125" height="102" opacity="0.2"/></g><g transform="translate(-502,-382) scale(1,1)"><rect fill="#C0C0C0" stroke="none" x="784.88818359375" y="599" width="17.6708984375" height="22" opacity="0.2"/></g><g transform="translate(-502,-382) scale(1,1)"><rect fill="#ffffff" stroke="none" x="512" y="610" width="274.55908203125" height="102"/></g><g transform="translate(-502,-382) scale(1,1)"><path fill="none" stroke="#000000" d="M 512 610 L 786.55908203125 610 L 786.55908203125 712 L 512 712 L 512 610 Z Z" stroke-miterlimit="10"/></g><g transform="translate(-502,-382) scale(1,1)"><path fill="none" stroke="#000000" d="M 512 635 L 786.55908203125 635" stroke-miterlimit="10"/></g><g transform="translate(-502,-382) scale(1,1)"><path fill="none" stroke="#000000" d="M 512 645 L 786.55908203125 645" stroke-miterlimit="10"/></g><g transform="translate(-502,-382) scale(1,1)"><g><path fill="none" stroke="none"/><text fill="#000000" stroke="none" font-family="Arial" font-size="13px" font-style="italic" font-weight="bold" text-decoration="none" x="601.589599609375" y="629.5">GenericIndicator</text></g></g><g transform="translate(-502,-382) scale(1,1)"><g><path fill="none" stroke="none"/><text fill="#000000" stroke="none" font-family="Arial" font-size="13px" font-style="italic" font-weight="normal" text-decoration="none" x="517" y="662.5">+evaluate(solutionList: List&lt;S&gt;): Double</text></g></g><g transform="translate(-502,-382) scale(1,1)"><g><path fill="none" stroke="none"/><text fill="#000000" stroke="none" font-family="Arial" font-size="13px" font-style="normal" font-weight="normal" text-decoration="none" x="517" y="677.5">+getReferenceToParetoFront()</text></g></g><g transform="translate(-502,-382) scale(1,1)"><g><path fill="none" stroke="none"/><text fill="#000000" stroke="none" font-family="Arial" font-size="13px" font-style="normal" font-weight="normal" text-decoration="none" x="517" y="692.5">+setReferenceToParetoFront(front: Front)</text></g></g><g transform="translate(-502,-382) scale(1,1)"><g><path fill="none" stroke="none"/><text fill="#000000" stroke="none" font-family="Arial" font-size="13px" font-style="italic" font-weight="normal" text-decoration="none" x="517" y="707.5">+isTheLowerTheIndicatorValueTheBetter()</text></g></g><g transform="translate(-502,-382) scale(1,1)"><rect fill="#ffffff" stroke="none" x="777.88818359375" y="592" width="17.6708984375" height="22"/></g><g transform="translate(-502,-382) scale(1,1)"><path fill="none" stroke="#000000" d="M 777.88818359375 592 L 795.55908203125 592 L 795.55908203125 614 L 777.88818359375 614 L 777.88818359375 592 Z Z" stroke-miterlimit="10" stroke-dasharray="3"/></g><g transform="translate(-502,-382) scale(1,1)"><g><path fill="none" stroke="none"/><text fill="#000000" stroke="none" font-family="Arial" font-size="13px" font-style="normal" font-weight="normal" text-decoration="none" x="782.88818359375" y="609.5">S</text></g></g><g transform="translate(-502,-382) scale(1,1)"><path fill="none" stroke="#000000" d="M 654 591 L 655 498" stroke-miterlimit="10"/></g><g transform="translate(-502,-382) scale(1,1)"><path fill="#FFFFFF" stroke="none" d="M 663.200009334476 518.4146968362135 L 655 498 L 646.3629116374469 518.2336527749551"/></g><g transform="translate(-502,-382) scale(1,1)"><path fill="none" stroke="#000000" d="M 663.200009334476 518.4146968362135 L 655 498 L 646.3629116374469 518.2336527749551 L 663.200009334476 518.4146968362135" stroke-miterlimit="10"/></g></g></svg>