<?xml version="1.0" encoding="UTF-8" standalone="no"?>
<!-- Created with Inkscape (http://www.inkscape.org/) -->

<svg
   xmlns:dc="http://purl.org/dc/elements/1.1/"
   xmlns:cc="http://creativecommons.org/ns#"
   xmlns:rdf="http://www.w3.org/1999/02/22-rdf-syntax-ns#"
   xmlns:svg="http://www.w3.org/2000/svg"
   xmlns="http://www.w3.org/2000/svg"
   xmlns:sodipodi="http://sodipodi.sourceforge.net/DTD/sodipodi-0.dtd"
   xmlns:inkscape="http://www.inkscape.org/namespaces/inkscape"
   version="1.1"
   id="svg815"
   xml:space="preserve"
   width="478.66666"
   height="372"
   viewBox="0 0 478.66666 372"
   sodipodi:docname="crowing distance.svg"
   inkscape:version="0.92.4 (5da689c313, 2019-01-14)"><metadata
     id="metadata821"><rdf:RDF><cc:Work
         rdf:about=""><dc:format>image/svg+xml</dc:format><dc:type
           rdf:resource="http://purl.org/dc/dcmitype/StillImage" /><dc:title></dc:title></cc:Work></rdf:RDF></metadata><defs
     id="defs819" /><sodipodi:namedview
     pagecolor="#ffffff"
     bordercolor="#666666"
     borderopacity="1"
     objecttolerance="10"
     gridtolerance="10"
     guidetolerance="10"
     inkscape:pageopacity="0"
     inkscape:pageshadow="2"
     inkscape:window-width="1920"
     inkscape:window-height="1017"
     id="namedview817"
     showgrid="false"
     inkscape:zoom="2.2795699"
     inkscape:cx="221.54642"
     inkscape:cy="151.07573"
     inkscape:window-x="-8"
     inkscape:window-y="-8"
     inkscape:window-maximized="1"
     inkscape:current-layer="g825" /><g
     id="g823"
     inkscape:groupmode="layer"
     inkscape:label="frontera-pareto-eps-converted-to"
     transform="matrix(1.3333333,0,0,-1.3333333,0,372)"><g
       id="g825"
       transform="scale(0.1)"><path
         d="m 36.1719,2674.8 c 0,-2583.7492 0,-2617.9602 0,-2617.9602 H 3496.91"
         style="fill:none;stroke:#000000;stroke-width:7.73877001;stroke-linecap:butt;stroke-linejoin:miter;stroke-miterlimit:4;stroke-dasharray:none;stroke-opacity:1"
         id="path827"
         inkscape:connector-curvature="0" /><path
         d="M 65,2647.54 C 36.1719,2674.8 36.1719,2674.8 36.1719,2674.8 L 4.37891,2642.81"
         style="fill:none;stroke:#000000;stroke-width:7.5;stroke-linecap:butt;stroke-linejoin:miter;stroke-miterlimit:4;stroke-dasharray:none;stroke-opacity:1"
         id="path829"
         inkscape:connector-curvature="0" /><path
         d="m 3479.96,36.1289 16.95,20.7109 -20.74,22.8516"
         style="fill:none;stroke:#000000;stroke-width:7.5;stroke-linecap:butt;stroke-linejoin:miter;stroke-miterlimit:4;stroke-dasharray:none;stroke-opacity:1"
         id="path831"
         inkscape:connector-curvature="0" /><g
         id="g833"
         transform="scale(10)"><text
           transform="matrix(0.959574,0,0,-1,350.933,0.860547)"
           style="font-variant:normal;font-weight:normal;font-size:14.29189968px;font-family:Verdana;-inkscape-font-specification:Verdana;writing-mode:lr-tb;fill:#000000;fill-opacity:1;fill-rule:nonzero;stroke:none"
           id="text837"><tspan
             x="0"
             y="0"
             id="tspan835">x</tspan></text>
<text
           transform="matrix(1,0,0,-0.6713482,0.0113281,272.57)"
           style="font-variant:normal;font-weight:normal;font-size:17.08651352px;font-family:Verdana;-inkscape-font-specification:Verdana;writing-mode:lr-tb;fill:#000000;fill-opacity:1;fill-rule:nonzero;stroke:none"
           id="text841"><tspan
             x="0"
             y="0"
             id="tspan839">y</tspan></text>
</g><path
         d="m 366.84,1794.3 c 0,-20.75 -15.59,-37.5 -34.809,-37.5 -19.261,0 -34.84,16.75 -34.84,37.5 0,20.7 15.579,37.5 34.84,37.5 19.219,0 34.809,-16.8 34.809,-37.5 z"
         style="fill:#ff0000;fill-opacity:1;fill-rule:nonzero;stroke:none"
         id="path903"
         inkscape:connector-curvature="0" /><path
         d="m 1232.19,1060.04 c 0,-20.7 -15.59,-37.5 -34.81,-37.5 -19.22,0 -34.8,16.8 -34.8,37.5 0,20.7 15.58,37.5 34.8,37.5 19.22,0 34.81,-16.8 34.81,-37.5 z"
         style="fill:#ff0000;fill-opacity:1;fill-rule:nonzero;stroke:none"
         id="path905"
         inkscape:connector-curvature="0" /><path
         d="m 681.52,1374.73 c 0,-20.75 -15.579,-37.5 -34.84,-37.5 -19.219,0 -34.801,16.75 -34.801,37.5 0,20.7 15.582,37.5 34.801,37.5 19.261,0 34.84,-16.8 34.84,-37.5 z"
         style="fill:#ff0000;fill-opacity:1;fill-rule:nonzero;stroke:none"
         id="path907"
         inkscape:connector-curvature="0" /><path
         d="m 1796.02,928.91 c 0,-20.711 -15.59,-37.5 -34.85,-37.5 -19.22,0 -34.8,16.789 -34.8,37.5 0,20.699 15.58,37.5 34.8,37.5 19.26,0 34.85,-16.801 34.85,-37.5 z"
         style="fill:#ff0000;fill-opacity:1;fill-rule:nonzero;stroke:none"
         id="path909"
         inkscape:connector-curvature="0" /><path
         d="m 2261.48,863.359 c 0,-20.699 -15.62,-37.5 -34.84,-37.5 -19.22,0 -34.8,16.801 -34.8,37.5 0,20.7 15.58,37.5 34.8,37.5 19.22,0 34.84,-16.8 34.84,-37.5 z"
         style="fill:#ff0000;fill-opacity:1;fill-rule:nonzero;stroke:none"
         id="path911"
         inkscape:connector-curvature="0" /><path
         d="m 2641.72,830.59 c 0,-20.711 -15.59,-37.5 -34.84,-37.5 -19.22,0 -34.81,16.789 -34.81,37.5 0,20.699 15.59,37.5 34.81,37.5 19.25,0 34.84,-16.801 34.84,-37.5 z"
         style="fill:#ff0000;fill-opacity:1;fill-rule:nonzero;stroke:none"
         id="path913"
         inkscape:connector-curvature="0" /><text
         xml:space="preserve"
         style="font-style:italic;font-variant:normal;font-weight:normal;font-stretch:normal;font-size:64.99999762%;line-height:1.25;font-family:sans-serif;-inkscape-font-specification:'sans-serif Italic';letter-spacing:0px;word-spacing:0px;baseline-shift:sub;fill:#000000;fill-opacity:1;stroke:none;stroke-width:7.5"
         x="1908.2548"
         y="-2714.3279"
         id="text1061"
         transform="scale(1,-1)"><tspan
           sodipodi:role="line"
           id="tspan1059"
           x="1908.2548"
           y="-2707.2117"
           style="font-size:64.99999762%;baseline-shift:sub;stroke-width:7.5" /></text>
<rect
         style="fill:none;fill-opacity:1;stroke:#000000;stroke-width:7.9370081;stroke-miterlimit:4;stroke-dasharray:31.74803232,7.9370081;stroke-dashoffset:0;stroke-opacity:1"
         id="rect1123"
         width="1118.6321"
         height="457.32312"
         x="644.85852"
         y="-1375.2595"
         transform="scale(1,-1)" /><text
         xml:space="preserve"
         style="font-style:italic;font-variant:normal;font-weight:normal;font-stretch:normal;font-size:90px;line-height:1.25;font-family:sans-serif;-inkscape-font-specification:'sans-serif Italic';letter-spacing:0px;word-spacing:0px;fill:#000000;fill-opacity:1;stroke:none;stroke-width:7.5"
         x="1174.5637"
         y="-1125.2123"
         id="text1127"
         transform="scale(1,-1)"><tspan
           sodipodi:role="line"
           id="tspan1125"
           x="1174.5637"
           y="-1125.2123"
           style="stroke-width:7.5">i</tspan></text>
<text
         xml:space="preserve"
         style="font-style:italic;font-variant:normal;font-weight:normal;font-stretch:normal;font-size:90px;line-height:1.25;font-family:sans-serif;-inkscape-font-specification:'sans-serif Italic';letter-spacing:0px;word-spacing:0px;fill:#000000;fill-opacity:1;stroke:none;stroke-width:7.5"
         x="1730.5896"
         y="-809.36328"
         id="text1131"
         transform="scale(1,-1)"><tspan
           sodipodi:role="line"
           id="tspan1129"
           x="1730.5896"
           y="-809.36328"
           style="stroke-width:7.5">i+1</tspan></text>
<text
         xml:space="preserve"
         style="font-style:italic;font-variant:normal;font-weight:normal;font-stretch:normal;font-size:90px;line-height:1.25;font-family:sans-serif;-inkscape-font-specification:'sans-serif Italic';letter-spacing:0px;word-spacing:0px;fill:#000000;fill-opacity:1;stroke:none;stroke-width:7.5"
         x="588.92688"
         y="-1424.611"
         id="text1135"
         transform="scale(1,-1)"><tspan
           sodipodi:role="line"
           id="tspan1133"
           x="588.92688"
           y="-1424.611"
           style="stroke-width:7.5">i-1</tspan></text>
</g></g></svg>