<?xml version="1.0" encoding="UTF-8" standalone="no"?>
<svg
   xmlns:dc="http://purl.org/dc/elements/1.1/"
   xmlns:cc="http://creativecommons.org/ns#"
   xmlns:rdf="http://www.w3.org/1999/02/22-rdf-syntax-ns#"
   xmlns:svg="http://www.w3.org/2000/svg"
   xmlns="http://www.w3.org/2000/svg"
   xmlns:sodipodi="http://sodipodi.sourceforge.net/DTD/sodipodi-0.dtd"
   xmlns:inkscape="http://www.inkscape.org/namespaces/inkscape"
   inkscape:version="1.0 (4035a4fb49, 2020-05-01)"
   sodipodi:docname="Algoritmo Genetico.svg"
   xml:space="preserve"
   style="enable-background:new 0 0 759 376.7;"
   viewBox="0 0 759 376.7"
   y="0px"
   x="0px"
   id="Capa_1"
   version="1.0"><metadata
   id="metadata944"><rdf:RDF><cc:Work
       rdf:about=""><dc:format>image/svg+xml</dc:format><dc:type
         rdf:resource="http://purl.org/dc/dcmitype/StillImage" /><dc:title></dc:title></cc:Work></rdf:RDF></metadata><defs
   id="defs942" /><sodipodi:namedview
   inkscape:current-layer="Capa_1"
   inkscape:window-maximized="1"
   inkscape:window-y="-8"
   inkscape:window-x="1912"
   inkscape:cy="85.080634"
   inkscape:cx="249.03524"
   inkscape:zoom="0.90909091"
   showgrid="false"
   id="namedview940"
   inkscape:window-height="1017"
   inkscape:window-width="1920"
   inkscape:pageshadow="2"
   inkscape:pageopacity="0"
   guidetolerance="10"
   gridtolerance="10"
   objecttolerance="10"
   borderopacity="1"
   bordercolor="#666666"
   pagecolor="#ffffff" />
<style
   id="style833"
   type="text/css">
	.st0{fill:#FFFFFF;}
	.st1{fill:#020203;}
	.st2{fill:none;stroke:#020203;stroke-width:0.7198;stroke-miterlimit:10;}
	.st3{fill:none;stroke:#020203;stroke-width:0.7198;}
	.st4{font-family:'Helvetica';}
	.st5{font-size:17.5806px;}
	.st6{fill:none;stroke:#000000;stroke-width:0.7198;stroke-miterlimit:10;}
	.st7{fill:none;stroke:#000000;stroke-width:0.7198;stroke-miterlimit:1.42;}
	.st8{fill:none;stroke:#000000;stroke-width:0.7198;}
</style>
<rect
   id="rect835"
   height="208"
   width="206.1"
   class="st0"
   y="161.2"
   x="388" />
<path
   id="path837"
   d="M388,160.5h4.4v1.5H388V160.5z M387.2,167.1v-4.4h1.5v4.4H387.2z M387.2,175.9v-4.4h1.5v4.4H387.2z   M387.2,184.7v-4.4h1.5v4.4H387.2z M387.2,193.5v-4.4h1.5v4.4H387.2z M387.2,202.3v-4.4h1.5v4.4H387.2z M387.2,211v-4.4h1.5v4.4  H387.2z M387.2,219.8v-4.4h1.5v4.4H387.2z M387.2,228.6v-4.4h1.5v4.4H387.2z M387.2,237.4V233h1.5v4.4H387.2z M387.2,246.2v-4.4h1.5  v4.4H387.2z M387.2,255v-4.4h1.5v4.4H387.2z M387.2,263.8v-4.4h1.5v4.4H387.2z M387.2,272.6v-4.4h1.5v4.4H387.2z M387.2,281.4V277  h1.5v4.4H387.2z M387.2,290.2v-4.4h1.5v4.4H387.2z M387.2,298.9v-4.4h1.5v4.4H387.2z M387.2,307.7v-4.4h1.5v4.4H387.2z M387.2,316.5  v-4.4h1.5v4.4H387.2z M387.2,325.3v-4.4h1.5v4.4H387.2z M387.2,334.1v-4.4h1.5v4.4H387.2z M387.2,342.9v-4.4h1.5v4.4H387.2z   M387.2,351.7v-4.4h1.5v4.4H387.2z M387.2,360.5v-4.4h1.5v4.4H387.2z M387.2,369.3v-4.4h1.5v4.4H387.2z M396.7,370h-4.4v-1.5h4.4  V370z M405.4,370H401v-1.5h4.4V370z M414.1,370h-4.4v-1.5h4.4V370z M422.8,370h-4.4v-1.5h4.4V370z M431.5,370h-4.4v-1.5h4.4V370z   M440.2,370h-4.4v-1.5h4.4V370z M448.9,370h-4.4v-1.5h4.4V370z M457.6,370h-4.4v-1.5h4.4V370z M466.4,370H462v-1.5h4.4V370z   M475.1,370h-4.4v-1.5h4.4V370z M483.8,370h-4.4v-1.5h4.4V370z M492.5,370h-4.4v-1.5h4.4V370z M501.2,370h-4.4v-1.5h4.4V370z   M509.9,370h-4.4v-1.5h4.4V370z M518.6,370h-4.4v-1.5h4.4V370z M527.3,370H523v-1.5h4.4V370z M536,370h-4.4v-1.5h4.4V370z   M544.7,370h-4.4v-1.5h4.4V370z M553.4,370h-4.4v-1.5h4.4V370z M562.2,370h-4.4v-1.5h4.4V370z M570.9,370h-4.4v-1.5h4.4V370z   M579.6,370h-4.4v-1.5h4.4V370z M588.3,370h-4.4v-1.5h4.4V370z M594.8,366.3v3.7h-2.2v-1.5h1.5v0.7h-0.7v-2.9H594.8z M594.8,357.5  v4.4h-1.5v-4.4H594.8z M594.8,348.8v4.4h-1.5v-4.4H594.8z M594.8,340v4.4h-1.5V340H594.8z M594.8,331.2v4.4h-1.5v-4.4H594.8z   M594.8,322.4v4.4h-1.5v-4.4H594.8z M594.8,313.6v4.4h-1.5v-4.4H594.8z M594.8,304.8v4.4h-1.5v-4.4H594.8z M594.8,296v4.4h-1.5V296  H594.8z M594.8,287.2v4.4h-1.5v-4.4H594.8z M594.8,278.4v4.4h-1.5v-4.4H594.8z M594.8,269.6v4.4h-1.5v-4.4H594.8z M594.8,260.9v4.4  h-1.5v-4.4H594.8z M594.8,252.1v4.4h-1.5v-4.4H594.8z M594.8,243.3v4.4h-1.5v-4.4H594.8z M594.8,234.5v4.4h-1.5v-4.4H594.8z   M594.8,225.7v4.4h-1.5v-4.4H594.8z M594.8,216.9v4.4h-1.5v-4.4H594.8z M594.8,208.1v4.4h-1.5v-4.4H594.8z M594.8,199.3v4.4h-1.5  v-4.4H594.8z M594.8,190.5v4.4h-1.5v-4.4H594.8z M594.8,181.7v4.4h-1.5v-4.4H594.8z M594.8,173v4.4h-1.5V173H594.8z M594.8,164.2  v4.4h-1.5v-4.4H594.8z M588.3,160.5h4.4v1.5h-4.4V160.5z M579.6,160.5h4.4v1.5h-4.4V160.5z M570.9,160.5h4.4v1.5h-4.4V160.5z   M562.2,160.5h4.4v1.5h-4.4V160.5z M553.4,160.5h4.4v1.5h-4.4V160.5z M544.7,160.5h4.4v1.5h-4.4V160.5z M536,160.5h4.4v1.5H536  V160.5z M527.3,160.5h4.4v1.5h-4.4V160.5z M518.6,160.5h4.4v1.5h-4.4V160.5z M509.9,160.5h4.4v1.5h-4.4V160.5z M501.2,160.5h4.4v1.5  h-4.4V160.5z M492.5,160.5h4.4v1.5h-4.4V160.5z M483.8,160.5h4.4v1.5h-4.4V160.5z M475.1,160.5h4.4v1.5h-4.4V160.5z M466.4,160.5  h4.4v1.5h-4.4V160.5z M457.6,160.5h4.4v1.5h-4.4V160.5z M448.9,160.5h4.4v1.5h-4.4V160.5z M440.2,160.5h4.4v1.5h-4.4V160.5z   M431.5,160.5h4.4v1.5h-4.4V160.5z M422.8,160.5h4.4v1.5h-4.4V160.5z M414.1,160.5h4.4v1.5h-4.4V160.5z M405.4,160.5h4.4v1.5h-4.4  V160.5z M396.7,160.5h4.4v1.5h-4.4V160.5z"
   class="st1" />
<line
   id="line839"
   y2="62"
   x2="184.2"
   y1="62"
   x1="135.4"
   class="st2" />
<polygon
   id="polygon841"
   points="191.8,62 181.7,67.1 184.2,62 181.7,56.8 "
   class="st1" />
<polygon
   id="polygon843"
   points="191.8,62 181.7,67.1 184.2,62 181.7,56.8 "
   class="st2" />
<path
   id="path845"
   d="M10.7,41.8h118.7c0.8,0,1.6,0.2,2.3,0.5c0.7,0.3,1.4,0.7,1.9,1.3c0.6,0.6,1,1.2,1.3,2s0.5,1.5,0.5,2.3v28.2  c0,0.8-0.2,1.6-0.5,2.3s-0.7,1.4-1.3,2s-1.2,1-1.9,1.3c-0.7,0.3-1.5,0.5-2.3,0.5H10.7c-0.8,0-1.6-0.2-2.3-0.5  c-0.7-0.3-1.4-0.7-1.9-1.3c-0.6-0.6-1-1.2-1.3-2c-0.3-0.7-0.5-1.5-0.5-2.3V47.9c0-0.8,0.2-1.6,0.5-2.3c0.3-0.7,0.7-1.4,1.3-2  c0.6-0.6,1.2-1,1.9-1.3C9.2,42,9.9,41.8,10.7,41.8z"
   class="st0" />
<path
   id="path847"
   d="M10.7,41.8h118.7c0.8,0,1.6,0.2,2.3,0.5c0.7,0.3,1.4,0.7,1.9,1.3c0.6,0.6,1,1.2,1.3,2s0.5,1.5,0.5,2.3v28.2  c0,0.8-0.2,1.6-0.5,2.3s-0.7,1.4-1.3,2s-1.2,1-1.9,1.3c-0.7,0.3-1.5,0.5-2.3,0.5H10.7c-0.8,0-1.6-0.2-2.3-0.5  c-0.7-0.3-1.4-0.7-1.9-1.3c-0.6-0.6-1-1.2-1.3-2c-0.3-0.7-0.5-1.5-0.5-2.3V47.9c0-0.8,0.2-1.6,0.5-2.3c0.3-0.7,0.7-1.4,1.3-2  c0.6-0.6,1.2-1,1.9-1.3C9.2,42,9.9,41.8,10.7,41.8z"
   class="st3" />
<text
   id="text849"
   class="st4 st5"
   transform="matrix(0.9908 0 0 1 7.8574 68.2007)">Crear población</text>
<line
   id="line851"
   y2="62"
   x2="423.7"
   y1="62"
   x1="338.6"
   class="st6" />
<polygon
   id="polygon853"
   points="431.3,62 421.2,67.1 423.7,62 421.2,56.8 " />
<polygon
   id="polygon855"
   points="431.3,62 421.2,67.1 423.7,62 421.2,56.8 "
   class="st6" />
<path
   id="path857"
   d="M199.4,41.8h133.2c0.8,0,1.6,0.2,2.3,0.5c0.7,0.3,1.4,0.7,1.9,1.3c0.6,0.6,1,1.2,1.3,2s0.5,1.5,0.5,2.3v28.2  c0,0.8-0.2,1.6-0.5,2.3s-0.7,1.4-1.3,2s-1.2,1-1.9,1.3c-0.7,0.3-1.5,0.5-2.3,0.5H199.4c-0.8,0-1.6-0.2-2.3-0.5  c-0.7-0.3-1.4-0.7-1.9-1.3s-1-1.2-1.3-2c-0.3-0.7-0.5-1.5-0.5-2.3V47.9c0-0.8,0.2-1.6,0.5-2.3c0.3-0.7,0.7-1.4,1.3-2  c0.6-0.6,1.2-1,1.9-1.3C197.9,42,198.7,41.8,199.4,41.8z"
   class="st0" />
<path
   id="path859"
   d="M199.4,41.8h133.2c0.8,0,1.6,0.2,2.3,0.5c0.7,0.3,1.4,0.7,1.9,1.3c0.6,0.6,1,1.2,1.3,2s0.5,1.5,0.5,2.3v28.2  c0,0.8-0.2,1.6-0.5,2.3s-0.7,1.4-1.3,2s-1.2,1-1.9,1.3c-0.7,0.3-1.5,0.5-2.3,0.5H199.4c-0.8,0-1.6-0.2-2.3-0.5  c-0.7-0.3-1.4-0.7-1.9-1.3s-1-1.2-1.3-2c-0.3-0.7-0.5-1.5-0.5-2.3V47.9c0-0.8,0.2-1.6,0.5-2.3c0.3-0.7,0.7-1.4,1.3-2  c0.6-0.6,1.2-1,1.9-1.3C197.9,42,198.7,41.8,199.4,41.8z"
   class="st3" />
<text
   id="text861"
   class="st4 st5"
   transform="matrix(0.9908 0 0 1 196.0635 68.2007)">Evaluar población</text>
<line
   id="line863"
   y2="151.9"
   x2="491"
   y1="116"
   x1="491"
   class="st6" />
<polygon
   id="polygon865"
   points="491,159.6 485.9,149.3 491,151.9 496.1,149.3 " />
<polygon
   id="polygon867"
   points="491,159.6 485.9,149.3 491,151.9 496.1,149.3 "
   class="st6" />
<polygon
   id="polygon869"
   points="549.8,63.4 549.8,60.6 626,60.6 656.8,60.3 656.8,55.7 671.8,61.6 656.9,67.8 656.9,63.2 626,63.5 "
   class="st7" />
<polyline
   id="polyline871"
   points="656.8,60.3 656.8,55.7 671.8,61.6 656.9,67.8 656.9,63.2 "
   class="st8" />
<polygon
   id="polygon873"
   points="491,8 549.1,62 491,116 433,62 "
   class="st0" />
<polygon
   id="polygon875"
   points="491,8 549.1,62 491,116 433,62 "
   class="st2" />
<text
   id="text877"
   class="st4 st5"
   transform="matrix(0.9908 0 0 1 450.1367 57.9438)">Criterio de</text>
<text
   id="text879"
   class="st4 st5"
   transform="matrix(0.9908 0 0 1 463.1787 78.4546)">parada</text>
<line
   id="line881"
   y2="233.9"
   x2="491"
   y1="214"
   x1="491"
   class="st6" />
<polygon
   id="polygon883"
   points="491,241.6 485.9,231.4 491,233.9 496.1,231.4 " />
<polygon
   id="polygon885"
   points="491,241.6 485.9,231.4 491,233.9 496.1,231.4 "
   class="st6" />
<path
   id="path887"
   d="M425,170h132.1c0.9,0,1.7,0.2,2.5,0.5c0.8,0.3,1.5,0.8,2.1,1.4c0.6,0.6,1.1,1.3,1.4,2.1  c0.3,0.8,0.5,1.6,0.5,2.5v30.8c0,0.9-0.2,1.7-0.5,2.5c-0.3,0.8-0.8,1.5-1.4,2.1c-0.6,0.6-1.3,1.1-2.1,1.4c-0.8,0.3-1.6,0.5-2.5,0.5  H425c-0.9,0-1.7-0.2-2.5-0.5c-0.8-0.3-1.5-0.8-2.1-1.4c-0.6-0.6-1.1-1.3-1.4-2.1c-0.3-0.8-0.5-1.6-0.5-2.5v-30.8  c0-0.9,0.2-1.7,0.5-2.5c0.3-0.8,0.8-1.5,1.4-2.1c0.6-0.6,1.3-1.1,2.1-1.4C423.3,170.2,424.1,170,425,170z"
   class="st0" />
<path
   id="path889"
   d="M425,170h132.1c0.9,0,1.7,0.2,2.5,0.5c0.8,0.3,1.5,0.8,2.1,1.4c0.6,0.6,1.1,1.3,1.4,2.1  c0.3,0.8,0.5,1.6,0.5,2.5v30.8c0,0.9-0.2,1.7-0.5,2.5c-0.3,0.8-0.8,1.5-1.4,2.1c-0.6,0.6-1.3,1.1-2.1,1.4c-0.8,0.3-1.6,0.5-2.5,0.5  H425c-0.9,0-1.7-0.2-2.5-0.5c-0.8-0.3-1.5-0.8-2.1-1.4c-0.6-0.6-1.1-1.3-1.4-2.1c-0.3-0.8-0.5-1.6-0.5-2.5v-30.8  c0-0.9,0.2-1.7,0.5-2.5c0.3-0.8,0.8-1.5,1.4-2.1c0.6-0.6,1.3-1.1,2.1-1.4C423.3,170.2,424.1,170,425,170z"
   class="st3" />
<text
   id="text891"
   class="st4 st5"
   transform="matrix(0.9908 0 0 1 452.541 198.5879)">Selección</text>
<line
   id="line893"
   y2="307.2"
   x2="491"
   y1="287.2"
   x1="491"
   class="st6" />
<polygon
   id="polygon895"
   points="491,314.9 485.9,304.6 491,307.2 496.1,304.6 " />
<polygon
   id="polygon897"
   points="491,314.9 485.9,304.6 491,307.2 496.1,304.6 "
   class="st6" />
<path
   id="path899"
   d="M432.2,243.3h117.6c0.9,0,1.7,0.2,2.5,0.5c0.8,0.3,1.5,0.8,2.1,1.4c0.6,0.6,1.1,1.3,1.4,2.1  c0.3,0.8,0.5,1.6,0.5,2.5v30.8c0,0.9-0.2,1.7-0.5,2.5c-0.3,0.8-0.8,1.5-1.4,2.1s-1.3,1.1-2.1,1.4c-0.8,0.3-1.6,0.5-2.5,0.5H432.2  c-0.9,0-1.7-0.2-2.5-0.5c-0.8-0.3-1.5-0.8-2.1-1.4c-0.6-0.6-1.1-1.3-1.4-2.1c-0.3-0.8-0.5-1.6-0.5-2.5v-30.8c0-0.9,0.2-1.7,0.5-2.5  c0.3-0.8,0.8-1.5,1.4-2.1c0.6-0.6,1.3-1.1,2.1-1.4C430.5,243.4,431.4,243.3,432.2,243.3z"
   class="st0" />
<path
   id="path901"
   d="M432.2,243.3h117.6c0.9,0,1.7,0.2,2.5,0.5c0.8,0.3,1.5,0.8,2.1,1.4c0.6,0.6,1.1,1.3,1.4,2.1  c0.3,0.8,0.5,1.6,0.5,2.5v30.8c0,0.9-0.2,1.7-0.5,2.5c-0.3,0.8-0.8,1.5-1.4,2.1s-1.3,1.1-2.1,1.4c-0.8,0.3-1.6,0.5-2.5,0.5H432.2  c-0.9,0-1.7-0.2-2.5-0.5c-0.8-0.3-1.5-0.8-2.1-1.4c-0.6-0.6-1.1-1.3-1.4-2.1c-0.3-0.8-0.5-1.6-0.5-2.5v-30.8c0-0.9,0.2-1.7,0.5-2.5  c0.3-0.8,0.8-1.5,1.4-2.1c0.6-0.6,1.3-1.1,2.1-1.4C430.5,243.4,431.4,243.3,432.2,243.3z"
   class="st3" />
<text
   id="text903"
   class="st4 st5"
   transform="matrix(0.9908 0 0 1 440.9277 271.8418)">Cruzamiento</text>
<line
   id="line905"
   y2="338.5"
   x2="362.4"
   y1="338.5"
   x1="425.7"
   class="st6" />
<polygon
   id="polygon907"
   points="354.8,338.5 364.9,333.4 362.4,338.5 364.9,343.6 " />
<polygon
   id="polygon909"
   points="354.8,338.5 364.9,333.4 362.4,338.5 364.9,343.6 "
   class="st6" />
<path
   id="path911"
   d="M432.2,316.5h117.6c0.9,0,1.7,0.2,2.5,0.5c0.8,0.3,1.5,0.8,2.1,1.4s1.1,1.3,1.4,2.1c0.3,0.8,0.5,1.6,0.5,2.5  v30.8c0,0.9-0.2,1.7-0.5,2.5c-0.3,0.8-0.8,1.5-1.4,2.1c-0.6,0.6-1.3,1.1-2.1,1.4c-0.8,0.3-1.6,0.5-2.5,0.5H432.2  c-0.9,0-1.7-0.2-2.5-0.5c-0.8-0.3-1.5-0.8-2.1-1.4c-0.6-0.6-1.1-1.3-1.4-2.1c-0.3-0.8-0.5-1.6-0.5-2.5v-30.8c0-0.9,0.2-1.7,0.5-2.5  c0.3-0.8,0.8-1.5,1.4-2.1c0.6-0.6,1.3-1.1,2.1-1.4C430.5,316.7,431.4,316.5,432.2,316.5z"
   class="st0" />
<path
   id="path913"
   d="M432.2,316.5h117.6c0.9,0,1.7,0.2,2.5,0.5c0.8,0.3,1.5,0.8,2.1,1.4s1.1,1.3,1.4,2.1c0.3,0.8,0.5,1.6,0.5,2.5  v30.8c0,0.9-0.2,1.7-0.5,2.5c-0.3,0.8-0.8,1.5-1.4,2.1c-0.6,0.6-1.3,1.1-2.1,1.4c-0.8,0.3-1.6,0.5-2.5,0.5H432.2  c-0.9,0-1.7-0.2-2.5-0.5c-0.8-0.3-1.5-0.8-2.1-1.4c-0.6-0.6-1.1-1.3-1.4-2.1c-0.3-0.8-0.5-1.6-0.5-2.5v-30.8c0-0.9,0.2-1.7,0.5-2.5  c0.3-0.8,0.8-1.5,1.4-2.1c0.6-0.6,1.3-1.1,2.1-1.4C430.5,316.7,431.4,316.5,432.2,316.5z"
   class="st3" />
<text
   id="text915"
   class="st4 st5"
   transform="matrix(0.9908 0 0 1 454.9443 345.0928)">Mutación</text>
<line
   id="line917"
   y2="91.5"
   x2="266"
   y1="309.2"
   x1="266"
   class="st6" />
<polygon
   id="polygon919"
   points="266,83.8 271.1,94 266,91.5 261,94 " />
<polygon
   id="polygon921"
   points="266,83.8 271.1,94 266,91.5 261,94 "
   class="st6" />
<path
   id="path923"
   d="M187.6,309.2h156.8c0.6,0,1.1,0.1,1.7,0.2c0.6,0.1,1.1,0.3,1.6,0.5c0.5,0.2,1,0.5,1.5,0.8  c0.5,0.3,0.9,0.7,1.3,1.1c0.4,0.4,0.8,0.9,1.1,1.3c0.3,0.5,0.6,1,0.8,1.5s0.4,1.1,0.5,1.6c0.1,0.6,0.2,1.1,0.2,1.7v41  c0,0.6-0.1,1.1-0.2,1.7c-0.1,0.6-0.3,1.1-0.5,1.6c-0.2,0.5-0.5,1-0.8,1.5c-0.3,0.5-0.7,0.9-1.1,1.3c-0.4,0.4-0.8,0.8-1.3,1.1  c-0.5,0.3-1,0.6-1.5,0.8c-0.5,0.2-1.1,0.4-1.6,0.5c-0.6,0.1-1.1,0.2-1.7,0.2H187.6c-0.6,0-1.1-0.1-1.7-0.2c-0.6-0.1-1.1-0.3-1.6-0.5  c-0.5-0.2-1-0.5-1.5-0.8c-0.5-0.3-0.9-0.7-1.3-1.1c-0.4-0.4-0.8-0.9-1.1-1.3c-0.3-0.5-0.6-1-0.8-1.5c-0.2-0.5-0.4-1.1-0.5-1.6  c-0.1-0.6-0.2-1.1-0.2-1.7v-41c0-0.6,0.1-1.1,0.2-1.7c0.1-0.6,0.3-1.1,0.5-1.6s0.5-1,0.8-1.5c0.3-0.5,0.7-0.9,1.1-1.3  c0.4-0.4,0.8-0.8,1.3-1.1c0.5-0.3,1-0.6,1.5-0.8c0.5-0.2,1.1-0.4,1.6-0.5C186.5,309.3,187.1,309.2,187.6,309.2z"
   class="st0" />
<path
   id="path925"
   d="M187.6,309.2h156.8c0.6,0,1.1,0.1,1.7,0.2c0.6,0.1,1.1,0.3,1.6,0.5c0.5,0.2,1,0.5,1.5,0.8  c0.5,0.3,0.9,0.7,1.3,1.1c0.4,0.4,0.8,0.9,1.1,1.3c0.3,0.5,0.6,1,0.8,1.5s0.4,1.1,0.5,1.6c0.1,0.6,0.2,1.1,0.2,1.7v41  c0,0.6-0.1,1.1-0.2,1.7c-0.1,0.6-0.3,1.1-0.5,1.6c-0.2,0.5-0.5,1-0.8,1.5c-0.3,0.5-0.7,0.9-1.1,1.3c-0.4,0.4-0.8,0.8-1.3,1.1  c-0.5,0.3-1,0.6-1.5,0.8c-0.5,0.2-1.1,0.4-1.6,0.5c-0.6,0.1-1.1,0.2-1.7,0.2H187.6c-0.6,0-1.1-0.1-1.7-0.2c-0.6-0.1-1.1-0.3-1.6-0.5  c-0.5-0.2-1-0.5-1.5-0.8c-0.5-0.3-0.9-0.7-1.3-1.1c-0.4-0.4-0.8-0.9-1.1-1.3c-0.3-0.5-0.6-1-0.8-1.5c-0.2-0.5-0.4-1.1-0.5-1.6  c-0.1-0.6-0.2-1.1-0.2-1.7v-41c0-0.6,0.1-1.1,0.2-1.7c0.1-0.6,0.3-1.1,0.5-1.6s0.5-1,0.8-1.5c0.3-0.5,0.7-0.9,1.1-1.3  c0.4-0.4,0.8-0.8,1.3-1.1c0.5-0.3,1-0.6,1.5-0.8c0.5-0.2,1.1-0.4,1.6-0.5C186.5,309.3,187.1,309.2,187.6,309.2z"
   class="st3" />
<text
   id="text927"
   class="st4 st5"
   transform="matrix(0.9908 0 0 1 183.499 334.8389)">Remplazar población</text>
<text
   id="text929"
   class="st4 st5"
   transform="matrix(0.9908 0 0 1 198.4902 355.3486)">por decendientes</text>
<text
   id="text931"
   class="st4 st5"
   transform="matrix(0.9908 0 0 1 562.3857 44.7583)">Si</text>
<text
   id="text933"
   class="st4 st5"
   transform="matrix(0.9908 0 0 1 500.9424 137.0571)">No</text>
<text
   id="text935"
   class="st4 st5"
   transform="matrix(0.9908 0 0 1 693.5264 57.9438)">Mejor</text>
<text
   id="text937"
   class="st4 st5"
   transform="matrix(0.9908 0 0 1 680.917 78.4546)">individuo</text>
</svg>
