<?xml version="1.0" encoding="utf-8"?>
<!-- Generator: Adobe Illustrator 24.0.1, SVG Export Plug-In . SVG Version: 6.00 Build 0)  -->
<svg version="1.0" id="Capa_1" xmlns="http://www.w3.org/2000/svg" xmlns:xlink="http://www.w3.org/1999/xlink" x="0px" y="0px"
	 viewBox="0 0 759 376.7" style="enable-background:new 0 0 759 376.7;" xml:space="preserve">
<style type="text/css">
	.st0{fill:#FFFFFF;}
	.st1{fill:#020203;}
	.st2{fill:none;stroke:#020203;stroke-width:0.7198;stroke-miterlimit:10;}
	.st3{fill:none;stroke:#020203;stroke-width:0.7198;}
	.st4{font-family:'Helvetica';}
	.st5{font-size:17.5806px;}
	.st6{fill:none;stroke:#000000;stroke-width:0.7198;stroke-miterlimit:10;}
	.st7{fill:none;stroke:#000000;stroke-width:0.7198;stroke-miterlimit:1.42;}
	.st8{fill:none;stroke:#000000;stroke-width:0.7198;}
</style>
<rect x="388" y="161.2" class="st0" width="206.1" height="208"/>
<path class="st1" d="M388,160.5h4.4v1.5H388V160.5z M387.2,167.1v-4.4h1.5v4.4H387.2z M387.2,175.9v-4.4h1.5v4.4H387.2z
	 M387.2,184.7v-4.4h1.5v4.4H387.2z M387.2,193.5v-4.4h1.5v4.4H387.2z M387.2,202.3v-4.4h1.5v4.4H387.2z M387.2,211v-4.4h1.5v4.4
	H387.2z M387.2,219.8v-4.4h1.5v4.4H387.2z M387.2,228.6v-4.4h1.5v4.4H387.2z M387.2,237.4V233h1.5v4.4H387.2z M387.2,246.2v-4.4h1.5
	v4.4H387.2z M387.2,255v-4.4h1.5v4.4H387.2z M387.2,263.8v-4.4h1.5v4.4H387.2z M387.2,272.6v-4.4h1.5v4.4H387.2z M387.2,281.4V277
	h1.5v4.4H387.2z M387.2,290.2v-4.4h1.5v4.4H387.2z M387.2,298.9v-4.4h1.5v4.4H387.2z M387.2,307.7v-4.4h1.5v4.4H387.2z M387.2,316.5
	v-4.4h1.5v4.4H387.2z M387.2,325.3v-4.4h1.5v4.4H387.2z M387.2,334.1v-4.4h1.5v4.4H387.2z M387.2,342.9v-4.4h1.5v4.4H387.2z
	 M387.2,351.7v-4.4h1.5v4.4H387.2z M387.2,360.5v-4.4h1.5v4.4H387.2z M387.2,369.3v-4.4h1.5v4.4H387.2z M396.7,370h-4.4v-1.5h4.4
	V370z M405.4,370H401v-1.5h4.4V370z M414.1,370h-4.4v-1.5h4.4V370z M422.8,370h-4.4v-1.5h4.4V370z M431.5,370h-4.4v-1.5h4.4V370z
	 M440.2,370h-4.4v-1.5h4.4V370z M448.9,370h-4.4v-1.5h4.4V370z M457.6,370h-4.4v-1.5h4.4V370z M466.4,370H462v-1.5h4.4V370z
	 M475.1,370h-4.4v-1.5h4.4V370z M483.8,370h-4.4v-1.5h4.4V370z M492.5,370h-4.4v-1.5h4.4V370z M501.2,370h-4.4v-1.5h4.4V370z
	 M509.9,370h-4.4v-1.5h4.4V370z M518.6,370h-4.4v-1.5h4.4V370z M527.3,370H523v-1.5h4.4V370z M536,370h-4.4v-1.5h4.4V370z
	 M544.7,370h-4.4v-1.5h4.4V370z M553.4,370h-4.4v-1.5h4.4V370z M562.2,370h-4.4v-1.5h4.4V370z M570.9,370h-4.4v-1.5h4.4V370z
	 M579.6,370h-4.4v-1.5h4.4V370z M588.3,370h-4.4v-1.5h4.4V370z M594.8,366.3v3.7h-2.2v-1.5h1.5v0.7h-0.7v-2.9H594.8z M594.8,357.5
	v4.4h-1.5v-4.4H594.8z M594.8,348.8v4.4h-1.5v-4.4H594.8z M594.8,340v4.4h-1.5V340H594.8z M594.8,331.2v4.4h-1.5v-4.4H594.8z
	 M594.8,322.4v4.4h-1.5v-4.4H594.8z M594.8,313.6v4.4h-1.5v-4.4H594.8z M594.8,304.8v4.4h-1.5v-4.4H594.8z M594.8,296v4.4h-1.5V296
	H594.8z M594.8,287.2v4.4h-1.5v-4.4H594.8z M594.8,278.4v4.4h-1.5v-4.4H594.8z M594.8,269.6v4.4h-1.5v-4.4H594.8z M594.8,260.9v4.4
	h-1.5v-4.4H594.8z M594.8,252.1v4.4h-1.5v-4.4H594.8z M594.8,243.3v4.4h-1.5v-4.4H594.8z M594.8,234.5v4.4h-1.5v-4.4H594.8z
	 M594.8,225.7v4.4h-1.5v-4.4H594.8z M594.8,216.9v4.4h-1.5v-4.4H594.8z M594.8,208.1v4.4h-1.5v-4.4H594.8z M594.8,199.3v4.4h-1.5
	v-4.4H594.8z M594.8,190.5v4.4h-1.5v-4.4H594.8z M594.8,181.7v4.4h-1.5v-4.4H594.8z M594.8,173v4.4h-1.5V173H594.8z M594.8,164.2
	v4.4h-1.5v-4.4H594.8z M588.3,160.5h4.4v1.5h-4.4V160.5z M579.6,160.5h4.4v1.5h-4.4V160.5z M570.9,160.5h4.4v1.5h-4.4V160.5z
	 M562.2,160.5h4.4v1.5h-4.4V160.5z M553.4,160.5h4.4v1.5h-4.4V160.5z M544.7,160.5h4.4v1.5h-4.4V160.5z M536,160.5h4.4v1.5H536
	V160.5z M527.3,160.5h4.4v1.5h-4.4V160.5z M518.6,160.5h4.4v1.5h-4.4V160.5z M509.9,160.5h4.4v1.5h-4.4V160.5z M501.2,160.5h4.4v1.5
	h-4.4V160.5z M492.5,160.5h4.4v1.5h-4.4V160.5z M483.8,160.5h4.4v1.5h-4.4V160.5z M475.1,160.5h4.4v1.5h-4.4V160.5z M466.4,160.5
	h4.4v1.5h-4.4V160.5z M457.6,160.5h4.4v1.5h-4.4V160.5z M448.9,160.5h4.4v1.5h-4.4V160.5z M440.2,160.5h4.4v1.5h-4.4V160.5z
	 M431.5,160.5h4.4v1.5h-4.4V160.5z M422.8,160.5h4.4v1.5h-4.4V160.5z M414.1,160.5h4.4v1.5h-4.4V160.5z M405.4,160.5h4.4v1.5h-4.4
	V160.5z M396.7,160.5h4.4v1.5h-4.4V160.5z"/>
<line class="st2" x1="135.4" y1="62" x2="184.2" y2="62"/>
<polygon class="st1" points="191.8,62 181.7,67.1 184.2,62 181.7,56.8 "/>
<polygon class="st2" points="191.8,62 181.7,67.1 184.2,62 181.7,56.8 "/>
<path class="st0" d="M10.7,41.8h118.7c0.8,0,1.6,0.2,2.3,0.5c0.7,0.3,1.4,0.7,1.9,1.3c0.6,0.6,1,1.2,1.3,2s0.5,1.5,0.5,2.3v28.2
	c0,0.8-0.2,1.6-0.5,2.3s-0.7,1.4-1.3,2s-1.2,1-1.9,1.3c-0.7,0.3-1.5,0.5-2.3,0.5H10.7c-0.8,0-1.6-0.2-2.3-0.5
	c-0.7-0.3-1.4-0.7-1.9-1.3c-0.6-0.6-1-1.2-1.3-2c-0.3-0.7-0.5-1.5-0.5-2.3V47.9c0-0.8,0.2-1.6,0.5-2.3c0.3-0.7,0.7-1.4,1.3-2
	c0.6-0.6,1.2-1,1.9-1.3C9.2,42,9.9,41.8,10.7,41.8z"/>
<path class="st3" d="M10.7,41.8h118.7c0.8,0,1.6,0.2,2.3,0.5c0.7,0.3,1.4,0.7,1.9,1.3c0.6,0.6,1,1.2,1.3,2s0.5,1.5,0.5,2.3v28.2
	c0,0.8-0.2,1.6-0.5,2.3s-0.7,1.4-1.3,2s-1.2,1-1.9,1.3c-0.7,0.3-1.5,0.5-2.3,0.5H10.7c-0.8,0-1.6-0.2-2.3-0.5
	c-0.7-0.3-1.4-0.7-1.9-1.3c-0.6-0.6-1-1.2-1.3-2c-0.3-0.7-0.5-1.5-0.5-2.3V47.9c0-0.8,0.2-1.6,0.5-2.3c0.3-0.7,0.7-1.4,1.3-2
	c0.6-0.6,1.2-1,1.9-1.3C9.2,42,9.9,41.8,10.7,41.8z"/>
<text transform="matrix(0.9908 0 0 1 7.8574 68.2007)" class="st4 st5">Crear población</text>
<line class="st6" x1="338.6" y1="62" x2="423.7" y2="62"/>
<polygon points="431.3,62 421.2,67.1 423.7,62 421.2,56.8 "/>
<polygon class="st6" points="431.3,62 421.2,67.1 423.7,62 421.2,56.8 "/>
<path class="st0" d="M199.4,41.8h133.2c0.8,0,1.6,0.2,2.3,0.5c0.7,0.3,1.4,0.7,1.9,1.3c0.6,0.6,1,1.2,1.3,2s0.5,1.5,0.5,2.3v28.2
	c0,0.8-0.2,1.6-0.5,2.3s-0.7,1.4-1.3,2s-1.2,1-1.9,1.3c-0.7,0.3-1.5,0.5-2.3,0.5H199.4c-0.8,0-1.6-0.2-2.3-0.5
	c-0.7-0.3-1.4-0.7-1.9-1.3s-1-1.2-1.3-2c-0.3-0.7-0.5-1.5-0.5-2.3V47.9c0-0.8,0.2-1.6,0.5-2.3c0.3-0.7,0.7-1.4,1.3-2
	c0.6-0.6,1.2-1,1.9-1.3C197.9,42,198.7,41.8,199.4,41.8z"/>
<path class="st3" d="M199.4,41.8h133.2c0.8,0,1.6,0.2,2.3,0.5c0.7,0.3,1.4,0.7,1.9,1.3c0.6,0.6,1,1.2,1.3,2s0.5,1.5,0.5,2.3v28.2
	c0,0.8-0.2,1.6-0.5,2.3s-0.7,1.4-1.3,2s-1.2,1-1.9,1.3c-0.7,0.3-1.5,0.5-2.3,0.5H199.4c-0.8,0-1.6-0.2-2.3-0.5
	c-0.7-0.3-1.4-0.7-1.9-1.3s-1-1.2-1.3-2c-0.3-0.7-0.5-1.5-0.5-2.3V47.9c0-0.8,0.2-1.6,0.5-2.3c0.3-0.7,0.7-1.4,1.3-2
	c0.6-0.6,1.2-1,1.9-1.3C197.9,42,198.7,41.8,199.4,41.8z"/>
<text transform="matrix(0.9908 0 0 1 196.0635 68.2007)" class="st4 st5">Evaluar población</text>
<line class="st6" x1="491" y1="116" x2="491" y2="151.9"/>
<polygon points="491,159.6 485.9,149.3 491,151.9 496.1,149.3 "/>
<polygon class="st6" points="491,159.6 485.9,149.3 491,151.9 496.1,149.3 "/>
<polygon class="st7" points="549.8,63.4 549.8,60.6 626,60.6 656.8,60.3 656.8,55.7 671.8,61.6 656.9,67.8 656.9,63.2 626,63.5 "/>
<polyline class="st8" points="656.8,60.3 656.8,55.7 671.8,61.6 656.9,67.8 656.9,63.2 "/>
<polygon class="st0" points="491,8 549.1,62 491,116 433,62 "/>
<polygon class="st2" points="491,8 549.1,62 491,116 433,62 "/>
<text transform="matrix(0.9908 0 0 1 450.1367 57.9438)" class="st4 st5">Criterio de</text>
<text transform="matrix(0.9908 0 0 1 463.1787 78.4546)" class="st4 st5">parada</text>
<line class="st6" x1="491" y1="214" x2="491" y2="233.9"/>
<polygon points="491,241.6 485.9,231.4 491,233.9 496.1,231.4 "/>
<polygon class="st6" points="491,241.6 485.9,231.4 491,233.9 496.1,231.4 "/>
<path class="st0" d="M425,170h132.1c0.9,0,1.7,0.2,2.5,0.5c0.8,0.3,1.5,0.8,2.1,1.4c0.6,0.6,1.1,1.3,1.4,2.1
	c0.3,0.8,0.5,1.6,0.5,2.5v30.8c0,0.9-0.2,1.7-0.5,2.5c-0.3,0.8-0.8,1.5-1.4,2.1c-0.6,0.6-1.3,1.1-2.1,1.4c-0.8,0.3-1.6,0.5-2.5,0.5
	H425c-0.9,0-1.7-0.2-2.5-0.5c-0.8-0.3-1.5-0.8-2.1-1.4c-0.6-0.6-1.1-1.3-1.4-2.1c-0.3-0.8-0.5-1.6-0.5-2.5v-30.8
	c0-0.9,0.2-1.7,0.5-2.5c0.3-0.8,0.8-1.5,1.4-2.1c0.6-0.6,1.3-1.1,2.1-1.4C423.3,170.2,424.1,170,425,170z"/>
<path class="st3" d="M425,170h132.1c0.9,0,1.7,0.2,2.5,0.5c0.8,0.3,1.5,0.8,2.1,1.4c0.6,0.6,1.1,1.3,1.4,2.1
	c0.3,0.8,0.5,1.6,0.5,2.5v30.8c0,0.9-0.2,1.7-0.5,2.5c-0.3,0.8-0.8,1.5-1.4,2.1c-0.6,0.6-1.3,1.1-2.1,1.4c-0.8,0.3-1.6,0.5-2.5,0.5
	H425c-0.9,0-1.7-0.2-2.5-0.5c-0.8-0.3-1.5-0.8-2.1-1.4c-0.6-0.6-1.1-1.3-1.4-2.1c-0.3-0.8-0.5-1.6-0.5-2.5v-30.8
	c0-0.9,0.2-1.7,0.5-2.5c0.3-0.8,0.8-1.5,1.4-2.1c0.6-0.6,1.3-1.1,2.1-1.4C423.3,170.2,424.1,170,425,170z"/>
<text transform="matrix(0.9908 0 0 1 452.541 198.5879)" class="st4 st5">Selección</text>
<line class="st6" x1="491" y1="287.2" x2="491" y2="307.2"/>
<polygon points="491,314.9 485.9,304.6 491,307.2 496.1,304.6 "/>
<polygon class="st6" points="491,314.9 485.9,304.6 491,307.2 496.1,304.6 "/>
<path class="st0" d="M432.2,243.3h117.6c0.9,0,1.7,0.2,2.5,0.5c0.8,0.3,1.5,0.8,2.1,1.4c0.6,0.6,1.1,1.3,1.4,2.1
	c0.3,0.8,0.5,1.6,0.5,2.5v30.8c0,0.9-0.2,1.7-0.5,2.5c-0.3,0.8-0.8,1.5-1.4,2.1s-1.3,1.1-2.1,1.4c-0.8,0.3-1.6,0.5-2.5,0.5H432.2
	c-0.9,0-1.7-0.2-2.5-0.5c-0.8-0.3-1.5-0.8-2.1-1.4c-0.6-0.6-1.1-1.3-1.4-2.1c-0.3-0.8-0.5-1.6-0.5-2.5v-30.8c0-0.9,0.2-1.7,0.5-2.5
	c0.3-0.8,0.8-1.5,1.4-2.1c0.6-0.6,1.3-1.1,2.1-1.4C430.5,243.4,431.4,243.3,432.2,243.3z"/>
<path class="st3" d="M432.2,243.3h117.6c0.9,0,1.7,0.2,2.5,0.5c0.8,0.3,1.5,0.8,2.1,1.4c0.6,0.6,1.1,1.3,1.4,2.1
	c0.3,0.8,0.5,1.6,0.5,2.5v30.8c0,0.9-0.2,1.7-0.5,2.5c-0.3,0.8-0.8,1.5-1.4,2.1s-1.3,1.1-2.1,1.4c-0.8,0.3-1.6,0.5-2.5,0.5H432.2
	c-0.9,0-1.7-0.2-2.5-0.5c-0.8-0.3-1.5-0.8-2.1-1.4c-0.6-0.6-1.1-1.3-1.4-2.1c-0.3-0.8-0.5-1.6-0.5-2.5v-30.8c0-0.9,0.2-1.7,0.5-2.5
	c0.3-0.8,0.8-1.5,1.4-2.1c0.6-0.6,1.3-1.1,2.1-1.4C430.5,243.4,431.4,243.3,432.2,243.3z"/>
<text transform="matrix(0.9908 0 0 1 440.9277 271.8418)" class="st4 st5">Cruzamiento</text>
<line class="st6" x1="425.7" y1="338.5" x2="362.4" y2="338.5"/>
<polygon points="354.8,338.5 364.9,333.4 362.4,338.5 364.9,343.6 "/>
<polygon class="st6" points="354.8,338.5 364.9,333.4 362.4,338.5 364.9,343.6 "/>
<path class="st0" d="M432.2,316.5h117.6c0.9,0,1.7,0.2,2.5,0.5c0.8,0.3,1.5,0.8,2.1,1.4s1.1,1.3,1.4,2.1c0.3,0.8,0.5,1.6,0.5,2.5
	v30.8c0,0.9-0.2,1.7-0.5,2.5c-0.3,0.8-0.8,1.5-1.4,2.1c-0.6,0.6-1.3,1.1-2.1,1.4c-0.8,0.3-1.6,0.5-2.5,0.5H432.2
	c-0.9,0-1.7-0.2-2.5-0.5c-0.8-0.3-1.5-0.8-2.1-1.4c-0.6-0.6-1.1-1.3-1.4-2.1c-0.3-0.8-0.5-1.6-0.5-2.5v-30.8c0-0.9,0.2-1.7,0.5-2.5
	c0.3-0.8,0.8-1.5,1.4-2.1c0.6-0.6,1.3-1.1,2.1-1.4C430.5,316.7,431.4,316.5,432.2,316.5z"/>
<path class="st3" d="M432.2,316.5h117.6c0.9,0,1.7,0.2,2.5,0.5c0.8,0.3,1.5,0.8,2.1,1.4s1.1,1.3,1.4,2.1c0.3,0.8,0.5,1.6,0.5,2.5
	v30.8c0,0.9-0.2,1.7-0.5,2.5c-0.3,0.8-0.8,1.5-1.4,2.1c-0.6,0.6-1.3,1.1-2.1,1.4c-0.8,0.3-1.6,0.5-2.5,0.5H432.2
	c-0.9,0-1.7-0.2-2.5-0.5c-0.8-0.3-1.5-0.8-2.1-1.4c-0.6-0.6-1.1-1.3-1.4-2.1c-0.3-0.8-0.5-1.6-0.5-2.5v-30.8c0-0.9,0.2-1.7,0.5-2.5
	c0.3-0.8,0.8-1.5,1.4-2.1c0.6-0.6,1.3-1.1,2.1-1.4C430.5,316.7,431.4,316.5,432.2,316.5z"/>
<text transform="matrix(0.9908 0 0 1 454.9443 345.0928)" class="st4 st5">Mutación</text>
<line class="st6" x1="266" y1="309.2" x2="266" y2="91.5"/>
<polygon points="266,83.8 271.1,94 266,91.5 261,94 "/>
<polygon class="st6" points="266,83.8 271.1,94 266,91.5 261,94 "/>
<path class="st0" d="M187.6,309.2h156.8c0.6,0,1.1,0.1,1.7,0.2c0.6,0.1,1.1,0.3,1.6,0.5c0.5,0.2,1,0.5,1.5,0.8
	c0.5,0.3,0.9,0.7,1.3,1.1c0.4,0.4,0.8,0.9,1.1,1.3c0.3,0.5,0.6,1,0.8,1.5s0.4,1.1,0.5,1.6c0.1,0.6,0.2,1.1,0.2,1.7v41
	c0,0.6-0.1,1.1-0.2,1.7c-0.1,0.6-0.3,1.1-0.5,1.6c-0.2,0.5-0.5,1-0.8,1.5c-0.3,0.5-0.7,0.9-1.1,1.3c-0.4,0.4-0.8,0.8-1.3,1.1
	c-0.5,0.3-1,0.6-1.5,0.8c-0.5,0.2-1.1,0.4-1.6,0.5c-0.6,0.1-1.1,0.2-1.7,0.2H187.6c-0.6,0-1.1-0.1-1.7-0.2c-0.6-0.1-1.1-0.3-1.6-0.5
	c-0.5-0.2-1-0.5-1.5-0.8c-0.5-0.3-0.9-0.7-1.3-1.1c-0.4-0.4-0.8-0.9-1.1-1.3c-0.3-0.5-0.6-1-0.8-1.5c-0.2-0.5-0.4-1.1-0.5-1.6
	c-0.1-0.6-0.2-1.1-0.2-1.7v-41c0-0.6,0.1-1.1,0.2-1.7c0.1-0.6,0.3-1.1,0.5-1.6s0.5-1,0.8-1.5c0.3-0.5,0.7-0.9,1.1-1.3
	c0.4-0.4,0.8-0.8,1.3-1.1c0.5-0.3,1-0.6,1.5-0.8c0.5-0.2,1.1-0.4,1.6-0.5C186.5,309.3,187.1,309.2,187.6,309.2z"/>
<path class="st3" d="M187.6,309.2h156.8c0.6,0,1.1,0.1,1.7,0.2c0.6,0.1,1.1,0.3,1.6,0.5c0.5,0.2,1,0.5,1.5,0.8
	c0.5,0.3,0.9,0.7,1.3,1.1c0.4,0.4,0.8,0.9,1.1,1.3c0.3,0.5,0.6,1,0.8,1.5s0.4,1.1,0.5,1.6c0.1,0.6,0.2,1.1,0.2,1.7v41
	c0,0.6-0.1,1.1-0.2,1.7c-0.1,0.6-0.3,1.1-0.5,1.6c-0.2,0.5-0.5,1-0.8,1.5c-0.3,0.5-0.7,0.9-1.1,1.3c-0.4,0.4-0.8,0.8-1.3,1.1
	c-0.5,0.3-1,0.6-1.5,0.8c-0.5,0.2-1.1,0.4-1.6,0.5c-0.6,0.1-1.1,0.2-1.7,0.2H187.6c-0.6,0-1.1-0.1-1.7-0.2c-0.6-0.1-1.1-0.3-1.6-0.5
	c-0.5-0.2-1-0.5-1.5-0.8c-0.5-0.3-0.9-0.7-1.3-1.1c-0.4-0.4-0.8-0.9-1.1-1.3c-0.3-0.5-0.6-1-0.8-1.5c-0.2-0.5-0.4-1.1-0.5-1.6
	c-0.1-0.6-0.2-1.1-0.2-1.7v-41c0-0.6,0.1-1.1,0.2-1.7c0.1-0.6,0.3-1.1,0.5-1.6s0.5-1,0.8-1.5c0.3-0.5,0.7-0.9,1.1-1.3
	c0.4-0.4,0.8-0.8,1.3-1.1c0.5-0.3,1-0.6,1.5-0.8c0.5-0.2,1.1-0.4,1.6-0.5C186.5,309.3,187.1,309.2,187.6,309.2z"/>
<text transform="matrix(0.9908 0 0 1 183.499 334.8389)" class="st4 st5">Remplazar población</text>
<text transform="matrix(0.9908 0 0 1 198.4902 355.3486)" class="st4 st5">por decendientes</text>
<text transform="matrix(0.9908 0 0 1 562.3857 44.7583)" class="st4 st5">Si</text>
<text transform="matrix(0.9908 0 0 1 500.9424 137.0571)" class="st4 st5">No</text>
<text transform="matrix(0.9908 0 0 1 693.5264 57.9438)" class="st4 st5">Mejor</text>
<text transform="matrix(0.9908 0 0 1 680.917 78.4546)" class="st4 st5">individuo</text>
</svg>
