<?xml version="1.0" encoding="utf-8"?>
<!-- Generator: Adobe Illustrator 24.0.1, SVG Export Plug-In . SVG Version: 6.00 Build 0)  -->
<svg version="1.1" xmlns="http://www.w3.org/2000/svg" xmlns:xlink="http://www.w3.org/1999/xlink" x="0px" y="0px"
	 viewBox="0 0 436.7 257" style="enable-background:new 0 0 436.7 257;" xml:space="preserve">
<style type="text/css">
	.st0{fill:none;stroke:#000000;stroke-width:1.5;stroke-miterlimit:14.3;}
	.st1{fill-rule:evenodd;clip-rule:evenodd;}
	.st2{fill:none;stroke:#000000;stroke-miterlimit:11.5;}
	.st3{fill:none;stroke:#000000;stroke-width:0.5;stroke-miterlimit:43;}
	.st4{fill:none;stroke:#000000;stroke-width:0.5;stroke-miterlimit:11.5;}
	.st5{fill:#FFFFFF;}
	.st6{fill:#F0F0F0;}
	.st7{fill:#E1E1E1;}
	.st8{fill:#D2D2D2;}
	.st9{font-family:'TimesNewRomanPSMT';}
	.st10{font-size:7px;}
	.st11{fill:none;}
</style>
<g id="Capa_1">
	<line class="st0" x1="43.9" y1="213.7" x2="404.4" y2="213.7"/>
	<path class="st1" d="M401.1,215.9C401.1,215.9,401.1,215.9,401.1,215.9l6.6-2.2c0,0-5.1-1.8-6.5-2.2c0.6,0.6,1,1.3,1,2.2
		C402.1,214.6,401.7,215.3,401.1,215.9"/>
	<line class="st0" x1="44.6" y1="214.3" x2="44.6" y2="22.1"/>
	<path class="st1" d="M47,25.3C47,25.3,47,25.3,47,25.3l-2.2-6.3c0,0-1.9,5-2.3,6.3c0.6-0.6,1.4-0.9,2.3-0.9
		C45.6,24.3,46.4,24.7,47,25.3"/>
	<path d="M250.2,111.7c0,1.5-1.3,2.6-3,2.6c-1.6,0-3-1.2-3-2.6c0-1.5,1.3-2.6,3-2.6C248.9,109.1,250.2,110.2,250.2,111.7"/>
	<path class="st2" d="M250.2,111.7c0,1.5-1.3,2.6-3,2.6c-1.6,0-3-1.2-3-2.6c0-1.5,1.3-2.6,3-2.6
		C248.9,109.1,250.2,110.2,250.2,111.7z"/>
	<path d="M258,106c0,1.5-1.3,2.6-3,2.6c-1.6,0-3-1.2-3-2.6c0-1.5,1.3-2.6,3-2.6C256.7,103.3,258,104.5,258,106"/>
	<path class="st2" d="M258,106c0,1.5-1.3,2.6-3,2.6c-1.6,0-3-1.2-3-2.6c0-1.5,1.3-2.6,3-2.6C256.7,103.3,258,104.5,258,106z"/>
	<path d="M242.5,117.9c0,1.5-1.3,2.6-3,2.6s-3-1.2-3-2.6c0-1.5,1.3-2.6,3-2.6S242.5,116.4,242.5,117.9"/>
	<path class="st2" d="M242.5,117.9c0,1.5-1.3,2.6-3,2.6s-3-1.2-3-2.6c0-1.5,1.3-2.6,3-2.6S242.5,116.4,242.5,117.9z"/>
	<line class="st3" x1="271.1" y1="83.9" x2="273.4" y2="83.9"/>
	<path d="M277.7,83.8c-1,0.2-5.2,1.5-5.2,1.5l0.4-1.4l-0.5-1.4C272.4,82.5,276.7,83.7,277.7,83.8"/>
	<line class="st3" x1="80.2" y1="172.5" x2="82.5" y2="172.5"/>
	<path d="M86.7,172.4c-1,0.2-5.2,1.5-5.2,1.5l0.4-1.4l-0.5-1.4C81.5,171.1,85.7,172.3,86.7,172.4"/>
	<line class="st3" x1="106.9" y1="177.1" x2="109.2" y2="177.1"/>
	<path d="M113.5,176.9c-1,0.2-5.2,1.5-5.2,1.5l0.4-1.4l-0.5-1.4C108.2,175.6,112.5,176.8,113.5,176.9"/>
	<line class="st3" x1="133.9" y1="180" x2="136.2" y2="180"/>
	<path d="M140.5,179.9c-1,0.2-5.2,1.5-5.2,1.5l0.4-1.4l-0.5-1.4C135.3,178.6,139.5,179.8,140.5,179.9"/>
	<rect x="60.1" y="166.1" width="20.2" height="12.6"/>
	<rect x="60.1" y="166.1" class="st4" width="20.2" height="12.6"/>
	<rect x="59.2" y="165.2" class="st5" width="20.2" height="12.6"/>
	<rect x="59.2" y="165.2" class="st4" width="20.2" height="12.6"/>
	<rect x="87.4" y="169.1" width="20.2" height="12.6"/>
	<rect x="87.4" y="169.1" class="st4" width="20.2" height="12.6"/>
	<rect x="86.5" y="168.2" class="st6" width="20.2" height="12.6"/>
	<rect x="86.5" y="168.2" class="st4" width="20.2" height="12.6"/>
	<rect x="114.4" y="172.6" width="20.2" height="12.6"/>
	<rect x="114.4" y="172.6" class="st4" width="20.2" height="12.6"/>
	<rect x="113.5" y="171.7" class="st7" width="20.2" height="12.6"/>
	<rect x="113.5" y="171.7" class="st4" width="20.2" height="12.6"/>
	<rect x="141.3" y="176.1" width="20.2" height="12.6"/>
	<rect x="141.3" y="176.1" class="st4" width="20.2" height="12.6"/>
	<rect x="140.4" y="175.2" class="st8" width="20.2" height="12.6"/>
	<rect x="140.4" y="175.2" class="st4" width="20.2" height="12.6"/>
	<line class="st3" x1="165" y1="135.7" x2="167.3" y2="135.7"/>
	<path d="M171.5,135.6c-1,0.2-5.2,1.5-5.2,1.5l0.4-1.4l-0.5-1.4C166.3,134.3,170.5,135.5,171.5,135.6"/>
	<line class="st3" x1="191.7" y1="140.3" x2="194" y2="140.3"/>
	<path d="M198.3,140.2c-1,0.2-5.2,1.5-5.2,1.5l0.4-1.4l-0.5-1.4C193,138.9,197.3,140,198.3,140.2"/>
	<line class="st3" x1="218.8" y1="143.3" x2="221" y2="143.3"/>
	<path d="M225.3,143.1c-1,0.2-5.2,1.5-5.2,1.5l0.4-1.4l-0.5-1.4C220.1,141.8,224.3,143,225.3,143.1"/>
	<rect x="144.9" y="129.3" width="20.2" height="12.6"/>
	<rect x="144.9" y="129.3" class="st4" width="20.2" height="12.6"/>
	<rect x="144" y="128.4" class="st5" width="20.2" height="12.6"/>
	<rect x="144" y="128.4" class="st4" width="20.2" height="12.6"/>
	<rect x="172.2" y="132.3" width="20.2" height="12.6"/>
	<rect x="172.2" y="132.3" class="st4" width="20.2" height="12.6"/>
	<rect x="171.3" y="131.5" class="st6" width="20.2" height="12.6"/>
	<rect x="171.3" y="131.5" class="st4" width="20.2" height="12.6"/>
	<rect x="199.2" y="135.8" width="20.2" height="12.6"/>
	<rect x="199.2" y="135.8" class="st4" width="20.2" height="12.6"/>
	<rect x="198.3" y="135" class="st7" width="20.2" height="12.6"/>
	<rect x="198.3" y="135" class="st4" width="20.2" height="12.6"/>
	<rect x="226.1" y="139.3" width="20.2" height="12.6"/>
	<rect x="226.1" y="139.3" class="st4" width="20.2" height="12.6"/>
	<rect x="225.2" y="138.5" class="st8" width="20.2" height="12.6"/>
	<rect x="225.2" y="138.5" class="st4" width="20.2" height="12.6"/>
	<line class="st3" x1="297.7" y1="88" x2="300" y2="88"/>
	<path d="M304.3,87.8c-1,0.2-5.2,1.5-5.2,1.5l0.4-1.4l-0.5-1.4C299.1,86.5,303.3,87.7,304.3,87.8"/>
	<line class="st3" x1="324.8" y1="90.9" x2="327" y2="90.9"/>
	<path d="M331.3,90.8c-1,0.2-5.2,1.5-5.2,1.5l0.4-1.4l-0.5-1.4C326.1,89.5,330.3,90.7,331.3,90.8"/>
	<rect x="250.9" y="77" width="20.2" height="12.6"/>
	<rect x="250.9" y="77" class="st4" width="20.2" height="12.6"/>
	<rect x="250" y="76.1" class="st5" width="20.2" height="12.6"/>
	<rect x="250" y="76.1" class="st4" width="20.2" height="12.6"/>
	<rect x="278.2" y="80" width="20.2" height="12.6"/>
	<rect x="278.2" y="80" class="st4" width="20.2" height="12.6"/>
	<rect x="277.3" y="79.2" class="st6" width="20.2" height="12.6"/>
	<rect x="277.3" y="79.2" class="st4" width="20.2" height="12.6"/>
	<rect x="305.2" y="83.5" width="20.2" height="12.6"/>
	<rect x="305.2" y="83.5" class="st4" width="20.2" height="12.6"/>
	<rect x="304.3" y="82.7" class="st7" width="20.2" height="12.6"/>
	<rect x="304.3" y="82.7" class="st4" width="20.2" height="12.6"/>
	<rect x="332.1" y="87" width="20.2" height="12.6"/>
	<rect x="332.1" y="87" class="st4" width="20.2" height="12.6"/>
	<rect x="331.2" y="86.1" class="st8" width="20.2" height="12.6"/>
	<rect x="331.2" y="86.1" class="st4" width="20.2" height="12.6"/>
	<rect x="62.4" y="25" class="st5" width="10.9" height="10.5"/>
	<rect x="62.4" y="25" class="st4" width="10.9" height="10.5"/>
	<rect x="62.4" y="40.4" class="st6" width="10.9" height="10.5"/>
	<rect x="62.4" y="40.4" class="st4" width="10.9" height="10.5"/>
	<rect x="61.7" y="56.2" class="st7" width="10.9" height="10.5"/>
	<rect x="61.7" y="56.2" class="st4" width="10.9" height="10.5"/>
	<rect x="62.4" y="72" class="st8" width="10.9" height="10.5"/>
	<rect x="62.4" y="72" class="st4" width="10.9" height="10.5"/>
</g>
<g id="Capa_1_copia">
	<line class="st0" x1="43.9" y1="213.7" x2="404.4" y2="213.7"/>
	<path class="st1" d="M401.1,215.9C401.1,215.9,401.1,215.9,401.1,215.9l6.6-2.2c0,0-5.1-1.8-6.5-2.2c0.6,0.6,1,1.3,1,2.2
		C402.1,214.6,401.7,215.3,401.1,215.9"/>
	<line class="st0" x1="44.6" y1="214.3" x2="44.6" y2="22.1"/>
	<path class="st1" d="M47,25.3C47,25.3,47,25.3,47,25.3l-2.2-6.3c0,0-1.9,5-2.3,6.3c0.6-0.6,1.4-0.9,2.3-0.9
		C45.6,24.3,46.4,24.7,47,25.3"/>
	<path d="M250.2,111.7c0,1.5-1.3,2.6-3,2.6c-1.6,0-3-1.2-3-2.6c0-1.5,1.3-2.6,3-2.6C248.9,109.1,250.2,110.2,250.2,111.7"/>
	<path class="st2" d="M250.2,111.7c0,1.5-1.3,2.6-3,2.6c-1.6,0-3-1.2-3-2.6c0-1.5,1.3-2.6,3-2.6
		C248.9,109.1,250.2,110.2,250.2,111.7z"/>
	<path d="M258,106c0,1.5-1.3,2.6-3,2.6c-1.6,0-3-1.2-3-2.6c0-1.5,1.3-2.6,3-2.6C256.7,103.3,258,104.5,258,106"/>
	<path class="st2" d="M258,106c0,1.5-1.3,2.6-3,2.6c-1.6,0-3-1.2-3-2.6c0-1.5,1.3-2.6,3-2.6C256.7,103.3,258,104.5,258,106z"/>
	<path d="M242.5,117.9c0,1.5-1.3,2.6-3,2.6s-3-1.2-3-2.6c0-1.5,1.3-2.6,3-2.6S242.5,116.4,242.5,117.9"/>
	<path class="st2" d="M242.5,117.9c0,1.5-1.3,2.6-3,2.6s-3-1.2-3-2.6c0-1.5,1.3-2.6,3-2.6S242.5,116.4,242.5,117.9z"/>
	<line class="st3" x1="271.1" y1="83.9" x2="273.4" y2="83.9"/>
	<path d="M277.7,83.8c-1,0.2-5.2,1.5-5.2,1.5l0.4-1.4l-0.5-1.4C272.4,82.5,276.7,83.7,277.7,83.8"/>
	<line class="st3" x1="80.2" y1="172.5" x2="82.5" y2="172.5"/>
	<path d="M86.7,172.4c-1,0.2-5.2,1.5-5.2,1.5l0.4-1.4l-0.5-1.4C81.5,171.1,85.7,172.3,86.7,172.4"/>
	<line class="st3" x1="106.9" y1="177.1" x2="109.2" y2="177.1"/>
	<path d="M113.5,176.9c-1,0.2-5.2,1.5-5.2,1.5l0.4-1.4l-0.5-1.4C108.2,175.6,112.5,176.8,113.5,176.9"/>
	<line class="st3" x1="133.9" y1="180" x2="136.2" y2="180"/>
	<path d="M140.5,179.9c-1,0.2-5.2,1.5-5.2,1.5l0.4-1.4l-0.5-1.4C135.3,178.6,139.5,179.8,140.5,179.9"/>
	<rect x="60.1" y="166.1" width="20.2" height="12.6"/>
	<rect x="60.1" y="166.1" class="st4" width="20.2" height="12.6"/>
	<rect x="59.2" y="165.2" class="st5" width="20.2" height="12.6"/>
	<rect x="59.2" y="165.2" class="st4" width="20.2" height="12.6"/>
	<rect x="87.4" y="169.1" width="20.2" height="12.6"/>
	<rect x="87.4" y="169.1" class="st4" width="20.2" height="12.6"/>
	<rect x="86.5" y="168.2" class="st6" width="20.2" height="12.6"/>
	<rect x="86.5" y="168.2" class="st4" width="20.2" height="12.6"/>
	<rect x="114.4" y="172.6" width="20.2" height="12.6"/>
	<rect x="114.4" y="172.6" class="st4" width="20.2" height="12.6"/>
	<rect x="113.5" y="171.7" class="st7" width="20.2" height="12.6"/>
	<rect x="113.5" y="171.7" class="st4" width="20.2" height="12.6"/>
	<rect x="141.3" y="176.1" width="20.2" height="12.6"/>
	<rect x="141.3" y="176.1" class="st4" width="20.2" height="12.6"/>
	<rect x="140.4" y="175.2" class="st8" width="20.2" height="12.6"/>
	<rect x="140.4" y="175.2" class="st4" width="20.2" height="12.6"/>
	<line class="st3" x1="165" y1="135.7" x2="167.3" y2="135.7"/>
	<path d="M171.5,135.6c-1,0.2-5.2,1.5-5.2,1.5l0.4-1.4l-0.5-1.4C166.3,134.3,170.5,135.5,171.5,135.6"/>
	<line class="st3" x1="191.7" y1="140.3" x2="194" y2="140.3"/>
	<path d="M198.3,140.2c-1,0.2-5.2,1.5-5.2,1.5l0.4-1.4l-0.5-1.4C193,138.9,197.3,140,198.3,140.2"/>
	<line class="st3" x1="218.8" y1="143.3" x2="221" y2="143.3"/>
	<path d="M225.3,143.1c-1,0.2-5.2,1.5-5.2,1.5l0.4-1.4l-0.5-1.4C220.1,141.8,224.3,143,225.3,143.1"/>
	<rect x="144.9" y="129.3" width="20.2" height="12.6"/>
	<rect x="144.9" y="129.3" class="st4" width="20.2" height="12.6"/>
	<rect x="144" y="128.4" class="st5" width="20.2" height="12.6"/>
	<rect x="144" y="128.4" class="st4" width="20.2" height="12.6"/>
	<rect x="172.2" y="132.3" width="20.2" height="12.6"/>
	<rect x="172.2" y="132.3" class="st4" width="20.2" height="12.6"/>
	<rect x="171.3" y="131.5" class="st6" width="20.2" height="12.6"/>
	<rect x="171.3" y="131.5" class="st4" width="20.2" height="12.6"/>
	<rect x="199.2" y="135.8" width="20.2" height="12.6"/>
	<rect x="199.2" y="135.8" class="st4" width="20.2" height="12.6"/>
	<rect x="198.3" y="135" class="st7" width="20.2" height="12.6"/>
	<rect x="198.3" y="135" class="st4" width="20.2" height="12.6"/>
	<rect x="226.1" y="139.3" width="20.2" height="12.6"/>
	<rect x="226.1" y="139.3" class="st4" width="20.2" height="12.6"/>
	<rect x="225.2" y="138.5" class="st8" width="20.2" height="12.6"/>
	<rect x="225.2" y="138.5" class="st4" width="20.2" height="12.6"/>
	<line class="st3" x1="297.7" y1="88" x2="300" y2="88"/>
	<path d="M304.3,87.8c-1,0.2-5.2,1.5-5.2,1.5l0.4-1.4l-0.5-1.4C299.1,86.5,303.3,87.7,304.3,87.8"/>
	<line class="st3" x1="324.8" y1="90.9" x2="327" y2="90.9"/>
	<path d="M331.3,90.8c-1,0.2-5.2,1.5-5.2,1.5l0.4-1.4l-0.5-1.4C326.1,89.5,330.3,90.7,331.3,90.8"/>
	<rect x="250.9" y="77" width="20.2" height="12.6"/>
	<rect x="250.9" y="77" class="st4" width="20.2" height="12.6"/>
	<rect x="250" y="76.1" class="st5" width="20.2" height="12.6"/>
	<rect x="250" y="76.1" class="st4" width="20.2" height="12.6"/>
	<rect x="278.2" y="80" width="20.2" height="12.6"/>
	<rect x="278.2" y="80" class="st4" width="20.2" height="12.6"/>
	<rect x="277.3" y="79.2" class="st6" width="20.2" height="12.6"/>
	<rect x="277.3" y="79.2" class="st4" width="20.2" height="12.6"/>
	<rect x="305.2" y="83.5" width="20.2" height="12.6"/>
	<rect x="305.2" y="83.5" class="st4" width="20.2" height="12.6"/>
	<rect x="304.3" y="82.7" class="st7" width="20.2" height="12.6"/>
	<rect x="304.3" y="82.7" class="st4" width="20.2" height="12.6"/>
	<rect x="332.1" y="87" width="20.2" height="12.6"/>
	<rect x="332.1" y="87" class="st4" width="20.2" height="12.6"/>
	<rect x="331.2" y="86.1" class="st8" width="20.2" height="12.6"/>
	<rect x="331.2" y="86.1" class="st4" width="20.2" height="12.6"/>
	<rect x="62.4" y="25" class="st5" width="10.9" height="10.5"/>
	<rect x="62.4" y="25" class="st4" width="10.9" height="10.5"/>
	<rect x="62.4" y="40.4" class="st6" width="10.9" height="10.5"/>
	<rect x="62.4" y="40.4" class="st4" width="10.9" height="10.5"/>
	<rect x="61.7" y="56.2" class="st7" width="10.9" height="10.5"/>
	<rect x="61.7" y="56.2" class="st4" width="10.9" height="10.5"/>
	<rect x="62.4" y="72" class="st8" width="10.9" height="10.5"/>
	<rect x="62.4" y="72" class="st4" width="10.9" height="10.5"/>
	<text transform="matrix(1 0 0 1 174.0664 187)"><tspan x="0" y="0" class="st9 st10">Entrega del</tspan><tspan x="0" y="8.4" class="st9 st10">primer incremento</tspan></text>
	<text transform="matrix(1 0 0 1 51.6665 158.2)" class="st9 st10">Incremento n° 1</text>
	<text transform="matrix(1 0 0 1 76.9819 33.3509)" class="st9 st10">Requisitos</text>
	<text transform="matrix(1 0 0 1 76.9818 48.7151)" class="st9 st10">Diseño</text>
	<text transform="matrix(1 0 0 1 76.9822 64.546)" class="st9 st10">Implementación</text>
	<text transform="matrix(1 0 0 1 76.9819 80.3771)" class="st9 st10">Pruebas</text>
	<polygon class="st11" points="76.9,150.4 90.1,150.4 90.1,150.4 76.9,150.4 	"/>
	<text transform="matrix(1 0 0 1 114.3861 120.5141)" class="st9 st10">Incremento n° 2</text>
	<text transform="matrix(1 0 0 1 221.4663 67.6001)" class="st9 st10">Incremento n° n</text>
	<text transform="matrix(1 0 0 1 255.0272 151.9493)"><tspan x="0" y="0" class="st9 st10">Entrega del</tspan><tspan x="0" y="8.4" class="st9 st10">segundo incremento</tspan></text>
	<text transform="matrix(1 0 0 1 362.1563 93.33)"><tspan x="0" y="0" class="st9 st10">Entrega del</tspan><tspan x="0" y="8.4" class="st9 st10">n-ésimo incremento</tspan></text>
	<text transform="matrix(0 -1 1 0 39.4641 180.8594)" class="st9 st10">Funcionalidades y características del sofware</text>
	<text transform="matrix(1 0 0 1 187.2666 222.4001)" class="st9 st10">Tiempo</text>
</g>
</svg>
