<?xml version="1.0" encoding="UTF-8" standalone="no"?>
<svg
   xmlns:dc="http://purl.org/dc/elements/1.1/"
   xmlns:cc="http://creativecommons.org/ns#"
   xmlns:rdf="http://www.w3.org/1999/02/22-rdf-syntax-ns#"
   xmlns:svg="http://www.w3.org/2000/svg"
   xmlns="http://www.w3.org/2000/svg"
   xmlns:sodipodi="http://sodipodi.sourceforge.net/DTD/sodipodi-0.dtd"
   xmlns:inkscape="http://www.inkscape.org/namespaces/inkscape"
   inkscape:version="1.0 (4035a4fb49, 2020-05-01)"
   height="224.8083"
   width="418.53351"
   sodipodi:docname="iedevelopment-v2.svg"
   id="svg2384"
   xml:space="preserve"
   viewBox="0 0 418.5335 224.8083"
   y="0px"
   x="0px"
   version="1.1"><metadata
   id="metadata2390"><rdf:RDF><cc:Work
       rdf:about=""><dc:format>image/svg+xml</dc:format><dc:type
         rdf:resource="http://purl.org/dc/dcmitype/StillImage" /><dc:title></dc:title></cc:Work></rdf:RDF></metadata><defs
   id="defs2388" /><sodipodi:namedview
   inkscape:current-layer="svg2384"
   inkscape:window-maximized="1"
   inkscape:window-y="-8"
   inkscape:window-x="-8"
   inkscape:cy="119.5"
   inkscape:cx="194.61442"
   inkscape:zoom="2.5953683"
   fit-margin-bottom="10"
   fit-margin-right="10"
   fit-margin-left="10"
   fit-margin-top="10"
   showgrid="false"
   id="namedview2386"
   inkscape:window-height="1017"
   inkscape:window-width="1920"
   inkscape:pageshadow="2"
   inkscape:pageopacity="0"
   guidetolerance="10"
   gridtolerance="10"
   objecttolerance="10"
   borderopacity="1"
   bordercolor="#666666"
   pagecolor="#ffffff" />
<style
   id="style2006"
   type="text/css">
	.st0{fill:none;stroke:#000000;stroke-width:1.5;stroke-miterlimit:14.3;}
	.st1{fill-rule:evenodd;clip-rule:evenodd;}
	.st2{fill:none;stroke:#000000;stroke-miterlimit:11.5;}
	.st3{fill:none;stroke:#000000;stroke-width:0.5;stroke-miterlimit:43;}
	.st4{fill:none;stroke:#000000;stroke-width:0.5;stroke-miterlimit:11.5;}
	.st5{fill:#FFFFFF;}
	.st6{fill:#F0F0F0;}
	.st7{fill:#E1E1E1;}
	.st8{fill:#D2D2D2;}
	.st9{font-family:'TimesNewRomanPSMT';}
	.st10{font-size:7px;}
	.st11{fill:none;}
</style>
<g
   transform="translate(-23.735584,-9)"
   id="Capa_1">
	<line
   id="line2008"
   y2="213.7"
   x2="404.39999"
   y1="213.7"
   x1="43.900002"
   class="st0" />
	<path
   id="path2010"
   d="m 401.1,215.9 c 0,0 0,0 0,0 l 6.6,-2.2 c 0,0 -5.1,-1.8 -6.5,-2.2 0.6,0.6 1,1.3 1,2.2 -0.1,0.9 -0.5,1.6 -1.1,2.2"
   class="st1" />
	<line
   id="line2012"
   y2="22.1"
   x2="44.599998"
   y1="214.3"
   x1="44.599998"
   class="st0" />
	<path
   id="path2014"
   d="m 47,25.3 c 0,0 0,0 0,0 L 44.8,19 c 0,0 -1.9,5 -2.3,6.3 0.6,-0.6 1.4,-0.9 2.3,-0.9 0.8,-0.1 1.6,0.3 2.2,0.9"
   class="st1" />
	<path
   id="path2016"
   d="m 250.2,111.7 c 0,1.5 -1.3,2.6 -3,2.6 -1.6,0 -3,-1.2 -3,-2.6 0,-1.5 1.3,-2.6 3,-2.6 1.7,0 3,1.1 3,2.6" />
	<path
   id="path2018"
   d="m 250.2,111.7 c 0,1.5 -1.3,2.6 -3,2.6 -1.6,0 -3,-1.2 -3,-2.6 0,-1.5 1.3,-2.6 3,-2.6 1.7,0 3,1.1 3,2.6 z"
   class="st2" />
	<path
   id="path2020"
   d="m 258,106 c 0,1.5 -1.3,2.6 -3,2.6 -1.6,0 -3,-1.2 -3,-2.6 0,-1.5 1.3,-2.6 3,-2.6 1.7,-0.1 3,1.1 3,2.6" />
	<path
   id="path2022"
   d="m 258,106 c 0,1.5 -1.3,2.6 -3,2.6 -1.6,0 -3,-1.2 -3,-2.6 0,-1.5 1.3,-2.6 3,-2.6 1.7,-0.1 3,1.1 3,2.6 z"
   class="st2" />
	<path
   id="path2024"
   d="m 242.5,117.9 c 0,1.5 -1.3,2.6 -3,2.6 -1.7,0 -3,-1.2 -3,-2.6 0,-1.5 1.3,-2.6 3,-2.6 1.7,0 3,1.1 3,2.6" />
	<path
   id="path2026"
   d="m 242.5,117.9 c 0,1.5 -1.3,2.6 -3,2.6 -1.7,0 -3,-1.2 -3,-2.6 0,-1.5 1.3,-2.6 3,-2.6 1.7,0 3,1.1 3,2.6 z"
   class="st2" />
	<line
   id="line2028"
   y2="83.900002"
   x2="273.39999"
   y1="83.900002"
   x1="271.10001"
   class="st3" />
	<path
   id="path2030"
   d="m 277.7,83.8 c -1,0.2 -5.2,1.5 -5.2,1.5 l 0.4,-1.4 -0.5,-1.4 c 0,0 4.3,1.2 5.3,1.3" />
	<line
   id="line2032"
   y2="172.5"
   x2="82.5"
   y1="172.5"
   x1="80.199997"
   class="st3" />
	<path
   id="path2034"
   d="m 86.7,172.4 c -1,0.2 -5.2,1.5 -5.2,1.5 l 0.4,-1.4 -0.5,-1.4 c 0.1,0 4.3,1.2 5.3,1.3" />
	<line
   id="line2036"
   y2="177.10001"
   x2="109.2"
   y1="177.10001"
   x1="106.9"
   class="st3" />
	<path
   id="path2038"
   d="m 113.5,176.9 c -1,0.2 -5.2,1.5 -5.2,1.5 l 0.4,-1.4 -0.5,-1.4 c 0,0 4.3,1.2 5.3,1.3" />
	<line
   id="line2040"
   y2="180"
   x2="136.2"
   y1="180"
   x1="133.89999"
   class="st3" />
	<path
   id="path2042"
   d="m 140.5,179.9 c -1,0.2 -5.2,1.5 -5.2,1.5 l 0.4,-1.4 -0.5,-1.4 c 0.1,0 4.3,1.2 5.3,1.3" />
	<rect
   id="rect2044"
   height="12.6"
   width="20.200001"
   y="166.10001"
   x="60.099998" />
	<rect
   id="rect2046"
   height="12.6"
   width="20.200001"
   class="st4"
   y="166.10001"
   x="60.099998" />
	<rect
   id="rect2048"
   height="12.6"
   width="20.200001"
   class="st5"
   y="165.2"
   x="59.200001" />
	<rect
   id="rect2050"
   height="12.6"
   width="20.200001"
   class="st4"
   y="165.2"
   x="59.200001" />
	<rect
   id="rect2052"
   height="12.6"
   width="20.200001"
   y="169.10001"
   x="87.400002" />
	<rect
   id="rect2054"
   height="12.6"
   width="20.200001"
   class="st4"
   y="169.10001"
   x="87.400002" />
	<rect
   id="rect2056"
   height="12.6"
   width="20.200001"
   class="st6"
   y="168.2"
   x="86.5" />
	<rect
   id="rect2058"
   height="12.6"
   width="20.200001"
   class="st4"
   y="168.2"
   x="86.5" />
	<rect
   id="rect2060"
   height="12.6"
   width="20.200001"
   y="172.60001"
   x="114.4" />
	<rect
   id="rect2062"
   height="12.6"
   width="20.200001"
   class="st4"
   y="172.60001"
   x="114.4" />
	<rect
   id="rect2064"
   height="12.6"
   width="20.200001"
   class="st7"
   y="171.7"
   x="113.5" />
	<rect
   id="rect2066"
   height="12.6"
   width="20.200001"
   class="st4"
   y="171.7"
   x="113.5" />
	<rect
   id="rect2068"
   height="12.6"
   width="20.200001"
   y="176.10001"
   x="141.3" />
	<rect
   id="rect2070"
   height="12.6"
   width="20.200001"
   class="st4"
   y="176.10001"
   x="141.3" />
	<rect
   id="rect2072"
   height="12.6"
   width="20.200001"
   class="st8"
   y="175.2"
   x="140.39999" />
	<rect
   id="rect2074"
   height="12.6"
   width="20.200001"
   class="st4"
   y="175.2"
   x="140.39999" />
	<line
   id="line2076"
   y2="135.7"
   x2="167.3"
   y1="135.7"
   x1="165"
   class="st3" />
	<path
   id="path2078"
   d="m 171.5,135.6 c -1,0.2 -5.2,1.5 -5.2,1.5 l 0.4,-1.4 -0.5,-1.4 c 0.1,0 4.3,1.2 5.3,1.3" />
	<line
   id="line2080"
   y2="140.3"
   x2="194"
   y1="140.3"
   x1="191.7"
   class="st3" />
	<path
   id="path2082"
   d="m 198.3,140.2 c -1,0.2 -5.2,1.5 -5.2,1.5 l 0.4,-1.4 -0.5,-1.4 c 0,0 4.3,1.1 5.3,1.3" />
	<line
   id="line2084"
   y2="143.3"
   x2="221"
   y1="143.3"
   x1="218.8"
   class="st3" />
	<path
   id="path2086"
   d="m 225.3,143.1 c -1,0.2 -5.2,1.5 -5.2,1.5 l 0.4,-1.4 -0.5,-1.4 c 0.1,0 4.3,1.2 5.3,1.3" />
	<rect
   id="rect2088"
   height="12.6"
   width="20.200001"
   y="129.3"
   x="144.89999" />
	<rect
   id="rect2090"
   height="12.6"
   width="20.200001"
   class="st4"
   y="129.3"
   x="144.89999" />
	<rect
   id="rect2092"
   height="12.6"
   width="20.200001"
   class="st5"
   y="128.39999"
   x="144" />
	<rect
   id="rect2094"
   height="12.6"
   width="20.200001"
   class="st4"
   y="128.39999"
   x="144" />
	<rect
   id="rect2096"
   height="12.6"
   width="20.200001"
   y="132.3"
   x="172.2" />
	<rect
   id="rect2098"
   height="12.6"
   width="20.200001"
   class="st4"
   y="132.3"
   x="172.2" />
	<rect
   id="rect2100"
   height="12.6"
   width="20.200001"
   class="st6"
   y="131.5"
   x="171.3" />
	<rect
   id="rect2102"
   height="12.6"
   width="20.200001"
   class="st4"
   y="131.5"
   x="171.3" />
	<rect
   id="rect2104"
   height="12.6"
   width="20.200001"
   y="135.8"
   x="199.2" />
	<rect
   id="rect2106"
   height="12.6"
   width="20.200001"
   class="st4"
   y="135.8"
   x="199.2" />
	<rect
   id="rect2108"
   height="12.6"
   width="20.200001"
   class="st7"
   y="135"
   x="198.3" />
	<rect
   id="rect2110"
   height="12.6"
   width="20.200001"
   class="st4"
   y="135"
   x="198.3" />
	<rect
   id="rect2112"
   height="12.6"
   width="20.200001"
   y="139.3"
   x="226.10001" />
	<rect
   id="rect2114"
   height="12.6"
   width="20.200001"
   class="st4"
   y="139.3"
   x="226.10001" />
	<rect
   id="rect2116"
   height="12.6"
   width="20.200001"
   class="st8"
   y="138.5"
   x="225.2" />
	<rect
   id="rect2118"
   height="12.6"
   width="20.200001"
   class="st4"
   y="138.5"
   x="225.2" />
	<line
   id="line2120"
   y2="88"
   x2="300"
   y1="88"
   x1="297.70001"
   class="st3" />
	<path
   id="path2122"
   d="m 304.3,87.8 c -1,0.2 -5.2,1.5 -5.2,1.5 l 0.4,-1.4 -0.5,-1.4 c 0.1,0 4.3,1.2 5.3,1.3" />
	<line
   id="line2124"
   y2="90.900002"
   x2="327"
   y1="90.900002"
   x1="324.79999"
   class="st3" />
	<path
   id="path2126"
   d="m 331.3,90.8 c -1,0.2 -5.2,1.5 -5.2,1.5 l 0.4,-1.4 -0.5,-1.4 c 0.1,0 4.3,1.2 5.3,1.3" />
	<rect
   id="rect2128"
   height="12.6"
   width="20.200001"
   y="77"
   x="250.89999" />
	<rect
   id="rect2130"
   height="12.6"
   width="20.200001"
   class="st4"
   y="77"
   x="250.89999" />
	<rect
   id="rect2132"
   height="12.6"
   width="20.200001"
   class="st5"
   y="76.099998"
   x="250" />
	<rect
   id="rect2134"
   height="12.6"
   width="20.200001"
   class="st4"
   y="76.099998"
   x="250" />
	<rect
   id="rect2136"
   height="12.6"
   width="20.200001"
   y="80"
   x="278.20001" />
	<rect
   id="rect2138"
   height="12.6"
   width="20.200001"
   class="st4"
   y="80"
   x="278.20001" />
	<rect
   id="rect2140"
   height="12.6"
   width="20.200001"
   class="st6"
   y="79.199997"
   x="277.29999" />
	<rect
   id="rect2142"
   height="12.6"
   width="20.200001"
   class="st4"
   y="79.199997"
   x="277.29999" />
	<rect
   id="rect2144"
   height="12.6"
   width="20.200001"
   y="83.5"
   x="305.20001" />
	<rect
   id="rect2146"
   height="12.6"
   width="20.200001"
   class="st4"
   y="83.5"
   x="305.20001" />
	<rect
   id="rect2148"
   height="12.6"
   width="20.200001"
   class="st7"
   y="82.699997"
   x="304.29999" />
	<rect
   id="rect2150"
   height="12.6"
   width="20.200001"
   class="st4"
   y="82.699997"
   x="304.29999" />
	<rect
   id="rect2152"
   height="12.6"
   width="20.200001"
   y="87"
   x="332.10001" />
	<rect
   id="rect2154"
   height="12.6"
   width="20.200001"
   class="st4"
   y="87"
   x="332.10001" />
	<rect
   id="rect2156"
   height="12.6"
   width="20.200001"
   class="st8"
   y="86.099998"
   x="331.20001" />
	<rect
   id="rect2158"
   height="12.6"
   width="20.200001"
   class="st4"
   y="86.099998"
   x="331.20001" />
	<rect
   id="rect2160"
   height="10.5"
   width="10.9"
   class="st5"
   y="25"
   x="62.400002" />
	<rect
   id="rect2162"
   height="10.5"
   width="10.9"
   class="st4"
   y="25"
   x="62.400002" />
	<rect
   id="rect2164"
   height="10.5"
   width="10.9"
   class="st6"
   y="40.400002"
   x="62.400002" />
	<rect
   id="rect2166"
   height="10.5"
   width="10.9"
   class="st4"
   y="40.400002"
   x="62.400002" />
	<rect
   id="rect2168"
   height="10.5"
   width="10.9"
   class="st7"
   y="56.200001"
   x="61.700001" />
	<rect
   id="rect2170"
   height="10.5"
   width="10.9"
   class="st4"
   y="56.200001"
   x="61.700001" />
	<rect
   id="rect2172"
   height="10.5"
   width="10.9"
   class="st8"
   y="72"
   x="62.400002" />
	<rect
   id="rect2174"
   height="10.5"
   width="10.9"
   class="st4"
   y="72"
   x="62.400002" />
</g>
<g
   transform="translate(-23.735584,-9)"
   id="Capa_1_copia">
	<line
   id="line2177"
   y2="213.7"
   x2="404.39999"
   y1="213.7"
   x1="43.900002"
   class="st0" />
	<path
   id="path2179"
   d="m 401.1,215.9 c 0,0 0,0 0,0 l 6.6,-2.2 c 0,0 -5.1,-1.8 -6.5,-2.2 0.6,0.6 1,1.3 1,2.2 -0.1,0.9 -0.5,1.6 -1.1,2.2"
   class="st1" />
	<line
   id="line2181"
   y2="22.1"
   x2="44.599998"
   y1="214.3"
   x1="44.599998"
   class="st0" />
	<path
   id="path2183"
   d="m 47,25.3 c 0,0 0,0 0,0 L 44.8,19 c 0,0 -1.9,5 -2.3,6.3 0.6,-0.6 1.4,-0.9 2.3,-0.9 0.8,-0.1 1.6,0.3 2.2,0.9"
   class="st1" />
	<path
   id="path2185"
   d="m 250.2,111.7 c 0,1.5 -1.3,2.6 -3,2.6 -1.6,0 -3,-1.2 -3,-2.6 0,-1.5 1.3,-2.6 3,-2.6 1.7,0 3,1.1 3,2.6" />
	<path
   id="path2187"
   d="m 250.2,111.7 c 0,1.5 -1.3,2.6 -3,2.6 -1.6,0 -3,-1.2 -3,-2.6 0,-1.5 1.3,-2.6 3,-2.6 1.7,0 3,1.1 3,2.6 z"
   class="st2" />
	<path
   id="path2189"
   d="m 258,106 c 0,1.5 -1.3,2.6 -3,2.6 -1.6,0 -3,-1.2 -3,-2.6 0,-1.5 1.3,-2.6 3,-2.6 1.7,-0.1 3,1.1 3,2.6" />
	<path
   id="path2191"
   d="m 258,106 c 0,1.5 -1.3,2.6 -3,2.6 -1.6,0 -3,-1.2 -3,-2.6 0,-1.5 1.3,-2.6 3,-2.6 1.7,-0.1 3,1.1 3,2.6 z"
   class="st2" />
	<path
   id="path2193"
   d="m 242.5,117.9 c 0,1.5 -1.3,2.6 -3,2.6 -1.7,0 -3,-1.2 -3,-2.6 0,-1.5 1.3,-2.6 3,-2.6 1.7,0 3,1.1 3,2.6" />
	<path
   id="path2195"
   d="m 242.5,117.9 c 0,1.5 -1.3,2.6 -3,2.6 -1.7,0 -3,-1.2 -3,-2.6 0,-1.5 1.3,-2.6 3,-2.6 1.7,0 3,1.1 3,2.6 z"
   class="st2" />
	<line
   id="line2197"
   y2="83.900002"
   x2="273.39999"
   y1="83.900002"
   x1="271.10001"
   class="st3" />
	<path
   id="path2199"
   d="m 277.7,83.8 c -1,0.2 -5.2,1.5 -5.2,1.5 l 0.4,-1.4 -0.5,-1.4 c 0,0 4.3,1.2 5.3,1.3" />
	<line
   id="line2201"
   y2="172.5"
   x2="82.5"
   y1="172.5"
   x1="80.199997"
   class="st3" />
	<path
   id="path2203"
   d="m 86.7,172.4 c -1,0.2 -5.2,1.5 -5.2,1.5 l 0.4,-1.4 -0.5,-1.4 c 0.1,0 4.3,1.2 5.3,1.3" />
	<line
   id="line2205"
   y2="177.10001"
   x2="109.2"
   y1="177.10001"
   x1="106.9"
   class="st3" />
	<path
   id="path2207"
   d="m 113.5,176.9 c -1,0.2 -5.2,1.5 -5.2,1.5 l 0.4,-1.4 -0.5,-1.4 c 0,0 4.3,1.2 5.3,1.3" />
	<line
   id="line2209"
   y2="180"
   x2="136.2"
   y1="180"
   x1="133.89999"
   class="st3" />
	<path
   id="path2211"
   d="m 140.5,179.9 c -1,0.2 -5.2,1.5 -5.2,1.5 l 0.4,-1.4 -0.5,-1.4 c 0.1,0 4.3,1.2 5.3,1.3" />
	<rect
   id="rect2213"
   height="12.6"
   width="20.200001"
   y="166.10001"
   x="60.099998" />
	<rect
   id="rect2215"
   height="12.6"
   width="20.200001"
   class="st4"
   y="166.10001"
   x="60.099998" />
	<rect
   id="rect2217"
   height="12.6"
   width="20.200001"
   class="st5"
   y="165.2"
   x="59.200001" />
	<rect
   id="rect2219"
   height="12.6"
   width="20.200001"
   class="st4"
   y="165.2"
   x="59.200001" />
	<rect
   id="rect2221"
   height="12.6"
   width="20.200001"
   y="169.10001"
   x="87.400002" />
	<rect
   id="rect2223"
   height="12.6"
   width="20.200001"
   class="st4"
   y="169.10001"
   x="87.400002" />
	<rect
   id="rect2225"
   height="12.6"
   width="20.200001"
   class="st6"
   y="168.2"
   x="86.5" />
	<rect
   id="rect2227"
   height="12.6"
   width="20.200001"
   class="st4"
   y="168.2"
   x="86.5" />
	<rect
   id="rect2229"
   height="12.6"
   width="20.200001"
   y="172.60001"
   x="114.4" />
	<rect
   id="rect2231"
   height="12.6"
   width="20.200001"
   class="st4"
   y="172.60001"
   x="114.4" />
	<rect
   id="rect2233"
   height="12.6"
   width="20.200001"
   class="st7"
   y="171.7"
   x="113.5" />
	<rect
   id="rect2235"
   height="12.6"
   width="20.200001"
   class="st4"
   y="171.7"
   x="113.5" />
	<rect
   id="rect2237"
   height="12.6"
   width="20.200001"
   y="176.10001"
   x="141.3" />
	<rect
   id="rect2239"
   height="12.6"
   width="20.200001"
   class="st4"
   y="176.10001"
   x="141.3" />
	<rect
   id="rect2241"
   height="12.6"
   width="20.200001"
   class="st8"
   y="175.2"
   x="140.39999" />
	<rect
   id="rect2243"
   height="12.6"
   width="20.200001"
   class="st4"
   y="175.2"
   x="140.39999" />
	<line
   id="line2245"
   y2="135.7"
   x2="167.3"
   y1="135.7"
   x1="165"
   class="st3" />
	<path
   id="path2247"
   d="m 171.5,135.6 c -1,0.2 -5.2,1.5 -5.2,1.5 l 0.4,-1.4 -0.5,-1.4 c 0.1,0 4.3,1.2 5.3,1.3" />
	<line
   id="line2249"
   y2="140.3"
   x2="194"
   y1="140.3"
   x1="191.7"
   class="st3" />
	<path
   id="path2251"
   d="m 198.3,140.2 c -1,0.2 -5.2,1.5 -5.2,1.5 l 0.4,-1.4 -0.5,-1.4 c 0,0 4.3,1.1 5.3,1.3" />
	<line
   id="line2253"
   y2="143.3"
   x2="221"
   y1="143.3"
   x1="218.8"
   class="st3" />
	<path
   id="path2255"
   d="m 225.3,143.1 c -1,0.2 -5.2,1.5 -5.2,1.5 l 0.4,-1.4 -0.5,-1.4 c 0.1,0 4.3,1.2 5.3,1.3" />
	<rect
   id="rect2257"
   height="12.6"
   width="20.200001"
   y="129.3"
   x="144.89999" />
	<rect
   id="rect2259"
   height="12.6"
   width="20.200001"
   class="st4"
   y="129.3"
   x="144.89999" />
	<rect
   id="rect2261"
   height="12.6"
   width="20.200001"
   class="st5"
   y="128.39999"
   x="144" />
	<rect
   id="rect2263"
   height="12.6"
   width="20.200001"
   class="st4"
   y="128.39999"
   x="144" />
	<rect
   id="rect2265"
   height="12.6"
   width="20.200001"
   y="132.3"
   x="172.2" />
	<rect
   id="rect2267"
   height="12.6"
   width="20.200001"
   class="st4"
   y="132.3"
   x="172.2" />
	<rect
   id="rect2269"
   height="12.6"
   width="20.200001"
   class="st6"
   y="131.5"
   x="171.3" />
	<rect
   id="rect2271"
   height="12.6"
   width="20.200001"
   class="st4"
   y="131.5"
   x="171.3" />
	<rect
   id="rect2273"
   height="12.6"
   width="20.200001"
   y="135.8"
   x="199.2" />
	<rect
   id="rect2275"
   height="12.6"
   width="20.200001"
   class="st4"
   y="135.8"
   x="199.2" />
	<rect
   id="rect2277"
   height="12.6"
   width="20.200001"
   class="st7"
   y="135"
   x="198.3" />
	<rect
   id="rect2279"
   height="12.6"
   width="20.200001"
   class="st4"
   y="135"
   x="198.3" />
	<rect
   id="rect2281"
   height="12.6"
   width="20.200001"
   y="139.3"
   x="226.10001" />
	<rect
   id="rect2283"
   height="12.6"
   width="20.200001"
   class="st4"
   y="139.3"
   x="226.10001" />
	<rect
   id="rect2285"
   height="12.6"
   width="20.200001"
   class="st8"
   y="138.5"
   x="225.2" />
	<rect
   id="rect2287"
   height="12.6"
   width="20.200001"
   class="st4"
   y="138.5"
   x="225.2" />
	<line
   id="line2289"
   y2="88"
   x2="300"
   y1="88"
   x1="297.70001"
   class="st3" />
	<path
   id="path2291"
   d="m 304.3,87.8 c -1,0.2 -5.2,1.5 -5.2,1.5 l 0.4,-1.4 -0.5,-1.4 c 0.1,0 4.3,1.2 5.3,1.3" />
	<line
   id="line2293"
   y2="90.900002"
   x2="327"
   y1="90.900002"
   x1="324.79999"
   class="st3" />
	<path
   id="path2295"
   d="m 331.3,90.8 c -1,0.2 -5.2,1.5 -5.2,1.5 l 0.4,-1.4 -0.5,-1.4 c 0.1,0 4.3,1.2 5.3,1.3" />
	<rect
   id="rect2297"
   height="12.6"
   width="20.200001"
   y="77"
   x="250.89999" />
	<rect
   id="rect2299"
   height="12.6"
   width="20.200001"
   class="st4"
   y="77"
   x="250.89999" />
	<rect
   id="rect2301"
   height="12.6"
   width="20.200001"
   class="st5"
   y="76.099998"
   x="250" />
	<rect
   id="rect2303"
   height="12.6"
   width="20.200001"
   class="st4"
   y="76.099998"
   x="250" />
	<rect
   id="rect2305"
   height="12.6"
   width="20.200001"
   y="80"
   x="278.20001" />
	<rect
   id="rect2307"
   height="12.6"
   width="20.200001"
   class="st4"
   y="80"
   x="278.20001" />
	<rect
   id="rect2309"
   height="12.6"
   width="20.200001"
   class="st6"
   y="79.199997"
   x="277.29999" />
	<rect
   id="rect2311"
   height="12.6"
   width="20.200001"
   class="st4"
   y="79.199997"
   x="277.29999" />
	<rect
   id="rect2313"
   height="12.6"
   width="20.200001"
   y="83.5"
   x="305.20001" />
	<rect
   id="rect2315"
   height="12.6"
   width="20.200001"
   class="st4"
   y="83.5"
   x="305.20001" />
	<rect
   id="rect2317"
   height="12.6"
   width="20.200001"
   class="st7"
   y="82.699997"
   x="304.29999" />
	<rect
   id="rect2319"
   height="12.6"
   width="20.200001"
   class="st4"
   y="82.699997"
   x="304.29999" />
	<rect
   id="rect2321"
   height="12.6"
   width="20.200001"
   y="87"
   x="332.10001" />
	<rect
   id="rect2323"
   height="12.6"
   width="20.200001"
   class="st4"
   y="87"
   x="332.10001" />
	<rect
   id="rect2325"
   height="12.6"
   width="20.200001"
   class="st8"
   y="86.099998"
   x="331.20001" />
	<rect
   id="rect2327"
   height="12.6"
   width="20.200001"
   class="st4"
   y="86.099998"
   x="331.20001" />
	<rect
   id="rect2329"
   height="10.5"
   width="10.9"
   class="st5"
   y="25"
   x="62.400002" />
	<rect
   id="rect2331"
   height="10.5"
   width="10.9"
   class="st4"
   y="25"
   x="62.400002" />
	<rect
   id="rect2333"
   height="10.5"
   width="10.9"
   class="st6"
   y="40.400002"
   x="62.400002" />
	<rect
   id="rect2335"
   height="10.5"
   width="10.9"
   class="st4"
   y="40.400002"
   x="62.400002" />
	<rect
   id="rect2337"
   height="10.5"
   width="10.9"
   class="st7"
   y="56.200001"
   x="61.700001" />
	<rect
   id="rect2339"
   height="10.5"
   width="10.9"
   class="st4"
   y="56.200001"
   x="61.700001" />
	<rect
   id="rect2341"
   height="10.5"
   width="10.9"
   class="st8"
   y="72"
   x="62.400002" />
	<rect
   id="rect2343"
   height="10.5"
   width="10.9"
   class="st4"
   y="72"
   x="62.400002" />
	<text
   id="text2349"
   transform="translate(174.0664,187)"><tspan
     id="tspan2345"
     class="st9 st10"
     y="0"
     x="0">Entrega del</tspan><tspan
     id="tspan2347"
     class="st9 st10"
     y="8.3999996"
     x="0">primer incremento</tspan></text>
	<text
   id="text2351"
   class="st9 st10"
   transform="translate(51.6665,158.2)">Incremento n° 1</text>
	<text
   id="text2353"
   class="st9 st10"
   transform="translate(76.9819,33.3509)">Requisitos</text>
	<text
   id="text2355"
   class="st9 st10"
   transform="translate(76.9818,48.7151)">Diseño</text>
	<text
   id="text2357"
   class="st9 st10"
   transform="translate(76.9822,64.546)">Implementación</text>
	<text
   id="text2359"
   class="st9 st10"
   transform="translate(76.9819,80.3771)">Pruebas</text>
	<polygon
   id="polygon2361"
   points="90.1,150.4 76.9,150.4 "
   class="st11" />
	<text
   id="text2363"
   class="st9 st10"
   transform="translate(114.3861,120.5141)">Incremento n° 2</text>
	<text
   id="text2365"
   class="st9 st10"
   transform="translate(221.4663,67.6001)">Incremento n° n</text>
	<text
   id="text2371"
   transform="translate(255.0272,151.9493)"><tspan
     id="tspan2367"
     class="st9 st10"
     y="0"
     x="0">Entrega del</tspan><tspan
     id="tspan2369"
     class="st9 st10"
     y="8.3999996"
     x="0">segundo incremento</tspan></text>
	<text
   id="text2377"
   transform="translate(362.1563,93.33)"><tspan
     id="tspan2373"
     class="st9 st10"
     y="0"
     x="0">Entrega del</tspan><tspan
     id="tspan2375"
     class="st9 st10"
     y="8.3999996"
     x="0">n-ésimo incremento</tspan></text>
	<text
   id="text2379"
   class="st9 st10"
   transform="rotate(-90,110.16175,70.69765)">Funcionalidades y características del sofware</text>
	<text
   id="text2381"
   class="st9 st10"
   transform="translate(187.2666,222.4001)">Tiempo</text>
</g>
</svg>
