<?xml version="1.0" encoding="utf-8"?>
<!-- Generator: Adobe Illustrator 24.0.1, SVG Export Plug-In . SVG Version: 6.00 Build 0)  -->
<svg version="1.0" id="Capa_1" xmlns="http://www.w3.org/2000/svg" xmlns:xlink="http://www.w3.org/1999/xlink" x="0px" y="0px"
	 viewBox="0 0 570 282" style="enable-background:new 0 0 570 282;" xml:space="preserve">
<style type="text/css">
	.st0{fill:#FFFFFF;}
	.st1{fill:#020203;}
	.st2{fill:none;stroke:#020203;stroke-width:0.5398;stroke-miterlimit:10;}
	.st3{clip-path:url(#SVGID_2_);fill:none;stroke:#020203;stroke-width:0.5398;}
	.st4{fill:none;stroke:#000000;stroke-width:0.5398;stroke-miterlimit:10;}
	.st5{fill:none;stroke:#020203;stroke-width:0.5398;}
	.st6{fill:none;stroke:#000000;stroke-width:0.5398;stroke-miterlimit:1.42;}
	.st7{fill:none;stroke:#000000;stroke-width:0.5398;}
	.st8{clip-path:url(#SVGID_4_);fill:none;stroke:#020203;stroke-width:0.5398;stroke-miterlimit:10;}
	.st9{fill:#FFFF00;}
	.st10{fill:none;stroke:#020203;stroke-width:0.5386;}
</style>
<g>
	<rect x="291.7" y="120.3" class="st0" width="154.6" height="156"/>
	<path class="st1" d="M291.7,119.7h3.3v1.1h-3.3V119.7z M291.1,124.7v-3.3h1.1v3.3H291.1z M291.1,131.3V128h1.1v3.3H291.1z
		 M291.1,137.9v-3.3h1.1v3.3H291.1z M291.1,144.5v-3.3h1.1v3.3H291.1z M291.1,151.1v-3.3h1.1v3.3H291.1z M291.1,157.6v-3.3h1.1v3.3
		H291.1z M291.1,164.2v-3.3h1.1v3.3H291.1z M291.1,170.8v-3.3h1.1v3.3H291.1z M291.1,177.4v-3.3h1.1v3.3H291.1z M291.1,184v-3.3h1.1
		v3.3H291.1z M291.1,190.6v-3.3h1.1v3.3H291.1z M291.1,197.2v-3.3h1.1v3.3H291.1z M291.1,203.8v-3.3h1.1v3.3H291.1z M291.1,210.4
		v-3.3h1.1v3.3H291.1z M291.1,217v-3.3h1.1v3.3H291.1z M291.1,223.5v-3.3h1.1v3.3H291.1z M291.1,230.1v-3.3h1.1v3.3H291.1z
		 M291.1,236.7v-3.3h1.1v3.3H291.1z M291.1,243.3V240h1.1v3.3H291.1z M291.1,249.9v-3.3h1.1v3.3H291.1z M291.1,256.5v-3.3h1.1v3.3
		H291.1z M291.1,263.1v-3.3h1.1v3.3H291.1z M291.1,269.7v-3.3h1.1v3.3H291.1z M291.1,276.3V273h1.1v3.3H291.1z M298.3,276.9H295
		v-1.1h3.3V276.9z M304.8,276.9h-3.3v-1.1h3.3V276.9z M311.3,276.9H308v-1.1h3.3V276.9z M317.8,276.9h-3.3v-1.1h3.3V276.9z
		 M324.4,276.9h-3.3v-1.1h3.3V276.9z M330.9,276.9h-3.3v-1.1h3.3V276.9z M337.4,276.9h-3.3v-1.1h3.3V276.9z M343.9,276.9h-3.3v-1.1
		h3.3V276.9z M350.5,276.9h-3.3v-1.1h3.3V276.9z M357.1,276.9h-3.3v-1.1h3.3V276.9z M363.6,276.9h-3.3v-1.1h3.3V276.9z M370.1,276.9
		h-3.3v-1.1h3.3V276.9z M376.6,276.9h-3.3v-1.1h3.3V276.9z M383.2,276.9h-3.3v-1.1h3.3V276.9z M389.7,276.9h-3.3v-1.1h3.3V276.9z
		 M396.2,276.9H393v-1.1h3.3L396.2,276.9L396.2,276.9z M402.7,276.9h-3.3v-1.1h3.3V276.9z M409.3,276.9H406v-1.1h3.3V276.9z
		 M415.8,276.9h-3.3v-1.1h3.3V276.9z M422.4,276.9h-3.3v-1.1h3.3V276.9z M428.9,276.9h-3.3v-1.1h3.3V276.9z M435.4,276.9h-3.3v-1.1
		h3.3V276.9z M442,276.9h-3.3v-1.1h3.3V276.9z M446.8,274.1v2.8h-1.6v-1.1h1.1v0.5h-0.5v-2.2H446.8z M446.8,267.5v3.3h-1.1v-3.3
		H446.8z M446.8,261v3.3h-1.1V261H446.8z M446.8,254.4v3.3h-1.1v-3.3H446.8z M446.8,247.8v3.3h-1.1v-3.3H446.8z M446.8,241.2v3.3
		h-1.1v-3.3H446.8z M446.8,234.6v3.3h-1.1v-3.3H446.8z M446.8,228v3.3h-1.1V228H446.8z M446.8,221.4v3.3h-1.1v-3.3H446.8z
		 M446.8,214.8v3.3h-1.1v-3.3H446.8z M446.8,208.2v3.3h-1.1v-3.3H446.8z M446.8,201.6v3.3h-1.1v-3.3H446.8z M446.8,195v3.3h-1.1V195
		H446.8z M446.8,188.4v3.3h-1.1v-3.3H446.8z M446.8,181.8v3.3h-1.1v-3.3H446.8z M446.8,175.2v3.3h-1.1v-3.3H446.8z M446.8,168.6v3.3
		h-1.1v-3.3H446.8z M446.8,162v3.3h-1.1V162H446.8z M446.8,155.4v3.3h-1.1v-3.3H446.8z M446.8,148.8v3.3h-1.1v-3.3H446.8z
		 M446.8,142.2v3.3h-1.1v-3.3H446.8z M446.8,135.6v3.3h-1.1v-3.3H446.8z M446.8,129.1v3.3h-1.1v-3.3H446.8z M446.8,122.5v3.3h-1.1
		v-3.3H446.8z M442,119.7h3.3v1.1H442V119.7z M435.4,119.7h3.3v1.1h-3.3V119.7z M428.9,119.7h3.3v1.1h-3.3V119.7z M422.4,119.7h3.3
		v1.1h-3.3V119.7z M415.8,119.7h3.3v1.1h-3.3V119.7z M409.3,119.7h3.3v1.1h-3.3V119.7z M402.7,119.7h3.3v1.1h-3.3V119.7z
		 M396.2,119.7h3.3v1.1h-3.3V119.7z M389.7,119.7h3.3v1.1h-3.3V119.7z M383.2,119.7h3.3v1.1h-3.3V119.7z M376.6,119.7h3.3v1.1h-3.3
		V119.7z M370.1,119.7h3.3v1.1h-3.3V119.7z M363.6,119.7h3.3v1.1h-3.3V119.7z M357.1,119.7h3.3v1.1h-3.3V119.7z M350.5,119.7h3.3
		v1.1h-3.3V119.7z M343.9,119.7h3.3v1.1h-3.3V119.7z M337.4,119.7h3.3v1.1h-3.3V119.7z M330.9,119.7h3.3v1.1h-3.3V119.7z
		 M324.4,119.7h3.3v1.1h-3.3V119.7z M317.8,119.7h3.3v1.1h-3.3V119.7z M311.3,119.7h3.3v1.1h-3.3V119.7z M304.8,119.7h3.3v1.1h-3.3
		V119.7z M298.3,119.7h3.3v1.1h-3.3V119.7z M298.3,119.7"/>
	<line class="st2" x1="102.3" y1="45.9" x2="138.9" y2="45.9"/>
	<path class="st1" d="M144.6,45.9l-7.6,3.8l1.9-3.8L137,42L144.6,45.9z M144.6,45.9"/>
	<path class="st2" d="M144.6,45.9l-7.6,3.8l1.9-3.8L137,42L144.6,45.9z M144.6,45.9"/>
	<path class="st0" d="M8.8,30.7h89c0.6,0,1.2,0.1,1.7,0.4c0.5,0.2,1.1,0.5,1.4,1c0.4,0.4,0.8,0.9,1,1.5c0.2,0.6,0.4,1.1,0.4,1.7
		v21.2c0,0.6-0.2,1.2-0.4,1.7c-0.2,0.5-0.5,1.1-1,1.5c-0.4,0.4-0.9,0.8-1.4,1C99,60.9,98.4,61,97.8,61h-89c-0.6,0-1.2-0.2-1.7-0.4
		c-0.5-0.2-1.1-0.5-1.4-1c-0.4-0.4-0.8-0.9-1-1.5c-0.2-0.5-0.4-1.1-0.4-1.7V35.3c0-0.6,0.2-1.2,0.4-1.7c0.2-0.5,0.5-1.1,1-1.5
		c0.4-0.5,0.9-0.8,1.4-1C7.6,30.9,8.2,30.7,8.8,30.7L8.8,30.7z M8.8,30.7"/>
	<g>
		<defs>
			<rect id="SVGID_1_" x="4" y="5" width="560" height="272"/>
		</defs>
		<clipPath id="SVGID_2_">
			<use xlink:href="#SVGID_1_"  style="overflow:visible;"/>
		</clipPath>
		<path class="st3" d="M8.8,30.7h89c0.6,0,1.2,0.1,1.7,0.4c0.5,0.2,1.1,0.5,1.4,1c0.4,0.4,0.8,0.9,1,1.5c0.2,0.6,0.4,1.1,0.4,1.7
			v21.2c0,0.6-0.2,1.2-0.4,1.7c-0.2,0.5-0.5,1.1-1,1.5c-0.4,0.4-0.9,0.8-1.4,1C99,60.9,98.4,61,97.8,61h-89c-0.6,0-1.2-0.2-1.7-0.4
			c-0.5-0.2-1.1-0.5-1.4-1c-0.4-0.4-0.8-0.9-1-1.5c-0.2-0.5-0.4-1.1-0.4-1.7V35.3c0-0.6,0.2-1.2,0.4-1.7c0.2-0.5,0.5-1.1,1-1.5
			c0.4-0.5,0.9-0.8,1.4-1C7.6,30.9,8.2,30.7,8.8,30.7L8.8,30.7z M8.8,30.7"/>
	</g>
	<path d="M13.3,49c-0.5,0.4-1.1,0.6-1.8,0.6c-0.6,0-1.1-0.1-1.6-0.4c-0.5-0.3-0.8-0.7-1.1-1.3c-0.2-0.6-0.3-1.3-0.3-2.1
		c0-0.6,0.1-1.2,0.3-1.8c0.2-0.6,0.5-1.1,1-1.4c0.5-0.3,1.1-0.5,1.8-0.5c0.6,0,1.1,0.2,1.6,0.5c0.4,0.3,0.7,0.8,0.9,1.5l1.2-0.3
		c-0.3-0.9-0.7-1.5-1.3-2c-0.6-0.5-1.4-0.7-2.4-0.7c-0.8,0-1.6,0.2-2.3,0.6c-0.7,0.4-1.2,0.9-1.6,1.7c-0.4,0.7-0.6,1.6-0.6,2.6
		c0,0.9,0.2,1.7,0.5,2.5c0.3,0.8,0.8,1.4,1.4,1.8c0.6,0.4,1.5,0.6,2.5,0.6c1,0,1.8-0.3,2.5-0.8c0.7-0.5,1.1-1.3,1.4-2.3l-1.2-0.3
		C14.1,48,13.8,48.6,13.3,49L13.3,49z M18.1,50.5v-3.6c0-0.5,0.1-0.9,0.2-1.4c0.1-0.3,0.2-0.5,0.4-0.6c0.2-0.2,0.4-0.2,0.7-0.2
		c0.3,0,0.6,0.1,0.8,0.3l0.4-1.1c-0.4-0.2-0.8-0.4-1.2-0.4c-0.3,0-0.5,0.1-0.7,0.2c-0.2,0.2-0.5,0.5-0.7,1v-1h-1v6.8H18.1L18.1,50.5
		z M25.2,49.4c-0.3,0.2-0.7,0.3-1.1,0.3c-0.6,0-1-0.2-1.4-0.6c-0.4-0.4-0.6-1-0.6-1.7h5.1c0-0.1,0-0.2,0-0.3c0-1.1-0.3-2-0.9-2.6
		c-0.6-0.6-1.3-0.9-2.2-0.9c-0.9,0-1.7,0.3-2.3,1c-0.6,0.6-0.9,1.5-0.9,2.7c0,1.1,0.3,2,0.9,2.6c0.6,0.6,1.4,0.9,2.4,0.9
		c0.8,0,1.4-0.2,1.9-0.6c0.5-0.4,0.9-0.9,1-1.6l-1.2-0.1C25.7,48.8,25.5,49.2,25.2,49.4L25.2,49.4z M22.7,45
		c0.4-0.4,0.8-0.5,1.3-0.5c0.6,0,1.1,0.2,1.4,0.7c0.2,0.3,0.4,0.7,0.4,1.3h-3.8C22.2,45.8,22.4,45.4,22.7,45L22.7,45z M33.2,50.5
		h1.2c-0.1-0.3-0.2-0.5-0.3-0.8c0-0.3-0.1-1-0.1-2v-1.5c0-0.5,0-0.9-0.1-1.1c-0.1-0.3-0.2-0.6-0.4-0.8c-0.2-0.2-0.4-0.4-0.8-0.5
		c-0.4-0.1-0.8-0.2-1.4-0.2c-0.6,0-1.1,0.1-1.5,0.2c-0.4,0.2-0.8,0.4-1,0.7c-0.2,0.3-0.4,0.7-0.5,1.2l1.1,0.2c0.1-0.5,0.3-0.8,0.6-1
		c0.3-0.2,0.7-0.3,1.2-0.3c0.6,0,1,0.1,1.3,0.4c0.2,0.2,0.3,0.5,0.3,1c0,0,0,0.1,0,0.3c-0.4,0.2-1.1,0.3-2,0.4
		c-0.5,0.1-0.8,0.1-1,0.2c-0.3,0.1-0.6,0.2-0.8,0.4c-0.2,0.2-0.4,0.4-0.6,0.7c-0.2,0.3-0.2,0.6-0.2,0.9c0,0.6,0.2,1,0.6,1.4
		c0.4,0.4,1,0.6,1.7,0.6c0.5,0,0.9-0.1,1.3-0.2c0.4-0.2,0.8-0.4,1.2-0.8C33,50,33.1,50.3,33.2,50.5L33.2,50.5L33.2,50.5z M32.9,47.5
		c0,0.5-0.1,0.9-0.2,1.2c-0.2,0.3-0.4,0.6-0.8,0.8c-0.3,0.2-0.7,0.3-1.2,0.3c-0.4,0-0.8-0.1-1-0.3c-0.2-0.2-0.3-0.5-0.3-0.8
		c0-0.2,0.1-0.4,0.2-0.6c0.1-0.2,0.3-0.3,0.5-0.4c0.2-0.1,0.5-0.2,1-0.2c0.8-0.1,1.5-0.3,1.9-0.4V47.5L32.9,47.5z M37,50.5v-3.6
		c0-0.5,0.1-0.9,0.2-1.4c0.1-0.3,0.2-0.5,0.4-0.6c0.2-0.2,0.4-0.2,0.7-0.2c0.3,0,0.6,0.1,0.8,0.3l0.4-1.1c-0.4-0.2-0.8-0.4-1.2-0.4
		c-0.3,0-0.5,0.1-0.7,0.2c-0.2,0.2-0.5,0.5-0.7,1v-1h-1v6.8H37L37,50.5z M44.9,53.1v-3.3c0.2,0.2,0.4,0.5,0.7,0.6
		c0.3,0.2,0.6,0.2,1,0.2c0.5,0,1-0.1,1.5-0.4c0.5-0.3,0.8-0.7,1.1-1.3c0.2-0.6,0.4-1.2,0.4-1.9c0-0.7-0.1-1.3-0.3-1.8
		c-0.2-0.5-0.6-1-1-1.3c-0.4-0.3-1-0.5-1.5-0.5c-0.4,0-0.8,0.1-1.1,0.3c-0.3,0.2-0.6,0.4-0.8,0.8v-0.9h-1v9.5H44.9L44.9,53.1z
		 M45.4,45.1c0.4-0.5,0.8-0.7,1.3-0.7c0.5,0,0.9,0.2,1.3,0.7c0.4,0.4,0.5,1.1,0.5,2c0,0.9-0.2,1.6-0.5,2c-0.4,0.4-0.8,0.7-1.3,0.7
		c-0.5,0-0.9-0.2-1.3-0.6c-0.4-0.4-0.5-1.1-0.5-2C44.8,46.3,45,45.6,45.4,45.1L45.4,45.1z M51.5,49.8c0.6,0.6,1.4,0.9,2.3,0.9
		c0.6,0,1.1-0.1,1.6-0.4c0.5-0.3,0.9-0.7,1.1-1.2c0.3-0.5,0.4-1.2,0.4-2.1c0-1.1-0.3-1.9-0.9-2.6c-0.6-0.6-1.4-0.9-2.3-0.9
		c-0.8,0-1.5,0.3-2.1,0.8c-0.7,0.6-1,1.5-1,2.8C50.6,48.3,50.9,49.1,51.5,49.8L51.5,49.8z M52.4,45.1c0.4-0.4,0.9-0.7,1.4-0.7
		c0.6,0,1,0.2,1.4,0.7c0.4,0.4,0.6,1.1,0.6,1.9c0,0.9-0.2,1.6-0.6,2c-0.4,0.4-0.9,0.7-1.4,0.7c-0.6,0-1.1-0.2-1.4-0.7
		c-0.4-0.4-0.6-1.1-0.6-2S52,45.6,52.4,45.1L52.4,45.1z M59.4,49.7c0.5,0.7,1.1,1,1.9,1c0.8,0,1.5-0.3,2.1-1
		c0.6-0.6,0.9-1.5,0.9-2.7c0-0.5-0.1-1-0.2-1.4c-0.1-0.4-0.3-0.8-0.6-1.1c-0.2-0.3-0.5-0.5-0.9-0.7c-0.4-0.2-0.8-0.3-1.2-0.3
		c-0.8,0-1.4,0.3-1.9,0.9v-3.4h-1.1v9.4h1.1V49.7L59.4,49.7z M59.9,45.1c0.4-0.4,0.8-0.7,1.3-0.7c0.5,0,0.9,0.2,1.3,0.6
		c0.4,0.4,0.5,1.1,0.5,2c0,0.9-0.2,1.5-0.5,2c-0.4,0.4-0.8,0.7-1.3,0.7c-0.6,0-1.1-0.3-1.5-0.9c-0.2-0.4-0.3-1-0.3-1.8
		C59.4,46.2,59.6,45.6,59.9,45.1L59.9,45.1z M66.7,50.5v-9.4h-1.1v9.4H66.7L66.7,50.5z M73.1,50.5h1.2c-0.1-0.3-0.2-0.5-0.3-0.8
		c0-0.3-0.1-1-0.1-2v-1.5c0-0.5,0-0.9-0.1-1.1c-0.1-0.3-0.2-0.6-0.4-0.8c-0.2-0.2-0.4-0.4-0.8-0.5c-0.4-0.1-0.8-0.2-1.4-0.2
		c-0.6,0-1.1,0.1-1.5,0.2c-0.4,0.2-0.8,0.4-1,0.7c-0.2,0.3-0.4,0.7-0.5,1.2l1.1,0.2c0.1-0.5,0.3-0.8,0.6-1c0.3-0.2,0.7-0.3,1.2-0.3
		c0.6,0,1,0.1,1.3,0.4c0.2,0.2,0.3,0.5,0.3,1c0,0,0,0.1,0,0.3c-0.4,0.2-1.1,0.3-2,0.4c-0.5,0.1-0.8,0.1-1,0.2
		c-0.3,0.1-0.6,0.2-0.8,0.4c-0.2,0.2-0.4,0.4-0.6,0.7c-0.2,0.3-0.2,0.6-0.2,0.9c0,0.6,0.2,1,0.6,1.4c0.4,0.4,1,0.6,1.7,0.6
		c0.5,0,0.9-0.1,1.3-0.2c0.4-0.2,0.8-0.4,1.2-0.8C72.9,50,73,50.3,73.1,50.5L73.1,50.5L73.1,50.5z M72.8,47.5c0,0.5-0.1,0.9-0.2,1.2
		c-0.2,0.3-0.4,0.6-0.8,0.8c-0.3,0.2-0.7,0.3-1.2,0.3c-0.4,0-0.8-0.1-1-0.3c-0.2-0.2-0.3-0.5-0.3-0.8c0-0.2,0.1-0.4,0.2-0.6
		c0.1-0.2,0.3-0.3,0.5-0.4c0.2-0.1,0.5-0.2,1-0.2c0.8-0.1,1.5-0.3,1.9-0.4V47.5L72.8,47.5z M79.6,49.3c-0.3,0.3-0.7,0.4-1.1,0.4
		c-0.6,0-1-0.2-1.4-0.6c-0.3-0.4-0.5-1.1-0.5-2c0-0.9,0.2-1.6,0.5-2c0.4-0.4,0.8-0.6,1.4-0.6c0.4,0,0.7,0.1,1,0.3
		c0.3,0.2,0.5,0.6,0.6,1l1.1-0.2c-0.1-0.7-0.4-1.2-0.9-1.6c-0.5-0.4-1.1-0.6-1.8-0.6c-0.6,0-1.1,0.1-1.6,0.4
		c-0.5,0.3-0.9,0.7-1.1,1.2c-0.2,0.6-0.4,1.2-0.4,1.9c0,1.1,0.3,2,0.8,2.6c0.6,0.6,1.3,0.9,2.2,0.9c0.7,0,1.4-0.2,1.9-0.7
		c0.5-0.4,0.8-1.1,0.9-1.8L80.2,48C80.1,48.6,79.9,49,79.6,49.3L79.6,49.3z M83.4,42.4v-1.3h-1.1v1.3H83.4L83.4,42.4z M83.4,50.5
		v-6.8h-1.1v6.8H83.4L83.4,50.5z M85.6,49.8c0.6,0.6,1.4,0.9,2.3,0.9c0.6,0,1.1-0.1,1.6-0.4c0.5-0.3,0.9-0.7,1.1-1.2
		c0.3-0.5,0.4-1.2,0.4-2.1c0-1.1-0.3-1.9-0.9-2.6c-0.6-0.6-1.4-0.9-2.3-0.9c-0.8,0-1.5,0.3-2.1,0.8c-0.7,0.6-1,1.5-1,2.8
		C84.8,48.3,85.1,49.1,85.6,49.8L85.6,49.8z M86.5,45.1c0.4-0.4,0.9-0.7,1.4-0.7c0.6,0,1,0.2,1.4,0.7c0.4,0.4,0.6,1.1,0.6,1.9
		c0,0.9-0.2,1.6-0.6,2c-0.4,0.4-0.9,0.7-1.4,0.7c-0.6,0-1.1-0.2-1.4-0.7c-0.4-0.4-0.6-1.1-0.6-2S86.1,45.6,86.5,45.1L86.5,45.1z
		 M88.3,42.8l1.4-1.8h-1.5l-0.8,1.8H88.3L88.3,42.8z M93.6,50.5v-3.7c0-0.9,0.2-1.5,0.5-1.8c0.4-0.3,0.8-0.5,1.3-0.5
		c0.3,0,0.6,0.1,0.8,0.2c0.2,0.1,0.4,0.3,0.5,0.6c0.1,0.2,0.1,0.6,0.1,1.1v4.2H98v-4.2c0-0.5,0-0.9-0.1-1.1
		c-0.1-0.3-0.2-0.6-0.4-0.9c-0.2-0.2-0.4-0.4-0.8-0.6c-0.3-0.1-0.7-0.2-1.1-0.2c-0.9,0-1.7,0.4-2.2,1.1v-1h-1v6.8H93.6L93.6,50.5z"
		/>
	<line class="st4" x1="254.7" y1="45.9" x2="318.5" y2="45.9"/>
	<path d="M324.2,45.9l-7.6,3.8l1.9-3.8l-1.9-3.9L324.2,45.9z M324.2,45.9"/>
	<path class="st4" d="M324.2,45.9l-7.6,3.8l1.9-3.8l-1.9-3.9L324.2,45.9z M324.2,45.9"/>
	<path class="st0" d="M150.3,30.7h99.9c0.6,0,1.2,0.1,1.7,0.4c0.5,0.2,1,0.5,1.4,1c0.5,0.4,0.8,0.9,1,1.5c0.2,0.6,0.4,1.1,0.4,1.7
		v21.2c0,0.6-0.1,1.2-0.4,1.7c-0.2,0.5-0.5,1.1-1,1.5c-0.4,0.4-0.9,0.8-1.4,1c-0.5,0.2-1.1,0.4-1.7,0.4h-99.9
		c-0.6,0-1.2-0.2-1.7-0.4c-0.5-0.2-1.1-0.5-1.4-1s-0.8-0.9-1-1.5c-0.2-0.5-0.4-1.1-0.4-1.7V35.3c0-0.6,0.1-1.2,0.4-1.7
		c0.2-0.5,0.5-1.1,1-1.5c0.4-0.5,0.9-0.8,1.4-1C149.2,30.9,149.8,30.7,150.3,30.7L150.3,30.7z M150.3,30.7"/>
	<path class="st5" d="M150.3,30.7h99.9c0.6,0,1.2,0.1,1.7,0.4c0.5,0.2,1,0.5,1.4,1c0.5,0.4,0.8,0.9,1,1.5c0.2,0.6,0.4,1.1,0.4,1.7
		v21.2c0,0.6-0.1,1.2-0.4,1.7c-0.2,0.5-0.5,1.1-1,1.5c-0.4,0.4-0.9,0.8-1.4,1c-0.5,0.2-1.1,0.4-1.7,0.4h-99.9
		c-0.6,0-1.2-0.2-1.7-0.4c-0.5-0.2-1.1-0.5-1.4-1s-0.8-0.9-1-1.5c-0.2-0.5-0.4-1.1-0.4-1.7V35.3c0-0.6,0.1-1.2,0.4-1.7
		c0.2-0.5,0.5-1.1,1-1.5c0.4-0.5,0.9-0.8,1.4-1C149.2,30.9,149.8,30.7,150.3,30.7L150.3,30.7z M150.3,30.7"/>
	<path d="M155.8,50.5v-1.1h-5.7v-3.2h5.2v-1.1h-5.2v-2.9h5.5v-1.1h-6.8v9.4H155.8L155.8,50.5z M160.3,50.5l2.6-6.8h-1.2l-1.5,4.2
		c-0.2,0.5-0.3,0.9-0.4,1.3c-0.1-0.5-0.3-0.9-0.4-1.4l-1.5-4.1h-1.2l2.6,6.8H160.3L160.3,50.5z M168.5,50.5h1.2
		c-0.1-0.3-0.2-0.5-0.3-0.8c0-0.3-0.1-1-0.1-2v-1.5c0-0.5,0-0.9-0.1-1.1c-0.1-0.3-0.2-0.6-0.4-0.8c-0.2-0.2-0.4-0.4-0.8-0.5
		c-0.4-0.1-0.8-0.2-1.4-0.2c-0.6,0-1.1,0.1-1.5,0.2c-0.4,0.2-0.8,0.4-1,0.7c-0.2,0.3-0.4,0.7-0.5,1.2l1.1,0.2c0.1-0.5,0.3-0.8,0.6-1
		c0.3-0.2,0.7-0.3,1.2-0.3c0.6,0,1,0.1,1.3,0.4c0.2,0.2,0.3,0.5,0.3,1c0,0,0,0.1,0,0.3c-0.4,0.2-1.1,0.3-2,0.4
		c-0.5,0.1-0.8,0.1-1,0.2c-0.3,0.1-0.6,0.2-0.8,0.4c-0.2,0.2-0.4,0.4-0.6,0.7c-0.2,0.3-0.2,0.6-0.2,0.9c0,0.6,0.2,1,0.6,1.4
		c0.4,0.4,1,0.6,1.7,0.6c0.5,0,0.9-0.1,1.3-0.2c0.4-0.2,0.8-0.4,1.2-0.8C168.4,50,168.4,50.3,168.5,50.5L168.5,50.5L168.5,50.5z
		 M168.2,47.5c0,0.5-0.1,0.9-0.2,1.2c-0.2,0.3-0.4,0.6-0.8,0.8c-0.3,0.2-0.7,0.3-1.2,0.3c-0.4,0-0.8-0.1-1-0.3
		c-0.2-0.2-0.3-0.5-0.3-0.8c0-0.2,0.1-0.4,0.2-0.6c0.1-0.2,0.3-0.3,0.5-0.4c0.2-0.1,0.5-0.2,1-0.2c0.8-0.1,1.5-0.3,1.9-0.4V47.5
		L168.2,47.5z M172.3,50.5v-9.4h-1.1v9.4H172.3L172.3,50.5z M179.5,50.5v-6.8h-1.1v3.7c0,0.6-0.1,1-0.2,1.3
		c-0.1,0.3-0.3,0.5-0.6,0.7c-0.3,0.2-0.6,0.3-1,0.3c-0.3,0-0.6-0.1-0.9-0.3c-0.2-0.2-0.4-0.4-0.5-0.7c0-0.2-0.1-0.6-0.1-1.2v-3.8
		H174v4.2c0,0.5,0,0.9,0.1,1.1c0.1,0.3,0.2,0.6,0.4,0.9c0.2,0.2,0.4,0.4,0.8,0.6c0.3,0.2,0.7,0.2,1.1,0.2c0.9,0,1.6-0.4,2.1-1.2v1
		H179.5L179.5,50.5z M186,50.5h1.2c-0.1-0.3-0.2-0.5-0.3-0.8c0-0.3-0.1-1-0.1-2v-1.5c0-0.5,0-0.9-0.1-1.1c-0.1-0.3-0.2-0.6-0.4-0.8
		c-0.2-0.2-0.4-0.4-0.8-0.5c-0.4-0.1-0.8-0.2-1.4-0.2c-0.6,0-1.1,0.1-1.5,0.2c-0.4,0.2-0.8,0.4-1,0.7c-0.2,0.3-0.4,0.7-0.5,1.2
		l1.1,0.2c0.1-0.5,0.3-0.8,0.6-1c0.3-0.2,0.7-0.3,1.2-0.3c0.6,0,1,0.1,1.3,0.4c0.2,0.2,0.3,0.5,0.3,1c0,0,0,0.1,0,0.3
		c-0.4,0.2-1.1,0.3-2,0.4c-0.5,0.1-0.8,0.1-1,0.2c-0.3,0.1-0.6,0.2-0.8,0.4c-0.2,0.2-0.4,0.4-0.6,0.7c-0.2,0.3-0.2,0.6-0.2,0.9
		c0,0.6,0.2,1,0.6,1.4c0.4,0.4,1,0.6,1.7,0.6c0.5,0,0.9-0.1,1.3-0.2c0.4-0.2,0.8-0.4,1.2-0.8C185.8,50,185.9,50.3,186,50.5L186,50.5
		L186,50.5z M185.7,47.5c0,0.5-0.1,0.9-0.2,1.2c-0.2,0.3-0.4,0.6-0.8,0.8c-0.3,0.2-0.7,0.3-1.2,0.3c-0.4,0-0.8-0.1-1-0.3
		c-0.2-0.2-0.3-0.5-0.3-0.8c0-0.2,0.1-0.4,0.2-0.6c0.1-0.2,0.3-0.3,0.5-0.4c0.2-0.1,0.5-0.2,1-0.2c0.8-0.1,1.5-0.3,1.9-0.4V47.5
		L185.7,47.5z M189.7,50.5v-3.6c0-0.5,0.1-0.9,0.2-1.4c0.1-0.3,0.2-0.5,0.4-0.6c0.2-0.2,0.4-0.2,0.7-0.2c0.3,0,0.6,0.1,0.8,0.3
		l0.4-1.1c-0.4-0.2-0.8-0.4-1.2-0.4c-0.3,0-0.5,0.1-0.7,0.2c-0.2,0.2-0.5,0.5-0.7,1v-1h-1v6.8H189.7L189.7,50.5z M197.7,53.1v-3.3
		c0.2,0.2,0.4,0.5,0.7,0.6c0.3,0.2,0.6,0.2,1,0.2c0.5,0,1-0.1,1.5-0.4c0.5-0.3,0.8-0.7,1.1-1.3c0.2-0.6,0.4-1.2,0.4-1.9
		c0-0.7-0.1-1.3-0.3-1.8c-0.2-0.5-0.6-1-1-1.3c-0.4-0.3-1-0.5-1.5-0.5c-0.4,0-0.8,0.1-1.1,0.3c-0.3,0.2-0.6,0.4-0.8,0.8v-0.9h-1v9.5
		H197.7L197.7,53.1z M198.2,45.1c0.4-0.5,0.8-0.7,1.3-0.7c0.5,0,0.9,0.2,1.3,0.7c0.4,0.4,0.5,1.1,0.5,2c0,0.9-0.2,1.6-0.5,2
		c-0.4,0.4-0.8,0.7-1.3,0.7c-0.5,0-0.9-0.2-1.3-0.6c-0.4-0.4-0.5-1.1-0.5-2C197.6,46.3,197.8,45.6,198.2,45.1L198.2,45.1z
		 M204.3,49.8c0.6,0.6,1.4,0.9,2.3,0.9c0.6,0,1.1-0.1,1.6-0.4c0.5-0.3,0.9-0.7,1.1-1.2c0.3-0.5,0.4-1.2,0.4-2.1
		c0-1.1-0.3-1.9-0.9-2.6c-0.6-0.6-1.4-0.9-2.3-0.9c-0.8,0-1.5,0.3-2.1,0.8c-0.7,0.6-1,1.5-1,2.8C203.4,48.3,203.7,49.1,204.3,49.8
		L204.3,49.8z M205.2,45.1c0.4-0.4,0.9-0.7,1.4-0.7c0.6,0,1,0.2,1.4,0.7c0.4,0.4,0.6,1.1,0.6,1.9c0,0.9-0.2,1.6-0.6,2
		c-0.4,0.4-0.9,0.7-1.4,0.7c-0.6,0-1.1-0.2-1.4-0.7c-0.4-0.4-0.6-1.1-0.6-2S204.8,45.6,205.2,45.1L205.2,45.1z M212.2,49.7
		c0.5,0.7,1.1,1,1.9,1c0.8,0,1.5-0.3,2.1-1c0.6-0.6,0.9-1.5,0.9-2.7c0-0.5-0.1-1-0.2-1.4c-0.1-0.4-0.3-0.8-0.6-1.1
		c-0.2-0.3-0.5-0.5-0.9-0.7c-0.4-0.2-0.8-0.3-1.2-0.3c-0.8,0-1.4,0.3-1.9,0.9v-3.4h-1.1v9.4h1.1V49.7L212.2,49.7z M212.7,45.1
		c0.4-0.4,0.8-0.7,1.3-0.7c0.5,0,0.9,0.2,1.3,0.6c0.4,0.4,0.5,1.1,0.5,2c0,0.9-0.2,1.5-0.5,2c-0.4,0.4-0.8,0.7-1.3,0.7
		c-0.6,0-1.1-0.3-1.5-0.9c-0.2-0.4-0.3-1-0.3-1.8C212.2,46.2,212.3,45.6,212.7,45.1L212.7,45.1z M219.5,50.5v-9.4h-1.1v9.4H219.5
		L219.5,50.5z M225.9,50.5h1.2c-0.1-0.3-0.2-0.5-0.3-0.8c0-0.3-0.1-1-0.1-2v-1.5c0-0.5,0-0.9-0.1-1.1c-0.1-0.3-0.2-0.6-0.4-0.8
		c-0.2-0.2-0.4-0.4-0.8-0.5c-0.4-0.1-0.8-0.2-1.4-0.2c-0.6,0-1.1,0.1-1.5,0.2c-0.4,0.2-0.8,0.4-1,0.7c-0.2,0.3-0.4,0.7-0.5,1.2
		l1.1,0.2c0.1-0.5,0.3-0.8,0.6-1c0.3-0.2,0.7-0.3,1.2-0.3c0.6,0,1,0.1,1.3,0.4c0.2,0.2,0.3,0.5,0.3,1c0,0,0,0.1,0,0.3
		c-0.4,0.2-1.1,0.3-2,0.4c-0.5,0.1-0.8,0.1-1,0.2c-0.3,0.1-0.6,0.2-0.8,0.4c-0.2,0.2-0.4,0.4-0.6,0.7c-0.2,0.3-0.2,0.6-0.2,0.9
		c0,0.6,0.2,1,0.6,1.4c0.4,0.4,1,0.6,1.7,0.6c0.5,0,0.9-0.1,1.3-0.2c0.4-0.2,0.8-0.4,1.2-0.8C225.7,50,225.8,50.3,225.9,50.5
		L225.9,50.5L225.9,50.5z M225.6,47.5c0,0.5-0.1,0.9-0.2,1.2c-0.2,0.3-0.4,0.6-0.8,0.8c-0.3,0.2-0.7,0.3-1.2,0.3
		c-0.4,0-0.8-0.1-1-0.3c-0.2-0.2-0.3-0.5-0.3-0.8c0-0.2,0.1-0.4,0.2-0.6c0.1-0.2,0.3-0.3,0.5-0.4c0.2-0.1,0.5-0.2,1-0.2
		c0.8-0.1,1.5-0.3,1.9-0.4V47.5L225.6,47.5z M232.4,49.3c-0.3,0.3-0.7,0.4-1.1,0.4c-0.6,0-1-0.2-1.4-0.6c-0.3-0.4-0.5-1.1-0.5-2
		c0-0.9,0.2-1.6,0.5-2c0.4-0.4,0.8-0.6,1.4-0.6c0.4,0,0.7,0.1,1,0.3c0.3,0.2,0.5,0.6,0.6,1l1.1-0.2c-0.1-0.7-0.4-1.2-0.9-1.6
		c-0.5-0.4-1.1-0.6-1.8-0.6c-0.6,0-1.1,0.1-1.6,0.4c-0.5,0.3-0.9,0.7-1.1,1.2c-0.2,0.6-0.4,1.2-0.4,1.9c0,1.1,0.3,2,0.8,2.6
		c0.6,0.6,1.3,0.9,2.2,0.9c0.7,0,1.4-0.2,1.9-0.7c0.5-0.4,0.8-1.1,0.9-1.8L233,48C232.9,48.6,232.7,49,232.4,49.3L232.4,49.3z
		 M236.2,42.4v-1.3h-1.1v1.3H236.2L236.2,42.4z M236.2,50.5v-6.8h-1.1v6.8H236.2L236.2,50.5z M238.4,49.8c0.6,0.6,1.4,0.9,2.3,0.9
		c0.6,0,1.1-0.1,1.6-0.4c0.5-0.3,0.9-0.7,1.1-1.2c0.3-0.5,0.4-1.2,0.4-2.1c0-1.1-0.3-1.9-0.9-2.6c-0.6-0.6-1.4-0.9-2.3-0.9
		c-0.8,0-1.5,0.3-2.1,0.8c-0.7,0.6-1,1.5-1,2.8C237.6,48.3,237.8,49.1,238.4,49.8L238.4,49.8z M239.3,45.1c0.4-0.4,0.9-0.7,1.4-0.7
		c0.6,0,1,0.2,1.4,0.7c0.4,0.4,0.6,1.1,0.6,1.9c0,0.9-0.2,1.6-0.6,2c-0.4,0.4-0.9,0.7-1.4,0.7c-0.6,0-1.1-0.2-1.4-0.7
		c-0.4-0.4-0.6-1.1-0.6-2S238.9,45.6,239.3,45.1L239.3,45.1z M241,42.8l1.4-1.8h-1.5l-0.8,1.8H241L241,42.8z M246.4,50.5v-3.7
		c0-0.9,0.2-1.5,0.5-1.8c0.4-0.3,0.8-0.5,1.3-0.5c0.3,0,0.6,0.1,0.8,0.2c0.2,0.1,0.4,0.3,0.5,0.6c0.1,0.2,0.1,0.6,0.1,1.1v4.2h1.1
		v-4.2c0-0.5,0-0.9-0.1-1.1c-0.1-0.3-0.2-0.6-0.4-0.9c-0.2-0.2-0.4-0.4-0.8-0.6c-0.3-0.1-0.7-0.2-1.1-0.2c-0.9,0-1.7,0.4-2.2,1.1v-1
		h-1v6.8H246.4L246.4,50.5z"/>
	<line class="st4" x1="369" y1="86.4" x2="369" y2="113.3"/>
	<path d="M369,119.1l-3.8-7.7l3.8,1.9l3.8-1.9L369,119.1z M369,119.1"/>
	<path class="st4" d="M369,119.1l-3.8-7.7l3.8,1.9l3.8-1.9L369,119.1z M369,119.1"/>
	<path class="st6" d="M413.1,46.9v-2.1h57.2l23.1-0.2v-3.4l11.3,4.4l-11.2,4.6v-3.4L470.2,47L413.1,46.9z M413.1,46.9"/>
	<polyline class="st7" points="493.3,44.6 493.3,41.1 504.6,45.6 493.4,50.2 493.4,46.8 	"/>
	<path class="st0" d="M369,5.4l43.6,40.5L369,86.4l-43.5-40.5L369,5.4z M369,5.4"/>
	<g>
		<defs>
			<rect id="SVGID_3_" x="4" y="5" width="560" height="272"/>
		</defs>
		<clipPath id="SVGID_4_">
			<use xlink:href="#SVGID_3_"  style="overflow:visible;"/>
		</clipPath>
		<path class="st8" d="M369,5.4l43.6,40.5L369,86.4l-43.5-40.5L369,5.4z M369,5.4"/>
	</g>
	<path d="M345.1,41.3c-0.5,0.4-1.1,0.6-1.8,0.6c-0.6,0-1.1-0.1-1.6-0.4c-0.5-0.3-0.8-0.7-1.1-1.3c-0.2-0.6-0.3-1.3-0.3-2.1
		c0-0.6,0.1-1.2,0.3-1.8c0.2-0.6,0.5-1.1,1-1.4c0.5-0.3,1.1-0.5,1.8-0.5c0.6,0,1.1,0.2,1.6,0.5c0.4,0.3,0.7,0.8,0.9,1.5l1.2-0.3
		c-0.3-0.9-0.7-1.5-1.3-2c-0.6-0.5-1.4-0.7-2.4-0.7c-0.8,0-1.6,0.2-2.3,0.6c-0.7,0.4-1.2,0.9-1.6,1.7c-0.4,0.7-0.6,1.6-0.6,2.6
		c0,0.9,0.2,1.7,0.5,2.5c0.3,0.8,0.8,1.4,1.4,1.8c0.6,0.4,1.5,0.6,2.5,0.6c1,0,1.8-0.3,2.5-0.8c0.7-0.5,1.1-1.3,1.4-2.3l-1.2-0.3
		C345.9,40.3,345.5,40.9,345.1,41.3L345.1,41.3z M349.8,42.8v-3.6c0-0.5,0.1-0.9,0.2-1.4c0.1-0.3,0.2-0.5,0.4-0.6
		c0.2-0.2,0.4-0.2,0.7-0.2c0.3,0,0.6,0.1,0.8,0.3l0.4-1.1c-0.4-0.2-0.8-0.4-1.2-0.4c-0.3,0-0.5,0.1-0.7,0.2c-0.2,0.2-0.5,0.5-0.7,1
		v-1h-1v6.8H349.8L349.8,42.8z M354.1,34.7v-1.3H353v1.3H354.1L354.1,34.7z M354.1,42.8V36H353v6.8H354.1L354.1,42.8z M357.9,41.8
		c-0.2,0-0.3,0-0.4-0.1c-0.1-0.1-0.2-0.1-0.2-0.2c0-0.1-0.1-0.3-0.1-0.6v-4h1.2V36h-1.2v-2.4l-1.1,0.7V36h-0.8v0.9h0.8v3.9
		c0,0.7,0,1.2,0.1,1.4c0.1,0.2,0.3,0.4,0.5,0.5c0.2,0.1,0.6,0.2,1,0.2c0.3,0,0.5,0,0.9-0.1l-0.2-1C358.2,41.8,358,41.8,357.9,41.8
		L357.9,41.8L357.9,41.8z M363.5,41.7c-0.3,0.2-0.7,0.3-1.1,0.3c-0.6,0-1-0.2-1.4-0.6c-0.4-0.4-0.6-1-0.6-1.7h5.1c0-0.1,0-0.2,0-0.3
		c0-1.1-0.3-2-0.9-2.6c-0.6-0.6-1.3-0.9-2.2-0.9c-0.9,0-1.7,0.3-2.3,1c-0.6,0.6-0.9,1.5-0.9,2.7c0,1.1,0.3,2,0.9,2.6
		c0.6,0.6,1.4,0.9,2.4,0.9c0.8,0,1.4-0.2,1.9-0.6c0.5-0.4,0.9-0.9,1-1.6l-1.2-0.1C364,41.1,363.8,41.5,363.5,41.7L363.5,41.7z
		 M361,37.3c0.4-0.4,0.8-0.5,1.3-0.5c0.6,0,1.1,0.2,1.4,0.7c0.2,0.3,0.4,0.7,0.4,1.3h-3.8C360.4,38.2,360.6,37.7,361,37.3L361,37.3z
		 M367.9,42.8v-3.6c0-0.5,0.1-0.9,0.2-1.4c0.1-0.3,0.2-0.5,0.4-0.6c0.2-0.2,0.4-0.2,0.7-0.2c0.3,0,0.6,0.1,0.8,0.3l0.4-1.1
		c-0.4-0.2-0.8-0.4-1.2-0.4c-0.3,0-0.5,0.1-0.7,0.2c-0.2,0.2-0.5,0.5-0.7,1v-1h-1v6.8H367.9L367.9,42.8z M372.3,34.7v-1.3h-1.1v1.3
		H372.3L372.3,34.7z M372.3,42.8V36h-1.1v6.8H372.3L372.3,42.8z M374.5,42.1c0.6,0.6,1.4,0.9,2.3,0.9c0.6,0,1.1-0.1,1.6-0.4
		c0.5-0.3,0.9-0.7,1.1-1.2c0.3-0.5,0.4-1.2,0.4-2.1c0-1.1-0.3-1.9-0.9-2.6c-0.6-0.6-1.4-0.9-2.3-0.9c-0.8,0-1.5,0.3-2.1,0.8
		c-0.7,0.6-1,1.5-1,2.8C373.6,40.6,373.9,41.4,374.5,42.1L374.5,42.1z M375.4,37.4c0.4-0.4,0.9-0.7,1.4-0.7c0.6,0,1,0.2,1.4,0.7
		c0.4,0.4,0.6,1.1,0.6,1.9c0,0.9-0.2,1.6-0.6,2c-0.4,0.4-0.9,0.7-1.4,0.7c-0.6,0-1.1-0.2-1.4-0.7c-0.4-0.4-0.6-1.1-0.6-2
		S375,37.9,375.4,37.4L375.4,37.4z M390.4,42.8v-9.4h-1.1v3.4c-0.2-0.3-0.5-0.5-0.8-0.7c-0.3-0.2-0.7-0.3-1.1-0.3
		c-0.6,0-1.1,0.1-1.5,0.4c-0.5,0.3-0.8,0.7-1,1.3c-0.2,0.6-0.3,1.2-0.3,1.9c0,0.7,0.1,1.3,0.4,1.9c0.2,0.5,0.6,1,1.1,1.3
		c0.5,0.3,0.9,0.5,1.5,0.5c0.8,0,1.5-0.3,1.9-1v0.9H390.4L390.4,42.8z M386.2,37.4c0.3-0.4,0.8-0.6,1.3-0.6c0.5,0,1,0.2,1.3,0.7
		c0.4,0.4,0.5,1.1,0.5,2.1c0,0.8-0.2,1.5-0.5,1.9c-0.4,0.4-0.8,0.6-1.3,0.6c-0.5,0-0.9-0.2-1.3-0.7c-0.4-0.4-0.5-1.1-0.5-2
		C385.7,38.5,385.9,37.8,386.2,37.4L386.2,37.4z M396.1,41.7c-0.3,0.2-0.7,0.3-1.1,0.3c-0.6,0-1-0.2-1.4-0.6c-0.4-0.4-0.6-1-0.6-1.7
		h5.1c0-0.1,0-0.2,0-0.3c0-1.1-0.3-2-0.9-2.6c-0.6-0.6-1.3-0.9-2.2-0.9c-0.9,0-1.7,0.3-2.3,1c-0.6,0.6-0.9,1.5-0.9,2.7
		c0,1.1,0.3,2,0.9,2.6c0.6,0.6,1.4,0.9,2.4,0.9c0.8,0,1.4-0.2,1.9-0.6c0.5-0.4,0.9-0.9,1-1.6l-1.2-0.1
		C396.7,41.1,396.4,41.5,396.1,41.7L396.1,41.7z M393.7,37.3c0.4-0.4,0.8-0.5,1.3-0.5c0.6,0,1.1,0.2,1.4,0.7
		c0.2,0.3,0.4,0.7,0.4,1.3h-3.8C393.1,38.2,393.3,37.7,393.7,37.3L393.7,37.3z"/>
	<path d="M350.1,60.8v-3.3c0.2,0.2,0.4,0.5,0.7,0.6c0.3,0.2,0.6,0.2,1,0.2c0.5,0,1-0.1,1.5-0.4c0.5-0.3,0.8-0.7,1.1-1.3
		c0.2-0.6,0.4-1.2,0.4-1.9c0-0.7-0.1-1.3-0.3-1.8c-0.2-0.5-0.6-1-1-1.3c-0.4-0.3-1-0.5-1.5-0.5c-0.4,0-0.8,0.1-1.1,0.3
		c-0.3,0.2-0.6,0.4-0.8,0.8v-0.9h-1v9.5H350.1L350.1,60.8z M350.6,52.8c0.4-0.5,0.8-0.7,1.3-0.7c0.5,0,0.9,0.2,1.3,0.7
		c0.4,0.4,0.5,1.1,0.5,2c0,0.9-0.2,1.6-0.5,2c-0.4,0.4-0.8,0.7-1.3,0.7c-0.5,0-0.9-0.2-1.3-0.6c-0.4-0.4-0.5-1.1-0.5-2
		C350,53.9,350.2,53.3,350.6,52.8L350.6,52.8z M360.9,58.2h1.2c-0.1-0.3-0.2-0.5-0.3-0.8c0-0.3-0.1-1-0.1-2v-1.5
		c0-0.5,0-0.9-0.1-1.1c-0.1-0.3-0.2-0.6-0.4-0.8c-0.2-0.2-0.4-0.4-0.8-0.5c-0.4-0.1-0.8-0.2-1.4-0.2c-0.6,0-1.1,0.1-1.5,0.2
		c-0.4,0.2-0.8,0.4-1,0.7c-0.2,0.3-0.4,0.7-0.5,1.2l1.1,0.2c0.1-0.5,0.3-0.8,0.6-1c0.3-0.2,0.7-0.3,1.2-0.3c0.6,0,1,0.1,1.3,0.4
		c0.2,0.2,0.3,0.5,0.3,1c0,0,0,0.1,0,0.3c-0.4,0.2-1.1,0.3-2,0.4c-0.5,0.1-0.8,0.1-1,0.2c-0.3,0.1-0.6,0.2-0.8,0.4
		c-0.2,0.2-0.4,0.4-0.6,0.7c-0.2,0.3-0.2,0.6-0.2,0.9c0,0.6,0.2,1,0.6,1.4c0.4,0.4,1,0.6,1.7,0.6c0.5,0,0.9-0.1,1.3-0.2
		c0.4-0.2,0.8-0.4,1.2-0.8C360.7,57.7,360.8,58,360.9,58.2L360.9,58.2L360.9,58.2z M360.6,55.2c0,0.5-0.1,0.9-0.2,1.2
		c-0.2,0.3-0.4,0.6-0.8,0.8c-0.3,0.2-0.7,0.3-1.2,0.3c-0.4,0-0.8-0.1-1-0.3c-0.2-0.2-0.3-0.5-0.3-0.8c0-0.2,0.1-0.4,0.2-0.6
		c0.1-0.2,0.3-0.3,0.5-0.4c0.2-0.1,0.5-0.2,1-0.2c0.8-0.1,1.5-0.3,1.9-0.4V55.2L360.6,55.2z M364.7,58.2v-3.6c0-0.5,0.1-0.9,0.2-1.4
		c0.1-0.3,0.2-0.5,0.4-0.6c0.2-0.2,0.4-0.2,0.7-0.2c0.3,0,0.6,0.1,0.8,0.3l0.4-1.1c-0.4-0.2-0.8-0.4-1.2-0.4c-0.3,0-0.5,0.1-0.7,0.2
		c-0.2,0.2-0.5,0.5-0.7,1v-1h-1v6.8H364.7L364.7,58.2z M372.5,58.2h1.2c-0.1-0.3-0.2-0.5-0.3-0.8c0-0.3-0.1-1-0.1-2v-1.5
		c0-0.5,0-0.9-0.1-1.1c-0.1-0.3-0.2-0.6-0.4-0.8c-0.2-0.2-0.4-0.4-0.8-0.5c-0.4-0.1-0.8-0.2-1.4-0.2c-0.6,0-1.1,0.1-1.5,0.2
		c-0.4,0.2-0.8,0.4-1,0.7c-0.2,0.3-0.4,0.7-0.5,1.2l1.1,0.2c0.1-0.5,0.3-0.8,0.6-1c0.3-0.2,0.7-0.3,1.2-0.3c0.6,0,1,0.1,1.3,0.4
		c0.2,0.2,0.3,0.5,0.3,1c0,0,0,0.1,0,0.3c-0.4,0.2-1.1,0.3-2,0.4c-0.5,0.1-0.8,0.1-1,0.2c-0.3,0.1-0.6,0.2-0.8,0.4
		c-0.2,0.2-0.4,0.4-0.6,0.7c-0.2,0.3-0.2,0.6-0.2,0.9c0,0.6,0.2,1,0.6,1.4c0.4,0.4,1,0.6,1.7,0.6c0.5,0,0.9-0.1,1.3-0.2
		c0.4-0.2,0.8-0.4,1.2-0.8C372.3,57.7,372.4,58,372.5,58.2L372.5,58.2L372.5,58.2z M372.2,55.2c0,0.5-0.1,0.9-0.2,1.2
		c-0.2,0.3-0.4,0.6-0.8,0.8c-0.3,0.2-0.7,0.3-1.2,0.3c-0.4,0-0.8-0.1-1-0.3c-0.2-0.2-0.3-0.5-0.3-0.8c0-0.2,0.1-0.4,0.2-0.6
		c0.1-0.2,0.3-0.3,0.5-0.4c0.2-0.1,0.5-0.2,1-0.2c0.8-0.1,1.5-0.3,1.9-0.4V55.2L372.2,55.2z M380.6,58.2v-9.4h-1.1v3.4
		c-0.2-0.3-0.5-0.5-0.8-0.7s-0.7-0.3-1.1-0.3c-0.6,0-1.1,0.1-1.5,0.4c-0.5,0.3-0.8,0.7-1,1.3c-0.2,0.6-0.3,1.2-0.3,1.9
		c0,0.7,0.1,1.3,0.4,1.9c0.2,0.5,0.6,1,1.1,1.3c0.5,0.3,0.9,0.5,1.5,0.5c0.8,0,1.5-0.3,1.9-1v0.9H380.6L380.6,58.2z M376.4,52.8
		c0.3-0.4,0.8-0.6,1.3-0.6c0.5,0,1,0.2,1.3,0.7c0.4,0.4,0.5,1.1,0.5,2.1c0,0.8-0.2,1.5-0.5,1.9c-0.4,0.4-0.8,0.6-1.3,0.6
		c-0.5,0-0.9-0.2-1.3-0.7c-0.4-0.4-0.5-1.1-0.5-2C375.9,53.9,376.1,53.2,376.4,52.8L376.4,52.8z"/>
	<path d="M387.1,58.2h1.2c-0.1-0.3-0.2-0.5-0.3-0.8c0-0.3-0.1-1-0.1-2v-1.5c0-0.5,0-0.9-0.1-1.1c-0.1-0.3-0.2-0.6-0.4-0.8
		c-0.2-0.2-0.4-0.4-0.8-0.5c-0.4-0.1-0.8-0.2-1.4-0.2c-0.6,0-1.1,0.1-1.5,0.2c-0.4,0.2-0.8,0.4-1,0.7c-0.2,0.3-0.4,0.7-0.5,1.2
		l1.1,0.2c0.1-0.5,0.3-0.8,0.6-1c0.3-0.2,0.7-0.3,1.2-0.3c0.6,0,1,0.1,1.3,0.4c0.2,0.2,0.3,0.5,0.3,1c0,0,0,0.1,0,0.3
		c-0.4,0.2-1.1,0.3-2,0.4c-0.5,0.1-0.8,0.1-1,0.2c-0.3,0.1-0.6,0.2-0.8,0.4c-0.2,0.2-0.4,0.4-0.6,0.7c-0.2,0.3-0.2,0.6-0.2,0.9
		c0,0.6,0.2,1,0.6,1.4c0.4,0.4,1,0.6,1.7,0.6c0.5,0,0.9-0.1,1.3-0.2c0.4-0.2,0.8-0.4,1.2-0.8C386.9,57.7,387,58,387.1,58.2
		L387.1,58.2L387.1,58.2z M386.8,55.2c0,0.5-0.1,0.9-0.2,1.2c-0.2,0.3-0.4,0.6-0.8,0.8c-0.3,0.2-0.7,0.3-1.2,0.3
		c-0.4,0-0.8-0.1-1-0.3c-0.2-0.2-0.3-0.5-0.3-0.8c0-0.2,0.1-0.4,0.2-0.6c0.1-0.2,0.3-0.3,0.5-0.4c0.2-0.1,0.5-0.2,1-0.2
		c0.8-0.1,1.5-0.3,1.9-0.4V55.2L386.8,55.2z"/>
	<line class="st4" x1="369" y1="159.9" x2="369" y2="174.8"/>
	<path d="M369,180.6l-3.8-7.7l3.8,1.9l3.8-1.9L369,180.6z M369,180.6"/>
	<path class="st4" d="M369,180.6l-3.8-7.7l3.8,1.9l3.8-1.9L369,180.6z M369,180.6"/>
	<path class="st0" d="M319.5,126.9h99.1c0.7,0,1.3,0.2,1.9,0.4c0.6,0.2,1.1,0.6,1.6,1.1c0.4,0.4,0.8,1,1.1,1.6
		c0.2,0.6,0.4,1.2,0.4,1.9v23.1c0,0.7-0.1,1.3-0.4,1.9c-0.2,0.6-0.6,1.1-1.1,1.6c-0.4,0.4-1,0.8-1.6,1.1c-0.6,0.2-1.2,0.4-1.9,0.4
		h-99.1c-0.7,0-1.3-0.1-1.9-0.4c-0.6-0.2-1.1-0.6-1.6-1.1c-0.5-0.4-0.8-1-1.1-1.6c-0.2-0.6-0.4-1.2-0.4-1.9v-23.1
		c0-0.7,0.1-1.3,0.4-1.9c0.2-0.6,0.6-1.1,1.1-1.6c0.4-0.4,1-0.8,1.6-1.1C318.2,127,318.8,126.9,319.5,126.9L319.5,126.9z
		 M319.5,126.9"/>
	<path class="st5" d="M319.5,126.9h99.1c0.7,0,1.3,0.2,1.9,0.4c0.6,0.2,1.1,0.6,1.6,1.1c0.4,0.4,0.8,1,1.1,1.6
		c0.2,0.6,0.4,1.2,0.4,1.9v23.1c0,0.7-0.1,1.3-0.4,1.9c-0.2,0.6-0.6,1.1-1.1,1.6c-0.4,0.4-1,0.8-1.6,1.1c-0.6,0.2-1.2,0.4-1.9,0.4
		h-99.1c-0.7,0-1.3-0.1-1.9-0.4c-0.6-0.2-1.1-0.6-1.6-1.1c-0.5-0.4-0.8-1-1.1-1.6c-0.2-0.6-0.4-1.2-0.4-1.9v-23.1
		c0-0.7,0.1-1.3,0.4-1.9c0.2-0.6,0.6-1.1,1.1-1.6c0.4-0.4,1-0.8,1.6-1.1C318.2,127,318.8,126.9,319.5,126.9L319.5,126.9z
		 M319.5,126.9"/>
	<path d="M341.3,147c0.3,0.5,0.8,0.9,1.3,1.1c0.6,0.2,1.3,0.4,2.1,0.4c0.7,0,1.3-0.1,1.8-0.4c0.5-0.2,0.9-0.6,1.2-1
		c0.3-0.4,0.4-0.9,0.4-1.4c0-0.5-0.1-1-0.4-1.3c-0.3-0.4-0.7-0.7-1.2-1c-0.4-0.2-1.1-0.4-2.1-0.6c-1-0.2-1.6-0.5-1.9-0.7
		c-0.2-0.2-0.4-0.5-0.4-0.8c0-0.4,0.2-0.7,0.5-1c0.3-0.3,0.9-0.4,1.6-0.4c0.7,0,1.3,0.2,1.6,0.5c0.4,0.3,0.6,0.8,0.6,1.4l1.2-0.1
		c0-0.6-0.2-1-0.5-1.5c-0.3-0.4-0.7-0.8-1.2-1c-0.5-0.2-1.1-0.3-1.8-0.3c-0.6,0-1.2,0.1-1.7,0.3c-0.5,0.2-0.9,0.5-1.2,0.9
		c-0.3,0.4-0.4,0.9-0.4,1.3c0,0.4,0.1,0.8,0.3,1.2c0.2,0.3,0.6,0.6,1,0.9c0.3,0.2,0.9,0.4,1.8,0.6c0.9,0.2,1.4,0.4,1.7,0.5
		c0.4,0.2,0.7,0.3,0.8,0.6c0.2,0.2,0.3,0.5,0.3,0.8c0,0.3-0.1,0.6-0.3,0.8c-0.2,0.2-0.4,0.4-0.8,0.6c-0.4,0.1-0.8,0.2-1.3,0.2
		c-0.5,0-1-0.1-1.4-0.3c-0.4-0.2-0.7-0.4-0.9-0.7c-0.2-0.3-0.3-0.7-0.4-1.2l-1.2,0.1C340.8,145.9,340.9,146.5,341.3,147L341.3,147z
		 M353.7,147.2c-0.3,0.2-0.7,0.3-1.1,0.3c-0.6,0-1-0.2-1.4-0.6c-0.4-0.4-0.6-1-0.6-1.7h5.1c0-0.1,0-0.2,0-0.3c0-1.1-0.3-2-0.9-2.6
		c-0.6-0.6-1.3-0.9-2.2-0.9c-0.9,0-1.7,0.3-2.3,1c-0.6,0.6-0.9,1.5-0.9,2.7c0,1.1,0.3,2,0.9,2.6c0.6,0.6,1.4,0.9,2.4,0.9
		c0.8,0,1.4-0.2,1.9-0.6c0.5-0.4,0.9-0.9,1-1.6l-1.2-0.1C354.2,146.6,354,147,353.7,147.2L353.7,147.2z M351.2,142.8
		c0.4-0.4,0.8-0.5,1.3-0.5c0.6,0,1.1,0.2,1.4,0.7c0.2,0.3,0.4,0.7,0.4,1.3h-3.8C350.6,143.6,350.8,143.2,351.2,142.8L351.2,142.8z
		 M358.1,148.3v-9.4H357v9.4H358.1L358.1,148.3z M363.8,147.2c-0.3,0.2-0.7,0.3-1.1,0.3c-0.6,0-1-0.2-1.4-0.6
		c-0.4-0.4-0.6-1-0.6-1.7h5.1c0-0.1,0-0.2,0-0.3c0-1.1-0.3-2-0.9-2.6c-0.6-0.6-1.3-0.9-2.2-0.9c-0.9,0-1.7,0.3-2.3,1
		c-0.6,0.6-0.9,1.5-0.9,2.7c0,1.1,0.3,2,0.9,2.6c0.6,0.6,1.4,0.9,2.4,0.9c0.8,0,1.4-0.2,1.9-0.6c0.5-0.4,0.9-0.9,1-1.6l-1.2-0.1
		C364.4,146.6,364.1,147,363.8,147.2L363.8,147.2z M361.4,142.8c0.4-0.4,0.8-0.5,1.3-0.5c0.6,0,1.1,0.2,1.4,0.7
		c0.2,0.3,0.4,0.7,0.4,1.3h-3.8C360.8,143.6,361,143.2,361.4,142.8L361.4,142.8z M371,147.1c-0.3,0.3-0.7,0.4-1.1,0.4
		c-0.6,0-1-0.2-1.4-0.6c-0.3-0.4-0.5-1.1-0.5-2c0-0.9,0.2-1.6,0.5-2c0.4-0.4,0.8-0.6,1.4-0.6c0.4,0,0.7,0.1,1,0.3
		c0.3,0.2,0.5,0.6,0.6,1l1.1-0.2c-0.1-0.7-0.4-1.2-0.9-1.6c-0.5-0.4-1.1-0.6-1.8-0.6c-0.6,0-1.1,0.1-1.6,0.4
		c-0.5,0.3-0.9,0.7-1.1,1.2c-0.2,0.6-0.4,1.2-0.4,1.9c0,1.1,0.3,2,0.8,2.6c0.6,0.6,1.3,0.9,2.2,0.9c0.7,0,1.4-0.2,1.9-0.7
		c0.5-0.4,0.8-1.1,0.9-1.8l-1.1-0.1C371.5,146.4,371.3,146.8,371,147.1L371,147.1z M377.5,147.1c-0.3,0.3-0.7,0.4-1.1,0.4
		c-0.6,0-1-0.2-1.4-0.6c-0.3-0.4-0.5-1.1-0.5-2c0-0.9,0.2-1.6,0.5-2c0.4-0.4,0.8-0.6,1.4-0.6c0.4,0,0.7,0.1,1,0.3
		c0.3,0.2,0.5,0.6,0.6,1l1.1-0.2c-0.1-0.7-0.4-1.2-0.9-1.6c-0.5-0.4-1.1-0.6-1.8-0.6c-0.6,0-1.1,0.1-1.6,0.4
		c-0.5,0.3-0.9,0.7-1.1,1.2c-0.2,0.6-0.4,1.2-0.4,1.9c0,1.1,0.3,2,0.8,2.6c0.6,0.6,1.3,0.9,2.2,0.9c0.7,0,1.4-0.2,1.9-0.7
		c0.5-0.4,0.8-1.1,0.9-1.8l-1.1-0.1C378,146.4,377.8,146.8,377.5,147.1L377.5,147.1z M381.4,140.2v-1.3h-1.1v1.3H381.4L381.4,140.2z
		 M381.4,148.3v-6.8h-1.1v6.8H381.4L381.4,148.3z M383.6,147.5c0.6,0.6,1.4,0.9,2.3,0.9c0.6,0,1.1-0.1,1.6-0.4
		c0.5-0.3,0.9-0.7,1.1-1.2c0.3-0.5,0.4-1.2,0.4-2.1c0-1.1-0.3-1.9-0.9-2.6c-0.6-0.6-1.4-0.9-2.3-0.9c-0.8,0-1.5,0.3-2.1,0.8
		c-0.7,0.6-1,1.5-1,2.8C382.7,146,383,146.9,383.6,147.5L383.6,147.5z M384.4,142.9c0.4-0.4,0.9-0.7,1.4-0.7c0.6,0,1,0.2,1.4,0.7
		c0.4,0.4,0.6,1.1,0.6,1.9c0,0.9-0.2,1.6-0.6,2c-0.4,0.4-0.9,0.7-1.4,0.7c-0.6,0-1.1-0.2-1.4-0.7c-0.4-0.4-0.6-1.1-0.6-2
		S384.1,143.4,384.4,142.9L384.4,142.9z M386.2,140.6l1.4-1.8h-1.5l-0.8,1.8H386.2L386.2,140.6z M391.5,148.3v-3.7
		c0-0.9,0.2-1.5,0.5-1.8c0.4-0.3,0.8-0.5,1.3-0.5c0.3,0,0.6,0.1,0.8,0.2c0.2,0.1,0.4,0.3,0.5,0.6c0.1,0.2,0.1,0.6,0.1,1.1v4.2h1.1
		v-4.2c0-0.5,0-0.9-0.1-1.1c-0.1-0.3-0.2-0.6-0.4-0.9c-0.2-0.2-0.4-0.4-0.8-0.6c-0.3-0.1-0.7-0.2-1.1-0.2c-0.9,0-1.7,0.4-2.2,1.1v-1
		h-1v6.8H391.5L391.5,148.3z"/>
	<line class="st4" x1="369" y1="214.8" x2="369" y2="229.8"/>
	<path d="M369,235.5l-3.8-7.7l3.8,1.9l3.8-1.9L369,235.5z M369,235.5"/>
	<path class="st4" d="M369,235.5l-3.8-7.7l3.8,1.9l3.8-1.9L369,235.5z M369,235.5"/>
	<path class="st0" d="M324.9,181.8h88.2c0.7,0,1.3,0.1,1.9,0.4c0.6,0.2,1.1,0.6,1.6,1.1c0.4,0.4,0.8,1,1,1.6
		c0.2,0.6,0.4,1.2,0.4,1.9v23.1c0,0.7-0.1,1.3-0.4,1.9c-0.2,0.6-0.6,1.1-1,1.6c-0.5,0.4-1,0.8-1.6,1.1c-0.6,0.2-1.2,0.4-1.9,0.4
		h-88.2c-0.7,0-1.3-0.2-1.9-0.4c-0.6-0.2-1.1-0.6-1.6-1.1c-0.4-0.4-0.8-1-1.1-1.6c-0.2-0.6-0.4-1.2-0.4-1.9v-23.1
		c0-0.7,0.2-1.3,0.4-1.9c0.2-0.6,0.6-1.1,1.1-1.6c0.4-0.4,1-0.8,1.6-1.1C323.6,181.9,324.3,181.8,324.9,181.8L324.9,181.8z
		 M324.9,181.8"/>
	<path class="st5" d="M324.9,181.8h88.2c0.7,0,1.3,0.1,1.9,0.4c0.6,0.2,1.1,0.6,1.6,1.1c0.4,0.4,0.8,1,1,1.6
		c0.2,0.6,0.4,1.2,0.4,1.9v23.1c0,0.7-0.1,1.3-0.4,1.9c-0.2,0.6-0.6,1.1-1,1.6c-0.5,0.4-1,0.8-1.6,1.1c-0.6,0.2-1.2,0.4-1.9,0.4
		h-88.2c-0.7,0-1.3-0.2-1.9-0.4c-0.6-0.2-1.1-0.6-1.6-1.1c-0.4-0.4-0.8-1-1.1-1.6c-0.2-0.6-0.4-1.2-0.4-1.9v-23.1
		c0-0.7,0.2-1.3,0.4-1.9c0.2-0.6,0.6-1.1,1.1-1.6c0.4-0.4,1-0.8,1.6-1.1C323.6,181.9,324.3,181.8,324.9,181.8L324.9,181.8z
		 M324.9,181.8"/>
	<path d="M338.1,201.7c-0.5,0.4-1.1,0.6-1.8,0.6c-0.6,0-1.1-0.1-1.6-0.4c-0.5-0.3-0.8-0.7-1.1-1.3c-0.2-0.6-0.3-1.3-0.3-2.1
		c0-0.6,0.1-1.2,0.3-1.8c0.2-0.6,0.5-1.1,1-1.4c0.5-0.3,1.1-0.5,1.8-0.5c0.6,0,1.1,0.2,1.6,0.5c0.4,0.3,0.7,0.8,0.9,1.5l1.2-0.3
		c-0.3-0.9-0.7-1.5-1.3-2c-0.6-0.5-1.4-0.7-2.4-0.7c-0.8,0-1.6,0.2-2.3,0.6c-0.7,0.4-1.2,0.9-1.6,1.7c-0.4,0.7-0.6,1.6-0.6,2.6
		c0,0.9,0.2,1.7,0.5,2.5c0.3,0.8,0.8,1.4,1.4,1.8c0.6,0.4,1.5,0.6,2.5,0.6c1,0,1.8-0.3,2.5-0.8c0.7-0.5,1.1-1.3,1.4-2.3l-1.2-0.3
		C339,200.7,338.6,201.3,338.1,201.7L338.1,201.7z M342.9,203.3v-3.6c0-0.5,0.1-0.9,0.2-1.4c0.1-0.3,0.2-0.5,0.4-0.6
		c0.2-0.2,0.4-0.2,0.7-0.2c0.3,0,0.6,0.1,0.8,0.3l0.4-1.1c-0.4-0.2-0.8-0.4-1.2-0.4c-0.3,0-0.5,0.1-0.7,0.2c-0.2,0.2-0.5,0.5-0.7,1
		v-1h-1v6.8H342.9L342.9,203.3z M351.6,203.3v-6.8h-1.1v3.7c0,0.6-0.1,1-0.2,1.3c-0.1,0.3-0.3,0.5-0.6,0.7c-0.3,0.2-0.6,0.3-1,0.3
		c-0.3,0-0.6-0.1-0.9-0.3c-0.2-0.2-0.4-0.4-0.5-0.7c0-0.2-0.1-0.6-0.1-1.2v-3.8h-1.1v4.2c0,0.5,0,0.9,0.1,1.1
		c0.1,0.3,0.2,0.6,0.4,0.9c0.2,0.2,0.4,0.4,0.8,0.6c0.3,0.2,0.7,0.2,1.1,0.2c0.9,0,1.6-0.4,2.1-1.2v1H351.6L351.6,203.3z
		 M358.7,203.3v-1h-3.1c-0.5,0-0.9,0-1.4,0.1l0.7-0.8l3.7-4.3v-0.8H353v0.9h2.8c0.4,0,0.8,0,1.3,0l-4.3,5v0.9H358.7L358.7,203.3z
		 M364.5,203.3h1.2c-0.1-0.3-0.2-0.5-0.3-0.8c0-0.3-0.1-1-0.1-2v-1.5c0-0.5,0-0.9-0.1-1.1c-0.1-0.3-0.2-0.6-0.4-0.8
		c-0.2-0.2-0.4-0.4-0.8-0.5c-0.4-0.1-0.8-0.2-1.4-0.2c-0.6,0-1.1,0.1-1.5,0.2c-0.4,0.2-0.8,0.4-1,0.7c-0.2,0.3-0.4,0.7-0.5,1.2
		l1.1,0.2c0.1-0.5,0.3-0.8,0.6-1c0.3-0.2,0.7-0.3,1.2-0.3c0.6,0,1,0.1,1.3,0.4c0.2,0.2,0.3,0.5,0.3,1c0,0,0,0.1,0,0.3
		c-0.4,0.2-1.1,0.3-2,0.4c-0.5,0.1-0.8,0.1-1,0.2c-0.3,0.1-0.6,0.2-0.8,0.4c-0.2,0.2-0.4,0.4-0.6,0.7c-0.2,0.3-0.2,0.6-0.2,0.9
		c0,0.6,0.2,1,0.6,1.4c0.4,0.4,1,0.6,1.7,0.6c0.5,0,0.9-0.1,1.3-0.2c0.4-0.2,0.8-0.4,1.2-0.8C364.3,202.7,364.4,203,364.5,203.3
		L364.5,203.3L364.5,203.3z M364.2,200.2c0,0.5-0.1,0.9-0.2,1.2c-0.2,0.3-0.4,0.6-0.8,0.8c-0.3,0.2-0.7,0.3-1.2,0.3
		c-0.4,0-0.8-0.1-1-0.3c-0.2-0.2-0.3-0.5-0.3-0.8c0-0.2,0.1-0.4,0.2-0.6c0.1-0.2,0.3-0.3,0.5-0.4c0.2-0.1,0.5-0.2,1-0.2
		c0.8-0.1,1.5-0.3,1.9-0.4V200.2L364.2,200.2z M368.3,203.3v-3.5c0-0.6,0.1-1.1,0.2-1.4c0.1-0.3,0.3-0.6,0.6-0.8
		c0.3-0.2,0.6-0.3,0.9-0.3c0.4,0,0.7,0.1,0.9,0.4c0.2,0.3,0.3,0.6,0.3,1.2v4.4h1.1v-4c0-0.7,0.2-1.2,0.5-1.5
		c0.3-0.3,0.7-0.5,1.2-0.5c0.3,0,0.5,0.1,0.7,0.2c0.2,0.1,0.3,0.3,0.4,0.5c0.1,0.2,0.1,0.5,0.1,1v4.3h1.1v-4.7
		c0-0.8-0.2-1.4-0.5-1.7c-0.4-0.4-0.9-0.6-1.6-0.6c-0.9,0-1.6,0.4-2.1,1.2c-0.1-0.4-0.4-0.7-0.7-0.9c-0.3-0.2-0.7-0.3-1.2-0.3
		c-0.5,0-0.9,0.1-1.2,0.3c-0.4,0.2-0.6,0.5-0.8,0.8v-1h-1v6.8H368.3L368.3,203.3z M379.2,195.1v-1.3H378v1.3H379.2L379.2,195.1z
		 M379.2,203.3v-6.8H378v6.8H379.2L379.2,203.3z M384.9,202.1c-0.3,0.2-0.7,0.3-1.1,0.3c-0.6,0-1-0.2-1.4-0.6
		c-0.4-0.4-0.6-1-0.6-1.7h5.1c0-0.1,0-0.2,0-0.3c0-1.1-0.3-2-0.9-2.6c-0.6-0.6-1.3-0.9-2.2-0.9c-0.9,0-1.7,0.3-2.3,1
		c-0.6,0.6-0.9,1.5-0.9,2.7c0,1.1,0.3,2,0.9,2.6c0.6,0.6,1.4,0.9,2.4,0.9c0.8,0,1.4-0.2,1.9-0.6c0.5-0.4,0.9-0.9,1-1.6l-1.2-0.1
		C385.4,201.5,385.2,201.9,384.9,202.1L384.9,202.1z M382.4,197.7c0.4-0.4,0.8-0.5,1.3-0.5c0.6,0,1.1,0.2,1.4,0.7
		c0.2,0.3,0.4,0.7,0.4,1.3h-3.8C381.8,198.6,382,198.1,382.4,197.7L382.4,197.7z M389.3,203.3v-3.7c0-0.9,0.2-1.5,0.5-1.8
		c0.4-0.3,0.8-0.5,1.3-0.5c0.3,0,0.6,0.1,0.8,0.2c0.2,0.1,0.4,0.3,0.5,0.6c0.1,0.2,0.1,0.6,0.1,1.1v4.2h1.1V199c0-0.5,0-0.9-0.1-1.1
		c-0.1-0.3-0.2-0.6-0.4-0.9c-0.2-0.2-0.4-0.4-0.8-0.6c-0.3-0.1-0.7-0.2-1.1-0.2c-0.9,0-1.7,0.4-2.2,1.1v-1h-1v6.8H389.3L389.3,203.3
		z M397.5,202.3c-0.2,0-0.3,0-0.4-0.1c-0.1-0.1-0.2-0.1-0.2-0.2c0-0.1-0.1-0.3-0.1-0.6v-4h1.2v-0.9h-1.2V194l-1.1,0.7v1.7h-0.8v0.9
		h0.8v3.9c0,0.7,0,1.2,0.1,1.4c0.1,0.2,0.3,0.4,0.5,0.5c0.2,0.1,0.6,0.2,1,0.2c0.3,0,0.5,0,0.9-0.1l-0.2-1
		C397.8,202.2,397.6,202.3,397.5,202.3L397.5,202.3L397.5,202.3z M399.5,202.5c0.6,0.6,1.4,0.9,2.3,0.9c0.6,0,1.1-0.1,1.6-0.4
		c0.5-0.3,0.9-0.7,1.1-1.2c0.3-0.5,0.4-1.2,0.4-2.1c0-1.1-0.3-1.9-0.9-2.6c-0.6-0.6-1.4-0.9-2.3-0.9c-0.8,0-1.5,0.3-2.1,0.8
		c-0.7,0.6-1,1.5-1,2.8C398.7,201,399,201.9,399.5,202.5L399.5,202.5z M400.4,197.9c0.4-0.4,0.9-0.7,1.4-0.7c0.6,0,1,0.2,1.4,0.7
		c0.4,0.4,0.6,1.1,0.6,1.9c0,0.9-0.2,1.6-0.6,2c-0.4,0.4-0.9,0.7-1.4,0.7c-0.6,0-1.1-0.2-1.4-0.7c-0.4-0.4-0.6-1.1-0.6-2
		S400,198.3,400.4,197.9L400.4,197.9z"/>
	<line class="st4" x1="320" y1="253.2" x2="272.5" y2="253.2"/>
	<path d="M266.8,253.2l7.6-3.8l-1.9,3.8l1.9,3.8L266.8,253.2z M266.8,253.2"/>
	<path class="st4" d="M266.8,253.2l7.6-3.8l-1.9,3.8l1.9,3.8L266.8,253.2z M266.8,253.2"/>
	<path class="st0" d="M324.9,236.7h88.2c0.7,0,1.3,0.2,1.9,0.4c0.6,0.2,1.1,0.6,1.6,1.1c0.4,0.4,0.8,1,1,1.6
		c0.2,0.6,0.4,1.2,0.4,1.9v23.1c0,0.7-0.1,1.3-0.4,1.9c-0.2,0.6-0.6,1.1-1,1.6c-0.5,0.4-1,0.8-1.6,1.1c-0.6,0.2-1.2,0.4-1.9,0.4
		h-88.2c-0.7,0-1.3-0.1-1.9-0.4c-0.6-0.2-1.1-0.6-1.6-1.1c-0.4-0.4-0.8-1-1.1-1.6c-0.2-0.6-0.4-1.2-0.4-1.9v-23.1
		c0-0.7,0.2-1.3,0.4-1.9c0.2-0.6,0.6-1.1,1.1-1.6c0.4-0.4,1-0.8,1.6-1.1C323.6,236.9,324.3,236.7,324.9,236.7L324.9,236.7z
		 M324.9,236.7"/>
	<path class="st5" d="M324.9,236.7h88.2c0.7,0,1.3,0.2,1.9,0.4c0.6,0.2,1.1,0.6,1.6,1.1c0.4,0.4,0.8,1,1,1.6
		c0.2,0.6,0.4,1.2,0.4,1.9v23.1c0,0.7-0.1,1.3-0.4,1.9c-0.2,0.6-0.6,1.1-1,1.6c-0.5,0.4-1,0.8-1.6,1.1c-0.6,0.2-1.2,0.4-1.9,0.4
		h-88.2c-0.7,0-1.3-0.1-1.9-0.4c-0.6-0.2-1.1-0.6-1.6-1.1c-0.4-0.4-0.8-1-1.1-1.6c-0.2-0.6-0.4-1.2-0.4-1.9v-23.1
		c0-0.7,0.2-1.3,0.4-1.9c0.2-0.6,0.6-1.1,1.1-1.6c0.4-0.4,1-0.8,1.6-1.1C323.6,236.9,324.3,236.7,324.9,236.7L324.9,236.7z
		 M324.9,236.7"/>
	<path d="M344.1,258.2v-8l2.7,8h1.1l2.7-7.9v7.9h1.2v-9.4h-1.7l-2.2,6.6c-0.2,0.7-0.4,1.2-0.5,1.5c-0.1-0.3-0.2-0.8-0.4-1.4
		l-2.2-6.7h-1.9v9.4H344.1L344.1,258.2z M359.2,258.2v-6.8H358v3.7c0,0.6-0.1,1-0.2,1.3c-0.1,0.3-0.3,0.5-0.6,0.7
		c-0.3,0.2-0.6,0.3-1,0.3c-0.3,0-0.6-0.1-0.9-0.3c-0.2-0.2-0.4-0.4-0.5-0.7c0-0.2-0.1-0.6-0.1-1.2v-3.8h-1.1v4.2
		c0,0.5,0,0.9,0.1,1.1c0.1,0.3,0.2,0.6,0.4,0.9c0.2,0.2,0.4,0.4,0.8,0.6c0.3,0.2,0.7,0.2,1.1,0.2c0.9,0,1.6-0.4,2.1-1.2v1H359.2
		L359.2,258.2z M363,257.2c-0.2,0-0.3,0-0.4-0.1c-0.1-0.1-0.2-0.1-0.2-0.2c0-0.1-0.1-0.3-0.1-0.6v-4h1.2v-0.9h-1.2V249l-1.1,0.7v1.7
		h-0.8v0.9h0.8v3.9c0,0.7,0,1.2,0.1,1.4c0.1,0.2,0.3,0.4,0.5,0.5c0.2,0.1,0.6,0.2,1,0.2c0.3,0,0.5,0,0.9-0.1l-0.2-1
		C363.3,257.2,363.1,257.2,363,257.2L363,257.2L363,257.2z M369.2,258.2h1.2c-0.1-0.3-0.2-0.5-0.3-0.8c0-0.3-0.1-1-0.1-2v-1.5
		c0-0.5,0-0.9-0.1-1.1c-0.1-0.3-0.2-0.6-0.4-0.8c-0.2-0.2-0.4-0.4-0.8-0.5c-0.4-0.1-0.8-0.2-1.4-0.2c-0.6,0-1.1,0.1-1.5,0.2
		c-0.4,0.2-0.8,0.4-1,0.7c-0.2,0.3-0.4,0.7-0.5,1.2l1.1,0.2c0.1-0.5,0.3-0.8,0.6-1c0.3-0.2,0.7-0.3,1.2-0.3c0.6,0,1,0.1,1.3,0.4
		c0.2,0.2,0.3,0.5,0.3,1c0,0,0,0.1,0,0.3c-0.4,0.2-1.1,0.3-2,0.4c-0.5,0.1-0.8,0.1-1,0.2c-0.3,0.1-0.6,0.2-0.8,0.4
		c-0.2,0.2-0.4,0.4-0.6,0.7c-0.2,0.3-0.2,0.6-0.2,0.9c0,0.6,0.2,1,0.6,1.4c0.4,0.4,1,0.6,1.7,0.6c0.5,0,0.9-0.1,1.3-0.2
		c0.4-0.2,0.8-0.4,1.2-0.8C369,257.7,369.1,257.9,369.2,258.2L369.2,258.2L369.2,258.2z M368.9,255.2c0,0.5-0.1,0.9-0.2,1.2
		c-0.2,0.3-0.4,0.6-0.8,0.8c-0.3,0.2-0.7,0.3-1.2,0.3c-0.4,0-0.8-0.1-1-0.3c-0.2-0.2-0.3-0.5-0.3-0.8c0-0.2,0.1-0.4,0.2-0.6
		c0.1-0.2,0.3-0.3,0.5-0.4c0.2-0.1,0.5-0.2,1-0.2c0.8-0.1,1.5-0.3,1.9-0.4V255.2L368.9,255.2z M375.7,257c-0.3,0.3-0.7,0.4-1.1,0.4
		c-0.6,0-1-0.2-1.4-0.6c-0.3-0.4-0.5-1.1-0.5-2c0-0.9,0.2-1.6,0.5-2c0.4-0.4,0.8-0.6,1.4-0.6c0.4,0,0.7,0.1,1,0.3
		c0.3,0.2,0.5,0.6,0.6,1l1.1-0.2c-0.1-0.7-0.4-1.2-0.9-1.6c-0.5-0.4-1.1-0.6-1.8-0.6c-0.6,0-1.1,0.1-1.6,0.4
		c-0.5,0.3-0.9,0.7-1.1,1.2c-0.2,0.6-0.4,1.2-0.4,1.9c0,1.1,0.3,2,0.8,2.6c0.6,0.6,1.3,0.9,2.2,0.9c0.7,0,1.4-0.2,1.9-0.7
		c0.5-0.4,0.8-1.1,0.9-1.8l-1.1-0.1C376.2,256.3,376,256.7,375.7,257L375.7,257z M379.5,250.1v-1.3h-1.1v1.3H379.5L379.5,250.1z
		 M379.5,258.2v-6.8h-1.1v6.8H379.5L379.5,258.2z M381.7,257.4c0.6,0.6,1.4,0.9,2.3,0.9c0.6,0,1.1-0.1,1.6-0.4
		c0.5-0.3,0.9-0.7,1.1-1.2c0.3-0.5,0.4-1.2,0.4-2.1c0-1.1-0.3-1.9-0.9-2.6c-0.6-0.6-1.4-0.9-2.3-0.9c-0.8,0-1.5,0.3-2.1,0.8
		c-0.7,0.6-1,1.5-1,2.8C380.9,255.9,381.2,256.8,381.7,257.4L381.7,257.4z M382.6,252.8c0.4-0.4,0.9-0.7,1.4-0.7
		c0.6,0,1,0.2,1.4,0.7c0.4,0.4,0.6,1.1,0.6,1.9c0,0.9-0.2,1.6-0.6,2c-0.4,0.4-0.9,0.7-1.4,0.7c-0.6,0-1.1-0.2-1.4-0.7
		c-0.4-0.4-0.6-1.1-0.6-2S382.2,253.2,382.6,252.8L382.6,252.8z M384.4,250.5l1.4-1.8h-1.5l-0.8,1.8H384.4L384.4,250.5z
		 M389.7,258.2v-3.7c0-0.9,0.2-1.5,0.5-1.8c0.4-0.3,0.8-0.5,1.3-0.5c0.3,0,0.6,0.1,0.8,0.2c0.2,0.1,0.4,0.3,0.5,0.6
		c0.1,0.2,0.1,0.6,0.1,1.1v4.2h1.1V254c0-0.5,0-0.9-0.1-1.1c-0.1-0.3-0.2-0.6-0.4-0.9c-0.2-0.2-0.4-0.4-0.8-0.6
		c-0.3-0.1-0.7-0.2-1.1-0.2c-0.9,0-1.7,0.4-2.2,1.1v-1h-1v6.8H389.7L389.7,258.2z"/>
	<line class="st4" x1="200.2" y1="231.3" x2="200.2" y2="68"/>
	<path d="M200.2,62.2l3.8,7.6l-3.8-1.9l-3.8,1.9L200.2,62.2z M200.2,62.2"/>
	<path class="st4" d="M200.2,62.2l3.8,7.6l-3.8-1.9l-3.8,1.9L200.2,62.2z M200.2,62.2"/>
	<path class="st0" d="M141.4,231.3H259c0.4,0,0.8,0.1,1.3,0.1c0.4,0.1,0.8,0.2,1.2,0.4c0.4,0.2,0.8,0.4,1.1,0.6
		c0.4,0.2,0.7,0.5,1,0.8c0.3,0.3,0.6,0.7,0.8,1c0.2,0.4,0.4,0.8,0.6,1.1c0.1,0.4,0.3,0.8,0.4,1.2c0.1,0.4,0.1,0.8,0.1,1.3v30.8
		c0,0.4-0.1,0.8-0.1,1.3c-0.1,0.4-0.2,0.8-0.4,1.2c-0.2,0.4-0.4,0.8-0.6,1.1c-0.2,0.4-0.5,0.7-0.8,1c-0.3,0.3-0.6,0.6-1,0.8
		c-0.4,0.2-0.8,0.4-1.1,0.6c-0.4,0.2-0.8,0.3-1.2,0.4c-0.4,0.1-0.8,0.2-1.3,0.2H141.4c-0.4,0-0.8-0.1-1.3-0.2
		c-0.5-0.1-0.8-0.2-1.2-0.4c-0.4-0.1-0.8-0.4-1.1-0.6c-0.4-0.2-0.7-0.5-1-0.8c-0.3-0.3-0.6-0.7-0.8-1c-0.2-0.4-0.5-0.8-0.6-1.1
		c-0.1-0.4-0.3-0.8-0.4-1.2c-0.1-0.5-0.1-0.8-0.1-1.3v-30.8c0-0.4,0.1-0.8,0.1-1.3c0.1-0.4,0.2-0.8,0.4-1.2c0.1-0.4,0.4-0.8,0.6-1.1
		c0.2-0.4,0.5-0.7,0.8-1c0.3-0.3,0.6-0.6,1-0.8c0.4-0.2,0.8-0.4,1.1-0.6c0.4-0.1,0.8-0.3,1.2-0.4
		C140.6,231.3,141.1,231.3,141.4,231.3L141.4,231.3z M141.4,231.3"/>
	<path class="st9" d="M141.4,231.3H259c0.4,0,0.8,0.1,1.3,0.1c0.4,0.1,0.8,0.2,1.2,0.4c0.4,0.2,0.8,0.4,1.1,0.6
		c0.4,0.2,0.7,0.5,1,0.8c0.3,0.3,0.6,0.7,0.8,1c0.2,0.4,0.4,0.8,0.6,1.1c0.1,0.4,0.3,0.8,0.4,1.2c0.1,0.4,0.1,0.8,0.1,1.3v30.8
		c0,0.4-0.1,0.8-0.1,1.3c-0.1,0.4-0.2,0.8-0.4,1.2c-0.2,0.4-0.4,0.8-0.6,1.1c-0.2,0.4-0.5,0.7-0.8,1c-0.3,0.3-0.6,0.6-1,0.8
		c-0.4,0.2-0.8,0.4-1.1,0.6c-0.4,0.2-0.8,0.3-1.2,0.4c-0.4,0.1-0.8,0.2-1.3,0.2H141.4c-0.4,0-0.8-0.1-1.3-0.2
		c-0.5-0.1-0.8-0.2-1.2-0.4c-0.4-0.1-0.8-0.4-1.1-0.6c-0.4-0.2-0.7-0.5-1-0.8c-0.3-0.3-0.6-0.7-0.8-1c-0.2-0.4-0.5-0.8-0.6-1.1
		c-0.1-0.4-0.3-0.8-0.4-1.2c-0.1-0.5-0.1-0.8-0.1-1.3v-30.8c0-0.4,0.1-0.8,0.1-1.3c0.1-0.4,0.2-0.8,0.4-1.2c0.1-0.4,0.4-0.8,0.6-1.1
		c0.2-0.4,0.5-0.7,0.8-1c0.3-0.3,0.6-0.6,1-0.8c0.4-0.2,0.8-0.4,1.1-0.6c0.4-0.1,0.8-0.3,1.2-0.4
		C140.6,231.3,141.1,231.3,141.4,231.3L141.4,231.3z M141.4,231.3"/>
	<path class="st10" d="M141.4,231.3H259c0.4,0,0.8,0.1,1.3,0.1c0.4,0.1,0.8,0.2,1.2,0.4c0.4,0.2,0.8,0.4,1.1,0.6
		c0.4,0.2,0.7,0.5,1,0.8c0.3,0.3,0.6,0.7,0.8,1c0.2,0.4,0.4,0.8,0.6,1.1c0.1,0.4,0.3,0.8,0.4,1.2c0.1,0.4,0.1,0.8,0.1,1.3v30.8
		c0,0.4-0.1,0.8-0.1,1.3c-0.1,0.4-0.2,0.8-0.4,1.2c-0.2,0.4-0.4,0.8-0.6,1.1c-0.2,0.4-0.5,0.7-0.8,1c-0.3,0.3-0.6,0.6-1,0.8
		c-0.4,0.2-0.8,0.4-1.1,0.6c-0.4,0.2-0.8,0.3-1.2,0.4c-0.4,0.1-0.8,0.2-1.3,0.2H141.4c-0.4,0-0.8-0.1-1.3-0.2
		c-0.5-0.1-0.8-0.2-1.2-0.4c-0.4-0.1-0.8-0.4-1.1-0.6c-0.4-0.2-0.7-0.5-1-0.8c-0.3-0.3-0.6-0.7-0.8-1c-0.2-0.4-0.5-0.8-0.6-1.1
		c-0.1-0.4-0.3-0.8-0.4-1.2c-0.1-0.5-0.1-0.8-0.1-1.3v-30.8c0-0.4,0.1-0.8,0.1-1.3c0.1-0.4,0.2-0.8,0.4-1.2c0.1-0.4,0.4-0.8,0.6-1.1
		c0.2-0.4,0.5-0.7,0.8-1c0.3-0.3,0.6-0.6,1-0.8c0.4-0.2,0.8-0.4,1.1-0.6c0.4-0.1,0.8-0.3,1.2-0.4
		C140.6,231.3,141.1,231.3,141.4,231.3L141.4,231.3z M141.4,231.3"/>
	<path d="M140.6,250.5v-4.2h1.4c0.3,0,0.5,0,0.7,0c0.2,0,0.4,0.1,0.6,0.3c0.2,0.1,0.4,0.3,0.6,0.6c0.2,0.3,0.5,0.7,0.9,1.3l1.2,2
		h1.6l-1.6-2.6c-0.3-0.5-0.7-0.9-1-1.3c-0.2-0.2-0.4-0.3-0.7-0.5c0.9-0.1,1.6-0.4,2-0.9c0.4-0.5,0.6-1,0.6-1.7c0-0.5-0.1-1-0.4-1.4
		c-0.3-0.4-0.6-0.7-1-0.9c-0.4-0.2-1.1-0.3-1.9-0.3h-4.1v9.4H140.6L140.6,250.5z M140.6,242.1h3c0.7,0,1.2,0.1,1.5,0.4
		c0.3,0.3,0.5,0.7,0.5,1.1c0,0.3-0.1,0.6-0.2,0.8c-0.2,0.3-0.4,0.4-0.7,0.6c-0.3,0.1-0.8,0.2-1.3,0.2h-2.7V242.1L140.6,242.1z
		 M152.6,249.4c-0.3,0.2-0.7,0.3-1.1,0.3c-0.6,0-1-0.2-1.4-0.6c-0.4-0.4-0.6-1-0.6-1.7h5.1c0-0.1,0-0.2,0-0.3c0-1.1-0.3-2-0.9-2.6
		c-0.6-0.6-1.3-0.9-2.2-0.9c-0.9,0-1.7,0.3-2.3,1c-0.6,0.6-0.9,1.5-0.9,2.7c0,1.1,0.3,2,0.9,2.6c0.6,0.6,1.4,0.9,2.4,0.9
		c0.8,0,1.4-0.2,1.9-0.6c0.5-0.4,0.9-0.9,1-1.6l-1.2-0.1C153.1,248.8,152.9,249.1,152.6,249.4L152.6,249.4z M150.1,245
		c0.4-0.4,0.8-0.5,1.3-0.5c0.6,0,1.1,0.2,1.4,0.7c0.2,0.3,0.4,0.7,0.4,1.3h-3.8C149.6,245.8,149.8,245.3,150.1,245L150.1,245z
		 M157.1,250.5V247c0-0.6,0.1-1.1,0.2-1.4c0.1-0.3,0.3-0.6,0.6-0.8c0.3-0.2,0.6-0.3,0.9-0.3c0.4,0,0.7,0.1,0.9,0.4
		c0.2,0.3,0.3,0.6,0.3,1.2v4.4h1.1v-4c0-0.7,0.2-1.2,0.5-1.5c0.3-0.3,0.7-0.5,1.2-0.5c0.3,0,0.5,0.1,0.7,0.2
		c0.2,0.1,0.3,0.3,0.4,0.5c0.1,0.2,0.1,0.5,0.1,1v4.3h1.1v-4.7c0-0.8-0.2-1.4-0.5-1.7c-0.4-0.4-0.9-0.6-1.6-0.6
		c-0.9,0-1.6,0.4-2.1,1.2c-0.1-0.4-0.4-0.7-0.7-0.9c-0.3-0.2-0.7-0.3-1.2-0.3c-0.5,0-0.9,0.1-1.2,0.3c-0.4,0.2-0.6,0.5-0.8,0.8v-1
		h-1v6.8H157.1L157.1,250.5z M168,253.1v-3.3c0.2,0.2,0.4,0.5,0.7,0.6c0.3,0.2,0.6,0.2,1,0.2c0.5,0,1-0.1,1.5-0.4
		c0.5-0.3,0.8-0.7,1.1-1.3c0.2-0.6,0.4-1.2,0.4-1.9c0-0.7-0.1-1.3-0.3-1.8c-0.2-0.5-0.6-1-1-1.3c-0.4-0.3-1-0.5-1.5-0.5
		c-0.4,0-0.8,0.1-1.1,0.3c-0.3,0.2-0.6,0.4-0.8,0.8v-0.9h-1v9.5H168L168,253.1z M168.4,245.1c0.4-0.5,0.8-0.7,1.3-0.7
		c0.5,0,0.9,0.2,1.3,0.7c0.4,0.4,0.5,1.1,0.5,2c0,0.9-0.2,1.6-0.5,2c-0.4,0.4-0.8,0.7-1.3,0.7c-0.5,0-0.9-0.2-1.3-0.6
		c-0.4-0.4-0.5-1.1-0.5-2C167.9,246.2,168,245.6,168.4,245.1L168.4,245.1z M175.2,250.5v-9.4h-1.1v9.4H175.2L175.2,250.5z
		 M181.6,250.5h1.2c-0.1-0.3-0.2-0.5-0.3-0.8c0-0.3-0.1-1-0.1-2v-1.5c0-0.5,0-0.9-0.1-1.1c-0.1-0.3-0.2-0.6-0.4-0.8
		c-0.2-0.2-0.4-0.4-0.8-0.5c-0.4-0.1-0.8-0.2-1.4-0.2c-0.6,0-1.1,0.1-1.5,0.2c-0.4,0.2-0.8,0.4-1,0.7c-0.2,0.3-0.4,0.7-0.5,1.2
		l1.1,0.2c0.1-0.5,0.3-0.8,0.6-1c0.3-0.2,0.7-0.3,1.2-0.3c0.6,0,1,0.1,1.3,0.4c0.2,0.2,0.3,0.5,0.3,1c0,0,0,0.1,0,0.3
		c-0.4,0.2-1.1,0.3-2,0.4c-0.5,0.1-0.8,0.1-1,0.2c-0.3,0.1-0.6,0.2-0.8,0.4c-0.2,0.2-0.4,0.4-0.6,0.7c-0.2,0.3-0.2,0.6-0.2,0.9
		c0,0.6,0.2,1,0.6,1.4c0.4,0.4,1,0.6,1.7,0.6c0.5,0,0.9-0.1,1.3-0.2c0.4-0.2,0.8-0.4,1.2-0.8C181.4,250,181.5,250.3,181.6,250.5
		L181.6,250.5L181.6,250.5z M181.3,247.5c0,0.5-0.1,0.9-0.2,1.2c-0.2,0.3-0.4,0.6-0.8,0.8c-0.3,0.2-0.7,0.3-1.2,0.3
		c-0.4,0-0.8-0.1-1-0.3c-0.2-0.2-0.3-0.5-0.3-0.8c0-0.2,0.1-0.4,0.2-0.6c0.1-0.2,0.3-0.3,0.5-0.4c0.2-0.1,0.5-0.2,1-0.2
		c0.8-0.1,1.5-0.3,1.9-0.4V247.5L181.3,247.5z M189.6,250.5v-1h-3.1c-0.5,0-0.9,0-1.4,0.1l0.7-0.8l3.7-4.3v-0.8h-5.5v0.9h2.8
		c0.4,0,0.8,0,1.3,0l-4.3,5v0.9H189.6L189.6,250.5z M195.4,250.5h1.2c-0.1-0.3-0.2-0.5-0.3-0.8c0-0.3-0.1-1-0.1-2v-1.5
		c0-0.5,0-0.9-0.1-1.1c-0.1-0.3-0.2-0.6-0.4-0.8c-0.2-0.2-0.4-0.4-0.8-0.5c-0.4-0.1-0.8-0.2-1.4-0.2c-0.6,0-1.1,0.1-1.5,0.2
		c-0.4,0.2-0.8,0.4-1,0.7c-0.2,0.3-0.4,0.7-0.5,1.2l1.1,0.2c0.1-0.5,0.3-0.8,0.6-1c0.3-0.2,0.7-0.3,1.2-0.3c0.6,0,1,0.1,1.3,0.4
		c0.2,0.2,0.3,0.5,0.3,1c0,0,0,0.1,0,0.3c-0.4,0.2-1.1,0.3-2,0.4c-0.5,0.1-0.8,0.1-1,0.2c-0.3,0.1-0.6,0.2-0.8,0.4
		c-0.2,0.2-0.4,0.4-0.6,0.7c-0.2,0.3-0.2,0.6-0.2,0.9c0,0.6,0.2,1,0.6,1.4c0.4,0.4,1,0.6,1.7,0.6c0.5,0,0.9-0.1,1.3-0.2
		c0.4-0.2,0.8-0.4,1.2-0.8C195.2,250,195.3,250.3,195.4,250.5L195.4,250.5L195.4,250.5z M195.1,247.5c0,0.5-0.1,0.9-0.2,1.2
		c-0.2,0.3-0.4,0.6-0.8,0.8c-0.3,0.2-0.7,0.3-1.2,0.3c-0.4,0-0.8-0.1-1-0.3c-0.2-0.2-0.3-0.5-0.3-0.8c0-0.2,0.1-0.4,0.2-0.6
		c0.1-0.2,0.3-0.3,0.5-0.4c0.2-0.1,0.5-0.2,1-0.2c0.8-0.1,1.5-0.3,1.9-0.4V247.5L195.1,247.5z M199.2,250.5v-3.6
		c0-0.5,0.1-0.9,0.2-1.4c0.1-0.3,0.2-0.5,0.4-0.6c0.2-0.2,0.4-0.2,0.7-0.2c0.3,0,0.6,0.1,0.8,0.3l0.4-1.1c-0.4-0.2-0.8-0.4-1.2-0.4
		c-0.3,0-0.5,0.1-0.7,0.2c-0.2,0.2-0.5,0.5-0.7,1v-1h-1v6.8H199.2L199.2,250.5z M207.2,253.1v-3.3c0.2,0.2,0.4,0.5,0.7,0.6
		c0.3,0.2,0.6,0.2,1,0.2c0.5,0,1-0.1,1.5-0.4c0.5-0.3,0.8-0.7,1.1-1.3c0.2-0.6,0.4-1.2,0.4-1.9c0-0.7-0.1-1.3-0.3-1.8
		c-0.2-0.5-0.6-1-1-1.3c-0.4-0.3-1-0.5-1.5-0.5c-0.4,0-0.8,0.1-1.1,0.3c-0.3,0.2-0.6,0.4-0.8,0.8v-0.9h-1v9.5H207.2L207.2,253.1z
		 M207.6,245.1c0.4-0.5,0.8-0.7,1.3-0.7c0.5,0,0.9,0.2,1.3,0.7c0.4,0.4,0.5,1.1,0.5,2c0,0.9-0.2,1.6-0.5,2c-0.4,0.4-0.8,0.7-1.3,0.7
		c-0.5,0-0.9-0.2-1.3-0.6c-0.4-0.4-0.5-1.1-0.5-2C207.1,246.2,207.3,245.6,207.6,245.1L207.6,245.1z M213.7,249.7
		c0.6,0.6,1.4,0.9,2.3,0.9c0.6,0,1.1-0.1,1.6-0.4c0.5-0.3,0.9-0.7,1.1-1.2c0.3-0.5,0.4-1.2,0.4-2.1c0-1.1-0.3-1.9-0.9-2.6
		c-0.6-0.6-1.4-0.9-2.3-0.9c-0.8,0-1.5,0.3-2.1,0.8c-0.7,0.6-1,1.5-1,2.8C212.9,248.2,213.2,249.1,213.7,249.7L213.7,249.7z
		 M214.6,245.1c0.4-0.4,0.9-0.7,1.4-0.7c0.6,0,1,0.2,1.4,0.7c0.4,0.4,0.6,1.1,0.6,1.9c0,0.9-0.2,1.6-0.6,2c-0.4,0.4-0.9,0.7-1.4,0.7
		c-0.6,0-1.1-0.2-1.4-0.7c-0.4-0.4-0.6-1.1-0.6-2S214.2,245.5,214.6,245.1L214.6,245.1z M221.6,249.6c0.5,0.7,1.1,1,1.9,1
		c0.8,0,1.5-0.3,2.1-1c0.6-0.6,0.9-1.5,0.9-2.7c0-0.5-0.1-1-0.2-1.4c-0.1-0.4-0.3-0.8-0.6-1.1c-0.2-0.3-0.5-0.5-0.9-0.7
		c-0.4-0.2-0.8-0.3-1.2-0.3c-0.8,0-1.4,0.3-1.9,0.9v-3.4h-1.1v9.4h1.1V249.6L221.6,249.6z M222.2,245.1c0.4-0.4,0.8-0.7,1.3-0.7
		c0.5,0,0.9,0.2,1.3,0.6c0.4,0.4,0.5,1.1,0.5,2c0,0.9-0.2,1.5-0.5,2c-0.4,0.4-0.8,0.7-1.3,0.7c-0.6,0-1.1-0.3-1.5-0.9
		c-0.2-0.4-0.3-1-0.3-1.8C221.6,246.2,221.8,245.6,222.2,245.1L222.2,245.1z M228.9,250.5v-9.4h-1.1v9.4H228.9L228.9,250.5z
		 M235.4,250.5h1.2c-0.1-0.3-0.2-0.5-0.3-0.8c0-0.3-0.1-1-0.1-2v-1.5c0-0.5,0-0.9-0.1-1.1c-0.1-0.3-0.2-0.6-0.4-0.8
		c-0.2-0.2-0.4-0.4-0.8-0.5c-0.4-0.1-0.8-0.2-1.4-0.2c-0.6,0-1.1,0.1-1.5,0.2c-0.4,0.2-0.8,0.4-1,0.7c-0.2,0.3-0.4,0.7-0.5,1.2
		l1.1,0.2c0.1-0.5,0.3-0.8,0.6-1c0.3-0.2,0.7-0.3,1.2-0.3c0.6,0,1,0.1,1.3,0.4c0.2,0.2,0.3,0.5,0.3,1c0,0,0,0.1,0,0.3
		c-0.4,0.2-1.1,0.3-2,0.4c-0.5,0.1-0.8,0.1-1,0.2c-0.3,0.1-0.6,0.2-0.8,0.4c-0.2,0.2-0.4,0.4-0.6,0.7c-0.2,0.3-0.2,0.6-0.2,0.9
		c0,0.6,0.2,1,0.6,1.4c0.4,0.4,1,0.6,1.7,0.6c0.5,0,0.9-0.1,1.3-0.2c0.4-0.2,0.8-0.4,1.2-0.8C235.2,250,235.3,250.3,235.4,250.5
		L235.4,250.5L235.4,250.5z M235,247.5c0,0.5-0.1,0.9-0.2,1.2c-0.2,0.3-0.4,0.6-0.8,0.8c-0.3,0.2-0.7,0.3-1.2,0.3
		c-0.4,0-0.8-0.1-1-0.3c-0.2-0.2-0.3-0.5-0.3-0.8c0-0.2,0.1-0.4,0.2-0.6c0.1-0.2,0.3-0.3,0.5-0.4c0.2-0.1,0.5-0.2,1-0.2
		c0.8-0.1,1.5-0.3,1.9-0.4V247.5L235,247.5z M241.8,249.3c-0.3,0.3-0.7,0.4-1.1,0.4c-0.6,0-1-0.2-1.4-0.6c-0.3-0.4-0.5-1.1-0.5-2
		c0-0.9,0.2-1.6,0.5-2c0.4-0.4,0.8-0.6,1.4-0.6c0.4,0,0.7,0.1,1,0.3c0.3,0.2,0.5,0.6,0.6,1l1.1-0.2c-0.1-0.7-0.4-1.2-0.9-1.6
		c-0.5-0.4-1.1-0.6-1.8-0.6c-0.6,0-1.1,0.1-1.6,0.4c-0.5,0.3-0.9,0.7-1.1,1.2c-0.2,0.6-0.4,1.2-0.4,1.9c0,1.1,0.3,2,0.8,2.6
		c0.6,0.6,1.3,0.9,2.2,0.9c0.7,0,1.4-0.2,1.9-0.7c0.5-0.4,0.8-1.1,0.9-1.8l-1.1-0.1C242.3,248.6,242.1,249,241.8,249.3L241.8,249.3z
		 M245.7,242.4v-1.3h-1.1v1.3H245.7L245.7,242.4z M245.7,250.5v-6.8h-1.1v6.8H245.7L245.7,250.5z M247.9,249.7
		c0.6,0.6,1.4,0.9,2.3,0.9c0.6,0,1.1-0.1,1.6-0.4c0.5-0.3,0.9-0.7,1.1-1.2c0.3-0.5,0.4-1.2,0.4-2.1c0-1.1-0.3-1.9-0.9-2.6
		c-0.6-0.6-1.4-0.9-2.3-0.9c-0.8,0-1.5,0.3-2.1,0.8c-0.7,0.6-1,1.5-1,2.8C247,248.2,247.3,249.1,247.9,249.7L247.9,249.7z
		 M248.7,245.1c0.4-0.4,0.9-0.7,1.4-0.7c0.6,0,1,0.2,1.4,0.7c0.4,0.4,0.6,1.1,0.6,1.9c0,0.9-0.2,1.6-0.6,2c-0.4,0.4-0.9,0.7-1.4,0.7
		c-0.6,0-1.1-0.2-1.4-0.7c-0.4-0.4-0.6-1.1-0.6-2S248.4,245.5,248.7,245.1L248.7,245.1z M250.5,242.8l1.4-1.8h-1.5l-0.8,1.8H250.5
		L250.5,242.8z M255.8,250.5v-3.7c0-0.9,0.2-1.5,0.5-1.8c0.4-0.3,0.8-0.5,1.3-0.5c0.3,0,0.6,0.1,0.8,0.2c0.2,0.1,0.4,0.3,0.5,0.6
		c0.1,0.2,0.1,0.6,0.1,1.1v4.2h1.1v-4.2c0-0.5,0-0.9-0.1-1.1c-0.1-0.3-0.2-0.6-0.4-0.9c-0.2-0.2-0.4-0.4-0.8-0.6
		c-0.3-0.1-0.7-0.2-1.1-0.2c-0.9,0-1.7,0.4-2.2,1.1v-1h-1v6.8H255.8L255.8,250.5z"/>
	<path d="M151.6,268.5v-3.3c0.2,0.2,0.4,0.5,0.7,0.6c0.3,0.2,0.6,0.2,1,0.2c0.5,0,1-0.1,1.5-0.4c0.5-0.3,0.8-0.7,1.1-1.3
		s0.4-1.2,0.4-1.9c0-0.7-0.1-1.3-0.3-1.8c-0.2-0.5-0.6-1-1-1.3c-0.4-0.3-1-0.5-1.5-0.5c-0.4,0-0.8,0.1-1.1,0.3
		c-0.3,0.2-0.6,0.4-0.8,0.8V259h-1v9.5H151.6L151.6,268.5z M152.1,260.5c0.4-0.5,0.8-0.7,1.3-0.7c0.5,0,0.9,0.2,1.3,0.7
		c0.4,0.4,0.5,1.1,0.5,2c0,0.9-0.2,1.6-0.5,2c-0.4,0.4-0.8,0.7-1.3,0.7c-0.5,0-0.9-0.2-1.3-0.6c-0.4-0.4-0.5-1.1-0.5-2
		C151.5,261.6,151.7,260.9,152.1,260.5L152.1,260.5z M158.2,265.1c0.6,0.6,1.4,0.9,2.3,0.9c0.6,0,1.1-0.1,1.6-0.4
		c0.5-0.3,0.9-0.7,1.1-1.2c0.3-0.5,0.4-1.2,0.4-2.1c0-1.1-0.3-1.9-0.9-2.6c-0.6-0.6-1.4-0.9-2.3-0.9c-0.8,0-1.5,0.3-2.1,0.8
		c-0.7,0.6-1,1.5-1,2.8C157.3,263.6,157.6,264.5,158.2,265.1L158.2,265.1z M159.1,260.5c0.4-0.4,0.9-0.7,1.4-0.7
		c0.6,0,1,0.2,1.4,0.7c0.4,0.4,0.6,1.1,0.6,1.9c0,0.9-0.2,1.6-0.6,2c-0.4,0.4-0.9,0.7-1.4,0.7c-0.6,0-1.1-0.2-1.4-0.7
		c-0.4-0.4-0.6-1.1-0.6-2C158.5,261.6,158.7,260.9,159.1,260.5L159.1,260.5z M166.1,265.9v-3.6c0-0.5,0.1-0.9,0.2-1.4
		c0.1-0.3,0.2-0.5,0.4-0.6c0.2-0.2,0.4-0.2,0.7-0.2c0.3,0,0.6,0.1,0.8,0.3l0.4-1.1c-0.4-0.2-0.8-0.4-1.2-0.4c-0.3,0-0.5,0.1-0.7,0.2
		c-0.2,0.2-0.5,0.5-0.7,1v-1h-1v6.8H166.1L166.1,265.9z M178.4,265.9v-9.4h-1.1v3.4c-0.2-0.3-0.5-0.5-0.8-0.7
		c-0.3-0.2-0.7-0.3-1.1-0.3c-0.6,0-1.1,0.1-1.5,0.4c-0.5,0.3-0.8,0.7-1,1.3c-0.2,0.6-0.3,1.2-0.3,1.9c0,0.7,0.1,1.3,0.4,1.9
		c0.2,0.5,0.6,1,1.1,1.3c0.5,0.3,0.9,0.5,1.5,0.5c0.8,0,1.5-0.3,1.9-1v0.9H178.4L178.4,265.9z M174.3,260.5c0.3-0.4,0.8-0.6,1.3-0.6
		c0.5,0,1,0.2,1.3,0.7c0.4,0.4,0.5,1.1,0.5,2.1c0,0.8-0.2,1.5-0.5,1.9c-0.4,0.4-0.8,0.6-1.3,0.6c-0.5,0-0.9-0.2-1.3-0.7
		c-0.4-0.4-0.5-1.1-0.5-2C173.8,261.6,173.9,260.9,174.3,260.5L174.3,260.5z M184.2,264.7c-0.3,0.2-0.7,0.3-1.1,0.3
		c-0.6,0-1-0.2-1.4-0.6c-0.4-0.4-0.6-1-0.6-1.7h5.1c0-0.1,0-0.2,0-0.3c0-1.1-0.3-2-0.9-2.6c-0.6-0.6-1.3-0.9-2.2-0.9
		c-0.9,0-1.7,0.3-2.3,1c-0.6,0.6-0.9,1.5-0.9,2.7c0,1.1,0.3,2,0.9,2.6c0.6,0.6,1.4,0.9,2.4,0.9c0.8,0,1.4-0.2,1.9-0.6
		c0.5-0.4,0.9-0.9,1-1.6l-1.2-0.1C184.7,264.2,184.5,264.5,184.2,264.7L184.2,264.7z M181.7,260.4c0.4-0.4,0.8-0.5,1.3-0.5
		c0.6,0,1.1,0.2,1.4,0.7c0.2,0.3,0.4,0.7,0.4,1.3h-3.8C181.2,261.2,181.4,260.7,181.7,260.4L181.7,260.4z M191.4,264.7
		c-0.3,0.3-0.7,0.4-1.1,0.4c-0.6,0-1-0.2-1.4-0.6c-0.3-0.4-0.5-1.1-0.5-2c0-0.9,0.2-1.6,0.5-2c0.4-0.4,0.8-0.6,1.4-0.6
		c0.4,0,0.7,0.1,1,0.3c0.3,0.2,0.5,0.6,0.6,1l1.1-0.2c-0.1-0.7-0.4-1.2-0.9-1.6c-0.5-0.4-1.1-0.6-1.8-0.6c-0.6,0-1.1,0.1-1.6,0.4
		c-0.5,0.3-0.9,0.7-1.1,1.2c-0.2,0.6-0.4,1.2-0.4,1.9c0,1.1,0.3,2,0.8,2.6c0.6,0.6,1.3,0.9,2.2,0.9c0.7,0,1.4-0.2,1.9-0.7
		c0.5-0.4,0.8-1.1,0.9-1.8l-1.1-0.1C191.9,264,191.7,264.4,191.4,264.7L191.4,264.7z M198,264.7c-0.3,0.2-0.7,0.3-1.1,0.3
		c-0.6,0-1-0.2-1.4-0.6c-0.4-0.4-0.6-1-0.6-1.7h5.1c0-0.1,0-0.2,0-0.3c0-1.1-0.3-2-0.9-2.6c-0.6-0.6-1.3-0.9-2.2-0.9
		c-0.9,0-1.7,0.3-2.3,1c-0.6,0.6-0.9,1.5-0.9,2.7c0,1.1,0.3,2,0.9,2.6c0.6,0.6,1.4,0.9,2.4,0.9c0.8,0,1.4-0.2,1.9-0.6
		c0.5-0.4,0.9-0.9,1-1.6l-1.2-0.1C198.5,264.2,198.3,264.5,198,264.7L198,264.7z M195.5,260.4c0.4-0.4,0.8-0.5,1.3-0.5
		c0.6,0,1.1,0.2,1.4,0.7c0.2,0.3,0.4,0.7,0.4,1.3h-3.8C195,261.2,195.2,260.7,195.5,260.4L195.5,260.4z M202.5,265.9v-3.7
		c0-0.9,0.2-1.5,0.5-1.8c0.4-0.3,0.8-0.5,1.3-0.5c0.3,0,0.6,0.1,0.8,0.2c0.2,0.1,0.4,0.3,0.5,0.6c0.1,0.2,0.1,0.6,0.1,1.1v4.2h1.1
		v-4.2c0-0.5,0-0.9-0.1-1.1c-0.1-0.3-0.2-0.6-0.4-0.9c-0.2-0.2-0.4-0.4-0.8-0.6c-0.3-0.1-0.7-0.2-1.1-0.2c-0.9,0-1.7,0.4-2.2,1.1v-1
		h-1v6.8H202.5L202.5,265.9z M214,265.9v-9.4h-1.1v3.4c-0.2-0.3-0.5-0.5-0.8-0.7c-0.3-0.2-0.7-0.3-1.1-0.3c-0.6,0-1.1,0.1-1.5,0.4
		c-0.5,0.3-0.8,0.7-1,1.3c-0.2,0.6-0.3,1.2-0.3,1.9c0,0.7,0.1,1.3,0.4,1.9c0.2,0.5,0.6,1,1.1,1.3c0.5,0.3,0.9,0.5,1.5,0.5
		c0.8,0,1.5-0.3,1.9-1v0.9H214L214,265.9z M209.9,260.5c0.3-0.4,0.8-0.6,1.3-0.6c0.5,0,1,0.2,1.3,0.7c0.4,0.4,0.5,1.1,0.5,2.1
		c0,0.8-0.2,1.5-0.5,1.9c-0.4,0.4-0.8,0.6-1.3,0.6c-0.5,0-0.9-0.2-1.3-0.7c-0.4-0.4-0.5-1.1-0.5-2
		C209.3,261.6,209.5,260.9,209.9,260.5L209.9,260.5z M217,257.8v-1.3h-1.1v1.3H217L217,257.8z M217,265.9V259h-1.1v6.8H217
		L217,265.9z M222.7,264.7c-0.3,0.2-0.7,0.3-1.1,0.3c-0.6,0-1-0.2-1.4-0.6c-0.4-0.4-0.6-1-0.6-1.7h5.1c0-0.1,0-0.2,0-0.3
		c0-1.1-0.3-2-0.9-2.6c-0.6-0.6-1.3-0.9-2.2-0.9c-0.9,0-1.7,0.3-2.3,1c-0.6,0.6-0.9,1.5-0.9,2.7c0,1.1,0.3,2,0.9,2.6
		c0.6,0.6,1.4,0.9,2.4,0.9c0.8,0,1.4-0.2,1.9-0.6c0.5-0.4,0.9-0.9,1-1.6l-1.2-0.1C223.2,264.2,223,264.5,222.7,264.7L222.7,264.7z
		 M220.2,260.4c0.4-0.4,0.8-0.5,1.3-0.5c0.6,0,1.1,0.2,1.4,0.7c0.2,0.3,0.4,0.7,0.4,1.3h-3.8C219.7,261.2,219.9,260.7,220.2,260.4
		L220.2,260.4z M227.2,265.9v-3.7c0-0.9,0.2-1.5,0.5-1.8c0.4-0.3,0.8-0.5,1.3-0.5c0.3,0,0.6,0.1,0.8,0.2c0.2,0.1,0.4,0.3,0.5,0.6
		c0.1,0.2,0.1,0.6,0.1,1.1v4.2h1.1v-4.2c0-0.5,0-0.9-0.1-1.1c-0.1-0.3-0.2-0.6-0.4-0.9c-0.2-0.2-0.4-0.4-0.8-0.6
		c-0.3-0.1-0.7-0.2-1.1-0.2c-0.9,0-1.7,0.4-2.2,1.1v-1h-1v6.8H227.2L227.2,265.9z M235.3,264.9c-0.2,0-0.3,0-0.4-0.1
		c-0.1-0.1-0.2-0.1-0.2-0.2c0-0.1-0.1-0.3-0.1-0.6v-4h1.2V259h-1.2v-2.4l-1.1,0.7v1.7h-0.8v0.9h0.8v3.9c0,0.7,0,1.2,0.1,1.4
		c0.1,0.2,0.3,0.4,0.5,0.5c0.2,0.1,0.6,0.2,1,0.2c0.3,0,0.5,0,0.9-0.1l-0.2-1C235.6,264.9,235.4,264.9,235.3,264.9L235.3,264.9
		L235.3,264.9z M240.8,264.7c-0.3,0.2-0.7,0.3-1.1,0.3c-0.6,0-1-0.2-1.4-0.6c-0.4-0.4-0.6-1-0.6-1.7h5.1c0-0.1,0-0.2,0-0.3
		c0-1.1-0.3-2-0.9-2.6c-0.6-0.6-1.3-0.9-2.2-0.9c-0.9,0-1.7,0.3-2.3,1c-0.6,0.6-0.9,1.5-0.9,2.7c0,1.1,0.3,2,0.9,2.6
		c0.6,0.6,1.4,0.9,2.4,0.9c0.8,0,1.4-0.2,1.9-0.6c0.5-0.4,0.9-0.9,1-1.6l-1.2-0.1C241.4,264.2,241.1,264.5,240.8,264.7L240.8,264.7z
		 M238.4,260.4c0.4-0.4,0.8-0.5,1.3-0.5c0.6,0,1.1,0.2,1.4,0.7c0.2,0.3,0.4,0.7,0.4,1.3h-3.8C237.8,261.2,238,260.7,238.4,260.4
		L238.4,260.4z M244.6,265.5c0.5,0.4,1.1,0.6,2,0.6c0.5,0,1-0.1,1.4-0.3c0.4-0.2,0.7-0.5,1-0.8c0.2-0.3,0.3-0.7,0.3-1.1
		c0-0.4-0.1-0.7-0.3-1c-0.2-0.3-0.4-0.5-0.8-0.6c-0.3-0.1-0.9-0.3-1.7-0.5c-0.6-0.2-0.9-0.3-1-0.3c-0.2-0.1-0.3-0.2-0.4-0.3
		c-0.1-0.1-0.1-0.3-0.1-0.4c0-0.2,0.1-0.4,0.3-0.6c0.2-0.2,0.6-0.3,1.1-0.3c0.4,0,0.8,0.1,1,0.3c0.2,0.2,0.4,0.5,0.4,0.8l1.1-0.2
		c-0.1-0.4-0.2-0.8-0.4-1.1c-0.2-0.3-0.5-0.5-0.9-0.6c-0.4-0.2-0.9-0.2-1.4-0.2c-0.4,0-0.7,0-1,0.1c-0.3,0.1-0.6,0.2-0.7,0.3
		c-0.2,0.2-0.4,0.4-0.6,0.6c-0.1,0.3-0.2,0.5-0.2,0.8c0,0.3,0.1,0.6,0.3,0.9c0.2,0.3,0.4,0.5,0.7,0.7c0.3,0.2,0.9,0.3,1.8,0.6
		c0.6,0.2,1,0.3,1.2,0.4c0.2,0.2,0.3,0.4,0.3,0.6c0,0.3-0.1,0.5-0.4,0.8c-0.3,0.2-0.6,0.3-1.2,0.3c-0.5,0-0.9-0.1-1.2-0.4
		c-0.3-0.2-0.5-0.6-0.5-1.1l-1.1,0.2C243.8,264.6,244.1,265.1,244.6,265.5L244.6,265.5z"/>
	<path d="M423.6,31.6c0.3,0.5,0.8,0.9,1.3,1.1c0.6,0.2,1.3,0.4,2.1,0.4c0.7,0,1.3-0.1,1.8-0.4c0.5-0.2,0.9-0.6,1.2-1
		c0.3-0.4,0.4-0.9,0.4-1.4c0-0.5-0.1-1-0.4-1.3c-0.3-0.4-0.7-0.7-1.2-1c-0.4-0.2-1.1-0.4-2.1-0.6c-1-0.2-1.6-0.5-1.9-0.7
		c-0.2-0.2-0.4-0.5-0.4-0.8c0-0.4,0.2-0.7,0.5-1c0.3-0.3,0.9-0.4,1.6-0.4c0.7,0,1.3,0.2,1.6,0.5c0.4,0.3,0.6,0.8,0.6,1.4l1.2-0.1
		c0-0.6-0.2-1-0.5-1.5c-0.3-0.4-0.7-0.8-1.2-1c-0.5-0.2-1.1-0.3-1.8-0.3c-0.6,0-1.2,0.1-1.7,0.3c-0.5,0.2-0.9,0.5-1.2,0.9
		c-0.3,0.4-0.4,0.9-0.4,1.3c0,0.4,0.1,0.8,0.3,1.2c0.2,0.3,0.6,0.6,1,0.9c0.3,0.2,0.9,0.4,1.8,0.6c0.9,0.2,1.4,0.4,1.7,0.5
		c0.4,0.2,0.7,0.3,0.8,0.6c0.2,0.2,0.3,0.5,0.3,0.8c0,0.3-0.1,0.6-0.3,0.8c-0.2,0.2-0.4,0.4-0.8,0.6c-0.4,0.1-0.8,0.2-1.3,0.2
		c-0.5,0-1-0.1-1.4-0.3c-0.4-0.2-0.7-0.4-0.9-0.7c-0.2-0.3-0.3-0.7-0.4-1.2l-1.2,0.1C423.1,30.5,423.3,31.1,423.6,31.6L423.6,31.6z
		 M433.3,24.8v-1.3h-1.1v1.3H433.3L433.3,24.8z M433.3,32.9v-6.8h-1.1v6.8H433.3L433.3,32.9z"/>
	<path d="M378.6,102.2v-7.4l4.9,7.4h1.3v-9.4h-1.2v7.4l-4.9-7.4h-1.3v9.4H378.6L378.6,102.2z M387.2,101.4c0.6,0.6,1.4,0.9,2.3,0.9
		c0.6,0,1.1-0.1,1.6-0.4c0.5-0.3,0.9-0.7,1.1-1.2c0.3-0.5,0.4-1.2,0.4-2.1c0-1.1-0.3-1.9-0.9-2.6c-0.6-0.6-1.4-0.9-2.3-0.9
		c-0.8,0-1.5,0.3-2.1,0.8c-0.7,0.6-1,1.5-1,2.8C386.3,99.9,386.6,100.8,387.2,101.4L387.2,101.4z M388.1,96.8
		c0.4-0.4,0.9-0.7,1.4-0.7c0.6,0,1,0.2,1.4,0.7c0.4,0.4,0.6,1.1,0.6,1.9c0,0.9-0.2,1.6-0.6,2c-0.4,0.4-0.9,0.7-1.4,0.7
		c-0.6,0-1.1-0.2-1.4-0.7c-0.4-0.4-0.6-1.1-0.6-2S387.7,97.2,388.1,96.8L388.1,96.8z"/>
	<path d="M509.2,40.4v-4.3h4.4v-1.1h-4.4V32h5.1v-1.1h-6.3v9.4H509.2L509.2,40.4z M516.8,40.4v-3.6c0-0.5,0.1-0.9,0.2-1.4
		c0.1-0.3,0.2-0.5,0.4-0.6c0.2-0.2,0.4-0.2,0.7-0.2c0.3,0,0.6,0.1,0.8,0.3l0.4-1.1c-0.4-0.2-0.8-0.4-1.2-0.4c-0.3,0-0.5,0.1-0.7,0.2
		c-0.2,0.2-0.5,0.5-0.7,1v-1h-1v6.8H516.8L516.8,40.4z M520.5,39.6c0.6,0.6,1.4,0.9,2.3,0.9c0.6,0,1.1-0.1,1.6-0.4
		c0.5-0.3,0.9-0.7,1.1-1.2c0.3-0.5,0.4-1.2,0.4-2.1c0-1.1-0.3-1.9-0.9-2.6c-0.6-0.6-1.4-0.9-2.3-0.9c-0.8,0-1.5,0.3-2.1,0.8
		c-0.7,0.6-1,1.5-1,2.8C519.6,38.1,519.9,39,520.5,39.6L520.5,39.6z M521.4,35c0.4-0.4,0.9-0.7,1.4-0.7c0.6,0,1,0.2,1.4,0.7
		c0.4,0.4,0.6,1.1,0.6,1.9c0,0.9-0.2,1.6-0.6,2c-0.4,0.4-0.9,0.7-1.4,0.7c-0.6,0-1.1-0.2-1.4-0.7c-0.4-0.4-0.6-1.1-0.6-2
		S521,35.4,521.4,35L521.4,35z M528.5,40.4v-3.7c0-0.9,0.2-1.5,0.5-1.8c0.4-0.3,0.8-0.5,1.3-0.5c0.3,0,0.6,0.1,0.8,0.2
		c0.2,0.1,0.4,0.3,0.5,0.6c0.1,0.2,0.1,0.6,0.1,1.1v4.2h1.1v-4.2c0-0.5,0-0.9-0.1-1.1c-0.1-0.3-0.2-0.6-0.4-0.9
		c-0.2-0.2-0.4-0.4-0.8-0.6c-0.3-0.1-0.7-0.2-1.1-0.2c-0.9,0-1.7,0.4-2.2,1.1v-1h-1v6.8H528.5L528.5,40.4z M536.6,39.4
		c-0.2,0-0.3,0-0.4-0.1c-0.1-0.1-0.2-0.1-0.2-0.2c0-0.1-0.1-0.3-0.1-0.6v-4h1.2v-0.9h-1.2v-2.4l-1.1,0.7v1.7H534v0.9h0.8v3.9
		c0,0.7,0,1.2,0.1,1.4c0.1,0.2,0.3,0.4,0.5,0.5c0.2,0.1,0.6,0.2,1,0.2c0.3,0,0.5,0,0.9-0.1l-0.2-1C536.9,39.3,536.7,39.4,536.6,39.4
		L536.6,39.4L536.6,39.4z M542.1,39.2c-0.3,0.2-0.7,0.3-1.1,0.3c-0.6,0-1-0.2-1.4-0.6c-0.4-0.4-0.6-1-0.6-1.7h5.1c0-0.1,0-0.2,0-0.3
		c0-1.1-0.3-2-0.9-2.6c-0.6-0.6-1.3-0.9-2.2-0.9c-0.9,0-1.7,0.3-2.3,1c-0.6,0.6-0.9,1.5-0.9,2.7c0,1.1,0.3,2,0.9,2.6
		c0.6,0.6,1.4,0.9,2.4,0.9c0.8,0,1.4-0.2,1.9-0.6c0.5-0.4,0.9-0.9,1-1.6l-1.2-0.1C542.7,38.6,542.4,39,542.1,39.2L542.1,39.2z
		 M539.7,34.8c0.4-0.4,0.8-0.5,1.3-0.5c0.6,0,1.1,0.2,1.4,0.7c0.2,0.3,0.4,0.7,0.4,1.3h-3.8C539.1,35.7,539.3,35.2,539.7,34.8
		L539.7,34.8z M546.6,40.4v-3.6c0-0.5,0.1-0.9,0.2-1.4c0.1-0.3,0.2-0.5,0.4-0.6c0.2-0.2,0.4-0.2,0.7-0.2c0.3,0,0.6,0.1,0.8,0.3
		l0.4-1.1c-0.4-0.2-0.8-0.4-1.2-0.4c-0.3,0-0.5,0.1-0.7,0.2c-0.2,0.2-0.5,0.5-0.7,1v-1h-1v6.8H546.6L546.6,40.4z"/>
	<path d="M554.5,40.4h1.2c-0.1-0.3-0.2-0.5-0.3-0.8c0-0.3-0.1-1-0.1-2v-1.5c0-0.5,0-0.9-0.1-1.1c-0.1-0.3-0.2-0.6-0.4-0.8
		c-0.2-0.2-0.4-0.4-0.8-0.5c-0.4-0.1-0.8-0.2-1.4-0.2c-0.6,0-1.1,0.1-1.5,0.2c-0.4,0.2-0.8,0.4-1,0.7c-0.2,0.3-0.4,0.7-0.5,1.2
		l1.1,0.2c0.1-0.5,0.3-0.8,0.6-1c0.3-0.2,0.7-0.3,1.2-0.3c0.6,0,1,0.1,1.3,0.4c0.2,0.2,0.3,0.5,0.3,1c0,0,0,0.1,0,0.3
		c-0.4,0.2-1.1,0.3-2,0.4c-0.5,0.1-0.8,0.1-1,0.2c-0.3,0.1-0.6,0.2-0.8,0.4c-0.2,0.2-0.4,0.4-0.6,0.7c-0.2,0.3-0.2,0.6-0.2,0.9
		c0,0.6,0.2,1,0.6,1.4c0.4,0.4,1,0.6,1.7,0.6c0.5,0,0.9-0.1,1.3-0.2c0.4-0.2,0.8-0.4,1.2-0.8C554.3,39.8,554.4,40.1,554.5,40.4
		L554.5,40.4L554.5,40.4z M554.2,37.3c0,0.5-0.1,0.9-0.2,1.2c-0.2,0.3-0.4,0.6-0.8,0.8c-0.3,0.2-0.7,0.3-1.2,0.3
		c-0.4,0-0.8-0.1-1-0.3c-0.2-0.2-0.3-0.5-0.3-0.8c0-0.2,0.1-0.4,0.2-0.6c0.1-0.2,0.3-0.3,0.5-0.4c0.2-0.1,0.5-0.2,1-0.2
		c0.8-0.1,1.5-0.3,1.9-0.4V37.3L554.2,37.3z"/>
	<path d="M513.2,56.8v-9.4H512v3.4c-0.2-0.3-0.5-0.5-0.8-0.7c-0.3-0.2-0.7-0.3-1.1-0.3c-0.6,0-1.1,0.1-1.5,0.4
		c-0.5,0.3-0.8,0.7-1,1.3c-0.2,0.6-0.3,1.2-0.3,1.9c0,0.7,0.1,1.3,0.4,1.9c0.2,0.5,0.6,1,1.1,1.3c0.5,0.3,0.9,0.5,1.5,0.5
		c0.8,0,1.5-0.3,1.9-1v0.9H513.2L513.2,56.8z M509,51.4c0.3-0.4,0.8-0.6,1.3-0.6c0.5,0,1,0.2,1.3,0.7c0.4,0.4,0.5,1.1,0.5,2.1
		c0,0.8-0.2,1.5-0.5,1.9c-0.4,0.4-0.8,0.6-1.3,0.6c-0.5,0-0.9-0.2-1.3-0.7c-0.4-0.4-0.5-1.1-0.5-2C508.5,52.5,508.7,51.9,509,51.4
		L509,51.4z M518.9,55.7c-0.3,0.2-0.7,0.3-1.1,0.3c-0.6,0-1-0.2-1.4-0.6c-0.4-0.4-0.6-1-0.6-1.7h5.1c0-0.1,0-0.2,0-0.3
		c0-1.1-0.3-2-0.9-2.6c-0.6-0.6-1.3-0.9-2.2-0.9c-0.9,0-1.7,0.3-2.3,1c-0.6,0.6-0.9,1.5-0.9,2.7c0,1.1,0.3,2,0.9,2.6
		c0.6,0.6,1.4,0.9,2.4,0.9c0.8,0,1.4-0.2,1.9-0.6c0.5-0.4,0.9-0.9,1-1.6l-1.2-0.1C519.5,55.1,519.2,55.5,518.9,55.7L518.9,55.7z
		 M516.5,51.3c0.4-0.4,0.8-0.5,1.3-0.5c0.6,0,1.1,0.2,1.4,0.7c0.2,0.3,0.4,0.7,0.4,1.3h-3.8C515.9,52.2,516.1,51.7,516.5,51.3
		L516.5,51.3z M527.3,56.8V53h2.4c1.3,0,2.2-0.3,2.7-0.8c0.5-0.6,0.8-1.2,0.8-2c0-0.5-0.1-0.9-0.3-1.3c-0.2-0.4-0.4-0.7-0.7-0.9
		c-0.3-0.2-0.7-0.4-1.2-0.4c-0.3-0.1-0.8-0.1-1.4-0.1H526v9.4H527.3L527.3,56.8z M527.3,48.5h2.4c0.6,0,0.9,0,1.2,0.1
		c0.3,0.1,0.6,0.3,0.8,0.6c0.2,0.3,0.3,0.6,0.3,1c0,0.5-0.2,1-0.5,1.3c-0.3,0.3-0.9,0.5-1.7,0.5h-2.4V48.5L527.3,48.5z M539.3,56.8
		h1.2c-0.1-0.3-0.2-0.5-0.3-0.8c0-0.3-0.1-1-0.1-2v-1.5c0-0.5,0-0.9-0.1-1.1c-0.1-0.3-0.2-0.6-0.4-0.8c-0.2-0.2-0.4-0.4-0.8-0.5
		c-0.4-0.1-0.8-0.2-1.4-0.2c-0.6,0-1.1,0.1-1.5,0.2c-0.4,0.2-0.8,0.4-1,0.7c-0.2,0.3-0.4,0.7-0.5,1.2l1.1,0.2c0.1-0.5,0.3-0.8,0.6-1
		c0.3-0.2,0.7-0.3,1.2-0.3c0.6,0,1,0.1,1.3,0.4c0.2,0.2,0.3,0.5,0.3,1c0,0,0,0.1,0,0.3c-0.4,0.2-1.1,0.3-2,0.4
		c-0.5,0.1-0.8,0.1-1,0.2c-0.3,0.1-0.6,0.2-0.8,0.4c-0.2,0.2-0.4,0.4-0.6,0.7c-0.2,0.3-0.2,0.6-0.2,0.9c0,0.6,0.2,1,0.6,1.4
		c0.4,0.4,1,0.6,1.7,0.6c0.5,0,0.9-0.1,1.3-0.2c0.4-0.2,0.8-0.4,1.2-0.8C539.1,56.3,539.1,56.6,539.3,56.8L539.3,56.8L539.3,56.8z
		 M538.9,53.8c0,0.5-0.1,0.9-0.2,1.2c-0.2,0.3-0.4,0.6-0.8,0.8c-0.3,0.2-0.7,0.3-1.2,0.3c-0.4,0-0.8-0.1-1-0.3
		c-0.2-0.2-0.3-0.5-0.3-0.8c0-0.2,0.1-0.4,0.2-0.6c0.1-0.2,0.3-0.3,0.5-0.4c0.2-0.1,0.5-0.2,1-0.2c0.8-0.1,1.5-0.3,1.9-0.4V53.8
		L538.9,53.8z M543,56.8v-3.6c0-0.5,0.1-0.9,0.2-1.4c0.1-0.3,0.2-0.5,0.4-0.6c0.2-0.2,0.4-0.2,0.7-0.2c0.3,0,0.6,0.1,0.8,0.3
		l0.4-1.1c-0.4-0.2-0.8-0.4-1.2-0.4c-0.3,0-0.5,0.1-0.7,0.2c-0.2,0.2-0.5,0.5-0.7,1v-1h-1v6.8H543L543,56.8z M550.1,55.7
		c-0.3,0.2-0.7,0.3-1.1,0.3c-0.6,0-1-0.2-1.4-0.6c-0.4-0.4-0.6-1-0.6-1.7h5.1c0-0.1,0-0.2,0-0.3c0-1.1-0.3-2-0.9-2.6
		c-0.6-0.6-1.3-0.9-2.2-0.9c-0.9,0-1.7,0.3-2.3,1c-0.6,0.6-0.9,1.5-0.9,2.7c0,1.1,0.3,2,0.9,2.6c0.6,0.6,1.4,0.9,2.4,0.9
		c0.8,0,1.4-0.2,1.9-0.6c0.5-0.4,0.9-0.9,1-1.6l-1.2-0.1C550.7,55.1,550.4,55.5,550.1,55.7L550.1,55.7z M547.7,51.3
		c0.4-0.4,0.8-0.5,1.3-0.5c0.6,0,1.1,0.2,1.4,0.7c0.2,0.3,0.4,0.7,0.4,1.3h-3.8C547.1,52.2,547.3,51.7,547.7,51.3L547.7,51.3z
		 M555.5,55.8c-0.2,0-0.3,0-0.4-0.1c-0.1-0.1-0.2-0.1-0.2-0.2c0-0.1-0.1-0.3-0.1-0.6v-4h1.2V50h-1.2v-2.4l-1.1,0.7V50h-0.8v0.9h0.8
		v3.9c0,0.7,0,1.2,0.1,1.4c0.1,0.2,0.3,0.4,0.5,0.5c0.2,0.1,0.6,0.2,1,0.2c0.3,0,0.5,0,0.9-0.1l-0.2-1
		C555.8,55.8,555.6,55.8,555.5,55.8L555.5,55.8L555.5,55.8z M557.6,56.1c0.6,0.6,1.4,0.9,2.3,0.9c0.6,0,1.1-0.1,1.6-0.4
		c0.5-0.3,0.9-0.7,1.1-1.2c0.3-0.5,0.4-1.2,0.4-2.1c0-1.1-0.3-1.9-0.9-2.6c-0.6-0.6-1.4-0.9-2.3-0.9c-0.8,0-1.5,0.3-2.1,0.8
		c-0.7,0.6-1,1.5-1,2.8C556.7,54.6,557,55.5,557.6,56.1L557.6,56.1z M558.4,51.5c0.4-0.4,0.9-0.7,1.4-0.7c0.6,0,1,0.2,1.4,0.7
		c0.4,0.4,0.6,1.1,0.6,1.9c0,0.9-0.2,1.6-0.6,2c-0.4,0.4-0.9,0.7-1.4,0.7c-0.6,0-1.1-0.2-1.4-0.7c-0.4-0.4-0.6-1.1-0.6-2
		S558.1,51.9,558.4,51.5L558.4,51.5z"/>
</g>
</svg>
