<?xml version="1.0" encoding="utf-8"?>
<!-- Generator: Adobe Illustrator 24.0.1, SVG Export Plug-In . SVG Version: 6.00 Build 0)  -->
<svg version="1.0" id="Capa_1" xmlns="http://www.w3.org/2000/svg" xmlns:xlink="http://www.w3.org/1999/xlink" x="0px" y="0px"
	 viewBox="0 0 914.3 356.6" style="enable-background:new 0 0 914.3 356.6;" xml:space="preserve">
<style type="text/css">
	.st0{fill-rule:evenodd;clip-rule:evenodd;fill:#E52521;}
	.st1{fill:none;stroke:#FFFFFF;stroke-width:1.56;stroke-linejoin:round;stroke-miterlimit:10;}
	.st2{fill-rule:evenodd;clip-rule:evenodd;fill:#94C354;}
	.st3{fill-rule:evenodd;clip-rule:evenodd;fill:#2AAA52;}
	.st4{fill-rule:evenodd;clip-rule:evenodd;fill:#136FB7;}
	.st5{fill:#FFFFFF;}
	.st6{font-family:'TimesNewRomanPS-BoldMT';}
	.st7{font-size:14.04px;}
	.st8{font-size:20.064px;}
	.st9{font-size:27.96px;}
	.st10{font-size:44.04px;}
	.st11{font-size:24px;}
	.st12{letter-spacing:-1;}
	.st13{font-size:32.04px;}
	.st14{fill-rule:evenodd;clip-rule:evenodd;fill:none;}
	.st15{fill:#595959;}
	.st16{font-family:'TimesNewRomanPSMT';}
	.st17{fill:none;stroke:#D9D9D9;stroke-width:0.75;stroke-linejoin:round;stroke-miterlimit:10;}
	.st18{font-family:'CMSS9';}
	.st19{font-size:30.7537px;}
	.st20{font-family:'URWGothicL-BookObli';}
	.st21{font-size:20.5025px;}
	.st22{font-family:'URWGothicL-Book';}
	.st23{font-family:'CMMI9';}
	.st24{fill:none;stroke:#000000;stroke-width:0.398;stroke-miterlimit:10;}
	.st25{font-size:19.2823px;}
	.st26{letter-spacing:4;}
</style>
<g>
	<path class="st0" d="M141.8,73.8c7.6,0,15.1,0.6,22.6,1.8l-22.6,139.2V73.8z"/>
	<path class="st1" d="M141.8,73.8c7.6,0,15.1,0.6,22.6,1.8l-22.6,139.2V73.8z"/>
	<path class="st1" d="M164.4,75.6l-22.6,139.2L164.4,75.6z"/>
	<path class="st2" d="M164.4,75.6c15,2.4,29.5,7.3,42.9,14.3l-65.5,124.9L164.4,75.6z"/>
	<path class="st1" d="M164.4,75.6c15,2.4,29.5,7.3,42.9,14.3l-65.5,124.9L164.4,75.6z"/>
	<path class="st3" d="M207.4,89.9c20.2,10.6,37.6,26,50.5,44.8l-116.1,80.1L207.4,89.9z"/>
	<path class="st1" d="M207.4,89.9c20.2,10.6,37.6,26,50.5,44.8l-116.1,80.1L207.4,89.9z"/>
	<path class="st4" d="M257.9,134.7c44.3,64.1,28.1,151.9-36,196.2C157.8,375.1,70,359,25.8,294.9C-18.5,230.8-2.4,143,61.7,98.7
		c23.6-16.3,51.5-25,80.1-25v141L257.9,134.7z"/>
	<path class="st1" d="M257.9,134.7c44.3,64.1,28.1,151.9-36,196.2C157.8,375.1,70,359,25.8,294.9C-18.5,230.8-2.4,143,61.7,98.7
		c23.6-16.3,51.5-25,80.1-25v141L257.9,134.7z"/>
	<text transform="matrix(1 0 0 1 142.3049 86.285)"><tspan x="0" y="0" class="st5 st6 st7">2</tspan><tspan x="7.1" y="0" class="st5 st6 st7">%</tspan></text>
	<text transform="matrix(1 0 0 1 163.9249 107.1948)"><tspan x="0" y="0" class="st5 st6 st8">5</tspan><tspan x="10.1" y="0" class="st5 st6 st8">%</tspan></text>
	<text transform="matrix(1 0 0 1 194.545 142.4048)"><tspan x="0" y="0" class="st5 st6 st9">8</tspan><tspan x="14" y="0" class="st5 st6 st9">%</tspan></text>
	<text transform="matrix(1 0 0 1 36.8648 287.8247)"><tspan x="0" y="0" class="st5 st6 st10">85</tspan><tspan x="44.1" y="0" class="st5 st6 st10">%</tspan></text>
</g>
<g>
	<polyline class="st1" points="773.3,69.3 773.3,210.3 773.3,69.3 	"/>
	<polyline class="st1" points="773.3,69.3 773.3,210.3 773.3,69.3 	"/>
	<path class="st2" d="M773.3,69.3c33.1,0,65.3,11.7,90.6,33l-90.6,108V69.3"/>
	<path class="st1" d="M773.3,69.3c33.1,0,65.3,11.7,90.6,33l-90.6,108V69.3"/>
	<path class="st3" d="M863.9,102.3c59.7,50.1,67.5,139,17.4,198.7c-1.8,2.1-3.6,4.1-5.5,6.1l-102.6-96.8L863.9,102.3z"/>
	<path class="st4" d="M773.3,69.3v141l102.6,96.8c-53.4,56.7-142.7,59.3-199.4,5.8c-56.7-53.5-59.3-142.7-5.8-199.4
		C697.3,85.3,734.4,69.3,773.3,69.3"/>
	<path class="st1" d="M773.3,69.3v141l102.6,96.8c-53.4,56.7-142.7,59.3-199.4,5.8c-56.7-53.5-59.3-142.7-5.8-199.4
		C697.3,85.3,734.4,69.3,773.3,69.3"/>
	<text transform="matrix(1 0 0 1 787.5577 110.2299)"><tspan x="0" y="0" class="st5 st6 st11 st12">1</tspan><tspan x="10.7" y="0" class="st5 st6 st11">1%</tspan></text>
	<text transform="matrix(1 0 0 1 843.5977 217.4399)"><tspan x="0" y="0" class="st5 st6 st13">26</tspan><tspan x="32.1" y="0" class="st5 st6 st13">%</tspan></text>
	<text transform="matrix(1 0 0 1 651.5777 266.1098)"><tspan x="0" y="0" class="st5 st6 st10">63</tspan><tspan x="44.1" y="0" class="st5 st6 st10">%</tspan></text>
</g>
<path class="st14" d="M141.8,28.9"/>
<path class="st14" d="M141.8,28.9"/>
<text transform="matrix(1 0 0 1 741.875 35.1969)"><tspan x="0" y="0" class="st15 st16 st11">Uti</tspan><tspan x="30.7" y="0" class="st15 st16 st11">l</tspan><tspan x="37.4" y="0" class="st15 st16 st11">idad</tspan></text>
<path class="st14" d="M141.8,28.9"/>
<path class="st14" d="M773.2,28.9"/>
<path class="st17" d="M141.8,28.9"/>
<path class="st17" d="M773.3,28.9"/>
<text transform="matrix(1 0 0 1 73.0771 35.197)"><tspan x="0" y="0" class="st15 st16 st11">Funcion</tspan><tspan x="78.7" y="0" class="st15 st16 st11">a</tspan><tspan x="89.4" y="0" class="st15 st16 st11">l</tspan><tspan x="96" y="0" class="st15 st16 st11">i</tspan><tspan x="102.8" y="0" class="st15 st16 st11">dad</tspan></text>
<text transform="matrix(1.0574 0 0 1 370.0046 100.325)" class="st18 st19">¯</text>
<text transform="matrix(1.0574 0 0 1 369.1081 103.4974)" class="st20 st19">x</text>
<text transform="matrix(1.0574 0 0 1 384.7165 108.3309)" class="st20 st21">SUS</text>
<text transform="matrix(1.0574 0 0 1 432.9567 103.4974)" class="st18 st19">=</text>
<text transform="matrix(1.0574 0 0 1 468.236 103.4974)" class="st22 st19">79</text>
<text transform="matrix(1.0574 0 0 1 504.2692 103.4974)" class="st23 st19">,</text>
<text transform="matrix(1.0574 0 0 1 513.5515 103.4974)" class="st22 st19">17</text>
<text transform="matrix(1.0574 0 0 1 371.239 153.1624)" class="st20 st19">s</text>
<text transform="matrix(1.0574 0 0 1 383.8561 157.9983)" class="st20 st21">SUS</text>
<text transform="matrix(1.0574 0 0 1 432.0934 153.1624)" class="st18 st19">=</text>
<text transform="matrix(1.0574 0 0 1 467.3766 153.1624)" class="st22 st19">9</text>
<text transform="matrix(1.0574 0 0 1 485.3923 153.1624)" class="st23 st19">,</text>
<text transform="matrix(1.0574 0 0 1 494.6765 153.1624)" class="st22 st19">46</text>
<path class="st14" d="M456.3,28.9"/>
<path class="st14" d="M456.3,28.9"/>
<path class="st14" d="M456.3,28.9"/>
<path class="st17" d="M456.3,28.9"/>
<text transform="matrix(1 0 0 1 395.9566 35.1969)" class="st15 st16 st11">Usabilidad</text>
<g>
	<line class="st24" x1="365.2" y1="179.7" x2="561.1" y2="179.7"/>
	<line class="st24" x1="365.2" y1="208.8" x2="365.2" y2="180.1"/>
	<line class="st24" x1="368.4" y1="208.8" x2="368.4" y2="180.1"/>
	<text transform="matrix(0.7457 0 0 1 378.5402 196.5222)"><tspan x="0" y="0" class="st20 st25">SU</tspan><tspan x="22" y="0" class="st20 st25 st26">S</tspan><tspan x="36.8" y="0" class="st20 st25">Sco</tspan><tspan x="65.6" y="0" class="st20 st25">r</tspan><tspan x="71.8" y="0" class="st20 st25">e</tspan></text>
	<line class="st24" x1="455" y1="208.8" x2="455" y2="180.1"/>
	<text transform="matrix(0.7457 0 0 1 467.9171 196.5222)" class="st22 st25">Caliﬁcación</text>
	<line class="st24" x1="557.9" y1="208.8" x2="557.9" y2="180.1"/>
	<line class="st24" x1="561.1" y1="208.8" x2="561.1" y2="180.1"/>
	<line class="st24" x1="365.2" y1="209.3" x2="561.1" y2="209.3"/>
	<line class="st24" x1="365.2" y1="213.5" x2="561.1" y2="213.5"/>
	<line class="st24" x1="365.2" y1="237.4" x2="365.2" y2="214"/>
	<line class="st24" x1="368.4" y1="237.4" x2="368.4" y2="214"/>
	<text transform="matrix(0.7457 0 0 1 389.9835 230.3977)" class="st23 st25">&gt;</text>
	<text transform="matrix(0.7457 0 0 1 405.4581 230.3977)" class="st22 st25">80,3</text>
	<line class="st24" x1="455" y1="237.4" x2="455" y2="214"/>
	<text transform="matrix(0.7457 0 0 1 473.257 230.3977)" class="st22 st25">Excelente</text>
	<line class="st24" x1="557.9" y1="237.4" x2="557.9" y2="214"/>
	<line class="st24" x1="561.1" y1="237.4" x2="561.1" y2="214"/>
	<line class="st24" x1="365.2" y1="237.9" x2="561.1" y2="237.9"/>
	<line class="st24" x1="365.2" y1="261.8" x2="365.2" y2="238.3"/>
	<line class="st24" x1="368.4" y1="261.8" x2="368.4" y2="238.3"/>
	<text transform="matrix(0.7457 0 0 1 382.798 254.716)"><tspan x="0" y="0" class="st22 st25">6</tspan><tspan x="9.9" y="0" class="st22 st25 st26">8-</tspan><tspan x="36.4" y="0" class="st22 st25">80,3</tspan></text>
	<line class="st24" x1="455" y1="261.8" x2="455" y2="238.3"/>
	<text transform="matrix(0.7457 0 0 1 483.2999 254.716)" class="st22 st25">Buena</text>
	<line class="st24" x1="557.9" y1="261.8" x2="557.9" y2="238.3"/>
	<line class="st24" x1="561.1" y1="261.8" x2="561.1" y2="238.3"/>
	<line class="st24" x1="365.2" y1="262.2" x2="561.1" y2="262.2"/>
	<line class="st24" x1="365.2" y1="286.1" x2="365.2" y2="262.6"/>
	<line class="st24" x1="368.4" y1="286.1" x2="368.4" y2="262.6"/>
	<text transform="matrix(0.7457 0 0 1 403.6964 279.0324)" class="st22 st25">68</text>
	<line class="st24" x1="455" y1="286.1" x2="455" y2="262.6"/>
	<text transform="matrix(0.7457 0 0 1 479.2511 279.0324)" class="st22 st25">Regular</text>
	<line class="st24" x1="557.9" y1="286.1" x2="557.9" y2="262.6"/>
	<line class="st24" x1="561.1" y1="286.1" x2="561.1" y2="262.6"/>
	<line class="st24" x1="365.2" y1="286.5" x2="561.1" y2="286.5"/>
	<line class="st24" x1="365.2" y1="310.4" x2="365.2" y2="286.9"/>
	<line class="st24" x1="368.4" y1="310.4" x2="368.4" y2="286.9"/>
	<text transform="matrix(0.7457 0 0 1 389.3585 303.3488)"><tspan x="0" y="0" class="st22 st25">5</tspan><tspan x="9.9" y="0" class="st22 st25 st26">1-</tspan><tspan x="36.4" y="0" class="st22 st25">68</tspan></text>
	<line class="st24" x1="455" y1="310.4" x2="455" y2="286.9"/>
	<text transform="matrix(0.7457 0 0 1 487.8077 303.3488)" class="st22 st25">Mala</text>
	<line class="st24" x1="557.9" y1="310.4" x2="557.9" y2="286.9"/>
	<line class="st24" x1="561.1" y1="310.4" x2="561.1" y2="286.9"/>
	<line class="st24" x1="365.2" y1="310.8" x2="561.1" y2="310.8"/>
	<line class="st24" x1="365.2" y1="334.7" x2="365.2" y2="311.2"/>
	<line class="st24" x1="368.4" y1="334.7" x2="368.4" y2="311.2"/>
	<text transform="matrix(0.7457 0 0 1 395.9562 327.6662)" class="st23 st25">&lt;</text>
	<text transform="matrix(0.7457 0 0 1 411.4327 327.6662)" class="st22 st25">51</text>
	<line class="st24" x1="455" y1="334.7" x2="455" y2="311.2"/>
	<text transform="matrix(0.7457 0 0 1 479.4835 327.6662)"><tspan x="0" y="0" class="st22 st25">T</tspan><tspan x="8.6" y="0" class="st22 st25">er</tspan><tspan x="24.6" y="0" class="st22 st25">r</tspan><tspan x="31.3" y="0" class="st22 st25">ible</tspan></text>
	<line class="st24" x1="557.9" y1="334.7" x2="557.9" y2="311.2"/>
	<line class="st24" x1="561.1" y1="334.7" x2="561.1" y2="311.2"/>
	<line class="st24" x1="365.2" y1="335.1" x2="561.1" y2="335.1"/>
</g>
</svg>
