<?xml version="1.0" encoding="utf-8"?>
<!-- Generator: Adobe Illustrator 24.0.1, SVG Export Plug-In . SVG Version: 6.00 Build 0)  -->
<svg version="1.1" id="Capa_1" xmlns="http://www.w3.org/2000/svg" xmlns:xlink="http://www.w3.org/1999/xlink" x="0px" y="0px"
	 viewBox="0 0 581 61" style="enable-background:new 0 0 581 61;" xml:space="preserve">
<style type="text/css">
	.st0{fill:none;}
	.st1{fill:none;stroke:#000000;stroke-miterlimit:10;}
	.st2{stroke:#000000;stroke-miterlimit:10;}
	.st3{fill:#FFFFFF;stroke:#000000;}
	.st4{font-family:'ArialMT';}
	.st5{font-size:12px;}
	.st6{enable-background:new    ;}
</style>
<path class="st0" d="z"/>
<g>
	<path pointer-events="stroke" class="st1" d="M120.5,30.5h23.6"/>
	<path pointer-events="all" class="st2" d="M149.4,30.5l-7,3.5l1.8-3.5l-1.8-3.5L149.4,30.5z"/>
	<rect x="0.5" y="0.5" pointer-events="all" class="st3" width="120" height="60"/>
	<g transform="translate(-0.5 -0.5)">
	</g>
	<rect x="150.5" y="0.5" pointer-events="all" class="st3" width="120" height="60"/>
	<g transform="translate(-0.5 -0.5)">
		<text transform="matrix(1 0 0 1 153.1309 34.5)" class="st4 st5">Recolección de datos</text>
	</g>
	<path pointer-events="stroke" class="st1" d="M270.5,30.5h27.6"/>
	<path pointer-events="all" class="st2" d="M303.4,30.5l-7,3.5l1.8-3.5l-1.8-3.5L303.4,30.5z"/>
	<path pointer-events="stroke" class="st1" d="M424.5,30.5h29.6"/>
	<path pointer-events="all" class="st2" d="M459.4,30.5l-7,3.5l1.8-3.5l-1.8-3.5L459.4,30.5z"/>
	<rect x="304.5" y="0.5" pointer-events="all" class="st3" width="120" height="60"/>
	<g transform="translate(-0.5 -0.5)">
		<text transform="matrix(1 0 0 1 319.1396 34.5)" class="st4 st5">Analisis de datos</text>
	</g>
	<rect x="460.5" y="0.5" pointer-events="all" class="st3" width="120" height="60"/>
	<g transform="translate(-0.5 -0.5)">
		<text transform="matrix(1 0 0 1 469.7998 22.5)" class="st6"><tspan x="0" y="0" class="st4 st5">Presentación de los</tspan><tspan x="0" y="14.4" class="st4 st5">resultados y </tspan><tspan x="0" y="28.8" class="st4 st5">conclusiones</tspan></text>
	</g>
	<g transform="translate(-0.5 -0.5)">
		<text transform="matrix(1 0 0 1 13 31)" class="st6"><tspan x="0" y="0" class="st4 st5">Diseño de estudio </tspan><tspan x="0" y="14.4" class="st4 st5">de caso</tspan></text>
	</g>
</g>
<path class="st0" d="z"/>
</svg>
