<svg version="1.1" xmlns="http://www.w3.org/2000/svg" xmlns:xlink="http://www.w3.org/1999/xlink" width="1093.61328125" height="612"><defs/><g><g transform="translate(-254,-222) scale(1,1)"><rect fill="#C0C0C0" stroke="none" x="271" y="649" width="654.345703125" height="182" opacity="0.2"/></g><g transform="translate(-254,-222) scale(1,1)"><rect fill="#C0C0C0" stroke="none" x="840.05859375" y="631" width="94.287109375" height="22" opacity="0.2"/></g><g transform="translate(-254,-222) scale(1,1)"><rect fill="#ffffff" stroke="none" x="264" y="642" width="654.345703125" height="182"/></g><g transform="translate(-254,-222) scale(1,1)"><path fill="none" stroke="#000000" d="M 264 642 L 918.345703125 642 L 918.345703125 824 L 264 824 L 264 642 Z Z" stroke-miterlimit="10"/></g><g transform="translate(-254,-222) scale(1,1)"><path fill="none" stroke="#000000" d="M 264 667 L 918.345703125 667" stroke-miterlimit="10"/></g><g transform="translate(-254,-222) scale(1,1)"><g><path fill="none" stroke="none"/><text fill="#000000" stroke="none" font-family="Arial" font-size="13px" font-style="normal" font-weight="bold" text-decoration="none" x="530.8447265625" y="661.5">ExperimentAlgorithm</text></g></g><g transform="translate(-254,-222) scale(1,1)"><g><path fill="none" stroke="none"/><text fill="#000000" stroke="none" font-family="Arial" font-size="13px" font-style="normal" font-weight="normal" text-decoration="none" x="269" y="684.5">«constructor»+ExperimentAlgorithm(algorithm, algorithmTag: String, problem: ExperimentProblem, runId: int)</text></g></g><g transform="translate(-254,-222) scale(1,1)"><g><path fill="none" stroke="none"/><text fill="#000000" stroke="none" font-family="Arial" font-size="13px" font-style="normal" font-weight="normal" text-decoration="none" x="269" y="699.5">«constructor»+ExperimentAlgorithm(algorithm, problem: ExperimentProblem, runId: int)</text></g></g><g transform="translate(-254,-222) scale(1,1)"><g><path fill="none" stroke="none"/><text fill="#000000" stroke="none" font-family="Arial" font-size="13px" font-style="normal" font-weight="normal" text-decoration="none" x="269" y="714.5">+prepareToRun(experimentData): void</text></g></g><g transform="translate(-254,-222) scale(1,1)"><g><path fill="none" stroke="none"/><text fill="#000000" stroke="none" font-family="Arial" font-size="13px" font-style="normal" font-weight="normal" text-decoration="none" x="269" y="729.5">+runASingleStepOfAlgorithm(): void</text></g></g><g transform="translate(-254,-222) scale(1,1)"><g><path fill="none" stroke="none"/><text fill="#000000" stroke="none" font-family="Arial" font-size="13px" font-style="normal" font-weight="normal" text-decoration="none" x="269" y="744.5">+saveSolutionList(): void</text></g></g><g transform="translate(-254,-222) scale(1,1)"><g><path fill="none" stroke="none"/><text fill="#000000" stroke="none" font-family="Arial" font-size="13px" font-style="normal" font-weight="normal" text-decoration="none" x="269" y="759.5">+algorithmHasANextStep(): boolean</text></g></g><g transform="translate(-254,-222) scale(1,1)"><g><path fill="none" stroke="none"/><text fill="#000000" stroke="none" font-family="Arial" font-size="13px" font-style="normal" font-weight="normal" text-decoration="none" x="269" y="774.5">+getAlgorithm(): Algorithm</text></g></g><g transform="translate(-254,-222) scale(1,1)"><g><path fill="none" stroke="none"/><text fill="#000000" stroke="none" font-family="Arial" font-size="13px" font-style="normal" font-weight="normal" text-decoration="none" x="269" y="789.5">+getAlgorithmTag(): String</text></g></g><g transform="translate(-254,-222) scale(1,1)"><g><path fill="none" stroke="none"/><text fill="#000000" stroke="none" font-family="Arial" font-size="13px" font-style="normal" font-weight="normal" text-decoration="none" x="269" y="804.5">+getRunId(): int</text></g></g><g transform="translate(-254,-222) scale(1,1)"><g><path fill="none" stroke="none"/><text fill="#000000" stroke="none" font-family="Arial" font-size="13px" font-style="normal" font-weight="normal" text-decoration="none" x="269" y="819.5">+getResult(): List&lt;S&gt;</text></g></g><g transform="translate(-254,-222) scale(1,1)"><rect fill="#ffffff" stroke="none" x="833.05859375" y="624" width="94.287109375" height="22"/></g><g transform="translate(-254,-222) scale(1,1)"><path fill="none" stroke="#000000" d="M 833.05859375 624 L 927.345703125 624 L 927.345703125 646 L 833.05859375 646 L 833.05859375 624 Z Z" stroke-miterlimit="10" stroke-dasharray="3"/></g><g transform="translate(-254,-222) scale(1,1)"><g><path fill="none" stroke="none"/><text fill="#000000" stroke="none" font-family="Arial" font-size="13px" font-style="normal" font-weight="normal" text-decoration="none" x="838.05859375" y="641.5">S: Solution&lt;?&gt;</text></g></g><g transform="translate(-254,-222) scale(1,1)"><rect fill="#C0C0C0" stroke="none" x="983" y="657" width="351.61328125" height="107" opacity="0.2"/></g><g transform="translate(-254,-222) scale(1,1)"><rect fill="#C0C0C0" stroke="none" x="1249.326171875" y="639" width="94.287109375" height="22" opacity="0.2"/></g><g transform="translate(-254,-222) scale(1,1)"><rect fill="#ffffff" stroke="none" x="976" y="650" width="351.61328125" height="107"/></g><g transform="translate(-254,-222) scale(1,1)"><path fill="none" stroke="#000000" d="M 976 650 L 1327.61328125 650 L 1327.61328125 757 L 976 757 L 976 650 Z Z" stroke-miterlimit="10"/></g><g transform="translate(-254,-222) scale(1,1)"><path fill="none" stroke="#000000" d="M 976 675 L 1327.61328125 675" stroke-miterlimit="10"/></g><g transform="translate(-254,-222) scale(1,1)"><g><path fill="none" stroke="none"/><text fill="#000000" stroke="none" font-family="Arial" font-size="13px" font-style="normal" font-weight="bold" text-decoration="none" x="1094.728515625" y="669.5">ExperimentProblem</text></g></g><g transform="translate(-254,-222) scale(1,1)"><g><path fill="none" stroke="none"/><text fill="#000000" stroke="none" font-family="Arial" font-size="13px" font-style="normal" font-weight="normal" text-decoration="none" x="981" y="692.5">«constructor»+ExperimentProblem(problem, tag: String)</text></g></g><g transform="translate(-254,-222) scale(1,1)"><g><path fill="none" stroke="none"/><text fill="#000000" stroke="none" font-family="Arial" font-size="13px" font-style="normal" font-weight="normal" text-decoration="none" x="981" y="707.5">«constructor»+ExperimentProblem(problem)</text></g></g><g transform="translate(-254,-222) scale(1,1)"><g><path fill="none" stroke="none"/><text fill="#000000" stroke="none" font-family="Arial" font-size="13px" font-style="normal" font-weight="normal" text-decoration="none" x="981" y="722.5">+getProblem(): Problem&lt;S&gt;</text></g></g><g transform="translate(-254,-222) scale(1,1)"><g><path fill="none" stroke="none"/><text fill="#000000" stroke="none" font-family="Arial" font-size="13px" font-style="normal" font-weight="normal" text-decoration="none" x="981" y="737.5">+getTag(): String</text></g></g><g transform="translate(-254,-222) scale(1,1)"><g><path fill="none" stroke="none"/><text fill="#000000" stroke="none" font-family="Arial" font-size="13px" font-style="normal" font-weight="normal" text-decoration="none" x="981" y="752.5">+closeResources(): void</text></g></g><g transform="translate(-254,-222) scale(1,1)"><rect fill="#ffffff" stroke="none" x="1242.326171875" y="632" width="94.287109375" height="22"/></g><g transform="translate(-254,-222) scale(1,1)"><path fill="none" stroke="#000000" d="M 1242.326171875 632 L 1336.61328125 632 L 1336.61328125 654 L 1242.326171875 654 L 1242.326171875 632 Z Z" stroke-miterlimit="10" stroke-dasharray="3"/></g><g transform="translate(-254,-222) scale(1,1)"><g><path fill="none" stroke="none"/><text fill="#000000" stroke="none" font-family="Arial" font-size="13px" font-style="normal" font-weight="normal" text-decoration="none" x="1247.326171875" y="649.5">S: Solution&lt;?&gt;</text></g></g><g transform="translate(-254,-222) scale(1,1)"><rect fill="#C0C0C0" stroke="none" x="671" y="257" width="414.4423828125" height="212" opacity="0.2"/></g><g transform="translate(-254,-222) scale(1,1)"><rect fill="#C0C0C0" stroke="none" x="1000.1552734375" y="239" width="94.287109375" height="22" opacity="0.2"/></g><g transform="translate(-254,-222) scale(1,1)"><rect fill="#ffffff" stroke="none" x="664" y="250" width="414.4423828125" height="212"/></g><g transform="translate(-254,-222) scale(1,1)"><path fill="none" stroke="#000000" d="M 664 250 L 1078.4423828125 250 L 1078.4423828125 462 L 664 462 L 664 250 Z Z" stroke-miterlimit="10"/></g><g transform="translate(-254,-222) scale(1,1)"><path fill="none" stroke="#000000" d="M 664 275 L 1078.4423828125 275" stroke-miterlimit="10"/></g><g transform="translate(-254,-222) scale(1,1)"><g><path fill="none" stroke="none"/><text fill="#000000" stroke="none" font-family="Arial" font-size="13px" font-style="normal" font-weight="bold" text-decoration="none" x="838.3466796875" y="269.5">Experiment</text></g></g><g transform="translate(-254,-222) scale(1,1)"><g><path fill="none" stroke="none"/><text fill="#000000" stroke="none" font-family="Arial" font-size="13px" font-style="normal" font-weight="normal" text-decoration="none" x="669" y="292.5">«constructor»+Experiment(builder: ExperimentBuilder)</text></g></g><g transform="translate(-254,-222) scale(1,1)"><g><path fill="none" stroke="none"/><text fill="#000000" stroke="none" font-family="Arial" font-size="13px" font-style="normal" font-weight="normal" text-decoration="none" x="669" y="307.5">+getExperimentName(): String</text></g></g><g transform="translate(-254,-222) scale(1,1)"><g><path fill="none" stroke="none"/><text fill="#000000" stroke="none" font-family="Arial" font-size="13px" font-style="normal" font-weight="normal" text-decoration="none" x="669" y="322.5">+getAlgorithmList(): List&lt;ExperimentAlgorithm&gt;</text></g></g><g transform="translate(-254,-222) scale(1,1)"><g><path fill="none" stroke="none"/><text fill="#000000" stroke="none" font-family="Arial" font-size="13px" font-style="normal" font-weight="normal" text-decoration="none" x="669" y="337.5">+getProblem(): ExperimentProblem&lt;S&gt;</text></g></g><g transform="translate(-254,-222) scale(1,1)"><g><path fill="none" stroke="none"/><text fill="#000000" stroke="none" font-family="Arial" font-size="13px" font-style="normal" font-weight="normal" text-decoration="none" x="669" y="352.5">+getExperimentBaseDirectory(): String</text></g></g><g transform="translate(-254,-222) scale(1,1)"><g><path fill="none" stroke="none"/><text fill="#000000" stroke="none" font-family="Arial" font-size="13px" font-style="normal" font-weight="normal" text-decoration="none" x="669" y="367.5">+getObjectiveOutputFileName(): String</text></g></g><g transform="translate(-254,-222) scale(1,1)"><g><path fill="none" stroke="none"/><text fill="#000000" stroke="none" font-family="Arial" font-size="13px" font-style="normal" font-weight="normal" text-decoration="none" x="669" y="382.5">+getVariablesOutputFileName(): String</text></g></g><g transform="translate(-254,-222) scale(1,1)"><g><path fill="none" stroke="none"/><text fill="#000000" stroke="none" font-family="Arial" font-size="13px" font-style="normal" font-weight="normal" text-decoration="none" x="669" y="397.5">+getIndependentRuns(): int</text></g></g><g transform="translate(-254,-222) scale(1,1)"><g><path fill="none" stroke="none"/><text fill="#000000" stroke="none" font-family="Arial" font-size="13px" font-style="normal" font-weight="normal" text-decoration="none" x="669" y="412.5">+getReferenceFrontDirectory(): String</text></g></g><g transform="translate(-254,-222) scale(1,1)"><g><path fill="none" stroke="none"/><text fill="#000000" stroke="none" font-family="Arial" font-size="13px" font-style="normal" font-weight="normal" text-decoration="none" x="669" y="427.5">+setReferenceFrontDirectory(referenceFrontDirectory: String): void</text></g></g><g transform="translate(-254,-222) scale(1,1)"><g><path fill="none" stroke="none"/><text fill="#000000" stroke="none" font-family="Arial" font-size="13px" font-style="normal" font-weight="normal" text-decoration="none" x="669" y="442.5">+setAlgorithmList(algorithmList: List&lt;Algorithm&gt;): void</text></g></g><g transform="translate(-254,-222) scale(1,1)"><g><path fill="none" stroke="none"/><text fill="#000000" stroke="none" font-family="Arial" font-size="13px" font-style="normal" font-weight="normal" text-decoration="none" x="669" y="457.5">+removeDuplicatedAlgorithms(): void</text></g></g><g transform="translate(-254,-222) scale(1,1)"><rect fill="#ffffff" stroke="none" x="993.1552734375" y="232" width="94.287109375" height="22"/></g><g transform="translate(-254,-222) scale(1,1)"><path fill="none" stroke="#000000" d="M 993.1552734375 232 L 1087.4423828125 232 L 1087.4423828125 254 L 993.1552734375 254 L 993.1552734375 232 Z Z" stroke-miterlimit="10" stroke-dasharray="3"/></g><g transform="translate(-254,-222) scale(1,1)"><g><path fill="none" stroke="none"/><text fill="#000000" stroke="none" font-family="Arial" font-size="13px" font-style="normal" font-weight="normal" text-decoration="none" x="998.1552734375" y="249.5">S: Solution&lt;?&gt;</text></g></g><g transform="translate(-254,-222) scale(1,1)"><path fill="none" stroke="#000000" d="M 671 623 L 790 463" stroke-miterlimit="10"/></g><g transform="translate(-254,-222) scale(1,1)"><path fill="#000000" stroke="none" d="M 787.3127825745901 473.66671751330153 L 790 463 L 780.5573420493132 468.64235862262683 L 776.8707175023942 480.65281680350364"/></g><g transform="translate(-254,-222) scale(1,1)"><path fill="none" stroke="#000000" d="M 787.3127825745901 473.66671751330153 L 790 463 L 780.5573420493132 468.64235862262683 L 776.8707175023942 480.65281680350364 L 787.3127825745901 473.66671751330153" stroke-miterlimit="10"/></g><g transform="translate(-254,-222) scale(1,1)"><g><path fill="none" stroke="none"/><text fill="#000000" stroke="none" font-family="Arial" font-size="13px" font-style="normal" font-weight="normal" text-decoration="none" x="690.5" y="619.5">*</text></g></g><g transform="translate(-254,-222) scale(1,1)"><path fill="none" stroke="#000000" d="M 1105 631 L 970 463" stroke-miterlimit="10"/></g><g transform="translate(-254,-222) scale(1,1)"><path fill="#000000" stroke="none" d="M 979.6471658695084 468.28509136025036 L 970 463 L 973.0844524655373 473.55870034558427 L 983.780604382953 480.1491965654527"/></g><g transform="translate(-254,-222) scale(1,1)"><path fill="none" stroke="#000000" d="M 979.6471658695084 468.28509136025036 L 970 463 L 973.0844524655373 473.55870034558427 L 983.780604382953 480.1491965654527 L 979.6471658695084 468.28509136025036" stroke-miterlimit="10"/></g><g transform="translate(-254,-222) scale(1,1)"><g><path fill="none" stroke="none"/><text fill="#000000" stroke="none" font-family="Arial" font-size="13px" font-style="normal" font-weight="normal" text-decoration="none" x="1097.5" y="612.5">1</text></g></g></g></svg>