<svg version="1.1" xmlns="http://www.w3.org/2000/svg" xmlns:xlink="http://www.w3.org/1999/xlink" width="1044" height="1483"><defs/><g><g transform="translate(-878,-150) scale(1,1)"><path fill="#C0C0C0" stroke="none" d="M 1234 176.5 C 1234 171.2532944 1238.2532944 167 1243.5 167 C 1248.7467056 167 1253 171.2532944 1253 176.5 C 1253 181.7467056 1248.7467056 186 1243.5 186 C 1238.2532944 186 1234 181.7467056 1234 176.5 Z" opacity="0.2"/></g><g transform="translate(-878,-150) scale(1,1)"><path fill="#000000" stroke="none" d="M 1227 169.5 C 1227 164.2532944 1231.2532944 160 1236.5 160 C 1241.7467056 160 1246 164.2532944 1246 169.5 C 1246 174.7467056 1241.7467056 179 1236.5 179 C 1231.2532944 179 1227 174.7467056 1227 169.5 Z"/></g><g transform="translate(-878,-150) scale(1,1)"><path fill="#C0C0C0" stroke="none" d="M 1211 223 L 1275.8642578125 223 Q 1285.8642578125 223 1285.8642578125 233 L 1285.8642578125 255 Q 1285.8642578125 265 1275.8642578125 265 L 1211 265 Q 1201 265 1201 255 L 1201 233 Q 1201 223 1211 223 Z" opacity="0.2"/></g><g transform="translate(-878,-150) scale(1,1)"><path fill="#ffffff" stroke="none" d="M 1204 216 L 1268.8642578125 216 Q 1278.8642578125 216 1278.8642578125 226 L 1278.8642578125 248 Q 1278.8642578125 258 1268.8642578125 258 L 1204 258 Q 1194 258 1194 248 L 1194 226 Q 1194 216 1204 216 Z"/></g><g transform="translate(-878,-150) scale(1,1)"><path fill="none" stroke="#000000" d="M 1204 216 L 1268.8642578125 216 Q 1278.8642578125 216 1278.8642578125 226 L 1278.8642578125 248 Q 1278.8642578125 258 1268.8642578125 258 L 1204 258 Q 1194 258 1194 248 L 1194 226 Q 1194 216 1204 216 Z" stroke-miterlimit="10"/></g><g transform="translate(-878,-150) scale(1,1)"><g><path fill="none" stroke="none"/><text fill="#000000" stroke="none" font-family="Arial" font-size="15px" font-style="normal" font-weight="bold" text-decoration="none" x="1200.583740234375" y="237.5">Cargar red</text></g></g><g transform="translate(-878,-150) scale(1,1)"><path fill="#C0C0C0" stroke="none" d="M 1223 312.5 L 1243.5 295 L 1263 312.5 L 1243.5 329 L 1223 312.5" opacity="0.2"/></g><g transform="translate(-878,-150) scale(1,1)"><path fill="#ffffff" stroke="none" d="M 1216 305 L 1236 288 L 1256 305 L 1236 322 L 1216 305"/></g><g transform="translate(-878,-150) scale(1,1)"><path fill="none" stroke="#000000" d="M 1216 305 L 1236 288 L 1256 305 L 1236 322 L 1216 305 L 1216 305" stroke-miterlimit="10"/></g><g transform="translate(-878,-150) scale(1,1)"><path fill="#C0C0C0" stroke="none" d="M 1184 626 L 1324 626 Q 1334 626 1334 636 L 1334 673 Q 1334 683 1324 683 L 1184 683 Q 1174 683 1174 673 L 1174 636 Q 1174 626 1184 626 Z" opacity="0.2"/></g><g transform="translate(-878,-150) scale(1,1)"><path fill="#ffffff" stroke="none" d="M 1177 619 L 1317 619 Q 1327 619 1327 629 L 1327 666 Q 1327 676 1317 676 L 1177 676 Q 1167 676 1167 666 L 1167 629 Q 1167 619 1177 619 Z"/></g><g transform="translate(-878,-150) scale(1,1)"><path fill="none" stroke="#000000" d="M 1177 619 L 1317 619 Q 1327 619 1327 629 L 1327 666 Q 1327 676 1317 676 L 1177 676 Q 1167 676 1167 666 L 1167 629 Q 1167 619 1177 619 Z" stroke-miterlimit="10"/></g><g transform="translate(-878,-150) scale(1,1)"><g><path fill="none" stroke="none"/><text fill="#000000" stroke="none" font-family="Arial" font-size="15px" font-style="normal" font-weight="bold" text-decoration="none" x="1181.9755859375" y="640.5">Realizar simulación</text><text fill="#000000" stroke="none" font-family="Arial" font-size="15px" font-style="normal" font-weight="bold" text-decoration="none" x="1214.89794921875" y="655.5">hidráulica</text></g></g><g transform="translate(-878,-150) scale(1,1)"><path fill="#C0C0C0" stroke="none" d="M 1369 618 L 1477 618 Q 1487 618 1487 628 L 1487 680 Q 1487 690 1477 690 L 1369 690 Q 1359 690 1359 680 L 1359 628 Q 1359 618 1369 618 Z" opacity="0.2"/></g><g transform="translate(-878,-150) scale(1,1)"><path fill="#ffffff" stroke="none" d="M 1362 611 L 1470 611 Q 1480 611 1480 621 L 1480 673 Q 1480 683 1470 683 L 1362 683 Q 1352 683 1352 673 L 1352 621 Q 1352 611 1362 611 Z"/></g><g transform="translate(-878,-150) scale(1,1)"><path fill="none" stroke="#000000" d="M 1362 611 L 1470 611 Q 1480 611 1480 621 L 1480 673 Q 1480 683 1470 683 L 1362 683 Q 1352 683 1352 673 L 1352 621 Q 1352 611 1362 611 Z" stroke-miterlimit="10"/></g><g transform="translate(-878,-150) scale(1,1)"><g><path fill="none" stroke="none"/><text fill="#000000" stroke="none" font-family="Arial" font-size="15px" font-style="normal" font-weight="bold" text-decoration="none" x="1376.811767578125" y="632.5">Seleccionar</text><text fill="#000000" stroke="none" font-family="Arial" font-size="15px" font-style="normal" font-weight="bold" text-decoration="none" x="1384.73291015625" y="647.5">problema</text><text fill="#000000" stroke="none" font-family="Arial" font-size="15px" font-style="normal" font-weight="bold" text-decoration="none" x="1371.38818359375" y="662.5">monoobjetivo</text></g></g><g transform="translate(-878,-150) scale(1,1)"><path fill="#C0C0C0" stroke="none" d="M 1585 618 L 1709 618 Q 1719 618 1719 628 L 1719 680 Q 1719 690 1709 690 L 1585 690 Q 1575 690 1575 680 L 1575 628 Q 1575 618 1585 618 Z" opacity="0.2"/></g><g transform="translate(-878,-150) scale(1,1)"><path fill="#ffffff" stroke="none" d="M 1578 611 L 1702 611 Q 1712 611 1712 621 L 1712 673 Q 1712 683 1702 683 L 1578 683 Q 1568 683 1568 673 L 1568 621 Q 1568 611 1578 611 Z"/></g><g transform="translate(-878,-150) scale(1,1)"><path fill="none" stroke="#000000" d="M 1578 611 L 1702 611 Q 1712 611 1712 621 L 1712 673 Q 1712 683 1702 683 L 1578 683 Q 1568 683 1568 673 L 1568 621 Q 1568 611 1578 611 Z" stroke-miterlimit="10"/></g><g transform="translate(-878,-150) scale(1,1)"><g><path fill="none" stroke="none"/><text fill="#000000" stroke="none" font-family="Arial" font-size="15px" font-style="normal" font-weight="bold" text-decoration="none" x="1600.811767578125" y="632.5">Seleccionar</text><text fill="#000000" stroke="none" font-family="Arial" font-size="15px" font-style="normal" font-weight="bold" text-decoration="none" x="1608.73291015625" y="647.5">problema</text><text fill="#000000" stroke="none" font-family="Arial" font-size="15px" font-style="normal" font-weight="bold" text-decoration="none" x="1598.314208984375" y="662.5">multiobjetivo</text></g></g><g transform="translate(-878,-150) scale(1,1)"><path fill="none" stroke="#000000" d="M 1236 180 L 1236 215" stroke-miterlimit="10"/></g><g transform="translate(-878,-150) scale(1,1)"><path fill="none" stroke="#000000" d="M 1231.7904822439841 204.83732514237585 L 1236 215 L 1240.2095177560159 204.83732514237585" stroke-miterlimit="10"/></g><g transform="translate(-878,-150) scale(1,1)"><path fill="none" stroke="#000000" d="M 1236 259 L 1236 287" stroke-miterlimit="10"/></g><g transform="translate(-878,-150) scale(1,1)"><path fill="none" stroke="#000000" d="M 1231.7904822439841 276.83732514237585 L 1236 287 L 1240.2095177560159 276.83732514237585" stroke-miterlimit="10"/></g><g transform="translate(-878,-150) scale(1,1)"><path fill="none" stroke="#000000" d="M 1216 313 L 1096 313 L 1096 236 L 1194 236" stroke-miterlimit="10"/></g><g transform="translate(-878,-150) scale(1,1)"><path fill="none" stroke="#000000" d="M 1183.837325142376 240.209517756016 L 1194 236 L 1183.837325142376 231.790482243984" stroke-miterlimit="10"/></g><g transform="translate(-878,-150) scale(1,1)"><g><path fill="none" stroke="none"/><text fill="#000000" stroke="none" font-family="Arial" font-size="15px" font-style="normal" font-weight="normal" text-decoration="none" x="982.5" y="280.5">Red no cargada</text></g></g><g transform="translate(-878,-150) scale(1,1)"><path fill="#C0C0C0" stroke="none" d="M 1192 367 L 1294.9501953125 367 Q 1304.9501953125 367 1304.9501953125 377 L 1304.9501953125 399 Q 1304.9501953125 409 1294.9501953125 409 L 1192 409 Q 1182 409 1182 399 L 1182 377 Q 1182 367 1192 367 Z" opacity="0.2"/></g><g transform="translate(-878,-150) scale(1,1)"><path fill="#ffffff" stroke="none" d="M 1185 360 L 1287.9501953125 360 Q 1297.9501953125 360 1297.9501953125 370 L 1297.9501953125 392 Q 1297.9501953125 402 1287.9501953125 402 L 1185 402 Q 1175 402 1175 392 L 1175 370 Q 1175 360 1185 360 Z"/></g><g transform="translate(-878,-150) scale(1,1)"><path fill="none" stroke="#000000" d="M 1185 360 L 1287.9501953125 360 Q 1297.9501953125 360 1297.9501953125 370 L 1297.9501953125 392 Q 1297.9501953125 402 1287.9501953125 402 L 1185 402 Q 1175 402 1175 392 L 1175 370 Q 1175 360 1185 360 Z" stroke-miterlimit="10"/></g><g transform="translate(-878,-150) scale(1,1)"><g><path fill="none" stroke="none"/><text fill="#000000" stroke="none" font-family="Arial" font-size="15px" font-style="normal" font-weight="bold" text-decoration="none" x="1183.253662109375" y="381.5">Visualizar la red</text></g></g><g transform="translate(-878,-150) scale(1,1)"><path fill="#C0C0C0" stroke="none" d="M 1145 439 L 1342.388671875 439 Q 1352.388671875 439 1352.388671875 449 L 1352.388671875 471 Q 1352.388671875 481 1342.388671875 481 L 1145 481 Q 1135 481 1135 471 L 1135 449 Q 1135 439 1145 439 Z" opacity="0.2"/></g><g transform="translate(-878,-150) scale(1,1)"><path fill="#ffffff" stroke="none" d="M 1138 432 L 1335.388671875 432 Q 1345.388671875 432 1345.388671875 442 L 1345.388671875 464 Q 1345.388671875 474 1335.388671875 474 L 1138 474 Q 1128 474 1128 464 L 1128 442 Q 1128 432 1138 432 Z"/></g><g transform="translate(-878,-150) scale(1,1)"><path fill="none" stroke="#000000" d="M 1138 432 L 1335.388671875 432 Q 1345.388671875 432 1345.388671875 442 L 1345.388671875 464 Q 1345.388671875 474 1335.388671875 474 L 1138 474 Q 1128 474 1128 464 L 1128 442 Q 1128 432 1138 432 Z" stroke-miterlimit="10"/></g><g transform="translate(-878,-150) scale(1,1)"><g><path fill="none" stroke="none"/><text fill="#000000" stroke="none" font-family="Arial" font-size="15px" font-style="normal" font-weight="bold" text-decoration="none" x="1139.970703125" y="453.5">Listar componentes de la red</text></g></g><g transform="translate(-878,-150) scale(1,1)"><path fill="none" stroke="#000000" d="M 1236 323 L 1236 359" stroke-miterlimit="10"/></g><g transform="translate(-878,-150) scale(1,1)"><path fill="none" stroke="#000000" d="M 1231.7904822439841 348.83732514237585 L 1236 359 L 1240.2095177560159 348.83732514237585" stroke-miterlimit="10"/></g><g transform="translate(-878,-150) scale(1,1)"><g><path fill="none" stroke="none"/><text fill="#000000" stroke="none" font-family="Arial" font-size="15px" font-style="normal" font-weight="normal" text-decoration="none" x="1247.5" y="342.5">Red cargada</text></g></g><g transform="translate(-878,-150) scale(1,1)"><path fill="none" stroke="#000000" d="M 1236 403 L 1236 431" stroke-miterlimit="10"/></g><g transform="translate(-878,-150) scale(1,1)"><path fill="none" stroke="#000000" d="M 1231.7904822439841 420.83732514237585 L 1236 431 L 1240.2095177560159 420.83732514237585" stroke-miterlimit="10"/></g><g transform="translate(-878,-150) scale(1,1)"><path fill="#C0C0C0" stroke="none" d="M 1016 618 L 1140 618 Q 1150 618 1150 628 L 1150 680 Q 1150 690 1140 690 L 1016 690 Q 1006 690 1006 680 L 1006 628 Q 1006 618 1016 618 Z" opacity="0.2"/></g><g transform="translate(-878,-150) scale(1,1)"><path fill="#ffffff" stroke="none" d="M 1009 611 L 1133 611 Q 1143 611 1143 621 L 1143 673 Q 1143 683 1133 683 L 1009 683 Q 999 683 999 673 L 999 621 Q 999 611 1009 611 Z"/></g><g transform="translate(-878,-150) scale(1,1)"><path fill="none" stroke="#000000" d="M 1009 611 L 1133 611 Q 1143 611 1143 621 L 1143 673 Q 1143 683 1133 683 L 1009 683 Q 999 683 999 673 L 999 621 Q 999 611 1009 611 Z" stroke-miterlimit="10"/></g><g transform="translate(-878,-150) scale(1,1)"><g><path fill="none" stroke="none"/><text fill="#000000" stroke="none" font-family="Arial" font-size="15px" font-style="normal" font-weight="bold" text-decoration="none" x="1031.811767578125" y="632.5">Seleccionar</text><text fill="#000000" stroke="none" font-family="Arial" font-size="15px" font-style="normal" font-weight="bold" text-decoration="none" x="1011.37353515625" y="647.5">componente de la</text><text fill="#000000" stroke="none" font-family="Arial" font-size="15px" font-style="normal" font-weight="bold" text-decoration="none" x="1060.16015625" y="662.5">red</text></g></g><g transform="translate(-878,-150) scale(1,1)"><path fill="#C0C0C0" stroke="none" d="M 1016 734 L 1140 734 Q 1150 734 1150 744 L 1150 796 Q 1150 806 1140 806 L 1016 806 Q 1006 806 1006 796 L 1006 744 Q 1006 734 1016 734 Z" opacity="0.2"/></g><g transform="translate(-878,-150) scale(1,1)"><path fill="#ffffff" stroke="none" d="M 1009 727 L 1133 727 Q 1143 727 1143 737 L 1143 789 Q 1143 799 1133 799 L 1009 799 Q 999 799 999 789 L 999 737 Q 999 727 1009 727 Z"/></g><g transform="translate(-878,-150) scale(1,1)"><path fill="none" stroke="#000000" d="M 1009 727 L 1133 727 Q 1143 727 1143 737 L 1143 789 Q 1143 799 1133 799 L 1009 799 Q 999 799 999 789 L 999 737 Q 999 727 1009 727 Z" stroke-miterlimit="10"/></g><g transform="translate(-878,-150) scale(1,1)"><g><path fill="none" stroke="none"/><text fill="#000000" stroke="none" font-family="Arial" font-size="15px" font-style="normal" font-weight="bold" text-decoration="none" x="1037.66015625" y="748.5">Mostrar la</text><text fill="#000000" stroke="none" font-family="Arial" font-size="15px" font-style="normal" font-weight="bold" text-decoration="none" x="1014.2958984375" y="763.5">configuración del</text><text fill="#000000" stroke="none" font-family="Arial" font-size="15px" font-style="normal" font-weight="bold" text-decoration="none" x="1029.720703125" y="778.5">componente</text></g></g><g transform="translate(-878,-150) scale(1,1)"><path fill="#C0C0C0" stroke="none" d="M 1196 727 L 1312 727 Q 1322 727 1322 737 L 1322 804 Q 1322 814 1312 814 L 1196 814 Q 1186 814 1186 804 L 1186 737 Q 1186 727 1196 727 Z" opacity="0.2"/></g><g transform="translate(-878,-150) scale(1,1)"><path fill="#ffffff" stroke="none" d="M 1189 720 L 1305 720 Q 1315 720 1315 730 L 1315 797 Q 1315 807 1305 807 L 1189 807 Q 1179 807 1179 797 L 1179 730 Q 1179 720 1189 720 Z"/></g><g transform="translate(-878,-150) scale(1,1)"><path fill="none" stroke="#000000" d="M 1189 720 L 1305 720 Q 1315 720 1315 730 L 1315 797 Q 1315 807 1305 807 L 1189 807 Q 1179 807 1179 797 L 1179 730 Q 1179 720 1189 720 Z" stroke-miterlimit="10"/></g><g transform="translate(-878,-150) scale(1,1)"><g><path fill="none" stroke="none"/><text fill="#000000" stroke="none" font-family="Arial" font-size="15px" font-style="normal" font-weight="bold" text-decoration="none" x="1221.581298828125" y="741.5">Mostrar</text><text fill="#000000" stroke="none" font-family="Arial" font-size="15px" font-style="normal" font-weight="bold" text-decoration="none" x="1194.049560546875" y="756.5">resultados de la</text><text fill="#000000" stroke="none" font-family="Arial" font-size="15px" font-style="normal" font-weight="bold" text-decoration="none" x="1211.569091796875" y="771.5">simulación</text><text fill="#000000" stroke="none" font-family="Arial" font-size="15px" font-style="normal" font-weight="bold" text-decoration="none" x="1214.89794921875" y="786.5">hidráulica</text></g></g><g transform="translate(-878,-150) scale(1,1)"><path fill="#C0C0C0" stroke="none" d="M 1737 783 L 1829 783 Q 1839 783 1839 793 L 1839 830 Q 1839 840 1829 840 L 1737 840 Q 1727 840 1727 830 L 1727 793 Q 1727 783 1737 783 Z" opacity="0.2"/></g><g transform="translate(-878,-150) scale(1,1)"><path fill="#ffff91" stroke="none" d="M 1730 776 L 1822 776 Q 1832 776 1832 786 L 1832 823 Q 1832 833 1822 833 L 1730 833 Q 1720 833 1720 823 L 1720 786 Q 1720 776 1730 776 Z"/></g><g transform="translate(-878,-150) scale(1,1)"><path fill="none" stroke="#000000" d="M 1730 776 L 1822 776 Q 1832 776 1832 786 L 1832 823 Q 1832 833 1822 833 L 1730 833 Q 1720 833 1720 823 L 1720 786 Q 1720 776 1730 776 Z" stroke-miterlimit="10"/></g><g transform="translate(-878,-150) scale(1,1)"><g><path fill="none" stroke="none"/><text fill="#000000" stroke="none" font-family="Arial" font-size="15px" font-style="normal" font-weight="bold" text-decoration="none" x="1740.98291015625" y="797.5">Configurar</text><text fill="#000000" stroke="none" font-family="Arial" font-size="15px" font-style="normal" font-weight="bold" text-decoration="none" x="1734.72802734375" y="812.5">experimento</text></g></g><g transform="translate(-878,-150) scale(1,1)"><path fill="#C0C0C0" stroke="none" d="M 1489 747.5 L 1513.5 727 L 1537 747.5 L 1513.5 767 L 1489 747.5" opacity="0.2"/></g><g transform="translate(-878,-150) scale(1,1)"><path fill="#ffffff" stroke="none" d="M 1482 740 L 1506 720 L 1530 740 L 1506 760 L 1482 740"/></g><g transform="translate(-878,-150) scale(1,1)"><path fill="none" stroke="#000000" d="M 1482 740 L 1506 720 L 1530 740 L 1506 760 L 1482 740 L 1482 740" stroke-miterlimit="10"/></g><g transform="translate(-878,-150) scale(1,1)"><path fill="#C0C0C0" stroke="none" d="M 1471 963 L 1555 963 Q 1565 963 1565 973 L 1565 1010 Q 1565 1020 1555 1020 L 1471 1020 Q 1461 1020 1461 1010 L 1461 973 Q 1461 963 1471 963 Z" opacity="0.2"/></g><g transform="translate(-878,-150) scale(1,1)"><path fill="#ffffff" stroke="none" d="M 1464 956 L 1548 956 Q 1558 956 1558 966 L 1558 1003 Q 1558 1013 1548 1013 L 1464 1013 Q 1454 1013 1454 1003 L 1454 966 Q 1454 956 1464 956 Z"/></g><g transform="translate(-878,-150) scale(1,1)"><path fill="none" stroke="#000000" d="M 1464 956 L 1548 956 Q 1558 956 1558 966 L 1558 1003 Q 1558 1013 1548 1013 L 1464 1013 Q 1454 1013 1454 1003 L 1454 966 Q 1454 956 1464 956 Z" stroke-miterlimit="10"/></g><g transform="translate(-878,-150) scale(1,1)"><g><path fill="none" stroke="none"/><text fill="#000000" stroke="none" font-family="Arial" font-size="15px" font-style="normal" font-weight="bold" text-decoration="none" x="1478.486572265625" y="977.5">Ejecutar</text><text fill="#000000" stroke="none" font-family="Arial" font-size="15px" font-style="normal" font-weight="bold" text-decoration="none" x="1464.72802734375" y="992.5">experimento</text></g></g><g transform="translate(-878,-150) scale(1,1)"><path fill="none" stroke="#000000" d="M 1247 677 L 1247 719" stroke-miterlimit="10"/></g><g transform="translate(-878,-150) scale(1,1)"><path fill="none" stroke="#000000" d="M 1242.7904822439841 708.8373251423759 L 1247 719 L 1251.2095177560159 708.8373251423759" stroke-miterlimit="10"/></g><g transform="translate(-878,-150) scale(1,1)"><path fill="none" stroke="#000000" d="M 1071 684 L 1071 726" stroke-miterlimit="10"/></g><g transform="translate(-878,-150) scale(1,1)"><path fill="none" stroke="#000000" d="M 1066.7904822439841 715.8373251423759 L 1071 726 L 1075.2095177560159 715.8373251423759" stroke-miterlimit="10"/></g><g transform="translate(-878,-150) scale(1,1)"><path fill="none" stroke="#000000" d="M 1452 684 L 1486 719" stroke-miterlimit="10"/></g><g transform="translate(-878,-150) scale(1,1)"><path fill="none" stroke="#000000" d="M 1475.8993933556344 714.6436545802936 L 1486 719 L 1481.9381939351365 708.7773911602059" stroke-miterlimit="10"/></g><g transform="translate(-878,-150) scale(1,1)"><path fill="none" stroke="#000000" d="M 1587 684 L 1531 723" stroke-miterlimit="10"/></g><g transform="translate(-878,-150) scale(1,1)"><path fill="none" stroke="#000000" d="M 1536.9338430844766 713.7377375199789 L 1531 723 L 1541.7452692922832 720.6464520747777" stroke-miterlimit="10"/></g><g transform="translate(-878,-150) scale(1,1)"><path fill="none" stroke="#000000" d="M 1531 746 L 1719 790" stroke-miterlimit="10"/></g><g transform="translate(-878,-150) scale(1,1)"><path fill="none" stroke="#000000" d="M 1708.1454399144322 791.7828419304021 L 1719 790 L 1710.0640073379273 783.5853265754693" stroke-miterlimit="10"/></g><g transform="translate(-878,-150) scale(1,1)"><g><path fill="none" stroke="none"/><text fill="#000000" stroke="none" font-family="Arial" font-size="15px" font-style="normal" font-weight="normal" text-decoration="none" x="1605.017333984375" y="740.5">Tiene</text><text fill="#000000" stroke="none" font-family="Arial" font-size="15px" font-style="normal" font-weight="normal" text-decoration="none" x="1585.56787109375" y="755.5">parámetros</text></g></g><g transform="translate(-878,-150) scale(1,1)"><path fill="none" stroke="#000000" d="M 1506 761 L 1506 955" stroke-miterlimit="10"/></g><g transform="translate(-878,-150) scale(1,1)"><path fill="none" stroke="#000000" d="M 1501.7904822439841 944.8373251423759 L 1506 955 L 1510.2095177560159 944.8373251423759" stroke-miterlimit="10"/></g><g transform="translate(-878,-150) scale(1,1)"><g><path fill="none" stroke="none"/><text fill="#000000" stroke="none" font-family="Arial" font-size="15px" font-style="normal" font-weight="normal" text-decoration="none" x="1439.5654296875" y="856.5">No tiene</text><text fill="#000000" stroke="none" font-family="Arial" font-size="15px" font-style="normal" font-weight="normal" text-decoration="none" x="1429.56787109375" y="871.5">parámetros</text></g></g><g transform="translate(-878,-150) scale(1,1)"><path fill="#C0C0C0" stroke="none" d="M 1494 1080.5 L 1513.5 1063 L 1532 1080.5 L 1513.5 1097 L 1494 1080.5" opacity="0.2"/></g><g transform="translate(-878,-150) scale(1,1)"><path fill="#ffffff" stroke="none" d="M 1487 1073 L 1506 1056 L 1525 1073 L 1506 1090 L 1487 1073"/></g><g transform="translate(-878,-150) scale(1,1)"><path fill="none" stroke="#000000" d="M 1487 1073 L 1506 1056 L 1525 1073 L 1506 1090 L 1487 1073 L 1487 1073" stroke-miterlimit="10"/></g><g transform="translate(-878,-150) scale(1,1)"><path fill="#ffffff" stroke="none" d="M 1537 1136 L 1629 1136 Q 1639 1136 1639 1146 L 1639 1198 Q 1639 1208 1629 1208 L 1537 1208 Q 1527 1208 1527 1198 L 1527 1146 Q 1527 1136 1537 1136 Z"/></g><g transform="translate(-878,-150) scale(1,1)"><path fill="none" stroke="#000000" d="M 1537 1136 L 1629 1136 Q 1639 1136 1639 1146 L 1639 1198 Q 1639 1208 1629 1208 L 1537 1208 Q 1527 1208 1527 1198 L 1527 1146 Q 1527 1136 1537 1136 Z" stroke-miterlimit="10"/></g><g transform="translate(-878,-150) scale(1,1)"><g><path fill="none" stroke="none"/><text fill="#000000" stroke="none" font-family="Arial" font-size="15px" font-style="normal" font-weight="bold" text-decoration="none" x="1557.581298828125" y="1157.5">Mostrar</text><text fill="#000000" stroke="none" font-family="Arial" font-size="15px" font-style="normal" font-weight="bold" text-decoration="none" x="1550.06298828125" y="1172.5">gráfico de</text><text fill="#000000" stroke="none" font-family="Arial" font-size="15px" font-style="normal" font-weight="bold" text-decoration="none" x="1548.396728515625" y="1187.5">resultados</text></g></g><g transform="translate(-878,-150) scale(1,1)"><path fill="#C0C0C0" stroke="none" d="M 1288 1322 L 1414.5341796875 1322 Q 1424.5341796875 1322 1424.5341796875 1332 L 1424.5341796875 1354 Q 1424.5341796875 1364 1414.5341796875 1364 L 1288 1364 Q 1278 1364 1278 1354 L 1278 1332 Q 1278 1322 1288 1322 Z" opacity="0.2"/></g><g transform="translate(-878,-150) scale(1,1)"><path fill="#ffffff" stroke="none" d="M 1281 1315 L 1407.5341796875 1315 Q 1417.5341796875 1315 1417.5341796875 1325 L 1417.5341796875 1347 Q 1417.5341796875 1357 1407.5341796875 1357 L 1281 1357 Q 1271 1357 1271 1347 L 1271 1325 Q 1271 1315 1281 1315 Z"/></g><g transform="translate(-878,-150) scale(1,1)"><path fill="none" stroke="#000000" d="M 1281 1315 L 1407.5341796875 1315 Q 1417.5341796875 1315 1417.5341796875 1325 L 1417.5341796875 1347 Q 1417.5341796875 1357 1407.5341796875 1357 L 1281 1357 Q 1271 1357 1271 1347 L 1271 1325 Q 1271 1315 1281 1315 Z" stroke-miterlimit="10"/></g><g transform="translate(-878,-150) scale(1,1)"><g><path fill="none" stroke="none"/><text fill="#000000" stroke="none" font-family="Arial" font-size="15px" font-style="normal" font-weight="bold" text-decoration="none" x="1281.326416015625" y="1336.5">Mostrar soluciones</text></g></g><g transform="translate(-878,-150) scale(1,1)"><path fill="none" stroke="#000000" d="M 1506 1014 L 1506 1055" stroke-miterlimit="10"/></g><g transform="translate(-878,-150) scale(1,1)"><path fill="none" stroke="#000000" d="M 1501.7904822439841 1044.837325142376 L 1506 1055 L 1510.2095177560159 1044.837325142376" stroke-miterlimit="10"/></g><g transform="translate(-878,-150) scale(1,1)"><path fill="none" stroke="#000000" d="M 1520 1091 L 1554 1135" stroke-miterlimit="10"/></g><g transform="translate(-878,-150) scale(1,1)"><path fill="none" stroke="#000000" d="M 1544.4551295906308 1129.5323269237867 L 1554 1135 L 1551.1169861174897 1124.3845286984867" stroke-miterlimit="10"/></g><g transform="translate(-878,-150) scale(1,1)"><g><path fill="none" stroke="none"/><text fill="#000000" stroke="none" font-family="Arial" font-size="15px" font-style="normal" font-weight="normal" text-decoration="none" x="1536.567626953125" y="1115.5">Ver el gráfico</text></g></g><g transform="translate(-878,-150) scale(1,1)"><path fill="none" stroke="#000000" d="M 1495 1091 L 1358 1314" stroke-miterlimit="10"/></g><g transform="translate(-878,-150) scale(1,1)"><path fill="none" stroke="#000000" d="M 1359.7330042476683 1303.137371576015 L 1358 1314 L 1366.9064572754608 1307.544380835242" stroke-miterlimit="10"/></g><g transform="translate(-878,-150) scale(1,1)"><g><path fill="none" stroke="none"/><text fill="#000000" stroke="none" font-family="Arial" font-size="15px" font-style="normal" font-weight="normal" text-decoration="none" x="1356.989013671875" y="1168.5">No ver el</text><text fill="#000000" stroke="none" font-family="Arial" font-size="15px" font-style="normal" font-weight="normal" text-decoration="none" x="1364.489013671875" y="1183.5">gráfico</text></g></g><g transform="translate(-878,-150) scale(1,1)"><path fill="#C0C0C0" stroke="none" d="M 1681 1307 L 1765 1307 Q 1775 1307 1775 1317 L 1775 1369 Q 1775 1379 1765 1379 L 1681 1379 Q 1671 1379 1671 1369 L 1671 1317 Q 1671 1307 1681 1307 Z" opacity="0.2"/></g><g transform="translate(-878,-150) scale(1,1)"><path fill="#ffffff" stroke="none" d="M 1674 1300 L 1758 1300 Q 1768 1300 1768 1310 L 1768 1362 Q 1768 1372 1758 1372 L 1674 1372 Q 1664 1372 1664 1362 L 1664 1310 Q 1664 1300 1674 1300 Z"/></g><g transform="translate(-878,-150) scale(1,1)"><path fill="none" stroke="#000000" d="M 1674 1300 L 1758 1300 Q 1768 1300 1768 1310 L 1768 1362 Q 1768 1372 1758 1372 L 1674 1372 Q 1664 1372 1664 1362 L 1664 1310 Q 1664 1300 1674 1300 Z" stroke-miterlimit="10"/></g><g transform="translate(-878,-150) scale(1,1)"><g><path fill="none" stroke="none"/><text fill="#000000" stroke="none" font-family="Arial" font-size="15px" font-style="normal" font-weight="bold" text-decoration="none" x="1688.486572265625" y="1321.5">Guardar</text><text fill="#000000" stroke="none" font-family="Arial" font-size="15px" font-style="normal" font-weight="bold" text-decoration="none" x="1679.309326171875" y="1336.5">imagen del</text><text fill="#000000" stroke="none" font-family="Arial" font-size="15px" font-style="normal" font-weight="bold" text-decoration="none" x="1693.489013671875" y="1351.5">gráfico</text></g></g><g transform="translate(-878,-150) scale(1,1)"><path fill="#C0C0C0" stroke="none" d="M 1574 1271.5 L 1590.5 1255 L 1606 1271.5 L 1590.5 1287 L 1574 1271.5" opacity="0.2"/></g><g transform="translate(-878,-150) scale(1,1)"><path fill="#ffffff" stroke="none" d="M 1567 1264 L 1583 1248 L 1599 1264 L 1583 1280 L 1567 1264"/></g><g transform="translate(-878,-150) scale(1,1)"><path fill="none" stroke="#000000" d="M 1567 1264 L 1583 1248 L 1599 1264 L 1583 1280 L 1567 1264 L 1567 1264" stroke-miterlimit="10"/></g><g transform="translate(-878,-150) scale(1,1)"><path fill="none" stroke="#000000" d="M 1583 1209 L 1583 1247" stroke-miterlimit="10"/></g><g transform="translate(-878,-150) scale(1,1)"><path fill="none" stroke="#000000" d="M 1578.7904822439841 1236.837325142376 L 1583 1247 L 1587.2095177560159 1236.837325142376" stroke-miterlimit="10"/></g><g transform="translate(-878,-150) scale(1,1)"><path fill="none" stroke="#000000" d="M 1600 1273 L 1663 1307" stroke-miterlimit="10"/></g><g transform="translate(-878,-150) scale(1,1)"><path fill="none" stroke="#000000" d="M 1652.0573835743187 1305.8778833570389 L 1663 1307 L 1656.0558580089976 1298.4689454339573" stroke-miterlimit="10"/></g><g transform="translate(-878,-150) scale(1,1)"><g><path fill="none" stroke="none"/><text fill="#000000" stroke="none" font-family="Arial" font-size="15px" font-style="normal" font-weight="normal" text-decoration="none" x="1633.986572265625" y="1282.5">Guardar</text></g></g><g transform="translate(-878,-150) scale(1,1)"><path fill="none" stroke="#000000" d="M 1566 1269 L 1417 1314" stroke-miterlimit="10"/></g><g transform="translate(-878,-150) scale(1,1)"><path fill="none" stroke="#000000" d="M 1425.5116317263046 1307.0320644839549 L 1417 1314 L 1427.9457069668988 1315.0915580583664" stroke-miterlimit="10"/></g><g transform="translate(-878,-150) scale(1,1)"><g><path fill="none" stroke="none"/><text fill="#000000" stroke="none" font-family="Arial" font-size="15px" font-style="normal" font-weight="normal" text-decoration="none" x="1459.97802734375" y="1268.5">No guardar</text></g></g><g transform="translate(-878,-150) scale(1,1)"><path fill="#C0C0C0" stroke="none" d="M 1161 1489 L 1255.05126953125 1489 Q 1265.05126953125 1489 1265.05126953125 1499 L 1265.05126953125 1521 Q 1265.05126953125 1531 1255.05126953125 1531 L 1161 1531 Q 1151 1531 1151 1521 L 1151 1499 Q 1151 1489 1161 1489 Z" opacity="0.2"/></g><g transform="translate(-878,-150) scale(1,1)"><path fill="#ffffff" stroke="none" d="M 1154 1482 L 1248.05126953125 1482 Q 1258.05126953125 1482 1258.05126953125 1492 L 1258.05126953125 1514 Q 1258.05126953125 1524 1248.05126953125 1524 L 1154 1524 Q 1144 1524 1144 1514 L 1144 1492 Q 1144 1482 1154 1482 Z"/></g><g transform="translate(-878,-150) scale(1,1)"><path fill="none" stroke="#000000" d="M 1154 1482 L 1248.05126953125 1482 Q 1258.05126953125 1482 1258.05126953125 1492 L 1258.05126953125 1514 Q 1258.05126953125 1524 1248.05126953125 1524 L 1154 1524 Q 1144 1524 1144 1514 L 1144 1492 Q 1144 1482 1154 1482 Z" stroke-miterlimit="10"/></g><g transform="translate(-878,-150) scale(1,1)"><g><path fill="none" stroke="none"/><text fill="#000000" stroke="none" font-family="Arial" font-size="15px" font-style="normal" font-weight="bold" text-decoration="none" x="1152.25732421875" y="1503.5">Exportar Excel</text></g></g><g transform="translate(-878,-150) scale(1,1)"><path fill="#C0C0C0" stroke="none" d="M 1309 1489 L 1393.0244140625 1489 Q 1403.0244140625 1489 1403.0244140625 1499 L 1403.0244140625 1521 Q 1403.0244140625 1531 1393.0244140625 1531 L 1309 1531 Q 1299 1531 1299 1521 L 1299 1499 Q 1299 1489 1309 1489 Z" opacity="0.2"/></g><g transform="translate(-878,-150) scale(1,1)"><path fill="#ffffff" stroke="none" d="M 1302 1482 L 1386.0244140625 1482 Q 1396.0244140625 1482 1396.0244140625 1492 L 1396.0244140625 1514 Q 1396.0244140625 1524 1386.0244140625 1524 L 1302 1524 Q 1292 1524 1292 1514 L 1292 1492 Q 1292 1482 1302 1482 Z"/></g><g transform="translate(-878,-150) scale(1,1)"><path fill="none" stroke="#000000" d="M 1302 1482 L 1386.0244140625 1482 Q 1396.0244140625 1482 1396.0244140625 1492 L 1396.0244140625 1514 Q 1396.0244140625 1524 1386.0244140625 1524 L 1302 1524 Q 1292 1524 1292 1514 L 1292 1492 Q 1292 1482 1302 1482 Z" stroke-miterlimit="10"/></g><g transform="translate(-878,-150) scale(1,1)"><g><path fill="none" stroke="none"/><text fill="#000000" stroke="none" font-family="Arial" font-size="15px" font-style="normal" font-weight="bold" text-decoration="none" x="1298.99755859375" y="1503.5">Exportar TSV</text></g></g><g transform="translate(-878,-150) scale(1,1)"><path fill="#C0C0C0" stroke="none" d="M 1529 1585 L 1608.85693359375 1585 Q 1618.85693359375 1585 1618.85693359375 1595 L 1618.85693359375 1617 Q 1618.85693359375 1627 1608.85693359375 1627 L 1529 1627 Q 1519 1627 1519 1617 L 1519 1595 Q 1519 1585 1529 1585 Z" opacity="0.2"/></g><g transform="translate(-878,-150) scale(1,1)"><path fill="#ffffff" stroke="none" d="M 1522 1578 L 1601.85693359375 1578 Q 1611.85693359375 1578 1611.85693359375 1588 L 1611.85693359375 1610 Q 1611.85693359375 1620 1601.85693359375 1620 L 1522 1620 Q 1512 1620 1512 1610 L 1512 1588 Q 1512 1578 1522 1578 Z"/></g><g transform="translate(-878,-150) scale(1,1)"><path fill="none" stroke="#000000" d="M 1522 1578 L 1601.85693359375 1578 Q 1611.85693359375 1578 1611.85693359375 1588 L 1611.85693359375 1610 Q 1611.85693359375 1620 1601.85693359375 1620 L 1522 1620 Q 1512 1620 1512 1610 L 1512 1588 Q 1512 1578 1522 1578 Z" stroke-miterlimit="10"/></g><g transform="translate(-878,-150) scale(1,1)"><g><path fill="none" stroke="none"/><text fill="#000000" stroke="none" font-family="Arial" font-size="15px" font-style="normal" font-weight="bold" text-decoration="none" x="1518.99755859375" y="1599.5">Exportar INP</text></g></g><g transform="translate(-878,-150) scale(1,1)"><path fill="#C0C0C0" stroke="none" d="M 1331 1407.5 L 1351.5 1391 L 1371 1407.5 L 1351.5 1423 L 1331 1407.5" opacity="0.2"/></g><g transform="translate(-878,-150) scale(1,1)"><path fill="#ffffff" stroke="none" d="M 1324 1400 L 1344 1384 L 1364 1400 L 1344 1416 L 1324 1400"/></g><g transform="translate(-878,-150) scale(1,1)"><path fill="none" stroke="#000000" d="M 1324 1400 L 1344 1384 L 1364 1400 L 1344 1416 L 1324 1400 L 1324 1400" stroke-miterlimit="10"/></g><g transform="translate(-878,-150) scale(1,1)"><path fill="#C0C0C0" stroke="none" d="M 1219 531.5 L 1243.5 511 L 1267 531.5 L 1243.5 551 L 1219 531.5" opacity="0.2"/></g><g transform="translate(-878,-150) scale(1,1)"><path fill="#ffffff" stroke="none" d="M 1212 524 L 1236 504 L 1260 524 L 1236 544 L 1212 524"/></g><g transform="translate(-878,-150) scale(1,1)"><path fill="none" stroke="#000000" d="M 1212 524 L 1236 504 L 1260 524 L 1236 544 L 1212 524 L 1212 524" stroke-miterlimit="10"/></g><g transform="translate(-878,-150) scale(1,1)"><path fill="none" stroke="#000000" d="M 1236 475 L 1236 503" stroke-miterlimit="10"/></g><g transform="translate(-878,-150) scale(1,1)"><path fill="none" stroke="#000000" d="M 1231.7904822439841 492.83732514237585 L 1236 503 L 1240.2095177560159 492.83732514237585" stroke-miterlimit="10"/></g><g transform="translate(-878,-150) scale(1,1)"><path fill="none" stroke="#000000" d="M 1240 544 L 1240 576 L 1064 576 L 1064 611" stroke-miterlimit="10"/></g><g transform="translate(-878,-150) scale(1,1)"><path fill="none" stroke="#000000" d="M 1059.7904822439841 600.8373251423759 L 1064 611 L 1068.2095177560159 600.8373251423759" stroke-miterlimit="10"/></g><g transform="translate(-878,-150) scale(1,1)"><path fill="none" stroke="#000000" d="M 1240 544 L 1240 619" stroke-miterlimit="10"/></g><g transform="translate(-878,-150) scale(1,1)"><path fill="none" stroke="#000000" d="M 1235.7904822439841 608.8373251423759 L 1240 619 L 1244.2095177560159 608.8373251423759" stroke-miterlimit="10"/></g><g transform="translate(-878,-150) scale(1,1)"><path fill="none" stroke="#000000" d="M 1240 544 L 1240 576 L 1408 576 L 1408 611" stroke-miterlimit="10"/></g><g transform="translate(-878,-150) scale(1,1)"><path fill="none" stroke="#000000" d="M 1403.7904822439841 600.8373251423759 L 1408 611 L 1412.2095177560159 600.8373251423759" stroke-miterlimit="10"/></g><g transform="translate(-878,-150) scale(1,1)"><path fill="none" stroke="#000000" d="M 1240 544 L 1240 576 L 1650 576 L 1650 611" stroke-miterlimit="10"/></g><g transform="translate(-878,-150) scale(1,1)"><path fill="none" stroke="#000000" d="M 1645.7904822439841 600.8373251423759 L 1650 611 L 1654.2095177560159 600.8373251423759" stroke-miterlimit="10"/></g><g transform="translate(-878,-150) scale(1,1)"><path fill="none" stroke="#000000" d="M 1344 1358 L 1344 1383" stroke-miterlimit="10"/></g><g transform="translate(-878,-150) scale(1,1)"><path fill="none" stroke="#000000" d="M 1339.7904822439841 1372.837325142376 L 1344 1383 L 1348.2095177560159 1372.837325142376" stroke-miterlimit="10"/></g><g transform="translate(-878,-150) scale(1,1)"><path fill="none" stroke="#000000" d="M 1323 1415 L 1232 1481" stroke-miterlimit="10"/></g><g transform="translate(-878,-150) scale(1,1)"><path fill="none" stroke="#000000" d="M 1237.7552695360318 1471.6257334917539 L 1232 1481 L 1242.6981975331153 1478.4409826998537" stroke-miterlimit="10"/></g><g transform="translate(-878,-150) scale(1,1)"><path fill="none" stroke="#000000" d="M 1344 1417 L 1344 1481" stroke-miterlimit="10"/></g><g transform="translate(-878,-150) scale(1,1)"><path fill="none" stroke="#000000" d="M 1339.7904822439841 1470.837325142376 L 1344 1481 L 1348.2095177560159 1470.837325142376" stroke-miterlimit="10"/></g><g transform="translate(-878,-150) scale(1,1)"><path fill="none" stroke="#000000" d="M 1365 1410 L 1544 1495" stroke-miterlimit="10"/></g><g transform="translate(-878,-150) scale(1,1)"><path fill="none" stroke="#000000" d="M 1533.0140986191175 1494.4432497422338 L 1544 1495 L 1536.6254765188253 1486.8381127534374" stroke-miterlimit="10"/></g><g transform="translate(-878,-150) scale(1,1)"><path fill="none" stroke="#000000" d="M 1663 1336 L 1419 1336" stroke-miterlimit="10"/></g><g transform="translate(-878,-150) scale(1,1)"><path fill="none" stroke="#000000" d="M 1429.162674857624 1331.7904822439841 L 1419 1336 L 1429.162674857624 1340.2095177560159" stroke-miterlimit="10"/></g><g transform="translate(-878,-150) scale(1,1)"><path fill="none" stroke="#000000" d="M 999 754 L 960 754 L 960 520 L 1212 520" stroke-miterlimit="10"/></g><g transform="translate(-878,-150) scale(1,1)"><path fill="none" stroke="#000000" d="M 1201.837325142376 524.209517756016 L 1212 520 L 1201.837325142376 515.790482243984" stroke-miterlimit="10"/></g><g transform="translate(-878,-150) scale(1,1)"><path fill="none" stroke="#000000" d="M 1256 807 L 1256 816 L 936 816 L 936 520 L 1212 520" stroke-miterlimit="10"/></g><g transform="translate(-878,-150) scale(1,1)"><path fill="none" stroke="#000000" d="M 1201.837325142376 524.209517756016 L 1212 520 L 1201.837325142376 515.790482243984" stroke-miterlimit="10"/></g><g transform="translate(-878,-150) scale(1,1)"><path fill="none" stroke="#000000" d="M 1798 885 L 1904 885 L 1904 520 L 1260 520" stroke-miterlimit="10"/></g><g transform="translate(-878,-150) scale(1,1)"><path fill="none" stroke="#000000" d="M 1270.162674857624 515.790482243984 L 1260 520 L 1270.162674857624 524.209517756016" stroke-miterlimit="10"/></g><g transform="translate(-878,-150) scale(1,1)"><g><path fill="none" stroke="none"/><text fill="#000000" stroke="none" font-family="Arial" font-size="15px" font-style="normal" font-weight="normal" text-decoration="none" x="1825.896728515625" y="902.5">Experimento</text><text fill="#000000" stroke="none" font-family="Arial" font-size="15px" font-style="normal" font-weight="normal" text-decoration="none" x="1859.65771484375" y="917.5">no</text><text fill="#000000" stroke="none" font-family="Arial" font-size="15px" font-style="normal" font-weight="normal" text-decoration="none" x="1828.804443359375" y="932.5">configurado</text></g></g><g transform="translate(-878,-150) scale(1,1)"><path fill="#C0C0C0" stroke="none" d="M 1759 888.5 L 1782.5 867 L 1805 888.5 L 1782.5 909 L 1759 888.5" opacity="0.2"/></g><g transform="translate(-878,-150) scale(1,1)"><path fill="#ffffff" stroke="none" d="M 1752 881 L 1775 860 L 1798 881 L 1775 902 L 1752 881"/></g><g transform="translate(-878,-150) scale(1,1)"><path fill="none" stroke="#000000" d="M 1752 881 L 1775 860 L 1798 881 L 1775 902 L 1752 881 L 1752 881" stroke-miterlimit="10"/></g><g transform="translate(-878,-150) scale(1,1)"><path fill="none" stroke="#000000" d="M 1776 834 L 1775 859" stroke-miterlimit="10"/></g><g transform="translate(-878,-150) scale(1,1)"><path fill="none" stroke="#000000" d="M 1771.200028000869 848.6771993719814 L 1775 859 L 1779.612336356004 849.0136917061868" stroke-miterlimit="10"/></g><g transform="translate(-878,-150) scale(1,1)"><path fill="none" stroke="#000000" d="M 1753 903 L 1700 957" stroke-miterlimit="10"/></g><g transform="translate(-878,-150) scale(1,1)"><path fill="none" stroke="#000000" d="M 1704.114359808182 946.7984293675524 L 1700 957 L 1710.122891493564 952.6956919476497" stroke-miterlimit="10"/></g><g transform="translate(-878,-150) scale(1,1)"><g><path fill="none" stroke="none"/><text fill="#000000" stroke="none" font-family="Arial" font-size="15px" font-style="normal" font-weight="normal" text-decoration="none" x="1645.396728515625" y="916.5">Experimento</text><text fill="#000000" stroke="none" font-family="Arial" font-size="15px" font-style="normal" font-weight="normal" text-decoration="none" x="1648.304443359375" y="931.5">configurado</text></g></g><g transform="translate(-878,-150) scale(1,1)"><path fill="#C0C0C0" stroke="none" d="M 1767 635.5 C 1767 628.59644 1772.59644 623 1779.5 623 C 1786.40356 623 1792 628.59644 1792 635.5 C 1792 642.40356 1786.40356 648 1779.5 648 C 1772.59644 648 1767 642.40356 1767 635.5 Z" opacity="0.2"/></g><g transform="translate(-878,-150) scale(1,1)"><path fill="none" stroke="#000000" d="M 1760 628.5 C 1760 621.59644 1765.59644 616 1772.5 616 C 1779.40356 616 1785 621.59644 1785 628.5 C 1785 635.40356 1779.40356 641 1772.5 641 C 1765.59644 641 1760 635.40356 1760 628.5 Z" stroke-miterlimit="10"/></g><g transform="translate(-878,-150) scale(1,1)"><path fill="#000000" stroke="none" d="M 1765 628.5 C 1765 624.357864 1768.357864 621 1772.5 621 C 1776.642136 621 1780 624.357864 1780 628.5 C 1780 632.642136 1776.642136 636 1772.5 636 C 1768.357864 636 1765 632.642136 1765 628.5 Z"/></g><g transform="translate(-878,-150) scale(1,1)"><path fill="none" stroke="#000000" d="M 1240 544 L 1240 576 L 1772 576 L 1772 616" stroke-miterlimit="10"/></g><g transform="translate(-878,-150) scale(1,1)"><path fill="none" stroke="#000000" d="M 1767.7904822439841 605.8373251423759 L 1772 616 L 1776.2095177560159 605.8373251423759" stroke-miterlimit="10"/></g><g transform="translate(-878,-150) scale(1,1)"><path fill="none" stroke="#000000" d="M 1324 1404 L 888 1404 L 888 520 L 1212 520" stroke-miterlimit="10"/></g><g transform="translate(-878,-150) scale(1,1)"><path fill="none" stroke="#000000" d="M 1201.837325142376 524.209517756016 L 1212 520 L 1201.837325142376 515.790482243984" stroke-miterlimit="10"/></g><g transform="translate(-878,-150) scale(1,1)"><path fill="#C0C0C0" stroke="none" d="M 1323 1606.5 L 1351.5 1582 L 1379 1606.5 L 1351.5 1630 L 1323 1606.5" opacity="0.2"/></g><g transform="translate(-878,-150) scale(1,1)"><path fill="#ffffff" stroke="none" d="M 1316 1599 L 1344 1575 L 1372 1599 L 1344 1623 L 1316 1599"/></g><g transform="translate(-878,-150) scale(1,1)"><path fill="none" stroke="#000000" d="M 1316 1599 L 1344 1575 L 1372 1599 L 1344 1623 L 1316 1599 L 1316 1599" stroke-miterlimit="10"/></g><g transform="translate(-878,-150) scale(1,1)"><path fill="none" stroke="#000000" d="M 1234 1525 L 1315 1580" stroke-miterlimit="10"/></g><g transform="translate(-878,-150) scale(1,1)"><path fill="none" stroke="#000000" d="M 1304.227654070425 1577.7736659788866 L 1315 1580 L 1308.9570570274257 1570.8085452603946" stroke-miterlimit="10"/></g><g transform="translate(-878,-150) scale(1,1)"><path fill="none" stroke="#000000" d="M 1344 1525 L 1344 1574" stroke-miterlimit="10"/></g><g transform="translate(-878,-150) scale(1,1)"><path fill="none" stroke="#000000" d="M 1339.7904822439841 1563.837325142376 L 1344 1574 L 1348.2095177560159 1563.837325142376" stroke-miterlimit="10"/></g><g transform="translate(-878,-150) scale(1,1)"><path fill="none" stroke="#000000" d="M 1511 1599 L 1373 1599" stroke-miterlimit="10"/></g><g transform="translate(-878,-150) scale(1,1)"><path fill="none" stroke="#000000" d="M 1383.162674857624 1594.7904822439841 L 1373 1599 L 1383.162674857624 1603.2095177560159" stroke-miterlimit="10"/></g><g transform="translate(-878,-150) scale(1,1)"><path fill="none" stroke="#000000" d="M 1316 1599 L 912 1599 L 912 520 L 1212 520" stroke-miterlimit="10"/></g><g transform="translate(-878,-150) scale(1,1)"><path fill="none" stroke="#000000" d="M 1201.837325142376 524.209517756016 L 1212 520 L 1201.837325142376 515.790482243984" stroke-miterlimit="10"/></g><g transform="translate(-878,-150) scale(1,1)"><path fill="#C0C0C0" stroke="none" d="M 1552 1510.5 L 1568.5 1494 L 1584 1510.5 L 1568.5 1526 L 1552 1510.5" opacity="0.2"/></g><g transform="translate(-878,-150) scale(1,1)"><path fill="#ffffff" stroke="none" d="M 1545 1503 L 1561 1487 L 1577 1503 L 1561 1519 L 1545 1503"/></g><g transform="translate(-878,-150) scale(1,1)"><path fill="none" stroke="#000000" d="M 1545 1503 L 1561 1487 L 1577 1503 L 1561 1519 L 1545 1503 L 1545 1503" stroke-miterlimit="10"/></g><g transform="translate(-878,-150) scale(1,1)"><path fill="none" stroke="#000000" d="M 1561 1520 L 1561 1577" stroke-miterlimit="10"/></g><g transform="translate(-878,-150) scale(1,1)"><path fill="none" stroke="#000000" d="M 1556.7904822439841 1566.837325142376 L 1561 1577 L 1565.2095177560159 1566.837325142376" stroke-miterlimit="10"/></g><g transform="translate(-878,-150) scale(1,1)"><g><path fill="none" stroke="none"/><text fill="#000000" stroke="none" font-family="Arial" font-size="15px" font-style="normal" font-weight="normal" text-decoration="none" x="1598.4130859375" y="1551.5">Solución</text><text fill="#000000" stroke="none" font-family="Arial" font-size="15px" font-style="normal" font-weight="normal" text-decoration="none" x="1583.402099609375" y="1566.5">seleccionada</text></g></g><g transform="translate(-878,-150) scale(1,1)"><path fill="none" stroke="#000000" d="M 1544 1511 L 1373 1586" stroke-miterlimit="10"/></g><g transform="translate(-878,-150) scale(1,1)"><path fill="none" stroke="#000000" d="M 1380.6160566089504 1578.0630180969551 L 1373 1586 L 1383.9976589998873 1585.7730715482915" stroke-miterlimit="10"/></g><g transform="translate(-878,-150) scale(1,1)"><g><path fill="none" stroke="none"/><text fill="#000000" stroke="none" font-family="Arial" font-size="15px" font-style="normal" font-weight="normal" text-decoration="none" x="1422.0849609375" y="1520.5">Solución no</text><text fill="#000000" stroke="none" font-family="Arial" font-size="15px" font-style="normal" font-weight="normal" text-decoration="none" x="1417.5" y="1535.5">seleccionada</text></g></g><g transform="translate(-878,-150) scale(1,1)"><path fill="#C0C0C0" stroke="none" d="M 1617 965 L 1746.1689453125 965 Q 1756.1689453125 965 1756.1689453125 975 L 1756.1689453125 1008 Q 1756.1689453125 1018 1746.1689453125 1018 L 1617 1018 Q 1607 1018 1607 1008 L 1607 975 Q 1607 965 1617 965 Z" opacity="0.2"/></g><g transform="translate(-878,-150) scale(1,1)"><path fill="#ffff91" stroke="none" d="M 1610 958 L 1739.1689453125 958 Q 1749.1689453125 958 1749.1689453125 968 L 1749.1689453125 1001 Q 1749.1689453125 1011 1739.1689453125 1011 L 1610 1011 Q 1600 1011 1600 1001 L 1600 968 Q 1600 958 1610 958 Z"/></g><g transform="translate(-878,-150) scale(1,1)"><path fill="none" stroke="#000000" d="M 1610 958 L 1739.1689453125 958 Q 1749.1689453125 958 1749.1689453125 968 L 1749.1689453125 1001 Q 1749.1689453125 1011 1739.1689453125 1011 L 1610 1011 Q 1600 1011 1600 1001 L 1600 968 Q 1600 958 1610 958 Z" stroke-miterlimit="10"/></g><g transform="translate(-878,-150) scale(1,1)"><g><path fill="none" stroke="none"/><text fill="#000000" stroke="none" font-family="Arial" font-size="13px" font-style="normal" font-weight="bold" text-decoration="none" x="1638.088623046875" y="977.5">Inyección de</text><text fill="#000000" stroke="none" font-family="Arial" font-size="13px" font-style="normal" font-weight="bold" text-decoration="none" x="1634.10546875" y="990.5">dependencias</text></g></g><g transform="translate(-878,-150) scale(1,1)"><path fill="none" stroke="#000000" d="M 1599 984 L 1559 984" stroke-miterlimit="10"/></g><g transform="translate(-878,-150) scale(1,1)"><path fill="none" stroke="#000000" d="M 1569.162674857624 979.790482243984 L 1559 984 L 1569.162674857624 988.209517756016" stroke-miterlimit="10"/></g></g></svg>