<?xml version="1.0" encoding="utf-8"?>
<!-- Generator: Adobe Illustrator 24.0.1, SVG Export Plug-In . SVG Version: 6.00 Build 0)  -->
<svg version="1.1" id="Capa_1" xmlns="http://www.w3.org/2000/svg" xmlns:xlink="http://www.w3.org/1999/xlink" x="0px" y="0px"
	 viewBox="0 0 567.6 317" style="enable-background:new 0 0 567.6 317;" xml:space="preserve">
<style type="text/css">
	.st0{opacity:0.2;fill:#C0C0C0;enable-background:new    ;}
	.st1{fill:#FFFFFF;}
	.st2{fill:none;stroke:#000000;stroke-miterlimit:10;}
	.st3{font-family:'Arial-BoldMT';}
	.st4{font-size:13px;}
	.st5{font-family:'ArialMT';}
	.st6{fill:none;stroke:#000000;stroke-miterlimit:10;stroke-dasharray:3;}
	.st7{font-family:'Arial-BoldItalicMT';}
</style>
<g transform="translate(-694,-158) scale(1,1)">
	<rect x="848.5" y="189.5" class="st0" width="275" height="72"/>
</g>
<g transform="translate(-694,-158) scale(1,1)">
	<rect x="1086.7" y="171.5" class="st0" width="45.8" height="22"/>
</g>
<g transform="translate(-694,-158) scale(1,1)">
	<rect x="841.5" y="182.5" class="st1" width="275" height="72"/>
</g>
<g transform="translate(-694,-158) scale(1,1)">
	<path class="st2" d="M841.5,182.5h275v72h-275V182.5z"/>
</g>
<g transform="translate(-694,-158) scale(1,1)">
	<path class="st2" d="M841.5,207.5h275"/>
</g>
<g transform="translate(-694,-158) scale(1,1)">
	<path class="st2" d="M841.5,217.5h275"/>
</g>
<text transform="matrix(1 0 0 1 252.1431 44)" class="st3 st4">Registrable</text>
<text transform="matrix(1 0 0 1 152.5 77)" class="st5 st4">+build(pathToINP: String): Result</text>
<text transform="matrix(1 0 0 1 152.5 92)" class="st5 st4">+getParameters(): Map&lt;String; String&gt;</text>
<g transform="translate(-694,-158) scale(1,1)">
	<rect x="1079.7" y="164.5" class="st1" width="45.8" height="22"/>
</g>
<g transform="translate(-694,-158) scale(1,1)">
	<path class="st6" d="M1079.7,164.5h45.8v22h-45.8V164.5z"/>
</g>
<text transform="matrix(1 0 0 1 390.6934 24)" class="st5 st4">Result</text>
<g transform="translate(-694,-158) scale(1,1)">
	<rect x="712.5" y="411.5" class="st0" width="227.6" height="57"/>
</g>
<g transform="translate(-694,-158) scale(1,1)">
	<rect x="705.5" y="404.5" class="st1" width="227.6" height="57"/>
</g>
<g transform="translate(-694,-158) scale(1,1)">
	<path class="st2" d="M705.5,404.5h227.6v57H705.5V404.5z"/>
</g>
<g transform="translate(-694,-158) scale(1,1)">
	<path class="st2" d="M705.5,429.5h227.6"/>
</g>
<g transform="translate(-694,-158) scale(1,1)">
	<path class="st2" d="M705.5,439.5h227.6"/>
</g>
<text transform="matrix(1 0 0 1 47.2463 266)" class="st7 st4">SingleObjectiveRegistrable</text>
<text transform="matrix(1 0 0 1 16.5 299)" class="st5 st4">+build(pathToINP: String): Experiment</text>
<g transform="translate(-694,-158) scale(1,1)">
	<path class="st2" d="M839.5,403.5l110-148"/>
</g>
<g transform="translate(-694,-158) scale(1,1)">
	<path class="st1" d="M944.1,276.8l5.4-21.3l-18.9,11.3"/>
</g>
<g transform="translate(-694,-158) scale(1,1)">
	<path class="st2" d="M944.1,276.8l5.4-21.3l-18.9,11.3L944.1,276.8"/>
</g>
<g transform="translate(-694,-158) scale(1,1)">
	<rect x="1032.5" y="411.5" class="st0" width="222.6" height="57"/>
</g>
<g transform="translate(-694,-158) scale(1,1)">
	<rect x="1025.5" y="404.5" class="st1" width="222.6" height="57"/>
</g>
<g transform="translate(-694,-158) scale(1,1)">
	<path class="st2" d="M1025.5,404.5h222.6v57h-222.6V404.5z"/>
</g>
<g transform="translate(-694,-158) scale(1,1)">
	<path class="st2" d="M1025.5,429.5h222.6"/>
</g>
<g transform="translate(-694,-158) scale(1,1)">
	<path class="st2" d="M1025.5,439.5h222.6"/>
</g>
<text transform="matrix(1 0 0 1 371.5913 266)" class="st7 st4">MultiObjectiveRegistrable</text>
<text transform="matrix(1 0 0 1 336.5 299)" class="st5 st4">+build(pathToINP: String): Experiment</text>
<g transform="translate(-694,-158) scale(1,1)">
	<path class="st2" d="M1118.5,403.5l-103-148"/>
</g>
<g transform="translate(-694,-158) scale(1,1)">
	<path class="st1" d="M1034,267.4l-18.5-11.9l4.7,21.5"/>
</g>
<g transform="translate(-694,-158) scale(1,1)">
	<path class="st2" d="M1034,267.4l-18.5-11.9l4.7,21.5L1034,267.4"/>
</g>
</svg>
