<?xml version="1.0" encoding="utf-8"?>
<!-- Generator: Adobe Illustrator 24.0.1, SVG Export Plug-In . SVG Version: 6.00 Build 0)  -->
<svg version="1.1" id="Capa_1" xmlns="http://www.w3.org/2000/svg" xmlns:xlink="http://www.w3.org/1999/xlink" x="0px" y="0px"
	 viewBox="0 0 1162.4 948" style="enable-background:new 0 0 1162.4 948;" xml:space="preserve">
<style type="text/css">
	.st0{opacity:0.2;fill:#C0C0C0;enable-background:new    ;}
	.st1{fill:#FFFFFF;}
	.st2{fill:none;stroke:#000000;stroke-miterlimit:10;}
	.st3{font-family:'Arial-BoldMT';}
	.st4{font-size:13px;}
	.st5{font-family:'ArialMT';}
	.st6{fill:none;stroke:#000000;stroke-miterlimit:10;stroke-dasharray:3;}
</style>
<g transform="translate(-320,-38) scale(1,1)">
	<rect x="584.6" y="534.5" class="st0" width="266.4" height="132"/>
</g>
<g transform="translate(-320,-38) scale(1,1)">
	<rect x="814.2" y="516.5" class="st0" width="45.8" height="22"/>
</g>
<g transform="translate(-320,-38) scale(1,1)">
	<rect x="577.6" y="527.5" class="st1" width="266.4" height="132"/>
</g>
<g transform="translate(-320,-38) scale(1,1)">
	<path class="st2" d="M577.6,527.5H844v132H577.6V527.5z"/>
</g>
<g transform="translate(-320,-38) scale(1,1)">
	<path class="st2" d="M577.6,552.5H844"/>
</g>
<g transform="translate(-320,-38) scale(1,1)">
	<path class="st2" d="M577.6,562.5H844"/>
</g>
<text transform="matrix(1 0 0 1 363.3615 508.95)" class="st3 st4">Algorithm</text>
<text transform="matrix(1 0 0 1 262.6076 541.95)" class="st5 st4">+runSingleStep()</text>
<text transform="matrix(1 0 0 1 262.6076 556.95)" class="st5 st4">+isStoppingConditionReached(): boolean</text>
<text transform="matrix(1 0 0 1 262.6076 571.95)" class="st5 st4">+getStatusOfExecution(): String</text>
<text transform="matrix(1 0 0 1 262.6076 586.95)" class="st5 st4">+getResult(): List&lt;Result&gt;</text>
<text transform="matrix(1 0 0 1 262.6076 601.95)" class="st5 st4">+getName(): String</text>
<g transform="translate(-320,-38) scale(1,1)">
	<rect x="807.2" y="509.5" class="st1" width="45.8" height="22"/>
</g>
<g transform="translate(-320,-38) scale(1,1)">
	<path class="st6" d="M807.2,509.5H853v22h-45.8V509.5z"/>
</g>
<text transform="matrix(1 0 0 1 492.1745 488.95)" class="st5 st4">Result</text>
<g transform="translate(-320,-38) scale(1,1)">
	<rect x="336.6" y="694.5" class="st0" width="286" height="222"/>
</g>
<g transform="translate(-320,-38) scale(1,1)">
	<rect x="594.4" y="676.5" class="st0" width="37.2" height="22"/>
</g>
<g transform="translate(-320,-38) scale(1,1)">
	<rect x="329.6" y="687.5" class="st1" width="286" height="222"/>
</g>
<g transform="translate(-320,-38) scale(1,1)">
	<path class="st2" d="M329.6,687.5h286v222h-286V687.5z"/>
</g>
<g transform="translate(-320,-38) scale(1,1)">
	<path class="st2" d="M329.6,712.5h286"/>
</g>
<g transform="translate(-320,-38) scale(1,1)">
	<path class="st2" d="M329.6,722.5h286"/>
</g>
<text transform="matrix(1 0 0 1 129.1181 668.95)" class="st3 st4">Solution</text>
<text transform="matrix(1 0 0 1 14.6076 701.95)" class="st5 st4">+getVariable(index: int): Type</text>
<text transform="matrix(1 0 0 1 14.6076 716.95)" class="st5 st4">+getVariableAsString(index: int): String</text>
<text transform="matrix(1 0 0 1 14.6076 731.95)" class="st5 st4">+setVariable(index: int, value: Type)</text>
<text transform="matrix(1 0 0 1 14.6076 746.95)" class="st5 st4">+getVariables(): List&lt;Type&gt;</text>
<text transform="matrix(1 0 0 1 14.6076 761.95)" class="st5 st4">+getObjetive(index: int): double</text>
<text transform="matrix(1 0 0 1 14.6076 776.95)" class="st5 st4">+setObjetive(index: int, value: double)</text>
<text transform="matrix(1 0 0 1 14.6076 791.95)" class="st5 st4">+getObjetives(): double[*]</text>
<text transform="matrix(1 0 0 1 14.6076 806.95)" class="st5 st4">+getAttribute(id: Object): Object</text>
<text transform="matrix(1 0 0 1 14.6076 821.95)" class="st5 st4">+setAttribute(id: Object, value: Object)</text>
<text transform="matrix(1 0 0 1 14.6076 836.95)" class="st5 st4">+getAttributes(): Map</text>
<text transform="matrix(1 0 0 1 14.6076 851.95)" class="st5 st4">+getNumberOfVariables()</text>
<text transform="matrix(1 0 0 1 14.6076 866.95)" class="st5 st4">+copy(): Solution&lt;Result&gt;</text>
<g transform="translate(-320,-38) scale(1,1)">
	<rect x="587.4" y="669.5" class="st1" width="37.2" height="22"/>
</g>
<g transform="translate(-320,-38) scale(1,1)">
	<path class="st6" d="M587.4,669.5h37.2v22h-37.2V669.5z"/>
</g>
<text transform="matrix(1 0 0 1 272.424 648.95)" class="st5 st4">Type</text>
<g transform="translate(-320,-38) scale(1,1)">
	<rect x="894.6" y="654.5" class="st0" width="418.8" height="192"/>
</g>
<g transform="translate(-320,-38) scale(1,1)">
	<rect x="1266.5" y="636.5" class="st0" width="56" height="22"/>
</g>
<g transform="translate(-320,-38) scale(1,1)">
	<rect x="887.6" y="647.5" class="st1" width="418.8" height="192"/>
</g>
<g transform="translate(-320,-38) scale(1,1)">
	<path class="st2" d="M887.6,647.5h418.8v192H887.6V647.5z"/>
</g>
<g transform="translate(-320,-38) scale(1,1)">
	<path class="st2" d="M887.6,672.5h418.8"/>
</g>
<g transform="translate(-320,-38) scale(1,1)">
	<path class="st2" d="M887.6,682.5h418.8"/>
</g>
<text transform="matrix(1 0 0 1 752.8151 628.95)" class="st3 st4">Problem</text>
<text transform="matrix(1 0 0 1 572.6076 661.95)" class="st5 st4">+getNumberOfVariables(): int</text>
<text transform="matrix(1 0 0 1 572.6076 676.95)" class="st5 st4">+getNumberOfObjetives(): int</text>
<text transform="matrix(1 0 0 1 572.6076 691.95)" class="st5 st4">+getNumberOfConstrains(): int</text>
<text transform="matrix(1 0 0 1 572.6076 706.95)" class="st5 st4">+evaluate(solution: Solution)</text>
<text transform="matrix(1 0 0 1 572.6076 721.95)" class="st5 st4">+createSolution(): Solution</text>
<text transform="matrix(1 0 0 1 572.6076 736.95)" class="st5 st4">+getLowerBound(index: int): double</text>
<text transform="matrix(1 0 0 1 572.6076 751.95)" class="st5 st4">+getUpperBound(index: int): double</text>
<text transform="matrix(1 0 0 1 572.6076 766.95)" class="st5 st4">+applySolutionToNetwork(net: Network, solution: Solution): Network</text>
<text transform="matrix(1 0 0 1 572.6076 781.95)" class="st5 st4">+getName(): String</text>
<text transform="matrix(1 0 0 1 572.6076 796.95)" class="st5 st4">+closeResources()</text>
<g transform="translate(-320,-38) scale(1,1)">
	<rect x="1259.5" y="629.5" class="st1" width="56" height="22"/>
</g>
<g transform="translate(-320,-38) scale(1,1)">
	<path class="st6" d="M1259.5,629.5h56v22h-56V629.5z"/>
</g>
<text transform="matrix(1 0 0 1 944.4509 608.95)" class="st5 st4">Solution</text>
<g transform="translate(-320,-38) scale(1,1)">
	<rect x="632.6" y="923.5" class="st0" width="163.8" height="57"/>
</g>
<g transform="translate(-320,-38) scale(1,1)">
	<rect x="759.5" y="890.5" class="st0" width="45.8" height="37"/>
</g>
<g transform="translate(-320,-38) scale(1,1)">
	<rect x="625.6" y="916.5" class="st1" width="163.8" height="57"/>
</g>
<g transform="translate(-320,-38) scale(1,1)">
	<path class="st2" d="M625.6,916.5h163.8v57H625.6V916.5z"/>
</g>
<g transform="translate(-320,-38) scale(1,1)">
	<path class="st2" d="M625.6,941.5h163.8"/>
</g>
<g transform="translate(-320,-38) scale(1,1)">
	<path class="st2" d="M625.6,951.5h163.8"/>
</g>
<text transform="matrix(1 0 0 1 361.8403 897.95)" class="st3 st4">Operator</text>
<text transform="matrix(1 0 0 1 310.6076 930.95)" class="st5 st4">+execute(Input): Result</text>
<g transform="translate(-320,-38) scale(1,1)">
	<rect x="752.5" y="883.5" class="st1" width="45.8" height="37"/>
</g>
<g transform="translate(-320,-38) scale(1,1)">
	<path class="st6" d="M752.5,883.5h45.8v37h-45.8V883.5z"/>
</g>
<text transform="matrix(1 0 0 1 437.5266 862.95)" class="st5 st4">Input</text>
<text transform="matrix(1 0 0 1 437.5266 877.95)" class="st5 st4">Result</text>
<g transform="translate(-320,-38) scale(1,1)">
	<path class="st2" d="M714.6,660.5l-2,222"/>
</g>
<g transform="translate(-320,-38) scale(1,1)">
	<path class="st2" d="M708.5,872.2l4.1,10.2l4.3-10.1"/>
</g>
<text transform="matrix(1 0 0 1 389.1076 739.95)" class="st5 st4">+Uses</text>
<text transform="matrix(1 0 0 1 377.0781 828.95)" class="st5 st4">*</text>
<g transform="translate(-320,-38) scale(1,1)">
	<path class="st2" d="M625.6,936.5h-177v-27"/>
</g>
<g transform="translate(-320,-38) scale(1,1)">
	<path class="st2" d="M452.8,919.6l-4.2-10.2l-4.2,10.2"/>
</g>
<text transform="matrix(1 0 0 1 153.1076 912.95)" class="st5 st4">+Manipulates</text>
<g transform="translate(-320,-38) scale(1,1)">
	<path class="st2" d="M577.6,571.5h-129v98"/>
</g>
<g transform="translate(-320,-38) scale(1,1)">
	<path class="st2" d="M444.4,659.3l4.2,10.2l4.2-10.2"/>
</g>
<text transform="matrix(1 0 0 1 165.1076 521.95)" class="st5 st4">+Manages</text>
<text transform="matrix(1 0 0 1 113.0781 615.95)" class="st5 st4">*</text>
<g transform="translate(-320,-38) scale(1,1)">
	<path class="st2" d="M853.6,571.5h210v58"/>
</g>
<g transform="translate(-320,-38) scale(1,1)">
	<path class="st2" d="M1059.4,619.3l4.2,10.2l4.2-10.2"/>
</g>
<text transform="matrix(1 0 0 1 621.1076 499.95)" class="st5 st4">+Solves</text>
<g transform="translate(-320,-38) scale(1,1)">
	<path class="st2" d="M1159.6,629.5v-128"/>
</g>
<g transform="translate(-320,-38) scale(1,1)">
	<path d="M1163.8,511.6l-4.2-10.2l-4.2,10.2l4.2,11.8"/>
</g>
<g transform="translate(-320,-38) scale(1,1)">
	<path class="st2" d="M1163.8,511.6l-4.2-10.2l-4.2,10.2l4.2,11.8L1163.8,511.6"/>
</g>
<text transform="matrix(1 0 0 1 817.1076 571.95)" class="st5 st4">+1</text>
<g transform="translate(-320,-38) scale(1,1)">
	<path class="st2" d="M713.6,508.5l-2-64"/>
</g>
<g transform="translate(-320,-38) scale(1,1)">
	<path d="M716.1,454.5l-4.5-10l-3.9,10.3l4.6,11.7"/>
</g>
<g transform="translate(-320,-38) scale(1,1)">
	<path class="st2" d="M716.1,454.5l-4.5-10l-3.9,10.3l4.6,11.7L716.1,454.5"/>
</g>
<text transform="matrix(1 0 0 1 401.1076 453.95)" class="st5 st4">1</text>
<g transform="translate(-320,-38) scale(1,1)">
	<rect x="382.6" y="198.4" class="st0" width="654.3" height="252"/>
</g>
<g transform="translate(-320,-38) scale(1,1)">
	<rect x="951.7" y="180.4" class="st0" width="94.3" height="22"/>
</g>
<g transform="translate(-320,-38) scale(1,1)">
	<rect x="375.6" y="191.4" class="st1" width="654.3" height="252"/>
</g>
<g transform="translate(-320,-38) scale(1,1)">
	<path class="st2" d="M375.6,191.4H1030v252H375.6V191.4z"/>
</g>
<g transform="translate(-320,-38) scale(1,1)">
	<path class="st2" d="M375.6,216.4H1030"/>
</g>
<g transform="translate(-320,-38) scale(1,1)">
	<path class="st2" d="M375.6,226.4H1030"/>
</g>
<text transform="matrix(1 0 0 1 322.4523 172.95)" class="st3 st4">ExperimentAlgorithm</text>
<text transform="matrix(1 0 0 1 60.6076 205.95)" class="st5 st4">«constructor»+ExperimentAlgorithm(algorithm, algorithmTag: String, problem: ExperimentProblem, runId: int)</text>
<text transform="matrix(1 0 0 1 60.6076 220.95)" class="st5 st4">«constructor»+ExperimentAlgorithm(algorithm, problem: ExperimentProblem, runId: int)</text>
<text transform="matrix(1 0 0 1 60.6076 235.95)" class="st5 st4">+prepareToRun(experimentData): void</text>
<text transform="matrix(1 0 0 1 60.6076 250.95)" class="st5 st4">+runASingleStepOfAlgorithm(): void</text>
<text transform="matrix(1 0 0 1 60.6076 265.95)" class="st5 st4">+saveSolutionList(): void</text>
<text transform="matrix(1 0 0 1 60.6076 280.95)" class="st5 st4">+algorithmHasANextStep(): boolean</text>
<text transform="matrix(1 0 0 1 60.6076 295.95)" class="st5 st4">+getAlgorithm(): Algorithm</text>
<text transform="matrix(1 0 0 1 60.6076 310.95)" class="st5 st4">+getAlgorithmTag(): String</text>
<text transform="matrix(1 0 0 1 60.6076 325.95)" class="st5 st4">+getRunId(): int</text>
<text transform="matrix(1 0 0 1 60.6076 340.95)" class="st5 st4">+getResult(): List&lt;S&gt;</text>
<g transform="translate(-320,-38) scale(1,1)">
	<rect x="944.7" y="173.4" class="st1" width="94.3" height="22"/>
</g>
<g transform="translate(-320,-38) scale(1,1)">
	<path class="st6" d="M944.7,173.4h94.3v22h-94.3V173.4z"/>
</g>
<text transform="matrix(1 0 0 1 629.6662 152.95)" class="st5 st4">S: Solution&lt;?&gt;</text>
<g transform="translate(-320,-38) scale(1,1)">
	<rect x="1086.6" y="390.5" class="st0" width="351.6" height="118"/>
</g>
<g transform="translate(-320,-38) scale(1,1)">
	<rect x="1352.9" y="372.5" class="st0" width="94.3" height="22"/>
</g>
<g transform="translate(-320,-38) scale(1,1)">
	<rect x="1079.6" y="383.5" class="st1" width="351.6" height="118"/>
</g>
<g transform="translate(-320,-38) scale(1,1)">
	<path class="st2" d="M1079.6,383.5h351.6v118h-351.6V383.5z"/>
</g>
<g transform="translate(-320,-38) scale(1,1)">
	<path class="st2" d="M1079.6,408.5h351.6"/>
</g>
<g transform="translate(-320,-38) scale(1,1)">
	<path class="st2" d="M1079.6,418.5h351.6"/>
</g>
<text transform="matrix(1 0 0 1 878.3361 364.95)" class="st3 st4">ExperimentProblem</text>
<text transform="matrix(1 0 0 1 764.6076 397.95)" class="st5 st4">«constructor»+ExperimentProblem(problem, tag: String)</text>
<text transform="matrix(1 0 0 1 764.6076 412.95)" class="st5 st4">«constructor»+ExperimentProblem(problem)</text>
<text transform="matrix(1 0 0 1 764.6076 427.95)" class="st5 st4">+getProblem(): Problem&lt;S&gt;</text>
<text transform="matrix(1 0 0 1 764.6076 442.95)" class="st5 st4">+getTag(): String</text>
<text transform="matrix(1 0 0 1 764.6076 457.95)" class="st5 st4">+closeResources(): void</text>
<g transform="translate(-320,-38) scale(1,1)">
	<rect x="1345.9" y="365.5" class="st1" width="94.3" height="22"/>
</g>
<g transform="translate(-320,-38) scale(1,1)">
	<path class="st6" d="M1345.9,365.5h94.3v22h-94.3V365.5z"/>
</g>
<text transform="matrix(1 0 0 1 1030.9338 344.95)" class="st5 st4">S: Solution&lt;?&gt;</text>
<g transform="translate(-320,-38) scale(1,1)">
	<rect x="1054.6" y="70.4" class="st0" width="414.4" height="252"/>
</g>
<g transform="translate(-320,-38) scale(1,1)">
	<rect x="1383.8" y="52.5" class="st0" width="94.3" height="22"/>
</g>
<g transform="translate(-320,-38) scale(1,1)">
	<rect x="1047.6" y="63.5" class="st1" width="414.4" height="252"/>
</g>
<g transform="translate(-320,-38) scale(1,1)">
	<path class="st2" d="M1047.6,63.5h414.4v252h-414.4V63.5z"/>
</g>
<g transform="translate(-320,-38) scale(1,1)">
	<path class="st2" d="M1047.6,88.4h414.4"/>
</g>
<g transform="translate(-320,-38) scale(1,1)">
	<path class="st2" d="M1047.6,98.4h414.4"/>
</g>
<text transform="matrix(1 0 0 1 901.9543 44.95)" class="st3 st4">Experiment</text>
<text transform="matrix(1 0 0 1 732.6076 77.95)" class="st5 st4">«constructor»+Experiment(builder: ExperimentBuilder)</text>
<text transform="matrix(1 0 0 1 732.6076 92.95)" class="st5 st4">+getExperimentName(): String</text>
<text transform="matrix(1 0 0 1 732.6076 107.95)" class="st5 st4">+getAlgorithmList(): List&lt;ExperimentAlgorithm&gt;</text>
<text transform="matrix(1 0 0 1 732.6076 122.95)" class="st5 st4">+getProblem(): ExperimentProblem&lt;S&gt;</text>
<text transform="matrix(1 0 0 1 732.6076 137.95)" class="st5 st4">+getExperimentBaseDirectory(): String</text>
<text transform="matrix(1 0 0 1 732.6076 152.95)" class="st5 st4">+getObjectiveOutputFileName(): String</text>
<text transform="matrix(1 0 0 1 732.6076 167.95)" class="st5 st4">+getVariablesOutputFileName(): String</text>
<text transform="matrix(1 0 0 1 732.6076 182.95)" class="st5 st4">+getIndependentRuns(): int</text>
<text transform="matrix(1 0 0 1 732.6076 197.95)" class="st5 st4">+getReferenceFrontDirectory(): String</text>
<text transform="matrix(1 0 0 1 732.6076 212.95)" class="st5 st4">+setReferenceFrontDirectory(referenceFrontDirectory: String): void</text>
<text transform="matrix(1 0 0 1 732.6076 227.95)" class="st5 st4">+setAlgorithmList(algorithmList: List&lt;Algorithm&gt;): void</text>
<text transform="matrix(1 0 0 1 732.6076 242.95)" class="st5 st4">+removeDuplicatedAlgorithms(): void</text>
<g transform="translate(-320,-38) scale(1,1)">
	<rect x="1376.8" y="45.5" class="st1" width="94.3" height="22"/>
</g>
<g transform="translate(-320,-38) scale(1,1)">
	<path class="st6" d="M1376.8,45.5h94.3v22h-94.3V45.5z"/>
</g>
<text transform="matrix(1 0 0 1 1061.7629 24.95)" class="st5 st4">S: Solution&lt;?&gt;</text>
<g transform="translate(-320,-38) scale(1,1)">
	<path class="st2" d="M1259.6,364.5v-48"/>
</g>
<g transform="translate(-320,-38) scale(1,1)">
	<path d="M1263.8,326.6l-4.2-10.2l-4.2,10.2l4.2,11.8"/>
</g>
<g transform="translate(-320,-38) scale(1,1)">
	<path class="st2" d="M1263.8,326.6l-4.2-10.2l-4.2,10.2l4.2,11.8L1263.8,326.6"/>
</g>
<text transform="matrix(1 0 0 1 948.1076 310.95)" class="st5 st4">1</text>
<g transform="translate(-320,-38) scale(1,1)">
	<path class="st2" d="M719.6,173.4v-80h328"/>
</g>
<g transform="translate(-320,-38) scale(1,1)">
	<path d="M1037.4,97.7l10.2-4.2l-10.2-4.2l-11.8,4.2"/>
</g>
<g transform="translate(-320,-38) scale(1,1)">
	<path class="st2" d="M1037.4,97.7l10.2-4.2l-10.2-4.2l-11.8,4.2L1037.4,97.7"/>
</g>
<text transform="matrix(1 0 0 1 408.8281 119.95)" class="st5 st4">*</text>
</svg>
