<svg version="1.1" xmlns="http://www.w3.org/2000/svg" xmlns:xlink="http://www.w3.org/1999/xlink" width="1100" height="696"><defs/><g><g transform="translate(-54,-118) scale(1,1)"><rect fill="#C0C0C0" stroke="none" x="543" y="135" width="240.5625" height="402" opacity="0.2"/></g><g transform="translate(-54,-118) scale(1,1)"><rect fill="#ffffff" stroke="none" x="536" y="128" width="240.5625" height="402"/></g><g transform="translate(-54,-118) scale(1,1)"><path fill="none" stroke="#000000" d="M 536 128 L 776.5625 128 L 776.5625 530 L 536 530 L 536 128 Z Z" stroke-miterlimit="10"/></g><g transform="translate(-54,-118) scale(1,1)"><path fill="none" stroke="#000000" d="M 536 153 L 776.5625 153" stroke-miterlimit="10"/></g><g transform="translate(-54,-118) scale(1,1)"><path fill="none" stroke="#000000" d="M 536 163 L 776.5625 163" stroke-miterlimit="10"/></g><g transform="translate(-54,-118) scale(1,1)"><g><path fill="none" stroke="none"/><text fill="#000000" stroke="none" font-family="Arial" font-size="13px" font-style="normal" font-weight="bold" text-decoration="none" x="632.442626953125" y="147.5">Network</text></g></g><g transform="translate(-54,-118) scale(1,1)"><g><path fill="none" stroke="none"/><text fill="#000000" stroke="none" font-family="Arial" font-size="13px" font-style="normal" font-weight="normal" text-decoration="none" x="541" y="180.5">+getPump(id: String): Pump</text></g></g><g transform="translate(-54,-118) scale(1,1)"><g><path fill="none" stroke="none"/><text fill="#000000" stroke="none" font-family="Arial" font-size="13px" font-style="normal" font-weight="normal" text-decoration="none" x="541" y="195.5">+getPumps(): Collection&lt;Pump&gt;</text></g></g><g transform="translate(-54,-118) scale(1,1)"><g><path fill="none" stroke="none"/><text fill="#000000" stroke="none" font-family="Arial" font-size="13px" font-style="normal" font-weight="normal" text-decoration="none" x="541" y="210.5">+addPump(id: String, Pump)</text></g></g><g transform="translate(-54,-118) scale(1,1)"><g><path fill="none" stroke="none"/><text fill="#000000" stroke="none" font-family="Arial" font-size="13px" font-style="normal" font-weight="normal" text-decoration="none" x="541" y="225.5">+getPipe(id: String, id: String): Pipe</text></g></g><g transform="translate(-54,-118) scale(1,1)"><g><path fill="none" stroke="none"/><text fill="#000000" stroke="none" font-family="Arial" font-size="13px" font-style="normal" font-weight="normal" text-decoration="none" x="541" y="240.5">+getPipes(): Collection&lt;Pipe&gt;</text></g></g><g transform="translate(-54,-118) scale(1,1)"><g><path fill="none" stroke="none"/><text fill="#000000" stroke="none" font-family="Arial" font-size="13px" font-style="normal" font-weight="normal" text-decoration="none" x="541" y="255.5">+addPipe(id: String, Pipe)</text></g></g><g transform="translate(-54,-118) scale(1,1)"><g><path fill="none" stroke="none"/><text fill="#000000" stroke="none" font-family="Arial" font-size="13px" font-style="normal" font-weight="normal" text-decoration="none" x="541" y="270.5">+getValve(id: String): Valve</text></g></g><g transform="translate(-54,-118) scale(1,1)"><g><path fill="none" stroke="none"/><text fill="#000000" stroke="none" font-family="Arial" font-size="13px" font-style="normal" font-weight="normal" text-decoration="none" x="541" y="285.5">+getValves(): Collection&lt;Valve&gt;</text></g></g><g transform="translate(-54,-118) scale(1,1)"><g><path fill="none" stroke="none"/><text fill="#000000" stroke="none" font-family="Arial" font-size="13px" font-style="normal" font-weight="normal" text-decoration="none" x="541" y="300.5">+addValve(id: String, Valve)</text></g></g><g transform="translate(-54,-118) scale(1,1)"><g><path fill="none" stroke="none"/><text fill="#000000" stroke="none" font-family="Arial" font-size="13px" font-style="normal" font-weight="normal" text-decoration="none" x="541" y="315.5">+getJunction(id: String): Junction</text></g></g><g transform="translate(-54,-118) scale(1,1)"><g><path fill="none" stroke="none"/><text fill="#000000" stroke="none" font-family="Arial" font-size="13px" font-style="normal" font-weight="normal" text-decoration="none" x="541" y="330.5">+getJunctions(): Collection&lt;Junction&gt;</text></g></g><g transform="translate(-54,-118) scale(1,1)"><g><path fill="none" stroke="none"/><text fill="#000000" stroke="none" font-family="Arial" font-size="13px" font-style="normal" font-weight="normal" text-decoration="none" x="541" y="345.5">+addJunction(id: String, Junction)</text></g></g><g transform="translate(-54,-118) scale(1,1)"><g><path fill="none" stroke="none"/><text fill="#000000" stroke="none" font-family="Arial" font-size="13px" font-style="normal" font-weight="normal" text-decoration="none" x="541" y="360.5">+getReservoir(id: String): Reservoir</text></g></g><g transform="translate(-54,-118) scale(1,1)"><g><path fill="none" stroke="none"/><text fill="#000000" stroke="none" font-family="Arial" font-size="13px" font-style="normal" font-weight="normal" text-decoration="none" x="541" y="375.5">+getReservoirs(): Collection&lt;Reservoir&gt;</text></g></g><g transform="translate(-54,-118) scale(1,1)"><g><path fill="none" stroke="none"/><text fill="#000000" stroke="none" font-family="Arial" font-size="13px" font-style="normal" font-weight="normal" text-decoration="none" x="541" y="390.5">+addReservoir(id: String, Reservoir)</text></g></g><g transform="translate(-54,-118) scale(1,1)"><g><path fill="none" stroke="none"/><text fill="#000000" stroke="none" font-family="Arial" font-size="13px" font-style="normal" font-weight="normal" text-decoration="none" x="541" y="405.5">+getTank(id: String): Tank</text></g></g><g transform="translate(-54,-118) scale(1,1)"><g><path fill="none" stroke="none"/><text fill="#000000" stroke="none" font-family="Arial" font-size="13px" font-style="normal" font-weight="normal" text-decoration="none" x="541" y="420.5">+getTanks(): Collection&lt;Tank&gt;</text></g></g><g transform="translate(-54,-118) scale(1,1)"><g><path fill="none" stroke="none"/><text fill="#000000" stroke="none" font-family="Arial" font-size="13px" font-style="normal" font-weight="normal" text-decoration="none" x="541" y="435.5">+addTank(id: String, Tank)</text></g></g><g transform="translate(-54,-118) scale(1,1)"><g><path fill="none" stroke="none"/><text fill="#000000" stroke="none" font-family="Arial" font-size="13px" font-style="normal" font-weight="normal" text-decoration="none" x="541" y="450.5">+getNodes(): Collection&lt;Node&gt;</text></g></g><g transform="translate(-54,-118) scale(1,1)"><g><path fill="none" stroke="none"/><text fill="#000000" stroke="none" font-family="Arial" font-size="13px" font-style="normal" font-weight="normal" text-decoration="none" x="541" y="465.5">+getLinks(): Collection&lt;Link&gt;</text></g></g><g transform="translate(-54,-118) scale(1,1)"><g><path fill="none" stroke="none"/><text fill="#000000" stroke="none" font-family="Arial" font-size="13px" font-style="normal" font-weight="normal" text-decoration="none" x="541" y="480.5">+addLink(id: String, Link)</text></g></g><g transform="translate(-54,-118) scale(1,1)"><g><path fill="none" stroke="none"/><text fill="#000000" stroke="none" font-family="Arial" font-size="13px" font-style="normal" font-weight="normal" text-decoration="none" x="541" y="495.5">+addNode(id: String, Node)</text></g></g><g transform="translate(-54,-118) scale(1,1)"><g><path fill="none" stroke="none"/><text fill="#000000" stroke="none" font-family="Arial" font-size="13px" font-style="normal" font-weight="normal" text-decoration="none" x="541" y="510.5">+getTitle(): String</text></g></g><g transform="translate(-54,-118) scale(1,1)"><g><path fill="none" stroke="none"/><text fill="#000000" stroke="none" font-family="Arial" font-size="13px" font-style="normal" font-weight="normal" text-decoration="none" x="541" y="525.5">+addLineToTitle(line: String)</text></g></g><g transform="translate(-54,-118) scale(1,1)"><path fill="none" stroke="#000000" d="M 270 413 L 535 355" stroke-miterlimit="10"/></g><g transform="translate(-54,-118) scale(1,1)"><path fill="none" stroke="#000000" d="M 525.9723507986402 361.2850258469784 L 535 355 L 524.172303635214 353.0606724278762" stroke-miterlimit="10"/></g><g transform="translate(-54,-118) scale(1,1)"><g><path fill="none" stroke="none"/><text fill="#000000" stroke="none" font-family="Arial" font-size="13px" font-style="normal" font-weight="normal" text-decoration="none" x="379.5" y="375.5">+Load</text></g></g><g transform="translate(-54,-118) scale(1,1)"><rect fill="#C0C0C0" stroke="none" x="727" y="743" width="80" height="48" opacity="0.2"/></g><g transform="translate(-54,-118) scale(1,1)"><rect fill="#ffffff" stroke="none" x="720" y="736" width="80" height="48"/></g><g transform="translate(-54,-118) scale(1,1)"><path fill="none" stroke="#000000" d="M 720 736 L 800 736 L 800 784 L 720 784 L 720 736 Z Z" stroke-miterlimit="10"/></g><g transform="translate(-54,-118) scale(1,1)"><path fill="none" stroke="#000000" d="M 720 761 L 800 761" stroke-miterlimit="10"/></g><g transform="translate(-54,-118) scale(1,1)"><path fill="none" stroke="#000000" d="M 720 771 L 800 771" stroke-miterlimit="10"/></g><g transform="translate(-54,-118) scale(1,1)"><g><path fill="none" stroke="none"/><text fill="#000000" stroke="none" font-family="Arial" font-size="13px" font-style="normal" font-weight="bold" text-decoration="none" x="735.7900390625" y="755.5">Junction</text></g></g><g transform="translate(-54,-118) scale(1,1)"><rect fill="#C0C0C0" stroke="none" x="311" y="767" width="50.919921875" height="44" opacity="0.2"/></g><g transform="translate(-54,-118) scale(1,1)"><rect fill="#ffffff" stroke="none" x="304" y="760" width="50.919921875" height="44"/></g><g transform="translate(-54,-118) scale(1,1)"><path fill="none" stroke="#000000" d="M 304 760 L 354.919921875 760 L 354.919921875 804 L 304 804 L 304 760 Z Z" stroke-miterlimit="10"/></g><g transform="translate(-54,-118) scale(1,1)"><path fill="none" stroke="#000000" d="M 304 785 L 354.919921875 785" stroke-miterlimit="10"/></g><g transform="translate(-54,-118) scale(1,1)"><path fill="none" stroke="#000000" d="M 304 795 L 354.919921875 795" stroke-miterlimit="10"/></g><g transform="translate(-54,-118) scale(1,1)"><g><path fill="none" stroke="none"/><text fill="#000000" stroke="none" font-family="Arial" font-size="13px" font-style="normal" font-weight="bold" text-decoration="none" x="316.450439453125" y="779.5">Pipe</text></g></g><g transform="translate(-54,-118) scale(1,1)"><rect fill="#C0C0C0" stroke="none" x="903" y="759" width="68.97900390625" height="48" opacity="0.2"/></g><g transform="translate(-54,-118) scale(1,1)"><rect fill="#ffffff" stroke="none" x="896" y="752" width="68.97900390625" height="48"/></g><g transform="translate(-54,-118) scale(1,1)"><path fill="none" stroke="#000000" d="M 896 752 L 964.97900390625 752 L 964.97900390625 800 L 896 800 L 896 752 Z Z" stroke-miterlimit="10"/></g><g transform="translate(-54,-118) scale(1,1)"><path fill="none" stroke="#000000" d="M 896 777 L 964.97900390625 777" stroke-miterlimit="10"/></g><g transform="translate(-54,-118) scale(1,1)"><path fill="none" stroke="#000000" d="M 896 787 L 964.97900390625 787" stroke-miterlimit="10"/></g><g transform="translate(-54,-118) scale(1,1)"><g><path fill="none" stroke="none"/><text fill="#000000" stroke="none" font-family="Arial" font-size="13px" font-style="normal" font-weight="bold" text-decoration="none" x="902.67724609375" y="771.5">Reservoir</text></g></g><g transform="translate(-54,-118) scale(1,1)"><rect fill="#C0C0C0" stroke="none" x="1079" y="735" width="72" height="48" opacity="0.2"/></g><g transform="translate(-54,-118) scale(1,1)"><rect fill="#ffffff" stroke="none" x="1072" y="728" width="72" height="48"/></g><g transform="translate(-54,-118) scale(1,1)"><path fill="none" stroke="#000000" d="M 1072 728 L 1144 728 L 1144 776 L 1072 776 L 1072 728 Z Z" stroke-miterlimit="10"/></g><g transform="translate(-54,-118) scale(1,1)"><path fill="none" stroke="#000000" d="M 1072 753 L 1144 753" stroke-miterlimit="10"/></g><g transform="translate(-54,-118) scale(1,1)"><path fill="none" stroke="#000000" d="M 1072 763 L 1144 763" stroke-miterlimit="10"/></g><g transform="translate(-54,-118) scale(1,1)"><g><path fill="none" stroke="none"/><text fill="#000000" stroke="none" font-family="Arial" font-size="13px" font-style="normal" font-weight="bold" text-decoration="none" x="1094.27001953125" y="747.5">Tank</text></g></g><g transform="translate(-54,-118) scale(1,1)"><rect fill="#C0C0C0" stroke="none" x="511" y="767" width="50.919921875" height="44" opacity="0.2"/></g><g transform="translate(-54,-118) scale(1,1)"><rect fill="#ffffff" stroke="none" x="504" y="760" width="50.919921875" height="44"/></g><g transform="translate(-54,-118) scale(1,1)"><path fill="none" stroke="#000000" d="M 504 760 L 554.919921875 760 L 554.919921875 804 L 504 804 L 504 760 Z Z" stroke-miterlimit="10"/></g><g transform="translate(-54,-118) scale(1,1)"><path fill="none" stroke="#000000" d="M 504 785 L 554.919921875 785" stroke-miterlimit="10"/></g><g transform="translate(-54,-118) scale(1,1)"><path fill="none" stroke="#000000" d="M 504 795 L 554.919921875 795" stroke-miterlimit="10"/></g><g transform="translate(-54,-118) scale(1,1)"><g><path fill="none" stroke="none"/><text fill="#000000" stroke="none" font-family="Arial" font-size="13px" font-style="normal" font-weight="bold" text-decoration="none" x="513.682861328125" y="779.5">Valve</text></g></g><g transform="translate(-54,-118) scale(1,1)"><rect fill="#C0C0C0" stroke="none" x="183" y="711" width="50.919921875" height="44" opacity="0.2"/></g><g transform="translate(-54,-118) scale(1,1)"><rect fill="#ffffff" stroke="none" x="176" y="704" width="50.919921875" height="44"/></g><g transform="translate(-54,-118) scale(1,1)"><path fill="none" stroke="#000000" d="M 176 704 L 226.919921875 704 L 226.919921875 748 L 176 748 L 176 704 Z Z" stroke-miterlimit="10"/></g><g transform="translate(-54,-118) scale(1,1)"><path fill="none" stroke="#000000" d="M 176 729 L 226.919921875 729" stroke-miterlimit="10"/></g><g transform="translate(-54,-118) scale(1,1)"><path fill="none" stroke="#000000" d="M 176 739 L 226.919921875 739" stroke-miterlimit="10"/></g><g transform="translate(-54,-118) scale(1,1)"><g><path fill="none" stroke="none"/><text fill="#000000" stroke="none" font-family="Arial" font-size="13px" font-style="normal" font-weight="bold" text-decoration="none" x="184.47998046875" y="723.5">Pump</text></g></g><g transform="translate(-54,-118) scale(1,1)"><rect fill="#C0C0C0" stroke="none" x="335" y="567" width="209.509765625" height="147" opacity="0.2"/></g><g transform="translate(-54,-118) scale(1,1)"><rect fill="#ffffff" stroke="none" x="328" y="560" width="209.509765625" height="147"/></g><g transform="translate(-54,-118) scale(1,1)"><path fill="none" stroke="#000000" d="M 328 560 L 537.509765625 560 L 537.509765625 707 L 328 707 L 328 560 Z Z" stroke-miterlimit="10"/></g><g transform="translate(-54,-118) scale(1,1)"><path fill="none" stroke="#000000" d="M 328 585 L 537.509765625 585" stroke-miterlimit="10"/></g><g transform="translate(-54,-118) scale(1,1)"><path fill="none" stroke="#000000" d="M 328 595 L 537.509765625 595" stroke-miterlimit="10"/></g><g transform="translate(-54,-118) scale(1,1)"><g><path fill="none" stroke="none"/><text fill="#000000" stroke="none" font-family="Arial" font-size="13px" font-style="italic" font-weight="bold" text-decoration="none" x="420.830810546875" y="579.5">Link</text></g></g><g transform="translate(-54,-118) scale(1,1)"><g><path fill="none" stroke="none"/><text fill="#000000" stroke="none" font-family="Arial" font-size="13px" font-style="normal" font-weight="normal" text-decoration="none" x="333" y="612.5">+getVertices(): List&lt;Point&gt;</text></g></g><g transform="translate(-54,-118) scale(1,1)"><g><path fill="none" stroke="none"/><text fill="#000000" stroke="none" font-family="Arial" font-size="13px" font-style="normal" font-weight="normal" text-decoration="none" x="333" y="627.5">+getId(): String</text></g></g><g transform="translate(-54,-118) scale(1,1)"><g><path fill="none" stroke="none"/><text fill="#000000" stroke="none" font-family="Arial" font-size="13px" font-style="normal" font-weight="normal" text-decoration="none" x="333" y="642.5">+setId(id: String)</text></g></g><g transform="translate(-54,-118) scale(1,1)"><g><path fill="none" stroke="none"/><text fill="#000000" stroke="none" font-family="Arial" font-size="13px" font-style="normal" font-weight="normal" text-decoration="none" x="333" y="657.5">+getToNode(): Node</text></g></g><g transform="translate(-54,-118) scale(1,1)"><g><path fill="none" stroke="none"/><text fill="#000000" stroke="none" font-family="Arial" font-size="13px" font-style="normal" font-weight="normal" text-decoration="none" x="333" y="672.5">+setToNode(to: Node)</text></g></g><g transform="translate(-54,-118) scale(1,1)"><g><path fill="none" stroke="none"/><text fill="#000000" stroke="none" font-family="Arial" font-size="13px" font-style="normal" font-weight="normal" text-decoration="none" x="333" y="687.5">+getFromNode(): Node</text></g></g><g transform="translate(-54,-118) scale(1,1)"><g><path fill="none" stroke="none"/><text fill="#000000" stroke="none" font-family="Arial" font-size="13px" font-style="normal" font-weight="normal" text-decoration="none" x="333" y="702.5">+setFromNode(from: Node)</text></g></g><g transform="translate(-54,-118) scale(1,1)"><rect fill="#C0C0C0" stroke="none" x="847" y="575" width="170.50341796875" height="102" opacity="0.2"/></g><g transform="translate(-54,-118) scale(1,1)"><rect fill="#ffffff" stroke="none" x="840" y="568" width="170.50341796875" height="102"/></g><g transform="translate(-54,-118) scale(1,1)"><path fill="none" stroke="#000000" d="M 840 568 L 1010.50341796875 568 L 1010.50341796875 670 L 840 670 L 840 568 Z Z" stroke-miterlimit="10"/></g><g transform="translate(-54,-118) scale(1,1)"><path fill="none" stroke="#000000" d="M 840 593 L 1010.50341796875 593" stroke-miterlimit="10"/></g><g transform="translate(-54,-118) scale(1,1)"><path fill="none" stroke="#000000" d="M 840 603 L 1010.50341796875 603" stroke-miterlimit="10"/></g><g transform="translate(-54,-118) scale(1,1)"><g><path fill="none" stroke="none"/><text fill="#000000" stroke="none" font-family="Arial" font-size="13px" font-style="italic" font-weight="bold" text-decoration="none" x="909.712646484375" y="587.5">Node</text></g></g><g transform="translate(-54,-118) scale(1,1)"><g><path fill="none" stroke="none"/><text fill="#000000" stroke="none" font-family="Arial" font-size="13px" font-style="normal" font-weight="normal" text-decoration="none" x="845" y="620.5">+setPosition(position: Point)</text></g></g><g transform="translate(-54,-118) scale(1,1)"><g><path fill="none" stroke="none"/><text fill="#000000" stroke="none" font-family="Arial" font-size="13px" font-style="normal" font-weight="normal" text-decoration="none" x="845" y="635.5">+getPosition(): Point</text></g></g><g transform="translate(-54,-118) scale(1,1)"><g><path fill="none" stroke="none"/><text fill="#000000" stroke="none" font-family="Arial" font-size="13px" font-style="normal" font-weight="normal" text-decoration="none" x="845" y="650.5">+setId(id: String)</text></g></g><g transform="translate(-54,-118) scale(1,1)"><g><path fill="none" stroke="none"/><text fill="#000000" stroke="none" font-family="Arial" font-size="13px" font-style="normal" font-weight="normal" text-decoration="none" x="845" y="665.5">+getId(): String</text></g></g><g transform="translate(-54,-118) scale(1,1)"><path fill="none" stroke="#000000" d="M 228 715 L 327 675" stroke-miterlimit="10"/></g><g transform="translate(-54,-118) scale(1,1)"><path fill="#FFFFFF" stroke="none" d="M 311.30867806674087 690.4201950696747 L 327 675 L 305.0008353542249 674.8082843561976"/></g><g transform="translate(-54,-118) scale(1,1)"><path fill="none" stroke="#000000" d="M 311.30867806674087 690.4201950696747 L 327 675 L 305.0008353542249 674.8082843561976 L 311.30867806674087 690.4201950696747" stroke-miterlimit="10"/></g><g transform="translate(-54,-118) scale(1,1)"><path fill="none" stroke="#000000" d="M 345 759 L 380 708" stroke-miterlimit="10"/></g><g transform="translate(-54,-118) scale(1,1)"><path fill="#FFFFFF" stroke="none" d="M 375.4406605625586 729.5223703130996 L 380 708 L 361.55744617045315 719.9946741616548"/></g><g transform="translate(-54,-118) scale(1,1)"><path fill="none" stroke="#000000" d="M 375.4406605625586 729.5223703130996 L 380 708 L 361.55744617045315 719.9946741616548 L 375.4406605625586 729.5223703130996" stroke-miterlimit="10"/></g><g transform="translate(-54,-118) scale(1,1)"><path fill="none" stroke="#000000" d="M 514 759 L 481 708" stroke-miterlimit="10"/></g><g transform="translate(-54,-118) scale(1,1)"><path fill="#FFFFFF" stroke="none" d="M 499.1101431797085 720.4909052518406 L 481 708 L 484.973401243896 729.6382088573663"/></g><g transform="translate(-54,-118) scale(1,1)"><path fill="none" stroke="#000000" d="M 499.1101431797085 720.4909052518406 L 481 708 L 484.973401243896 729.6382088573663 L 499.1101431797085 720.4909052518406" stroke-miterlimit="10"/></g><g transform="translate(-54,-118) scale(1,1)"><path fill="none" stroke="#000000" d="M 789 735 L 864 671" stroke-miterlimit="10"/></g><g transform="translate(-54,-118) scale(1,1)"><path fill="#FFFFFF" stroke="none" d="M 854.0037361011296 690.5978240645267 L 864 671 L 843.0738197180508 677.7893283031061"/></g><g transform="translate(-54,-118) scale(1,1)"><path fill="none" stroke="#000000" d="M 854.0037361011296 690.5978240645267 L 864 671 L 843.0738197180508 677.7893283031061 L 854.0037361011296 690.5978240645267" stroke-miterlimit="10"/></g><g transform="translate(-54,-118) scale(1,1)"><path fill="none" stroke="#000000" d="M 929 751 L 927 671" stroke-miterlimit="10"/></g><g transform="translate(-54,-118) scale(1,1)"><path fill="#FFFFFF" stroke="none" d="M 935.9243808215311 691.1085908743573 L 927 671 L 919.0915692294318 691.5294111641598"/></g><g transform="translate(-54,-118) scale(1,1)"><path fill="none" stroke="#000000" d="M 935.9243808215311 691.1085908743573 L 927 671 L 919.0915692294318 691.5294111641598 L 935.9243808215311 691.1085908743573" stroke-miterlimit="10"/></g><g transform="translate(-54,-118) scale(1,1)"><path fill="none" stroke="#000000" d="M 1074 727 L 997 671" stroke-miterlimit="10"/></g><g transform="translate(-54,-118) scale(1,1)"><path fill="#FFFFFF" stroke="none" d="M 1018.3896821507012 676.1460176342464 L 997 671 L 1008.4860053309045 689.7635732614668"/></g><g transform="translate(-54,-118) scale(1,1)"><path fill="none" stroke="#000000" d="M 1018.3896821507012 676.1460176342464 L 997 671 L 1008.4860053309045 689.7635732614668 L 1018.3896821507012 676.1460176342464" stroke-miterlimit="10"/></g><g transform="translate(-54,-118) scale(1,1)"><path fill="none" stroke="#000000" d="M 487 559 L 535 493" stroke-miterlimit="10"/></g><g transform="translate(-54,-118) scale(1,1)"><path fill="#000000" stroke="none" d="M 532.4269911828768 503.6948410753506 L 535 493 L 525.6182133692665 498.74300266545225 L 522.0602226511489 510.79219385467013"/></g><g transform="translate(-54,-118) scale(1,1)"><path fill="none" stroke="#000000" d="M 532.4269911828768 503.6948410753506 L 535 493 L 525.6182133692665 498.74300266545225 L 522.0602226511489 510.79219385467013 L 532.4269911828768 503.6948410753506" stroke-miterlimit="10"/></g><g transform="translate(-54,-118) scale(1,1)"><path fill="none" stroke="#000000" d="M 877 567 L 778 460" stroke-miterlimit="10"/></g><g transform="translate(-54,-118) scale(1,1)"><path fill="#000000" stroke="none" d="M 787.9916667951667 464.60071675441594 L 778 460 L 781.8119773308528 470.3183733615849 L 792.9409567376154 476.14830677701866"/></g><g transform="translate(-54,-118) scale(1,1)"><path fill="none" stroke="#000000" d="M 787.9916667951667 464.60071675441594 L 778 460 L 781.8119773308528 470.3183733615849 L 792.9409567376154 476.14830677701866 L 787.9916667951667 464.60071675441594" stroke-miterlimit="10"/></g><g transform="translate(-54,-118) scale(1,1)"><rect fill="#C0C0C0" stroke="none" x="71" y="415" width="205.13623046875" height="57" opacity="0.2"/></g><g transform="translate(-54,-118) scale(1,1)"><rect fill="#ffffff" stroke="none" x="64" y="408" width="205.13623046875" height="57"/></g><g transform="translate(-54,-118) scale(1,1)"><path fill="none" stroke="#000000" d="M 64 408 L 269.13623046875 408 L 269.13623046875 465 L 64 465 L 64 408 Z Z" stroke-miterlimit="10"/></g><g transform="translate(-54,-118) scale(1,1)"><path fill="none" stroke="#000000" d="M 64 433 L 269.13623046875 433" stroke-miterlimit="10"/></g><g transform="translate(-54,-118) scale(1,1)"><path fill="none" stroke="#000000" d="M 64 443 L 269.13623046875 443" stroke-miterlimit="10"/></g><g transform="translate(-54,-118) scale(1,1)"><g><path fill="none" stroke="none"/><text fill="#000000" stroke="none" font-family="Arial" font-size="13px" font-style="italic" font-weight="bold" text-decoration="none" x="147.423583984375" y="427.5">Parser</text></g></g><g transform="translate(-54,-118) scale(1,1)"><g><path fill="none" stroke="none"/><text fill="#000000" stroke="none" font-family="Arial" font-size="13px" font-style="italic" font-weight="normal" text-decoration="none" x="69" y="460.5">+parseNetwork(file: File): Network</text></g></g><g transform="translate(-54,-118) scale(1,1)"><path fill="#ffffff" stroke="none" d="M 200 360 L 333 360 L 343 370 L 343 415 L 200 415 L 200 360"/></g><g transform="translate(-54,-118) scale(1,1)"><path fill="none" stroke="#000000" d="M 200 360 L 333 360 L 343 370 L 343 415 L 200 415 L 200 360 L 200 360" stroke-miterlimit="10"/></g><g transform="translate(-54,-118) scale(1,1)"><path fill="none" stroke="#000000" d="M 333 360 L 333 370 L 343 370 L 333 360" stroke-miterlimit="10"/></g><g transform="translate(-54,-118) scale(1,1)"><g><path fill="none" stroke="none"/><text fill="#000000" stroke="none" font-family="Arial" font-size="13px" font-style="normal" font-weight="normal" text-decoration="none" x="205" y="378">La clase Parser</text><text fill="#000000" stroke="none" font-family="Arial" font-size="13px" font-style="normal" font-weight="normal" text-decoration="none" x="205" y="391">pertenece al paquete</text><text fill="#000000" stroke="none" font-family="Arial" font-size="13px" font-style="normal" font-weight="normal" text-decoration="none" x="205" y="404">epanet.parser</text></g></g><g transform="translate(-54,-118) scale(1,1)"><rect fill="#C0C0C0" stroke="none" x="631" y="591" width="167.6279296875" height="102" opacity="0.2"/></g><g transform="translate(-54,-118) scale(1,1)"><rect fill="#ffffff" stroke="none" x="624" y="584" width="167.6279296875" height="102"/></g><g transform="translate(-54,-118) scale(1,1)"><path fill="none" stroke="#000000" d="M 624 584 L 791.6279296875 584 L 791.6279296875 686 L 624 686 L 624 584 Z Z" stroke-miterlimit="10"/></g><g transform="translate(-54,-118) scale(1,1)"><path fill="none" stroke="#000000" d="M 624 609 L 791.6279296875 609" stroke-miterlimit="10"/></g><g transform="translate(-54,-118) scale(1,1)"><path fill="none" stroke="#000000" d="M 624 619 L 791.6279296875 619" stroke-miterlimit="10"/></g><g transform="translate(-54,-118) scale(1,1)"><g><path fill="none" stroke="none"/><text fill="#000000" stroke="none" font-family="Arial" font-size="13px" font-style="normal" font-weight="bold" text-decoration="none" x="692.99853515625" y="603.5">Point</text></g></g><g transform="translate(-54,-118) scale(1,1)"><g><path fill="none" stroke="none"/><text fill="#000000" stroke="none" font-family="Arial" font-size="13px" font-style="normal" font-weight="normal" text-decoration="none" x="629" y="636.5">+Point(x: double, y: double)</text></g></g><g transform="translate(-54,-118) scale(1,1)"><g><path fill="none" stroke="none"/><text fill="#000000" stroke="none" font-family="Arial" font-size="13px" font-style="normal" font-weight="normal" text-decoration="none" x="629" y="651.5">+getX(): double</text></g></g><g transform="translate(-54,-118) scale(1,1)"><g><path fill="none" stroke="none"/><text fill="#000000" stroke="none" font-family="Arial" font-size="13px" font-style="normal" font-weight="normal" text-decoration="none" x="629" y="666.5">+getY(): double</text></g></g><g transform="translate(-54,-118) scale(1,1)"><path fill="none" stroke="#000000" d="M 839 625 L 793 629" stroke-miterlimit="10"/></g><g transform="translate(-54,-118) scale(1,1)"><path fill="none" stroke="#000000" d="M 802.7598002695163 623.9259189305699 L 793 629 L 803.4891380860856 632.313303821117" stroke-miterlimit="10"/></g><g transform="translate(-54,-118) scale(1,1)"><g><path fill="none" stroke="none"/><text fill="#000000" stroke="none" font-family="Arial" font-size="13px" font-style="normal" font-weight="normal" text-decoration="none" x="801.5" y="647.5">+Use</text></g></g><g transform="translate(-54,-118) scale(1,1)"><path fill="none" stroke="#000000" d="M 539 634 L 623 634" stroke-miterlimit="10"/></g><g transform="translate(-54,-118) scale(1,1)"><path fill="none" stroke="#000000" d="M 612.8373251423759 638.209517756016 L 623 634 L 612.8373251423758 629.790482243984" stroke-miterlimit="10"/></g><g transform="translate(-54,-118) scale(1,1)"><g><path fill="none" stroke="none"/><text fill="#000000" stroke="none" font-family="Arial" font-size="13px" font-style="normal" font-weight="normal" text-decoration="none" x="565.5" y="625.5">+Use</text></g></g></g></svg>