<?xml version="1.0" encoding="utf-8"?>
<!-- Generator: Adobe Illustrator 24.0.1, SVG Export Plug-In . SVG Version: 6.00 Build 0)  -->
<svg version="1.1" id="Capa_1" xmlns="http://www.w3.org/2000/svg" xmlns:xlink="http://www.w3.org/1999/xlink" x="0px" y="0px"
	 viewBox="0 0 1082.9 1364" style="enable-background:new 0 0 1082.9 1364;" xml:space="preserve">
<style type="text/css">
	.st0{opacity:0.2;fill:#C0C0C0;enable-background:new    ;}
	.st1{fill:#FFFFFF;}
	.st2{fill:none;stroke:#000000;stroke-miterlimit:10;}
	.st3{font-family:'Arial-BoldMT';}
	.st4{font-size:15px;}
	.st5{font-family:'ArialMT';}
</style>
<g transform="translate(-878,-150) scale(1,1)">
	<path class="st0" d="M1250.6,157.7c0-5.2,4.3-9.5,9.5-9.5s9.5,4.3,9.5,9.5s-4.3,9.5-9.5,9.5S1250.6,162.9,1250.6,157.7z"/>
</g>
<g transform="translate(-878,-150) scale(1,1)">
	<path d="M1243.6,150.7c0-5.2,4.3-9.5,9.5-9.5s9.5,4.3,9.5,9.5s-4.3,9.5-9.5,9.5S1243.6,155.9,1243.6,150.7z"/>
</g>
<g transform="translate(-878,-150) scale(1,1)">
	<path class="st0" d="M1228.6,204.2h64.9c6.7,0,10,3.3,10,10v22c0,6.7-3.3,10-10,10h-64.9c-6.7,0-10-3.3-10-10v-22
		C1218.6,207.5,1221.9,204.2,1228.6,204.2z"/>
</g>
<g transform="translate(-878,-150) scale(1,1)">
	<path class="st1" d="M1221.6,197.2h64.9c6.7,0,10,3.3,10,10v22c0,6.7-3.3,10-10,10h-64.9c-6.7,0-10-3.3-10-10v-22
		C1211.6,200.5,1214.9,197.2,1221.6,197.2z"/>
</g>
<g transform="translate(-878,-150) scale(1,1)">
	<path class="st2" d="M1221.6,197.2h64.9c6.7,0,10,3.3,10,10v22c0,6.7-3.3,10-10,10h-64.9c-6.7,0-10-3.3-10-10v-22
		C1211.6,200.5,1214.9,197.2,1221.6,197.2z"/>
</g>
<text transform="matrix(1 0 0 1 340.1611 68.7)" class="st3 st4">Cargar red</text>
<g transform="translate(-878,-150) scale(1,1)">
	<path class="st0" d="M1250.6,301.7l11.5-9.5l10.5,9.5l-10.5,8.5L1250.6,301.7"/>
</g>
<g transform="translate(-878,-150) scale(1,1)">
	<path class="st1" d="M1243.6,294.2l11-9l11,9l-11,9L1243.6,294.2"/>
</g>
<g transform="translate(-878,-150) scale(1,1)">
	<path class="st2" d="M1243.6,294.2l11-9l11,9l-11,9L1243.6,294.2L1243.6,294.2"/>
</g>
<g transform="translate(-878,-150) scale(1,1)">
	<path class="st0" d="M1196.6,612.2h140c6.7,0,10,3.3,10,10v37c0,6.7-3.3,10-10,10h-140c-6.7,0-10-3.3-10-10v-37
		C1186.6,615.5,1189.9,612.2,1196.6,612.2z"/>
</g>
<g transform="translate(-878,-150) scale(1,1)">
	<path class="st1" d="M1189.6,605.2h140c6.7,0,10,3.3,10,10v37c0,6.7-3.3,10-10,10h-140c-6.7,0-10-3.3-10-10v-37
		C1179.6,608.5,1182.9,605.2,1189.6,605.2z"/>
</g>
<g transform="translate(-878,-150) scale(1,1)">
	<path class="st2" d="M1189.6,605.2h140c6.7,0,10,3.3,10,10v37c0,6.7-3.3,10-10,10h-140c-6.7,0-10-3.3-10-10v-37
		C1179.6,608.5,1182.9,605.2,1189.6,605.2z"/>
</g>
<text transform="matrix(1 0 0 1 316.5529 476.7)" class="st3 st4">Realizar simulación</text>
<text transform="matrix(1 0 0 1 349.4753 491.7)" class="st3 st4">hidráulica</text>
<g transform="translate(-878,-150) scale(1,1)">
	<path class="st0" d="M1380.6,604.2h108c6.7,0,10,3.3,10,10v52c0,6.7-3.3,10-10,10h-108c-6.7,0-10-3.3-10-10v-52
		C1370.6,607.5,1373.9,604.2,1380.6,604.2z"/>
</g>
<g transform="translate(-878,-150) scale(1,1)">
	<path class="st1" d="M1373.6,597.2h108c6.7,0,10,3.3,10,10v52c0,6.7-3.3,10-10,10h-108c-6.7,0-10-3.3-10-10v-52
		C1363.6,600.5,1366.9,597.2,1373.6,597.2z"/>
</g>
<g transform="translate(-878,-150) scale(1,1)">
	<path class="st2" d="M1373.6,597.2h108c6.7,0,10,3.3,10,10v52c0,6.7-3.3,10-10,10h-108c-6.7,0-10-3.3-10-10v-52
		C1363.6,600.5,1366.9,597.2,1373.6,597.2z"/>
</g>
<text transform="matrix(1 0 0 1 510.3891 468.7)" class="st3 st4">Seleccionar</text>
<text transform="matrix(1 0 0 1 518.3102 483.7)" class="st3 st4">problema</text>
<text transform="matrix(1 0 0 1 504.9655 498.7)" class="st3 st4">monoobjetivo</text>
<g transform="translate(-878,-150) scale(1,1)">
	<path class="st0" d="M1596.6,596.2h124c6.7,0,10,3.3,10,10v52c0,6.7-3.3,10-10,10h-124c-6.7,0-10-3.3-10-10v-52
		C1586.6,599.5,1589.9,596.2,1596.6,596.2z"/>
</g>
<g transform="translate(-878,-150) scale(1,1)">
	<path class="st1" d="M1589.6,589.2h124c6.7,0,10,3.3,10,10v52c0,6.7-3.3,10-10,10h-124c-6.7,0-10-3.3-10-10v-52
		C1579.6,592.5,1582.9,589.2,1589.6,589.2z"/>
</g>
<g transform="translate(-878,-150) scale(1,1)">
	<path class="st2" d="M1589.6,589.2h124c6.7,0,10,3.3,10,10v52c0,6.7-3.3,10-10,10h-124c-6.7,0-10-3.3-10-10v-52
		C1579.6,592.5,1582.9,589.2,1589.6,589.2z"/>
</g>
<text transform="matrix(1 0 0 1 734.3891 460.7)" class="st3 st4">Seleccionar</text>
<text transform="matrix(1 0 0 1 742.3102 475.7)" class="st3 st4">problema</text>
<text transform="matrix(1 0 0 1 731.8915 490.7)" class="st3 st4">multiobjetivo</text>
<g transform="translate(-878,-150) scale(1,1)">
	<path class="st2" d="M1252.6,161.2l1,35"/>
</g>
<g transform="translate(-878,-150) scale(1,1)">
	<path class="st2" d="M1249.1,186.2l4.5,10l3.9-10.3"/>
</g>
<g transform="translate(-878,-150) scale(1,1)">
	<path class="st2" d="M1253.6,240.2l1,44"/>
</g>
<g transform="translate(-878,-150) scale(1,1)">
	<path class="st2" d="M1250.1,274.1l4.4,10.1l4-10.3"/>
</g>
<g transform="translate(-878,-150) scale(1,1)">
	<path class="st2" d="M1243.6,294.2h-120v-77h88"/>
</g>
<g transform="translate(-878,-150) scale(1,1)">
	<path class="st2" d="M1201.4,221.4l10.2-4.2l-10.2-4.2"/>
</g>
<text transform="matrix(1 0 0 1 132.0773 111.7)" class="st5 st4">Red no cargada</text>
<g transform="translate(-878,-150) scale(1,1)">
	<path class="st0" d="M1212.6,348.2h103c6.7,0,10,3.3,10,10v22c0,6.7-3.3,10-10,10h-103c-6.7,0-10-3.3-10-10v-22
		C1202.6,351.5,1205.9,348.2,1212.6,348.2z"/>
</g>
<g transform="translate(-878,-150) scale(1,1)">
	<path class="st1" d="M1205.6,341.2h103c6.7,0,10,3.3,10,10v22c0,6.7-3.3,10-10,10h-103c-6.7,0-10-3.3-10-10v-22
		C1195.6,344.5,1198.9,341.2,1205.6,341.2z"/>
</g>
<g transform="translate(-878,-150) scale(1,1)">
	<path class="st2" d="M1205.6,341.2h103c6.7,0,10,3.3,10,10v22c0,6.7-3.3,10-10,10h-103c-6.7,0-10-3.3-10-10v-22
		C1195.6,344.5,1198.9,341.2,1205.6,341.2z"/>
</g>
<text transform="matrix(1 0 0 1 325.831 212.7)" class="st3 st4">Visualizar la red</text>
<g transform="translate(-878,-150) scale(1,1)">
	<path class="st0" d="M1172.6,420.2H1370c6.7,0,10,3.3,10,10v22c0,6.7-3.3,10-10,10h-197.4c-6.7,0-10-3.3-10-10v-22
		C1162.6,423.5,1165.9,420.2,1172.6,420.2z"/>
</g>
<g transform="translate(-878,-150) scale(1,1)">
	<path class="st1" d="M1165.6,413.2H1363c6.7,0,10,3.3,10,10v22c0,6.7-3.3,10-10,10h-197.4c-6.7,0-10-3.3-10-10v-22
		C1155.6,416.5,1158.9,413.2,1165.6,413.2z"/>
</g>
<g transform="translate(-878,-150) scale(1,1)">
	<path class="st2" d="M1165.6,413.2H1363c6.7,0,10,3.3,10,10v22c0,6.7-3.3,10-10,10h-197.4c-6.7,0-10-3.3-10-10v-22
		C1155.6,416.5,1158.9,413.2,1165.6,413.2z"/>
</g>
<text transform="matrix(1 0 0 1 289.5481 284.7)" class="st3 st4">Listar componentes de la red</text>
<g transform="translate(-878,-150) scale(1,1)">
	<path class="st2" d="M1254.6,304.2l1,36"/>
</g>
<g transform="translate(-878,-150) scale(1,1)">
	<path class="st2" d="M1251.1,330.2l4.5,10l3.9-10.3"/>
</g>
<text transform="matrix(1 0 0 1 377.0774 174.7)" class="st5 st4">Red cargada</text>
<g transform="translate(-878,-150) scale(1,1)">
	<path class="st2" d="M1258.6,384.2l3,28"/>
</g>
<g transform="translate(-878,-150) scale(1,1)">
	<path class="st2" d="M1256.3,402.5l5.3,9.7l3.1-10.6"/>
</g>
<g transform="translate(-878,-150) scale(1,1)">
	<path class="st0" d="M1028.6,596.2h124c6.7,0,10,3.3,10,10v52c0,6.7-3.3,10-10,10h-124c-6.7,0-10-3.3-10-10v-52
		C1018.6,599.5,1021.9,596.2,1028.6,596.2z"/>
</g>
<g transform="translate(-878,-150) scale(1,1)">
	<path class="st1" d="M1021.6,589.2h124c6.7,0,10,3.3,10,10v52c0,6.7-3.3,10-10,10h-124c-6.7,0-10-3.3-10-10v-52
		C1011.6,592.5,1014.9,589.2,1021.6,589.2z"/>
</g>
<g transform="translate(-878,-150) scale(1,1)">
	<path class="st2" d="M1021.6,589.2h124c6.7,0,10,3.3,10,10v52c0,6.7-3.3,10-10,10h-124c-6.7,0-10-3.3-10-10v-52
		C1011.6,592.5,1014.9,589.2,1021.6,589.2z"/>
</g>
<text transform="matrix(1 0 0 1 166.3891 460.7)" class="st3 st4">Seleccionar</text>
<text transform="matrix(1 0 0 1 145.9509 475.7)" class="st3 st4">componente de la</text>
<text transform="matrix(1 0 0 1 194.7375 490.7)" class="st3 st4">red</text>
<g transform="translate(-878,-150) scale(1,1)">
	<path class="st0" d="M1028.6,708.2h124c6.7,0,10,3.3,10,10v52c0,6.7-3.3,10-10,10h-124c-6.7,0-10-3.3-10-10v-52
		C1018.6,711.5,1021.9,708.2,1028.6,708.2z"/>
</g>
<g transform="translate(-878,-150) scale(1,1)">
	<path class="st1" d="M1021.6,701.2h124c6.7,0,10,3.3,10,10v52c0,6.7-3.3,10-10,10h-124c-6.7,0-10-3.3-10-10v-52
		C1011.6,704.5,1014.9,701.2,1021.6,701.2z"/>
</g>
<g transform="translate(-878,-150) scale(1,1)">
	<path class="st2" d="M1021.6,701.2h124c6.7,0,10,3.3,10,10v52c0,6.7-3.3,10-10,10h-124c-6.7,0-10-3.3-10-10v-52
		C1011.6,704.5,1014.9,701.2,1021.6,701.2z"/>
</g>
<text transform="matrix(1 0 0 1 172.2375 572.7)" class="st3 st4">Mostrar la</text>
<text transform="matrix(1 0 0 1 148.8732 587.7)" class="st3 st4">configuración del</text>
<text transform="matrix(1 0 0 1 164.298 602.7)" class="st3 st4">componente</text>
<g transform="translate(-878,-150) scale(1,1)">
	<path class="st0" d="M1212.6,708.2h116c6.7,0,10,3.3,10,10v67c0,6.7-3.3,10-10,10h-116c-6.7,0-10-3.3-10-10v-67
		C1202.6,711.5,1205.9,708.2,1212.6,708.2z"/>
</g>
<g transform="translate(-878,-150) scale(1,1)">
	<path class="st1" d="M1205.6,701.2h116c6.7,0,10,3.3,10,10v67c0,6.7-3.3,10-10,10h-116c-6.7,0-10-3.3-10-10v-67
		C1195.6,704.5,1198.9,701.2,1205.6,701.2z"/>
</g>
<g transform="translate(-878,-150) scale(1,1)">
	<path class="st2" d="M1205.6,701.2h116c6.7,0,10,3.3,10,10v67c0,6.7-3.3,10-10,10h-116c-6.7,0-10-3.3-10-10v-67
		C1195.6,704.5,1198.9,701.2,1205.6,701.2z"/>
</g>
<text transform="matrix(1 0 0 1 360.1587 572.7)" class="st3 st4">Mostrar</text>
<text transform="matrix(1 0 0 1 332.6269 587.7)" class="st3 st4">resultados de la</text>
<text transform="matrix(1 0 0 1 350.1465 602.7)" class="st3 st4">simulación</text>
<text transform="matrix(1 0 0 1 353.4753 617.7)" class="st3 st4">hidráulica</text>
<g transform="translate(-878,-150) scale(1,1)">
	<path class="st0" d="M1668.6,764.2h92c6.7,0,10,3.3,10,10v37c0,6.7-3.3,10-10,10h-92c-6.7,0-10-3.3-10-10v-37
		C1658.6,767.5,1661.9,764.2,1668.6,764.2z"/>
</g>
<g transform="translate(-878,-150) scale(1,1)">
	<path class="st1" d="M1661.6,757.2h92c6.7,0,10,3.3,10,10v37c0,6.7-3.3,10-10,10h-92c-6.7,0-10-3.3-10-10v-37
		C1651.6,760.5,1654.9,757.2,1661.6,757.2z"/>
</g>
<g transform="translate(-878,-150) scale(1,1)">
	<path class="st2" d="M1661.6,757.2h92c6.7,0,10,3.3,10,10v37c0,6.7-3.3,10-10,10h-92c-6.7,0-10-3.3-10-10v-37
		C1651.6,760.5,1654.9,757.2,1661.6,757.2z"/>
</g>
<text transform="matrix(1 0 0 1 794.5602 628.7)" class="st3 st4">Configurar</text>
<text transform="matrix(1 0 0 1 788.3054 643.7)" class="st3 st4">experimento</text>
<g transform="translate(-878,-150) scale(1,1)">
	<path class="st0" d="M1570.6,712.7l24.5-20.5l23.5,20.5l-23.5,19.5L1570.6,712.7"/>
</g>
<g transform="translate(-878,-150) scale(1,1)">
	<path class="st1" d="M1563.6,705.2l24-20l24,20l-24,20L1563.6,705.2"/>
</g>
<g transform="translate(-878,-150) scale(1,1)">
	<path class="st2" d="M1563.6,705.2l24-20l24,20l-24,20L1563.6,705.2L1563.6,705.2"/>
</g>
<g transform="translate(-878,-150) scale(1,1)">
	<path class="st0" d="M1476.6,820.2h84c6.7,0,10,3.3,10,10v37c0,6.7-3.3,10-10,10h-84c-6.7,0-10-3.3-10-10v-37
		C1466.6,823.5,1469.9,820.2,1476.6,820.2z"/>
</g>
<g transform="translate(-878,-150) scale(1,1)">
	<path class="st1" d="M1469.6,813.2h84c6.7,0,10,3.3,10,10v37c0,6.7-3.3,10-10,10h-84c-6.7,0-10-3.3-10-10v-37
		C1459.6,816.5,1462.9,813.2,1469.6,813.2z"/>
</g>
<g transform="translate(-878,-150) scale(1,1)">
	<path class="st2" d="M1469.6,813.2h84c6.7,0,10,3.3,10,10v37c0,6.7-3.3,10-10,10h-84c-6.7,0-10-3.3-10-10v-37
		C1459.6,816.5,1462.9,813.2,1469.6,813.2z"/>
</g>
<text transform="matrix(1 0 0 1 606.0639 684.7)" class="st3 st4">Ejecutar</text>
<text transform="matrix(1 0 0 1 592.3054 699.7)" class="st3 st4">experimento</text>
<g transform="translate(-878,-150) scale(1,1)">
	<path class="st2" d="M1260.6,663.2l1,37"/>
</g>
<g transform="translate(-878,-150) scale(1,1)">
	<path class="st2" d="M1257.1,690.2l4.5,10l3.9-10.3"/>
</g>
<g transform="translate(-878,-150) scale(1,1)">
	<path class="st2" d="M1083.6,662.2v38"/>
</g>
<g transform="translate(-878,-150) scale(1,1)">
	<path class="st2" d="M1079.4,690l4.2,10.2l4.2-10.2"/>
</g>
<g transform="translate(-878,-150) scale(1,1)">
	<path class="st2" d="M1492.6,662.2l70,32"/>
</g>
<g transform="translate(-878,-150) scale(1,1)">
	<path class="st2" d="M1551.6,693.8l11,0.4l-7.5-8.1"/>
</g>
<g transform="translate(-878,-150) scale(1,1)">
	<path class="st2" d="M1621.6,662.2l-17,22"/>
</g>
<g transform="translate(-878,-150) scale(1,1)">
	<path class="st2" d="M1607.5,673.6l-2.9,10.6l9.5-5.5"/>
</g>
<g transform="translate(-878,-150) scale(1,1)">
	<path class="st2" d="M1612.6,722.2l52,34"/>
</g>
<g transform="translate(-878,-150) scale(1,1)">
	<path class="st2" d="M1653.8,754.2l10.8,2l-6.2-9.1"/>
</g>
<text transform="matrix(1 0 0 1 752.8395 578.7)" class="st5 st4">Hay parametros a</text>
<text transform="matrix(1 0 0 1 779.0969 593.7)" class="st5 st4">configurar</text>
<g transform="translate(-878,-150) scale(1,1)">
	<path class="st2" d="M1575.6,726.2l-48,86"/>
</g>
<g transform="translate(-878,-150) scale(1,1)">
	<path class="st2" d="M1528.9,801.3l-1.3,10.9l8.6-6.8"/>
</g>
<text transform="matrix(1 0 0 1 576.3139 628.7)" class="st5 st4">No hay</text>
<text transform="matrix(1 0 0 1 555.8903 643.7)" class="st5 st4">parametros a</text>
<text transform="matrix(1 0 0 1 566.7265 658.7)" class="st5 st4">configurar</text>
<g transform="translate(-878,-150) scale(1,1)">
	<path class="st0" d="M1506.6,973.7l19.5-17.5l18.5,17.5l-18.5,16.5L1506.6,973.7"/>
</g>
<g transform="translate(-878,-150) scale(1,1)">
	<path class="st1" d="M1499.6,966.2l19-17l19,17l-19,17L1499.6,966.2"/>
</g>
<g transform="translate(-878,-150) scale(1,1)">
	<path class="st2" d="M1499.6,966.2l19-17l19,17l-19,17L1499.6,966.2L1499.6,966.2"/>
</g>
<g transform="translate(-878,-150) scale(1,1)">
	<path class="st0" d="M1580.6,1052.2h66.5c6.7,0,10,3.3,10,10v22c0,6.7-3.3,10-10,10h-66.5c-6.7,0-10-3.3-10-10v-22
		C1570.6,1055.5,1573.9,1052.2,1580.6,1052.2z"/>
</g>
<g transform="translate(-878,-150) scale(1,1)">
	<path class="st1" d="M1573.6,1045.2h66.5c6.7,0,10,3.3,10,10v22c0,6.7-3.3,10-10,10h-66.5c-6.7,0-10-3.3-10-10v-22
		C1563.6,1048.5,1566.9,1045.2,1573.6,1045.2z"/>
</g>
<g transform="translate(-878,-150) scale(1,1)">
	<path class="st2" d="M1573.6,1045.2h66.5c6.7,0,10,3.3,10,10v22c0,6.7-3.3,10-10,10h-66.5c-6.7,0-10-3.3-10-10v-22
		C1563.6,1048.5,1566.9,1045.2,1573.6,1045.2z"/>
</g>
<text transform="matrix(1 0 0 1 692.9924 916.7)" class="st3 st4">Ver gráfico</text>
<g transform="translate(-878,-150) scale(1,1)">
	<path class="st0" d="M1300.6,1188.2h126.5c6.7,0,10,3.3,10,10v22c0,6.7-3.3,10-10,10h-126.5c-6.7,0-10-3.3-10-10v-22
		C1290.6,1191.5,1293.9,1188.2,1300.6,1188.2z"/>
</g>
<g transform="translate(-878,-150) scale(1,1)">
	<path class="st1" d="M1293.6,1181.2h126.5c6.7,0,10,3.3,10,10v22c0,6.7-3.3,10-10,10h-126.5c-6.7,0-10-3.3-10-10v-22
		C1283.6,1184.5,1286.9,1181.2,1293.6,1181.2z"/>
</g>
<g transform="translate(-878,-150) scale(1,1)">
	<path class="st2" d="M1293.6,1181.2h126.5c6.7,0,10,3.3,10,10v22c0,6.7-3.3,10-10,10h-126.5c-6.7,0-10-3.3-10-10v-22
		C1283.6,1184.5,1286.9,1181.2,1293.6,1181.2z"/>
</g>
<text transform="matrix(1 0 0 1 415.9038 1052.7)" class="st3 st4">Mostrar soluciones</text>
<g transform="translate(-878,-150) scale(1,1)">
	<path class="st2" d="M1513.6,871.2l4,77"/>
</g>
<g transform="translate(-878,-150) scale(1,1)">
	<path class="st2" d="M1512.8,938.3l4.7,9.9l3.7-10.4"/>
</g>
<g transform="translate(-878,-150) scale(1,1)">
	<path class="st2" d="M1534.6,984.2l53,60"/>
</g>
<g transform="translate(-878,-150) scale(1,1)">
	<path class="st2" d="M1577.7,1039.4l9.9,4.8l-3.6-10.4"/>
</g>
<text transform="matrix(1 0 0 1 673.3889 848.7)" class="st5 st4">Se quiere ver el</text>
<text transform="matrix(1 0 0 1 703.4072 863.7)" class="st5 st4">gráfico</text>
<g transform="translate(-878,-150) scale(1,1)">
	<path class="st2" d="M1506.6,984.2l-135,196"/>
</g>
<g transform="translate(-878,-150) scale(1,1)">
	<path class="st2" d="M1373.9,1169.4l-2.3,10.8l9.2-6"/>
</g>
<text transform="matrix(1 0 0 1 481.0529 895.7)" class="st5 st4">No se quiere</text>
<text transform="matrix(1 0 0 1 480.6428 910.7)" class="st5 st4">ver el grafico</text>
<g transform="translate(-878,-150) scale(1,1)">
	<path class="st0" d="M1644.6,1172.2h84c6.7,0,10,3.3,10,10v52c0,6.7-3.3,10-10,10h-84c-6.7,0-10-3.3-10-10v-52
		C1634.6,1175.5,1637.9,1172.2,1644.6,1172.2z"/>
</g>
<g transform="translate(-878,-150) scale(1,1)">
	<path class="st1" d="M1637.6,1165.2h84c6.7,0,10,3.3,10,10v52c0,6.7-3.3,10-10,10h-84c-6.7,0-10-3.3-10-10v-52
		C1627.6,1168.5,1630.9,1165.2,1637.6,1165.2z"/>
</g>
<g transform="translate(-878,-150) scale(1,1)">
	<path class="st2" d="M1637.6,1165.2h84c6.7,0,10,3.3,10,10v52c0,6.7-3.3,10-10,10h-84c-6.7,0-10-3.3-10-10v-52
		C1627.6,1168.5,1630.9,1165.2,1637.6,1165.2z"/>
</g>
<text transform="matrix(1 0 0 1 774.0639 1036.7)" class="st3 st4">Guardar</text>
<text transform="matrix(1 0 0 1 764.8867 1051.7)" class="st3 st4">imagen del</text>
<text transform="matrix(1 0 0 1 779.0663 1066.7)" class="st3 st4">gráfico</text>
<g transform="translate(-878,-150) scale(1,1)">
	<path class="st0" d="M1586.6,1140.7l16.5-16.5l15.5,16.5l-15.5,15.5L1586.6,1140.7"/>
</g>
<g transform="translate(-878,-150) scale(1,1)">
	<path class="st1" d="M1579.6,1133.2l16-16l16,16l-16,16L1579.6,1133.2"/>
</g>
<g transform="translate(-878,-150) scale(1,1)">
	<path class="st2" d="M1579.6,1133.2l16-16l16,16l-16,16L1579.6,1133.2L1579.6,1133.2"/>
</g>
<g transform="translate(-878,-150) scale(1,1)">
	<path class="st2" d="M1602.6,1088.2l-4,28"/>
</g>
<g transform="translate(-878,-150) scale(1,1)">
	<path class="st2" d="M1595.8,1105.5l2.7,10.7l5.6-9.5"/>
</g>
<g transform="translate(-878,-150) scale(1,1)">
	<path class="st2" d="M1612.6,1147.2l21,17"/>
</g>
<g transform="translate(-878,-150) scale(1,1)">
	<path class="st2" d="M1623,1161.1l10.5,3.1l-5.3-9.7"/>
</g>
<text transform="matrix(1 0 0 1 745.9716 979.7)" class="st5 st4">Se quiere</text>
<text transform="matrix(1 0 0 1 744.3054 994.7)" class="st5 st4">guardar el</text>
<text transform="matrix(1 0 0 1 755.5663 1009.7)" class="st5 st4">gráfico</text>
<g transform="translate(-878,-150) scale(1,1)">
	<path class="st2" d="M1578.6,1138.2l-147,42"/>
</g>
<g transform="translate(-878,-150) scale(1,1)">
	<path class="st2" d="M1440.2,1173.4l-8.6,6.8l10.9,1.3"/>
</g>
<text transform="matrix(1 0 0 1 578.5529 980.7)" class="st5 st4">No se quiere</text>
<text transform="matrix(1 0 0 1 587.3054 995.7)" class="st5 st4">guardar el</text>
<text transform="matrix(1 0 0 1 598.5663 1010.7)" class="st5 st4">gráfico</text>
<g transform="translate(-878,-150) scale(1,1)">
	<path class="st0" d="M1164.6,1356.2h94.1c6.7,0,10,3.3,10,10v22c0,6.7-3.3,10-10,10h-94.1c-6.7,0-10-3.3-10-10v-22
		C1154.6,1359.5,1157.9,1356.2,1164.6,1356.2z"/>
</g>
<g transform="translate(-878,-150) scale(1,1)">
	<path class="st1" d="M1157.6,1349.2h94.1c6.7,0,10,3.3,10,10v22c0,6.7-3.3,10-10,10h-94.1c-6.7,0-10-3.3-10-10v-22
		C1147.6,1352.5,1150.9,1349.2,1157.6,1349.2z"/>
</g>
<g transform="translate(-878,-150) scale(1,1)">
	<path class="st2" d="M1157.6,1349.2h94.1c6.7,0,10,3.3,10,10v22c0,6.7-3.3,10-10,10h-94.1c-6.7,0-10-3.3-10-10v-22
		C1147.6,1352.5,1150.9,1349.2,1157.6,1349.2z"/>
</g>
<text transform="matrix(1 0 0 1 277.8347 1220.7)" class="st3 st4">Exportar Excel</text>
<g transform="translate(-878,-150) scale(1,1)">
	<path class="st0" d="M1308.6,1356.2h84c6.7,0,10,3.3,10,10v22c0,6.7-3.3,10-10,10h-84c-6.7,0-10-3.3-10-10v-22
		C1298.6,1359.5,1301.9,1356.2,1308.6,1356.2z"/>
</g>
<g transform="translate(-878,-150) scale(1,1)">
	<path class="st1" d="M1301.6,1349.2h84c6.7,0,10,3.3,10,10v22c0,6.7-3.3,10-10,10h-84c-6.7,0-10-3.3-10-10v-22
		C1291.6,1352.5,1294.9,1349.2,1301.6,1349.2z"/>
</g>
<g transform="translate(-878,-150) scale(1,1)">
	<path class="st2" d="M1301.6,1349.2h84c6.7,0,10,3.3,10,10v22c0,6.7-3.3,10-10,10h-84c-6.7,0-10-3.3-10-10v-22
		C1291.6,1352.5,1294.9,1349.2,1301.6,1349.2z"/>
</g>
<text transform="matrix(1 0 0 1 420.5749 1220.7)" class="st3 st4">Exportar TSV</text>
<g transform="translate(-878,-150) scale(1,1)">
	<path class="st0" d="M1532.6,1444.2h79.9c6.7,0,10,3.3,10,10v22c0,6.7-3.3,10-10,10h-79.9c-6.7,0-10-3.3-10-10v-22
		C1522.6,1447.5,1525.9,1444.2,1532.6,1444.2z"/>
</g>
<g transform="translate(-878,-150) scale(1,1)">
	<path class="st1" d="M1525.6,1437.2h79.9c6.7,0,10,3.3,10,10v22c0,6.7-3.3,10-10,10h-79.9c-6.7,0-10-3.3-10-10v-22
		C1515.6,1440.5,1518.9,1437.2,1525.6,1437.2z"/>
</g>
<g transform="translate(-878,-150) scale(1,1)">
	<path class="st2" d="M1525.6,1437.2h79.9c6.7,0,10,3.3,10,10v22c0,6.7-3.3,10-10,10h-79.9c-6.7,0-10-3.3-10-10v-22
		C1515.6,1440.5,1518.9,1437.2,1525.6,1437.2z"/>
</g>
<text transform="matrix(1 0 0 1 644.5749 1308.7)" class="st3 st4">Exportar INP</text>
<g transform="translate(-878,-150) scale(1,1)">
	<path class="st0" d="M1338.6,1272.7l16.5-12.5l15.5,12.5l-15.5,11.5L1338.6,1272.7"/>
</g>
<g transform="translate(-878,-150) scale(1,1)">
	<path class="st1" d="M1331.6,1265.2l16-12l16,12l-16,12L1331.6,1265.2"/>
</g>
<g transform="translate(-878,-150) scale(1,1)">
	<path class="st2" d="M1331.6,1265.2l16-12l16,12l-16,12L1331.6,1265.2L1331.6,1265.2"/>
</g>
<g transform="translate(-878,-150) scale(1,1)">
	<path class="st0" d="M1234.6,512.7l24.5-20.5l23.5,20.5l-23.5,19.5L1234.6,512.7"/>
</g>
<g transform="translate(-878,-150) scale(1,1)">
	<path class="st1" d="M1227.6,505.2l24-20l24,20l-24,20L1227.6,505.2"/>
</g>
<g transform="translate(-878,-150) scale(1,1)">
	<path class="st2" d="M1227.6,505.2l24-20l24,20l-24,20L1227.6,505.2L1227.6,505.2"/>
</g>
<g transform="translate(-878,-150) scale(1,1)">
	<path class="st2" d="M1259.6,456.2l-4,28"/>
</g>
<g transform="translate(-878,-150) scale(1,1)">
	<path class="st2" d="M1252.8,473.5l2.7,10.7l5.6-9.5"/>
</g>
<g transform="translate(-878,-150) scale(1,1)">
	<path class="st2" d="M1251.6,525.2v32h-208v32"/>
</g>
<g transform="translate(-878,-150) scale(1,1)">
	<path class="st2" d="M1039.4,579l4.2,10.2l4.2-10.2"/>
</g>
<g transform="translate(-878,-150) scale(1,1)">
	<path class="st2" d="M1251.6,525.2v80"/>
</g>
<g transform="translate(-878,-150) scale(1,1)">
	<path class="st2" d="M1247.4,595l4.2,10.2l4.2-10.2"/>
</g>
<g transform="translate(-878,-150) scale(1,1)">
	<path class="st2" d="M1251.6,525.2v32h168v40"/>
</g>
<g transform="translate(-878,-150) scale(1,1)">
	<path class="st2" d="M1415.4,587l4.2,10.2l4.2-10.2"/>
</g>
<g transform="translate(-878,-150) scale(1,1)">
	<path class="st2" d="M1251.6,525.2v32h410v32"/>
</g>
<g transform="translate(-878,-150) scale(1,1)">
	<path class="st2" d="M1657.4,579l4.2,10.2l4.2-10.2"/>
</g>
<g transform="translate(-878,-150) scale(1,1)">
	<path class="st2" d="M1353.6,1224.2l-4,28"/>
</g>
<g transform="translate(-878,-150) scale(1,1)">
	<path class="st2" d="M1346.8,1241.5l2.7,10.7l5.6-9.5"/>
</g>
<g transform="translate(-878,-150) scale(1,1)">
	<path class="st2" d="M1330.6,1277.2l-96,71"/>
</g>
<g transform="translate(-878,-150) scale(1,1)">
	<path class="st2" d="M1240.2,1338.8l-5.7,9.4l10.7-2.7"/>
</g>
<g transform="translate(-878,-150) scale(1,1)">
	<path class="st2" d="M1347.6,1278.2l-3,70"/>
</g>
<g transform="translate(-878,-150) scale(1,1)">
	<path class="st2" d="M1340.8,1337.9l3.8,10.3l4.6-10"/>
</g>
<g transform="translate(-878,-150) scale(1,1)">
	<path class="st2" d="M1364.6,1272.2l182,78"/>
</g>
<g transform="translate(-878,-150) scale(1,1)">
	<path class="st2" d="M1535.6,1350.1l11,0.1l-7.7-7.9"/>
</g>
<g transform="translate(-878,-150) scale(1,1)">
	<path class="st2" d="M1626.6,1201.2l-195,1"/>
</g>
<g transform="translate(-878,-150) scale(1,1)">
	<path class="st2" d="M1441.7,1197.9l-10.1,4.3l10.2,4.2"/>
</g>
<g transform="translate(-878,-150) scale(1,1)">
	<path class="st2" d="M1011.6,735.2h-40v-234h256"/>
</g>
<g transform="translate(-878,-150) scale(1,1)">
	<path class="st2" d="M1217.4,505.4l10.2-4.2l-10.2-4.2"/>
</g>
<g transform="translate(-878,-150) scale(1,1)">
	<path class="st2" d="M1267.6,788.2v9h-320v-296h280"/>
</g>
<g transform="translate(-878,-150) scale(1,1)">
	<path class="st2" d="M1217.4,505.4l10.2-4.2l-10.2-4.2"/>
</g>
<g transform="translate(-878,-150) scale(1,1)">
	<path class="st2" d="M1737.6,866.2h82v-365h-544"/>
</g>
<g transform="translate(-878,-150) scale(1,1)">
	<path class="st2" d="M1285.7,497l-10.2,4.2l10.2,4.2"/>
</g>
<text transform="matrix(1 0 0 1 964.4775 595.7)" class="st5 st4">Experimento no</text>
<text transform="matrix(1 0 0 1 977.8112 610.7)" class="st5 st4">configurado</text>
<g transform="translate(-878,-150) scale(1,1)">
	<path class="st0" d="M1698.6,873.7l23.5-21.5l22.5,21.5l-22.5,20.5L1698.6,873.7"/>
</g>
<g transform="translate(-878,-150) scale(1,1)">
	<path class="st1" d="M1691.6,866.2l23-21l23,21l-23,21L1691.6,866.2"/>
</g>
<g transform="translate(-878,-150) scale(1,1)">
	<path class="st2" d="M1691.6,866.2l23-21l23,21l-23,21L1691.6,866.2L1691.6,866.2"/>
</g>
<g transform="translate(-878,-150) scale(1,1)">
	<path class="st2" d="M1710.6,815.2l2,29"/>
</g>
<g transform="translate(-878,-150) scale(1,1)">
	<path class="st2" d="M1707.7,834.4l4.9,9.8l3.5-10.4"/>
</g>
<g transform="translate(-878,-150) scale(1,1)">
	<path class="st2" d="M1690.6,863.2l-126-15"/>
</g>
<g transform="translate(-878,-150) scale(1,1)">
	<path class="st2" d="M1575.2,845.2l-10.6,3l9.6,5.4"/>
</g>
<text transform="matrix(1 0 0 1 698.9741 732.7)" class="st5 st4">Experimento</text>
<text transform="matrix(1 0 0 1 701.8818 747.7)" class="st5 st4">configurado</text>
<g transform="translate(-878,-150) scale(1,1)">
	<path class="st0" d="M1778.6,616.7c0-6.9,5.6-12.5,12.5-12.5s12.5,5.6,12.5,12.5s-5.6,12.5-12.5,12.5S1778.6,623.6,1778.6,616.7z"
		/>
</g>
<g transform="translate(-878,-150) scale(1,1)">
	<path class="st2" d="M1771.6,609.7c0-6.9,5.6-12.5,12.5-12.5s12.5,5.6,12.5,12.5s-5.6,12.5-12.5,12.5S1771.6,616.6,1771.6,609.7z"
		/>
</g>
<g transform="translate(-878,-150) scale(1,1)">
	<path d="M1776.6,609.7c0-4.1,3.4-7.5,7.5-7.5s7.5,3.4,7.5,7.5s-3.4,7.5-7.5,7.5S1776.6,613.8,1776.6,609.7z"/>
</g>
<g transform="translate(-878,-150) scale(1,1)">
	<path class="st2" d="M1251.6,525.2v32h532v40"/>
</g>
<g transform="translate(-878,-150) scale(1,1)">
	<path class="st2" d="M1779.4,587l4.2,10.2l4.2-10.2"/>
</g>
<g transform="translate(-878,-150) scale(1,1)">
	<path class="st2" d="M1331.6,1265.2h-432v-764h328"/>
</g>
<g transform="translate(-878,-150) scale(1,1)">
	<path class="st2" d="M1217.4,505.4l10.2-4.2l-10.2-4.2"/>
</g>
<g transform="translate(-878,-150) scale(1,1)">
	<path class="st0" d="M1322.6,1468.7l28.5-24.5l27.5,24.5l-27.5,23.5L1322.6,1468.7"/>
</g>
<g transform="translate(-878,-150) scale(1,1)">
	<path class="st1" d="M1315.6,1461.2l28-24l28,24l-28,24L1315.6,1461.2"/>
</g>
<g transform="translate(-878,-150) scale(1,1)">
	<path class="st2" d="M1315.6,1461.2l28-24l28,24l-28,24L1315.6,1461.2L1315.6,1461.2"/>
</g>
<g transform="translate(-878,-150) scale(1,1)">
	<path class="st2" d="M1238.6,1392.2l76,50"/>
</g>
<g transform="translate(-878,-150) scale(1,1)">
	<path class="st2" d="M1303.8,1440.1l10.8,2.1l-6.2-9.1"/>
</g>
<g transform="translate(-878,-150) scale(1,1)">
	<path class="st2" d="M1343.6,1392.2v44"/>
</g>
<g transform="translate(-878,-150) scale(1,1)">
	<path class="st2" d="M1339.4,1426l4.2,10.2l4.2-10.2"/>
</g>
<g transform="translate(-878,-150) scale(1,1)">
	<path class="st2" d="M1514.6,1459.2l-142,2"/>
</g>
<g transform="translate(-878,-150) scale(1,1)">
	<path class="st2" d="M1382.7,1456.8l-10.1,4.4l10.2,4.1"/>
</g>
<g transform="translate(-878,-150) scale(1,1)">
	<path class="st2" d="M1315.6,1461.2h-392v-960h304"/>
</g>
<g transform="translate(-878,-150) scale(1,1)">
	<path class="st2" d="M1217.4,505.4l10.2-4.2l-10.2-4.2"/>
</g>
<g transform="translate(-878,-150) scale(1,1)">
	<path class="st0" d="M1554.6,1364.7l16.5-16.5l15.5,16.5l-15.5,15.5L1554.6,1364.7"/>
</g>
<g transform="translate(-878,-150) scale(1,1)">
	<path class="st1" d="M1547.6,1357.2l16-16l16,16l-16,16L1547.6,1357.2"/>
</g>
<g transform="translate(-878,-150) scale(1,1)">
	<path class="st2" d="M1547.6,1357.2l16-16l16,16l-16,16L1547.6,1357.2L1547.6,1357.2"/>
</g>
<g transform="translate(-878,-150) scale(1,1)">
	<path class="st2" d="M1563.6,1374.2l1,62"/>
</g>
<g transform="translate(-878,-150) scale(1,1)">
	<path class="st2" d="M1560.2,1426.1l4.4,10.1l4-10.2"/>
</g>
<text transform="matrix(1 0 0 1 723.9904 1256.7)" class="st5 st4">Solución</text>
<text transform="matrix(1 0 0 1 708.9794 1271.7)" class="st5 st4">seleccionada</text>
<g transform="translate(-878,-150) scale(1,1)">
	<path class="st2" d="M1546.6,1365.2l-174,82"/>
</g>
<g transform="translate(-878,-150) scale(1,1)">
	<path class="st2" d="M1380,1439.1l-7.4,8.1l11-0.5"/>
</g>
<text transform="matrix(1 0 0 1 545.6623 1228.7)" class="st5 st4">Solución no</text>
<text transform="matrix(1 0 0 1 541.0773 1243.7)" class="st5 st4">seleccionada</text>
</svg>
