<?xml version="1.0" encoding="utf-8"?>
<!-- Generator: Adobe Illustrator 24.0.1, SVG Export Plug-In . SVG Version: 6.00 Build 0)  -->
<svg version="1.1" id="Capa_1" xmlns="http://www.w3.org/2000/svg" xmlns:xlink="http://www.w3.org/1999/xlink" x="0px" y="0px"
	 viewBox="0 0 436 223" style="enable-background:new 0 0 436 223;" xml:space="preserve">
<style type="text/css">
	.st0{opacity:0.2;fill:#C0C0C0;enable-background:new    ;}
	.st1{fill:#FFFFFF;}
	.st2{fill:none;stroke:#000000;stroke-miterlimit:10;}
	.st3{font-family:'Arial-BoldMT';}
	.st4{font-size:13px;}
	.st5{fill:none;stroke:#000000;stroke-miterlimit:10;stroke-dasharray:3;}
	.st6{font-family:'ArialMT';}
</style>
<g transform="translate(-982,-430) scale(1,1)">
	<rect x="996.3" y="597.8" class="st0" width="161.2" height="49"/>
</g>
<g transform="translate(-982,-430) scale(1,1)">
	<rect x="1072.1" y="579.8" class="st0" width="94.3" height="22"/>
</g>
<g transform="translate(-982,-430) scale(1,1)">
	<rect x="989.3" y="590.8" class="st1" width="161.2" height="49"/>
</g>
<g transform="translate(-982,-430) scale(1,1)">
	<path class="st2" d="M989.3,590.8h161.2v49H989.3V590.8z"/>
</g>
<g transform="translate(-982,-430) scale(1,1)">
	<path class="st2" d="M989.3,615.8h161.2"/>
</g>
<text transform="matrix(1 0 0 1 27.5137 180.25)" class="st3 st4">ExperimentAlgorithm</text>
<g transform="translate(-982,-430) scale(1,1)">
	<rect x="1065.1" y="572.8" class="st1" width="94.3" height="22"/>
</g>
<g transform="translate(-982,-430) scale(1,1)">
	<path class="st5" d="M1065.1,572.8h94.3v22h-94.3V572.8z"/>
</g>
<text transform="matrix(1 0 0 1 88.1465 160.25)" class="st6 st4">S: Solution&lt;?&gt;</text>
<g transform="translate(-982,-430) scale(1,1)">
	<rect x="1220.3" y="597.8" class="st0" width="182" height="49"/>
</g>
<g transform="translate(-982,-430) scale(1,1)">
	<rect x="1317" y="579.8" class="st0" width="94.3" height="22"/>
</g>
<g transform="translate(-982,-430) scale(1,1)">
	<rect x="1213.3" y="590.8" class="st1" width="182" height="49"/>
</g>
<g transform="translate(-982,-430) scale(1,1)">
	<path class="st2" d="M1213.3,590.8h182v49h-182V590.8z"/>
</g>
<g transform="translate(-982,-430) scale(1,1)">
	<path class="st2" d="M1213.3,615.8h182"/>
</g>
<text transform="matrix(1 0 0 1 265.1719 180.25)" class="st3 st4">ExperimentProblem</text>
<g transform="translate(-982,-430) scale(1,1)">
	<rect x="1310" y="572.8" class="st1" width="94.3" height="22"/>
</g>
<g transform="translate(-982,-430) scale(1,1)">
	<path class="st5" d="M1310,572.8h94.3v22H1310V572.8z"/>
</g>
<text transform="matrix(1 0 0 1 332.9629 160.25)" class="st6 st4">S: Solution&lt;?&gt;</text>
<g transform="translate(-982,-430) scale(1,1)">
	<rect x="1108.3" y="461.8" class="st0" width="182" height="34"/>
</g>
<g transform="translate(-982,-430) scale(1,1)">
	<rect x="1205" y="443.8" class="st0" width="94.3" height="22"/>
</g>
<g transform="translate(-982,-430) scale(1,1)">
	<rect x="1101.3" y="454.8" class="st1" width="182" height="34"/>
</g>
<g transform="translate(-982,-430) scale(1,1)">
	<path class="st2" d="M1101.3,454.8h182v34h-182V454.8z"/>
</g>
<g transform="translate(-982,-430) scale(1,1)">
	<path class="st2" d="M1101.3,479.8h182"/>
</g>
<text transform="matrix(1 0 0 1 177.3755 44.25)" class="st3 st4">Experiment</text>
<g transform="translate(-982,-430) scale(1,1)">
	<rect x="1198" y="436.8" class="st1" width="94.3" height="22"/>
</g>
<g transform="translate(-982,-430) scale(1,1)">
	<path class="st5" d="M1198,436.8h94.3v22H1198V436.8z"/>
</g>
<text transform="matrix(1 0 0 1 220.9629 24.25)" class="st6 st4">S: Solution&lt;?&gt;</text>
<g transform="translate(-982,-430) scale(1,1)">
	<path class="st2" d="M1103.3,571.8l71-82"/>
</g>
<g transform="translate(-982,-430) scale(1,1)">
	<path d="M1170.8,500.2l3.5-10.4l-9.8,4.9l-4.6,11.7"/>
</g>
<g transform="translate(-982,-430) scale(1,1)">
	<path class="st2" d="M1170.8,500.2l3.5-10.4l-9.8,4.9l-4.6,11.7L1170.8,500.2"/>
</g>
<text transform="matrix(1 0 0 1 141.75 139.25)" class="st6 st4">*</text>
<g transform="translate(-982,-430) scale(1,1)">
	<path class="st2" d="M1282.3,571.8l-64-82"/>
</g>
<g transform="translate(-982,-430) scale(1,1)">
	<path d="M1227.8,495.2l-9.6-5.4l2.9,10.6l10.6,6.7"/>
</g>
<g transform="translate(-982,-430) scale(1,1)">
	<path class="st2" d="M1227.8,495.2l-9.6-5.4l2.9,10.6l10.6,6.7L1227.8,495.2"/>
</g>
<text transform="matrix(1 0 0 1 292.75 123.25)" class="st6 st4">1</text>
</svg>
