<?xml version="1.0" encoding="utf-8"?>
<!-- Generator: Adobe Illustrator 24.0.1, SVG Export Plug-In . SVG Version: 6.00 Build 0)  -->
<svg version="1.1" id="Capa_1" xmlns="http://www.w3.org/2000/svg" xmlns:xlink="http://www.w3.org/1999/xlink" x="0px" y="0px"
	 viewBox="0 0 439.6 330" style="enable-background:new 0 0 439.6 330;" xml:space="preserve">
<style type="text/css">
	.st0{opacity:0.2;fill:#C0C0C0;enable-background:new    ;}
	.st1{fill:#FFFFFF;}
	.st2{fill:none;stroke:#000000;stroke-miterlimit:10;}
	.st3{font-family:'Arial-BoldMT';}
	.st4{font-size:13px;}
	.st5{fill:none;stroke:#000000;stroke-miterlimit:10;stroke-dasharray:3;}
	.st6{font-family:'ArialMT';}
</style>
<g transform="translate(-390,-311) scale(1,1)">
	<rect x="515.5" y="343.3" class="st0" width="153" height="45"/>
</g>
<g transform="translate(-390,-311) scale(1,1)">
	<rect x="631.7" y="325.3" class="st0" width="45.8" height="22"/>
</g>
<g transform="translate(-390,-311) scale(1,1)">
	<rect x="508.5" y="336.3" class="st1" width="153" height="45"/>
</g>
<g transform="translate(-390,-311) scale(1,1)">
	<path class="st2" d="M508.5,336.3h153v45h-153V336.3z"/>
</g>
<g transform="translate(-390,-311) scale(1,1)">
	<path class="st2" d="M508.5,361.3h153"/>
</g>
<text transform="matrix(1 0 0 1 167.5698 44.75)" class="st3 st4">Algorithm</text>
<g transform="translate(-390,-311) scale(1,1)">
	<rect x="624.7" y="318.3" class="st1" width="45.8" height="22"/>
</g>
<g transform="translate(-390,-311) scale(1,1)">
	<path class="st5" d="M624.7,318.3h45.8v22h-45.8V318.3z"/>
</g>
<text transform="matrix(1 0 0 1 239.6753 24.75)" class="st6 st4">Result</text>
<g transform="translate(-390,-311) scale(1,1)">
	<rect x="411.5" y="462.3" class="st0" width="105" height="45"/>
</g>
<g transform="translate(-390,-311) scale(1,1)">
	<rect x="488.3" y="444.3" class="st0" width="37.2" height="22"/>
</g>
<g transform="translate(-390,-311) scale(1,1)">
	<rect x="404.5" y="455.3" class="st1" width="105" height="45"/>
</g>
<g transform="translate(-390,-311) scale(1,1)">
	<path class="st2" d="M404.5,455.3h105v45h-105V455.3z"/>
</g>
<g transform="translate(-390,-311) scale(1,1)">
	<path class="st2" d="M404.5,480.3h105"/>
</g>
<text transform="matrix(1 0 0 1 43.5339 163.75)" class="st3 st4">Solution</text>
<g transform="translate(-390,-311) scale(1,1)">
	<rect x="481.3" y="437.3" class="st1" width="37.2" height="22"/>
</g>
<g transform="translate(-390,-311) scale(1,1)">
	<path class="st5" d="M481.3,437.3h37.2v22h-37.2V437.3z"/>
</g>
<text transform="matrix(1 0 0 1 96.3398 143.75)" class="st6 st4">Type</text>
<g transform="translate(-390,-311) scale(1,1)">
	<rect x="707.5" y="454.3" class="st0" width="105" height="53"/>
</g>
<g transform="translate(-390,-311) scale(1,1)">
	<rect x="765.5" y="436.3" class="st0" width="56" height="22"/>
</g>
<g transform="translate(-390,-311) scale(1,1)">
	<rect x="700.5" y="447.3" class="st1" width="105" height="53"/>
</g>
<g transform="translate(-390,-311) scale(1,1)">
	<path class="st2" d="M700.5,447.3h105v53h-105V447.3z"/>
</g>
<g transform="translate(-390,-311) scale(1,1)">
	<path class="st2" d="M700.5,472.3h105"/>
</g>
<text transform="matrix(1 0 0 1 338.8198 155.75)" class="st3 st4">Problem</text>
<g transform="translate(-390,-311) scale(1,1)">
	<rect x="758.5" y="429.3" class="st1" width="56" height="22"/>
</g>
<g transform="translate(-390,-311) scale(1,1)">
	<path class="st5" d="M758.5,429.3h56v22h-56V429.3z"/>
</g>
<text transform="matrix(1 0 0 1 373.5444 135.75)" class="st6 st4">Solution</text>
<g transform="translate(-390,-311) scale(1,1)">
	<rect x="527.5" y="597.3" class="st0" width="129" height="38"/>
</g>
<g transform="translate(-390,-311) scale(1,1)">
	<rect x="619.7" y="564.3" class="st0" width="45.8" height="37"/>
</g>
<g transform="translate(-390,-311) scale(1,1)">
	<rect x="520.5" y="590.3" class="st1" width="129" height="38"/>
</g>
<g transform="translate(-390,-311) scale(1,1)">
	<path class="st2" d="M520.5,590.3h129v38h-129V590.3z"/>
</g>
<g transform="translate(-390,-311) scale(1,1)">
	<path class="st2" d="M520.5,615.3h129"/>
</g>
<text transform="matrix(1 0 0 1 169.3726 298.75)" class="st3 st4">Operator</text>
<g transform="translate(-390,-311) scale(1,1)">
	<rect x="612.7" y="557.3" class="st1" width="45.8" height="37"/>
</g>
<g transform="translate(-390,-311) scale(1,1)">
	<path class="st5" d="M612.7,557.3h45.8v37h-45.8V557.3z"/>
</g>
<text transform="matrix(1 0 0 1 227.6753 263.75)" class="st6 st4">Input</text>
<text transform="matrix(1 0 0 1 227.6753 278.75)" class="st6 st4">Result</text>
<g transform="translate(-390,-311) scale(1,1)">
	<path class="st2" d="M589.5,382.3v174"/>
</g>
<g transform="translate(-390,-311) scale(1,1)">
	<path class="st2" d="M585.3,546.1l4.2,10.2l4.2-10.2"/>
</g>
<text transform="matrix(1 0 0 1 195.0234 163.75)" class="st6 st4">+Uses</text>
<text transform="matrix(1 0 0 1 184.0234 229.75)" class="st6 st4">*</text>
<g transform="translate(-390,-311) scale(1,1)">
	<path class="st2" d="M520.5,584.3h-59v-84"/>
</g>
<g transform="translate(-390,-311) scale(1,1)">
	<path class="st2" d="M465.7,510.4l-4.2-10.2l-4.2,10.2"/>
</g>
<text transform="matrix(1 0 0 1 6.0234 287.75)" class="st6 st4">+Manipulates</text>
<g transform="translate(-390,-311) scale(1,1)">
	<path class="st2" d="M508.5,357.3h-47v80"/>
</g>
<g transform="translate(-390,-311) scale(1,1)">
	<path class="st2" d="M457.3,427.1l4.2,10.2l4.2-10.2"/>
</g>
<text transform="matrix(1 0 0 1 14.0234 74.75)" class="st6 st4">+Manages</text>
<text transform="matrix(1 0 0 1 56.0234 110.75)" class="st6 st4">*</text>
<g transform="translate(-390,-311) scale(1,1)">
	<path class="st2" d="M671.5,357.3h86v72"/>
</g>
<g transform="translate(-390,-311) scale(1,1)">
	<path class="st2" d="M753.3,419.1l4.2,10.2l4.2-10.2"/>
</g>
<text transform="matrix(1 0 0 1 380.0234 33.75)" class="st6 st4">+Solves</text>
</svg>
